<svg id="Layer_1" data-name="Layer 1" xmlns="http://www.w3.org/2000/svg" viewBox="0 0 325.94 129"><defs><style>.cls-1{font-size:10px;}.cls-1,.cls-31,.cls-32{font-family:ArialMT, Arial;}.cls-2{letter-spacing:9.96em;}.cls-3{letter-spacing:9.95em;}.cls-15,.cls-17,.cls-4,.cls-8{font-size:5.47px;}.cls-15,.cls-16,.cls-17,.cls-18,.cls-25,.cls-27,.cls-4,.cls-41,.cls-7{font-family:Times-Italic, Times;}.cls-15,.cls-16,.cls-17,.cls-18,.cls-25,.cls-27,.cls-37,.cls-4,.cls-41,.cls-7{font-style:italic;}.cls-5{letter-spacing:-0.01em;}.cls-6{letter-spacing:0em;}.cls-16,.cls-18,.cls-7{font-size:3.16px;}.cls-10,.cls-26,.cls-28,.cls-38,.cls-39,.cls-8{font-family:Times-Roman, Times;}.cls-9{letter-spacing:-0.01em;}.cls-10{font-size:2.29px;}.cls-11{letter-spacing:-0.01em;}.cls-12{letter-spacing:-0.01em;}.cls-13{letter-spacing:-0.01em;}.cls-14{letter-spacing:0em;}.cls-15,.cls-16{fill:#169133;}.cls-17,.cls-18{fill:#ef1385;}.cls-19{letter-spacing:0em;}.cls-20{fill:#fff;}.cls-21,.cls-22,.cls-29,.cls-30,.cls-34,.cls-35,.cls-36,.cls-42{fill:none;}.cls-21,.cls-35{stroke:#797979;}.cls-21,.cls-22,.cls-29{stroke-miterlimit:10;}.cls-21,.cls-22{stroke-width:0.35px;}.cls-22,.cls-30{stroke:#000;}.cls-23{fill:#1c90bf;}.cls-24{fill:#797979;}.cls-25,.cls-27,.cls-37,.cls-40{font-size:3.93px;}.cls-26,.cls-28{font-size:2.62px;}.cls-27,.cls-28{fill:#a9a9a9;}.cls-29,.cls-34,.cls-42{stroke:#1c90bf;}.cls-29,.cls-30,.cls-34,.cls-35{stroke-width:0.65px;}.cls-30,.cls-34,.cls-35,.cls-36,.cls-42{stroke-linecap:round;stroke-linejoin:round;}.cls-31,.cls-32{font-size:6px;}.cls-31{fill:#fa0f0c;}.cls-33{letter-spacing:8.95em;}.cls-36{stroke:#a9a9a9;}.cls-36,.cls-42{stroke-width:0.49px;}.cls-37{font-family:Times-BoldItalic, Times;}.cls-37,.cls-40{font-weight:700;}.cls-38,.cls-41{font-size:2.27px;}.cls-39{font-size:1.65px;}.cls-40{font-family:Times-Bold, Times;}</style></defs><title>Untitled-1</title><text class="cls-1" transform="translate(11.46 9.43)">(a<tspan class="cls-2" x="8.89" y="0">)</tspan><tspan x="111.85" y="0">(b</tspan><tspan class="cls-3" x="120.74" y="0">)</tspan><tspan x="223.53" y="0">(c)</tspan></text><text class="cls-4" transform="translate(271.25 4.52)"><tspan class="cls-5">Fl</tspan><tspan class="cls-6" x="4.78" y="0">u</tspan><tspan class="cls-5" x="7.51" y="0">x</tspan><tspan x="9.9" y="0">T</tspan></text><text class="cls-7" transform="translate(284.56 6.29)">f</text><text class="cls-8" transform="translate(277.19 14.29)">=</text><text class="cls-4" transform="translate(244.55 21.62)"><tspan class="cls-5">Fl</tspan><tspan class="cls-6" x="4.78" y="0">u</tspan><tspan class="cls-9" x="7.51" y="0">x</tspan><tspan x="9.91" y="0">C</tspan></text><text class="cls-7" transform="translate(258.75 23.39)">f</text><path d="M261.64,19a1.5,1.5,0,0,1,.49-.13l.22-.93.22.08-.21.86a1.31,1.31,0,0,1,.54.2.88.88,0,0,1,.23.33,1,1,0,0,1,.09.42,1.78,1.78,0,0,1-.06.45,2.19,2.19,0,0,1-.12.36,2.62,2.62,0,0,1-.25.42,1.34,1.34,0,0,1-.4.39,2.32,2.32,0,0,1-.72.24l-.28,1.16-.2-.07.26-1.08a1.83,1.83,0,0,1-.61-.28.66.66,0,0,1-.25-.52,2.07,2.07,0,0,1,0-.58,2,2,0,0,1,.18-.44,2.88,2.88,0,0,1,.35-.49,1.37,1.37,0,0,1,.49-.38m-.32,2.38a.22.22,0,0,0,.18.11l.57-2.41a1.1,1.1,0,0,0-.32.13,1.12,1.12,0,0,0-.32.35,2,2,0,0,0-.27.63,2.16,2.16,0,0,0-.07.51,1.1,1.1,0,0,0,.07.41A.73.73,0,0,0,261.32,21.39Zm1.19-2.15-.2-.15-.58,2.41a.92.92,0,0,0,.31-.1,1,1,0,0,0,.27-.25,1.73,1.73,0,0,0,.21-.34,2.16,2.16,0,0,0,.12-.35,2.48,2.48,0,0,0,.07-.42,2,2,0,0,0,0-.43A.67.67,0,0,0,262.52,19.24Z"/><text class="cls-7" transform="translate(263.02 23.39)">C</text><text class="cls-8" transform="translate(266.69 21.62)">+</text><text class="cls-4" transform="translate(271.08 21.62)"><tspan class="cls-5">Fl</tspan><tspan class="cls-6" x="4.78" y="0">u</tspan><tspan class="cls-5" x="7.51" y="0">x</tspan><tspan x="9.9" y="0">F</tspan></text><text class="cls-7" transform="translate(284.5 23.39)">f</text><path d="M287.39,19a1.51,1.51,0,0,1,.48-.13l.22-.93.22.08-.21.86a1.3,1.3,0,0,1,.54.2.87.87,0,0,1,.23.33,1.07,1.07,0,0,1,.1.42,1.83,1.83,0,0,1-.06.45,2.29,2.29,0,0,1-.12.36,2.77,2.77,0,0,1-.25.42,1.36,1.36,0,0,1-.4.39,2.34,2.34,0,0,1-.72.24l-.28,1.16-.2-.07.26-1.08a1.82,1.82,0,0,1-.61-.28.66.66,0,0,1-.25-.52,2.11,2.11,0,0,1,0-.58,2,2,0,0,1,.18-.44,2.77,2.77,0,0,1,.35-.49,1.35,1.35,0,0,1,.49-.38m-.32,2.38a.22.22,0,0,0,.18.11l.57-2.41a.89.89,0,0,0-.64.47,2,2,0,0,0-.27.63,2.21,2.21,0,0,0-.07.51,1.12,1.12,0,0,0,.07.41A.71.71,0,0,0,287.07,21.39Zm1.19-2.15-.2-.15-.58,2.41a.92.92,0,0,0,.31-.1,1,1,0,0,0,.27-.25,1.72,1.72,0,0,0,.21-.34,2.16,2.16,0,0,0,.12-.35,2.29,2.29,0,0,0,.07-.42,2,2,0,0,0,0-.43A.67.67,0,0,0,288.26,19.24Z"/><text class="cls-7" transform="translate(289.03 23.39)">F</text><text class="cls-10" transform="translate(290.51 24.46)">1</text><text class="cls-8" transform="translate(293.11 21.62)">+</text><text class="cls-4" transform="translate(297.5 21.62)"><tspan class="cls-5">Fl</tspan><tspan class="cls-6" x="4.78" y="0">u</tspan><tspan class="cls-5" x="7.51" y="0">x</tspan><tspan x="9.9" y="0">V</tspan></text><text class="cls-7" transform="translate(311.26 23.39)">f</text><text class="cls-4" transform="translate(159.42 4.52)"><tspan class="cls-11">Fl</tspan><tspan class="cls-6" x="4.78" y="0">u</tspan><tspan class="cls-5" x="7.51" y="0">x</tspan><tspan x="9.9" y="0">T</tspan></text><text class="cls-7" transform="translate(172.73 6.29)">f</text><text class="cls-8" transform="translate(165.36 14.29)">=</text><text class="cls-4" transform="translate(132.73 21.62)"><tspan class="cls-11">F</tspan><tspan class="cls-12" x="3.3" y="0">l</tspan><tspan x="4.79" y="0">u</tspan><tspan class="cls-5" x="7.52" y="0">x</tspan><tspan x="9.91" y="0">C</tspan></text><text class="cls-7" transform="translate(146.93 23.39)">f</text><path d="M149.82,19a1.52,1.52,0,0,1,.49-.13l.22-.93.23.08-.21.86a1.31,1.31,0,0,1,.54.2.88.88,0,0,1,.23.33,1,1,0,0,1,.09.42,1.73,1.73,0,0,1-.06.45,2.29,2.29,0,0,1-.12.36,2.62,2.62,0,0,1-.25.42,1.35,1.35,0,0,1-.4.39,2.33,2.33,0,0,1-.72.24l-.28,1.16-.2-.07.26-1.08a1.83,1.83,0,0,1-.61-.28.67.67,0,0,1-.25-.52,2.11,2.11,0,0,1,0-.58,2,2,0,0,1,.18-.44,2.89,2.89,0,0,1,.35-.49,1.36,1.36,0,0,1,.49-.38m-.32,2.38a.22.22,0,0,0,.18.11l.57-2.41a.89.89,0,0,0-.64.47,2,2,0,0,0-.27.63,2.21,2.21,0,0,0-.07.51,1.12,1.12,0,0,0,.07.41A.72.72,0,0,0,149.5,21.39Zm1.19-2.15-.2-.15-.58,2.41a.93.93,0,0,0,.31-.1,1,1,0,0,0,.27-.25,1.77,1.77,0,0,0,.21-.34,2.31,2.31,0,0,0,.19-.77,2,2,0,0,0,0-.43A.65.65,0,0,0,150.69,19.24Z"/><text class="cls-7" transform="translate(151.2 23.39)">C</text><text class="cls-8" transform="translate(154.87 21.62)">+</text><text class="cls-4" transform="translate(159.25 21.62)"><tspan class="cls-9">Fl</tspan><tspan x="4.79" y="0">u</tspan><tspan class="cls-13" x="7.52" y="0">x</tspan><tspan class="cls-14" x="9.91" y="0">F</tspan></text><text class="cls-7" transform="translate(172.68 23.39)">f</text><path d="M175.56,19a1.52,1.52,0,0,1,.49-.13l.22-.93.22.08-.21.86a1.29,1.29,0,0,1,.54.2.86.86,0,0,1,.23.33,1,1,0,0,1,.09.42,1.78,1.78,0,0,1-.06.45,2.28,2.28,0,0,1-.12.36,2.77,2.77,0,0,1-.25.42,1.35,1.35,0,0,1-.4.39,2.31,2.31,0,0,1-.72.24l-.28,1.16-.2-.07.26-1.08a1.82,1.82,0,0,1-.61-.28.66.66,0,0,1-.25-.52,2.07,2.07,0,0,1,0-.58,2,2,0,0,1,.18-.44,3,3,0,0,1,.35-.49,1.38,1.38,0,0,1,.49-.38m-.32,2.38a.22.22,0,0,0,.18.11l.57-2.41a.89.89,0,0,0-.64.47,1.93,1.93,0,0,0-.27.63,2.21,2.21,0,0,0-.07.51,1.1,1.1,0,0,0,.07.41A.73.73,0,0,0,175.25,21.39Zm1.19-2.15-.2-.15-.58,2.41a.92.92,0,0,0,.31-.1,1,1,0,0,0,.27-.25,1.73,1.73,0,0,0,.21-.34,2.17,2.17,0,0,0,.12-.35,2.39,2.39,0,0,0,.07-.42,2.09,2.09,0,0,0,0-.43A.67.67,0,0,0,176.44,19.24Z"/><text class="cls-7" transform="translate(177.2 23.39)">F</text><text class="cls-10" transform="translate(178.68 24.46)">1</text><text class="cls-8" transform="translate(181.29 21.62)">+</text><text class="cls-4" transform="translate(185.67 21.62)"><tspan class="cls-5">Fl</tspan><tspan class="cls-6" x="4.78" y="0">u</tspan><tspan class="cls-5" x="7.51" y="0">x</tspan><tspan x="9.9" y="0">V</tspan></text><text class="cls-7" transform="translate(199.44 23.39)">f</text><text class="cls-15" transform="translate(47.46 4.52)"><tspan class="cls-9">Fl</tspan><tspan x="4.79" y="0">u</tspan><tspan class="cls-12" x="7.52" y="0">x</tspan><tspan x="9.91" y="0">T</tspan></text><text class="cls-16" transform="translate(60.77 6.29)">f</text><text class="cls-8" transform="translate(53.39 14.29)">=</text><text class="cls-17" transform="translate(20.76 21.62)"><tspan class="cls-9">Fl</tspan><tspan x="4.79" y="0">u</tspan><tspan class="cls-12" x="7.52" y="0">x</tspan><tspan x="9.91" y="0">C</tspan></text><text class="cls-18" transform="translate(34.96 23.39)">f</text><path d="M37.85,19a1.51,1.51,0,0,1,.49-.13l.22-.93.22.08-.21.86a1.3,1.3,0,0,1,.54.2.87.87,0,0,1,.23.33,1.07,1.07,0,0,1,.09.42,1.78,1.78,0,0,1-.06.45,2.3,2.3,0,0,1-.12.36,2.68,2.68,0,0,1-.25.42,1.35,1.35,0,0,1-.4.39,2.33,2.33,0,0,1-.72.24l-.28,1.16-.2-.07.26-1.08a1.83,1.83,0,0,1-.61-.28.66.66,0,0,1-.25-.52,2.07,2.07,0,0,1,0-.58,2,2,0,0,1,.18-.44,2.94,2.94,0,0,1,.35-.49,1.37,1.37,0,0,1,.49-.38m-.32,2.38a.22.22,0,0,0,.18.11l.57-2.41a.89.89,0,0,0-.64.47,2,2,0,0,0-.27.63,2.16,2.16,0,0,0-.07.51,1.1,1.1,0,0,0,.07.41A.72.72,0,0,0,37.54,21.39Zm1.19-2.15-.2-.15-.58,2.41a.91.91,0,0,0,.31-.1,1,1,0,0,0,.27-.25,1.78,1.78,0,0,0,.21-.34,2.38,2.38,0,0,0,.19-.77,2,2,0,0,0,0-.43A.67.67,0,0,0,38.73,19.24Z"/><text class="cls-7" transform="translate(39.23 23.39)">C</text><text class="cls-8" transform="translate(42.9 21.62)">+</text><text class="cls-17" transform="translate(47.29 21.62)"><tspan class="cls-11">Fl</tspan><tspan x="4.78" y="0">u</tspan><tspan class="cls-12" x="7.51" y="0">x</tspan><tspan class="cls-19" x="9.91" y="0">F</tspan></text><text class="cls-18" transform="translate(60.71 23.39)">f</text><path d="M63.6,19a1.51,1.51,0,0,1,.49-.13l.22-.93.22.08-.21.86a1.3,1.3,0,0,1,.54.2.87.87,0,0,1,.23.33,1.07,1.07,0,0,1,.09.42,1.78,1.78,0,0,1-.06.45,2.29,2.29,0,0,1-.12.36,2.69,2.69,0,0,1-.25.42,1.35,1.35,0,0,1-.4.39,2.32,2.32,0,0,1-.72.24l-.28,1.16-.2-.07.26-1.08a1.83,1.83,0,0,1-.61-.28.67.67,0,0,1-.25-.52,2.12,2.12,0,0,1,0-.58,2,2,0,0,1,.18-.44,2.89,2.89,0,0,1,.35-.49A1.35,1.35,0,0,1,63.6,19m-.32,2.38a.22.22,0,0,0,.18.11L64,19.09a1.1,1.1,0,0,0-.32.13,1.12,1.12,0,0,0-.32.35,2,2,0,0,0-.27.63,2.27,2.27,0,0,0-.07.51,1.12,1.12,0,0,0,.07.41A.73.73,0,0,0,63.28,21.39Zm1.19-2.15-.2-.15-.58,2.41a.92.92,0,0,0,.31-.1,1,1,0,0,0,.27-.25,1.73,1.73,0,0,0,.21-.34,2.26,2.26,0,0,0,.12-.35,2.39,2.39,0,0,0,.07-.42,2.09,2.09,0,0,0,0-.43A.67.67,0,0,0,64.47,19.24Z"/><text class="cls-7" transform="translate(65.24 23.39)">F</text><text class="cls-10" transform="translate(66.72 24.46)">1</text><text class="cls-8" transform="translate(69.32 21.62)">+</text><text class="cls-17" transform="translate(73.7 21.62)"><tspan class="cls-9">Fl</tspan><tspan x="4.79" y="0">u</tspan><tspan class="cls-12" x="7.52" y="0">x</tspan><tspan x="9.91" y="0">V</tspan></text><text class="cls-18" transform="translate(87.47 23.39)">f</text><polyline class="cls-20" points="63.68 88.24 82.73 102.73 96.44 89.39 101.94 69.85 82.24 57.16 65.97 68.01 63.68 88.24"/><polygon class="cls-21" points="63.68 88.24 82.73 102.73 96.44 89.39 101.94 69.86 82.24 57.16 65.97 68.02 63.68 88.24"/><polyline class="cls-20" points="46.04 100.42 63.91 88.01 82.7 102.72 80.18 117.65 44.66 117.42 46.04 100.42"/><polygon class="cls-21" points="46.04 100.42 63.91 88.01 82.7 102.72 80.18 117.66 44.66 117.43 46.04 100.42"/><polyline class="cls-20" points="9.83 117.19 8.92 100.19 29.08 88.47 46.05 100.42 44.61 117.35 9.83 117.19"/><polygon class="cls-21" points="9.83 117.2 8.92 100.19 29.08 88.47 46.05 100.42 44.61 117.36 9.83 117.2"/><polyline class="cls-20" points="0.21 87.78 9.05 100.02 29.54 87.78 33.2 69.62 11.9 69.39 0.21 87.78"/><polygon class="cls-21" points="0.21 87.78 9.05 100.03 29.54 87.78 33.2 69.63 11.9 69.4 0.21 87.78"/><polyline class="cls-20" points="8 53.99 12.36 69.39 33.21 69.62 47.18 56.06 39.62 34.69 22.21 36.14 8 53.99"/><polygon class="cls-21" points="8 54 12.36 69.4 33.2 69.63 47.18 56.07 39.62 34.69 22.21 36.14 8 54"/><polyline class="cls-20" points="47.41 56.52 66.2 67.55 82.7 57.21 78.04 34.7 46.72 26.42 39.85 34.69 47.41 56.52"/><polygon class="cls-22" points="47.41 56.53 66.2 67.56 82.69 57.22 78.04 34.7 46.72 26.42 39.85 34.69 47.41 56.53"/><polyline class="cls-20" points="29.08 88.24 46.04 100.42 63.45 88.01 65.74 67.33 46.95 56.29 33.43 69.62 29.08 88.24"/><polygon class="cls-22" points="29.08 88.24 46.04 100.42 63.45 88.01 65.74 67.33 46.95 56.3 33.43 69.63 29.08 88.24"/><line class="cls-22" x1="49.13" y1="76.02" x2="60.13" y2="51.16"/><polyline points="61.2 48.76 59.24 50.76 61.03 51.56 61.2 48.76"/><polygon class="cls-22" points="61.2 48.77 59.24 50.77 61.03 51.56 61.2 48.77"/><path class="cls-23" d="M49.59,76.43a1.62,1.62,0,1,1-2.29,0,1.63,1.63,0,0,1,2.29,0"/><path class="cls-22" d="M49.59,76.43a1.62,1.62,0,1,1-2.29,0,1.62,1.62,0,0,1,2.29,0"/><path class="cls-22" d="M84,77.68a1.62,1.62,0,1,1-2.29,0,1.63,1.63,0,0,1,2.29,0"/><polyline class="cls-20" points="64.6 76.7 65.9 78.07 64.6 79.43 63.3 78.07 64.6 76.7"/><polygon class="cls-22" points="64.6 76.71 65.9 78.07 64.6 79.43 63.3 78.07 64.6 76.71"/><polyline class="cls-20" points="55.13 92.65 56.42 94.01 55.13 95.37 53.83 94.01 55.13 92.65"/><polygon class="cls-22" points="55.12 92.65 56.42 94.02 55.12 95.38 53.82 94.02 55.12 92.65"/><polyline class="cls-20" points="37.3 92.9 38.6 94.26 37.3 95.62 36.01 94.26 37.3 92.9"/><polygon class="cls-22" points="37.3 92.9 38.6 94.26 37.3 95.62 36.01 94.26 37.3 92.9"/><polyline class="cls-20" points="39.92 61.78 41.22 63.15 39.92 64.51 38.62 63.15 39.92 61.78"/><polygon class="cls-22" points="39.92 61.79 41.22 63.15 39.92 64.51 38.62 63.15 39.92 61.79"/><polyline class="cls-20" points="31.36 77.73 32.66 79.09 31.36 80.45 30.06 79.09 31.36 77.73"/><polygon class="cls-22" points="31.36 77.73 32.66 79.09 31.36 80.45 30.06 79.09 31.36 77.73"/><line class="cls-21" x1="56.3" y1="60.74" x2="60.3" y2="55.11"/><polyline class="cls-24" points="61.82 52.97 59.5 54.53 61.1 55.67 61.82 52.97"/><polygon class="cls-21" points="61.82 52.97 59.5 54.54 61.1 55.68 61.82 52.97"/><text class="cls-25" transform="translate(53.92 58.14)">f</text><text class="cls-26" transform="translate(55.02 59.45)">1</text><text class="cls-27" transform="translate(35.24 63.72)">f</text><text class="cls-28" transform="translate(36.33 65.03)">2</text><text class="cls-27" transform="translate(26.16 85.28)">f</text><text class="cls-28" transform="translate(27.25 86.59)">3</text><text class="cls-27" transform="translate(36.14 98.99)">f</text><text class="cls-28" transform="translate(37.23 100.31)">4</text><text class="cls-27" transform="translate(56.51 97.39)">f</text><text class="cls-28" transform="translate(57.6 98.7)">5</text><text class="cls-27" transform="translate(65.12 83.95)">f</text><text class="cls-28" transform="translate(66.21 85.26)">6</text><path class="cls-22" d="M64.82,105.31a1.62,1.62,0,1,1-2.29,0,1.62,1.62,0,0,1,2.29,0"/><path class="cls-22" d="M28.74,104.59a1.62,1.62,0,1,1-2.29,0,1.63,1.63,0,0,1,2.29,0"/><path class="cls-22" d="M16.9,82.38a1.62,1.62,0,1,1-2.29,0,1.63,1.63,0,0,1,2.29,0"/><path class="cls-22" d="M28.74,51.69a1.62,1.62,0,1,1-2.29,0,1.63,1.63,0,0,1,2.29,0"/><path class="cls-20" d="M63.38,45.26a1.62,1.62,0,1,1-2.29,0,1.62,1.62,0,0,1,2.29,0"/><path class="cls-29" d="M63.38,45.26a1.62,1.62,0,1,1-2.29,0,1.63,1.63,0,0,1,2.29,0"/><line class="cls-30" x1="47.27" y1="56.29" x2="66.2" y2="67.75"/><text class="cls-31" transform="translate(20.88 124.62)">one integration point</text><text class="cls-32" transform="translate(132.74 127.05)">two integration point<tspan class="cls-33" x="53.7" y="0">s</tspan><tspan x="110.4" y="0">three integration points</tspan></text><polyline class="cls-20" points="55.7 60.23 57 61.59 55.7 62.95 54.4 61.59 55.7 60.23"/><polygon class="cls-22" points="55.7 60.23 57 61.59 55.7 62.95 54.4 61.59 55.7 60.23"/><line class="cls-34" x1="19.81" y1="24.59" x2="33.21" y2="24.59"/><line class="cls-35" x1="46.3" y1="24.72" x2="59.01" y2="24.78"/><polyline class="cls-36" points="52.24 24.75 52.24 33.12 62.38 33.12 62.38 44.46"/><text class="cls-37" transform="translate(62.83 58.02)">S</text><text class="cls-38" transform="translate(65.6 59.29)">f</text><text class="cls-39" transform="translate(66.18 60.06)">1</text><text class="cls-25" transform="translate(65.12 42.92)">F</text><text class="cls-38" transform="translate(66.99 44.19)">1</text><text class="cls-25" transform="translate(20.3 54.08)">F</text><text class="cls-38" transform="translate(22.36 55.35)">2</text><text class="cls-25" transform="translate(11.46 88.87)">F</text><text class="cls-38" transform="translate(13.48 90.14)">3</text><text class="cls-25" transform="translate(26.19 112.5)">F</text><text class="cls-38" transform="translate(28.25 113.77)">4</text><text class="cls-25" transform="translate(66.43 109.54)">F</text><text class="cls-38" transform="translate(68.41 110.81)">5</text><text class="cls-25" transform="translate(86.39 78.36)">F</text><text class="cls-38" transform="translate(88.41 79.64)">6</text><text class="cls-25" transform="translate(42.55 76.72)">C</text><text class="cls-40" transform="translate(53.67 69.83)">d</text><text class="cls-41" transform="translate(55.93 71.1)">CN</text><text class="cls-39" transform="translate(58.97 71.87)">1</text><polyline class="cls-20" points="175.64 90.67 194.69 105.16 208.41 91.82 213.91 72.28 194.2 59.59 177.93 70.45 175.64 90.67"/><polygon class="cls-21" points="175.64 90.67 194.69 105.16 208.41 91.82 213.91 72.29 194.2 59.6 177.93 70.45 175.64 90.67"/><polyline class="cls-20" points="158 102.85 175.87 90.44 194.66 105.15 192.14 120.09 156.63 119.86 158 102.85"/><polygon class="cls-21" points="158 102.85 175.87 90.44 194.66 105.15 192.14 120.09 156.63 119.86 158 102.85"/><polyline class="cls-20" points="121.8 119.63 120.89 102.62 141.05 90.9 158.01 102.85 156.58 119.78 121.8 119.63"/><polygon class="cls-21" points="121.8 119.63 120.89 102.62 141.05 90.9 158.01 102.85 156.57 119.79 121.8 119.63"/><polyline class="cls-20" points="112.18 90.21 121.02 102.45 141.37 90.64 145.17 72.05 123.87 71.82 112.18 90.21"/><polygon class="cls-21" points="112.18 90.21 121.02 102.46 141.37 90.64 145.17 72.06 123.86 71.83 112.18 90.21"/><polyline class="cls-20" points="119.97 56.43 124.32 71.83 145.62 72.26 159.15 58.5 151.59 37.12 134.18 38.57 119.97 56.43"/><polygon class="cls-21" points="119.97 56.43 124.32 71.83 145.62 72.26 159.15 58.5 151.59 37.13 134.18 38.58 119.97 56.43"/><polyline class="cls-20" points="159.38 58.96 178.16 69.99 194.66 59.65 190 37.13 158.69 28.85 151.82 37.12 159.38 58.96"/><polygon class="cls-22" points="159.38 58.96 178.16 69.99 194.66 59.65 190 37.13 158.69 28.85 151.82 37.13 159.38 58.96"/><polyline class="cls-20" points="141.21 90.67 158.16 102.85 175.57 90.44 177.86 69.76 159.08 58.73 145.42 72.26 141.21 90.67"/><polygon class="cls-22" points="141.2 90.67 158.16 102.85 175.57 90.44 177.86 69.76 159.08 58.73 145.42 72.26 141.2 90.67"/><line class="cls-22" x1="161.1" y1="78.45" x2="172.1" y2="53.6"/><polyline points="173.16 51.19 171.2 53.2 173 53.99 173.16 51.19"/><polygon class="cls-22" points="173.16 51.2 171.2 53.2 172.99 54 173.16 51.2"/><path class="cls-23" d="M161.56,78.86a1.62,1.62,0,1,1-2.29,0,1.62,1.62,0,0,1,2.29,0"/><path class="cls-22" d="M161.55,78.86a1.62,1.62,0,1,1-2.29,0,1.62,1.62,0,0,1,2.29,0"/><path class="cls-22" d="M195.92,80.12a1.62,1.62,0,1,1-2.29,0,1.62,1.62,0,0,1,2.29,0"/><polyline class="cls-20" points="176.94 75.14 178.24 76.5 176.94 77.86 175.64 76.5 176.94 75.14"/><polygon class="cls-22" points="176.94 75.14 178.24 76.5 176.94 77.86 175.64 76.5 176.94 75.14"/><polyline class="cls-20" points="163.05 97.64 164.35 99 163.05 100.36 161.75 99 163.05 97.64"/><polygon class="cls-22" points="163.05 97.64 164.35 99 163.05 100.36 161.75 99 163.05 97.64"/><polyline class="cls-20" points="146.47 93.07 147.77 94.43 146.47 95.79 145.17 94.43 146.47 93.07"/><polygon class="cls-22" points="146.47 93.07 147.77 94.43 146.47 95.79 145.17 94.43 146.47 93.07"/><polyline class="cls-20" points="155.34 61.32 156.64 62.68 155.34 64.04 154.04 62.68 155.34 61.32"/><polygon class="cls-22" points="155.34 61.32 156.64 62.69 155.34 64.05 154.04 62.69 155.34 61.32"/><polyline class="cls-20" points="142.5 83.01 143.8 84.37 142.5 85.73 141.2 84.37 142.5 83.01"/><polygon class="cls-22" points="142.5 83.01 143.8 84.37 142.5 85.73 141.2 84.37 142.5 83.01"/><line class="cls-21" x1="167.81" y1="63.91" x2="172.27" y2="57.55"/><polyline class="cls-24" points="173.78 55.4 171.47 56.98 173.08 58.11 173.78 55.4"/><polygon class="cls-21" points="173.78 55.4 171.47 56.98 173.08 58.12 173.78 55.4"/><text class="cls-25" transform="translate(165.89 60.57)">f</text><text class="cls-26" transform="translate(166.98 61.89)">1</text><text class="cls-27" transform="translate(148.1 64.69)">f</text><text class="cls-28" transform="translate(149.2 66.01)">2</text><text class="cls-27" transform="translate(138.13 87.71)">f</text><text class="cls-28" transform="translate(139.22 89.02)">3</text><text class="cls-27" transform="translate(148.1 101.43)">f</text><text class="cls-28" transform="translate(149.2 102.74)">4</text><text class="cls-27" transform="translate(168.48 99.82)">f</text><text class="cls-28" transform="translate(169.57 101.13)">5</text><text class="cls-27" transform="translate(178.65 82.08)">f</text><text class="cls-28" transform="translate(179.75 83.39)">6</text><path class="cls-22" d="M176.79,107.74a1.62,1.62,0,1,1-2.29,0,1.62,1.62,0,0,1,2.29,0"/><path class="cls-22" d="M140.7,107a1.62,1.62,0,1,1-2.29,0,1.62,1.62,0,0,1,2.29,0"/><path class="cls-22" d="M128.87,84.82a1.62,1.62,0,1,1-2.29,0,1.62,1.62,0,0,1,2.29,0"/><path class="cls-22" d="M140.7,54.12a1.62,1.62,0,1,1-2.29,0,1.62,1.62,0,0,1,2.29,0"/><path class="cls-20" d="M175.35,47.69a1.62,1.62,0,1,1-2.29,0,1.63,1.63,0,0,1,2.29,0"/><path class="cls-29" d="M175.35,47.7a1.62,1.62,0,1,1-2.29,0,1.63,1.63,0,0,1,2.29,0"/><line class="cls-30" x1="159.23" y1="58.72" x2="178.16" y2="70.18"/><line class="cls-34" x1="132.63" y1="24.59" x2="146.03" y2="24.59"/><line class="cls-35" x1="159.23" y1="24.72" x2="171.94" y2="24.78"/><polyline class="cls-36" points="165.28 24.75 165.28 35.42 174.12 35.42 174.12 46.89"/><text class="cls-37" transform="translate(174.9 60.31)">S</text><text class="cls-41" transform="translate(177.67 61.59)">f</text><text class="cls-39" transform="translate(178.25 62.36)">1</text><text class="cls-25" transform="translate(176.87 45.22)">F</text><text class="cls-38" transform="translate(178.74 46.49)">1</text><text class="cls-25" transform="translate(132.37 56.38)">F</text><text class="cls-38" transform="translate(134.43 57.65)">2</text><text class="cls-25" transform="translate(123.2 91.16)">F</text><text class="cls-38" transform="translate(125.22 92.43)">3</text><text class="cls-25" transform="translate(137.93 115.12)">F</text><text class="cls-38" transform="translate(139.99 116.39)">4</text><text class="cls-25" transform="translate(178.5 112.17)">F</text><text class="cls-38" transform="translate(180.48 113.44)">5</text><text class="cls-25" transform="translate(198.46 80.99)">F</text><text class="cls-38" transform="translate(200.48 82.26)">6</text><text class="cls-25" transform="translate(154.62 79.35)">C</text><text class="cls-40" transform="translate(165.74 72.13)">d</text><text class="cls-41" transform="translate(168 73.4)">CN</text><text class="cls-39" transform="translate(171.04 74.17)">1</text><polyline class="cls-20" points="169.67 93.07 170.97 94.43 169.67 95.79 168.37 94.43 169.67 93.07"/><polygon class="cls-22" points="169.67 93.07 170.97 94.43 169.67 95.79 168.37 94.43 169.67 93.07"/><polyline class="cls-20" points="153.12 97.64 154.42 99 153.12 100.36 151.82 99 153.12 97.64"/><polygon class="cls-22" points="153.12 97.64 154.42 99 153.12 100.36 151.82 99 153.12 97.64"/><polyline class="cls-20" points="143.87 76.27 145.17 77.63 143.87 79 142.57 77.63 143.87 76.27"/><polygon class="cls-22" points="143.87 76.28 145.17 77.64 143.87 79 142.57 77.64 143.87 76.28"/><polyline class="cls-20" points="172.51 65.39 173.81 66.75 172.51 68.12 171.21 66.75 172.51 65.39"/><polygon class="cls-22" points="172.51 65.39 173.81 66.76 172.51 68.12 171.21 66.76 172.51 65.39"/><polyline class="cls-20" points="163.87 60.16 165.17 61.52 163.87 62.88 162.57 61.52 163.87 60.16"/><polygon class="cls-22" points="163.87 60.16 165.16 61.53 163.87 62.89 162.57 61.53 163.87 60.16"/><polyline class="cls-20" points="176.56 83.01 177.86 84.37 176.56 85.73 175.26 84.37 176.56 83.01"/><polygon class="cls-22" points="176.56 83.01 177.86 84.37 176.56 85.73 175.26 84.37 176.56 83.01"/><polyline class="cls-20" points="149.31 67.26 150.61 68.63 149.31 69.99 148.01 68.63 149.31 67.26"/><polygon class="cls-22" points="149.31 67.27 150.6 68.63 149.31 69.99 148 68.63 149.31 67.27"/><polyline class="cls-20" points="287.47 90.67 306.52 105.16 320.23 91.82 325.73 72.28 306.03 59.59 289.76 70.45 287.47 90.67"/><polygon class="cls-21" points="287.47 90.67 306.52 105.16 320.23 91.82 325.73 72.29 306.03 59.6 289.76 70.45 287.47 90.67"/><polyline class="cls-20" points="269.83 102.85 287.7 90.44 306.49 105.15 303.97 120.09 268.45 119.86 269.83 102.85"/><polygon class="cls-21" points="269.82 102.85 287.7 90.44 306.49 105.15 303.96 120.09 268.45 119.86 269.82 102.85"/><polyline class="cls-20" points="233.62 119.63 232.71 102.62 252.87 90.9 269.84 102.85 268.4 119.78 233.62 119.63"/><polygon class="cls-21" points="233.62 119.63 232.71 102.62 252.87 90.9 269.84 102.85 268.39 119.79 233.62 119.63"/><polyline class="cls-20" points="224 90.21 232.84 102.45 252.86 90.83 257 72.05 235.69 71.82 224 90.21"/><polygon class="cls-21" points="224 90.21 232.84 102.46 252.86 90.84 257 72.06 235.69 71.83 224 90.21"/><polyline class="cls-20" points="231.79 56.43 236.15 71.83 257 72.06 270.97 58.5 263.41 37.12 246 38.57 231.79 56.43"/><polygon class="cls-21" points="231.79 56.43 236.14 71.83 256.99 72.06 270.97 58.5 263.41 37.13 246 38.58 231.79 56.43"/><polyline class="cls-20" points="271.2 58.96 289.99 69.99 306.49 59.65 301.83 37.13 270.51 28.85 263.64 37.12 271.2 58.96"/><polygon class="cls-22" points="271.2 58.96 289.99 69.99 306.49 59.65 301.83 37.13 270.51 28.85 263.64 37.13 271.2 58.96"/><polyline class="cls-20" points="252.87 90.67 269.83 102.85 287.24 90.44 289.53 69.76 270.74 58.73 257.23 72.06 252.87 90.67"/><polygon class="cls-22" points="252.87 90.67 269.82 102.85 287.24 90.44 289.53 69.76 270.74 58.73 257.22 72.06 252.87 90.67"/><line class="cls-22" x1="272.92" y1="78.45" x2="283.92" y2="53.6"/><polyline points="284.99 51.19 283.03 53.2 284.82 53.99 284.99 51.19"/><polygon class="cls-22" points="284.98 51.2 283.03 53.2 284.82 54 284.98 51.2"/><path class="cls-23" d="M273.38,78.86a1.62,1.62,0,1,1-2.29,0,1.62,1.62,0,0,1,2.29,0"/><path class="cls-22" d="M273.37,78.86a1.62,1.62,0,1,1-2.29,0,1.62,1.62,0,0,1,2.29,0"/><path class="cls-22" d="M307.74,80.12a1.62,1.62,0,1,1-2.29,0,1.62,1.62,0,0,1,2.29,0"/><polyline class="cls-20" points="288.39 79.14 289.69 80.5 288.39 81.86 287.09 80.5 288.39 79.14"/><polygon class="cls-22" points="288.38 79.14 289.69 80.5 288.38 81.86 287.08 80.5 288.38 79.14"/><polyline class="cls-20" points="278.91 95.08 280.21 96.44 278.91 97.81 277.62 96.44 278.91 95.08"/><polygon class="cls-22" points="278.91 95.09 280.21 96.45 278.91 97.81 277.61 96.45 278.91 95.09"/><polyline class="cls-20" points="261.1 95.33 262.39 96.69 261.1 98.05 259.8 96.69 261.1 95.33"/><polygon class="cls-22" points="261.09 95.33 262.39 96.69 261.09 98.06 259.79 96.69 261.09 95.33"/><polyline class="cls-20" points="263.71 64.22 265.01 65.58 263.71 66.94 262.41 65.58 263.71 64.22"/><polygon class="cls-22" points="263.71 64.22 265.01 65.58 263.71 66.94 262.41 65.58 263.71 64.22"/><polyline class="cls-20" points="255.15 80.16 256.45 81.52 255.15 82.88 253.85 81.52 255.15 80.16"/><polygon class="cls-22" points="255.15 80.16 256.45 81.52 255.15 82.89 253.85 81.52 255.15 80.16"/><line class="cls-21" x1="280.09" y1="63.18" x2="284.09" y2="57.54"/><polyline class="cls-24" points="285.61 55.4 283.29 56.97 284.89 58.11 285.61 55.4"/><polygon class="cls-21" points="285.61 55.4 283.29 56.97 284.89 58.11 285.61 55.4"/><text class="cls-25" transform="translate(277.72 60.57)">f</text><text class="cls-26" transform="translate(278.81 61.89)">1</text><text class="cls-27" transform="translate(259.03 66.15)">f</text><text class="cls-28" transform="translate(260.12 67.46)">2</text><text class="cls-27" transform="translate(249.95 87.71)">f</text><text class="cls-28" transform="translate(251.04 89.02)">3</text><text class="cls-27" transform="translate(259.93 101.43)">f</text><text class="cls-28" transform="translate(261.02 102.74)">4</text><text class="cls-27" transform="translate(280.3 99.82)">f</text><text class="cls-28" transform="translate(281.39 101.13)">5</text><text class="cls-27" transform="translate(290.67 86.38)">f</text><text class="cls-28" transform="translate(291.76 87.69)">6</text><path class="cls-22" d="M288.61,107.74a1.62,1.62,0,1,1-2.29,0,1.61,1.61,0,0,1,2.29,0"/><path class="cls-22" d="M252.52,107a1.62,1.62,0,1,1-2.29,0,1.62,1.62,0,0,1,2.29,0"/><path class="cls-22" d="M240.69,84.82a1.62,1.62,0,1,1-2.29,0,1.62,1.62,0,0,1,2.29,0"/><path class="cls-22" d="M252.52,54.12a1.62,1.62,0,1,1-2.29,0,1.62,1.62,0,0,1,2.29,0"/><path class="cls-20" d="M287.17,47.69a1.62,1.62,0,1,1-2.29,0,1.63,1.63,0,0,1,2.29,0"/><path class="cls-29" d="M287.17,47.7a1.62,1.62,0,1,1-2.29,0,1.62,1.62,0,0,1,2.29,0"/><line class="cls-30" x1="271.06" y1="58.72" x2="289.99" y2="70.18"/><polyline class="cls-20" points="279.49 62.66 280.79 64.02 279.49 65.39 278.19 64.02 279.49 62.66"/><polygon class="cls-22" points="279.49 62.66 280.79 64.03 279.49 65.39 278.19 64.03 279.49 62.66"/><line class="cls-34" x1="243.06" y1="24.59" x2="256.45" y2="24.59"/><line class="cls-35" x1="270.61" y1="24.72" x2="283.32" y2="24.78"/><polyline class="cls-42" points="249.17 24.72 249.17 80.05 270.61 80.05"/><polyline class="cls-36" points="276.65 24.75 276.65 35.42 286.14 35.42 286.14 46.89"/><text class="cls-37" transform="translate(286.92 60.31)">S</text><text class="cls-41" transform="translate(289.69 61.59)">f</text><text class="cls-39" transform="translate(290.27 62.36)">1</text><text class="cls-25" transform="translate(288.89 45.22)">F</text><text class="cls-38" transform="translate(290.76 46.49)">1</text><text class="cls-25" transform="translate(244.06 56.38)">F</text><text class="cls-38" transform="translate(246.13 57.65)">2</text><text class="cls-25" transform="translate(235.23 91.16)">F</text><text class="cls-38" transform="translate(237.24 92.43)">3</text><text class="cls-25" transform="translate(249.95 115.12)">F</text><text class="cls-38" transform="translate(252.01 116.39)">4</text><text class="cls-25" transform="translate(290.19 112.17)">F</text><text class="cls-38" transform="translate(292.17 113.44)">5</text><text class="cls-25" transform="translate(310.48 80.99)">F</text><text class="cls-38" transform="translate(312.5 82.26)">6</text><text class="cls-25" transform="translate(266.31 79.35)">C</text><text class="cls-40" transform="translate(277.43 72.13)">d</text><text class="cls-41" transform="translate(279.69 73.4)">CN</text><text class="cls-39" transform="translate(282.73 74.17)">1</text><polyline class="cls-20" points="289.28 73.57 290.58 74.93 289.28 76.29 287.98 74.93 289.28 73.57"/><polygon class="cls-22" points="289.28 73.57 290.58 74.93 289.28 76.3 287.98 74.93 289.28 73.57"/><polyline class="cls-20" points="283.14 91.62 284.44 92.98 283.14 94.34 281.85 92.98 283.14 91.62"/><polygon class="cls-22" points="283.14 91.62 284.44 92.98 283.14 94.34 281.85 92.98 283.14 91.62"/><polyline class="cls-20" points="274.23 98.05 275.53 99.41 274.23 100.78 272.93 99.41 274.23 98.05"/><polygon class="cls-22" points="274.23 98.06 275.53 99.42 274.23 100.78 272.93 99.42 274.23 98.06"/><polyline class="cls-20" points="255.69 75.14 257 76.5 255.69 77.86 254.4 76.5 255.69 75.14"/><polygon class="cls-22" points="255.69 75.14 256.99 76.5 255.69 77.86 254.4 76.5 255.69 75.14"/><polyline class="cls-20" points="254.17 85.18 255.47 86.55 254.17 87.91 252.87 86.55 254.17 85.18"/><polygon class="cls-22" points="254.17 85.19 255.47 86.55 254.17 87.91 252.87 86.55 254.17 85.19"/><polyline class="cls-20" points="275.11 59.81 276.41 61.17 275.11 62.53 273.81 61.17 275.11 59.81"/><polygon class="cls-22" points="275.11 59.81 276.41 61.17 275.11 62.53 273.81 61.17 275.11 59.81"/><polyline class="cls-20" points="284.87 65.72 286.17 67.08 284.87 68.44 283.57 67.08 284.87 65.72"/><polygon class="cls-22" points="284.87 65.72 286.17 67.08 284.87 68.44 283.57 67.08 284.87 65.72"/><polyline class="cls-20" points="260.23 67.97 261.53 69.34 260.23 70.7 258.93 69.34 260.23 67.97"/><polygon class="cls-22" points="260.23 67.98 261.53 69.34 260.23 70.7 258.93 69.34 260.23 67.98"/><polyline class="cls-20" points="267.58 60.64 268.88 62 267.58 63.36 266.29 62 267.58 60.64"/><polygon class="cls-22" points="267.58 60.64 268.88 62 267.58 63.37 266.28 62 267.58 60.64"/><polyline class="cls-20" points="256.8 91.62 258.1 92.98 256.8 94.34 255.5 92.98 256.8 91.62"/><polygon class="cls-22" points="256.8 91.62 258.1 92.98 256.8 94.34 255.5 92.98 256.8 91.62"/><polyline class="cls-20" points="265.74 98.78 267.04 100.14 265.74 101.5 264.44 100.14 265.74 98.78"/><polygon class="cls-22" points="265.74 98.78 267.04 100.14 265.74 101.51 264.44 100.14 265.74 98.78"/><polyline class="cls-20" points="287.79 84.34 289.09 85.7 287.79 87.06 286.49 85.7 287.79 84.34"/><polygon class="cls-22" points="287.79 84.34 289.08 85.7 287.79 87.06 286.49 85.7 287.79 84.34"/><polyline class="cls-42" points="25.73 24.72 25.73 77.75 46.02 77.75 46.02 77.42 46.82 77.42"/><polyline class="cls-42" points="138.79 24.72 138.79 80.05 158.79 80.05"/></svg>