<?xml version="1.0" encoding="utf-8" standalone="no"?>
<!DOCTYPE svg PUBLIC "-//W3C//DTD SVG 1.1//EN"
  "http://www.w3.org/Graphics/SVG/1.1/DTD/svg11.dtd">
<!-- Created with matplotlib (https://matplotlib.org/) -->
<svg height="353.402344pt" version="1.1" viewBox="0 0 1039.878646 353.402344" width="1039.878646pt" xmlns="http://www.w3.org/2000/svg" xmlns:xlink="http://www.w3.org/1999/xlink">
 <metadata>
  <rdf:RDF xmlns:cc="http://creativecommons.org/ns#" xmlns:dc="http://purl.org/dc/elements/1.1/" xmlns:rdf="http://www.w3.org/1999/02/22-rdf-syntax-ns#">
   <cc:Work>
    <dc:type rdf:resource="http://purl.org/dc/dcmitype/StillImage"/>
    <dc:date>2021-01-18T19:57:10.429087</dc:date>
    <dc:format>image/svg+xml</dc:format>
    <dc:creator>
     <cc:Agent>
      <dc:title>Matplotlib v3.3.2, https://matplotlib.org/</dc:title>
     </cc:Agent>
    </dc:creator>
   </cc:Work>
  </rdf:RDF>
 </metadata>
 <defs>
  <style type="text/css">*{stroke-linecap:butt;stroke-linejoin:round;}</style>
 </defs>
 <g id="figure_1">
  <g id="patch_1">
   <path d="M 0 353.402344 
L 1039.878646 353.402344 
L 1039.878646 0 
L 0 0 
z
" style="fill:none;"/>
  </g>
  <g id="axes_1">
   <g id="patch_2">
    <path d="M 103.242656 316.672656 
L 428.469323 316.672656 
L 428.469323 11.772656 
L 103.242656 11.772656 
z
" style="fill:#ffffff;"/>
   </g>
   <g id="patch_3">
    <path clip-path="url(#p91482fa49a)" d="M 621.572656 215.039323 
L 621.572656 113.40599 
L 723.20599 113.40599 
L 723.20599 215.039323 
z
" style="fill:#1e90ff;"/>
   </g>
   <g id="patch_4">
    <path clip-path="url(#p91482fa49a)" d="M 723.20599 215.039323 
L 723.20599 113.40599 
L 824.839323 113.40599 
L 824.839323 215.039323 
z
" style="fill:#800080;"/>
   </g>
   <g id="patch_5">
    <path clip-path="url(#p91482fa49a)" d="M 215.039323 215.039323 
L 215.039323 113.40599 
L 316.672656 113.40599 
L 316.672656 215.039323 
z
" style="fill:#32cd32;"/>
   </g>
   <g id="patch_6">
    <path clip-path="url(#p91482fa49a)" d="M 316.672656 215.039323 
L 316.672656 113.40599 
L 418.30599 113.40599 
L 418.30599 215.039323 
z
" style="fill:#808080;opacity:0.8;"/>
   </g>
   <g id="patch_7">
    <path clip-path="url(#p91482fa49a)" d="M 215.039323 113.40599 
L 215.039323 11.772656 
L 316.672656 11.772656 
L 316.672656 113.40599 
z
" style="fill:#808080;opacity:0.8;"/>
   </g>
   <g id="patch_8">
    <path clip-path="url(#p91482fa49a)" d="M 215.039323 316.672656 
L 215.039323 215.039323 
L 316.672656 215.039323 
L 316.672656 316.672656 
z
" style="fill:#808080;opacity:0.8;"/>
   </g>
   <g id="patch_9">
    <path clip-path="url(#p91482fa49a)" d="M 113.40599 215.039323 
L 113.40599 113.40599 
L 215.039323 113.40599 
L 215.039323 215.039323 
z
" style="fill:#808080;opacity:0.8;"/>
   </g>
   <g id="matplotlib.axis_1">
    <g id="xtick_1">
     <g id="line2d_1">
      <defs>
       <path d="M 0 0 
L 0 3.5 
" id="mb3e62c0af9" style="stroke:#000000;stroke-width:0.8;"/>
      </defs>
      <g>
       <use style="stroke:#000000;stroke-width:0.8;" x="113.40599" xlink:href="#mb3e62c0af9" y="316.672656"/>
      </g>
     </g>
     <g id="text_1">
      <!-- −0.040 -->
      <g transform="translate(97.97474 330.830469)scale(0.1 -0.1)">
       <defs>
        <path d="M 52.828125 31.203125 
L 5.5625 31.203125 
L 5.5625 39.40625 
L 52.828125 39.40625 
z
" id="ArialMT-8722"/>
        <path d="M 4.15625 35.296875 
Q 4.15625 48 6.765625 55.734375 
Q 9.375 63.484375 14.515625 67.671875 
Q 19.671875 71.875 27.484375 71.875 
Q 33.25 71.875 37.59375 69.546875 
Q 41.9375 67.234375 44.765625 62.859375 
Q 47.609375 58.5 49.21875 52.21875 
Q 50.828125 45.953125 50.828125 35.296875 
Q 50.828125 22.703125 48.234375 14.96875 
Q 45.65625 7.234375 40.5 3 
Q 35.359375 -1.21875 27.484375 -1.21875 
Q 17.140625 -1.21875 11.234375 6.203125 
Q 4.15625 15.140625 4.15625 35.296875 
z
M 13.1875 35.296875 
Q 13.1875 17.671875 17.3125 11.828125 
Q 21.4375 6 27.484375 6 
Q 33.546875 6 37.671875 11.859375 
Q 41.796875 17.71875 41.796875 35.296875 
Q 41.796875 52.984375 37.671875 58.78125 
Q 33.546875 64.59375 27.390625 64.59375 
Q 21.34375 64.59375 17.71875 59.46875 
Q 13.1875 52.9375 13.1875 35.296875 
z
" id="ArialMT-48"/>
        <path d="M 9.078125 0 
L 9.078125 10.015625 
L 19.09375 10.015625 
L 19.09375 0 
z
" id="ArialMT-46"/>
        <path d="M 32.328125 0 
L 32.328125 17.140625 
L 1.265625 17.140625 
L 1.265625 25.203125 
L 33.9375 71.578125 
L 41.109375 71.578125 
L 41.109375 25.203125 
L 50.78125 25.203125 
L 50.78125 17.140625 
L 41.109375 17.140625 
L 41.109375 0 
z
M 32.328125 25.203125 
L 32.328125 57.46875 
L 9.90625 25.203125 
z
" id="ArialMT-52"/>
       </defs>
       <use xlink:href="#ArialMT-8722"/>
       <use x="58.398438" xlink:href="#ArialMT-48"/>
       <use x="114.013672" xlink:href="#ArialMT-46"/>
       <use x="141.796875" xlink:href="#ArialMT-48"/>
       <use x="197.412109" xlink:href="#ArialMT-52"/>
       <use x="253.027344" xlink:href="#ArialMT-48"/>
      </g>
     </g>
    </g>
    <g id="xtick_2">
     <g id="line2d_2">
      <g>
       <use style="stroke:#000000;stroke-width:0.8;" x="164.222656" xlink:href="#mb3e62c0af9" y="316.672656"/>
      </g>
     </g>
     <g id="text_2">
      <!-- −0.035 -->
      <g transform="translate(148.791406 330.830469)scale(0.1 -0.1)">
       <defs>
        <path d="M 4.203125 18.890625 
L 12.984375 20.0625 
Q 14.5 12.59375 18.140625 9.296875 
Q 21.78125 6 27 6 
Q 33.203125 6 37.46875 10.296875 
Q 41.75 14.59375 41.75 20.953125 
Q 41.75 27 37.796875 30.921875 
Q 33.84375 34.859375 27.734375 34.859375 
Q 25.25 34.859375 21.53125 33.890625 
L 22.515625 41.609375 
Q 23.390625 41.5 23.921875 41.5 
Q 29.546875 41.5 34.03125 44.421875 
Q 38.53125 47.359375 38.53125 53.46875 
Q 38.53125 58.296875 35.25 61.46875 
Q 31.984375 64.65625 26.8125 64.65625 
Q 21.6875 64.65625 18.265625 61.421875 
Q 14.84375 58.203125 13.875 51.765625 
L 5.078125 53.328125 
Q 6.6875 62.15625 12.390625 67.015625 
Q 18.109375 71.875 26.609375 71.875 
Q 32.46875 71.875 37.390625 69.359375 
Q 42.328125 66.84375 44.9375 62.5 
Q 47.5625 58.15625 47.5625 53.265625 
Q 47.5625 48.640625 45.0625 44.828125 
Q 42.578125 41.015625 37.703125 38.765625 
Q 44.046875 37.3125 47.5625 32.6875 
Q 51.078125 28.078125 51.078125 21.140625 
Q 51.078125 11.765625 44.234375 5.25 
Q 37.40625 -1.265625 26.953125 -1.265625 
Q 17.53125 -1.265625 11.296875 4.34375 
Q 5.078125 9.96875 4.203125 18.890625 
z
" id="ArialMT-51"/>
        <path d="M 4.15625 18.75 
L 13.375 19.53125 
Q 14.40625 12.796875 18.140625 9.390625 
Q 21.875 6 27.15625 6 
Q 33.5 6 37.890625 10.78125 
Q 42.28125 15.578125 42.28125 23.484375 
Q 42.28125 31 38.0625 35.34375 
Q 33.84375 39.703125 27 39.703125 
Q 22.75 39.703125 19.328125 37.765625 
Q 15.921875 35.84375 13.96875 32.765625 
L 5.71875 33.84375 
L 12.640625 70.609375 
L 48.25 70.609375 
L 48.25 62.203125 
L 19.671875 62.203125 
L 15.828125 42.96875 
Q 22.265625 47.46875 29.34375 47.46875 
Q 38.71875 47.46875 45.15625 40.96875 
Q 51.609375 34.46875 51.609375 24.265625 
Q 51.609375 14.546875 45.953125 7.46875 
Q 39.0625 -1.21875 27.15625 -1.21875 
Q 17.390625 -1.21875 11.203125 4.25 
Q 5.03125 9.71875 4.15625 18.75 
z
" id="ArialMT-53"/>
       </defs>
       <use xlink:href="#ArialMT-8722"/>
       <use x="58.398438" xlink:href="#ArialMT-48"/>
       <use x="114.013672" xlink:href="#ArialMT-46"/>
       <use x="141.796875" xlink:href="#ArialMT-48"/>
       <use x="197.412109" xlink:href="#ArialMT-51"/>
       <use x="253.027344" xlink:href="#ArialMT-53"/>
      </g>
     </g>
    </g>
    <g id="xtick_3">
     <g id="line2d_3">
      <g>
       <use style="stroke:#000000;stroke-width:0.8;" x="215.039323" xlink:href="#mb3e62c0af9" y="316.672656"/>
      </g>
     </g>
     <g id="text_3">
      <!-- −0.030 -->
      <g transform="translate(199.608073 330.830469)scale(0.1 -0.1)">
       <use xlink:href="#ArialMT-8722"/>
       <use x="58.398438" xlink:href="#ArialMT-48"/>
       <use x="114.013672" xlink:href="#ArialMT-46"/>
       <use x="141.796875" xlink:href="#ArialMT-48"/>
       <use x="197.412109" xlink:href="#ArialMT-51"/>
       <use x="253.027344" xlink:href="#ArialMT-48"/>
      </g>
     </g>
    </g>
    <g id="xtick_4">
     <g id="line2d_4">
      <g>
       <use style="stroke:#000000;stroke-width:0.8;" x="265.85599" xlink:href="#mb3e62c0af9" y="316.672656"/>
      </g>
     </g>
     <g id="text_4">
      <!-- −0.025 -->
      <g transform="translate(250.42474 330.830469)scale(0.1 -0.1)">
       <defs>
        <path d="M 50.34375 8.453125 
L 50.34375 0 
L 3.03125 0 
Q 2.9375 3.171875 4.046875 6.109375 
Q 5.859375 10.9375 9.828125 15.625 
Q 13.8125 20.3125 21.34375 26.46875 
Q 33.015625 36.03125 37.109375 41.625 
Q 41.21875 47.21875 41.21875 52.203125 
Q 41.21875 57.421875 37.46875 61 
Q 33.734375 64.59375 27.734375 64.59375 
Q 21.390625 64.59375 17.578125 60.78125 
Q 13.765625 56.984375 13.71875 50.25 
L 4.6875 51.171875 
Q 5.609375 61.28125 11.65625 66.578125 
Q 17.71875 71.875 27.9375 71.875 
Q 38.234375 71.875 44.234375 66.15625 
Q 50.25 60.453125 50.25 52 
Q 50.25 47.703125 48.484375 43.546875 
Q 46.734375 39.40625 42.65625 34.8125 
Q 38.578125 30.21875 29.109375 22.21875 
Q 21.1875 15.578125 18.9375 13.203125 
Q 16.703125 10.84375 15.234375 8.453125 
z
" id="ArialMT-50"/>
       </defs>
       <use xlink:href="#ArialMT-8722"/>
       <use x="58.398438" xlink:href="#ArialMT-48"/>
       <use x="114.013672" xlink:href="#ArialMT-46"/>
       <use x="141.796875" xlink:href="#ArialMT-48"/>
       <use x="197.412109" xlink:href="#ArialMT-50"/>
       <use x="253.027344" xlink:href="#ArialMT-53"/>
      </g>
     </g>
    </g>
    <g id="xtick_5">
     <g id="line2d_5">
      <g>
       <use style="stroke:#000000;stroke-width:0.8;" x="316.672656" xlink:href="#mb3e62c0af9" y="316.672656"/>
      </g>
     </g>
     <g id="text_5">
      <!-- −0.020 -->
      <g transform="translate(301.241406 330.830469)scale(0.1 -0.1)">
       <use xlink:href="#ArialMT-8722"/>
       <use x="58.398438" xlink:href="#ArialMT-48"/>
       <use x="114.013672" xlink:href="#ArialMT-46"/>
       <use x="141.796875" xlink:href="#ArialMT-48"/>
       <use x="197.412109" xlink:href="#ArialMT-50"/>
       <use x="253.027344" xlink:href="#ArialMT-48"/>
      </g>
     </g>
    </g>
    <g id="xtick_6">
     <g id="line2d_6">
      <g>
       <use style="stroke:#000000;stroke-width:0.8;" x="367.489323" xlink:href="#mb3e62c0af9" y="316.672656"/>
      </g>
     </g>
     <g id="text_6">
      <!-- −0.015 -->
      <g transform="translate(352.058073 330.830469)scale(0.1 -0.1)">
       <defs>
        <path d="M 37.25 0 
L 28.46875 0 
L 28.46875 56 
Q 25.296875 52.984375 20.140625 49.953125 
Q 14.984375 46.921875 10.890625 45.40625 
L 10.890625 53.90625 
Q 18.265625 57.375 23.78125 62.296875 
Q 29.296875 67.234375 31.59375 71.875 
L 37.25 71.875 
z
" id="ArialMT-49"/>
       </defs>
       <use xlink:href="#ArialMT-8722"/>
       <use x="58.398438" xlink:href="#ArialMT-48"/>
       <use x="114.013672" xlink:href="#ArialMT-46"/>
       <use x="141.796875" xlink:href="#ArialMT-48"/>
       <use x="197.412109" xlink:href="#ArialMT-49"/>
       <use x="253.027344" xlink:href="#ArialMT-53"/>
      </g>
     </g>
    </g>
    <g id="xtick_7">
     <g id="line2d_7">
      <g>
       <use style="stroke:#000000;stroke-width:0.8;" x="418.30599" xlink:href="#mb3e62c0af9" y="316.672656"/>
      </g>
     </g>
     <g id="text_7">
      <!-- −0.010 -->
      <g transform="translate(402.87474 330.830469)scale(0.1 -0.1)">
       <use xlink:href="#ArialMT-8722"/>
       <use x="58.398438" xlink:href="#ArialMT-48"/>
       <use x="114.013672" xlink:href="#ArialMT-46"/>
       <use x="141.796875" xlink:href="#ArialMT-48"/>
       <use x="197.412109" xlink:href="#ArialMT-49"/>
       <use x="253.027344" xlink:href="#ArialMT-48"/>
      </g>
     </g>
    </g>
    <g id="text_8">
     <!-- X (mm) -->
     <g transform="translate(249.472396 344.097656)scale(0.1 -0.1)">
      <defs>
       <path d="M 0.4375 0 
L 28.125 37.3125 
L 3.71875 71.578125 
L 14.984375 71.578125 
L 27.984375 53.21875 
Q 32.03125 47.515625 33.734375 44.4375 
Q 36.140625 48.34375 39.40625 52.59375 
L 53.8125 71.578125 
L 64.109375 71.578125 
L 38.96875 37.84375 
L 66.0625 0 
L 54.34375 0 
L 36.328125 25.53125 
Q 34.8125 27.734375 33.203125 30.328125 
Q 30.8125 26.421875 29.78125 24.953125 
L 11.8125 0 
z
" id="ArialMT-88"/>
       <path id="ArialMT-32"/>
       <path d="M 23.390625 -21.046875 
Q 16.109375 -11.859375 11.078125 0.4375 
Q 6.0625 12.75 6.0625 25.921875 
Q 6.0625 37.546875 9.8125 48.1875 
Q 14.203125 60.546875 23.390625 72.796875 
L 29.6875 72.796875 
Q 23.78125 62.640625 21.875 58.296875 
Q 18.890625 51.5625 17.1875 44.234375 
Q 15.09375 35.109375 15.09375 25.875 
Q 15.09375 2.390625 29.6875 -21.046875 
z
" id="ArialMT-40"/>
       <path d="M 6.59375 0 
L 6.59375 51.859375 
L 14.453125 51.859375 
L 14.453125 44.578125 
Q 16.890625 48.390625 20.9375 50.703125 
Q 25 53.03125 30.171875 53.03125 
Q 35.9375 53.03125 39.625 50.640625 
Q 43.3125 48.25 44.828125 43.953125 
Q 50.984375 53.03125 60.84375 53.03125 
Q 68.5625 53.03125 72.703125 48.75 
Q 76.859375 44.484375 76.859375 35.59375 
L 76.859375 0 
L 68.109375 0 
L 68.109375 32.671875 
Q 68.109375 37.9375 67.25 40.25 
Q 66.40625 42.578125 64.15625 43.984375 
Q 61.921875 45.40625 58.890625 45.40625 
Q 53.421875 45.40625 49.796875 41.765625 
Q 46.1875 38.140625 46.1875 30.125 
L 46.1875 0 
L 37.40625 0 
L 37.40625 33.6875 
Q 37.40625 39.546875 35.25 42.46875 
Q 33.109375 45.40625 28.21875 45.40625 
Q 24.515625 45.40625 21.359375 43.453125 
Q 18.21875 41.5 16.796875 37.734375 
Q 15.375 33.984375 15.375 26.90625 
L 15.375 0 
z
" id="ArialMT-109"/>
       <path d="M 12.359375 -21.046875 
L 6.0625 -21.046875 
Q 20.65625 2.390625 20.65625 25.875 
Q 20.65625 35.0625 18.5625 44.09375 
Q 16.890625 51.421875 13.921875 58.15625 
Q 12.015625 62.546875 6.0625 72.796875 
L 12.359375 72.796875 
Q 21.53125 60.546875 25.921875 48.1875 
Q 29.6875 37.546875 29.6875 25.921875 
Q 29.6875 12.75 24.625 0.4375 
Q 19.578125 -11.859375 12.359375 -21.046875 
z
" id="ArialMT-41"/>
      </defs>
      <use xlink:href="#ArialMT-88"/>
      <use x="66.699219" xlink:href="#ArialMT-32"/>
      <use x="94.482422" xlink:href="#ArialMT-40"/>
      <use x="127.783203" xlink:href="#ArialMT-109"/>
      <use x="211.083984" xlink:href="#ArialMT-109"/>
      <use x="294.384766" xlink:href="#ArialMT-41"/>
     </g>
    </g>
   </g>
   <g id="matplotlib.axis_2">
    <g id="ytick_1">
     <g id="line2d_8">
      <defs>
       <path d="M 0 0 
L -3.5 0 
" id="m512ddc131f" style="stroke:#000000;stroke-width:0.8;"/>
      </defs>
      <g>
       <use style="stroke:#000000;stroke-width:0.8;" x="103.242656" xlink:href="#m512ddc131f" y="316.672656"/>
      </g>
     </g>
     <g id="text_9">
      <!-- −0.015 -->
      <g transform="translate(65.380156 320.251563)scale(0.1 -0.1)">
       <use xlink:href="#ArialMT-8722"/>
       <use x="58.398438" xlink:href="#ArialMT-48"/>
       <use x="114.013672" xlink:href="#ArialMT-46"/>
       <use x="141.796875" xlink:href="#ArialMT-48"/>
       <use x="197.412109" xlink:href="#ArialMT-49"/>
       <use x="253.027344" xlink:href="#ArialMT-53"/>
      </g>
     </g>
    </g>
    <g id="ytick_2">
     <g id="line2d_9">
      <g>
       <use style="stroke:#000000;stroke-width:0.8;" x="103.242656" xlink:href="#m512ddc131f" y="265.85599"/>
      </g>
     </g>
     <g id="text_10">
      <!-- −0.010 -->
      <g transform="translate(65.380156 269.434896)scale(0.1 -0.1)">
       <use xlink:href="#ArialMT-8722"/>
       <use x="58.398438" xlink:href="#ArialMT-48"/>
       <use x="114.013672" xlink:href="#ArialMT-46"/>
       <use x="141.796875" xlink:href="#ArialMT-48"/>
       <use x="197.412109" xlink:href="#ArialMT-49"/>
       <use x="253.027344" xlink:href="#ArialMT-48"/>
      </g>
     </g>
    </g>
    <g id="ytick_3">
     <g id="line2d_10">
      <g>
       <use style="stroke:#000000;stroke-width:0.8;" x="103.242656" xlink:href="#m512ddc131f" y="215.039323"/>
      </g>
     </g>
     <g id="text_11">
      <!-- −0.005 -->
      <g transform="translate(65.380156 218.618229)scale(0.1 -0.1)">
       <use xlink:href="#ArialMT-8722"/>
       <use x="58.398438" xlink:href="#ArialMT-48"/>
       <use x="114.013672" xlink:href="#ArialMT-46"/>
       <use x="141.796875" xlink:href="#ArialMT-48"/>
       <use x="197.412109" xlink:href="#ArialMT-48"/>
       <use x="253.027344" xlink:href="#ArialMT-53"/>
      </g>
     </g>
    </g>
    <g id="ytick_4">
     <g id="line2d_11">
      <g>
       <use style="stroke:#000000;stroke-width:0.8;" x="103.242656" xlink:href="#m512ddc131f" y="164.222656"/>
      </g>
     </g>
     <g id="text_12">
      <!-- 0.000 -->
      <g transform="translate(71.220781 167.801563)scale(0.1 -0.1)">
       <use xlink:href="#ArialMT-48"/>
       <use x="55.615234" xlink:href="#ArialMT-46"/>
       <use x="83.398438" xlink:href="#ArialMT-48"/>
       <use x="139.013672" xlink:href="#ArialMT-48"/>
       <use x="194.628906" xlink:href="#ArialMT-48"/>
      </g>
     </g>
    </g>
    <g id="ytick_5">
     <g id="line2d_12">
      <g>
       <use style="stroke:#000000;stroke-width:0.8;" x="103.242656" xlink:href="#m512ddc131f" y="113.40599"/>
      </g>
     </g>
     <g id="text_13">
      <!-- 0.005 -->
      <g transform="translate(71.220781 116.984896)scale(0.1 -0.1)">
       <use xlink:href="#ArialMT-48"/>
       <use x="55.615234" xlink:href="#ArialMT-46"/>
       <use x="83.398438" xlink:href="#ArialMT-48"/>
       <use x="139.013672" xlink:href="#ArialMT-48"/>
       <use x="194.628906" xlink:href="#ArialMT-53"/>
      </g>
     </g>
    </g>
    <g id="ytick_6">
     <g id="line2d_13">
      <g>
       <use style="stroke:#000000;stroke-width:0.8;" x="103.242656" xlink:href="#m512ddc131f" y="62.589323"/>
      </g>
     </g>
     <g id="text_14">
      <!-- 0.010 -->
      <g transform="translate(71.220781 66.168229)scale(0.1 -0.1)">
       <use xlink:href="#ArialMT-48"/>
       <use x="55.615234" xlink:href="#ArialMT-46"/>
       <use x="83.398438" xlink:href="#ArialMT-48"/>
       <use x="139.013672" xlink:href="#ArialMT-49"/>
       <use x="194.628906" xlink:href="#ArialMT-48"/>
      </g>
     </g>
    </g>
    <g id="ytick_7">
     <g id="line2d_14">
      <g>
       <use style="stroke:#000000;stroke-width:0.8;" x="103.242656" xlink:href="#m512ddc131f" y="11.772656"/>
      </g>
     </g>
     <g id="text_15">
      <!-- 0.015 -->
      <g transform="translate(71.220781 15.351563)scale(0.1 -0.1)">
       <use xlink:href="#ArialMT-48"/>
       <use x="55.615234" xlink:href="#ArialMT-46"/>
       <use x="83.398438" xlink:href="#ArialMT-48"/>
       <use x="139.013672" xlink:href="#ArialMT-49"/>
       <use x="194.628906" xlink:href="#ArialMT-53"/>
      </g>
     </g>
    </g>
    <g id="text_16">
     <!-- Y (mm) -->
     <g transform="translate(59.275469 180.51875)rotate(-90)scale(0.1 -0.1)">
      <defs>
       <path d="M 27.875 0 
L 27.875 30.328125 
L 0.296875 71.578125 
L 11.8125 71.578125 
L 25.921875 50 
Q 29.828125 43.953125 33.203125 37.890625 
Q 36.421875 43.5 41.015625 50.53125 
L 54.890625 71.578125 
L 65.921875 71.578125 
L 37.359375 30.328125 
L 37.359375 0 
z
" id="ArialMT-89"/>
      </defs>
      <use xlink:href="#ArialMT-89"/>
      <use x="64.949219" xlink:href="#ArialMT-32"/>
      <use x="92.732422" xlink:href="#ArialMT-40"/>
      <use x="126.033203" xlink:href="#ArialMT-109"/>
      <use x="209.333984" xlink:href="#ArialMT-109"/>
      <use x="292.634766" xlink:href="#ArialMT-41"/>
     </g>
    </g>
   </g>
   <g id="line2d_15">
    <defs>
     <path d="M 0 7.5 
C 1.989023 7.5 3.896849 6.709753 5.303301 5.303301 
C 6.709753 3.896849 7.5 1.989023 7.5 0 
C 7.5 -1.989023 6.709753 -3.896849 5.303301 -5.303301 
C 3.896849 -6.709753 1.989023 -7.5 0 -7.5 
C -1.989023 -7.5 -3.896849 -6.709753 -5.303301 -5.303301 
C -6.709753 -3.896849 -7.5 -1.989023 -7.5 0 
C -7.5 1.989023 -6.709753 3.896849 -5.303301 5.303301 
C -3.896849 6.709753 -1.989023 7.5 0 7.5 
z
" id="mb9f5d96282" style="stroke:#000000;"/>
    </defs>
    <g clip-path="url(#p91482fa49a)">
     <use style="fill:#87cefa;stroke:#000000;" x="62.589323" xlink:href="#mb9f5d96282" y="265.85599"/>
    </g>
   </g>
   <g id="line2d_16">
    <g clip-path="url(#p91482fa49a)">
     <use style="fill:#87cefa;stroke:#000000;" x="164.222656" xlink:href="#mb9f5d96282" y="265.85599"/>
    </g>
   </g>
   <g id="line2d_17">
    <g clip-path="url(#p91482fa49a)">
     <use style="fill:#87cefa;stroke:#000000;" x="265.85599" xlink:href="#mb9f5d96282" y="265.85599"/>
    </g>
   </g>
   <g id="line2d_18">
    <g clip-path="url(#p91482fa49a)">
     <use style="fill:#87cefa;stroke:#000000;" x="367.489323" xlink:href="#mb9f5d96282" y="265.85599"/>
    </g>
   </g>
   <g id="line2d_19">
    <g clip-path="url(#p91482fa49a)">
     <use style="fill:#87cefa;stroke:#000000;" x="469.122656" xlink:href="#mb9f5d96282" y="265.85599"/>
    </g>
   </g>
   <g id="line2d_20">
    <g clip-path="url(#p91482fa49a)">
     <use style="fill:#87cefa;stroke:#000000;" x="570.75599" xlink:href="#mb9f5d96282" y="265.85599"/>
    </g>
   </g>
   <g id="line2d_21">
    <g clip-path="url(#p91482fa49a)">
     <use style="fill:#87cefa;stroke:#000000;" x="672.389323" xlink:href="#mb9f5d96282" y="265.85599"/>
    </g>
   </g>
   <g id="line2d_22">
    <g clip-path="url(#p91482fa49a)">
     <use style="fill:#87cefa;stroke:#000000;" x="774.022656" xlink:href="#mb9f5d96282" y="265.85599"/>
    </g>
   </g>
   <g id="line2d_23">
    <g clip-path="url(#p91482fa49a)">
     <use style="fill:#87cefa;stroke:#000000;" x="875.65599" xlink:href="#mb9f5d96282" y="265.85599"/>
    </g>
   </g>
   <g id="line2d_24">
    <g clip-path="url(#p91482fa49a)">
     <use style="fill:#87cefa;stroke:#000000;" x="977.289323" xlink:href="#mb9f5d96282" y="265.85599"/>
    </g>
   </g>
   <g id="line2d_25">
    <g clip-path="url(#p91482fa49a)">
     <use style="fill:#87cefa;stroke:#000000;" x="62.589323" xlink:href="#mb9f5d96282" y="164.222656"/>
    </g>
   </g>
   <g id="line2d_26">
    <g clip-path="url(#p91482fa49a)">
     <use style="fill:#87cefa;stroke:#000000;" x="164.222656" xlink:href="#mb9f5d96282" y="164.222656"/>
    </g>
   </g>
   <g id="line2d_27">
    <g clip-path="url(#p91482fa49a)">
     <use style="fill:#87cefa;stroke:#000000;" x="265.85599" xlink:href="#mb9f5d96282" y="164.222656"/>
    </g>
   </g>
   <g id="line2d_28">
    <g clip-path="url(#p91482fa49a)">
     <use style="fill:#87cefa;stroke:#000000;" x="367.489323" xlink:href="#mb9f5d96282" y="164.222656"/>
    </g>
   </g>
   <g id="line2d_29">
    <g clip-path="url(#p91482fa49a)">
     <use style="fill:#87cefa;stroke:#000000;" x="469.122656" xlink:href="#mb9f5d96282" y="164.222656"/>
    </g>
   </g>
   <g id="line2d_30">
    <g clip-path="url(#p91482fa49a)">
     <use style="fill:#87cefa;stroke:#000000;" x="570.75599" xlink:href="#mb9f5d96282" y="164.222656"/>
    </g>
   </g>
   <g id="line2d_31">
    <g clip-path="url(#p91482fa49a)">
     <use style="fill:#87cefa;stroke:#000000;" x="672.389323" xlink:href="#mb9f5d96282" y="164.222656"/>
    </g>
   </g>
   <g id="line2d_32">
    <g clip-path="url(#p91482fa49a)">
     <use style="fill:#87cefa;stroke:#000000;" x="774.022656" xlink:href="#mb9f5d96282" y="164.222656"/>
    </g>
   </g>
   <g id="line2d_33">
    <g clip-path="url(#p91482fa49a)">
     <use style="fill:#87cefa;stroke:#000000;" x="875.65599" xlink:href="#mb9f5d96282" y="164.222656"/>
    </g>
   </g>
   <g id="line2d_34">
    <g clip-path="url(#p91482fa49a)">
     <use style="fill:#87cefa;stroke:#000000;" x="977.289323" xlink:href="#mb9f5d96282" y="164.222656"/>
    </g>
   </g>
   <g id="line2d_35">
    <g clip-path="url(#p91482fa49a)">
     <use style="fill:#87cefa;stroke:#000000;" x="62.589323" xlink:href="#mb9f5d96282" y="62.589323"/>
    </g>
   </g>
   <g id="line2d_36">
    <g clip-path="url(#p91482fa49a)">
     <use style="fill:#87cefa;stroke:#000000;" x="164.222656" xlink:href="#mb9f5d96282" y="62.589323"/>
    </g>
   </g>
   <g id="line2d_37">
    <g clip-path="url(#p91482fa49a)">
     <use style="fill:#87cefa;stroke:#000000;" x="265.85599" xlink:href="#mb9f5d96282" y="62.589323"/>
    </g>
   </g>
   <g id="line2d_38">
    <g clip-path="url(#p91482fa49a)">
     <use style="fill:#87cefa;stroke:#000000;" x="367.489323" xlink:href="#mb9f5d96282" y="62.589323"/>
    </g>
   </g>
   <g id="line2d_39">
    <g clip-path="url(#p91482fa49a)">
     <use style="fill:#87cefa;stroke:#000000;" x="469.122656" xlink:href="#mb9f5d96282" y="62.589323"/>
    </g>
   </g>
   <g id="line2d_40">
    <g clip-path="url(#p91482fa49a)">
     <use style="fill:#87cefa;stroke:#000000;" x="570.75599" xlink:href="#mb9f5d96282" y="62.589323"/>
    </g>
   </g>
   <g id="line2d_41">
    <g clip-path="url(#p91482fa49a)">
     <use style="fill:#87cefa;stroke:#000000;" x="672.389323" xlink:href="#mb9f5d96282" y="62.589323"/>
    </g>
   </g>
   <g id="line2d_42">
    <g clip-path="url(#p91482fa49a)">
     <use style="fill:#87cefa;stroke:#000000;" x="774.022656" xlink:href="#mb9f5d96282" y="62.589323"/>
    </g>
   </g>
   <g id="line2d_43">
    <g clip-path="url(#p91482fa49a)">
     <use style="fill:#87cefa;stroke:#000000;" x="875.65599" xlink:href="#mb9f5d96282" y="62.589323"/>
    </g>
   </g>
   <g id="line2d_44">
    <g clip-path="url(#p91482fa49a)">
     <use style="fill:#87cefa;stroke:#000000;" x="977.289323" xlink:href="#mb9f5d96282" y="62.589323"/>
    </g>
   </g>
   <g id="line2d_45">
    <path clip-path="url(#p91482fa49a)" d="M 113.40599 316.672656 
L 113.40599 215.039323 
L 113.40599 215.039323 
L 113.40599 316.672656 
" style="fill:none;stroke:#000000;stroke-linecap:square;"/>
   </g>
   <g id="line2d_46">
    <path clip-path="url(#p91482fa49a)" d="M 11.772656 215.039323 
L 11.772656 215.039323 
L 113.40599 215.039323 
L 113.40599 215.039323 
" style="fill:none;stroke:#000000;stroke-linecap:square;"/>
   </g>
   <g id="line2d_47">
    <path clip-path="url(#p91482fa49a)" d="M 215.039323 316.672656 
L 215.039323 215.039323 
L 215.039323 215.039323 
L 215.039323 316.672656 
" style="fill:none;stroke:#000000;stroke-linecap:square;"/>
   </g>
   <g id="line2d_48">
    <path clip-path="url(#p91482fa49a)" d="M 113.40599 215.039323 
L 113.40599 215.039323 
L 215.039323 215.039323 
L 215.039323 215.039323 
" style="fill:none;stroke:#000000;stroke-linecap:square;"/>
   </g>
   <g id="line2d_49">
    <path clip-path="url(#p91482fa49a)" d="M 316.672656 316.672656 
L 316.672656 215.039323 
L 316.672656 215.039323 
L 316.672656 316.672656 
" style="fill:none;stroke:#000000;stroke-linecap:square;"/>
   </g>
   <g id="line2d_50">
    <path clip-path="url(#p91482fa49a)" d="M 215.039323 215.039323 
L 215.039323 215.039323 
L 316.672656 215.039323 
L 316.672656 215.039323 
" style="fill:none;stroke:#000000;stroke-linecap:square;"/>
   </g>
   <g id="line2d_51">
    <path clip-path="url(#p91482fa49a)" d="M 418.30599 316.672656 
L 418.30599 215.039323 
L 418.30599 215.039323 
L 418.30599 316.672656 
" style="fill:none;stroke:#000000;stroke-linecap:square;"/>
   </g>
   <g id="line2d_52">
    <path clip-path="url(#p91482fa49a)" d="M 316.672656 215.039323 
L 316.672656 215.039323 
L 418.30599 215.039323 
L 418.30599 215.039323 
" style="fill:none;stroke:#000000;stroke-linecap:square;"/>
   </g>
   <g id="line2d_53">
    <path clip-path="url(#p91482fa49a)" d="M 519.939323 316.672656 
L 519.939323 215.039323 
L 519.939323 215.039323 
L 519.939323 316.672656 
" style="fill:none;stroke:#000000;stroke-linecap:square;"/>
   </g>
   <g id="line2d_54">
    <path clip-path="url(#p91482fa49a)" d="M 418.30599 215.039323 
L 418.30599 215.039323 
L 519.939323 215.039323 
L 519.939323 215.039323 
" style="fill:none;stroke:#000000;stroke-linecap:square;"/>
   </g>
   <g id="line2d_55">
    <path clip-path="url(#p91482fa49a)" d="M 621.572656 316.672656 
L 621.572656 215.039323 
L 621.572656 215.039323 
L 621.572656 316.672656 
" style="fill:none;stroke:#000000;stroke-linecap:square;"/>
   </g>
   <g id="line2d_56">
    <path clip-path="url(#p91482fa49a)" d="M 519.939323 215.039323 
L 519.939323 215.039323 
L 621.572656 215.039323 
L 621.572656 215.039323 
" style="fill:none;stroke:#000000;stroke-linecap:square;"/>
   </g>
   <g id="line2d_57">
    <path clip-path="url(#p91482fa49a)" d="M 723.20599 316.672656 
L 723.20599 215.039323 
L 723.20599 215.039323 
L 723.20599 316.672656 
" style="fill:none;stroke:#000000;stroke-linecap:square;"/>
   </g>
   <g id="line2d_58">
    <path clip-path="url(#p91482fa49a)" d="M 621.572656 215.039323 
L 621.572656 215.039323 
L 723.20599 215.039323 
L 723.20599 215.039323 
" style="fill:none;stroke:#000000;stroke-linecap:square;"/>
   </g>
   <g id="line2d_59">
    <path clip-path="url(#p91482fa49a)" d="M 824.839323 316.672656 
L 824.839323 215.039323 
L 824.839323 215.039323 
L 824.839323 316.672656 
" style="fill:none;stroke:#000000;stroke-linecap:square;"/>
   </g>
   <g id="line2d_60">
    <path clip-path="url(#p91482fa49a)" d="M 723.20599 215.039323 
L 723.20599 215.039323 
L 824.839323 215.039323 
L 824.839323 215.039323 
" style="fill:none;stroke:#000000;stroke-linecap:square;"/>
   </g>
   <g id="line2d_61">
    <path clip-path="url(#p91482fa49a)" d="M 926.472656 316.672656 
L 926.472656 215.039323 
L 926.472656 215.039323 
L 926.472656 316.672656 
" style="fill:none;stroke:#000000;stroke-linecap:square;"/>
   </g>
   <g id="line2d_62">
    <path clip-path="url(#p91482fa49a)" d="M 824.839323 215.039323 
L 824.839323 215.039323 
L 926.472656 215.039323 
L 926.472656 215.039323 
" style="fill:none;stroke:#000000;stroke-linecap:square;"/>
   </g>
   <g id="line2d_63">
    <path clip-path="url(#p91482fa49a)" d="M 926.472656 215.039323 
L 926.472656 215.039323 
L 1028.10599 215.039323 
L 1028.10599 215.039323 
" style="fill:none;stroke:#000000;stroke-linecap:square;"/>
   </g>
   <g id="line2d_64">
    <path clip-path="url(#p91482fa49a)" d="M 113.40599 215.039323 
L 113.40599 113.40599 
L 113.40599 113.40599 
L 113.40599 215.039323 
" style="fill:none;stroke:#000000;stroke-linecap:square;"/>
   </g>
   <g id="line2d_65">
    <path clip-path="url(#p91482fa49a)" d="M 11.772656 113.40599 
L 11.772656 113.40599 
L 113.40599 113.40599 
L 113.40599 113.40599 
" style="fill:none;stroke:#000000;stroke-linecap:square;"/>
   </g>
   <g id="line2d_66">
    <path clip-path="url(#p91482fa49a)" d="M 215.039323 215.039323 
L 215.039323 113.40599 
L 215.039323 113.40599 
L 215.039323 215.039323 
" style="fill:none;stroke:#000000;stroke-linecap:square;"/>
   </g>
   <g id="line2d_67">
    <path clip-path="url(#p91482fa49a)" d="M 113.40599 113.40599 
L 113.40599 113.40599 
L 215.039323 113.40599 
L 215.039323 113.40599 
" style="fill:none;stroke:#000000;stroke-linecap:square;"/>
   </g>
   <g id="line2d_68">
    <path clip-path="url(#p91482fa49a)" d="M 316.672656 215.039323 
L 316.672656 113.40599 
L 316.672656 113.40599 
L 316.672656 215.039323 
" style="fill:none;stroke:#000000;stroke-linecap:square;"/>
   </g>
   <g id="line2d_69">
    <path clip-path="url(#p91482fa49a)" d="M 215.039323 113.40599 
L 215.039323 113.40599 
L 316.672656 113.40599 
L 316.672656 113.40599 
" style="fill:none;stroke:#000000;stroke-linecap:square;"/>
   </g>
   <g id="line2d_70">
    <path clip-path="url(#p91482fa49a)" d="M 418.30599 215.039323 
L 418.30599 113.40599 
L 418.30599 113.40599 
L 418.30599 215.039323 
" style="fill:none;stroke:#000000;stroke-linecap:square;"/>
   </g>
   <g id="line2d_71">
    <path clip-path="url(#p91482fa49a)" d="M 316.672656 113.40599 
L 316.672656 113.40599 
L 418.30599 113.40599 
L 418.30599 113.40599 
" style="fill:none;stroke:#000000;stroke-linecap:square;"/>
   </g>
   <g id="line2d_72">
    <path clip-path="url(#p91482fa49a)" d="M 519.939323 215.039323 
L 519.939323 113.40599 
L 519.939323 113.40599 
L 519.939323 215.039323 
" style="fill:none;stroke:#000000;stroke-linecap:square;"/>
   </g>
   <g id="line2d_73">
    <path clip-path="url(#p91482fa49a)" d="M 418.30599 113.40599 
L 418.30599 113.40599 
L 519.939323 113.40599 
L 519.939323 113.40599 
" style="fill:none;stroke:#000000;stroke-linecap:square;"/>
   </g>
   <g id="line2d_74">
    <path clip-path="url(#p91482fa49a)" d="M 621.572656 215.039323 
L 621.572656 113.40599 
L 621.572656 113.40599 
L 621.572656 215.039323 
" style="fill:none;stroke:#000000;stroke-linecap:square;"/>
   </g>
   <g id="line2d_75">
    <path clip-path="url(#p91482fa49a)" d="M 519.939323 113.40599 
L 519.939323 113.40599 
L 621.572656 113.40599 
L 621.572656 113.40599 
" style="fill:none;stroke:#000000;stroke-linecap:square;"/>
   </g>
   <g id="line2d_76">
    <path clip-path="url(#p91482fa49a)" d="M 723.20599 215.039323 
L 723.20599 113.40599 
L 723.20599 113.40599 
L 723.20599 215.039323 
" style="fill:none;stroke:#000000;stroke-linecap:square;"/>
   </g>
   <g id="line2d_77">
    <path clip-path="url(#p91482fa49a)" d="M 621.572656 113.40599 
L 621.572656 113.40599 
L 723.20599 113.40599 
L 723.20599 113.40599 
" style="fill:none;stroke:#000000;stroke-linecap:square;"/>
   </g>
   <g id="line2d_78">
    <path clip-path="url(#p91482fa49a)" d="M 824.839323 215.039323 
L 824.839323 113.40599 
L 824.839323 113.40599 
L 824.839323 215.039323 
" style="fill:none;stroke:#000000;stroke-linecap:square;"/>
   </g>
   <g id="line2d_79">
    <path clip-path="url(#p91482fa49a)" d="M 723.20599 113.40599 
L 723.20599 113.40599 
L 824.839323 113.40599 
L 824.839323 113.40599 
" style="fill:none;stroke:#000000;stroke-linecap:square;"/>
   </g>
   <g id="line2d_80">
    <path clip-path="url(#p91482fa49a)" d="M 926.472656 215.039323 
L 926.472656 113.40599 
L 926.472656 113.40599 
L 926.472656 215.039323 
" style="fill:none;stroke:#000000;stroke-linecap:square;"/>
   </g>
   <g id="line2d_81">
    <path clip-path="url(#p91482fa49a)" d="M 824.839323 113.40599 
L 824.839323 113.40599 
L 926.472656 113.40599 
L 926.472656 113.40599 
" style="fill:none;stroke:#000000;stroke-linecap:square;"/>
   </g>
   <g id="line2d_82">
    <path clip-path="url(#p91482fa49a)" d="M 926.472656 113.40599 
L 926.472656 113.40599 
L 1028.10599 113.40599 
L 1028.10599 113.40599 
" style="fill:none;stroke:#000000;stroke-linecap:square;"/>
   </g>
   <g id="line2d_83">
    <path clip-path="url(#p91482fa49a)" d="M 113.40599 113.40599 
L 113.40599 11.772656 
L 113.40599 11.772656 
L 113.40599 113.40599 
" style="fill:none;stroke:#000000;stroke-linecap:square;"/>
   </g>
   <g id="line2d_84">
    <path clip-path="url(#p91482fa49a)" d="M 215.039323 113.40599 
L 215.039323 11.772656 
L 215.039323 11.772656 
L 215.039323 113.40599 
" style="fill:none;stroke:#000000;stroke-linecap:square;"/>
   </g>
   <g id="line2d_85">
    <path clip-path="url(#p91482fa49a)" d="M 316.672656 113.40599 
L 316.672656 11.772656 
L 316.672656 11.772656 
L 316.672656 113.40599 
" style="fill:none;stroke:#000000;stroke-linecap:square;"/>
   </g>
   <g id="line2d_86">
    <path clip-path="url(#p91482fa49a)" d="M 418.30599 113.40599 
L 418.30599 11.772656 
L 418.30599 11.772656 
L 418.30599 113.40599 
" style="fill:none;stroke:#000000;stroke-linecap:square;"/>
   </g>
   <g id="line2d_87">
    <path clip-path="url(#p91482fa49a)" d="M 519.939323 113.40599 
L 519.939323 11.772656 
L 519.939323 11.772656 
L 519.939323 113.40599 
" style="fill:none;stroke:#000000;stroke-linecap:square;"/>
   </g>
   <g id="line2d_88">
    <path clip-path="url(#p91482fa49a)" d="M 621.572656 113.40599 
L 621.572656 11.772656 
L 621.572656 11.772656 
L 621.572656 113.40599 
" style="fill:none;stroke:#000000;stroke-linecap:square;"/>
   </g>
   <g id="line2d_89">
    <path clip-path="url(#p91482fa49a)" d="M 723.20599 113.40599 
L 723.20599 11.772656 
L 723.20599 11.772656 
L 723.20599 113.40599 
" style="fill:none;stroke:#000000;stroke-linecap:square;"/>
   </g>
   <g id="line2d_90">
    <path clip-path="url(#p91482fa49a)" d="M 824.839323 113.40599 
L 824.839323 11.772656 
L 824.839323 11.772656 
L 824.839323 113.40599 
" style="fill:none;stroke:#000000;stroke-linecap:square;"/>
   </g>
   <g id="line2d_91">
    <path clip-path="url(#p91482fa49a)" d="M 926.472656 113.40599 
L 926.472656 11.772656 
L 926.472656 11.772656 
L 926.472656 113.40599 
" style="fill:none;stroke:#000000;stroke-linecap:square;"/>
   </g>
   <g id="line2d_92">
    <path clip-path="url(#p91482fa49a)" d="M 11.772656 316.672656 
L 11.772656 316.672656 
L 11.772656 215.039323 
L 11.772656 215.039323 
" style="fill:none;stroke:#1f77b4;stroke-linecap:square;stroke-width:3;"/>
   </g>
   <g id="line2d_93">
    <path clip-path="url(#p91482fa49a)" d="M 11.772656 215.039323 
L 11.772656 215.039323 
L 11.772656 113.40599 
L 11.772656 113.40599 
" style="fill:none;stroke:#1f77b4;stroke-linecap:square;stroke-width:3;"/>
   </g>
   <g id="line2d_94">
    <path clip-path="url(#p91482fa49a)" d="M 11.772656 113.40599 
L 11.772656 113.40599 
L 11.772656 11.772656 
L 11.772656 11.772656 
" style="fill:none;stroke:#1f77b4;stroke-linecap:square;stroke-width:3;"/>
   </g>
   <g id="line2d_95">
    <path clip-path="url(#p91482fa49a)" d="M 1028.10599 316.672656 
L 1028.10599 215.039323 
L 1028.10599 215.039323 
L 1028.10599 316.672656 
" style="fill:none;stroke:#ff7f0e;stroke-linecap:square;stroke-width:3;"/>
   </g>
   <g id="line2d_96">
    <path clip-path="url(#p91482fa49a)" d="M 1028.10599 215.039323 
L 1028.10599 113.40599 
L 1028.10599 113.40599 
L 1028.10599 215.039323 
" style="fill:none;stroke:#ff7f0e;stroke-linecap:square;stroke-width:3;"/>
   </g>
   <g id="line2d_97">
    <path clip-path="url(#p91482fa49a)" d="M 1028.10599 113.40599 
L 1028.10599 11.772656 
L 1028.10599 11.772656 
L 1028.10599 113.40599 
" style="fill:none;stroke:#ff7f0e;stroke-linecap:square;stroke-width:3;"/>
   </g>
   <g id="line2d_98">
    <path clip-path="url(#p91482fa49a)" d="M 11.772656 11.772656 
L 11.772656 11.772656 
L 113.40599 11.772656 
L 113.40599 11.772656 
" style="fill:none;stroke:#2ca02c;stroke-linecap:square;stroke-width:3;"/>
   </g>
   <g id="line2d_99">
    <path clip-path="url(#p91482fa49a)" d="M 113.40599 11.772656 
L 113.40599 11.772656 
L 215.039323 11.772656 
L 215.039323 11.772656 
" style="fill:none;stroke:#2ca02c;stroke-linecap:square;stroke-width:3;"/>
   </g>
   <g id="line2d_100">
    <path clip-path="url(#p91482fa49a)" d="M 215.039323 11.772656 
L 215.039323 11.772656 
L 316.672656 11.772656 
L 316.672656 11.772656 
" style="fill:none;stroke:#2ca02c;stroke-linecap:square;stroke-width:3;"/>
   </g>
   <g id="line2d_101">
    <path clip-path="url(#p91482fa49a)" d="M 316.672656 11.772656 
L 316.672656 11.772656 
L 418.30599 11.772656 
L 418.30599 11.772656 
" style="fill:none;stroke:#2ca02c;stroke-linecap:square;stroke-width:3;"/>
   </g>
   <g id="line2d_102">
    <path clip-path="url(#p91482fa49a)" d="M 418.30599 11.772656 
L 418.30599 11.772656 
L 519.939323 11.772656 
L 519.939323 11.772656 
" style="fill:none;stroke:#2ca02c;stroke-linecap:square;stroke-width:3;"/>
   </g>
   <g id="line2d_103">
    <path clip-path="url(#p91482fa49a)" d="M 519.939323 11.772656 
L 519.939323 11.772656 
L 621.572656 11.772656 
L 621.572656 11.772656 
" style="fill:none;stroke:#2ca02c;stroke-linecap:square;stroke-width:3;"/>
   </g>
   <g id="line2d_104">
    <path clip-path="url(#p91482fa49a)" d="M 621.572656 11.772656 
L 621.572656 11.772656 
L 723.20599 11.772656 
L 723.20599 11.772656 
" style="fill:none;stroke:#2ca02c;stroke-linecap:square;stroke-width:3;"/>
   </g>
   <g id="line2d_105">
    <path clip-path="url(#p91482fa49a)" d="M 723.20599 11.772656 
L 723.20599 11.772656 
L 824.839323 11.772656 
L 824.839323 11.772656 
" style="fill:none;stroke:#2ca02c;stroke-linecap:square;stroke-width:3;"/>
   </g>
   <g id="line2d_106">
    <path clip-path="url(#p91482fa49a)" d="M 824.839323 11.772656 
L 824.839323 11.772656 
L 926.472656 11.772656 
L 926.472656 11.772656 
" style="fill:none;stroke:#2ca02c;stroke-linecap:square;stroke-width:3;"/>
   </g>
   <g id="line2d_107">
    <path clip-path="url(#p91482fa49a)" d="M 926.472656 11.772656 
L 926.472656 11.772656 
L 1028.10599 11.772656 
L 1028.10599 11.772656 
" style="fill:none;stroke:#2ca02c;stroke-linecap:square;stroke-width:3;"/>
   </g>
   <g id="line2d_108">
    <path clip-path="url(#p91482fa49a)" d="M 11.772656 316.672656 
L 113.40599 316.672656 
L 113.40599 316.672656 
L 11.772656 316.672656 
" style="fill:none;stroke:#d62728;stroke-linecap:square;stroke-width:3;"/>
   </g>
   <g id="line2d_109">
    <path clip-path="url(#p91482fa49a)" d="M 113.40599 316.672656 
L 215.039323 316.672656 
L 215.039323 316.672656 
L 113.40599 316.672656 
" style="fill:none;stroke:#d62728;stroke-linecap:square;stroke-width:3;"/>
   </g>
   <g id="line2d_110">
    <path clip-path="url(#p91482fa49a)" d="M 215.039323 316.672656 
L 316.672656 316.672656 
L 316.672656 316.672656 
L 215.039323 316.672656 
" style="fill:none;stroke:#d62728;stroke-linecap:square;stroke-width:3;"/>
   </g>
   <g id="line2d_111">
    <path clip-path="url(#p91482fa49a)" d="M 316.672656 316.672656 
L 418.30599 316.672656 
L 418.30599 316.672656 
L 316.672656 316.672656 
" style="fill:none;stroke:#d62728;stroke-linecap:square;stroke-width:3;"/>
   </g>
   <g id="line2d_112">
    <path clip-path="url(#p91482fa49a)" d="M 418.30599 316.672656 
L 519.939323 316.672656 
L 519.939323 316.672656 
L 418.30599 316.672656 
" style="fill:none;stroke:#d62728;stroke-linecap:square;stroke-width:3;"/>
   </g>
   <g id="line2d_113">
    <path clip-path="url(#p91482fa49a)" d="M 519.939323 316.672656 
L 621.572656 316.672656 
L 621.572656 316.672656 
L 519.939323 316.672656 
" style="fill:none;stroke:#d62728;stroke-linecap:square;stroke-width:3;"/>
   </g>
   <g id="line2d_114">
    <path clip-path="url(#p91482fa49a)" d="M 621.572656 316.672656 
L 723.20599 316.672656 
L 723.20599 316.672656 
L 621.572656 316.672656 
" style="fill:none;stroke:#d62728;stroke-linecap:square;stroke-width:3;"/>
   </g>
   <g id="line2d_115">
    <path clip-path="url(#p91482fa49a)" d="M 723.20599 316.672656 
L 824.839323 316.672656 
L 824.839323 316.672656 
L 723.20599 316.672656 
" style="fill:none;stroke:#d62728;stroke-linecap:square;stroke-width:3;"/>
   </g>
   <g id="line2d_116">
    <path clip-path="url(#p91482fa49a)" d="M 824.839323 316.672656 
L 926.472656 316.672656 
L 926.472656 316.672656 
L 824.839323 316.672656 
" style="fill:none;stroke:#d62728;stroke-linecap:square;stroke-width:3;"/>
   </g>
   <g id="line2d_117">
    <path clip-path="url(#p91482fa49a)" d="M 926.472656 316.672656 
L 1028.10599 316.672656 
L 1028.10599 316.672656 
L 926.472656 316.672656 
" style="fill:none;stroke:#d62728;stroke-linecap:square;stroke-width:3;"/>
   </g>
   <g id="line2d_118">
    <path clip-path="url(#p91482fa49a)" d="M 723.20599 215.039323 
L 723.20599 113.40599 
L 723.20599 113.40599 
L 723.20599 215.039323 
" style="fill:none;stroke:#ff0000;stroke-linecap:square;stroke-width:3;"/>
   </g>
   <g id="line2d_119">
    <path clip-path="url(#p91482fa49a)" d="M 316.672656 215.039323 
L 316.672656 113.40599 
L 316.672656 113.40599 
L 316.672656 215.039323 
" style="fill:none;stroke:#ff0000;stroke-linecap:square;stroke-width:3;"/>
   </g>
   <g id="line2d_120">
    <path clip-path="url(#p91482fa49a)" d="M 215.039323 113.40599 
L 215.039323 113.40599 
L 316.672656 113.40599 
L 316.672656 113.40599 
" style="fill:none;stroke:#ff0000;stroke-linecap:square;stroke-width:3;"/>
   </g>
   <g id="line2d_121">
    <path clip-path="url(#p91482fa49a)" d="M 215.039323 215.039323 
L 215.039323 215.039323 
L 316.672656 215.039323 
L 316.672656 215.039323 
" style="fill:none;stroke:#0000ff;stroke-linecap:square;stroke-width:3;"/>
   </g>
   <g id="line2d_122">
    <path clip-path="url(#p91482fa49a)" d="M 215.039323 215.039323 
L 215.039323 113.40599 
L 215.039323 113.40599 
L 215.039323 215.039323 
" style="fill:none;stroke:#0000ff;stroke-linecap:square;stroke-width:3;"/>
   </g>
   <g id="patch_10">
    <path d="M 103.242656 316.672656 
L 103.242656 11.772656 
" style="fill:none;stroke:#000000;stroke-linecap:square;stroke-linejoin:miter;stroke-width:0.8;"/>
   </g>
   <g id="patch_11">
    <path d="M 428.469323 316.672656 
L 428.469323 11.772656 
" style="fill:none;stroke:#000000;stroke-linecap:square;stroke-linejoin:miter;stroke-width:0.8;"/>
   </g>
   <g id="patch_12">
    <path d="M 103.242656 316.672656 
L 428.469323 316.672656 
" style="fill:none;stroke:#000000;stroke-linecap:square;stroke-linejoin:miter;stroke-width:0.8;"/>
   </g>
   <g id="patch_13">
    <path d="M 103.242656 11.772656 
L 428.469323 11.772656 
" style="fill:none;stroke:#000000;stroke-linecap:square;stroke-linejoin:miter;stroke-width:0.8;"/>
   </g>
   <g id="text_17">
    <!-- 0 -->
    <g transform="translate(59.808854 268.441146)scale(0.1 -0.1)">
     <use xlink:href="#ArialMT-48"/>
    </g>
   </g>
   <g id="text_18">
    <!-- 1 -->
    <g transform="translate(161.442187 268.441146)scale(0.1 -0.1)">
     <use xlink:href="#ArialMT-49"/>
    </g>
   </g>
   <g id="text_19">
    <!-- 2 -->
    <g transform="translate(263.075521 268.441146)scale(0.1 -0.1)">
     <use xlink:href="#ArialMT-50"/>
    </g>
   </g>
   <g id="text_20">
    <!-- 3 -->
    <g transform="translate(364.708854 268.441146)scale(0.1 -0.1)">
     <use xlink:href="#ArialMT-51"/>
    </g>
   </g>
   <g id="text_21">
    <!-- 4 -->
    <g transform="translate(466.342187 268.441146)scale(0.1 -0.1)">
     <use xlink:href="#ArialMT-52"/>
    </g>
   </g>
   <g id="text_22">
    <!-- 5 -->
    <g transform="translate(567.975521 268.441146)scale(0.1 -0.1)">
     <use xlink:href="#ArialMT-53"/>
    </g>
   </g>
   <g id="text_23">
    <!-- 6 -->
    <g transform="translate(669.608854 268.441146)scale(0.1 -0.1)">
     <defs>
      <path d="M 49.75 54.046875 
L 41.015625 53.375 
Q 39.84375 58.546875 37.703125 60.890625 
Q 34.125 64.65625 28.90625 64.65625 
Q 24.703125 64.65625 21.53125 62.3125 
Q 17.390625 59.28125 14.984375 53.46875 
Q 12.59375 47.65625 12.5 36.921875 
Q 15.671875 41.75 20.265625 44.09375 
Q 24.859375 46.4375 29.890625 46.4375 
Q 38.671875 46.4375 44.84375 39.96875 
Q 51.03125 33.5 51.03125 23.25 
Q 51.03125 16.5 48.125 10.71875 
Q 45.21875 4.9375 40.140625 1.859375 
Q 35.0625 -1.21875 28.609375 -1.21875 
Q 17.625 -1.21875 10.6875 6.859375 
Q 3.765625 14.9375 3.765625 33.5 
Q 3.765625 54.25 11.421875 63.671875 
Q 18.109375 71.875 29.4375 71.875 
Q 37.890625 71.875 43.28125 67.140625 
Q 48.6875 62.40625 49.75 54.046875 
z
M 13.875 23.1875 
Q 13.875 18.65625 15.796875 14.5 
Q 17.71875 10.359375 21.1875 8.171875 
Q 24.65625 6 28.46875 6 
Q 34.03125 6 38.03125 10.484375 
Q 42.046875 14.984375 42.046875 22.703125 
Q 42.046875 30.125 38.078125 34.390625 
Q 34.125 38.671875 28.125 38.671875 
Q 22.171875 38.671875 18.015625 34.390625 
Q 13.875 30.125 13.875 23.1875 
z
" id="ArialMT-54"/>
     </defs>
     <use xlink:href="#ArialMT-54"/>
    </g>
   </g>
   <g id="text_24">
    <!-- 7 -->
    <g transform="translate(771.242187 268.441146)scale(0.1 -0.1)">
     <defs>
      <path d="M 4.734375 62.203125 
L 4.734375 70.65625 
L 51.078125 70.65625 
L 51.078125 63.8125 
Q 44.234375 56.546875 37.515625 44.484375 
Q 30.8125 32.421875 27.15625 19.671875 
Q 24.515625 10.6875 23.78125 0 
L 14.75 0 
Q 14.890625 8.453125 18.0625 20.40625 
Q 21.234375 32.375 27.171875 43.484375 
Q 33.109375 54.59375 39.796875 62.203125 
z
" id="ArialMT-55"/>
     </defs>
     <use xlink:href="#ArialMT-55"/>
    </g>
   </g>
   <g id="text_25">
    <!-- 8 -->
    <g transform="translate(872.875521 268.441146)scale(0.1 -0.1)">
     <defs>
      <path d="M 17.671875 38.8125 
Q 12.203125 40.828125 9.5625 44.53125 
Q 6.9375 48.25 6.9375 53.421875 
Q 6.9375 61.234375 12.546875 66.546875 
Q 18.171875 71.875 27.484375 71.875 
Q 36.859375 71.875 42.578125 66.421875 
Q 48.296875 60.984375 48.296875 53.171875 
Q 48.296875 48.1875 45.671875 44.5 
Q 43.0625 40.828125 37.75 38.8125 
Q 44.34375 36.671875 47.78125 31.875 
Q 51.21875 27.09375 51.21875 20.453125 
Q 51.21875 11.28125 44.71875 5.03125 
Q 38.234375 -1.21875 27.640625 -1.21875 
Q 17.046875 -1.21875 10.546875 5.046875 
Q 4.046875 11.328125 4.046875 20.703125 
Q 4.046875 27.6875 7.59375 32.390625 
Q 11.140625 37.109375 17.671875 38.8125 
z
M 15.921875 53.71875 
Q 15.921875 48.640625 19.1875 45.40625 
Q 22.46875 42.1875 27.6875 42.1875 
Q 32.765625 42.1875 36.015625 45.375 
Q 39.265625 48.578125 39.265625 53.21875 
Q 39.265625 58.0625 35.90625 61.359375 
Q 32.5625 64.65625 27.59375 64.65625 
Q 22.5625 64.65625 19.234375 61.421875 
Q 15.921875 58.203125 15.921875 53.71875 
z
M 13.09375 20.65625 
Q 13.09375 16.890625 14.875 13.375 
Q 16.65625 9.859375 20.171875 7.921875 
Q 23.6875 6 27.734375 6 
Q 34.03125 6 38.125 10.046875 
Q 42.234375 14.109375 42.234375 20.359375 
Q 42.234375 26.703125 38.015625 30.859375 
Q 33.796875 35.015625 27.4375 35.015625 
Q 21.234375 35.015625 17.15625 30.90625 
Q 13.09375 26.8125 13.09375 20.65625 
z
" id="ArialMT-56"/>
     </defs>
     <use xlink:href="#ArialMT-56"/>
    </g>
   </g>
   <g id="text_26">
    <!-- 9 -->
    <g transform="translate(974.508854 268.441146)scale(0.1 -0.1)">
     <defs>
      <path d="M 5.46875 16.546875 
L 13.921875 17.328125 
Q 14.984375 11.375 18.015625 8.6875 
Q 21.046875 6 25.78125 6 
Q 29.828125 6 32.875 7.859375 
Q 35.9375 9.71875 37.890625 12.8125 
Q 39.84375 15.921875 41.15625 21.1875 
Q 42.484375 26.46875 42.484375 31.9375 
Q 42.484375 32.515625 42.4375 33.6875 
Q 39.796875 29.5 35.234375 26.875 
Q 30.671875 24.265625 25.34375 24.265625 
Q 16.453125 24.265625 10.296875 30.703125 
Q 4.15625 37.15625 4.15625 47.703125 
Q 4.15625 58.59375 10.578125 65.234375 
Q 17 71.875 26.65625 71.875 
Q 33.640625 71.875 39.421875 68.109375 
Q 45.21875 64.359375 48.21875 57.390625 
Q 51.21875 50.4375 51.21875 37.25 
Q 51.21875 23.53125 48.234375 15.40625 
Q 45.265625 7.28125 39.375 3.03125 
Q 33.5 -1.21875 25.59375 -1.21875 
Q 17.1875 -1.21875 11.859375 3.4375 
Q 6.546875 8.109375 5.46875 16.546875 
z
M 41.453125 48.140625 
Q 41.453125 55.71875 37.421875 60.15625 
Q 33.40625 64.59375 27.734375 64.59375 
Q 21.875 64.59375 17.53125 59.8125 
Q 13.1875 55.03125 13.1875 47.40625 
Q 13.1875 40.578125 17.3125 36.296875 
Q 21.4375 32.03125 27.484375 32.03125 
Q 33.59375 32.03125 37.515625 36.296875 
Q 41.453125 40.578125 41.453125 48.140625 
z
" id="ArialMT-57"/>
     </defs>
     <use xlink:href="#ArialMT-57"/>
    </g>
   </g>
   <g id="text_27">
    <!-- 10 -->
    <g transform="translate(57.028385 166.807813)scale(0.1 -0.1)">
     <use xlink:href="#ArialMT-49"/>
     <use x="55.615234" xlink:href="#ArialMT-48"/>
    </g>
   </g>
   <g id="text_28">
    <!-- 11 -->
    <g transform="translate(159.030469 166.807813)scale(0.1 -0.1)">
     <use xlink:href="#ArialMT-49"/>
     <use x="48.240234" xlink:href="#ArialMT-49"/>
    </g>
   </g>
   <g id="text_29">
    <!-- 12 -->
    <g transform="translate(260.295052 166.807813)scale(0.1 -0.1)">
     <use xlink:href="#ArialMT-49"/>
     <use x="55.615234" xlink:href="#ArialMT-50"/>
    </g>
   </g>
   <g id="text_30">
    <!-- 13 -->
    <g transform="translate(361.928385 166.807813)scale(0.1 -0.1)">
     <use xlink:href="#ArialMT-49"/>
     <use x="55.615234" xlink:href="#ArialMT-51"/>
    </g>
   </g>
   <g id="text_31">
    <!-- 14 -->
    <g transform="translate(463.561719 166.807813)scale(0.1 -0.1)">
     <use xlink:href="#ArialMT-49"/>
     <use x="55.615234" xlink:href="#ArialMT-52"/>
    </g>
   </g>
   <g id="text_32">
    <!-- 15 -->
    <g transform="translate(565.195052 166.807813)scale(0.1 -0.1)">
     <use xlink:href="#ArialMT-49"/>
     <use x="55.615234" xlink:href="#ArialMT-53"/>
    </g>
   </g>
   <g id="text_33">
    <!-- 16 -->
    <g transform="translate(666.828385 166.807813)scale(0.1 -0.1)">
     <use xlink:href="#ArialMT-49"/>
     <use x="55.615234" xlink:href="#ArialMT-54"/>
    </g>
   </g>
   <g id="text_34">
    <!-- 17 -->
    <g transform="translate(768.461719 166.807813)scale(0.1 -0.1)">
     <use xlink:href="#ArialMT-49"/>
     <use x="55.615234" xlink:href="#ArialMT-55"/>
    </g>
   </g>
   <g id="text_35">
    <!-- 18 -->
    <g transform="translate(870.095052 166.807813)scale(0.1 -0.1)">
     <use xlink:href="#ArialMT-49"/>
     <use x="55.615234" xlink:href="#ArialMT-56"/>
    </g>
   </g>
   <g id="text_36">
    <!-- 19 -->
    <g transform="translate(971.728385 166.807813)scale(0.1 -0.1)">
     <use xlink:href="#ArialMT-49"/>
     <use x="55.615234" xlink:href="#ArialMT-57"/>
    </g>
   </g>
   <g id="text_37">
    <!-- 20 -->
    <g transform="translate(57.028385 65.174479)scale(0.1 -0.1)">
     <use xlink:href="#ArialMT-50"/>
     <use x="55.615234" xlink:href="#ArialMT-48"/>
    </g>
   </g>
   <g id="text_38">
    <!-- 21 -->
    <g transform="translate(158.661719 65.174479)scale(0.1 -0.1)">
     <use xlink:href="#ArialMT-50"/>
     <use x="55.615234" xlink:href="#ArialMT-49"/>
    </g>
   </g>
   <g id="text_39">
    <!-- 22 -->
    <g transform="translate(260.295052 65.174479)scale(0.1 -0.1)">
     <use xlink:href="#ArialMT-50"/>
     <use x="55.615234" xlink:href="#ArialMT-50"/>
    </g>
   </g>
   <g id="text_40">
    <!-- 23 -->
    <g transform="translate(361.928385 65.174479)scale(0.1 -0.1)">
     <use xlink:href="#ArialMT-50"/>
     <use x="55.615234" xlink:href="#ArialMT-51"/>
    </g>
   </g>
   <g id="text_41">
    <!-- 24 -->
    <g transform="translate(463.561719 65.174479)scale(0.1 -0.1)">
     <use xlink:href="#ArialMT-50"/>
     <use x="55.615234" xlink:href="#ArialMT-52"/>
    </g>
   </g>
   <g id="text_42">
    <!-- 25 -->
    <g transform="translate(565.195052 65.174479)scale(0.1 -0.1)">
     <use xlink:href="#ArialMT-50"/>
     <use x="55.615234" xlink:href="#ArialMT-53"/>
    </g>
   </g>
   <g id="text_43">
    <!-- 26 -->
    <g transform="translate(666.828385 65.174479)scale(0.1 -0.1)">
     <use xlink:href="#ArialMT-50"/>
     <use x="55.615234" xlink:href="#ArialMT-54"/>
    </g>
   </g>
   <g id="text_44">
    <!-- 27 -->
    <g transform="translate(768.461719 65.174479)scale(0.1 -0.1)">
     <use xlink:href="#ArialMT-50"/>
     <use x="55.615234" xlink:href="#ArialMT-55"/>
    </g>
   </g>
   <g id="text_45">
    <!-- 28 -->
    <g transform="translate(870.095052 65.174479)scale(0.1 -0.1)">
     <use xlink:href="#ArialMT-50"/>
     <use x="55.615234" xlink:href="#ArialMT-56"/>
    </g>
   </g>
   <g id="text_46">
    <!-- 29 -->
    <g transform="translate(971.728385 65.174479)scale(0.1 -0.1)">
     <use xlink:href="#ArialMT-50"/>
     <use x="55.615234" xlink:href="#ArialMT-57"/>
    </g>
   </g>
   <g id="text_47">
    <g id="patch_14">
     <path d="M 106.625521 274.428646 
L 120.186458 274.428646 
L 120.186458 257.283333 
L 106.625521 257.283333 
z
" style="fill:#d3d3d3;stroke:#d3d3d3;stroke-linejoin:miter;"/>
    </g>
    <!-- 0 -->
    <g transform="translate(110.625521 268.441146)scale(0.1 -0.1)">
     <use xlink:href="#ArialMT-48"/>
    </g>
   </g>
   <g id="text_48">
    <g id="patch_15">
     <path d="M 55.808854 223.611979 
L 69.369792 223.611979 
L 69.369792 206.466667 
L 55.808854 206.466667 
z
" style="fill:#d3d3d3;stroke:#d3d3d3;stroke-linejoin:miter;"/>
    </g>
    <!-- 1 -->
    <g transform="translate(59.808854 217.624479)scale(0.1 -0.1)">
     <use xlink:href="#ArialMT-49"/>
    </g>
   </g>
   <g id="text_49">
    <g id="patch_16">
     <path d="M 208.258854 274.428646 
L 221.819792 274.428646 
L 221.819792 257.283333 
L 208.258854 257.283333 
z
" style="fill:#d3d3d3;stroke:#d3d3d3;stroke-linejoin:miter;"/>
    </g>
    <!-- 2 -->
    <g transform="translate(212.258854 268.441146)scale(0.1 -0.1)">
     <use xlink:href="#ArialMT-50"/>
    </g>
   </g>
   <g id="text_50">
    <g id="patch_17">
     <path d="M 157.442187 223.611979 
L 171.003125 223.611979 
L 171.003125 206.466667 
L 157.442187 206.466667 
z
" style="fill:#d3d3d3;stroke:#d3d3d3;stroke-linejoin:miter;"/>
    </g>
    <!-- 3 -->
    <g transform="translate(161.442187 217.624479)scale(0.1 -0.1)">
     <use xlink:href="#ArialMT-51"/>
    </g>
   </g>
   <g id="text_51">
    <g id="patch_18">
     <path d="M 309.892187 274.428646 
L 323.453125 274.428646 
L 323.453125 257.283333 
L 309.892187 257.283333 
z
" style="fill:#d3d3d3;stroke:#d3d3d3;stroke-linejoin:miter;"/>
    </g>
    <!-- 4 -->
    <g transform="translate(313.892187 268.441146)scale(0.1 -0.1)">
     <use xlink:href="#ArialMT-52"/>
    </g>
   </g>
   <g id="text_52">
    <g id="patch_19">
     <path d="M 259.075521 223.611979 
L 272.636458 223.611979 
L 272.636458 206.466667 
L 259.075521 206.466667 
z
" style="fill:#d3d3d3;stroke:#d3d3d3;stroke-linejoin:miter;"/>
    </g>
    <!-- 5 -->
    <g transform="translate(263.075521 217.624479)scale(0.1 -0.1)">
     <use xlink:href="#ArialMT-53"/>
    </g>
   </g>
   <g id="text_53">
    <g id="patch_20">
     <path d="M 411.525521 274.428646 
L 425.086458 274.428646 
L 425.086458 257.283333 
L 411.525521 257.283333 
z
" style="fill:#d3d3d3;stroke:#d3d3d3;stroke-linejoin:miter;"/>
    </g>
    <!-- 6 -->
    <g transform="translate(415.525521 268.441146)scale(0.1 -0.1)">
     <use xlink:href="#ArialMT-54"/>
    </g>
   </g>
   <g id="text_54">
    <g id="patch_21">
     <path d="M 360.708854 223.611979 
L 374.269792 223.611979 
L 374.269792 206.466667 
L 360.708854 206.466667 
z
" style="fill:#d3d3d3;stroke:#d3d3d3;stroke-linejoin:miter;"/>
    </g>
    <!-- 7 -->
    <g transform="translate(364.708854 217.624479)scale(0.1 -0.1)">
     <use xlink:href="#ArialMT-55"/>
    </g>
   </g>
   <g id="text_55">
    <g id="patch_22">
     <path d="M 513.158854 274.428646 
L 526.719792 274.428646 
L 526.719792 257.283333 
L 513.158854 257.283333 
z
" style="fill:#d3d3d3;stroke:#d3d3d3;stroke-linejoin:miter;"/>
    </g>
    <!-- 8 -->
    <g transform="translate(517.158854 268.441146)scale(0.1 -0.1)">
     <use xlink:href="#ArialMT-56"/>
    </g>
   </g>
   <g id="text_56">
    <g id="patch_23">
     <path d="M 462.342187 223.611979 
L 475.903125 223.611979 
L 475.903125 206.466667 
L 462.342187 206.466667 
z
" style="fill:#d3d3d3;stroke:#d3d3d3;stroke-linejoin:miter;"/>
    </g>
    <!-- 9 -->
    <g transform="translate(466.342187 217.624479)scale(0.1 -0.1)">
     <use xlink:href="#ArialMT-57"/>
    </g>
   </g>
   <g id="text_57">
    <g id="patch_24">
     <path d="M 612.011719 274.428646 
L 631.133594 274.428646 
L 631.133594 257.283333 
L 612.011719 257.283333 
z
" style="fill:#d3d3d3;stroke:#d3d3d3;stroke-linejoin:miter;"/>
    </g>
    <!-- 10 -->
    <g transform="translate(616.011719 268.441146)scale(0.1 -0.1)">
     <use xlink:href="#ArialMT-49"/>
     <use x="55.615234" xlink:href="#ArialMT-48"/>
    </g>
   </g>
   <g id="text_58">
    <g id="patch_25">
     <path d="M 561.563802 223.611979 
L 579.948177 223.611979 
L 579.948177 206.466667 
L 561.563802 206.466667 
z
" style="fill:#d3d3d3;stroke:#d3d3d3;stroke-linejoin:miter;"/>
    </g>
    <!-- 11 -->
    <g transform="translate(565.563802 217.624479)scale(0.1 -0.1)">
     <use xlink:href="#ArialMT-49"/>
     <use x="48.240234" xlink:href="#ArialMT-49"/>
    </g>
   </g>
   <g id="text_59">
    <g id="patch_26">
     <path d="M 713.645052 274.428646 
L 732.766927 274.428646 
L 732.766927 257.283333 
L 713.645052 257.283333 
z
" style="fill:#d3d3d3;stroke:#d3d3d3;stroke-linejoin:miter;"/>
    </g>
    <!-- 12 -->
    <g transform="translate(717.645052 268.441146)scale(0.1 -0.1)">
     <use xlink:href="#ArialMT-49"/>
     <use x="55.615234" xlink:href="#ArialMT-50"/>
    </g>
   </g>
   <g id="text_60">
    <g id="patch_27">
     <path d="M 662.828385 223.611979 
L 681.95026 223.611979 
L 681.95026 206.466667 
L 662.828385 206.466667 
z
" style="fill:#d3d3d3;stroke:#d3d3d3;stroke-linejoin:miter;"/>
    </g>
    <!-- 13 -->
    <g transform="translate(666.828385 217.624479)scale(0.1 -0.1)">
     <use xlink:href="#ArialMT-49"/>
     <use x="55.615234" xlink:href="#ArialMT-51"/>
    </g>
   </g>
   <g id="text_61">
    <g id="patch_28">
     <path d="M 815.278385 274.428646 
L 834.40026 274.428646 
L 834.40026 257.283333 
L 815.278385 257.283333 
z
" style="fill:#d3d3d3;stroke:#d3d3d3;stroke-linejoin:miter;"/>
    </g>
    <!-- 14 -->
    <g transform="translate(819.278385 268.441146)scale(0.1 -0.1)">
     <use xlink:href="#ArialMT-49"/>
     <use x="55.615234" xlink:href="#ArialMT-52"/>
    </g>
   </g>
   <g id="text_62">
    <g id="patch_29">
     <path d="M 764.461719 223.611979 
L 783.583594 223.611979 
L 783.583594 206.466667 
L 764.461719 206.466667 
z
" style="fill:#d3d3d3;stroke:#d3d3d3;stroke-linejoin:miter;"/>
    </g>
    <!-- 15 -->
    <g transform="translate(768.461719 217.624479)scale(0.1 -0.1)">
     <use xlink:href="#ArialMT-49"/>
     <use x="55.615234" xlink:href="#ArialMT-53"/>
    </g>
   </g>
   <g id="text_63">
    <g id="patch_30">
     <path d="M 916.911719 274.428646 
L 936.033594 274.428646 
L 936.033594 257.283333 
L 916.911719 257.283333 
z
" style="fill:#d3d3d3;stroke:#d3d3d3;stroke-linejoin:miter;"/>
    </g>
    <!-- 16 -->
    <g transform="translate(920.911719 268.441146)scale(0.1 -0.1)">
     <use xlink:href="#ArialMT-49"/>
     <use x="55.615234" xlink:href="#ArialMT-54"/>
    </g>
   </g>
   <g id="text_64">
    <g id="patch_31">
     <path d="M 866.095052 223.611979 
L 885.216927 223.611979 
L 885.216927 206.466667 
L 866.095052 206.466667 
z
" style="fill:#d3d3d3;stroke:#d3d3d3;stroke-linejoin:miter;"/>
    </g>
    <!-- 17 -->
    <g transform="translate(870.095052 217.624479)scale(0.1 -0.1)">
     <use xlink:href="#ArialMT-49"/>
     <use x="55.615234" xlink:href="#ArialMT-55"/>
    </g>
   </g>
   <g id="text_65">
    <g id="patch_32">
     <path d="M 967.728385 223.611979 
L 986.85026 223.611979 
L 986.85026 206.466667 
L 967.728385 206.466667 
z
" style="fill:#d3d3d3;stroke:#d3d3d3;stroke-linejoin:miter;"/>
    </g>
    <!-- 18 -->
    <g transform="translate(971.728385 217.624479)scale(0.1 -0.1)">
     <use xlink:href="#ArialMT-49"/>
     <use x="55.615234" xlink:href="#ArialMT-56"/>
    </g>
   </g>
   <g id="text_66">
    <g id="patch_33">
     <path d="M 103.845052 172.795313 
L 122.966927 172.795313 
L 122.966927 155.65 
L 103.845052 155.65 
z
" style="fill:#d3d3d3;stroke:#d3d3d3;stroke-linejoin:miter;"/>
    </g>
    <!-- 19 -->
    <g transform="translate(107.845052 166.807813)scale(0.1 -0.1)">
     <use xlink:href="#ArialMT-49"/>
     <use x="55.615234" xlink:href="#ArialMT-57"/>
    </g>
   </g>
   <g id="text_67">
    <g id="patch_34">
     <path d="M 53.028385 121.978646 
L 72.15026 121.978646 
L 72.15026 104.833333 
L 53.028385 104.833333 
z
" style="fill:#d3d3d3;stroke:#d3d3d3;stroke-linejoin:miter;"/>
    </g>
    <!-- 20 -->
    <g transform="translate(57.028385 115.991146)scale(0.1 -0.1)">
     <use xlink:href="#ArialMT-50"/>
     <use x="55.615234" xlink:href="#ArialMT-48"/>
    </g>
   </g>
   <g id="text_68">
    <g id="patch_35">
     <path d="M 205.478385 172.795313 
L 224.60026 172.795313 
L 224.60026 155.65 
L 205.478385 155.65 
z
" style="fill:#d3d3d3;stroke:#d3d3d3;stroke-linejoin:miter;"/>
    </g>
    <!-- 21 -->
    <g transform="translate(209.478385 166.807813)scale(0.1 -0.1)">
     <use xlink:href="#ArialMT-50"/>
     <use x="55.615234" xlink:href="#ArialMT-49"/>
    </g>
   </g>
   <g id="text_69">
    <g id="patch_36">
     <path d="M 154.661719 121.978646 
L 173.783594 121.978646 
L 173.783594 104.833333 
L 154.661719 104.833333 
z
" style="fill:#d3d3d3;stroke:#d3d3d3;stroke-linejoin:miter;"/>
    </g>
    <!-- 22 -->
    <g transform="translate(158.661719 115.991146)scale(0.1 -0.1)">
     <use xlink:href="#ArialMT-50"/>
     <use x="55.615234" xlink:href="#ArialMT-50"/>
    </g>
   </g>
   <g id="text_70">
    <g id="patch_37">
     <path d="M 307.111719 172.795313 
L 326.233594 172.795313 
L 326.233594 155.65 
L 307.111719 155.65 
z
" style="fill:#d3d3d3;stroke:#d3d3d3;stroke-linejoin:miter;"/>
    </g>
    <!-- 23 -->
    <g transform="translate(311.111719 166.807813)scale(0.1 -0.1)">
     <use xlink:href="#ArialMT-50"/>
     <use x="55.615234" xlink:href="#ArialMT-51"/>
    </g>
   </g>
   <g id="text_71">
    <g id="patch_38">
     <path d="M 256.295052 121.978646 
L 275.416927 121.978646 
L 275.416927 104.833333 
L 256.295052 104.833333 
z
" style="fill:#d3d3d3;stroke:#d3d3d3;stroke-linejoin:miter;"/>
    </g>
    <!-- 24 -->
    <g transform="translate(260.295052 115.991146)scale(0.1 -0.1)">
     <use xlink:href="#ArialMT-50"/>
     <use x="55.615234" xlink:href="#ArialMT-52"/>
    </g>
   </g>
   <g id="text_72">
    <g id="patch_39">
     <path d="M 408.745052 172.795313 
L 427.866927 172.795313 
L 427.866927 155.65 
L 408.745052 155.65 
z
" style="fill:#d3d3d3;stroke:#d3d3d3;stroke-linejoin:miter;"/>
    </g>
    <!-- 25 -->
    <g transform="translate(412.745052 166.807813)scale(0.1 -0.1)">
     <use xlink:href="#ArialMT-50"/>
     <use x="55.615234" xlink:href="#ArialMT-53"/>
    </g>
   </g>
   <g id="text_73">
    <g id="patch_40">
     <path d="M 357.928385 121.978646 
L 377.05026 121.978646 
L 377.05026 104.833333 
L 357.928385 104.833333 
z
" style="fill:#d3d3d3;stroke:#d3d3d3;stroke-linejoin:miter;"/>
    </g>
    <!-- 26 -->
    <g transform="translate(361.928385 115.991146)scale(0.1 -0.1)">
     <use xlink:href="#ArialMT-50"/>
     <use x="55.615234" xlink:href="#ArialMT-54"/>
    </g>
   </g>
   <g id="text_74">
    <g id="patch_41">
     <path d="M 510.378385 172.795313 
L 529.50026 172.795313 
L 529.50026 155.65 
L 510.378385 155.65 
z
" style="fill:#d3d3d3;stroke:#d3d3d3;stroke-linejoin:miter;"/>
    </g>
    <!-- 27 -->
    <g transform="translate(514.378385 166.807813)scale(0.1 -0.1)">
     <use xlink:href="#ArialMT-50"/>
     <use x="55.615234" xlink:href="#ArialMT-55"/>
    </g>
   </g>
   <g id="text_75">
    <g id="patch_42">
     <path d="M 459.561719 121.978646 
L 478.683594 121.978646 
L 478.683594 104.833333 
L 459.561719 104.833333 
z
" style="fill:#d3d3d3;stroke:#d3d3d3;stroke-linejoin:miter;"/>
    </g>
    <!-- 28 -->
    <g transform="translate(463.561719 115.991146)scale(0.1 -0.1)">
     <use xlink:href="#ArialMT-50"/>
     <use x="55.615234" xlink:href="#ArialMT-56"/>
    </g>
   </g>
   <g id="text_76">
    <g id="patch_43">
     <path d="M 612.011719 172.795313 
L 631.133594 172.795313 
L 631.133594 155.65 
L 612.011719 155.65 
z
" style="fill:#d3d3d3;stroke:#d3d3d3;stroke-linejoin:miter;"/>
    </g>
    <!-- 29 -->
    <g transform="translate(616.011719 166.807813)scale(0.1 -0.1)">
     <use xlink:href="#ArialMT-50"/>
     <use x="55.615234" xlink:href="#ArialMT-57"/>
    </g>
   </g>
   <g id="text_77">
    <g id="patch_44">
     <path d="M 561.195052 121.978646 
L 580.316927 121.978646 
L 580.316927 104.833333 
L 561.195052 104.833333 
z
" style="fill:#d3d3d3;stroke:#d3d3d3;stroke-linejoin:miter;"/>
    </g>
    <!-- 30 -->
    <g transform="translate(565.195052 115.991146)scale(0.1 -0.1)">
     <use xlink:href="#ArialMT-51"/>
     <use x="55.615234" xlink:href="#ArialMT-48"/>
    </g>
   </g>
   <g id="text_78">
    <g id="patch_45">
     <path d="M 713.645052 172.795313 
L 732.766927 172.795313 
L 732.766927 155.65 
L 713.645052 155.65 
z
" style="fill:#d3d3d3;stroke:#d3d3d3;stroke-linejoin:miter;"/>
    </g>
    <!-- 31 -->
    <g transform="translate(717.645052 166.807813)scale(0.1 -0.1)">
     <use xlink:href="#ArialMT-51"/>
     <use x="55.615234" xlink:href="#ArialMT-49"/>
    </g>
   </g>
   <g id="text_79">
    <g id="patch_46">
     <path d="M 662.828385 121.978646 
L 681.95026 121.978646 
L 681.95026 104.833333 
L 662.828385 104.833333 
z
" style="fill:#d3d3d3;stroke:#d3d3d3;stroke-linejoin:miter;"/>
    </g>
    <!-- 32 -->
    <g transform="translate(666.828385 115.991146)scale(0.1 -0.1)">
     <use xlink:href="#ArialMT-51"/>
     <use x="55.615234" xlink:href="#ArialMT-50"/>
    </g>
   </g>
   <g id="text_80">
    <g id="patch_47">
     <path d="M 815.278385 172.795313 
L 834.40026 172.795313 
L 834.40026 155.65 
L 815.278385 155.65 
z
" style="fill:#d3d3d3;stroke:#d3d3d3;stroke-linejoin:miter;"/>
    </g>
    <!-- 33 -->
    <g transform="translate(819.278385 166.807813)scale(0.1 -0.1)">
     <use xlink:href="#ArialMT-51"/>
     <use x="55.615234" xlink:href="#ArialMT-51"/>
    </g>
   </g>
   <g id="text_81">
    <g id="patch_48">
     <path d="M 764.461719 121.978646 
L 783.583594 121.978646 
L 783.583594 104.833333 
L 764.461719 104.833333 
z
" style="fill:#d3d3d3;stroke:#d3d3d3;stroke-linejoin:miter;"/>
    </g>
    <!-- 34 -->
    <g transform="translate(768.461719 115.991146)scale(0.1 -0.1)">
     <use xlink:href="#ArialMT-51"/>
     <use x="55.615234" xlink:href="#ArialMT-52"/>
    </g>
   </g>
   <g id="text_82">
    <g id="patch_49">
     <path d="M 916.911719 172.795313 
L 936.033594 172.795313 
L 936.033594 155.65 
L 916.911719 155.65 
z
" style="fill:#d3d3d3;stroke:#d3d3d3;stroke-linejoin:miter;"/>
    </g>
    <!-- 35 -->
    <g transform="translate(920.911719 166.807813)scale(0.1 -0.1)">
     <use xlink:href="#ArialMT-51"/>
     <use x="55.615234" xlink:href="#ArialMT-53"/>
    </g>
   </g>
   <g id="text_83">
    <g id="patch_50">
     <path d="M 866.095052 121.978646 
L 885.216927 121.978646 
L 885.216927 104.833333 
L 866.095052 104.833333 
z
" style="fill:#d3d3d3;stroke:#d3d3d3;stroke-linejoin:miter;"/>
    </g>
    <!-- 36 -->
    <g transform="translate(870.095052 115.991146)scale(0.1 -0.1)">
     <use xlink:href="#ArialMT-51"/>
     <use x="55.615234" xlink:href="#ArialMT-54"/>
    </g>
   </g>
   <g id="text_84">
    <g id="patch_51">
     <path d="M 967.728385 121.978646 
L 986.85026 121.978646 
L 986.85026 104.833333 
L 967.728385 104.833333 
z
" style="fill:#d3d3d3;stroke:#d3d3d3;stroke-linejoin:miter;"/>
    </g>
    <!-- 37 -->
    <g transform="translate(971.728385 115.991146)scale(0.1 -0.1)">
     <use xlink:href="#ArialMT-51"/>
     <use x="55.615234" xlink:href="#ArialMT-55"/>
    </g>
   </g>
   <g id="text_85">
    <g id="patch_52">
     <path d="M 103.845052 71.161979 
L 122.966927 71.161979 
L 122.966927 54.016667 
L 103.845052 54.016667 
z
" style="fill:#d3d3d3;stroke:#d3d3d3;stroke-linejoin:miter;"/>
    </g>
    <!-- 38 -->
    <g transform="translate(107.845052 65.174479)scale(0.1 -0.1)">
     <use xlink:href="#ArialMT-51"/>
     <use x="55.615234" xlink:href="#ArialMT-56"/>
    </g>
   </g>
   <g id="text_86">
    <g id="patch_53">
     <path d="M 205.478385 71.161979 
L 224.60026 71.161979 
L 224.60026 54.016667 
L 205.478385 54.016667 
z
" style="fill:#d3d3d3;stroke:#d3d3d3;stroke-linejoin:miter;"/>
    </g>
    <!-- 39 -->
    <g transform="translate(209.478385 65.174479)scale(0.1 -0.1)">
     <use xlink:href="#ArialMT-51"/>
     <use x="55.615234" xlink:href="#ArialMT-57"/>
    </g>
   </g>
   <g id="text_87">
    <g id="patch_54">
     <path d="M 307.111719 71.161979 
L 326.233594 71.161979 
L 326.233594 54.016667 
L 307.111719 54.016667 
z
" style="fill:#d3d3d3;stroke:#d3d3d3;stroke-linejoin:miter;"/>
    </g>
    <!-- 40 -->
    <g transform="translate(311.111719 65.174479)scale(0.1 -0.1)">
     <use xlink:href="#ArialMT-52"/>
     <use x="55.615234" xlink:href="#ArialMT-48"/>
    </g>
   </g>
   <g id="text_88">
    <g id="patch_55">
     <path d="M 408.745052 71.161979 
L 427.866927 71.161979 
L 427.866927 54.016667 
L 408.745052 54.016667 
z
" style="fill:#d3d3d3;stroke:#d3d3d3;stroke-linejoin:miter;"/>
    </g>
    <!-- 41 -->
    <g transform="translate(412.745052 65.174479)scale(0.1 -0.1)">
     <use xlink:href="#ArialMT-52"/>
     <use x="55.615234" xlink:href="#ArialMT-49"/>
    </g>
   </g>
   <g id="text_89">
    <g id="patch_56">
     <path d="M 510.378385 71.161979 
L 529.50026 71.161979 
L 529.50026 54.016667 
L 510.378385 54.016667 
z
" style="fill:#d3d3d3;stroke:#d3d3d3;stroke-linejoin:miter;"/>
    </g>
    <!-- 42 -->
    <g transform="translate(514.378385 65.174479)scale(0.1 -0.1)">
     <use xlink:href="#ArialMT-52"/>
     <use x="55.615234" xlink:href="#ArialMT-50"/>
    </g>
   </g>
   <g id="text_90">
    <g id="patch_57">
     <path d="M 612.011719 71.161979 
L 631.133594 71.161979 
L 631.133594 54.016667 
L 612.011719 54.016667 
z
" style="fill:#d3d3d3;stroke:#d3d3d3;stroke-linejoin:miter;"/>
    </g>
    <!-- 43 -->
    <g transform="translate(616.011719 65.174479)scale(0.1 -0.1)">
     <use xlink:href="#ArialMT-52"/>
     <use x="55.615234" xlink:href="#ArialMT-51"/>
    </g>
   </g>
   <g id="text_91">
    <g id="patch_58">
     <path d="M 713.645052 71.161979 
L 732.766927 71.161979 
L 732.766927 54.016667 
L 713.645052 54.016667 
z
" style="fill:#d3d3d3;stroke:#d3d3d3;stroke-linejoin:miter;"/>
    </g>
    <!-- 44 -->
    <g transform="translate(717.645052 65.174479)scale(0.1 -0.1)">
     <use xlink:href="#ArialMT-52"/>
     <use x="55.615234" xlink:href="#ArialMT-52"/>
    </g>
   </g>
   <g id="text_92">
    <g id="patch_59">
     <path d="M 815.278385 71.161979 
L 834.40026 71.161979 
L 834.40026 54.016667 
L 815.278385 54.016667 
z
" style="fill:#d3d3d3;stroke:#d3d3d3;stroke-linejoin:miter;"/>
    </g>
    <!-- 45 -->
    <g transform="translate(819.278385 65.174479)scale(0.1 -0.1)">
     <use xlink:href="#ArialMT-52"/>
     <use x="55.615234" xlink:href="#ArialMT-53"/>
    </g>
   </g>
   <g id="text_93">
    <g id="patch_60">
     <path d="M 916.911719 71.161979 
L 936.033594 71.161979 
L 936.033594 54.016667 
L 916.911719 54.016667 
z
" style="fill:#d3d3d3;stroke:#d3d3d3;stroke-linejoin:miter;"/>
    </g>
    <!-- 46 -->
    <g transform="translate(920.911719 65.174479)scale(0.1 -0.1)">
     <use xlink:href="#ArialMT-52"/>
     <use x="55.615234" xlink:href="#ArialMT-54"/>
    </g>
   </g>
   <g id="text_94">
    <g id="patch_61">
     <path d="M 20.345313 275.416927 
L 20.345313 256.295052 
L 3.2 256.295052 
L 3.2 275.416927 
z
" style="fill:#d3d3d3;stroke:#d3d3d3;stroke-linejoin:miter;"/>
    </g>
    <!-- 47 -->
    <g style="fill:#1f77b4;opacity:0.5;" transform="translate(14.357813 271.416927)rotate(-90)scale(0.1 -0.1)">
     <use xlink:href="#ArialMT-52"/>
     <use x="55.615234" xlink:href="#ArialMT-55"/>
    </g>
   </g>
   <g id="text_95">
    <g id="patch_62">
     <path d="M 20.345313 173.783594 
L 20.345313 154.661719 
L 3.2 154.661719 
L 3.2 173.783594 
z
" style="fill:#d3d3d3;stroke:#d3d3d3;stroke-linejoin:miter;"/>
    </g>
    <!-- 48 -->
    <g style="fill:#1f77b4;opacity:0.5;" transform="translate(14.357813 169.783594)rotate(-90)scale(0.1 -0.1)">
     <use xlink:href="#ArialMT-52"/>
     <use x="55.615234" xlink:href="#ArialMT-56"/>
    </g>
   </g>
   <g id="text_96">
    <g id="patch_63">
     <path d="M 20.345313 72.15026 
L 20.345313 53.028385 
L 3.2 53.028385 
L 3.2 72.15026 
z
" style="fill:#d3d3d3;stroke:#d3d3d3;stroke-linejoin:miter;"/>
    </g>
    <!-- 49 -->
    <g style="fill:#1f77b4;opacity:0.5;" transform="translate(14.357813 68.15026)rotate(-90)scale(0.1 -0.1)">
     <use xlink:href="#ArialMT-52"/>
     <use x="55.615234" xlink:href="#ArialMT-57"/>
    </g>
   </g>
   <g id="text_97">
    <g id="patch_64">
     <path d="M 1036.678646 275.416927 
L 1036.678646 256.295052 
L 1019.533333 256.295052 
L 1019.533333 275.416927 
z
" style="fill:#d3d3d3;stroke:#d3d3d3;stroke-linejoin:miter;"/>
    </g>
    <!-- 50 -->
    <g style="fill:#ff7f0e;opacity:0.5;" transform="translate(1030.691146 271.416927)rotate(-90)scale(0.1 -0.1)">
     <use xlink:href="#ArialMT-53"/>
     <use x="55.615234" xlink:href="#ArialMT-48"/>
    </g>
   </g>
   <g id="text_98">
    <g id="patch_65">
     <path d="M 1036.678646 173.783594 
L 1036.678646 154.661719 
L 1019.533333 154.661719 
L 1019.533333 173.783594 
z
" style="fill:#d3d3d3;stroke:#d3d3d3;stroke-linejoin:miter;"/>
    </g>
    <!-- 51 -->
    <g style="fill:#ff7f0e;opacity:0.5;" transform="translate(1030.691146 169.783594)rotate(-90)scale(0.1 -0.1)">
     <use xlink:href="#ArialMT-53"/>
     <use x="55.615234" xlink:href="#ArialMT-49"/>
    </g>
   </g>
   <g id="text_99">
    <g id="patch_66">
     <path d="M 1036.678646 72.15026 
L 1036.678646 53.028385 
L 1019.533333 53.028385 
L 1019.533333 72.15026 
z
" style="fill:#d3d3d3;stroke:#d3d3d3;stroke-linejoin:miter;"/>
    </g>
    <!-- 52 -->
    <g style="fill:#ff7f0e;opacity:0.5;" transform="translate(1030.691146 68.15026)rotate(-90)scale(0.1 -0.1)">
     <use xlink:href="#ArialMT-53"/>
     <use x="55.615234" xlink:href="#ArialMT-50"/>
    </g>
   </g>
   <g id="text_100">
    <g id="patch_67">
     <path d="M 53.028385 20.345313 
L 72.15026 20.345313 
L 72.15026 3.2 
L 53.028385 3.2 
z
" style="fill:#d3d3d3;stroke:#d3d3d3;stroke-linejoin:miter;"/>
    </g>
    <!-- 53 -->
    <g style="fill:#2ca02c;opacity:0.5;" transform="translate(57.028385 14.357813)scale(0.1 -0.1)">
     <use xlink:href="#ArialMT-53"/>
     <use x="55.615234" xlink:href="#ArialMT-51"/>
    </g>
   </g>
   <g id="text_101">
    <g id="patch_68">
     <path d="M 154.661719 20.345313 
L 173.783594 20.345313 
L 173.783594 3.2 
L 154.661719 3.2 
z
" style="fill:#d3d3d3;stroke:#d3d3d3;stroke-linejoin:miter;"/>
    </g>
    <!-- 54 -->
    <g style="fill:#2ca02c;opacity:0.5;" transform="translate(158.661719 14.357813)scale(0.1 -0.1)">
     <use xlink:href="#ArialMT-53"/>
     <use x="55.615234" xlink:href="#ArialMT-52"/>
    </g>
   </g>
   <g id="text_102">
    <g id="patch_69">
     <path d="M 256.295052 20.345313 
L 275.416927 20.345313 
L 275.416927 3.2 
L 256.295052 3.2 
z
" style="fill:#d3d3d3;stroke:#d3d3d3;stroke-linejoin:miter;"/>
    </g>
    <!-- 55 -->
    <g style="fill:#2ca02c;opacity:0.5;" transform="translate(260.295052 14.357813)scale(0.1 -0.1)">
     <use xlink:href="#ArialMT-53"/>
     <use x="55.615234" xlink:href="#ArialMT-53"/>
    </g>
   </g>
   <g id="text_103">
    <g id="patch_70">
     <path d="M 357.928385 20.345313 
L 377.05026 20.345313 
L 377.05026 3.2 
L 357.928385 3.2 
z
" style="fill:#d3d3d3;stroke:#d3d3d3;stroke-linejoin:miter;"/>
    </g>
    <!-- 56 -->
    <g style="fill:#2ca02c;opacity:0.5;" transform="translate(361.928385 14.357813)scale(0.1 -0.1)">
     <use xlink:href="#ArialMT-53"/>
     <use x="55.615234" xlink:href="#ArialMT-54"/>
    </g>
   </g>
   <g id="text_104">
    <g id="patch_71">
     <path d="M 459.561719 20.345313 
L 478.683594 20.345313 
L 478.683594 3.2 
L 459.561719 3.2 
z
" style="fill:#d3d3d3;stroke:#d3d3d3;stroke-linejoin:miter;"/>
    </g>
    <!-- 57 -->
    <g style="fill:#2ca02c;opacity:0.5;" transform="translate(463.561719 14.357813)scale(0.1 -0.1)">
     <use xlink:href="#ArialMT-53"/>
     <use x="55.615234" xlink:href="#ArialMT-55"/>
    </g>
   </g>
   <g id="text_105">
    <g id="patch_72">
     <path d="M 561.195052 20.345313 
L 580.316927 20.345313 
L 580.316927 3.2 
L 561.195052 3.2 
z
" style="fill:#d3d3d3;stroke:#d3d3d3;stroke-linejoin:miter;"/>
    </g>
    <!-- 58 -->
    <g style="fill:#2ca02c;opacity:0.5;" transform="translate(565.195052 14.357813)scale(0.1 -0.1)">
     <use xlink:href="#ArialMT-53"/>
     <use x="55.615234" xlink:href="#ArialMT-56"/>
    </g>
   </g>
   <g id="text_106">
    <g id="patch_73">
     <path d="M 662.828385 20.345313 
L 681.95026 20.345313 
L 681.95026 3.2 
L 662.828385 3.2 
z
" style="fill:#d3d3d3;stroke:#d3d3d3;stroke-linejoin:miter;"/>
    </g>
    <!-- 59 -->
    <g style="fill:#2ca02c;opacity:0.5;" transform="translate(666.828385 14.357813)scale(0.1 -0.1)">
     <use xlink:href="#ArialMT-53"/>
     <use x="55.615234" xlink:href="#ArialMT-57"/>
    </g>
   </g>
   <g id="text_107">
    <g id="patch_74">
     <path d="M 764.461719 20.345313 
L 783.583594 20.345313 
L 783.583594 3.2 
L 764.461719 3.2 
z
" style="fill:#d3d3d3;stroke:#d3d3d3;stroke-linejoin:miter;"/>
    </g>
    <!-- 60 -->
    <g style="fill:#2ca02c;opacity:0.5;" transform="translate(768.461719 14.357813)scale(0.1 -0.1)">
     <use xlink:href="#ArialMT-54"/>
     <use x="55.615234" xlink:href="#ArialMT-48"/>
    </g>
   </g>
   <g id="text_108">
    <g id="patch_75">
     <path d="M 866.095052 20.345313 
L 885.216927 20.345313 
L 885.216927 3.2 
L 866.095052 3.2 
z
" style="fill:#d3d3d3;stroke:#d3d3d3;stroke-linejoin:miter;"/>
    </g>
    <!-- 61 -->
    <g style="fill:#2ca02c;opacity:0.5;" transform="translate(870.095052 14.357813)scale(0.1 -0.1)">
     <use xlink:href="#ArialMT-54"/>
     <use x="55.615234" xlink:href="#ArialMT-49"/>
    </g>
   </g>
   <g id="text_109">
    <g id="patch_76">
     <path d="M 967.728385 20.345313 
L 986.85026 20.345313 
L 986.85026 3.2 
L 967.728385 3.2 
z
" style="fill:#d3d3d3;stroke:#d3d3d3;stroke-linejoin:miter;"/>
    </g>
    <!-- 62 -->
    <g style="fill:#2ca02c;opacity:0.5;" transform="translate(971.728385 14.357813)scale(0.1 -0.1)">
     <use xlink:href="#ArialMT-54"/>
     <use x="55.615234" xlink:href="#ArialMT-50"/>
    </g>
   </g>
   <g id="text_110">
    <g id="patch_77">
     <path d="M 53.028385 325.245313 
L 72.15026 325.245313 
L 72.15026 308.1 
L 53.028385 308.1 
z
" style="fill:#d3d3d3;stroke:#d3d3d3;stroke-linejoin:miter;"/>
    </g>
    <!-- 63 -->
    <g style="fill:#d62728;opacity:0.5;" transform="translate(57.028385 319.257812)scale(0.1 -0.1)">
     <use xlink:href="#ArialMT-54"/>
     <use x="55.615234" xlink:href="#ArialMT-51"/>
    </g>
   </g>
   <g id="text_111">
    <g id="patch_78">
     <path d="M 154.661719 325.245313 
L 173.783594 325.245313 
L 173.783594 308.1 
L 154.661719 308.1 
z
" style="fill:#d3d3d3;stroke:#d3d3d3;stroke-linejoin:miter;"/>
    </g>
    <!-- 64 -->
    <g style="fill:#d62728;opacity:0.5;" transform="translate(158.661719 319.257812)scale(0.1 -0.1)">
     <use xlink:href="#ArialMT-54"/>
     <use x="55.615234" xlink:href="#ArialMT-52"/>
    </g>
   </g>
   <g id="text_112">
    <g id="patch_79">
     <path d="M 256.295052 325.245313 
L 275.416927 325.245313 
L 275.416927 308.1 
L 256.295052 308.1 
z
" style="fill:#d3d3d3;stroke:#d3d3d3;stroke-linejoin:miter;"/>
    </g>
    <!-- 65 -->
    <g style="fill:#d62728;opacity:0.5;" transform="translate(260.295052 319.257812)scale(0.1 -0.1)">
     <use xlink:href="#ArialMT-54"/>
     <use x="55.615234" xlink:href="#ArialMT-53"/>
    </g>
   </g>
   <g id="text_113">
    <g id="patch_80">
     <path d="M 357.928385 325.245313 
L 377.05026 325.245313 
L 377.05026 308.1 
L 357.928385 308.1 
z
" style="fill:#d3d3d3;stroke:#d3d3d3;stroke-linejoin:miter;"/>
    </g>
    <!-- 66 -->
    <g style="fill:#d62728;opacity:0.5;" transform="translate(361.928385 319.257812)scale(0.1 -0.1)">
     <use xlink:href="#ArialMT-54"/>
     <use x="55.615234" xlink:href="#ArialMT-54"/>
    </g>
   </g>
   <g id="text_114">
    <g id="patch_81">
     <path d="M 459.561719 325.245313 
L 478.683594 325.245313 
L 478.683594 308.1 
L 459.561719 308.1 
z
" style="fill:#d3d3d3;stroke:#d3d3d3;stroke-linejoin:miter;"/>
    </g>
    <!-- 67 -->
    <g style="fill:#d62728;opacity:0.5;" transform="translate(463.561719 319.257812)scale(0.1 -0.1)">
     <use xlink:href="#ArialMT-54"/>
     <use x="55.615234" xlink:href="#ArialMT-55"/>
    </g>
   </g>
   <g id="text_115">
    <g id="patch_82">
     <path d="M 561.195052 325.245313 
L 580.316927 325.245313 
L 580.316927 308.1 
L 561.195052 308.1 
z
" style="fill:#d3d3d3;stroke:#d3d3d3;stroke-linejoin:miter;"/>
    </g>
    <!-- 68 -->
    <g style="fill:#d62728;opacity:0.5;" transform="translate(565.195052 319.257812)scale(0.1 -0.1)">
     <use xlink:href="#ArialMT-54"/>
     <use x="55.615234" xlink:href="#ArialMT-56"/>
    </g>
   </g>
   <g id="text_116">
    <g id="patch_83">
     <path d="M 662.828385 325.245313 
L 681.95026 325.245313 
L 681.95026 308.1 
L 662.828385 308.1 
z
" style="fill:#d3d3d3;stroke:#d3d3d3;stroke-linejoin:miter;"/>
    </g>
    <!-- 69 -->
    <g style="fill:#d62728;opacity:0.5;" transform="translate(666.828385 319.257812)scale(0.1 -0.1)">
     <use xlink:href="#ArialMT-54"/>
     <use x="55.615234" xlink:href="#ArialMT-57"/>
    </g>
   </g>
   <g id="text_117">
    <g id="patch_84">
     <path d="M 764.461719 325.245313 
L 783.583594 325.245313 
L 783.583594 308.1 
L 764.461719 308.1 
z
" style="fill:#d3d3d3;stroke:#d3d3d3;stroke-linejoin:miter;"/>
    </g>
    <!-- 70 -->
    <g style="fill:#d62728;opacity:0.5;" transform="translate(768.461719 319.257812)scale(0.1 -0.1)">
     <use xlink:href="#ArialMT-55"/>
     <use x="55.615234" xlink:href="#ArialMT-48"/>
    </g>
   </g>
   <g id="text_118">
    <g id="patch_85">
     <path d="M 866.095052 325.245313 
L 885.216927 325.245313 
L 885.216927 308.1 
L 866.095052 308.1 
z
" style="fill:#d3d3d3;stroke:#d3d3d3;stroke-linejoin:miter;"/>
    </g>
    <!-- 71 -->
    <g style="fill:#d62728;opacity:0.5;" transform="translate(870.095052 319.257812)scale(0.1 -0.1)">
     <use xlink:href="#ArialMT-55"/>
     <use x="55.615234" xlink:href="#ArialMT-49"/>
    </g>
   </g>
   <g id="text_119">
    <g id="patch_86">
     <path d="M 967.728385 325.245313 
L 986.85026 325.245313 
L 986.85026 308.1 
L 967.728385 308.1 
z
" style="fill:#d3d3d3;stroke:#d3d3d3;stroke-linejoin:miter;"/>
    </g>
    <!-- 72 -->
    <g style="fill:#d62728;opacity:0.5;" transform="translate(971.728385 319.257812)scale(0.1 -0.1)">
     <use xlink:href="#ArialMT-55"/>
     <use x="55.615234" xlink:href="#ArialMT-50"/>
    </g>
   </g>
   <g id="text_120">
    <!-- $C$ -->
    <g style="fill:#ffffff;" transform="translate(242.129585 186.336561)scale(0.16 -0.16)">
     <defs>
      <path d="M 14.59375 21.578125 
Q 14.59375 15.578125 16.90625 11.015625 
Q 19.234375 6.453125 23.65625 3.875 
Q 28.078125 1.3125 34.078125 1.3125 
Q 40.375 1.3125 46.203125 4.53125 
Q 52.046875 7.765625 56.171875 13.15625 
Q 60.296875 18.5625 61.8125 24.609375 
Q 62.015625 25.203125 62.59375 25.203125 
L 63.8125 25.203125 
Q 64.203125 25.203125 64.453125 24.921875 
Q 64.703125 24.65625 64.703125 24.3125 
Q 64.703125 24.21875 64.59375 24.03125 
Q 62.890625 17.09375 57.984375 11.015625 
Q 53.078125 4.9375 46.234375 1.359375 
Q 39.40625 -2.203125 32.171875 -2.203125 
Q 24.359375 -2.203125 18.15625 1.3125 
Q 11.96875 4.828125 8.515625 11.078125 
Q 5.078125 17.328125 5.078125 25.203125 
Q 5.078125 33.59375 8.828125 41.8125 
Q 12.59375 50.046875 18.9375 56.46875 
Q 25.296875 62.890625 33.421875 66.703125 
Q 41.546875 70.515625 49.90625 70.515625 
Q 53.21875 70.515625 56.25 69.5 
Q 59.28125 68.5 61.859375 66.453125 
Q 64.453125 64.40625 66.109375 61.71875 
L 74.03125 70.3125 
Q 74.03125 70.515625 74.515625 70.515625 
L 75.09375 70.515625 
Q 75.484375 70.515625 75.734375 70.171875 
Q 75.984375 69.828125 75.984375 69.484375 
L 69.1875 42.484375 
Q 69.1875 41.796875 68.40625 41.796875 
L 66.609375 41.796875 
Q 65.828125 41.796875 65.828125 42.921875 
Q 66.21875 45.125 66.21875 48.1875 
Q 66.21875 53.078125 64.546875 57.390625 
Q 62.890625 61.71875 59.390625 64.359375 
Q 55.90625 67 50.875 67 
Q 42.71875 67 35.9375 62.890625 
Q 29.15625 58.796875 24.4375 52.125 
Q 19.734375 45.453125 17.15625 37.328125 
Q 14.59375 29.203125 14.59375 21.578125 
z
" id="Cmmi10-67"/>
     </defs>
     <use transform="translate(0 0.484375)" xlink:href="#Cmmi10-67"/>
    </g>
   </g>
   <g id="text_121">
    <!-- $F_{\mathregular{1}}$ -->
    <g style="fill:#ffffff;" transform="translate(338.362656 168.358906)scale(0.16 -0.16)">
     <defs>
      <path d="M 4.6875 0 
Q 3.71875 0 3.71875 1.3125 
Q 3.765625 1.5625 3.90625 2.171875 
Q 4.046875 2.78125 4.3125 3.140625 
Q 4.59375 3.515625 4.984375 3.515625 
Q 11.078125 3.515625 13.484375 4.203125 
Q 14.796875 4.640625 15.375 6.890625 
L 29.109375 61.8125 
Q 29.296875 62.796875 29.296875 63.1875 
Q 29.296875 64.265625 28.078125 64.40625 
Q 26.21875 64.796875 20.90625 64.796875 
Q 19.921875 64.796875 19.921875 66.109375 
Q 19.96875 66.359375 20.109375 66.96875 
Q 20.265625 67.578125 20.53125 67.9375 
Q 20.796875 68.3125 21.1875 68.3125 
L 74.03125 68.3125 
Q 75 68.3125 75 67 
L 72.609375 46.296875 
Q 72.609375 46 72.265625 45.703125 
Q 71.921875 45.40625 71.578125 45.40625 
L 70.703125 45.40625 
Q 69.671875 45.40625 69.671875 46.6875 
Q 70.3125 51.21875 70.3125 54.109375 
Q 70.3125 59.078125 68.15625 61.421875 
Q 66.015625 63.765625 62.734375 64.28125 
Q 59.46875 64.796875 53.71875 64.796875 
L 43.015625 64.796875 
Q 40.28125 64.796875 39.40625 64.328125 
Q 38.53125 63.875 37.796875 61.375 
L 31.390625 35.890625 
L 38.921875 35.890625 
Q 42.625 35.890625 44.921875 36.28125 
Q 47.21875 36.671875 48.734375 37.796875 
Q 50.25 38.921875 51.25 41.046875 
Q 52.25 43.171875 53.078125 46.6875 
Q 53.375 47.609375 54.109375 47.609375 
L 54.984375 47.609375 
Q 56 47.609375 56 46.296875 
L 49.90625 21.578125 
Q 49.46875 20.703125 48.875 20.703125 
L 48 20.703125 
Q 47.015625 20.703125 47.015625 22.015625 
Q 47.265625 23.046875 47.40625 23.734375 
Q 47.5625 24.421875 47.78125 25.703125 
Q 48 27 48 27.984375 
Q 48 30.859375 45.453125 31.640625 
Q 42.921875 32.421875 38.8125 32.421875 
L 30.609375 32.421875 
L 24.125 6.5 
Q 23.875 5.515625 23.875 5.515625 
Q 23.875 4.34375 24.609375 4.203125 
Q 27.203125 3.515625 34.8125 3.515625 
Q 35.796875 3.515625 35.796875 2.203125 
Q 35.453125 0.78125 35.25 0.390625 
Q 35.0625 0 34.078125 0 
z
" id="Cmmi10-70"/>
     </defs>
     <use transform="translate(0 0.6875)" xlink:href="#Cmmi10-70"/>
     <use transform="translate(64.306641 -16.31875)scale(0.7)" xlink:href="#ArialMT-49"/>
    </g>
   </g>
   <g id="patch_87">
    <path d="M 301.7312 164.222656 
Q 316.673166 164.222656 330.497098 164.222656 
" style="fill:none;stroke:#ff0000;stroke-linecap:round;"/>
    <path d="M 326.497098 162.222656 
L 330.497098 164.222656 
L 326.497098 166.222656 
" style="fill:none;stroke:#ff0000;stroke-linecap:round;"/>
   </g>
   <g id="text_122">
    <!-- $f_{1}$ -->
    <g style="fill:#ffffff;" transform="translate(309.392656 151.283767)scale(0.16 -0.16)">
     <defs>
      <path d="M 9.71875 -16.5 
Q 11.578125 -17.921875 14.203125 -17.921875 
Q 17.78125 -17.921875 20.015625 -10.015625 
Q 20.953125 -6.203125 25.09375 15.09375 
L 29.6875 39.59375 
L 21.09375 39.59375 
Q 20.125 39.59375 20.125 40.921875 
Q 20.515625 43.109375 21.390625 43.109375 
L 30.328125 43.109375 
L 31.5 49.609375 
Q 32.078125 52.640625 32.5625 54.8125 
Q 33.0625 56.984375 33.625 58.828125 
Q 34.1875 60.6875 35.296875 62.984375 
Q 37.015625 66.265625 39.921875 68.390625 
Q 42.828125 70.515625 46.1875 70.515625 
Q 48.390625 70.515625 50.46875 69.703125 
Q 52.546875 68.890625 53.859375 67.28125 
Q 55.171875 65.671875 55.171875 63.484375 
Q 55.171875 60.9375 53.484375 59.046875 
Q 51.8125 57.171875 49.421875 57.171875 
Q 47.796875 57.171875 46.65625 58.171875 
Q 45.515625 59.1875 45.515625 60.796875 
Q 45.515625 62.984375 47 64.625 
Q 48.484375 66.265625 50.6875 66.5 
Q 48.828125 67.921875 46.09375 67.921875 
Q 44.578125 67.921875 43.234375 66.5 
Q 41.890625 65.09375 41.5 63.484375 
Q 40.875 60.9375 38.71875 49.703125 
L 37.5 43.109375 
L 47.796875 43.109375 
Q 48.78125 43.109375 48.78125 41.796875 
Q 48.734375 41.546875 48.578125 40.9375 
Q 48.4375 40.328125 48.171875 39.953125 
Q 47.90625 39.59375 47.515625 39.59375 
L 36.8125 39.59375 
L 32.171875 15.1875 
Q 31.296875 9.859375 30.140625 4.359375 
Q 29 -1.125 26.921875 -6.90625 
Q 24.859375 -12.703125 21.625 -16.609375 
Q 18.40625 -20.515625 14.015625 -20.515625 
Q 10.640625 -20.515625 7.984375 -18.578125 
Q 5.328125 -16.65625 5.328125 -13.484375 
Q 5.328125 -10.9375 6.953125 -9.046875 
Q 8.59375 -7.171875 11.078125 -7.171875 
Q 12.75 -7.171875 13.859375 -8.171875 
Q 14.984375 -9.1875 14.984375 -10.796875 
Q 14.984375 -12.9375 13.390625 -14.71875 
Q 11.8125 -16.5 9.71875 -16.5 
z
" id="Cmmi10-102"/>
      <path d="M 9.28125 0 
L 9.28125 3.515625 
Q 21.78125 3.515625 21.78125 6.6875 
L 21.78125 59.1875 
Q 16.609375 56.6875 8.6875 56.6875 
L 8.6875 60.203125 
Q 20.953125 60.203125 27.203125 66.609375 
L 28.609375 66.609375 
Q 28.953125 66.609375 29.265625 66.328125 
Q 29.59375 66.0625 29.59375 65.71875 
L 29.59375 6.6875 
Q 29.59375 3.515625 42.09375 3.515625 
L 42.09375 0 
z
" id="Cmr10-49"/>
     </defs>
     <use transform="translate(0 0.484375)" xlink:href="#Cmmi10-102"/>
     <use transform="translate(48.876953 -16.521875)scale(0.7)" xlink:href="#Cmr10-49"/>
    </g>
   </g>
   <g id="text_123">
    <!-- $F_{\mathregular{2}}$ -->
    <g style="fill:#ffffff;" transform="translate(257.05599 87.05224)scale(0.16 -0.16)">
     <use transform="translate(0 0.6875)" xlink:href="#Cmmi10-70"/>
     <use transform="translate(64.306641 -16.31875)scale(0.7)" xlink:href="#ArialMT-50"/>
    </g>
   </g>
   <g id="patch_88">
    <path d="M 265.85599 128.347446 
Q 265.85599 113.40548 265.85599 99.581548 
" style="fill:none;stroke:#ff0000;stroke-linecap:round;"/>
    <path d="M 263.85599 103.581548 
L 265.85599 99.581548 
L 267.85599 103.581548 
" style="fill:none;stroke:#ff0000;stroke-linecap:round;"/>
   </g>
   <g id="text_124">
    <!-- $f_{2}$ -->
    <g style="fill:#ffffff;" transform="translate(241.637101 117.40599)scale(0.16 -0.16)">
     <defs>
      <path d="M 4.984375 0 
L 4.984375 2.6875 
Q 4.984375 2.9375 5.171875 3.21875 
L 20.703125 20.40625 
Q 24.21875 24.21875 26.40625 26.796875 
Q 28.609375 29.390625 30.75 32.765625 
Q 32.90625 36.140625 34.15625 39.625 
Q 35.40625 43.109375 35.40625 47.015625 
Q 35.40625 51.125 33.890625 54.859375 
Q 32.375 58.59375 29.375 60.84375 
Q 26.375 63.09375 22.125 63.09375 
Q 17.78125 63.09375 14.3125 60.46875 
Q 10.84375 57.859375 9.421875 53.71875 
Q 9.8125 53.8125 10.5 53.8125 
Q 12.75 53.8125 14.328125 52.296875 
Q 15.921875 50.78125 15.921875 48.390625 
Q 15.921875 46.09375 14.328125 44.5 
Q 12.75 42.921875 10.5 42.921875 
Q 8.15625 42.921875 6.5625 44.546875 
Q 4.984375 46.1875 4.984375 48.390625 
Q 4.984375 52.15625 6.390625 55.4375 
Q 7.8125 58.734375 10.46875 61.296875 
Q 13.140625 63.875 16.484375 65.234375 
Q 19.828125 66.609375 23.578125 66.609375 
Q 29.296875 66.609375 34.21875 64.1875 
Q 39.15625 61.765625 42.03125 57.34375 
Q 44.921875 52.9375 44.921875 47.015625 
Q 44.921875 42.671875 43.015625 38.765625 
Q 41.109375 34.859375 38.125 31.65625 
Q 35.15625 28.46875 30.515625 24.40625 
Q 25.875 20.359375 24.421875 19 
L 13.09375 8.109375 
L 22.703125 8.109375 
Q 29.78125 8.109375 34.546875 8.21875 
Q 39.3125 8.34375 39.59375 8.59375 
Q 40.765625 9.859375 42 17.828125 
L 44.921875 17.828125 
L 42.09375 0 
z
" id="Cmr10-50"/>
     </defs>
     <use transform="translate(0 0.484375)" xlink:href="#Cmmi10-102"/>
     <use transform="translate(48.876953 -16.521875)scale(0.7)" xlink:href="#Cmr10-50"/>
    </g>
   </g>
   <g id="text_125">
    <!-- $F_{\mathregular{3}}$ -->
    <g style="fill:#ffffff;" transform="translate(257.05599 249.665573)scale(0.16 -0.16)">
     <use transform="translate(0 0.6875)" xlink:href="#Cmmi10-70"/>
     <use transform="translate(64.306641 -16.31875)scale(0.7)" xlink:href="#ArialMT-51"/>
    </g>
   </g>
   <g id="patch_89">
    <path d="M 265.85599 229.980779 
Q 265.85599 215.038813 265.85599 201.214881 
" style="fill:none;stroke:#0000ff;stroke-linecap:round;"/>
    <path d="M 263.85599 205.214881 
L 265.85599 201.214881 
L 267.85599 205.214881 
" style="fill:none;stroke:#0000ff;stroke-linecap:round;"/>
   </g>
   <g id="text_126">
    <!-- $f_{3}$ -->
    <g style="fill:#ffffff;" transform="translate(241.637101 219.039323)scale(0.16 -0.16)">
     <defs>
      <path d="M 9.515625 7.71875 
Q 11.859375 4.296875 15.8125 2.640625 
Q 19.78125 0.984375 24.3125 0.984375 
Q 30.125 0.984375 32.5625 5.9375 
Q 35.015625 10.890625 35.015625 17.1875 
Q 35.015625 20.015625 34.5 22.84375 
Q 33.984375 25.6875 32.765625 28.125 
Q 31.546875 30.5625 29.421875 32.03125 
Q 27.296875 33.5 24.21875 33.5 
L 17.578125 33.5 
Q 16.703125 33.5 16.703125 34.421875 
L 16.703125 35.296875 
Q 16.703125 36.078125 17.578125 36.078125 
L 23.09375 36.53125 
Q 26.609375 36.53125 28.921875 39.15625 
Q 31.25 41.796875 32.328125 45.578125 
Q 33.40625 49.359375 33.40625 52.78125 
Q 33.40625 57.5625 31.15625 60.640625 
Q 28.90625 63.71875 24.3125 63.71875 
Q 20.515625 63.71875 17.046875 62.28125 
Q 13.578125 60.84375 11.53125 57.90625 
Q 11.71875 57.953125 11.859375 57.984375 
Q 12.015625 58.015625 12.203125 58.015625 
Q 14.453125 58.015625 15.96875 56.453125 
Q 17.484375 54.890625 17.484375 52.6875 
Q 17.484375 50.53125 15.96875 48.96875 
Q 14.453125 47.40625 12.203125 47.40625 
Q 10.015625 47.40625 8.453125 48.96875 
Q 6.890625 50.53125 6.890625 52.6875 
Q 6.890625 56.984375 9.46875 60.15625 
Q 12.0625 63.328125 16.140625 64.96875 
Q 20.21875 66.609375 24.3125 66.609375 
Q 27.34375 66.609375 30.703125 65.703125 
Q 34.078125 64.796875 36.8125 63.109375 
Q 39.546875 61.421875 41.28125 58.78125 
Q 43.015625 56.15625 43.015625 52.78125 
Q 43.015625 48.578125 41.140625 45.015625 
Q 39.265625 41.453125 35.984375 38.859375 
Q 32.71875 36.28125 28.8125 35.015625 
Q 33.15625 34.1875 37.0625 31.734375 
Q 40.96875 29.296875 43.328125 25.484375 
Q 45.703125 21.6875 45.703125 17.28125 
Q 45.703125 11.765625 42.671875 7.296875 
Q 39.65625 2.828125 34.71875 0.3125 
Q 29.78125 -2.203125 24.3125 -2.203125 
Q 19.625 -2.203125 14.90625 -0.40625 
Q 10.203125 1.375 7.203125 4.9375 
Q 4.203125 8.5 4.203125 13.484375 
Q 4.203125 15.96875 5.859375 17.625 
Q 7.515625 19.28125 10.015625 19.28125 
Q 11.625 19.28125 12.96875 18.53125 
Q 14.3125 17.78125 15.0625 16.40625 
Q 15.828125 15.046875 15.828125 13.484375 
Q 15.828125 11.03125 14.109375 9.375 
Q 12.40625 7.71875 10.015625 7.71875 
z
" id="Cmr10-51"/>
     </defs>
     <use transform="translate(0 0.484375)" xlink:href="#Cmmi10-102"/>
     <use transform="translate(48.876953 -16.521875)scale(0.7)" xlink:href="#Cmr10-51"/>
    </g>
   </g>
   <g id="text_127">
    <!-- $F_{\mathregular{4}}$ -->
    <g style="fill:#ffffff;" transform="translate(175.749323 168.358906)scale(0.16 -0.16)">
     <use transform="translate(0 0.6875)" xlink:href="#Cmmi10-70"/>
     <use transform="translate(64.306641 -16.31875)scale(0.7)" xlink:href="#ArialMT-52"/>
    </g>
   </g>
   <g id="patch_90">
    <path d="M 200.097866 164.222656 
Q 215.039833 164.222656 228.863765 164.222656 
" style="fill:none;stroke:#0000ff;stroke-linecap:round;"/>
    <path d="M 224.863765 162.222656 
L 228.863765 164.222656 
L 224.863765 166.222656 
" style="fill:none;stroke:#0000ff;stroke-linecap:round;"/>
   </g>
   <g id="text_128">
    <!-- $f_{4}$ -->
    <g style="fill:#ffffff;" transform="translate(207.759323 151.283767)scale(0.16 -0.16)">
     <defs>
      <path d="M 2.78125 16.5 
L 2.78125 20.015625 
L 33.6875 66.109375 
Q 34.03125 66.609375 34.71875 66.609375 
L 36.1875 66.609375 
Q 37.3125 66.609375 37.3125 65.484375 
L 37.3125 20.015625 
L 47.125 20.015625 
L 47.125 16.5 
L 37.3125 16.5 
L 37.3125 6.6875 
Q 37.3125 4.640625 40.234375 4.078125 
Q 43.171875 3.515625 47.015625 3.515625 
L 47.015625 0 
L 19.484375 0 
L 19.484375 3.515625 
Q 23.34375 3.515625 26.265625 4.078125 
Q 29.203125 4.640625 29.203125 6.6875 
L 29.203125 16.5 
z
M 6.109375 20.015625 
L 29.78125 20.015625 
L 29.78125 55.421875 
z
" id="Cmr10-52"/>
     </defs>
     <use transform="translate(0 0.484375)" xlink:href="#Cmmi10-102"/>
     <use transform="translate(48.876953 -16.521875)scale(0.7)" xlink:href="#Cmr10-52"/>
    </g>
   </g>
  </g>
 </g>
 <defs>
  <clipPath id="p91482fa49a">
   <rect height="304.9" width="325.226667" x="103.242656" y="11.772656"/>
  </clipPath>
 </defs>
</svg>
