<?xml version="1.0" encoding="utf-8" standalone="no"?>
<!DOCTYPE svg PUBLIC "-//W3C//DTD SVG 1.1//EN"
  "http://www.w3.org/Graphics/SVG/1.1/DTD/svg11.dtd">
<!-- Created with matplotlib (https://matplotlib.org/) -->
<svg height="288pt" version="1.1" viewBox="0 0 432 288" width="432pt" xmlns="http://www.w3.org/2000/svg" xmlns:xlink="http://www.w3.org/1999/xlink">
 <metadata>
  <rdf:RDF xmlns:cc="http://creativecommons.org/ns#" xmlns:dc="http://purl.org/dc/elements/1.1/" xmlns:rdf="http://www.w3.org/1999/02/22-rdf-syntax-ns#">
   <cc:Work>
    <dc:type rdf:resource="http://purl.org/dc/dcmitype/StillImage"/>
    <dc:date>2020-12-01T20:59:05.960057</dc:date>
    <dc:format>image/svg+xml</dc:format>
    <dc:creator>
     <cc:Agent>
      <dc:title>Matplotlib v3.3.2, https://matplotlib.org/</dc:title>
     </cc:Agent>
    </dc:creator>
   </cc:Work>
  </rdf:RDF>
 </metadata>
 <defs>
  <style type="text/css">*{stroke-linecap:butt;stroke-linejoin:round;}</style>
 </defs>
 <g id="figure_1">
  <g id="patch_1">
   <path d="M 0 288 
L 432 288 
L 432 0 
L 0 0 
z
" style="fill:none;"/>
  </g>
  <g id="axes_1">
   <g id="patch_2">
    <path d="M 52.925 248.2 
L 412.8875 248.2 
L 412.8875 14.3 
L 52.925 14.3 
z
" style="fill:#ffffff;"/>
   </g>
   <g id="matplotlib.axis_1">
    <g id="xtick_1">
     <g id="line2d_1">
      <defs>
       <path d="M 0 0 
L 0 3.5 
" id="m5566516084" style="stroke:#000000;stroke-width:0.8;"/>
      </defs>
      <g>
       <use style="stroke:#000000;stroke-width:0.8;" x="52.925" xlink:href="#m5566516084" y="248.2"/>
      </g>
     </g>
     <g id="text_1">
      <!-- −400 -->
      <g transform="translate(41.663281 262.357813)scale(0.1 -0.1)">
       <defs>
        <path d="M 52.828125 31.203125 
L 5.5625 31.203125 
L 5.5625 39.40625 
L 52.828125 39.40625 
z
" id="ArialMT-8722"/>
        <path d="M 32.328125 0 
L 32.328125 17.140625 
L 1.265625 17.140625 
L 1.265625 25.203125 
L 33.9375 71.578125 
L 41.109375 71.578125 
L 41.109375 25.203125 
L 50.78125 25.203125 
L 50.78125 17.140625 
L 41.109375 17.140625 
L 41.109375 0 
z
M 32.328125 25.203125 
L 32.328125 57.46875 
L 9.90625 25.203125 
z
" id="ArialMT-52"/>
        <path d="M 4.15625 35.296875 
Q 4.15625 48 6.765625 55.734375 
Q 9.375 63.484375 14.515625 67.671875 
Q 19.671875 71.875 27.484375 71.875 
Q 33.25 71.875 37.59375 69.546875 
Q 41.9375 67.234375 44.765625 62.859375 
Q 47.609375 58.5 49.21875 52.21875 
Q 50.828125 45.953125 50.828125 35.296875 
Q 50.828125 22.703125 48.234375 14.96875 
Q 45.65625 7.234375 40.5 3 
Q 35.359375 -1.21875 27.484375 -1.21875 
Q 17.140625 -1.21875 11.234375 6.203125 
Q 4.15625 15.140625 4.15625 35.296875 
z
M 13.1875 35.296875 
Q 13.1875 17.671875 17.3125 11.828125 
Q 21.4375 6 27.484375 6 
Q 33.546875 6 37.671875 11.859375 
Q 41.796875 17.71875 41.796875 35.296875 
Q 41.796875 52.984375 37.671875 58.78125 
Q 33.546875 64.59375 27.390625 64.59375 
Q 21.34375 64.59375 17.71875 59.46875 
Q 13.1875 52.9375 13.1875 35.296875 
z
" id="ArialMT-48"/>
       </defs>
       <use xlink:href="#ArialMT-8722"/>
       <use x="58.398438" xlink:href="#ArialMT-52"/>
       <use x="114.013672" xlink:href="#ArialMT-48"/>
       <use x="169.628906" xlink:href="#ArialMT-48"/>
      </g>
     </g>
    </g>
    <g id="xtick_2">
     <g id="line2d_2">
      <g>
       <use style="stroke:#000000;stroke-width:0.8;" x="97.920313" xlink:href="#m5566516084" y="248.2"/>
      </g>
     </g>
     <g id="text_2">
      <!-- −300 -->
      <g transform="translate(86.658594 262.357813)scale(0.1 -0.1)">
       <defs>
        <path d="M 4.203125 18.890625 
L 12.984375 20.0625 
Q 14.5 12.59375 18.140625 9.296875 
Q 21.78125 6 27 6 
Q 33.203125 6 37.46875 10.296875 
Q 41.75 14.59375 41.75 20.953125 
Q 41.75 27 37.796875 30.921875 
Q 33.84375 34.859375 27.734375 34.859375 
Q 25.25 34.859375 21.53125 33.890625 
L 22.515625 41.609375 
Q 23.390625 41.5 23.921875 41.5 
Q 29.546875 41.5 34.03125 44.421875 
Q 38.53125 47.359375 38.53125 53.46875 
Q 38.53125 58.296875 35.25 61.46875 
Q 31.984375 64.65625 26.8125 64.65625 
Q 21.6875 64.65625 18.265625 61.421875 
Q 14.84375 58.203125 13.875 51.765625 
L 5.078125 53.328125 
Q 6.6875 62.15625 12.390625 67.015625 
Q 18.109375 71.875 26.609375 71.875 
Q 32.46875 71.875 37.390625 69.359375 
Q 42.328125 66.84375 44.9375 62.5 
Q 47.5625 58.15625 47.5625 53.265625 
Q 47.5625 48.640625 45.0625 44.828125 
Q 42.578125 41.015625 37.703125 38.765625 
Q 44.046875 37.3125 47.5625 32.6875 
Q 51.078125 28.078125 51.078125 21.140625 
Q 51.078125 11.765625 44.234375 5.25 
Q 37.40625 -1.265625 26.953125 -1.265625 
Q 17.53125 -1.265625 11.296875 4.34375 
Q 5.078125 9.96875 4.203125 18.890625 
z
" id="ArialMT-51"/>
       </defs>
       <use xlink:href="#ArialMT-8722"/>
       <use x="58.398438" xlink:href="#ArialMT-51"/>
       <use x="114.013672" xlink:href="#ArialMT-48"/>
       <use x="169.628906" xlink:href="#ArialMT-48"/>
      </g>
     </g>
    </g>
    <g id="xtick_3">
     <g id="line2d_3">
      <g>
       <use style="stroke:#000000;stroke-width:0.8;" x="142.915625" xlink:href="#m5566516084" y="248.2"/>
      </g>
     </g>
     <g id="text_3">
      <!-- −200 -->
      <g transform="translate(131.653906 262.357813)scale(0.1 -0.1)">
       <defs>
        <path d="M 50.34375 8.453125 
L 50.34375 0 
L 3.03125 0 
Q 2.9375 3.171875 4.046875 6.109375 
Q 5.859375 10.9375 9.828125 15.625 
Q 13.8125 20.3125 21.34375 26.46875 
Q 33.015625 36.03125 37.109375 41.625 
Q 41.21875 47.21875 41.21875 52.203125 
Q 41.21875 57.421875 37.46875 61 
Q 33.734375 64.59375 27.734375 64.59375 
Q 21.390625 64.59375 17.578125 60.78125 
Q 13.765625 56.984375 13.71875 50.25 
L 4.6875 51.171875 
Q 5.609375 61.28125 11.65625 66.578125 
Q 17.71875 71.875 27.9375 71.875 
Q 38.234375 71.875 44.234375 66.15625 
Q 50.25 60.453125 50.25 52 
Q 50.25 47.703125 48.484375 43.546875 
Q 46.734375 39.40625 42.65625 34.8125 
Q 38.578125 30.21875 29.109375 22.21875 
Q 21.1875 15.578125 18.9375 13.203125 
Q 16.703125 10.84375 15.234375 8.453125 
z
" id="ArialMT-50"/>
       </defs>
       <use xlink:href="#ArialMT-8722"/>
       <use x="58.398438" xlink:href="#ArialMT-50"/>
       <use x="114.013672" xlink:href="#ArialMT-48"/>
       <use x="169.628906" xlink:href="#ArialMT-48"/>
      </g>
     </g>
    </g>
    <g id="xtick_4">
     <g id="line2d_4">
      <g>
       <use style="stroke:#000000;stroke-width:0.8;" x="187.910937" xlink:href="#m5566516084" y="248.2"/>
      </g>
     </g>
     <g id="text_4">
      <!-- −100 -->
      <g transform="translate(176.649219 262.357813)scale(0.1 -0.1)">
       <defs>
        <path d="M 37.25 0 
L 28.46875 0 
L 28.46875 56 
Q 25.296875 52.984375 20.140625 49.953125 
Q 14.984375 46.921875 10.890625 45.40625 
L 10.890625 53.90625 
Q 18.265625 57.375 23.78125 62.296875 
Q 29.296875 67.234375 31.59375 71.875 
L 37.25 71.875 
z
" id="ArialMT-49"/>
       </defs>
       <use xlink:href="#ArialMT-8722"/>
       <use x="58.398438" xlink:href="#ArialMT-49"/>
       <use x="114.013672" xlink:href="#ArialMT-48"/>
       <use x="169.628906" xlink:href="#ArialMT-48"/>
      </g>
     </g>
    </g>
    <g id="xtick_5">
     <g id="line2d_5">
      <g>
       <use style="stroke:#000000;stroke-width:0.8;" x="232.90625" xlink:href="#m5566516084" y="248.2"/>
      </g>
     </g>
     <g id="text_5">
      <!-- 0 -->
      <g transform="translate(230.125781 262.357813)scale(0.1 -0.1)">
       <use xlink:href="#ArialMT-48"/>
      </g>
     </g>
    </g>
    <g id="xtick_6">
     <g id="line2d_6">
      <g>
       <use style="stroke:#000000;stroke-width:0.8;" x="277.901563" xlink:href="#m5566516084" y="248.2"/>
      </g>
     </g>
     <g id="text_6">
      <!-- 100 -->
      <g transform="translate(269.560156 262.357813)scale(0.1 -0.1)">
       <use xlink:href="#ArialMT-49"/>
       <use x="55.615234" xlink:href="#ArialMT-48"/>
       <use x="111.230469" xlink:href="#ArialMT-48"/>
      </g>
     </g>
    </g>
    <g id="xtick_7">
     <g id="line2d_7">
      <g>
       <use style="stroke:#000000;stroke-width:0.8;" x="322.896875" xlink:href="#m5566516084" y="248.2"/>
      </g>
     </g>
     <g id="text_7">
      <!-- 200 -->
      <g transform="translate(314.555469 262.357813)scale(0.1 -0.1)">
       <use xlink:href="#ArialMT-50"/>
       <use x="55.615234" xlink:href="#ArialMT-48"/>
       <use x="111.230469" xlink:href="#ArialMT-48"/>
      </g>
     </g>
    </g>
    <g id="xtick_8">
     <g id="line2d_8">
      <g>
       <use style="stroke:#000000;stroke-width:0.8;" x="367.892187" xlink:href="#m5566516084" y="248.2"/>
      </g>
     </g>
     <g id="text_8">
      <!-- 300 -->
      <g transform="translate(359.550781 262.357813)scale(0.1 -0.1)">
       <use xlink:href="#ArialMT-51"/>
       <use x="55.615234" xlink:href="#ArialMT-48"/>
       <use x="111.230469" xlink:href="#ArialMT-48"/>
      </g>
     </g>
    </g>
    <g id="xtick_9">
     <g id="line2d_9">
      <g>
       <use style="stroke:#000000;stroke-width:0.8;" x="412.8875" xlink:href="#m5566516084" y="248.2"/>
      </g>
     </g>
     <g id="text_9">
      <!-- 400 -->
      <g transform="translate(404.546094 262.357813)scale(0.1 -0.1)">
       <use xlink:href="#ArialMT-52"/>
       <use x="55.615234" xlink:href="#ArialMT-48"/>
       <use x="111.230469" xlink:href="#ArialMT-48"/>
      </g>
     </g>
    </g>
    <g id="text_10">
     <!-- x (m) -->
     <g transform="translate(221.522656 275.625)scale(0.1 -0.1)">
      <defs>
       <path d="M 0.734375 0 
L 19.671875 26.953125 
L 2.15625 51.859375 
L 13.140625 51.859375 
L 21.09375 39.703125 
Q 23.34375 36.234375 24.703125 33.890625 
Q 26.859375 37.109375 28.65625 39.59375 
L 37.40625 51.859375 
L 47.90625 51.859375 
L 29.984375 27.4375 
L 49.265625 0 
L 38.484375 0 
L 27.828125 16.109375 
L 25 20.453125 
L 11.375 0 
z
" id="ArialMT-120"/>
       <path id="ArialMT-32"/>
       <path d="M 23.390625 -21.046875 
Q 16.109375 -11.859375 11.078125 0.4375 
Q 6.0625 12.75 6.0625 25.921875 
Q 6.0625 37.546875 9.8125 48.1875 
Q 14.203125 60.546875 23.390625 72.796875 
L 29.6875 72.796875 
Q 23.78125 62.640625 21.875 58.296875 
Q 18.890625 51.5625 17.1875 44.234375 
Q 15.09375 35.109375 15.09375 25.875 
Q 15.09375 2.390625 29.6875 -21.046875 
z
" id="ArialMT-40"/>
       <path d="M 6.59375 0 
L 6.59375 51.859375 
L 14.453125 51.859375 
L 14.453125 44.578125 
Q 16.890625 48.390625 20.9375 50.703125 
Q 25 53.03125 30.171875 53.03125 
Q 35.9375 53.03125 39.625 50.640625 
Q 43.3125 48.25 44.828125 43.953125 
Q 50.984375 53.03125 60.84375 53.03125 
Q 68.5625 53.03125 72.703125 48.75 
Q 76.859375 44.484375 76.859375 35.59375 
L 76.859375 0 
L 68.109375 0 
L 68.109375 32.671875 
Q 68.109375 37.9375 67.25 40.25 
Q 66.40625 42.578125 64.15625 43.984375 
Q 61.921875 45.40625 58.890625 45.40625 
Q 53.421875 45.40625 49.796875 41.765625 
Q 46.1875 38.140625 46.1875 30.125 
L 46.1875 0 
L 37.40625 0 
L 37.40625 33.6875 
Q 37.40625 39.546875 35.25 42.46875 
Q 33.109375 45.40625 28.21875 45.40625 
Q 24.515625 45.40625 21.359375 43.453125 
Q 18.21875 41.5 16.796875 37.734375 
Q 15.375 33.984375 15.375 26.90625 
L 15.375 0 
z
" id="ArialMT-109"/>
       <path d="M 12.359375 -21.046875 
L 6.0625 -21.046875 
Q 20.65625 2.390625 20.65625 25.875 
Q 20.65625 35.0625 18.5625 44.09375 
Q 16.890625 51.421875 13.921875 58.15625 
Q 12.015625 62.546875 6.0625 72.796875 
L 12.359375 72.796875 
Q 21.53125 60.546875 25.921875 48.1875 
Q 29.6875 37.546875 29.6875 25.921875 
Q 29.6875 12.75 24.625 0.4375 
Q 19.578125 -11.859375 12.359375 -21.046875 
z
" id="ArialMT-41"/>
      </defs>
      <use xlink:href="#ArialMT-120"/>
      <use x="50" xlink:href="#ArialMT-32"/>
      <use x="77.783203" xlink:href="#ArialMT-40"/>
      <use x="111.083984" xlink:href="#ArialMT-109"/>
      <use x="194.384766" xlink:href="#ArialMT-41"/>
     </g>
    </g>
   </g>
   <g id="matplotlib.axis_2">
    <g id="ytick_1">
     <g id="line2d_10">
      <defs>
       <path d="M 0 0 
L -3.5 0 
" id="mf0045fdd77" style="stroke:#000000;stroke-width:0.8;"/>
      </defs>
      <g>
       <use style="stroke:#000000;stroke-width:0.8;" x="52.925" xlink:href="#mf0045fdd77" y="14.3"/>
      </g>
     </g>
     <g id="text_11">
      <!-- 0 -->
      <g transform="translate(40.364063 17.878906)scale(0.1 -0.1)">
       <use xlink:href="#ArialMT-48"/>
      </g>
     </g>
    </g>
    <g id="ytick_2">
     <g id="line2d_11">
      <g>
       <use style="stroke:#000000;stroke-width:0.8;" x="52.925" xlink:href="#mf0045fdd77" y="61.08"/>
      </g>
     </g>
     <g id="text_12">
      <!-- 200 -->
      <g transform="translate(29.242188 64.658906)scale(0.1 -0.1)">
       <use xlink:href="#ArialMT-50"/>
       <use x="55.615234" xlink:href="#ArialMT-48"/>
       <use x="111.230469" xlink:href="#ArialMT-48"/>
      </g>
     </g>
    </g>
    <g id="ytick_3">
     <g id="line2d_12">
      <g>
       <use style="stroke:#000000;stroke-width:0.8;" x="52.925" xlink:href="#mf0045fdd77" y="107.86"/>
      </g>
     </g>
     <g id="text_13">
      <!-- 400 -->
      <g transform="translate(29.242188 111.438906)scale(0.1 -0.1)">
       <use xlink:href="#ArialMT-52"/>
       <use x="55.615234" xlink:href="#ArialMT-48"/>
       <use x="111.230469" xlink:href="#ArialMT-48"/>
      </g>
     </g>
    </g>
    <g id="ytick_4">
     <g id="line2d_13">
      <g>
       <use style="stroke:#000000;stroke-width:0.8;" x="52.925" xlink:href="#mf0045fdd77" y="154.64"/>
      </g>
     </g>
     <g id="text_14">
      <!-- 600 -->
      <g transform="translate(29.242188 158.218906)scale(0.1 -0.1)">
       <defs>
        <path d="M 49.75 54.046875 
L 41.015625 53.375 
Q 39.84375 58.546875 37.703125 60.890625 
Q 34.125 64.65625 28.90625 64.65625 
Q 24.703125 64.65625 21.53125 62.3125 
Q 17.390625 59.28125 14.984375 53.46875 
Q 12.59375 47.65625 12.5 36.921875 
Q 15.671875 41.75 20.265625 44.09375 
Q 24.859375 46.4375 29.890625 46.4375 
Q 38.671875 46.4375 44.84375 39.96875 
Q 51.03125 33.5 51.03125 23.25 
Q 51.03125 16.5 48.125 10.71875 
Q 45.21875 4.9375 40.140625 1.859375 
Q 35.0625 -1.21875 28.609375 -1.21875 
Q 17.625 -1.21875 10.6875 6.859375 
Q 3.765625 14.9375 3.765625 33.5 
Q 3.765625 54.25 11.421875 63.671875 
Q 18.109375 71.875 29.4375 71.875 
Q 37.890625 71.875 43.28125 67.140625 
Q 48.6875 62.40625 49.75 54.046875 
z
M 13.875 23.1875 
Q 13.875 18.65625 15.796875 14.5 
Q 17.71875 10.359375 21.1875 8.171875 
Q 24.65625 6 28.46875 6 
Q 34.03125 6 38.03125 10.484375 
Q 42.046875 14.984375 42.046875 22.703125 
Q 42.046875 30.125 38.078125 34.390625 
Q 34.125 38.671875 28.125 38.671875 
Q 22.171875 38.671875 18.015625 34.390625 
Q 13.875 30.125 13.875 23.1875 
z
" id="ArialMT-54"/>
       </defs>
       <use xlink:href="#ArialMT-54"/>
       <use x="55.615234" xlink:href="#ArialMT-48"/>
       <use x="111.230469" xlink:href="#ArialMT-48"/>
      </g>
     </g>
    </g>
    <g id="ytick_5">
     <g id="line2d_14">
      <g>
       <use style="stroke:#000000;stroke-width:0.8;" x="52.925" xlink:href="#mf0045fdd77" y="201.42"/>
      </g>
     </g>
     <g id="text_15">
      <!-- 800 -->
      <g transform="translate(29.242188 204.998906)scale(0.1 -0.1)">
       <defs>
        <path d="M 17.671875 38.8125 
Q 12.203125 40.828125 9.5625 44.53125 
Q 6.9375 48.25 6.9375 53.421875 
Q 6.9375 61.234375 12.546875 66.546875 
Q 18.171875 71.875 27.484375 71.875 
Q 36.859375 71.875 42.578125 66.421875 
Q 48.296875 60.984375 48.296875 53.171875 
Q 48.296875 48.1875 45.671875 44.5 
Q 43.0625 40.828125 37.75 38.8125 
Q 44.34375 36.671875 47.78125 31.875 
Q 51.21875 27.09375 51.21875 20.453125 
Q 51.21875 11.28125 44.71875 5.03125 
Q 38.234375 -1.21875 27.640625 -1.21875 
Q 17.046875 -1.21875 10.546875 5.046875 
Q 4.046875 11.328125 4.046875 20.703125 
Q 4.046875 27.6875 7.59375 32.390625 
Q 11.140625 37.109375 17.671875 38.8125 
z
M 15.921875 53.71875 
Q 15.921875 48.640625 19.1875 45.40625 
Q 22.46875 42.1875 27.6875 42.1875 
Q 32.765625 42.1875 36.015625 45.375 
Q 39.265625 48.578125 39.265625 53.21875 
Q 39.265625 58.0625 35.90625 61.359375 
Q 32.5625 64.65625 27.59375 64.65625 
Q 22.5625 64.65625 19.234375 61.421875 
Q 15.921875 58.203125 15.921875 53.71875 
z
M 13.09375 20.65625 
Q 13.09375 16.890625 14.875 13.375 
Q 16.65625 9.859375 20.171875 7.921875 
Q 23.6875 6 27.734375 6 
Q 34.03125 6 38.125 10.046875 
Q 42.234375 14.109375 42.234375 20.359375 
Q 42.234375 26.703125 38.015625 30.859375 
Q 33.796875 35.015625 27.4375 35.015625 
Q 21.234375 35.015625 17.15625 30.90625 
Q 13.09375 26.8125 13.09375 20.65625 
z
" id="ArialMT-56"/>
       </defs>
       <use xlink:href="#ArialMT-56"/>
       <use x="55.615234" xlink:href="#ArialMT-48"/>
       <use x="111.230469" xlink:href="#ArialMT-48"/>
      </g>
     </g>
    </g>
    <g id="ytick_6">
     <g id="line2d_15">
      <g>
       <use style="stroke:#000000;stroke-width:0.8;" x="52.925" xlink:href="#mf0045fdd77" y="248.2"/>
      </g>
     </g>
     <g id="text_16">
      <!-- 1000 -->
      <g transform="translate(23.68125 251.778906)scale(0.1 -0.1)">
       <use xlink:href="#ArialMT-49"/>
       <use x="55.615234" xlink:href="#ArialMT-48"/>
       <use x="111.230469" xlink:href="#ArialMT-48"/>
       <use x="166.845703" xlink:href="#ArialMT-48"/>
      </g>
     </g>
    </g>
    <g id="text_17">
     <!-- Depth below seafloor (m) -->
     <g transform="translate(17.576563 187.103125)rotate(-90)scale(0.1 -0.1)">
      <defs>
       <path d="M 7.71875 0 
L 7.71875 71.578125 
L 32.375 71.578125 
Q 40.71875 71.578125 45.125 70.5625 
Q 51.265625 69.140625 55.609375 65.4375 
Q 61.28125 60.640625 64.078125 53.1875 
Q 66.890625 45.75 66.890625 36.1875 
Q 66.890625 28.03125 64.984375 21.734375 
Q 63.09375 15.4375 60.109375 11.296875 
Q 57.125 7.171875 53.578125 4.796875 
Q 50.046875 2.4375 45.046875 1.21875 
Q 40.046875 0 33.546875 0 
z
M 17.1875 8.453125 
L 32.46875 8.453125 
Q 39.546875 8.453125 43.578125 9.765625 
Q 47.609375 11.078125 50 13.484375 
Q 53.375 16.84375 55.25 22.53125 
Q 57.125 28.21875 57.125 36.328125 
Q 57.125 47.5625 53.4375 53.59375 
Q 49.75 59.625 44.484375 61.671875 
Q 40.671875 63.140625 32.234375 63.140625 
L 17.1875 63.140625 
z
" id="ArialMT-68"/>
       <path d="M 42.09375 16.703125 
L 51.171875 15.578125 
Q 49.03125 7.625 43.21875 3.21875 
Q 37.40625 -1.171875 28.375 -1.171875 
Q 17 -1.171875 10.328125 5.828125 
Q 3.65625 12.84375 3.65625 25.484375 
Q 3.65625 38.578125 10.390625 45.796875 
Q 17.140625 53.03125 27.875 53.03125 
Q 38.28125 53.03125 44.875 45.953125 
Q 51.46875 38.875 51.46875 26.03125 
Q 51.46875 25.25 51.421875 23.6875 
L 12.75 23.6875 
Q 13.234375 15.140625 17.578125 10.59375 
Q 21.921875 6.0625 28.421875 6.0625 
Q 33.25 6.0625 36.671875 8.59375 
Q 40.09375 11.140625 42.09375 16.703125 
z
M 13.234375 30.90625 
L 42.1875 30.90625 
Q 41.609375 37.453125 38.875 40.71875 
Q 34.671875 45.796875 27.984375 45.796875 
Q 21.921875 45.796875 17.796875 41.75 
Q 13.671875 37.703125 13.234375 30.90625 
z
" id="ArialMT-101"/>
       <path d="M 6.59375 -19.875 
L 6.59375 51.859375 
L 14.59375 51.859375 
L 14.59375 45.125 
Q 17.4375 49.078125 21 51.046875 
Q 24.5625 53.03125 29.640625 53.03125 
Q 36.28125 53.03125 41.359375 49.609375 
Q 46.4375 46.1875 49.015625 39.953125 
Q 51.609375 33.734375 51.609375 26.3125 
Q 51.609375 18.359375 48.75 11.984375 
Q 45.90625 5.609375 40.453125 2.21875 
Q 35.015625 -1.171875 29 -1.171875 
Q 24.609375 -1.171875 21.109375 0.6875 
Q 17.625 2.546875 15.375 5.375 
L 15.375 -19.875 
z
M 14.546875 25.640625 
Q 14.546875 15.625 18.59375 10.84375 
Q 22.65625 6.0625 28.421875 6.0625 
Q 34.28125 6.0625 38.453125 11.015625 
Q 42.625 15.96875 42.625 26.375 
Q 42.625 36.28125 38.546875 41.203125 
Q 34.46875 46.140625 28.8125 46.140625 
Q 23.1875 46.140625 18.859375 40.890625 
Q 14.546875 35.640625 14.546875 25.640625 
z
" id="ArialMT-112"/>
       <path d="M 25.78125 7.859375 
L 27.046875 0.09375 
Q 23.34375 -0.6875 20.40625 -0.6875 
Q 15.625 -0.6875 12.984375 0.828125 
Q 10.359375 2.34375 9.28125 4.8125 
Q 8.203125 7.28125 8.203125 15.1875 
L 8.203125 45.015625 
L 1.765625 45.015625 
L 1.765625 51.859375 
L 8.203125 51.859375 
L 8.203125 64.703125 
L 16.9375 69.96875 
L 16.9375 51.859375 
L 25.78125 51.859375 
L 25.78125 45.015625 
L 16.9375 45.015625 
L 16.9375 14.703125 
Q 16.9375 10.9375 17.40625 9.859375 
Q 17.875 8.796875 18.921875 8.15625 
Q 19.96875 7.515625 21.921875 7.515625 
Q 23.390625 7.515625 25.78125 7.859375 
z
" id="ArialMT-116"/>
       <path d="M 6.59375 0 
L 6.59375 71.578125 
L 15.375 71.578125 
L 15.375 45.90625 
Q 21.53125 53.03125 30.90625 53.03125 
Q 36.671875 53.03125 40.921875 50.75 
Q 45.171875 48.484375 47 44.484375 
Q 48.828125 40.484375 48.828125 32.859375 
L 48.828125 0 
L 40.046875 0 
L 40.046875 32.859375 
Q 40.046875 39.453125 37.1875 42.453125 
Q 34.328125 45.453125 29.109375 45.453125 
Q 25.203125 45.453125 21.75 43.421875 
Q 18.3125 41.40625 16.84375 37.9375 
Q 15.375 34.46875 15.375 28.375 
L 15.375 0 
z
" id="ArialMT-104"/>
       <path d="M 14.703125 0 
L 6.546875 0 
L 6.546875 71.578125 
L 15.328125 71.578125 
L 15.328125 46.046875 
Q 20.90625 53.03125 29.546875 53.03125 
Q 34.328125 53.03125 38.59375 51.09375 
Q 42.875 49.171875 45.625 45.671875 
Q 48.390625 42.1875 49.953125 37.25 
Q 51.515625 32.328125 51.515625 26.703125 
Q 51.515625 13.375 44.921875 6.09375 
Q 38.328125 -1.171875 29.109375 -1.171875 
Q 19.921875 -1.171875 14.703125 6.5 
z
M 14.59375 26.3125 
Q 14.59375 17 17.140625 12.84375 
Q 21.296875 6.0625 28.375 6.0625 
Q 34.125 6.0625 38.328125 11.0625 
Q 42.53125 16.0625 42.53125 25.984375 
Q 42.53125 36.140625 38.5 40.96875 
Q 34.46875 45.796875 28.765625 45.796875 
Q 23 45.796875 18.796875 40.796875 
Q 14.59375 35.796875 14.59375 26.3125 
z
" id="ArialMT-98"/>
       <path d="M 6.390625 0 
L 6.390625 71.578125 
L 15.1875 71.578125 
L 15.1875 0 
z
" id="ArialMT-108"/>
       <path d="M 3.328125 25.921875 
Q 3.328125 40.328125 11.328125 47.265625 
Q 18.015625 53.03125 27.640625 53.03125 
Q 38.328125 53.03125 45.109375 46.015625 
Q 51.90625 39.015625 51.90625 26.65625 
Q 51.90625 16.65625 48.90625 10.90625 
Q 45.90625 5.171875 40.15625 2 
Q 34.421875 -1.171875 27.640625 -1.171875 
Q 16.75 -1.171875 10.03125 5.8125 
Q 3.328125 12.796875 3.328125 25.921875 
z
M 12.359375 25.921875 
Q 12.359375 15.96875 16.703125 11.015625 
Q 21.046875 6.0625 27.640625 6.0625 
Q 34.1875 6.0625 38.53125 11.03125 
Q 42.875 16.015625 42.875 26.21875 
Q 42.875 35.84375 38.5 40.796875 
Q 34.125 45.75 27.640625 45.75 
Q 21.046875 45.75 16.703125 40.8125 
Q 12.359375 35.890625 12.359375 25.921875 
z
" id="ArialMT-111"/>
       <path d="M 16.15625 0 
L 0.296875 51.859375 
L 9.375 51.859375 
L 17.625 21.921875 
L 20.703125 10.796875 
Q 20.90625 11.625 23.390625 21.484375 
L 31.640625 51.859375 
L 40.671875 51.859375 
L 48.4375 21.78125 
L 51.03125 11.859375 
L 54 21.875 
L 62.890625 51.859375 
L 71.4375 51.859375 
L 55.21875 0 
L 46.09375 0 
L 37.84375 31.0625 
L 35.84375 39.890625 
L 25.34375 0 
z
" id="ArialMT-119"/>
       <path d="M 3.078125 15.484375 
L 11.765625 16.84375 
Q 12.5 11.625 15.84375 8.84375 
Q 19.1875 6.0625 25.203125 6.0625 
Q 31.25 6.0625 34.171875 8.515625 
Q 37.109375 10.984375 37.109375 14.3125 
Q 37.109375 17.28125 34.515625 19 
Q 32.71875 20.171875 25.53125 21.96875 
Q 15.875 24.421875 12.140625 26.203125 
Q 8.40625 27.984375 6.46875 31.125 
Q 4.546875 34.28125 4.546875 38.09375 
Q 4.546875 41.546875 6.125 44.5 
Q 7.71875 47.46875 10.453125 49.421875 
Q 12.5 50.921875 16.03125 51.96875 
Q 19.578125 53.03125 23.640625 53.03125 
Q 29.734375 53.03125 34.34375 51.265625 
Q 38.96875 49.515625 41.15625 46.5 
Q 43.359375 43.5 44.1875 38.484375 
L 35.59375 37.3125 
Q 35.015625 41.3125 32.203125 43.546875 
Q 29.390625 45.796875 24.265625 45.796875 
Q 18.21875 45.796875 15.625 43.796875 
Q 13.03125 41.796875 13.03125 39.109375 
Q 13.03125 37.40625 14.109375 36.03125 
Q 15.1875 34.625 17.484375 33.6875 
Q 18.796875 33.203125 25.25 31.453125 
Q 34.578125 28.953125 38.25 27.359375 
Q 41.9375 25.78125 44.03125 22.75 
Q 46.140625 19.734375 46.140625 15.234375 
Q 46.140625 10.84375 43.578125 6.953125 
Q 41.015625 3.078125 36.171875 0.953125 
Q 31.34375 -1.171875 25.25 -1.171875 
Q 15.140625 -1.171875 9.84375 3.03125 
Q 4.546875 7.234375 3.078125 15.484375 
z
" id="ArialMT-115"/>
       <path d="M 40.4375 6.390625 
Q 35.546875 2.25 31.03125 0.53125 
Q 26.515625 -1.171875 21.34375 -1.171875 
Q 12.796875 -1.171875 8.203125 3 
Q 3.609375 7.171875 3.609375 13.671875 
Q 3.609375 17.484375 5.34375 20.625 
Q 7.078125 23.78125 9.890625 25.6875 
Q 12.703125 27.59375 16.21875 28.5625 
Q 18.796875 29.25 24.03125 29.890625 
Q 34.671875 31.15625 39.703125 32.90625 
Q 39.75 34.71875 39.75 35.203125 
Q 39.75 40.578125 37.25 42.78125 
Q 33.890625 45.75 27.25 45.75 
Q 21.046875 45.75 18.09375 43.578125 
Q 15.140625 41.40625 13.71875 35.890625 
L 5.125 37.0625 
Q 6.296875 42.578125 8.984375 45.96875 
Q 11.671875 49.359375 16.75 51.1875 
Q 21.828125 53.03125 28.515625 53.03125 
Q 35.15625 53.03125 39.296875 51.46875 
Q 43.453125 49.90625 45.40625 47.53125 
Q 47.359375 45.171875 48.140625 41.546875 
Q 48.578125 39.3125 48.578125 33.453125 
L 48.578125 21.734375 
Q 48.578125 9.46875 49.140625 6.21875 
Q 49.703125 2.984375 51.375 0 
L 42.1875 0 
Q 40.828125 2.734375 40.4375 6.390625 
z
M 39.703125 26.03125 
Q 34.90625 24.078125 25.34375 22.703125 
Q 19.921875 21.921875 17.671875 20.9375 
Q 15.4375 19.96875 14.203125 18.09375 
Q 12.984375 16.21875 12.984375 13.921875 
Q 12.984375 10.40625 15.640625 8.0625 
Q 18.3125 5.71875 23.4375 5.71875 
Q 28.515625 5.71875 32.46875 7.9375 
Q 36.421875 10.15625 38.28125 14.015625 
Q 39.703125 17 39.703125 22.796875 
z
" id="ArialMT-97"/>
       <path d="M 8.6875 0 
L 8.6875 45.015625 
L 0.921875 45.015625 
L 0.921875 51.859375 
L 8.6875 51.859375 
L 8.6875 57.375 
Q 8.6875 62.59375 9.625 65.140625 
Q 10.890625 68.5625 14.078125 70.671875 
Q 17.28125 72.796875 23.046875 72.796875 
Q 26.765625 72.796875 31.25 71.921875 
L 29.9375 64.265625 
Q 27.203125 64.75 24.75 64.75 
Q 20.75 64.75 19.09375 63.03125 
Q 17.4375 61.328125 17.4375 56.640625 
L 17.4375 51.859375 
L 27.546875 51.859375 
L 27.546875 45.015625 
L 17.4375 45.015625 
L 17.4375 0 
z
" id="ArialMT-102"/>
       <path d="M 6.5 0 
L 6.5 51.859375 
L 14.40625 51.859375 
L 14.40625 44 
Q 17.4375 49.515625 20 51.265625 
Q 22.5625 53.03125 25.640625 53.03125 
Q 30.078125 53.03125 34.671875 50.203125 
L 31.640625 42.046875 
Q 28.421875 43.953125 25.203125 43.953125 
Q 22.3125 43.953125 20.015625 42.21875 
Q 17.71875 40.484375 16.75 37.40625 
Q 15.28125 32.71875 15.28125 27.15625 
L 15.28125 0 
z
" id="ArialMT-114"/>
      </defs>
      <use xlink:href="#ArialMT-68"/>
      <use x="72.216797" xlink:href="#ArialMT-101"/>
      <use x="127.832031" xlink:href="#ArialMT-112"/>
      <use x="183.447266" xlink:href="#ArialMT-116"/>
      <use x="211.230469" xlink:href="#ArialMT-104"/>
      <use x="266.845703" xlink:href="#ArialMT-32"/>
      <use x="294.628906" xlink:href="#ArialMT-98"/>
      <use x="350.244141" xlink:href="#ArialMT-101"/>
      <use x="405.859375" xlink:href="#ArialMT-108"/>
      <use x="428.076172" xlink:href="#ArialMT-111"/>
      <use x="483.691406" xlink:href="#ArialMT-119"/>
      <use x="555.908203" xlink:href="#ArialMT-32"/>
      <use x="583.691406" xlink:href="#ArialMT-115"/>
      <use x="633.691406" xlink:href="#ArialMT-101"/>
      <use x="689.306641" xlink:href="#ArialMT-97"/>
      <use x="744.921875" xlink:href="#ArialMT-102"/>
      <use x="772.705078" xlink:href="#ArialMT-108"/>
      <use x="794.921875" xlink:href="#ArialMT-111"/>
      <use x="850.537109" xlink:href="#ArialMT-111"/>
      <use x="906.152344" xlink:href="#ArialMT-114"/>
      <use x="939.453125" xlink:href="#ArialMT-32"/>
      <use x="967.236328" xlink:href="#ArialMT-40"/>
      <use x="1000.537109" xlink:href="#ArialMT-109"/>
      <use x="1083.837891" xlink:href="#ArialMT-41"/>
     </g>
    </g>
   </g>
   <g id="LineCollection_1">
    <path clip-path="url(#pf258c04aea)" d="M 118.69726 248.2 
L 124.9175 247.476937 
L 126.49151 247.38178 
L 131.311732 246.845926 
L 137.191066 246.497808 
L 143.744001 245.861 
L 147.415156 245.25863 
L 148.794173 245.144143 
L 153.888018 244.5478 
L 159.619021 244.195042 
L 166.119037 243.522 
L 169.912813 242.880362 
L 172.415536 242.483996 
L 184.07842 241.529735 
L 187.910937 241.13018 
L 190.902283 240.398997 
L 192.410469 240.212593 
L 197.19811 238.844 
L 198.644735 237.40677 
L 199.819305 236.505 
L 200.251818 234.166 
L 199.551787 231.827 
L 198.812218 230.476833 
L 198.437435 229.488 
L 196.70656 227.043245 
L 195.061246 224.81 
L 194.72295 223.607898 
L 192.857426 222.471 
L 193.006528 222.161149 
L 192.410469 221.939099 
L 191.01521 220.132 
L 190.804525 218.627821 
L 188.987766 217.793 
L 187.910937 216.495703 
L 187.60653 215.612241 
L 187.374242 215.454 
L 186.930705 214.944444 
L 186.603814 213.115 
L 187.048013 211.224576 
L 186.45885 210.776 
L 185.952323 209.75785 
L 187.910937 209.232938 
L 188.27699 210.585714 
L 189.5853 211.646387 
L 190.185897 213.115 
L 189.756923 214.494398 
L 192.410469 214.06952 
L 193.270881 215.454 
L 195.916339 217.276463 
L 196.325529 217.793 
L 196.209653 218.157063 
L 196.91 217.997163 
L 199.749878 220.132 
L 200.074006 220.826249 
L 201.409531 220.809455 
L 202.687337 221.806756 
L 204.365379 222.471 
L 204.918622 222.985863 
L 205.909063 223.119019 
L 207.398574 224.035704 
L 208.970961 224.81 
L 209.563849 225.249125 
L 210.408594 225.500469 
L 217.923345 229.488 
L 223.907187 232.507216 
L 228.406719 234.365622 
L 229.095823 234.524218 
L 235.926695 235.736124 
L 252.695799 237.436239 
L 257.473501 237.768159 
L 268.9025 239.402085 
L 273.402031 239.850386 
L 277.901563 240.337601 
L 279.257632 240.478072 
L 282.729092 241.183 
L 295.899687 242.542377 
L 301.834256 243.522 
L 309.398281 244.251048 
L 313.897812 244.578147 
L 318.397344 245.06024 
L 319.689366 245.189366 
L 323.093433 245.861 
L 331.895938 246.662568 
L 334.59841 246.795168 
L 340.895 247.438503 
L 342.190712 247.526448 
L 347.11524 248.2 
L 347.11524 248.2 
" style="fill:none;stroke:#27dade;stroke-width:0.3;"/>
   </g>
   <g id="LineCollection_2">
    <path clip-path="url(#pf258c04aea)" d="M 131.060119 248.2 
L 133.404226 247.933671 
L 133.916562 247.910161 
L 134.560615 247.865201 
L 138.416094 247.487122 
L 141.037243 247.223557 
L 142.915625 247.045107 
L 145.680413 246.762775 
L 147.415156 246.586365 
L 148.579712 246.466373 
L 151.914688 246.164725 
L 152.403408 246.115052 
L 156.414219 245.873381 
L 156.43436 245.87147 
L 156.593371 245.861 
L 160.91375 245.451833 
L 163.870815 245.059177 
L 165.413281 244.907671 
L 167.519898 244.617087 
L 169.912813 244.360763 
L 173.488842 244.002066 
L 174.412344 243.888976 
L 175.002405 243.828733 
L 178.911875 243.56503 
L 178.981691 243.558293 
L 179.476887 243.522 
L 183.411406 243.119347 
L 186.348105 242.70959 
L 187.910937 242.556336 
L 190.417649 242.218932 
L 192.410469 241.904237 
L 195.692439 241.183 
L 196.91 240.809421 
L 198.935543 239.896942 
L 201.409309 238.844 
L 201.409385 238.843924 
L 201.409531 238.843812 
L 203.621498 236.505 
L 204.067254 235.123431 
L 204.201765 234.166 
L 203.933087 233.138825 
L 204.124031 231.827 
L 204.593344 230.171952 
L 204.229852 229.488 
L 203.951977 228.470644 
L 205.909063 227.677705 
L 207.395965 228.715061 
L 210.408594 228.891813 
L 210.936746 229.21345 
L 211.599468 229.488 
L 214.908125 230.798101 
L 215.912631 231.304826 
L 216.918985 231.827 
L 219.407656 232.881912 
L 220.775077 233.455171 
L 222.062278 234.166 
L 223.070823 234.600769 
L 223.907187 234.843438 
L 225.961943 235.436873 
L 228.406719 236.174 
L 229.84492 236.505 
L 232.90625 237.096854 
L 235.624033 237.43121 
L 237.405781 237.754552 
L 240.547979 238.138415 
L 241.905313 238.261055 
L 246.220394 238.748117 
L 246.404844 238.76467 
L 246.538238 238.774657 
L 247.15857 238.844 
L 250.904375 239.15495 
L 254.310223 239.412532 
L 255.403906 239.526507 
L 257.095953 239.72358 
L 259.903437 239.997751 
L 261.779166 240.207937 
L 264.402969 240.564814 
L 268.756139 241.183 
L 268.877105 241.196201 
L 268.9025 241.199024 
L 268.941804 241.203431 
L 273.402031 241.622251 
L 274.497504 241.752462 
L 277.901563 242.077117 
L 280.256288 242.407061 
L 282.401094 242.666942 
L 283.755998 242.817677 
L 286.900625 243.306412 
L 288.701846 243.522 
L 291.400156 243.761019 
L 294.889793 244.046975 
L 295.899687 244.169185 
L 298.587732 244.463669 
L 300.399219 244.725843 
L 302.21736 244.915872 
L 304.89875 245.291566 
L 309.184873 245.750064 
L 309.398281 245.767624 
L 309.560341 245.776756 
L 310.407172 245.861 
L 313.518116 246.058378 
L 313.897812 246.09823 
L 314.468655 246.157742 
L 318.397344 246.508203 
L 321.091067 246.799716 
L 322.896875 246.991657 
L 325.617635 247.275338 
L 327.396406 247.455357 
L 331.216144 247.846621 
L 331.895938 247.897607 
L 332.427479 247.923688 
L 334.752381 248.2 
" style="fill:none;stroke:#52f5cb;stroke-width:0.3;"/>
   </g>
   <g id="LineCollection_3">
    <path clip-path="url(#pf258c04aea)" d="M 142.359928 248.2 
L 142.825557 248.15318 
L 142.915625 248.144623 
L 143.048197 248.131085 
L 147.415156 247.687 
L 150.346755 247.384938 
L 151.914688 247.243119 
L 154.138641 247.017082 
L 156.414219 246.879967 
L 158.071864 246.722697 
L 160.91375 246.535571 
L 164.807048 246.176139 
L 165.413281 246.121457 
L 167.972579 245.861 
L 169.505932 245.649491 
L 169.912813 245.605907 
L 170.520864 245.544915 
L 174.412344 245.068373 
L 176.898763 244.81452 
L 178.911875 244.678731 
L 180.788651 244.497608 
L 183.411406 244.305387 
L 187.116058 243.935204 
L 187.910937 243.855749 
L 188.445318 243.799788 
L 190.509351 243.522 
L 192.410469 243.221786 
L 193.410932 243.001927 
L 196.91 242.233754 
L 200.164234 241.183 
L 200.831381 240.882459 
L 201.409531 240.636374 
L 204.733251 238.844 
L 205.909063 237.616872 
L 206.737468 236.935632 
L 207.280184 236.505 
L 207.829768 235.164444 
L 209.113932 234.166 
L 210.408594 233.121919 
L 211.564365 233.565193 
L 214.908125 233.611723 
L 216.276234 234.166 
L 218.017946 234.888416 
L 219.407656 235.11184 
L 220.872726 235.74341 
L 223.497561 236.505 
L 223.907187 236.617843 
L 226.684079 237.400483 
L 228.406719 237.717448 
L 232.207781 238.480913 
L 232.90625 238.61595 
L 233.260994 238.659593 
L 234.277156 238.844 
L 237.405781 239.340346 
L 240.346364 239.654391 
L 241.905313 239.813215 
L 244.149089 240.016613 
L 246.404844 240.232682 
L 249.676912 240.544925 
L 250.904375 240.646821 
L 251.804819 240.714921 
L 255.403906 241.089989 
L 256.202488 241.183 
L 259.292517 241.500576 
L 259.903437 241.552426 
L 260.769915 241.633423 
L 264.402969 242.013171 
L 266.801884 242.274967 
L 268.9025 242.508493 
L 272.153621 242.873037 
L 273.402031 242.990264 
L 277.875585 243.522 
L 277.901563 243.52466 
L 281.587547 243.944908 
L 282.401094 244.02445 
L 283.630059 244.160855 
L 286.900625 244.520495 
L 289.322536 244.780986 
L 291.400156 244.965024 
L 292.889041 245.08703 
L 295.899687 245.451356 
L 296.550551 245.52266 
L 298.888299 245.861 
L 300.399219 246.023977 
L 303.916737 246.371482 
L 304.89875 246.463442 
L 306.314532 246.596968 
L 309.398281 246.836626 
L 311.735714 246.984928 
L 313.897812 247.211857 
L 317.148351 247.550734 
L 318.397344 247.662151 
L 319.253721 247.754828 
L 322.896875 248.14206 
L 323.452572 248.2 
" style="fill:none;stroke:#7dffb6;stroke-width:0.3;"/>
   </g>
   <g id="LineCollection_4">
    <path clip-path="url(#pf258c04aea)" d="M 153.110243 248.2 
L 155.873875 247.919112 
L 156.414219 247.886554 
L 159.709367 247.573923 
L 160.91375 247.49462 
L 162.563718 247.342294 
L 165.413281 247.085262 
L 168.079716 246.813902 
L 169.912813 246.646847 
L 171.203436 246.531907 
L 174.412344 246.193793 
L 178.200657 245.861 
L 178.795121 245.800308 
L 178.911875 245.792432 
L 182.59561 245.436923 
L 183.411406 245.377134 
L 184.563722 245.26199 
L 187.910937 244.92741 
L 190.161201 244.691759 
L 192.410469 244.389041 
L 193.743874 244.215147 
L 196.91 243.550929 
L 197.027567 243.522 
L 201.409531 242.231287 
L 202.725989 241.867337 
L 204.125391 241.183 
L 205.909063 240.214768 
L 207.394055 239.615946 
L 208.635189 238.844 
L 209.322035 238.279172 
L 210.408594 237.417015 
L 211.503215 237.074019 
L 214.706534 236.505 
L 214.908125 236.468827 
L 214.946829 236.48488 
L 215.071973 236.505 
L 219.407656 237.237884 
L 221.714634 237.704241 
L 223.907187 238.308242 
L 224.575489 238.496596 
L 226.463558 238.844 
L 228.406719 239.264819 
L 230.943204 239.864454 
L 232.90625 240.157522 
L 236.315202 240.616082 
L 237.405781 240.789099 
L 238.034384 240.856232 
L 241.241811 241.183 
L 241.905313 241.251502 
L 242.06349 241.265226 
L 246.404844 241.675621 
L 249.411929 241.958821 
L 250.904375 242.08293 
L 252.969908 242.25673 
L 255.403906 242.480554 
L 257.076626 242.652467 
L 259.903437 242.892386 
L 263.912749 243.267168 
L 264.402969 243.318409 
L 264.726662 243.353734 
L 266.240255 243.522 
L 268.9025 243.798805 
L 272.203583 244.144992 
L 273.402031 244.255343 
L 275.127552 244.418981 
L 277.901563 244.702987 
L 279.72853 244.911284 
L 282.401094 245.172588 
L 286.438339 245.620689 
L 286.900625 245.671523 
L 288.662279 245.861 
L 290.961713 246.088917 
L 291.400156 246.129008 
L 292.030116 246.188473 
L 295.899687 246.567795 
L 297.566419 246.72742 
L 300.399219 247.032983 
L 302.285689 247.219353 
L 304.89875 247.464052 
L 308.666034 247.819355 
L 309.398281 247.876262 
L 309.953313 247.911477 
L 312.702257 248.2 
" style="fill:none;stroke:#a8f79c;stroke-width:0.3;"/>
   </g>
   <g id="LineCollection_5">
    <path clip-path="url(#pf258c04aea)" d="M 163.739982 248.2 
L 165.413281 248.049068 
L 165.774309 248.012326 
L 169.912813 247.635172 
L 172.826597 247.375678 
L 174.412344 247.208592 
L 176.70735 247.006982 
L 178.911875 246.811983 
L 182.124744 246.529848 
L 183.411406 246.420072 
L 184.342039 246.344772 
L 187.910937 245.995991 
L 188.13677 245.978395 
L 189.22939 245.861 
L 191.877083 245.583729 
L 192.410469 245.511943 
L 195.470765 245.11284 
L 196.91 244.810905 
L 200.745761 243.867049 
L 201.409531 243.739276 
L 201.720048 243.683417 
L 202.196335 243.522 
L 204.620056 242.851933 
L 205.909063 242.221583 
L 208.767999 241.183 
L 209.691898 240.810439 
L 210.408594 240.364676 
L 212.426405 239.892923 
L 214.908125 239.281958 
L 218.174335 239.48512 
L 219.407656 239.476967 
L 221.019251 239.681759 
L 223.907187 240.214913 
L 227.841443 240.889152 
L 228.406719 241.01157 
L 228.633407 241.06516 
L 229.422728 241.183 
L 232.90625 241.724839 
L 234.202848 241.857013 
L 237.405781 242.275165 
L 239.951683 242.506441 
L 241.905313 242.708141 
L 245.42699 243.01368 
L 246.404844 243.106118 
L 247.082165 243.169907 
L 250.904375 243.487754 
L 251.311372 243.522 
L 255.403906 243.838627 
L 258.765298 244.113641 
L 259.903437 244.196855 
L 262.637642 244.439673 
L 264.402969 244.584023 
L 266.888624 244.814123 
L 268.9025 245.023514 
L 270.243116 245.164105 
L 273.402031 245.454974 
L 277.68348 245.861 
L 277.901563 245.880014 
L 281.68157 246.235031 
L 282.401094 246.297266 
L 285.44469 246.617842 
L 286.900625 246.747118 
L 289.247957 246.979782 
L 291.400156 247.176577 
L 294.492458 247.468477 
L 295.899687 247.606423 
L 300.015666 248.000617 
L 300.399219 248.041989 
L 300.654641 248.067223 
L 302.072518 248.2 
" style="fill:none;stroke:#d2de81;stroke-width:0.3;"/>
   </g>
   <g id="LineCollection_6">
    <path clip-path="url(#pf258c04aea)" d="M 174.676422 248.2 
L 178.911875 247.825356 
L 179.77907 247.749204 
L 183.411406 247.4393 
L 186.038646 247.226723 
L 187.910937 247.043748 
L 189.889616 246.88958 
L 192.410469 246.61873 
L 196.442936 246.103795 
L 196.91 246.064608 
L 197.251652 246.038602 
L 198.213664 245.861 
L 201.409531 245.245808 
L 203.873091 244.802637 
L 205.909063 244.112633 
L 206.760174 243.964435 
L 208.203633 243.522 
L 210.408594 242.800432 
L 212.72324 242.386227 
L 214.908125 241.90005 
L 218.070979 241.877848 
L 219.407656 241.822627 
L 220.788803 241.900964 
L 223.907187 242.247496 
L 225.739886 242.569305 
L 228.406719 242.809896 
L 232.393171 243.255285 
L 232.90625 243.335091 
L 234.739776 243.522 
L 236.963311 243.75201 
L 237.405781 243.775641 
L 240.819669 244.086352 
L 241.905313 244.14757 
L 244.740855 244.386994 
L 246.404844 244.485831 
L 248.521617 244.622366 
L 250.904375 244.808332 
L 253.752523 245.002558 
L 255.403906 245.130321 
L 256.61837 245.229683 
L 259.903437 245.469867 
L 260.546072 245.526938 
L 264.402969 245.842315 
L 264.604818 245.861 
L 268.295409 246.176585 
L 268.9025 246.219445 
L 269.713434 246.282549 
L 273.402031 246.597939 
L 275.088416 246.737637 
L 277.901563 246.982905 
L 279.884604 247.169152 
L 282.401094 247.386815 
L 283.701857 247.523822 
L 286.900625 247.807848 
L 287.5342 247.870647 
L 291.136078 248.2 
" style="fill:none;stroke:#feb562;stroke-width:0.3;"/>
   </g>
   <g id="LineCollection_7">
    <path clip-path="url(#pf258c04aea)" d="M 186.606554 248.2 
L 187.735254 248.108674 
L 187.910937 248.091505 
L 191.642461 247.800765 
L 192.410469 247.718247 
L 193.639008 247.561366 
L 196.91 247.286928 
L 199.302698 247.104801 
L 201.409531 246.715848 
L 205.682853 245.978591 
L 205.909063 245.956599 
L 206.486436 245.861 
L 209.424469 245.349421 
L 210.408594 245.047777 
L 212.717428 244.660794 
L 214.908125 244.351172 
L 216.332061 244.262207 
L 219.407656 244.138103 
L 222.402791 244.304033 
L 223.907187 244.303123 
L 225.523434 244.362177 
L 228.406719 244.624941 
L 230.769143 244.750063 
L 232.90625 244.966341 
L 234.341665 245.114825 
L 237.405781 245.278467 
L 238.35943 245.365263 
L 241.905313 245.56521 
L 242.394814 245.606542 
L 246.404844 245.844727 
L 246.657131 245.861 
L 250.904375 246.112973 
L 254.475131 246.343807 
L 255.403906 246.388671 
L 256.546531 246.454973 
L 259.903437 246.684031 
L 261.715729 246.803087 
L 264.402969 247.006062 
L 266.375302 247.174718 
L 268.9025 247.353134 
L 272.278256 247.615826 
L 273.402031 247.711913 
L 277.637596 248.062782 
L 277.901563 248.085796 
L 278.087638 248.103272 
L 279.205946 248.2 
" style="fill:none;stroke:#ff8143;stroke-width:0.3;"/>
   </g>
   <g id="LineCollection_8">
    <path clip-path="url(#pf258c04aea)" d="M 200.972751 248.2 
L 201.353743 248.171 
L 201.409531 248.1607 
L 201.522687 248.141178 
L 205.909063 247.714751 
L 207.278835 247.487949 
L 210.408594 247.176202 
L 212.590586 246.995269 
L 214.908125 246.681365 
L 218.209817 246.483675 
L 219.407656 246.400309 
L 220.353698 246.352783 
L 223.907187 246.350661 
L 224.801506 246.325895 
L 228.406719 246.441622 
L 231.479256 246.602797 
L 232.90625 246.592264 
L 234.333244 246.602797 
L 237.405781 246.763763 
L 239.888601 246.909351 
L 241.905313 246.947185 
L 244.127628 247.016231 
L 246.404844 247.145651 
L 249.08646 247.25499 
L 250.904375 247.36284 
L 252.336697 247.455433 
L 255.403906 247.603595 
L 259.177336 247.822549 
L 259.903437 247.872095 
L 264.331812 248.16301 
L 264.402969 248.168385 
L 264.455195 248.172851 
L 264.839749 248.2 
" style="fill:none;stroke:#ff4121;stroke-width:0.3;"/>
   </g>
   <g id="LineCollection_9">
    <path clip-path="url(#pf258c04aea)" d="M 59.119887 248.2 
L 60.915851 247.675899 
L 64.010009 247.115659 
L 67.304202 246.318768 
L 70.923125 245.739375 
L 73.842276 245.039468 
L 75.422656 244.811476 
L 77.148295 244.419042 
L 84.904718 243.270922 
L 90.818027 242.169005 
L 98.582303 241.183 
L 108.448769 239.639028 
L 115.918438 238.772811 
L 122.723512 237.703495 
L 131.667971 236.505 
L 143.094279 234.166 
L 147.415156 232.783911 
L 150.387296 231.827 
L 153.046671 230.076441 
L 153.838612 229.488 
L 154.18189 228.309436 
L 154.656623 227.149 
L 154.177707 225.97261 
L 153.970699 224.81 
L 152.53946 222.471 
L 152.327198 222.256564 
L 151.914688 221.645439 
L 150.717028 220.132 
L 149.937432 219.104159 
L 147.047204 215.645274 
L 146.604111 215.032393 
L 144.984003 213.115 
L 142.915625 210.323041 
L 141.44618 208.437 
L 135.245171 199.081 
L 132.556064 194.403 
L 131.283392 192.064 
L 126.384343 181.945488 
L 120.978276 168.674 
L 119.177959 163.996 
L 117.433814 159.318 
L 114.012823 149.962 
L 101.069351 114.877 
L 97.108915 103.182 
L 94.48268 93.826 
L 93.065884 86.993487 
L 92.362278 82.131 
L 92.110009 79.110619 
L 91.930611 75.114 
L 92.008867 72.041042 
L 92.226031 68.718069 
L 92.707781 65.38736 
L 93.420781 62.020007 
L 93.665053 60.95302 
L 94.834841 57.137073 
L 95.566592 55.178461 
L 96.001552 54.063 
L 97.280264 51.391282 
L 99.698867 47.046 
L 101.270472 44.707 
L 105.572454 39.328827 
L 109.486906 35.351 
L 115.108693 30.673 
L 115.918438 30.128482 
L 118.340382 28.334 
L 126.090444 23.656 
L 127.691179 22.758847 
L 129.417031 22.015553 
L 132.322532 20.488372 
L 133.916562 19.906889 
L 137.154998 18.322442 
L 138.416094 17.949492 
L 142.915625 15.245975 
L 143.76451 14.3 
L 143.76451 14.3 
" style="fill:none;stroke:#5a3bfd;stroke-width:1.5;"/>
    <path clip-path="url(#pf258c04aea)" d="M 210.069816 14.3 
L 210.408594 14.645829 
L 211.987026 15.81848 
L 214.270328 16.639 
L 214.534879 16.833025 
L 214.908125 16.999182 
L 216.940926 17.695715 
L 219.407656 18.479542 
L 220.113454 18.611104 
L 221.128141 18.978 
L 223.907187 20.102801 
L 227.123578 21.317 
L 227.812248 21.626025 
L 228.406719 21.945836 
L 232.152285 23.656 
L 232.526477 23.853418 
L 232.90625 24.0871 
L 234.836422 24.991635 
L 236.503804 25.995 
L 236.921929 26.246522 
L 237.405781 26.581388 
L 239.056154 27.476083 
L 240.326317 28.334 
L 241.015455 28.796577 
L 241.905313 29.479867 
L 242.960616 30.124419 
L 243.694631 30.673 
L 246.404844 32.839005 
L 246.549511 32.936797 
L 246.641459 33.012 
L 246.991614 33.317022 
L 249.404354 35.351 
L 250.904375 36.846499 
L 251.514138 37.373026 
L 251.834619 37.69 
L 253.051466 38.912873 
L 254.063335 40.029 
L 254.476459 40.511116 
L 255.403906 41.654658 
L 256.052147 42.368 
L 256.49089 42.933049 
L 257.908018 44.707 
L 259.301912 46.733308 
L 259.520844 47.046 
L 259.903437 47.675202 
L 261.047116 49.385 
L 261.539122 50.235281 
L 262.412877 51.724 
L 262.83159 52.540853 
L 263.609626 54.063 
L 263.758032 54.398259 
L 264.402969 55.826734 
L 264.687207 56.402 
L 265.457509 58.192816 
L 265.693749 58.741 
L 266.00889 59.575809 
L 266.568041 61.08 
L 266.658018 61.364751 
" style="fill:none;stroke:#5a3bfd;stroke-width:1.5;"/>
    <path clip-path="url(#pf258c04aea)" d="M 268.417014 107.59123 
L 267.568742 112.538 
L 266.663921 117.216 
L 263.967937 129.137143 
L 261.948855 137.203727 
L 261.054692 140.606 
L 256.240935 157.414114 
L 247.264268 185.047 
L 245.706427 189.725 
L 242.800143 199.546162 
L 242.329538 201.42 
L 241.905313 203.818974 
L 241.748479 206.179527 
L 241.905313 208.507926 
L 242.564494 210.776 
L 244.040088 213.115 
L 246.668341 215.454 
L 251.246948 217.793 
L 261.324699 220.870817 
L 269.685814 222.878192 
L 277.901563 224.647342 
L 278.592939 224.81 
L 287.951426 226.60276 
L 292.010554 227.466304 
L 300.399219 229.052869 
L 304.89875 229.906464 
L 309.398281 230.731643 
L 310.995141 230.996901 
L 314.72538 231.827 
L 322.896875 233.284594 
L 327.506735 234.223352 
L 345.394531 237.049105 
L 349.894063 237.683149 
L 359.581649 239.201917 
L 365.972486 240.185078 
L 367.892187 240.462295 
L 372.661878 241.323437 
L 376.89125 241.965995 
L 385.890312 243.675934 
L 389.138844 244.172309 
L 393.679585 245.232112 
L 396.575232 245.861 
L 399.388906 246.40907 
L 403.888438 247.444715 
L 404.95189 247.647183 
L 406.692613 248.2 
L 406.692613 248.2 
" style="fill:none;stroke:#5a3bfd;stroke-width:1.5;"/>
   </g>
   <g id="LineCollection_10">
    <path clip-path="url(#pf258c04aea)" d="M 86.417568 248.2 
L 91.549272 247.22713 
L 102.250336 245.949116 
L 109.521203 244.874514 
L 115.918438 244.201571 
L 116.954922 244.060798 
L 124.9175 243.352569 
L 142.915625 241.111782 
L 147.415156 240.369619 
L 151.914688 239.771655 
L 159.810262 238.844 
L 167.247073 237.458263 
L 174.412344 236.345467 
L 178.911875 235.148894 
L 181.847135 234.166 
L 182.445639 233.663963 
L 183.673349 231.827 
L 183.411406 231.139795 
L 182.731353 229.841513 
L 182.709024 229.488 
L 182.302935 228.911781 
L 177.723115 224.192044 
L 175.167734 222.078324 
L 174.412344 221.140941 
L 173.612901 220.547576 
L 173.266917 220.132 
L 171.916397 219.090473 
L 169.912813 216.687544 
L 169.011542 215.922509 
L 167.654787 214.280206 
L 166.157639 212.728059 
L 165.413281 211.658151 
L 163.426194 209.469952 
L 160.91375 205.77298 
L 159.45082 203.759 
L 158.636003 202.604046 
L 154.600867 195.345638 
L 153.120147 192.064 
L 150.402568 185.047 
L 149.229818 181.312319 
L 148.226416 177.608281 
L 146.318691 169.243978 
L 145.503266 164.989862 
L 144.677753 160.23401 
L 142.169173 142.945 
L 139.706916 125.900989 
L 137.848484 115.172062 
L 133.916562 97.400462 
L 130.217038 82.131 
L 128.334708 73.337626 
L 127.428215 68.097 
L 126.73571 62.473836 
L 126.510658 58.741 
L 126.579639 53.198967 
L 127.022298 49.385 
L 127.45746 47.046 
L 127.727479 46.167717 
L 128.273597 44.112606 
L 128.906516 42.102618 
L 129.762383 39.849475 
L 130.817532 37.69 
L 131.59392 36.482616 
L 132.131668 35.351 
L 133.916562 32.669381 
L 136.51692 29.321251 
L 139.640958 25.995 
L 142.010484 23.656 
L 142.39712 23.386465 
L 144.463266 21.317 
L 145.680668 20.415357 
L 147.415156 17.932926 
L 148.21494 17.054753 
L 148.962124 15.104163 
L 149.111247 14.3 
L 149.111247 14.3 
" style="fill:none;stroke:#3079f7;stroke-width:1.5;"/>
    <path clip-path="url(#pf258c04aea)" d="M 206.054904 14.3 
L 206.206234 14.454479 
L 206.882689 16.639 
L 207.696073 18.049055 
L 209.289343 18.978 
L 210.408594 19.935539 
L 211.418321 20.792112 
L 212.412228 21.317 
L 214.908125 23.212957 
L 215.269145 23.46833 
L 215.593962 23.656 
L 216.992766 24.739663 
L 218.5139 25.995 
L 219.407656 26.832468 
L 221.119784 28.334 
L 221.962872 29.344717 
L 223.413103 30.673 
L 223.907187 31.267663 
L 225.407247 33.012 
L 226.166967 34.176295 
L 227.148515 35.351 
L 227.420525 35.863655 
L 228.406719 37.27938 
L 228.602347 37.588306 
L 228.68101 37.69 
L 228.811141 37.900232 
L 229.977417 40.029 
L 230.557449 41.147018 
L 231.102785 42.368 
L 231.880891 44.173986 
L 232.07333 44.707 
L 232.178128 45.085501 
L 232.90014 47.046 
L 232.90625 47.067372 
L 233.570802 49.385 
L 233.963617 51.174347 
L 234.123437 51.724 
L 234.389851 53.291777 
L 234.568642 54.063 
L 234.735429 55.013866 
L 234.915816 56.402 
L 235.025738 57.639222 
L 235.173811 58.741 
L 235.236559 59.868631 
L 235.350873 61.08 
L 235.366387 61.346536 
" style="fill:none;stroke:#3079f7;stroke-width:1.5;"/>
    <path clip-path="url(#pf258c04aea)" d="M 229.788121 107.575344 
L 228.08284 115.045362 
L 225.664584 125.146551 
L 222.817222 135.928 
L 220.618669 143.574523 
L 210.008776 178.03 
L 208.62915 184.121988 
L 207.869972 188.405343 
L 207.468726 192.064 
L 207.28538 197.457454 
L 207.680145 202.340665 
L 208.648321 207.521954 
L 209.721961 211.132934 
L 210.408594 213.210053 
L 212.515599 216.549288 
L 213.626637 217.793 
L 214.908125 218.862463 
L 216.030648 219.548477 
L 216.594864 220.132 
L 218.162502 220.779271 
L 219.407656 221.813891 
L 220.108732 222.106558 
L 220.632506 222.471 
L 226.211923 224.81 
L 227.650037 225.203347 
L 228.406719 225.54645 
L 233.859594 227.149 
L 237.405781 227.920548 
L 246.69979 229.488 
L 261.025166 231.24389 
L 264.482632 231.827 
L 271.582363 232.772921 
L 276.837906 233.613078 
L 282.401094 234.431717 
L 283.169372 234.565376 
L 306.644674 237.936413 
L 311.916444 238.844 
L 320.751202 239.959389 
L 327.396406 241.21263 
L 349.894063 243.891386 
L 354.393594 244.403192 
L 358.893125 245.004905 
L 360.254391 245.15337 
L 364.274909 245.861 
L 374.362029 247.17577 
L 379.394932 248.2 
L 379.394932 248.2 
" style="fill:none;stroke:#3079f7;stroke-width:1.5;"/>
   </g>
   <g id="LineCollection_11">
    <path clip-path="url(#pf258c04aea)" d="M 104.412042 248.2 
L 107.793694 247.745501 
L 113.475219 246.929937 
L 129.953436 245.58216 
L 135.512992 245.031125 
L 151.914688 242.912485 
L 158.470856 242.252106 
L 160.91375 241.997597 
L 176.73337 239.976456 
L 183.411406 239.178589 
L 185.819998 238.844 
L 189.670394 237.929378 
L 192.410469 237.220347 
L 193.758548 236.505 
L 194.536503 235.27118 
L 194.926975 234.166 
L 194.443401 233.109217 
L 194.204608 231.827 
L 193.666318 231.174169 
L 192.410469 229.313744 
L 190.865246 227.952256 
L 190.236371 227.149 
L 181.140603 218.973436 
L 177.922371 215.454 
L 176.141547 213.115 
L 172.995349 208.437 
L 168.068404 199.081 
L 167.054441 196.742 
L 165.21918 192.064 
L 163.728248 187.386 
L 162.120679 180.369 
L 161.39189 175.691 
L 160.892768 171.013 
L 160.477743 163.769349 
L 160.258063 152.301 
L 160.297816 138.267 
L 160.562717 131.25 
L 161.156735 124.106689 
L 161.7277 116.792883 
L 161.768628 112.538 
L 161.491884 105.521 
L 159.902674 82.131 
L 159.674359 63.419 
L 159.201659 56.402 
L 158.83429 49.385 
L 158.832953 44.707 
L 159.068425 40.029 
L 159.604875 35.351 
L 160.404812 30.673 
L 160.471347 30.443025 
L 160.91375 28.15093 
L 164.115426 15.964333 
L 164.272181 14.3 
L 164.272181 14.3 
" style="fill:none;stroke:#04b0ed;stroke-width:1.5;"/>
    <path clip-path="url(#pf258c04aea)" d="M 193.095019 14.3 
L 193.198498 14.709643 
L 193.455238 16.639 
L 193.843472 18.233079 
L 194.273933 18.978 
L 194.916239 20.280579 
L 195.211639 21.317 
L 196.134456 23.252848 
L 196.25618 23.656 
L 196.340691 23.951945 
L 196.91 25.129213 
L 197.153131 25.868613 
L 197.233463 25.995 
L 197.341714 26.219419 
L 198.072643 28.334 
L 198.391042 29.103893 
L 198.89232 30.673 
L 199.216426 31.813046 
L 199.660124 33.012 
L 199.871435 33.811552 
L 200.356831 35.351 
L 200.909319 37.429974 
L 200.972312 37.69 
L 201.409531 39.620546 
L 201.483912 39.990335 
L 201.493034 40.029 
L 201.502169 40.077156 
L 201.89322 42.368 
L 202.160174 44.316792 
L 202.220069 44.707 
L 202.273415 45.156074 
L 202.476089 47.046 
L 202.527885 47.627356 
L 202.66741 49.385 
L 202.7586 51.022711 
L 202.803382 51.724 
L 202.835191 52.465103 
L 202.895552 54.063 
L 202.934987 55.609019 
L 202.956716 56.402 
L 202.985383 57.921822 
L 202.998856 58.741 
L 203.006826 59.571325 
L 203.032926 61.08 
L 203.038642 61.343417 
" style="fill:none;stroke:#04b0ed;stroke-width:1.5;"/>
    <path clip-path="url(#pf258c04aea)" d="M 201.342072 107.591144 
L 200.49935 114.877 
L 200.099385 119.555 
L 199.948106 121.894 
L 199.947099 122.654219 
L 199.518795 128.911 
L 199.236784 132.379463 
L 198.148992 140.606 
L 196.91 147.852156 
L 193.170588 168.674 
L 192.61633 173.459013 
L 192.312408 178.080975 
L 192.237917 182.708 
L 192.499414 187.386 
L 193.180657 192.064 
L 194.743539 199.081 
L 195.07098 200.036981 
L 195.780335 203.171764 
L 195.984137 203.759 
L 196.91 206.935766 
L 199.014817 211.870151 
L 201.254681 215.454 
L 201.409531 215.600451 
L 203.785134 217.793 
L 205.909063 219.370893 
L 206.655607 219.743922 
L 207.023707 220.132 
L 210.97023 222.471 
L 215.196363 224.81 
L 217.553192 225.77401 
L 219.8101 227.149 
L 222.223974 228.023988 
L 223.907187 229.034204 
L 228.406719 230.863053 
L 232.90625 232.240677 
L 239.276553 233.193513 
L 247.880803 234.166 
L 261.710638 235.56556 
L 273.402031 237.294838 
L 279.557122 237.983388 
L 286.900625 239.172633 
L 300.943204 240.900219 
L 304.89875 241.492612 
L 322.896875 243.712498 
L 323.464897 243.817276 
L 331.895938 244.969886 
L 340.895 245.8754 
L 348.713268 246.474814 
L 351.978189 246.944395 
L 356.06915 247.328992 
L 361.400458 248.2 
L 361.400458 248.2 
" style="fill:none;stroke:#04b0ed;stroke-width:1.5;"/>
   </g>
   <g id="patch_3">
    <path d="M 52.925 248.2 
L 52.925 14.3 
" style="fill:none;stroke:#000000;stroke-linecap:square;stroke-linejoin:miter;stroke-width:0.8;"/>
   </g>
   <g id="patch_4">
    <path d="M 412.8875 248.2 
L 412.8875 14.3 
" style="fill:none;stroke:#000000;stroke-linecap:square;stroke-linejoin:miter;stroke-width:0.8;"/>
   </g>
   <g id="patch_5">
    <path d="M 52.925 248.2 
L 412.8875 248.2 
" style="fill:none;stroke:#000000;stroke-linecap:square;stroke-linejoin:miter;stroke-width:0.8;"/>
   </g>
   <g id="patch_6">
    <path d="M 52.925 14.3 
L 412.8875 14.3 
" style="fill:none;stroke:#000000;stroke-linecap:square;stroke-linejoin:miter;stroke-width:0.8;"/>
   </g>
   <g id="text_18">
    <!-- 778 years -->
    <g transform="translate(350.972 27.603)scale(0.12 -0.12)">
     <defs>
      <path d="M 4.25 57.859375 
L 4.25 70.609375 
L 51.171875 70.609375 
L 51.171875 60.640625 
Q 45.359375 54.9375 39.34375 44.234375 
Q 33.34375 33.546875 30.1875 21.5 
Q 27.046875 9.46875 27.09375 0 
L 13.875 0 
Q 14.203125 14.84375 19.984375 30.265625 
Q 25.78125 45.703125 35.453125 57.859375 
z
" id="Arial-BoldMT-55"/>
      <path d="M 16.015625 38.625 
Q 10.6875 40.875 8.265625 44.796875 
Q 5.859375 48.734375 5.859375 53.421875 
Q 5.859375 61.421875 11.453125 66.640625 
Q 17.046875 71.875 27.34375 71.875 
Q 37.546875 71.875 43.1875 66.640625 
Q 48.828125 61.421875 48.828125 53.421875 
Q 48.828125 48.4375 46.234375 44.546875 
Q 43.65625 40.671875 38.96875 38.625 
Q 44.921875 36.234375 48.015625 31.640625 
Q 51.125 27.046875 51.125 21.046875 
Q 51.125 11.140625 44.796875 4.9375 
Q 38.484375 -1.265625 27.984375 -1.265625 
Q 18.21875 -1.265625 11.71875 3.859375 
Q 4.046875 9.90625 4.046875 20.453125 
Q 4.046875 26.265625 6.921875 31.125 
Q 9.8125 35.984375 16.015625 38.625 
z
M 18.84375 52.4375 
Q 18.84375 48.34375 21.15625 46.046875 
Q 23.484375 43.75 27.34375 43.75 
Q 31.25 43.75 33.59375 46.0625 
Q 35.9375 48.390625 35.9375 52.484375 
Q 35.9375 56.34375 33.609375 58.65625 
Q 31.296875 60.984375 27.484375 60.984375 
Q 23.53125 60.984375 21.1875 58.640625 
Q 18.84375 56.296875 18.84375 52.4375 
z
M 17.578125 21.78125 
Q 17.578125 16.109375 20.484375 12.9375 
Q 23.390625 9.765625 27.734375 9.765625 
Q 31.984375 9.765625 34.765625 12.8125 
Q 37.546875 15.875 37.546875 21.625 
Q 37.546875 26.65625 34.71875 29.703125 
Q 31.890625 32.765625 27.546875 32.765625 
Q 22.515625 32.765625 20.046875 29.296875 
Q 17.578125 25.828125 17.578125 21.78125 
z
" id="Arial-BoldMT-56"/>
      <path id="Arial-BoldMT-32"/>
      <path d="M 0.6875 51.859375 
L 15.28125 51.859375 
L 27.6875 15.046875 
L 39.796875 51.859375 
L 54 51.859375 
L 35.6875 1.953125 
L 32.421875 -7.078125 
Q 30.609375 -11.625 28.96875 -14.015625 
Q 27.34375 -16.40625 25.21875 -17.890625 
Q 23.09375 -19.390625 19.984375 -20.21875 
Q 16.890625 -21.046875 12.984375 -21.046875 
Q 9.03125 -21.046875 5.21875 -20.21875 
L 4 -9.46875 
Q 7.234375 -10.109375 9.8125 -10.109375 
Q 14.59375 -10.109375 16.890625 -7.296875 
Q 19.1875 -4.5 20.40625 -0.140625 
z
" id="Arial-BoldMT-121"/>
      <path d="M 37.203125 16.5 
L 50.875 14.203125 
Q 48.25 6.6875 42.546875 2.75 
Q 36.859375 -1.171875 28.328125 -1.171875 
Q 14.796875 -1.171875 8.296875 7.671875 
Q 3.171875 14.75 3.171875 25.53125 
Q 3.171875 38.421875 9.90625 45.71875 
Q 16.65625 53.03125 26.953125 53.03125 
Q 38.53125 53.03125 45.21875 45.390625 
Q 51.90625 37.75 51.609375 21.96875 
L 17.234375 21.96875 
Q 17.390625 15.875 20.5625 12.46875 
Q 23.734375 9.078125 28.46875 9.078125 
Q 31.6875 9.078125 33.875 10.828125 
Q 36.078125 12.59375 37.203125 16.5 
z
M 37.984375 30.375 
Q 37.84375 36.328125 34.90625 39.421875 
Q 31.984375 42.53125 27.78125 42.53125 
Q 23.296875 42.53125 20.359375 39.265625 
Q 17.4375 35.984375 17.484375 30.375 
z
" id="Arial-BoldMT-101"/>
      <path d="M 17.4375 36.03125 
L 4.984375 38.28125 
Q 7.078125 45.796875 12.203125 49.40625 
Q 17.328125 53.03125 27.4375 53.03125 
Q 36.625 53.03125 41.109375 50.859375 
Q 45.609375 48.6875 47.4375 45.34375 
Q 49.265625 42 49.265625 33.0625 
L 49.125 17.046875 
Q 49.125 10.203125 49.78125 6.953125 
Q 50.4375 3.71875 52.25 0 
L 38.671875 0 
Q 38.140625 1.375 37.359375 4.046875 
Q 37.015625 5.28125 36.859375 5.671875 
Q 33.34375 2.25 29.34375 0.53125 
Q 25.34375 -1.171875 20.796875 -1.171875 
Q 12.796875 -1.171875 8.171875 3.171875 
Q 3.5625 7.515625 3.5625 14.15625 
Q 3.5625 18.5625 5.65625 22 
Q 7.765625 25.4375 11.546875 27.265625 
Q 15.328125 29.109375 22.46875 30.46875 
Q 32.078125 32.28125 35.796875 33.84375 
L 35.796875 35.203125 
Q 35.796875 39.15625 33.84375 40.84375 
Q 31.890625 42.53125 26.46875 42.53125 
Q 22.796875 42.53125 20.75 41.09375 
Q 18.703125 39.65625 17.4375 36.03125 
z
M 35.796875 24.90625 
Q 33.15625 24.03125 27.4375 22.796875 
Q 21.734375 21.578125 19.96875 20.40625 
Q 17.28125 18.5 17.28125 15.578125 
Q 17.28125 12.703125 19.421875 10.59375 
Q 21.578125 8.5 24.90625 8.5 
Q 28.609375 8.5 31.984375 10.9375 
Q 34.46875 12.796875 35.25 15.484375 
Q 35.796875 17.234375 35.796875 22.171875 
z
" id="Arial-BoldMT-97"/>
      <path d="M 20.3125 0 
L 6.59375 0 
L 6.59375 51.859375 
L 19.34375 51.859375 
L 19.34375 44.484375 
Q 22.609375 49.703125 25.21875 51.359375 
Q 27.828125 53.03125 31.15625 53.03125 
Q 35.84375 53.03125 40.1875 50.4375 
L 35.9375 38.484375 
Q 32.46875 40.71875 29.5 40.71875 
Q 26.609375 40.71875 24.609375 39.125 
Q 22.609375 37.546875 21.453125 33.390625 
Q 20.3125 29.25 20.3125 16.015625 
z
" id="Arial-BoldMT-114"/>
      <path d="M 2.34375 14.796875 
L 16.109375 16.890625 
Q 17 12.890625 19.671875 10.8125 
Q 22.359375 8.734375 27.203125 8.734375 
Q 32.515625 8.734375 35.203125 10.6875 
Q 37.015625 12.0625 37.015625 14.359375 
Q 37.015625 15.921875 36.03125 16.9375 
Q 35.015625 17.921875 31.453125 18.75 
Q 14.84375 22.40625 10.40625 25.4375 
Q 4.25 29.640625 4.25 37.109375 
Q 4.25 43.84375 9.5625 48.4375 
Q 14.890625 53.03125 26.078125 53.03125 
Q 36.71875 53.03125 41.890625 49.5625 
Q 47.078125 46.09375 49.03125 39.3125 
L 36.078125 36.921875 
Q 35.25 39.9375 32.921875 41.546875 
Q 30.609375 43.171875 26.3125 43.171875 
Q 20.90625 43.171875 18.5625 41.65625 
Q 17 40.578125 17 38.875 
Q 17 37.40625 18.359375 36.375 
Q 20.21875 35.015625 31.171875 32.515625 
Q 42.140625 30.03125 46.484375 26.421875 
Q 50.78125 22.75 50.78125 16.21875 
Q 50.78125 9.078125 44.828125 3.953125 
Q 38.875 -1.171875 27.203125 -1.171875 
Q 16.609375 -1.171875 10.421875 3.125 
Q 4.25 7.421875 2.34375 14.796875 
z
" id="Arial-BoldMT-115"/>
     </defs>
     <use xlink:href="#Arial-BoldMT-55"/>
     <use x="55.615234" xlink:href="#Arial-BoldMT-55"/>
     <use x="111.230469" xlink:href="#Arial-BoldMT-56"/>
     <use x="166.845703" xlink:href="#Arial-BoldMT-32"/>
     <use x="194.628906" xlink:href="#Arial-BoldMT-121"/>
     <use x="250.244141" xlink:href="#Arial-BoldMT-101"/>
     <use x="305.859375" xlink:href="#Arial-BoldMT-97"/>
     <use x="361.474609" xlink:href="#Arial-BoldMT-114"/>
     <use x="400.390625" xlink:href="#Arial-BoldMT-115"/>
    </g>
    <!-- FWHM = 400 m -->
    <g transform="translate(320.670125 40.435875)scale(0.12 -0.12)">
     <defs>
      <path d="M 7.375 0 
L 7.375 71.578125 
L 56.453125 71.578125 
L 56.453125 59.46875 
L 21.828125 59.46875 
L 21.828125 42.53125 
L 51.703125 42.53125 
L 51.703125 30.421875 
L 21.828125 30.421875 
L 21.828125 0 
z
" id="Arial-BoldMT-70"/>
      <path d="M 17.4375 0 
L 0.34375 71.578125 
L 15.140625 71.578125 
L 25.921875 22.40625 
L 39.015625 71.578125 
L 56.203125 71.578125 
L 68.75 21.578125 
L 79.734375 71.578125 
L 94.28125 71.578125 
L 76.90625 0 
L 61.578125 0 
L 47.3125 53.515625 
L 33.109375 0 
z
" id="Arial-BoldMT-87"/>
      <path d="M 7.328125 0 
L 7.328125 71.578125 
L 21.78125 71.578125 
L 21.78125 43.40625 
L 50.09375 43.40625 
L 50.09375 71.578125 
L 64.546875 71.578125 
L 64.546875 0 
L 50.09375 0 
L 50.09375 31.296875 
L 21.78125 31.296875 
L 21.78125 0 
z
" id="Arial-BoldMT-72"/>
      <path d="M 7.078125 0 
L 7.078125 71.578125 
L 28.71875 71.578125 
L 41.703125 22.75 
L 54.546875 71.578125 
L 76.21875 71.578125 
L 76.21875 0 
L 62.796875 0 
L 62.796875 56.34375 
L 48.578125 0 
L 34.671875 0 
L 20.515625 56.34375 
L 20.515625 0 
z
" id="Arial-BoldMT-77"/>
      <path d="M 4.15625 39.84375 
L 4.15625 52.4375 
L 54.203125 52.4375 
L 54.203125 39.84375 
z
M 4.15625 18.171875 
L 4.15625 30.8125 
L 54.203125 30.8125 
L 54.203125 18.171875 
z
" id="Arial-BoldMT-61"/>
      <path d="M 31.15625 0 
L 31.15625 14.40625 
L 1.859375 14.40625 
L 1.859375 26.421875 
L 32.90625 71.875 
L 44.4375 71.875 
L 44.4375 26.46875 
L 53.328125 26.46875 
L 53.328125 14.40625 
L 44.4375 14.40625 
L 44.4375 0 
z
M 31.15625 26.46875 
L 31.15625 50.921875 
L 14.703125 26.46875 
z
" id="Arial-BoldMT-52"/>
      <path d="M 27.4375 71.875 
Q 37.84375 71.875 43.703125 64.453125 
Q 50.6875 55.671875 50.6875 35.296875 
Q 50.6875 14.984375 43.65625 6.109375 
Q 37.84375 -1.21875 27.4375 -1.21875 
Q 17 -1.21875 10.59375 6.8125 
Q 4.203125 14.84375 4.203125 35.453125 
Q 4.203125 55.671875 11.234375 64.546875 
Q 17.046875 71.875 27.4375 71.875 
z
M 27.4375 60.5 
Q 24.953125 60.5 23 58.90625 
Q 21.046875 57.328125 19.96875 53.21875 
Q 18.5625 47.90625 18.5625 35.296875 
Q 18.5625 22.703125 19.828125 17.984375 
Q 21.09375 13.28125 23.015625 11.71875 
Q 24.953125 10.15625 27.4375 10.15625 
Q 29.9375 10.15625 31.890625 11.734375 
Q 33.84375 13.328125 34.90625 17.4375 
Q 36.328125 22.703125 36.328125 35.296875 
Q 36.328125 47.90625 35.0625 52.609375 
Q 33.796875 57.328125 31.859375 58.90625 
Q 29.9375 60.5 27.4375 60.5 
z
" id="Arial-BoldMT-48"/>
      <path d="M 6.15625 51.859375 
L 18.796875 51.859375 
L 18.796875 44.78125 
Q 25.59375 53.03125 34.96875 53.03125 
Q 39.9375 53.03125 43.59375 50.96875 
Q 47.265625 48.921875 49.609375 44.78125 
Q 53.03125 48.921875 56.984375 50.96875 
Q 60.9375 53.03125 65.4375 53.03125 
Q 71.140625 53.03125 75.09375 50.703125 
Q 79.046875 48.390625 81 43.890625 
Q 82.421875 40.578125 82.421875 33.15625 
L 82.421875 0 
L 68.703125 0 
L 68.703125 29.640625 
Q 68.703125 37.359375 67.28125 39.59375 
Q 65.375 42.53125 61.421875 42.53125 
Q 58.546875 42.53125 56 40.765625 
Q 53.46875 39.015625 52.34375 35.625 
Q 51.21875 32.234375 51.21875 24.90625 
L 51.21875 0 
L 37.5 0 
L 37.5 28.421875 
Q 37.5 35.984375 36.765625 38.171875 
Q 36.03125 40.375 34.484375 41.453125 
Q 32.953125 42.53125 30.328125 42.53125 
Q 27.15625 42.53125 24.609375 40.8125 
Q 22.078125 39.109375 20.96875 35.890625 
Q 19.875 32.671875 19.875 25.203125 
L 19.875 0 
L 6.15625 0 
z
" id="Arial-BoldMT-109"/>
     </defs>
     <use xlink:href="#Arial-BoldMT-70"/>
     <use x="61.083984" xlink:href="#Arial-BoldMT-87"/>
     <use x="155.46875" xlink:href="#Arial-BoldMT-72"/>
     <use x="227.685547" xlink:href="#Arial-BoldMT-77"/>
     <use x="310.986328" xlink:href="#Arial-BoldMT-32"/>
     <use x="338.769531" xlink:href="#Arial-BoldMT-61"/>
     <use x="397.167969" xlink:href="#Arial-BoldMT-32"/>
     <use x="424.951172" xlink:href="#Arial-BoldMT-52"/>
     <use x="480.566406" xlink:href="#Arial-BoldMT-48"/>
     <use x="536.181641" xlink:href="#Arial-BoldMT-48"/>
     <use x="591.796875" xlink:href="#Arial-BoldMT-32"/>
     <use x="619.580078" xlink:href="#Arial-BoldMT-109"/>
    </g>
    <!-- Cell size = 10 m -->
    <g transform="translate(316.64075 53.11125)scale(0.12 -0.12)">
     <defs>
      <path d="M 53.078125 26.3125 
L 67.09375 21.875 
Q 63.875 10.15625 56.375 4.46875 
Q 48.875 -1.21875 37.359375 -1.21875 
Q 23.09375 -1.21875 13.90625 8.515625 
Q 4.734375 18.265625 4.734375 35.15625 
Q 4.734375 53.03125 13.953125 62.90625 
Q 23.1875 72.796875 38.234375 72.796875 
Q 51.375 72.796875 59.578125 65.046875 
Q 64.453125 60.453125 66.890625 51.859375 
L 52.59375 48.4375 
Q 51.3125 54 47.28125 57.21875 
Q 43.265625 60.453125 37.5 60.453125 
Q 29.546875 60.453125 24.578125 54.734375 
Q 19.625 49.03125 19.625 36.234375 
Q 19.625 22.65625 24.5 16.890625 
Q 29.390625 11.140625 37.203125 11.140625 
Q 42.96875 11.140625 47.109375 14.796875 
Q 51.265625 18.453125 53.078125 26.3125 
z
" id="Arial-BoldMT-67"/>
      <path d="M 7.171875 0 
L 7.171875 71.578125 
L 20.90625 71.578125 
L 20.90625 0 
z
" id="Arial-BoldMT-108"/>
      <path d="M 7.171875 58.890625 
L 7.171875 71.578125 
L 20.90625 71.578125 
L 20.90625 58.890625 
z
M 7.171875 0 
L 7.171875 51.859375 
L 20.90625 51.859375 
L 20.90625 0 
z
" id="Arial-BoldMT-105"/>
      <path d="M 1.65625 0 
L 1.65625 10.6875 
L 21.09375 33.015625 
Q 25.875 38.484375 28.171875 40.765625 
Q 25.78125 40.625 21.875 40.578125 
L 3.5625 40.484375 
L 3.5625 51.859375 
L 46.4375 51.859375 
L 46.4375 42.140625 
L 26.609375 19.28125 
L 19.625 11.71875 
Q 25.34375 12.0625 26.703125 12.0625 
L 47.953125 12.0625 
L 47.953125 0 
z
" id="Arial-BoldMT-122"/>
      <path d="M 39.359375 0 
L 25.640625 0 
L 25.640625 51.703125 
Q 18.109375 44.671875 7.90625 41.3125 
L 7.90625 53.765625 
Q 13.28125 55.515625 19.578125 60.421875 
Q 25.875 65.328125 28.21875 71.875 
L 39.359375 71.875 
z
" id="Arial-BoldMT-49"/>
     </defs>
     <use xlink:href="#Arial-BoldMT-67"/>
     <use x="72.216797" xlink:href="#Arial-BoldMT-101"/>
     <use x="127.832031" xlink:href="#Arial-BoldMT-108"/>
     <use x="155.615234" xlink:href="#Arial-BoldMT-108"/>
     <use x="183.398438" xlink:href="#Arial-BoldMT-32"/>
     <use x="211.181641" xlink:href="#Arial-BoldMT-115"/>
     <use x="266.796875" xlink:href="#Arial-BoldMT-105"/>
     <use x="294.580078" xlink:href="#Arial-BoldMT-122"/>
     <use x="344.580078" xlink:href="#Arial-BoldMT-101"/>
     <use x="400.195312" xlink:href="#Arial-BoldMT-32"/>
     <use x="427.978516" xlink:href="#Arial-BoldMT-61"/>
     <use x="486.376953" xlink:href="#Arial-BoldMT-32"/>
     <use x="514.160156" xlink:href="#Arial-BoldMT-49"/>
     <use x="569.775391" xlink:href="#Arial-BoldMT-48"/>
     <use x="625.390625" xlink:href="#Arial-BoldMT-32"/>
     <use x="653.173828" xlink:href="#Arial-BoldMT-109"/>
    </g>
   </g>
   <g id="text_19">
    <g clip-path="url(#pf258c04aea)">
     <!-- 100 $^{\circ}$C -->
     <g style="fill:#5a3bfd;" transform="translate(272.872846 100.13656)rotate(-89.625557)scale(0.1 -0.1)">
      <defs>
       <path d="M 25 5.609375 
Q 19.828125 5.609375 15.359375 8.21875 
Q 10.890625 10.84375 8.25 15.375 
Q 5.609375 19.921875 5.609375 25 
Q 5.609375 30.078125 8.25 34.609375 
Q 10.890625 39.15625 15.359375 41.765625 
Q 19.828125 44.390625 25 44.390625 
Q 30.171875 44.390625 34.609375 41.75 
Q 39.0625 39.109375 41.671875 34.59375 
Q 44.28125 30.078125 44.28125 25 
Q 44.28125 19.921875 41.671875 15.40625 
Q 39.0625 10.890625 34.609375 8.25 
Q 30.171875 5.609375 25 5.609375 
z
M 25 9.625 
Q 31.25 9.625 35.765625 14.1875 
Q 40.28125 18.75 40.28125 25 
Q 40.28125 29 38.203125 32.59375 
Q 36.140625 36.1875 32.625 38.28125 
Q 29.109375 40.375 25 40.375 
Q 21.921875 40.375 19.140625 39.171875 
Q 16.359375 37.984375 14.15625 35.78125 
Q 11.96875 33.59375 10.796875 30.828125 
Q 9.625 28.078125 9.625 25 
Q 9.625 18.75 14.140625 14.1875 
Q 18.65625 9.625 25 9.625 
z
" id="Cmsy10-177"/>
       <path d="M 58.796875 25.09375 
L 68.265625 22.703125 
Q 65.28125 11.03125 57.546875 4.90625 
Q 49.8125 -1.21875 38.625 -1.21875 
Q 27.046875 -1.21875 19.796875 3.484375 
Q 12.546875 8.203125 8.765625 17.140625 
Q 4.984375 26.078125 4.984375 36.328125 
Q 4.984375 47.515625 9.25 55.828125 
Q 13.53125 64.15625 21.40625 68.46875 
Q 29.296875 72.796875 38.765625 72.796875 
Q 49.515625 72.796875 56.828125 67.328125 
Q 64.15625 61.859375 67.046875 51.953125 
L 57.71875 49.75 
Q 55.21875 57.5625 50.484375 61.125 
Q 45.75 64.703125 38.578125 64.703125 
Q 30.328125 64.703125 24.78125 60.734375 
Q 19.234375 56.78125 16.984375 50.109375 
Q 14.75 43.453125 14.75 36.375 
Q 14.75 27.25 17.40625 20.4375 
Q 20.0625 13.625 25.671875 10.25 
Q 31.296875 6.890625 37.84375 6.890625 
Q 45.796875 6.890625 51.3125 11.46875 
Q 56.84375 16.0625 58.796875 25.09375 
z
" id="ArialMT-67"/>
      </defs>
      <use transform="translate(0 0.203125)" xlink:href="#ArialMT-49"/>
      <use transform="translate(55.615234 0.203125)" xlink:href="#ArialMT-48"/>
      <use transform="translate(111.230469 0.203125)" xlink:href="#ArialMT-48"/>
      <use transform="translate(166.845703 0.203125)" xlink:href="#ArialMT-32"/>
      <use transform="translate(199.093047 38.467188)scale(0.7)" xlink:href="#Cmsy10-177"/>
      <use transform="translate(240.470391 0.203125)" xlink:href="#ArialMT-67"/>
     </g>
    </g>
   </g>
   <g id="text_20">
    <g clip-path="url(#pf258c04aea)">
     <!-- 200 $^{\circ}$C -->
     <g style="fill:#3079f7;" transform="translate(231.00094 68.905335)rotate(-271.732929)scale(0.1 -0.1)">
      <use transform="translate(0 0.203125)" xlink:href="#ArialMT-50"/>
      <use transform="translate(55.615234 0.203125)" xlink:href="#ArialMT-48"/>
      <use transform="translate(111.230469 0.203125)" xlink:href="#ArialMT-48"/>
      <use transform="translate(166.845703 0.203125)" xlink:href="#ArialMT-32"/>
      <use transform="translate(199.093047 38.467188)scale(0.7)" xlink:href="#Cmsy10-177"/>
      <use transform="translate(240.470391 0.203125)" xlink:href="#ArialMT-67"/>
     </g>
    </g>
   </g>
   <g id="text_21">
    <g clip-path="url(#pf258c04aea)">
     <!-- 300 $^{\circ}$C -->
     <g style="fill:#04b0ed;" transform="translate(200.853672 68.840655)rotate(-270.447233)scale(0.1 -0.1)">
      <use transform="translate(0 0.203125)" xlink:href="#ArialMT-51"/>
      <use transform="translate(55.615234 0.203125)" xlink:href="#ArialMT-48"/>
      <use transform="translate(111.230469 0.203125)" xlink:href="#ArialMT-48"/>
      <use transform="translate(166.845703 0.203125)" xlink:href="#ArialMT-32"/>
      <use transform="translate(199.093047 38.467188)scale(0.7)" xlink:href="#Cmsy10-177"/>
      <use transform="translate(240.470391 0.203125)" xlink:href="#ArialMT-67"/>
     </g>
    </g>
   </g>
  </g>
 </g>
 <defs>
  <clipPath id="pf258c04aea">
   <rect height="233.9" width="359.9625" x="52.925" y="14.3"/>
  </clipPath>
 </defs>
</svg>
