<svg id="Layer_1" data-name="Layer 1" xmlns="http://www.w3.org/2000/svg" xmlns:xlink="http://www.w3.org/1999/xlink" viewBox="0 0 180.73 73.09"><defs><style>.cls-1{fill:none;}.cls-2{clip-path:url(#clip-path);}.cls-3{fill:#095aa6;}.cls-4{fill:#0a0905;}</style><clipPath id="clip-path"><rect class="cls-1" x="0.06" y="0.85" width="283.39" height="94.09"/></clipPath></defs><title>geomar</title><g class="cls-2"><path class="cls-3" d="M151.48,2.68c-13-4-24.53-.75-25.46,3.19-1.47,6.3,8,10.41,13.52,12.24.82-2.41,1.65-4.6,2.46-6.52-3.94-1.24-10.42-3.8-9.49-7,.86-3,8.14-3,13.2-2.14.4.09.81.17,1.21.26,17.62,4.22,27.27,21.44,23,39S149.21,70,131.59,65.82c-.76-.18-2.43-.67-2.52-.7s0,.31.08.4a25.8,25.8,0,0,0,5.19,1.69,33.85,33.85,0,0,0,40.52-24.78A33.22,33.22,0,0,0,151.48,2.68"/></g><path class="cls-3" d="M135.48,32.12c.6-2.44,1.23-4.81,1.88-7.05-13.12-4.79-16.27-10.65-16.67-14.36-.28-2.71,1.9-5,1.9-5-3.06,2-5.72,4.12-6,6C114.65,22.81,128,29.39,135.48,32.12"/><path class="cls-3" d="M133.79,39.48c-13.68-5.2-19.34-11.91-21.34-18.33a10.24,10.24,0,0,1,.19-6.38A32.71,32.71,0,0,0,109,22a12.92,12.92,0,0,0,.53,5.67c3.4,9.85,14.61,16.08,23,19.14.34-2.23.76-4.91,1.26-7.35"/><g class="cls-2"><path class="cls-4" d="M36.92,61.71a9.88,9.88,0,1,1,9.85,9.75,9.75,9.75,0,0,1-9.85-9.75v0m4.35-.15a5.55,5.55,0,1,0,5.55-5.91,5.66,5.66,0,0,0-5.55,5.91Z"/><path class="cls-4" d="M9,60.68h7.83v9.67a25.16,25.16,0,0,1-6.21.78A11.87,11.87,0,0,1,3.2,69.06,8.69,8.69,0,0,1,0,61.89c0-6,4.32-9.9,10.85-9.9a15.12,15.12,0,0,1,5.93,1.17v4a10.65,10.65,0,0,0-5.52-1.43c-4.13,0-6.71,2.34-6.71,6.11,0,3.59,2.22,5.69,6,5.69a13.24,13.24,0,0,0,2.16-.16v-3H9V60.68"/></g><polyline class="cls-4" points="21.72 52.36 33.6 52.36 33.6 56.02 26.06 56.02 26.06 59.58 33.4 59.58 33.4 63.24 26.06 63.24 26.06 67.21 33.76 67.21 33.76 70.87 21.72 70.87 21.72 52.36"/><path class="cls-4" d="M106.28,52.42l.42,0c1.66-.13,3.64-.19,5-.19,2.78,0,4.5.37,5.85,1.34a5.43,5.43,0,0,1,2.28,4.6,5.17,5.17,0,0,1-3.38,5.08c.53.77,1,1.4,1.72,2.39,1.43,1.91,3,3.9,4,5l.23.25s-4.55.95-6.19-1.14a53.52,53.52,0,0,1-3.8-5.49l-.22-.34h-.67c-.18,0-.47,0-.8,0h-.36v6.94h-4.17V52.42m4.17,8.2a5.19,5.19,0,0,0,1.16.1c2.84,0,4-.7,4-2.5s-1.14-2.59-3.44-2.59c-.36,0-.78,0-1.21,0l-.47,0Z"/><path class="cls-4" d="M82.59,69.94c-.14-2.75-.2-4.16-.34-6.29-.08-1.12-.16-2.3-.26-3.52s-.13-1.92-.21-2.71L81.39,53l-.08-.7H76.6c-1.26,0-1.59.29-2.2,2-.82,2.24-2.07,7.09-2.59,9.06L71,66.73l-.83-3.44c-.53-2-1.78-6.83-2.61-9.06-.6-1.66-.94-2-2.19-2H60.65l-.08.7-.39,4.45c-.08.78-.13,1.46-.21,2.71s-.19,2.39-.26,3.52c-.13,2.13-.2,3.53-.33,6.29l-.06.92h4l0-.48c.08-2.25.16-4.11.34-7.46.18-3.56.22-5.19.22-6.53,0-.52,0-.72,0-.86.18.58.37,1.11.53,1.69s.36,1.23.42,1.41l.78,2.5c.31,1,.64,2.13,1.25,4.14.52,1.74,1,3.49,1.41,4.83l.21.76H73.4l.2-.76c.4-1.35.89-3.1,1.41-4.83.6-2,.94-3.13,1.25-4.14l.78-2.5c.06-.18.26-.85.41-1.41s.35-1.11.54-1.69c0,.14,0,.34,0,.86,0,1.34,0,3,.24,6.53.18,3.35.25,5.22.33,7.46l0,.48h4l0-.92"/><path class="cls-4" d="M103.7,70.09c-.83-2.4-2-5.41-3.48-8.94-.65-1.51-1.23-2.89-1.8-4.17-.19-.44-.37-.88-1.07-2.41L97,53.72l-.36-.8-.29-.62H92.39l-.29.63-.36.8-.36.84c-.7,1.53-.89,2-1.06,2.41-.58,1.28-1.15,2.66-1.8,4.17-1.46,3.53-2.66,6.54-3.49,8.94l-.28.78h4.47l.13-.47c.41-1.22.83-2.39,1.38-4l.16-.48h7l.16.48c.55,1.58,1,2.75,1.39,4l.13.47H104l-.28-.78m-9.33-7.6H92.18l.26-.75s1.55-4.29,1.92-5.6c.37,1.31,1.93,5.6,1.93,5.6l.25.75Z"/></svg>