<?xml version="1.0" encoding="utf-8"?>
<!-- Generator: Adobe Illustrator 24.3.0, SVG Export Plug-In . SVG Version: 6.00 Build 0)  -->
<svg version="1.1" id="Layer_1" xmlns="http://www.w3.org/2000/svg" xmlns:xlink="http://www.w3.org/1999/xlink" x="0px" y="0px"
	 viewBox="0 0 365.4 233.5" enable-background="new 0 0 365.4 233.5" xml:space="preserve">
<g id="patch_3">
	<path fill="none" stroke="#010101" stroke-width="0.8" stroke-linecap="square" d="M0,233.9V0"/>
</g>
<g id="patch_4">
	<path fill="none" stroke="#010101" stroke-width="0.8" stroke-linecap="square" d="M365.4,233.9V0"/>
</g>
<g id="patch_6">
	<path fill="none" stroke="#010101" stroke-width="0.8" stroke-linecap="square" d="M0,0h365.4"/>
</g>
<g id="LineCollection_1">
	
		<image overflow="visible" enable-background="new    " width="1525" height="983" xlink:href="D61F32AC3ED87DB0.png"  transform="matrix(0.2383 0 0 0.2383 0.9445 -0.21)">
	</image>
</g>
<g id="LineCollection_2">
	
		<image overflow="visible" enable-background="new    " width="1525" height="983" xlink:href="D61F32AC3ED87DBF.png"  transform="matrix(0.2383 0 0 0.2383 0.9445 -0.21)">
	</image>
</g>
<g id="LineCollection_3">
	
		<image overflow="visible" enable-background="new    " width="1525" height="983" xlink:href="D61F32AC3ED87DBC.png"  transform="matrix(0.2383 0 0 0.2383 0.9445 -0.21)">
	</image>
</g>
<g id="LineCollection_4">
	
		<image overflow="visible" enable-background="new    " width="1525" height="983" xlink:href="D61F32AC3ED87DA5.png"  transform="matrix(0.2383 0 0 0.2383 0.9445 -0.21)">
	</image>
</g>
<g id="LineCollection_5">
	
		<image overflow="visible" enable-background="new    " width="1525" height="983" xlink:href="D61F32AC3ED87DA6.png"  transform="matrix(0.2383 0 0 0.2383 0.9445 -0.21)">
	</image>
</g>
<g id="LineCollection_6">
	
		<image overflow="visible" enable-background="new    " width="1525" height="983" xlink:href="D61F32AC3ED87DA7.png"  transform="matrix(0.2383 0 0 0.2383 0.9445 -0.21)">
	</image>
</g>
<g id="LineCollection_7">
	
		<image overflow="visible" enable-background="new    " width="1525" height="983" xlink:href="D61F32AC3ED87DA8.png"  transform="matrix(0.2383 0 0 0.2383 0.9445 -0.21)">
	</image>
</g>
<g id="LineCollection_8">
	
		<image overflow="visible" enable-background="new    " width="1525" height="983" xlink:href="D61F32AC3ED87DA9.png"  transform="matrix(0.2383 0 0 0.2383 0.9445 -0.21)">
	</image>
</g>
<g id="LineCollection_9">
	
		<image overflow="visible" enable-background="new    " width="1525" height="983" xlink:href="D61F32AC3ED87DAA.png"  transform="matrix(0.2383 0 0 0.2383 0.9445 -0.21)">
	</image>
	
		<image overflow="visible" enable-background="new    " width="1525" height="983" xlink:href="F28252E5154A2662.png"  transform="matrix(0.2383 0 0 0.2383 0.9445 -0.21)">
	</image>
	
		<image overflow="visible" enable-background="new    " width="1525" height="983" xlink:href="F28252E5154A2663.png"  transform="matrix(0.2383 0 0 0.2383 0.9445 -0.21)">
	</image>
</g>
<g id="LineCollection_10">
	
		<image overflow="visible" enable-background="new    " width="1525" height="983" xlink:href="F28252E5154A2664.png"  transform="matrix(0.2383 0 0 0.2383 0.9445 -0.21)">
	</image>
	
		<image overflow="visible" enable-background="new    " width="1525" height="983" xlink:href="F28252E5154A2665.png"  transform="matrix(0.2383 0 0 0.2383 0.9445 -0.21)">
	</image>
	
		<image overflow="visible" enable-background="new    " width="1525" height="983" xlink:href="F28252E5154A2660.png"  transform="matrix(0.2383 0 0 0.2383 0.9445 -0.21)">
	</image>
</g>
<g id="LineCollection_11">
	
		<image overflow="visible" enable-background="new    " width="1525" height="983" xlink:href="F28252E5154A2661.png"  transform="matrix(0.2383 0 0 0.2383 0.9445 -0.21)">
	</image>
	
		<image overflow="visible" enable-background="new    " width="1525" height="983" xlink:href="F28252E5154A267C.png"  transform="matrix(0.2383 0 0 0.2383 0.9445 -0.21)">
	</image>
	
		<image overflow="visible" enable-background="new    " width="1525" height="983" xlink:href="F28252E5154A267D.png"  transform="matrix(0.2383 0 0 0.2383 0.9445 -0.21)">
	</image>
</g>
<g id="text_20">
	
		<image overflow="visible" enable-background="new    " width="1525" height="983" xlink:href="F28252E5154A267E.png"  transform="matrix(0.2383 0 0 0.2383 0.9445 -0.21)">
	</image>
</g>
<g id="text_21">
	
		<image overflow="visible" enable-background="new    " width="1525" height="983" xlink:href="F28252E5154A267F.png"  transform="matrix(0.2383 0 0 0.2383 0.9445 -0.21)">
	</image>
</g>
<g id="text_22">
	
		<image overflow="visible" enable-background="new    " width="1525" height="983" xlink:href="F28252E5154A262E.png"  transform="matrix(0.2383 0 0 0.2383 0.9445 -0.21)">
	</image>
</g>
<g id="patch_5">
	<path fill="none" stroke="#010101" stroke-width="0.8" stroke-linecap="square" d="M0,233.9h365.4"/>
</g>
</svg>
