<?xml version="1.0" encoding="utf-8" standalone="no"?>
<!DOCTYPE svg PUBLIC "-//W3C//DTD SVG 1.1//EN"
  "http://www.w3.org/Graphics/SVG/1.1/DTD/svg11.dtd">
<!-- Created with matplotlib (https://matplotlib.org/) -->
<svg height="694.68pt" version="1.1" viewBox="0 0 694.68 694.68" width="694.68pt" xmlns="http://www.w3.org/2000/svg" xmlns:xlink="http://www.w3.org/1999/xlink">
 <metadata>
  <rdf:RDF xmlns:cc="http://creativecommons.org/ns#" xmlns:dc="http://purl.org/dc/elements/1.1/" xmlns:rdf="http://www.w3.org/1999/02/22-rdf-syntax-ns#">
   <cc:Work>
    <dc:type rdf:resource="http://purl.org/dc/dcmitype/StillImage"/>
    <dc:date>2021-06-04T11:21:04.566649</dc:date>
    <dc:format>image/svg+xml</dc:format>
    <dc:creator>
     <cc:Agent>
      <dc:title>Matplotlib v3.3.2, https://matplotlib.org/</dc:title>
     </cc:Agent>
    </dc:creator>
   </cc:Work>
  </rdf:RDF>
 </metadata>
 <defs>
  <style type="text/css">*{stroke-linecap:butt;stroke-linejoin:round;}</style>
 </defs>
 <g id="figure_1">
  <g id="patch_1">
   <path d="M 0 694.68 
L 694.68 694.68 
L 694.68 0 
L 0 0 
z
" style="fill:#ffffff;"/>
  </g>
  <g id="axes_1">
   <g id="patch_2">
    <path d="M 679.98 14.7 
L 471.579584 189.095177 
L 679.98 236.46 
z
" style="fill:#1f77b4;stroke:#000000;stroke-linejoin:miter;"/>
   </g>
   <g id="patch_3">
    <path d="M 458.22 14.7 
L 471.579584 189.095177 
L 679.98 14.7 
z
" style="fill:#aec7e8;stroke:#000000;stroke-linejoin:miter;"/>
   </g>
   <g id="patch_4">
    <path d="M 269.986256 190.213395 
L 471.579584 189.095177 
L 458.22 14.7 
z
" style="fill:#ff7f0e;stroke:#000000;stroke-linejoin:miter;"/>
   </g>
   <g id="patch_5">
    <path d="M 236.46 14.7 
L 269.986256 190.213395 
L 458.22 14.7 
z
" style="fill:#ffbb78;stroke:#000000;stroke-linejoin:miter;"/>
   </g>
   <g id="patch_6">
    <path d="M 471.579584 189.095177 
L 541.272488 316.398722 
L 679.98 236.46 
z
" style="fill:#2ca02c;stroke:#000000;stroke-linejoin:miter;"/>
   </g>
   <g id="patch_7">
    <path d="M 679.98 458.22 
L 567.294079 564.322095 
L 679.98 679.98 
z
" style="fill:#98df8a;stroke:#000000;stroke-linejoin:miter;"/>
   </g>
   <g id="patch_8">
    <path d="M 14.7 14.7 
L 131.783751 117.559056 
L 236.46 14.7 
z
" style="fill:#d62728;stroke:#000000;stroke-linejoin:miter;"/>
   </g>
   <g id="patch_9">
    <path d="M 347.34 347.34 
L 541.272488 316.398722 
L 471.579584 189.095177 
z
" style="fill:#ff9896;stroke:#000000;stroke-linejoin:miter;"/>
   </g>
   <g id="patch_10">
    <path d="M 494.730393 444.230474 
L 541.272488 316.398722 
L 347.34 347.34 
z
" style="fill:#9467bd;stroke:#000000;stroke-linejoin:miter;"/>
   </g>
   <g id="patch_11">
    <path d="M 347.34 347.34 
L 471.579584 189.095177 
L 269.986256 190.213395 
z
" style="fill:#c5b0d5;stroke:#000000;stroke-linejoin:miter;"/>
   </g>
   <g id="patch_12">
    <path d="M 347.34 513.66 
L 494.730393 444.230474 
L 347.34 347.34 
z
" style="fill:#8c564b;stroke:#000000;stroke-linejoin:miter;"/>
   </g>
   <g id="patch_13">
    <path d="M 347.34 347.34 
L 269.986256 190.213395 
L 181.02 347.34 
z
" style="fill:#c49c94;stroke:#000000;stroke-linejoin:miter;"/>
   </g>
   <g id="patch_14">
    <path d="M 513.66 679.98 
L 464.463423 563.686285 
L 347.34 679.98 
z
" style="fill:#e377c2;stroke:#000000;stroke-linejoin:miter;"/>
   </g>
   <g id="patch_15">
    <path d="M 181.02 347.34 
L 128.825919 231.730658 
L 14.7 347.34 
z
" style="fill:#f7b6d2;stroke:#000000;stroke-linejoin:miter;"/>
   </g>
   <g id="patch_16">
    <path d="M 347.34 679.98 
L 464.463423 563.686285 
L 347.34 513.66 
z
" style="fill:#7f7f7f;stroke:#000000;stroke-linejoin:miter;"/>
   </g>
   <g id="patch_17">
    <path d="M 14.7 347.34 
L 128.825919 231.730658 
L 14.7 181.02 
z
" style="fill:#c7c7c7;stroke:#000000;stroke-linejoin:miter;"/>
   </g>
   <g id="patch_18">
    <path d="M 679.98 236.46 
L 541.272488 316.398722 
L 679.98 458.22 
z
" style="fill:#bcbd22;stroke:#000000;stroke-linejoin:miter;"/>
   </g>
   <g id="patch_19">
    <path d="M 679.98 458.22 
L 541.272488 316.398722 
L 494.730393 444.230474 
z
" style="fill:#dbdb8d;stroke:#000000;stroke-linejoin:miter;"/>
   </g>
   <g id="patch_20">
    <path d="M 14.7 181.02 
L 131.783751 117.559056 
L 14.7 14.7 
z
" style="fill:#17becf;stroke:#000000;stroke-linejoin:miter;"/>
   </g>
   <g id="patch_21">
    <path d="M 679.98 679.98 
L 567.294079 564.322095 
L 513.66 679.98 
z
" style="fill:#9edae5;stroke:#000000;stroke-linejoin:miter;"/>
   </g>
   <g id="patch_22">
    <path d="M 236.46 14.7 
L 131.783751 117.559056 
L 269.986256 190.213395 
z
" style="fill:#1f77b4;stroke:#000000;stroke-linejoin:miter;"/>
   </g>
   <g id="patch_23">
    <path d="M 494.730393 444.230474 
L 567.294079 564.322095 
L 679.98 458.22 
z
" style="fill:#aec7e8;stroke:#000000;stroke-linejoin:miter;"/>
   </g>
   <g id="patch_24">
    <path d="M 347.34 513.66 
L 464.463423 563.686285 
L 494.730393 444.230474 
z
" style="fill:#ff7f0e;stroke:#000000;stroke-linejoin:miter;"/>
   </g>
   <g id="patch_25">
    <path d="M 269.986256 190.213395 
L 128.825919 231.730658 
L 181.02 347.34 
z
" style="fill:#ffbb78;stroke:#000000;stroke-linejoin:miter;"/>
   </g>
   <g id="patch_26">
    <path d="M 131.783751 117.559056 
L 128.825919 231.730658 
L 269.986256 190.213395 
z
" style="fill:#2ca02c;stroke:#000000;stroke-linejoin:miter;"/>
   </g>
   <g id="patch_27">
    <path d="M 494.730393 444.230474 
L 464.463423 563.686285 
L 567.294079 564.322095 
z
" style="fill:#98df8a;stroke:#000000;stroke-linejoin:miter;"/>
   </g>
   <g id="patch_28">
    <path d="M 567.294079 564.322095 
L 464.463423 563.686285 
L 513.66 679.98 
z
" style="fill:#d62728;stroke:#000000;stroke-linejoin:miter;"/>
   </g>
   <g id="patch_29">
    <path d="M 14.7 181.02 
L 128.825919 231.730658 
L 131.783751 117.559056 
z
" style="fill:#ff9896;stroke:#000000;stroke-linejoin:miter;"/>
   </g>
   <g id="line2d_1">
    <path d="M 347.34 347.34 
" style="fill:none;stroke:#1f77b4;stroke-linecap:square;stroke-width:1.5;"/>
    <defs>
     <path d="M 0 7.5 
C 1.989023 7.5 3.896849 6.709753 5.303301 5.303301 
C 6.709753 3.896849 7.5 1.989023 7.5 0 
C 7.5 -1.989023 6.709753 -3.896849 5.303301 -5.303301 
C 3.896849 -6.709753 1.989023 -7.5 0 -7.5 
C -1.989023 -7.5 -3.896849 -6.709753 -5.303301 -5.303301 
C -6.709753 -3.896849 -7.5 -1.989023 -7.5 0 
C -7.5 1.989023 -6.709753 3.896849 -5.303301 5.303301 
C -3.896849 6.709753 -1.989023 7.5 0 7.5 
z
" id="m99320ce5cb" style="stroke:#000000;"/>
    </defs>
    <g>
     <use style="fill:#ffffff;stroke:#000000;" x="347.34" xlink:href="#m99320ce5cb" y="347.34"/>
    </g>
   </g>
   <g id="line2d_2">
    <path d="M 14.7 347.34 
" style="fill:none;stroke:#ff7f0e;stroke-linecap:square;stroke-width:1.5;"/>
    <g>
     <use style="fill:#ffffff;stroke:#000000;" x="14.7" xlink:href="#m99320ce5cb" y="347.34"/>
    </g>
   </g>
   <g id="line2d_3">
    <path d="M 14.7 14.7 
" style="fill:none;stroke:#2ca02c;stroke-linecap:square;stroke-width:1.5;"/>
    <g>
     <use style="fill:#ffffff;stroke:#000000;" x="14.7" xlink:href="#m99320ce5cb" y="14.7"/>
    </g>
   </g>
   <g id="line2d_4">
    <path d="M 679.98 14.7 
" style="fill:none;stroke:#d62728;stroke-linecap:square;stroke-width:1.5;"/>
    <g>
     <use style="fill:#ffffff;stroke:#000000;" x="679.98" xlink:href="#m99320ce5cb" y="14.7"/>
    </g>
   </g>
   <g id="line2d_5">
    <path d="M 679.98 679.98 
" style="fill:none;stroke:#9467bd;stroke-linecap:square;stroke-width:1.5;"/>
    <g>
     <use style="fill:#ffffff;stroke:#000000;" x="679.98" xlink:href="#m99320ce5cb" y="679.98"/>
    </g>
   </g>
   <g id="line2d_6">
    <path d="M 347.34 679.98 
" style="fill:none;stroke:#8c564b;stroke-linecap:square;stroke-width:1.5;"/>
    <g>
     <use style="fill:#ffffff;stroke:#000000;" x="347.34" xlink:href="#m99320ce5cb" y="679.98"/>
    </g>
   </g>
   <g id="line2d_7">
    <path d="M 347.34 513.66 
" style="fill:none;stroke:#e377c2;stroke-linecap:square;stroke-width:1.5;"/>
    <g>
     <use style="fill:#ffffff;stroke:#000000;" x="347.34" xlink:href="#m99320ce5cb" y="513.66"/>
    </g>
   </g>
   <g id="line2d_8">
    <path d="M 181.02 347.34 
" style="fill:none;stroke:#7f7f7f;stroke-linecap:square;stroke-width:1.5;"/>
    <g>
     <use style="fill:#ffffff;stroke:#000000;" x="181.02" xlink:href="#m99320ce5cb" y="347.34"/>
    </g>
   </g>
   <g id="line2d_9">
    <path d="M 14.7 181.02 
" style="fill:none;stroke:#bcbd22;stroke-linecap:square;stroke-width:1.5;"/>
    <g>
     <use style="fill:#ffffff;stroke:#000000;" x="14.7" xlink:href="#m99320ce5cb" y="181.02"/>
    </g>
   </g>
   <g id="line2d_10">
    <path d="M 236.46 14.7 
" style="fill:none;stroke:#17becf;stroke-linecap:square;stroke-width:1.5;"/>
    <g>
     <use style="fill:#ffffff;stroke:#000000;" x="236.46" xlink:href="#m99320ce5cb" y="14.7"/>
    </g>
   </g>
   <g id="line2d_11">
    <path d="M 458.22 14.7 
" style="fill:none;stroke:#1f77b4;stroke-linecap:square;stroke-width:1.5;"/>
    <g>
     <use style="fill:#ffffff;stroke:#000000;" x="458.22" xlink:href="#m99320ce5cb" y="14.7"/>
    </g>
   </g>
   <g id="line2d_12">
    <path d="M 679.98 236.46 
" style="fill:none;stroke:#ff7f0e;stroke-linecap:square;stroke-width:1.5;"/>
    <g>
     <use style="fill:#ffffff;stroke:#000000;" x="679.98" xlink:href="#m99320ce5cb" y="236.46"/>
    </g>
   </g>
   <g id="line2d_13">
    <path d="M 679.98 458.22 
" style="fill:none;stroke:#2ca02c;stroke-linecap:square;stroke-width:1.5;"/>
    <g>
     <use style="fill:#ffffff;stroke:#000000;" x="679.98" xlink:href="#m99320ce5cb" y="458.22"/>
    </g>
   </g>
   <g id="line2d_14">
    <path d="M 513.66 679.98 
" style="fill:none;stroke:#d62728;stroke-linecap:square;stroke-width:1.5;"/>
    <g>
     <use style="fill:#ffffff;stroke:#000000;" x="513.66" xlink:href="#m99320ce5cb" y="679.98"/>
    </g>
   </g>
   <g id="line2d_15">
    <path d="M 269.986256 190.213395 
" style="fill:none;stroke:#9467bd;stroke-linecap:square;stroke-width:1.5;"/>
    <g>
     <use style="fill:#ffffff;stroke:#000000;" x="269.986256" xlink:href="#m99320ce5cb" y="190.213395"/>
    </g>
   </g>
   <g id="line2d_16">
    <path d="M 494.730393 444.230474 
" style="fill:none;stroke:#8c564b;stroke-linecap:square;stroke-width:1.5;"/>
    <g>
     <use style="fill:#ffffff;stroke:#000000;" x="494.730393" xlink:href="#m99320ce5cb" y="444.230474"/>
    </g>
   </g>
   <g id="line2d_17">
    <path d="M 471.579584 189.095177 
" style="fill:none;stroke:#e377c2;stroke-linecap:square;stroke-width:1.5;"/>
    <g>
     <use style="fill:#ffffff;stroke:#000000;" x="471.579584" xlink:href="#m99320ce5cb" y="189.095177"/>
    </g>
   </g>
   <g id="line2d_18">
    <path d="M 567.294079 564.322095 
" style="fill:none;stroke:#7f7f7f;stroke-linecap:square;stroke-width:1.5;"/>
    <g>
     <use style="fill:#ffffff;stroke:#000000;" x="567.294079" xlink:href="#m99320ce5cb" y="564.322095"/>
    </g>
   </g>
   <g id="line2d_19">
    <path d="M 131.783751 117.559056 
" style="fill:none;stroke:#bcbd22;stroke-linecap:square;stroke-width:1.5;"/>
    <g>
     <use style="fill:#ffffff;stroke:#000000;" x="131.783751" xlink:href="#m99320ce5cb" y="117.559056"/>
    </g>
   </g>
   <g id="line2d_20">
    <path d="M 464.463423 563.686285 
" style="fill:none;stroke:#17becf;stroke-linecap:square;stroke-width:1.5;"/>
    <g>
     <use style="fill:#ffffff;stroke:#000000;" x="464.463423" xlink:href="#m99320ce5cb" y="563.686285"/>
    </g>
   </g>
   <g id="line2d_21">
    <path d="M 128.825919 231.730658 
" style="fill:none;stroke:#1f77b4;stroke-linecap:square;stroke-width:1.5;"/>
    <g>
     <use style="fill:#ffffff;stroke:#000000;" x="128.825919" xlink:href="#m99320ce5cb" y="231.730658"/>
    </g>
   </g>
   <g id="line2d_22">
    <path d="M 541.272488 316.398722 
" style="fill:none;stroke:#ff7f0e;stroke-linecap:square;stroke-width:1.5;"/>
    <g>
     <use style="fill:#ffffff;stroke:#000000;" x="541.272488" xlink:href="#m99320ce5cb" y="316.398722"/>
    </g>
   </g>
   <g id="text_1">
    <g id="patch_30">
     <path d="M 588.002257 154.324382 
L 633.024132 154.324382 
Q 636.024132 154.324382 636.024132 151.324382 
L 636.024132 142.17907 
Q 636.024132 139.17907 633.024132 139.17907 
L 588.002257 139.17907 
Q 585.002257 139.17907 585.002257 142.17907 
L 585.002257 151.324382 
Q 585.002257 154.324382 588.002257 154.324382 
z
" style="fill:#d3d3d3;"/>
    </g>
    <!-- Element 0 -->
    <g transform="translate(588.002257 149.336882)scale(0.1 -0.1)">
     <defs>
      <path d="M 7.90625 0 
L 7.90625 71.578125 
L 59.671875 71.578125 
L 59.671875 63.140625 
L 17.390625 63.140625 
L 17.390625 41.21875 
L 56.984375 41.21875 
L 56.984375 32.8125 
L 17.390625 32.8125 
L 17.390625 8.453125 
L 61.328125 8.453125 
L 61.328125 0 
z
" id="ArialMT-69"/>
      <path d="M 6.390625 0 
L 6.390625 71.578125 
L 15.1875 71.578125 
L 15.1875 0 
z
" id="ArialMT-108"/>
      <path d="M 42.09375 16.703125 
L 51.171875 15.578125 
Q 49.03125 7.625 43.21875 3.21875 
Q 37.40625 -1.171875 28.375 -1.171875 
Q 17 -1.171875 10.328125 5.828125 
Q 3.65625 12.84375 3.65625 25.484375 
Q 3.65625 38.578125 10.390625 45.796875 
Q 17.140625 53.03125 27.875 53.03125 
Q 38.28125 53.03125 44.875 45.953125 
Q 51.46875 38.875 51.46875 26.03125 
Q 51.46875 25.25 51.421875 23.6875 
L 12.75 23.6875 
Q 13.234375 15.140625 17.578125 10.59375 
Q 21.921875 6.0625 28.421875 6.0625 
Q 33.25 6.0625 36.671875 8.59375 
Q 40.09375 11.140625 42.09375 16.703125 
z
M 13.234375 30.90625 
L 42.1875 30.90625 
Q 41.609375 37.453125 38.875 40.71875 
Q 34.671875 45.796875 27.984375 45.796875 
Q 21.921875 45.796875 17.796875 41.75 
Q 13.671875 37.703125 13.234375 30.90625 
z
" id="ArialMT-101"/>
      <path d="M 6.59375 0 
L 6.59375 51.859375 
L 14.453125 51.859375 
L 14.453125 44.578125 
Q 16.890625 48.390625 20.9375 50.703125 
Q 25 53.03125 30.171875 53.03125 
Q 35.9375 53.03125 39.625 50.640625 
Q 43.3125 48.25 44.828125 43.953125 
Q 50.984375 53.03125 60.84375 53.03125 
Q 68.5625 53.03125 72.703125 48.75 
Q 76.859375 44.484375 76.859375 35.59375 
L 76.859375 0 
L 68.109375 0 
L 68.109375 32.671875 
Q 68.109375 37.9375 67.25 40.25 
Q 66.40625 42.578125 64.15625 43.984375 
Q 61.921875 45.40625 58.890625 45.40625 
Q 53.421875 45.40625 49.796875 41.765625 
Q 46.1875 38.140625 46.1875 30.125 
L 46.1875 0 
L 37.40625 0 
L 37.40625 33.6875 
Q 37.40625 39.546875 35.25 42.46875 
Q 33.109375 45.40625 28.21875 45.40625 
Q 24.515625 45.40625 21.359375 43.453125 
Q 18.21875 41.5 16.796875 37.734375 
Q 15.375 33.984375 15.375 26.90625 
L 15.375 0 
z
" id="ArialMT-109"/>
      <path d="M 6.59375 0 
L 6.59375 51.859375 
L 14.5 51.859375 
L 14.5 44.484375 
Q 20.21875 53.03125 31 53.03125 
Q 35.6875 53.03125 39.625 51.34375 
Q 43.5625 49.65625 45.515625 46.921875 
Q 47.46875 44.1875 48.25 40.4375 
Q 48.734375 37.984375 48.734375 31.890625 
L 48.734375 0 
L 39.9375 0 
L 39.9375 31.546875 
Q 39.9375 36.921875 38.90625 39.578125 
Q 37.890625 42.234375 35.28125 43.8125 
Q 32.671875 45.40625 29.15625 45.40625 
Q 23.53125 45.40625 19.453125 41.84375 
Q 15.375 38.28125 15.375 28.328125 
L 15.375 0 
z
" id="ArialMT-110"/>
      <path d="M 25.78125 7.859375 
L 27.046875 0.09375 
Q 23.34375 -0.6875 20.40625 -0.6875 
Q 15.625 -0.6875 12.984375 0.828125 
Q 10.359375 2.34375 9.28125 4.8125 
Q 8.203125 7.28125 8.203125 15.1875 
L 8.203125 45.015625 
L 1.765625 45.015625 
L 1.765625 51.859375 
L 8.203125 51.859375 
L 8.203125 64.703125 
L 16.9375 69.96875 
L 16.9375 51.859375 
L 25.78125 51.859375 
L 25.78125 45.015625 
L 16.9375 45.015625 
L 16.9375 14.703125 
Q 16.9375 10.9375 17.40625 9.859375 
Q 17.875 8.796875 18.921875 8.15625 
Q 19.96875 7.515625 21.921875 7.515625 
Q 23.390625 7.515625 25.78125 7.859375 
z
" id="ArialMT-116"/>
      <path id="ArialMT-32"/>
      <path d="M 4.15625 35.296875 
Q 4.15625 48 6.765625 55.734375 
Q 9.375 63.484375 14.515625 67.671875 
Q 19.671875 71.875 27.484375 71.875 
Q 33.25 71.875 37.59375 69.546875 
Q 41.9375 67.234375 44.765625 62.859375 
Q 47.609375 58.5 49.21875 52.21875 
Q 50.828125 45.953125 50.828125 35.296875 
Q 50.828125 22.703125 48.234375 14.96875 
Q 45.65625 7.234375 40.5 3 
Q 35.359375 -1.21875 27.484375 -1.21875 
Q 17.140625 -1.21875 11.234375 6.203125 
Q 4.15625 15.140625 4.15625 35.296875 
z
M 13.1875 35.296875 
Q 13.1875 17.671875 17.3125 11.828125 
Q 21.4375 6 27.484375 6 
Q 33.546875 6 37.671875 11.859375 
Q 41.796875 17.71875 41.796875 35.296875 
Q 41.796875 52.984375 37.671875 58.78125 
Q 33.546875 64.59375 27.390625 64.59375 
Q 21.34375 64.59375 17.71875 59.46875 
Q 13.1875 52.9375 13.1875 35.296875 
z
" id="ArialMT-48"/>
     </defs>
     <use xlink:href="#ArialMT-69"/>
     <use x="66.699219" xlink:href="#ArialMT-108"/>
     <use x="88.916016" xlink:href="#ArialMT-101"/>
     <use x="144.53125" xlink:href="#ArialMT-109"/>
     <use x="227.832031" xlink:href="#ArialMT-101"/>
     <use x="283.447266" xlink:href="#ArialMT-110"/>
     <use x="339.0625" xlink:href="#ArialMT-116"/>
     <use x="366.845703" xlink:href="#ArialMT-32"/>
     <use x="394.628906" xlink:href="#ArialMT-48"/>
    </g>
   </g>
   <g id="text_2">
    <g id="patch_31">
     <path d="M 514.082257 80.404382 
L 559.104132 80.404382 
Q 562.104132 80.404382 562.104132 77.404382 
L 562.104132 68.25907 
Q 562.104132 65.25907 559.104132 65.25907 
L 514.082257 65.25907 
Q 511.082257 65.25907 511.082257 68.25907 
L 511.082257 77.404382 
Q 511.082257 80.404382 514.082257 80.404382 
z
" style="fill:#d3d3d3;"/>
    </g>
    <!-- Element 1 -->
    <g transform="translate(514.082257 75.416882)scale(0.1 -0.1)">
     <defs>
      <path d="M 37.25 0 
L 28.46875 0 
L 28.46875 56 
Q 25.296875 52.984375 20.140625 49.953125 
Q 14.984375 46.921875 10.890625 45.40625 
L 10.890625 53.90625 
Q 18.265625 57.375 23.78125 62.296875 
Q 29.296875 67.234375 31.59375 71.875 
L 37.25 71.875 
z
" id="ArialMT-49"/>
     </defs>
     <use xlink:href="#ArialMT-69"/>
     <use x="66.699219" xlink:href="#ArialMT-108"/>
     <use x="88.916016" xlink:href="#ArialMT-101"/>
     <use x="144.53125" xlink:href="#ArialMT-109"/>
     <use x="227.832031" xlink:href="#ArialMT-101"/>
     <use x="283.447266" xlink:href="#ArialMT-110"/>
     <use x="339.0625" xlink:href="#ArialMT-116"/>
     <use x="366.845703" xlink:href="#ArialMT-32"/>
     <use x="394.628906" xlink:href="#ArialMT-49"/>
    </g>
   </g>
   <g id="text_3">
    <g id="patch_32">
     <path d="M 377.417676 138.908847 
L 422.439551 138.908847 
Q 425.439551 138.908847 425.439551 135.908847 
L 425.439551 126.763535 
Q 425.439551 123.763535 422.439551 123.763535 
L 377.417676 123.763535 
Q 374.417676 123.763535 374.417676 126.763535 
L 374.417676 135.908847 
Q 374.417676 138.908847 377.417676 138.908847 
z
" style="fill:#d3d3d3;"/>
    </g>
    <!-- Element 2 -->
    <g transform="translate(377.417676 133.921347)scale(0.1 -0.1)">
     <defs>
      <path d="M 50.34375 8.453125 
L 50.34375 0 
L 3.03125 0 
Q 2.9375 3.171875 4.046875 6.109375 
Q 5.859375 10.9375 9.828125 15.625 
Q 13.8125 20.3125 21.34375 26.46875 
Q 33.015625 36.03125 37.109375 41.625 
Q 41.21875 47.21875 41.21875 52.203125 
Q 41.21875 57.421875 37.46875 61 
Q 33.734375 64.59375 27.734375 64.59375 
Q 21.390625 64.59375 17.578125 60.78125 
Q 13.765625 56.984375 13.71875 50.25 
L 4.6875 51.171875 
Q 5.609375 61.28125 11.65625 66.578125 
Q 17.71875 71.875 27.9375 71.875 
Q 38.234375 71.875 44.234375 66.15625 
Q 50.25 60.453125 50.25 52 
Q 50.25 47.703125 48.484375 43.546875 
Q 46.734375 39.40625 42.65625 34.8125 
Q 38.578125 30.21875 29.109375 22.21875 
Q 21.1875 15.578125 18.9375 13.203125 
Q 16.703125 10.84375 15.234375 8.453125 
z
" id="ArialMT-50"/>
     </defs>
     <use xlink:href="#ArialMT-69"/>
     <use x="66.699219" xlink:href="#ArialMT-108"/>
     <use x="88.916016" xlink:href="#ArialMT-101"/>
     <use x="144.53125" xlink:href="#ArialMT-109"/>
     <use x="227.832031" xlink:href="#ArialMT-101"/>
     <use x="283.447266" xlink:href="#ArialMT-110"/>
     <use x="339.0625" xlink:href="#ArialMT-116"/>
     <use x="366.845703" xlink:href="#ArialMT-32"/>
     <use x="394.628906" xlink:href="#ArialMT-50"/>
    </g>
   </g>
   <g id="text_4">
    <g id="patch_33">
     <path d="M 299.044481 80.777121 
L 344.066356 80.777121 
Q 347.066356 80.777121 347.066356 77.777121 
L 347.066356 68.631809 
Q 347.066356 65.631809 344.066356 65.631809 
L 299.044481 65.631809 
Q 296.044481 65.631809 296.044481 68.631809 
L 296.044481 77.777121 
Q 296.044481 80.777121 299.044481 80.777121 
z
" style="fill:#d3d3d3;"/>
    </g>
    <!-- Element 3 -->
    <g transform="translate(299.044481 75.789621)scale(0.1 -0.1)">
     <defs>
      <path d="M 4.203125 18.890625 
L 12.984375 20.0625 
Q 14.5 12.59375 18.140625 9.296875 
Q 21.78125 6 27 6 
Q 33.203125 6 37.46875 10.296875 
Q 41.75 14.59375 41.75 20.953125 
Q 41.75 27 37.796875 30.921875 
Q 33.84375 34.859375 27.734375 34.859375 
Q 25.25 34.859375 21.53125 33.890625 
L 22.515625 41.609375 
Q 23.390625 41.5 23.921875 41.5 
Q 29.546875 41.5 34.03125 44.421875 
Q 38.53125 47.359375 38.53125 53.46875 
Q 38.53125 58.296875 35.25 61.46875 
Q 31.984375 64.65625 26.8125 64.65625 
Q 21.6875 64.65625 18.265625 61.421875 
Q 14.84375 58.203125 13.875 51.765625 
L 5.078125 53.328125 
Q 6.6875 62.15625 12.390625 67.015625 
Q 18.109375 71.875 26.609375 71.875 
Q 32.46875 71.875 37.390625 69.359375 
Q 42.328125 66.84375 44.9375 62.5 
Q 47.5625 58.15625 47.5625 53.265625 
Q 47.5625 48.640625 45.0625 44.828125 
Q 42.578125 41.015625 37.703125 38.765625 
Q 44.046875 37.3125 47.5625 32.6875 
Q 51.078125 28.078125 51.078125 21.140625 
Q 51.078125 11.765625 44.234375 5.25 
Q 37.40625 -1.265625 26.953125 -1.265625 
Q 17.53125 -1.265625 11.296875 4.34375 
Q 5.078125 9.96875 4.203125 18.890625 
z
" id="ArialMT-51"/>
     </defs>
     <use xlink:href="#ArialMT-69"/>
     <use x="66.699219" xlink:href="#ArialMT-108"/>
     <use x="88.916016" xlink:href="#ArialMT-101"/>
     <use x="144.53125" xlink:href="#ArialMT-109"/>
     <use x="227.832031" xlink:href="#ArialMT-101"/>
     <use x="283.447266" xlink:href="#ArialMT-110"/>
     <use x="339.0625" xlink:href="#ArialMT-116"/>
     <use x="366.845703" xlink:href="#ArialMT-32"/>
     <use x="394.628906" xlink:href="#ArialMT-51"/>
    </g>
   </g>
   <g id="text_5">
    <g id="patch_34">
     <path d="M 541.76642 254.890623 
L 586.788295 254.890623 
Q 589.788295 254.890623 589.788295 251.890623 
L 589.788295 242.74531 
Q 589.788295 239.74531 586.788295 239.74531 
L 541.76642 239.74531 
Q 538.76642 239.74531 538.76642 242.74531 
L 538.76642 251.890623 
Q 538.76642 254.890623 541.76642 254.890623 
z
" style="fill:#d3d3d3;"/>
    </g>
    <!-- Element 4 -->
    <g transform="translate(541.76642 249.903123)scale(0.1 -0.1)">
     <defs>
      <path d="M 32.328125 0 
L 32.328125 17.140625 
L 1.265625 17.140625 
L 1.265625 25.203125 
L 33.9375 71.578125 
L 41.109375 71.578125 
L 41.109375 25.203125 
L 50.78125 25.203125 
L 50.78125 17.140625 
L 41.109375 17.140625 
L 41.109375 0 
z
M 32.328125 25.203125 
L 32.328125 57.46875 
L 9.90625 25.203125 
z
" id="ArialMT-52"/>
     </defs>
     <use xlink:href="#ArialMT-69"/>
     <use x="66.699219" xlink:href="#ArialMT-108"/>
     <use x="88.916016" xlink:href="#ArialMT-101"/>
     <use x="144.53125" xlink:href="#ArialMT-109"/>
     <use x="227.832031" xlink:href="#ArialMT-101"/>
     <use x="283.447266" xlink:href="#ArialMT-110"/>
     <use x="339.0625" xlink:href="#ArialMT-116"/>
     <use x="366.845703" xlink:href="#ArialMT-32"/>
     <use x="394.628906" xlink:href="#ArialMT-52"/>
    </g>
   </g>
   <g id="text_6">
    <g id="patch_35">
     <path d="M 619.907089 575.080021 
L 664.928964 575.080021 
Q 667.928964 575.080021 667.928964 572.080021 
L 667.928964 562.934709 
Q 667.928964 559.934709 664.928964 559.934709 
L 619.907089 559.934709 
Q 616.907089 559.934709 616.907089 562.934709 
L 616.907089 572.080021 
Q 616.907089 575.080021 619.907089 575.080021 
z
" style="fill:#d3d3d3;"/>
    </g>
    <!-- Element 5 -->
    <g transform="translate(619.907089 570.092521)scale(0.1 -0.1)">
     <defs>
      <path d="M 4.15625 18.75 
L 13.375 19.53125 
Q 14.40625 12.796875 18.140625 9.390625 
Q 21.875 6 27.15625 6 
Q 33.5 6 37.890625 10.78125 
Q 42.28125 15.578125 42.28125 23.484375 
Q 42.28125 31 38.0625 35.34375 
Q 33.84375 39.703125 27 39.703125 
Q 22.75 39.703125 19.328125 37.765625 
Q 15.921875 35.84375 13.96875 32.765625 
L 5.71875 33.84375 
L 12.640625 70.609375 
L 48.25 70.609375 
L 48.25 62.203125 
L 19.671875 62.203125 
L 15.828125 42.96875 
Q 22.265625 47.46875 29.34375 47.46875 
Q 38.71875 47.46875 45.15625 40.96875 
Q 51.609375 34.46875 51.609375 24.265625 
Q 51.609375 14.546875 45.953125 7.46875 
Q 39.0625 -1.21875 27.15625 -1.21875 
Q 17.390625 -1.21875 11.203125 4.25 
Q 5.03125 9.71875 4.15625 18.75 
z
" id="ArialMT-53"/>
     </defs>
     <use xlink:href="#ArialMT-69"/>
     <use x="66.699219" xlink:href="#ArialMT-108"/>
     <use x="88.916016" xlink:href="#ArialMT-101"/>
     <use x="144.53125" xlink:href="#ArialMT-109"/>
     <use x="227.832031" xlink:href="#ArialMT-101"/>
     <use x="283.447266" xlink:href="#ArialMT-110"/>
     <use x="339.0625" xlink:href="#ArialMT-116"/>
     <use x="366.845703" xlink:href="#ArialMT-32"/>
     <use x="394.628906" xlink:href="#ArialMT-53"/>
    </g>
   </g>
   <g id="text_7">
    <g id="patch_36">
     <path d="M 105.136979 56.559008 
L 150.158854 56.559008 
Q 153.158854 56.559008 153.158854 53.559008 
L 153.158854 44.413696 
Q 153.158854 41.413696 150.158854 41.413696 
L 105.136979 41.413696 
Q 102.136979 41.413696 102.136979 44.413696 
L 102.136979 53.559008 
Q 102.136979 56.559008 105.136979 56.559008 
z
" style="fill:#d3d3d3;"/>
    </g>
    <!-- Element 6 -->
    <g transform="translate(105.136979 51.571508)scale(0.1 -0.1)">
     <defs>
      <path d="M 49.75 54.046875 
L 41.015625 53.375 
Q 39.84375 58.546875 37.703125 60.890625 
Q 34.125 64.65625 28.90625 64.65625 
Q 24.703125 64.65625 21.53125 62.3125 
Q 17.390625 59.28125 14.984375 53.46875 
Q 12.59375 47.65625 12.5 36.921875 
Q 15.671875 41.75 20.265625 44.09375 
Q 24.859375 46.4375 29.890625 46.4375 
Q 38.671875 46.4375 44.84375 39.96875 
Q 51.03125 33.5 51.03125 23.25 
Q 51.03125 16.5 48.125 10.71875 
Q 45.21875 4.9375 40.140625 1.859375 
Q 35.0625 -1.21875 28.609375 -1.21875 
Q 17.625 -1.21875 10.6875 6.859375 
Q 3.765625 14.9375 3.765625 33.5 
Q 3.765625 54.25 11.421875 63.671875 
Q 18.109375 71.875 29.4375 71.875 
Q 37.890625 71.875 43.28125 67.140625 
Q 48.6875 62.40625 49.75 54.046875 
z
M 13.875 23.1875 
Q 13.875 18.65625 15.796875 14.5 
Q 17.71875 10.359375 21.1875 8.171875 
Q 24.65625 6 28.46875 6 
Q 34.03125 6 38.03125 10.484375 
Q 42.046875 14.984375 42.046875 22.703125 
Q 42.046875 30.125 38.078125 34.390625 
Q 34.125 38.671875 28.125 38.671875 
Q 22.171875 38.671875 18.015625 34.390625 
Q 13.875 30.125 13.875 23.1875 
z
" id="ArialMT-54"/>
     </defs>
     <use xlink:href="#ArialMT-69"/>
     <use x="66.699219" xlink:href="#ArialMT-108"/>
     <use x="88.916016" xlink:href="#ArialMT-101"/>
     <use x="144.53125" xlink:href="#ArialMT-109"/>
     <use x="227.832031" xlink:href="#ArialMT-101"/>
     <use x="283.447266" xlink:href="#ArialMT-110"/>
     <use x="339.0625" xlink:href="#ArialMT-116"/>
     <use x="366.845703" xlink:href="#ArialMT-32"/>
     <use x="394.628906" xlink:href="#ArialMT-54"/>
    </g>
   </g>
   <g id="text_8">
    <g id="patch_37">
     <path d="M 430.88642 291.850623 
L 475.908295 291.850623 
Q 478.908295 291.850623 478.908295 288.850623 
L 478.908295 279.70531 
Q 478.908295 276.70531 475.908295 276.70531 
L 430.88642 276.70531 
Q 427.88642 276.70531 427.88642 279.70531 
L 427.88642 288.850623 
Q 427.88642 291.850623 430.88642 291.850623 
z
" style="fill:#d3d3d3;"/>
    </g>
    <!-- Element 7 -->
    <g transform="translate(430.88642 286.863123)scale(0.1 -0.1)">
     <defs>
      <path d="M 4.734375 62.203125 
L 4.734375 70.65625 
L 51.078125 70.65625 
L 51.078125 63.8125 
Q 44.234375 56.546875 37.515625 44.484375 
Q 30.8125 32.421875 27.15625 19.671875 
Q 24.515625 10.6875 23.78125 0 
L 14.75 0 
Q 14.890625 8.453125 18.0625 20.40625 
Q 21.234375 32.375 27.171875 43.484375 
Q 33.109375 54.59375 39.796875 62.203125 
z
" id="ArialMT-55"/>
     </defs>
     <use xlink:href="#ArialMT-69"/>
     <use x="66.699219" xlink:href="#ArialMT-108"/>
     <use x="88.916016" xlink:href="#ArialMT-101"/>
     <use x="144.53125" xlink:href="#ArialMT-109"/>
     <use x="227.832031" xlink:href="#ArialMT-101"/>
     <use x="283.447266" xlink:href="#ArialMT-110"/>
     <use x="339.0625" xlink:href="#ArialMT-116"/>
     <use x="366.845703" xlink:href="#ArialMT-32"/>
     <use x="394.628906" xlink:href="#ArialMT-55"/>
    </g>
   </g>
   <g id="text_9">
    <g id="patch_38">
     <path d="M 438.603356 376.895722 
L 483.625231 376.895722 
Q 486.625231 376.895722 486.625231 373.895722 
L 486.625231 364.750409 
Q 486.625231 361.750409 483.625231 361.750409 
L 438.603356 361.750409 
Q 435.603356 361.750409 435.603356 364.750409 
L 435.603356 373.895722 
Q 435.603356 376.895722 438.603356 376.895722 
z
" style="fill:#d3d3d3;"/>
    </g>
    <!-- Element 8 -->
    <g transform="translate(438.603356 371.908222)scale(0.1 -0.1)">
     <defs>
      <path d="M 17.671875 38.8125 
Q 12.203125 40.828125 9.5625 44.53125 
Q 6.9375 48.25 6.9375 53.421875 
Q 6.9375 61.234375 12.546875 66.546875 
Q 18.171875 71.875 27.484375 71.875 
Q 36.859375 71.875 42.578125 66.421875 
Q 48.296875 60.984375 48.296875 53.171875 
Q 48.296875 48.1875 45.671875 44.5 
Q 43.0625 40.828125 37.75 38.8125 
Q 44.34375 36.671875 47.78125 31.875 
Q 51.21875 27.09375 51.21875 20.453125 
Q 51.21875 11.28125 44.71875 5.03125 
Q 38.234375 -1.21875 27.640625 -1.21875 
Q 17.046875 -1.21875 10.546875 5.046875 
Q 4.046875 11.328125 4.046875 20.703125 
Q 4.046875 27.6875 7.59375 32.390625 
Q 11.140625 37.109375 17.671875 38.8125 
z
M 15.921875 53.71875 
Q 15.921875 48.640625 19.1875 45.40625 
Q 22.46875 42.1875 27.6875 42.1875 
Q 32.765625 42.1875 36.015625 45.375 
Q 39.265625 48.578125 39.265625 53.21875 
Q 39.265625 58.0625 35.90625 61.359375 
Q 32.5625 64.65625 27.59375 64.65625 
Q 22.5625 64.65625 19.234375 61.421875 
Q 15.921875 58.203125 15.921875 53.71875 
z
M 13.09375 20.65625 
Q 13.09375 16.890625 14.875 13.375 
Q 16.65625 9.859375 20.171875 7.921875 
Q 23.6875 6 27.734375 6 
Q 34.03125 6 38.125 10.046875 
Q 42.234375 14.109375 42.234375 20.359375 
Q 42.234375 26.703125 38.015625 30.859375 
Q 33.796875 35.015625 27.4375 35.015625 
Q 21.234375 35.015625 17.15625 30.90625 
Q 13.09375 26.8125 13.09375 20.65625 
z
" id="ArialMT-56"/>
     </defs>
     <use xlink:href="#ArialMT-69"/>
     <use x="66.699219" xlink:href="#ArialMT-108"/>
     <use x="88.916016" xlink:href="#ArialMT-101"/>
     <use x="144.53125" xlink:href="#ArialMT-109"/>
     <use x="227.832031" xlink:href="#ArialMT-101"/>
     <use x="283.447266" xlink:href="#ArialMT-110"/>
     <use x="339.0625" xlink:href="#ArialMT-116"/>
     <use x="366.845703" xlink:href="#ArialMT-32"/>
     <use x="394.628906" xlink:href="#ArialMT-56"/>
    </g>
   </g>
   <g id="text_10">
    <g id="patch_39">
     <path d="M 340.457676 249.788847 
L 385.479551 249.788847 
Q 388.479551 249.788847 388.479551 246.788847 
L 388.479551 237.643535 
Q 388.479551 234.643535 385.479551 234.643535 
L 340.457676 234.643535 
Q 337.457676 234.643535 337.457676 237.643535 
L 337.457676 246.788847 
Q 337.457676 249.788847 340.457676 249.788847 
z
" style="fill:#d3d3d3;"/>
    </g>
    <!-- Element 9 -->
    <g transform="translate(340.457676 244.801347)scale(0.1 -0.1)">
     <defs>
      <path d="M 5.46875 16.546875 
L 13.921875 17.328125 
Q 14.984375 11.375 18.015625 8.6875 
Q 21.046875 6 25.78125 6 
Q 29.828125 6 32.875 7.859375 
Q 35.9375 9.71875 37.890625 12.8125 
Q 39.84375 15.921875 41.15625 21.1875 
Q 42.484375 26.46875 42.484375 31.9375 
Q 42.484375 32.515625 42.4375 33.6875 
Q 39.796875 29.5 35.234375 26.875 
Q 30.671875 24.265625 25.34375 24.265625 
Q 16.453125 24.265625 10.296875 30.703125 
Q 4.15625 37.15625 4.15625 47.703125 
Q 4.15625 58.59375 10.578125 65.234375 
Q 17 71.875 26.65625 71.875 
Q 33.640625 71.875 39.421875 68.109375 
Q 45.21875 64.359375 48.21875 57.390625 
Q 51.21875 50.4375 51.21875 37.25 
Q 51.21875 23.53125 48.234375 15.40625 
Q 45.265625 7.28125 39.375 3.03125 
Q 33.5 -1.21875 25.59375 -1.21875 
Q 17.1875 -1.21875 11.859375 3.4375 
Q 6.546875 8.109375 5.46875 16.546875 
z
M 41.453125 48.140625 
Q 41.453125 55.71875 37.421875 60.15625 
Q 33.40625 64.59375 27.734375 64.59375 
Q 21.875 64.59375 17.53125 59.8125 
Q 13.1875 55.03125 13.1875 47.40625 
Q 13.1875 40.578125 17.3125 36.296875 
Q 21.4375 32.03125 27.484375 32.03125 
Q 33.59375 32.03125 37.515625 36.296875 
Q 41.453125 40.578125 41.453125 48.140625 
z
" id="ArialMT-57"/>
     </defs>
     <use xlink:href="#ArialMT-69"/>
     <use x="66.699219" xlink:href="#ArialMT-108"/>
     <use x="88.916016" xlink:href="#ArialMT-101"/>
     <use x="144.53125" xlink:href="#ArialMT-109"/>
     <use x="227.832031" xlink:href="#ArialMT-101"/>
     <use x="283.447266" xlink:href="#ArialMT-110"/>
     <use x="339.0625" xlink:href="#ArialMT-116"/>
     <use x="366.845703" xlink:href="#ArialMT-32"/>
     <use x="394.628906" xlink:href="#ArialMT-57"/>
    </g>
   </g>
   <g id="text_11">
    <g id="patch_40">
     <path d="M 371.178725 442.649481 
L 421.761537 442.649481 
Q 424.761537 442.649481 424.761537 439.649481 
L 424.761537 430.504169 
Q 424.761537 427.504169 421.761537 427.504169 
L 371.178725 427.504169 
Q 368.178725 427.504169 368.178725 430.504169 
L 368.178725 439.649481 
Q 368.178725 442.649481 371.178725 442.649481 
z
" style="fill:#d3d3d3;"/>
    </g>
    <!-- Element 10 -->
    <g transform="translate(371.178725 437.661981)scale(0.1 -0.1)">
     <use xlink:href="#ArialMT-69"/>
     <use x="66.699219" xlink:href="#ArialMT-108"/>
     <use x="88.916016" xlink:href="#ArialMT-101"/>
     <use x="144.53125" xlink:href="#ArialMT-109"/>
     <use x="227.832031" xlink:href="#ArialMT-101"/>
     <use x="283.447266" xlink:href="#ArialMT-110"/>
     <use x="339.0625" xlink:href="#ArialMT-116"/>
     <use x="366.845703" xlink:href="#ArialMT-32"/>
     <use x="394.628906" xlink:href="#ArialMT-49"/>
     <use x="450.244141" xlink:href="#ArialMT-48"/>
    </g>
   </g>
   <g id="text_12">
    <g id="patch_41">
     <path d="M 241.192762 302.537121 
L 291.038075 302.537121 
Q 294.038075 302.537121 294.038075 299.537121 
L 294.038075 290.391809 
Q 294.038075 287.391809 291.038075 287.391809 
L 241.192762 287.391809 
Q 238.192762 287.391809 238.192762 290.391809 
L 238.192762 299.537121 
Q 238.192762 302.537121 241.192762 302.537121 
z
" style="fill:#d3d3d3;"/>
    </g>
    <!-- Element 11 -->
    <g transform="translate(241.192762 297.549621)scale(0.1 -0.1)">
     <use xlink:href="#ArialMT-69"/>
     <use x="66.699219" xlink:href="#ArialMT-108"/>
     <use x="88.916016" xlink:href="#ArialMT-101"/>
     <use x="144.53125" xlink:href="#ArialMT-109"/>
     <use x="227.832031" xlink:href="#ArialMT-101"/>
     <use x="283.447266" xlink:href="#ArialMT-110"/>
     <use x="339.0625" xlink:href="#ArialMT-116"/>
     <use x="366.845703" xlink:href="#ArialMT-32"/>
     <use x="394.628906" xlink:href="#ArialMT-49"/>
     <use x="442.869141" xlink:href="#ArialMT-49"/>
    </g>
   </g>
   <g id="text_13">
    <g id="patch_42">
     <path d="M 416.529735 648.788085 
L 467.112547 648.788085 
Q 470.112547 648.788085 470.112547 645.788085 
L 470.112547 636.642772 
Q 470.112547 633.642772 467.112547 633.642772 
L 416.529735 633.642772 
Q 413.529735 633.642772 413.529735 636.642772 
L 413.529735 645.788085 
Q 413.529735 648.788085 416.529735 648.788085 
z
" style="fill:#d3d3d3;"/>
    </g>
    <!-- Element 12 -->
    <g transform="translate(416.529735 643.800585)scale(0.1 -0.1)">
     <use xlink:href="#ArialMT-69"/>
     <use x="66.699219" xlink:href="#ArialMT-108"/>
     <use x="88.916016" xlink:href="#ArialMT-101"/>
     <use x="144.53125" xlink:href="#ArialMT-109"/>
     <use x="227.832031" xlink:href="#ArialMT-101"/>
     <use x="283.447266" xlink:href="#ArialMT-110"/>
     <use x="339.0625" xlink:href="#ArialMT-116"/>
     <use x="366.845703" xlink:href="#ArialMT-32"/>
     <use x="394.628906" xlink:href="#ArialMT-49"/>
     <use x="450.244141" xlink:href="#ArialMT-50"/>
    </g>
   </g>
   <g id="text_14">
    <g id="patch_43">
     <path d="M 82.890567 316.376209 
L 133.473379 316.376209 
Q 136.473379 316.376209 136.473379 313.376209 
L 136.473379 304.230897 
Q 136.473379 301.230897 133.473379 301.230897 
L 82.890567 301.230897 
Q 79.890567 301.230897 79.890567 304.230897 
L 79.890567 313.376209 
Q 79.890567 316.376209 82.890567 316.376209 
z
" style="fill:#d3d3d3;"/>
    </g>
    <!-- Element 13 -->
    <g transform="translate(82.890567 311.388709)scale(0.1 -0.1)">
     <use xlink:href="#ArialMT-69"/>
     <use x="66.699219" xlink:href="#ArialMT-108"/>
     <use x="88.916016" xlink:href="#ArialMT-101"/>
     <use x="144.53125" xlink:href="#ArialMT-109"/>
     <use x="227.832031" xlink:href="#ArialMT-101"/>
     <use x="283.447266" xlink:href="#ArialMT-110"/>
     <use x="339.0625" xlink:href="#ArialMT-116"/>
     <use x="366.845703" xlink:href="#ArialMT-32"/>
     <use x="394.628906" xlink:href="#ArialMT-49"/>
     <use x="450.244141" xlink:href="#ArialMT-51"/>
    </g>
   </g>
   <g id="text_15">
    <g id="patch_44">
     <path d="M 361.089735 593.348085 
L 411.672547 593.348085 
Q 414.672547 593.348085 414.672547 590.348085 
L 414.672547 581.202772 
Q 414.672547 578.202772 411.672547 578.202772 
L 361.089735 578.202772 
Q 358.089735 578.202772 358.089735 581.202772 
L 358.089735 590.348085 
Q 358.089735 593.348085 361.089735 593.348085 
z
" style="fill:#d3d3d3;"/>
    </g>
    <!-- Element 14 -->
    <g transform="translate(361.089735 588.360585)scale(0.1 -0.1)">
     <use xlink:href="#ArialMT-69"/>
     <use x="66.699219" xlink:href="#ArialMT-108"/>
     <use x="88.916016" xlink:href="#ArialMT-101"/>
     <use x="144.53125" xlink:href="#ArialMT-109"/>
     <use x="227.832031" xlink:href="#ArialMT-101"/>
     <use x="283.447266" xlink:href="#ArialMT-110"/>
     <use x="339.0625" xlink:href="#ArialMT-116"/>
     <use x="366.845703" xlink:href="#ArialMT-32"/>
     <use x="394.628906" xlink:href="#ArialMT-49"/>
     <use x="450.244141" xlink:href="#ArialMT-52"/>
    </g>
   </g>
   <g id="text_16">
    <g id="patch_45">
     <path d="M 27.450567 260.936209 
L 78.033379 260.936209 
Q 81.033379 260.936209 81.033379 257.936209 
L 81.033379 248.790897 
Q 81.033379 245.790897 78.033379 245.790897 
L 27.450567 245.790897 
Q 24.450567 245.790897 24.450567 248.790897 
L 24.450567 257.936209 
Q 24.450567 260.936209 27.450567 260.936209 
z
" style="fill:#d3d3d3;"/>
    </g>
    <!-- Element 15 -->
    <g transform="translate(27.450567 255.948709)scale(0.1 -0.1)">
     <use xlink:href="#ArialMT-69"/>
     <use x="66.699219" xlink:href="#ArialMT-108"/>
     <use x="88.916016" xlink:href="#ArialMT-101"/>
     <use x="144.53125" xlink:href="#ArialMT-109"/>
     <use x="227.832031" xlink:href="#ArialMT-101"/>
     <use x="283.447266" xlink:href="#ArialMT-110"/>
     <use x="339.0625" xlink:href="#ArialMT-116"/>
     <use x="366.845703" xlink:href="#ArialMT-32"/>
     <use x="394.628906" xlink:href="#ArialMT-49"/>
     <use x="450.244141" xlink:href="#ArialMT-53"/>
    </g>
   </g>
   <g id="text_17">
    <g id="patch_46">
     <path d="M 608.452756 344.598897 
L 659.035569 344.598897 
Q 662.035569 344.598897 662.035569 341.598897 
L 662.035569 332.453584 
Q 662.035569 329.453584 659.035569 329.453584 
L 608.452756 329.453584 
Q 605.452756 329.453584 605.452756 332.453584 
L 605.452756 341.598897 
Q 605.452756 344.598897 608.452756 344.598897 
z
" style="fill:#d3d3d3;"/>
    </g>
    <!-- Element 16 -->
    <g transform="translate(608.452756 339.611397)scale(0.1 -0.1)">
     <use xlink:href="#ArialMT-69"/>
     <use x="66.699219" xlink:href="#ArialMT-108"/>
     <use x="88.916016" xlink:href="#ArialMT-101"/>
     <use x="144.53125" xlink:href="#ArialMT-109"/>
     <use x="227.832031" xlink:href="#ArialMT-101"/>
     <use x="283.447266" xlink:href="#ArialMT-110"/>
     <use x="339.0625" xlink:href="#ArialMT-116"/>
     <use x="366.845703" xlink:href="#ArialMT-32"/>
     <use x="394.628906" xlink:href="#ArialMT-49"/>
     <use x="450.244141" xlink:href="#ArialMT-54"/>
    </g>
   </g>
   <g id="text_18">
    <g id="patch_47">
     <path d="M 546.702887 413.855722 
L 597.2857 413.855722 
Q 600.2857 413.855722 600.2857 410.855722 
L 600.2857 401.710409 
Q 600.2857 398.710409 597.2857 398.710409 
L 546.702887 398.710409 
Q 543.702887 398.710409 543.702887 401.710409 
L 543.702887 410.855722 
Q 543.702887 413.855722 546.702887 413.855722 
z
" style="fill:#d3d3d3;"/>
    </g>
    <!-- Element 17 -->
    <g transform="translate(546.702887 408.868222)scale(0.1 -0.1)">
     <use xlink:href="#ArialMT-69"/>
     <use x="66.699219" xlink:href="#ArialMT-108"/>
     <use x="88.916016" xlink:href="#ArialMT-101"/>
     <use x="144.53125" xlink:href="#ArialMT-109"/>
     <use x="227.832031" xlink:href="#ArialMT-101"/>
     <use x="283.447266" xlink:href="#ArialMT-110"/>
     <use x="339.0625" xlink:href="#ArialMT-116"/>
     <use x="366.845703" xlink:href="#ArialMT-32"/>
     <use x="394.628906" xlink:href="#ArialMT-49"/>
     <use x="450.244141" xlink:href="#ArialMT-55"/>
    </g>
   </g>
   <g id="text_19">
    <g id="patch_48">
     <path d="M 28.436511 111.999008 
L 79.019323 111.999008 
Q 82.019323 111.999008 82.019323 108.999008 
L 82.019323 99.853696 
Q 82.019323 96.853696 79.019323 96.853696 
L 28.436511 96.853696 
Q 25.436511 96.853696 25.436511 99.853696 
L 25.436511 108.999008 
Q 25.436511 111.999008 28.436511 111.999008 
z
" style="fill:#d3d3d3;"/>
    </g>
    <!-- Element 18 -->
    <g transform="translate(28.436511 107.011508)scale(0.1 -0.1)">
     <use xlink:href="#ArialMT-69"/>
     <use x="66.699219" xlink:href="#ArialMT-108"/>
     <use x="88.916016" xlink:href="#ArialMT-101"/>
     <use x="144.53125" xlink:href="#ArialMT-109"/>
     <use x="227.832031" xlink:href="#ArialMT-101"/>
     <use x="283.447266" xlink:href="#ArialMT-110"/>
     <use x="339.0625" xlink:href="#ArialMT-116"/>
     <use x="366.845703" xlink:href="#ArialMT-32"/>
     <use x="394.628906" xlink:href="#ArialMT-49"/>
     <use x="450.244141" xlink:href="#ArialMT-56"/>
    </g>
   </g>
   <g id="text_20">
    <g id="patch_49">
     <path d="M 561.68662 649.000021 
L 612.269432 649.000021 
Q 615.269432 649.000021 615.269432 646.000021 
L 615.269432 636.854709 
Q 615.269432 633.854709 612.269432 633.854709 
L 561.68662 633.854709 
Q 558.68662 633.854709 558.68662 636.854709 
L 558.68662 646.000021 
Q 558.68662 649.000021 561.68662 649.000021 
z
" style="fill:#d3d3d3;"/>
    </g>
    <!-- Element 19 -->
    <g transform="translate(561.68662 644.012521)scale(0.1 -0.1)">
     <use xlink:href="#ArialMT-69"/>
     <use x="66.699219" xlink:href="#ArialMT-108"/>
     <use x="88.916016" xlink:href="#ArialMT-101"/>
     <use x="144.53125" xlink:href="#ArialMT-109"/>
     <use x="227.832031" xlink:href="#ArialMT-101"/>
     <use x="283.447266" xlink:href="#ArialMT-110"/>
     <use x="339.0625" xlink:href="#ArialMT-116"/>
     <use x="366.845703" xlink:href="#ArialMT-32"/>
     <use x="394.628906" xlink:href="#ArialMT-49"/>
     <use x="450.244141" xlink:href="#ArialMT-57"/>
    </g>
   </g>
   <g id="text_21">
    <g id="patch_50">
     <path d="M 187.451929 115.063474 
L 238.034742 115.063474 
Q 241.034742 115.063474 241.034742 112.063474 
L 241.034742 102.918161 
Q 241.034742 99.918161 238.034742 99.918161 
L 187.451929 99.918161 
Q 184.451929 99.918161 184.451929 102.918161 
L 184.451929 112.063474 
Q 184.451929 115.063474 187.451929 115.063474 
z
" style="fill:#d3d3d3;"/>
    </g>
    <!-- Element 20 -->
    <g transform="translate(187.451929 110.075974)scale(0.1 -0.1)">
     <use xlink:href="#ArialMT-69"/>
     <use x="66.699219" xlink:href="#ArialMT-108"/>
     <use x="88.916016" xlink:href="#ArialMT-101"/>
     <use x="144.53125" xlink:href="#ArialMT-109"/>
     <use x="227.832031" xlink:href="#ArialMT-101"/>
     <use x="283.447266" xlink:href="#ArialMT-110"/>
     <use x="339.0625" xlink:href="#ArialMT-116"/>
     <use x="366.845703" xlink:href="#ArialMT-32"/>
     <use x="394.628906" xlink:href="#ArialMT-50"/>
     <use x="450.244141" xlink:href="#ArialMT-48"/>
    </g>
   </g>
   <g id="text_22">
    <g id="patch_51">
     <path d="M 555.376751 496.496846 
L 605.959564 496.496846 
Q 608.959564 496.496846 608.959564 493.496846 
L 608.959564 484.351534 
Q 608.959564 481.351534 605.959564 481.351534 
L 555.376751 481.351534 
Q 552.376751 481.351534 552.376751 484.351534 
L 552.376751 493.496846 
Q 552.376751 496.496846 555.376751 496.496846 
z
" style="fill:#d3d3d3;"/>
    </g>
    <!-- Element 21 -->
    <g transform="translate(555.376751 491.509346)scale(0.1 -0.1)">
     <use xlink:href="#ArialMT-69"/>
     <use x="66.699219" xlink:href="#ArialMT-108"/>
     <use x="88.916016" xlink:href="#ArialMT-101"/>
     <use x="144.53125" xlink:href="#ArialMT-109"/>
     <use x="227.832031" xlink:href="#ArialMT-101"/>
     <use x="283.447266" xlink:href="#ArialMT-110"/>
     <use x="339.0625" xlink:href="#ArialMT-116"/>
     <use x="366.845703" xlink:href="#ArialMT-32"/>
     <use x="394.628906" xlink:href="#ArialMT-50"/>
     <use x="450.244141" xlink:href="#ArialMT-49"/>
    </g>
   </g>
   <g id="text_23">
    <g id="patch_52">
     <path d="M 410.219866 514.76491 
L 460.802678 514.76491 
Q 463.802678 514.76491 463.802678 511.76491 
L 463.802678 502.619597 
Q 463.802678 499.619597 460.802678 499.619597 
L 410.219866 499.619597 
Q 407.219866 499.619597 407.219866 502.619597 
L 407.219866 511.76491 
Q 407.219866 514.76491 410.219866 514.76491 
z
" style="fill:#d3d3d3;"/>
    </g>
    <!-- Element 22 -->
    <g transform="translate(410.219866 509.77741)scale(0.1 -0.1)">
     <use xlink:href="#ArialMT-69"/>
     <use x="66.699219" xlink:href="#ArialMT-108"/>
     <use x="88.916016" xlink:href="#ArialMT-101"/>
     <use x="144.53125" xlink:href="#ArialMT-109"/>
     <use x="227.832031" xlink:href="#ArialMT-101"/>
     <use x="283.447266" xlink:href="#ArialMT-110"/>
     <use x="339.0625" xlink:href="#ArialMT-116"/>
     <use x="366.845703" xlink:href="#ArialMT-32"/>
     <use x="394.628906" xlink:href="#ArialMT-50"/>
     <use x="450.244141" xlink:href="#ArialMT-50"/>
    </g>
   </g>
   <g id="text_24">
    <g id="patch_53">
     <path d="M 167.985985 264.000674 
L 218.568798 264.000674 
Q 221.568798 264.000674 221.568798 261.000674 
L 221.568798 251.855362 
Q 221.568798 248.855362 218.568798 248.855362 
L 167.985985 248.855362 
Q 164.985985 248.855362 164.985985 251.855362 
L 164.985985 261.000674 
Q 164.985985 264.000674 167.985985 264.000674 
z
" style="fill:#d3d3d3;"/>
    </g>
    <!-- Element 23 -->
    <g transform="translate(167.985985 259.013174)scale(0.1 -0.1)">
     <use xlink:href="#ArialMT-69"/>
     <use x="66.699219" xlink:href="#ArialMT-108"/>
     <use x="88.916016" xlink:href="#ArialMT-101"/>
     <use x="144.53125" xlink:href="#ArialMT-109"/>
     <use x="227.832031" xlink:href="#ArialMT-101"/>
     <use x="283.447266" xlink:href="#ArialMT-110"/>
     <use x="339.0625" xlink:href="#ArialMT-116"/>
     <use x="366.845703" xlink:href="#ArialMT-32"/>
     <use x="394.628906" xlink:href="#ArialMT-50"/>
     <use x="450.244141" xlink:href="#ArialMT-51"/>
    </g>
   </g>
   <g id="text_25">
    <g id="patch_54">
     <path d="M 151.573902 187.407026 
L 202.156715 187.407026 
Q 205.156715 187.407026 205.156715 184.407026 
L 205.156715 175.261714 
Q 205.156715 172.261714 202.156715 172.261714 
L 151.573902 172.261714 
Q 148.573902 172.261714 148.573902 175.261714 
L 148.573902 184.407026 
Q 148.573902 187.407026 151.573902 187.407026 
z
" style="fill:#d3d3d3;"/>
    </g>
    <!-- Element 24 -->
    <g transform="translate(151.573902 182.419526)scale(0.1 -0.1)">
     <use xlink:href="#ArialMT-69"/>
     <use x="66.699219" xlink:href="#ArialMT-108"/>
     <use x="88.916016" xlink:href="#ArialMT-101"/>
     <use x="144.53125" xlink:href="#ArialMT-109"/>
     <use x="227.832031" xlink:href="#ArialMT-101"/>
     <use x="283.447266" xlink:href="#ArialMT-110"/>
     <use x="339.0625" xlink:href="#ArialMT-116"/>
     <use x="366.845703" xlink:href="#ArialMT-32"/>
     <use x="394.628906" xlink:href="#ArialMT-50"/>
     <use x="450.244141" xlink:href="#ArialMT-52"/>
    </g>
   </g>
   <g id="text_26">
    <g id="patch_55">
     <path d="M 483.537892 531.652275 
L 534.120705 531.652275 
Q 537.120705 531.652275 537.120705 528.652275 
L 537.120705 519.506962 
Q 537.120705 516.506962 534.120705 516.506962 
L 483.537892 516.506962 
Q 480.537892 516.506962 480.537892 519.506962 
L 480.537892 528.652275 
Q 480.537892 531.652275 483.537892 531.652275 
z
" style="fill:#d3d3d3;"/>
    </g>
    <!-- Element 25 -->
    <g transform="translate(483.537892 526.664775)scale(0.1 -0.1)">
     <use xlink:href="#ArialMT-69"/>
     <use x="66.699219" xlink:href="#ArialMT-108"/>
     <use x="88.916016" xlink:href="#ArialMT-101"/>
     <use x="144.53125" xlink:href="#ArialMT-109"/>
     <use x="227.832031" xlink:href="#ArialMT-101"/>
     <use x="283.447266" xlink:href="#ArialMT-110"/>
     <use x="339.0625" xlink:href="#ArialMT-116"/>
     <use x="366.845703" xlink:href="#ArialMT-32"/>
     <use x="394.628906" xlink:href="#ArialMT-50"/>
     <use x="450.244141" xlink:href="#ArialMT-53"/>
    </g>
   </g>
   <g id="text_27">
    <g id="patch_56">
     <path d="M 489.847761 610.23545 
L 540.430574 610.23545 
Q 543.430574 610.23545 543.430574 607.23545 
L 543.430574 598.090137 
Q 543.430574 595.090137 540.430574 595.090137 
L 489.847761 595.090137 
Q 486.847761 595.090137 486.847761 598.090137 
L 486.847761 607.23545 
Q 486.847761 610.23545 489.847761 610.23545 
z
" style="fill:#d3d3d3;"/>
    </g>
    <!-- Element 26 -->
    <g transform="translate(489.847761 605.24795)scale(0.1 -0.1)">
     <use xlink:href="#ArialMT-69"/>
     <use x="66.699219" xlink:href="#ArialMT-108"/>
     <use x="88.916016" xlink:href="#ArialMT-101"/>
     <use x="144.53125" xlink:href="#ArialMT-109"/>
     <use x="227.832031" xlink:href="#ArialMT-101"/>
     <use x="283.447266" xlink:href="#ArialMT-110"/>
     <use x="339.0625" xlink:href="#ArialMT-116"/>
     <use x="366.845703" xlink:href="#ArialMT-32"/>
     <use x="394.628906" xlink:href="#ArialMT-50"/>
     <use x="450.244141" xlink:href="#ArialMT-54"/>
    </g>
   </g>
   <g id="text_28">
    <g id="patch_57">
     <path d="M 66.478484 184.342561 
L 117.061296 184.342561 
Q 120.061296 184.342561 120.061296 181.342561 
L 120.061296 172.197249 
Q 120.061296 169.197249 117.061296 169.197249 
L 66.478484 169.197249 
Q 63.478484 169.197249 63.478484 172.197249 
L 63.478484 181.342561 
Q 63.478484 184.342561 66.478484 184.342561 
z
" style="fill:#d3d3d3;"/>
    </g>
    <!-- Element 27 -->
    <g transform="translate(66.478484 179.355061)scale(0.1 -0.1)">
     <use xlink:href="#ArialMT-69"/>
     <use x="66.699219" xlink:href="#ArialMT-108"/>
     <use x="88.916016" xlink:href="#ArialMT-101"/>
     <use x="144.53125" xlink:href="#ArialMT-109"/>
     <use x="227.832031" xlink:href="#ArialMT-101"/>
     <use x="283.447266" xlink:href="#ArialMT-110"/>
     <use x="339.0625" xlink:href="#ArialMT-116"/>
     <use x="366.845703" xlink:href="#ArialMT-32"/>
     <use x="394.628906" xlink:href="#ArialMT-50"/>
     <use x="450.244141" xlink:href="#ArialMT-55"/>
    </g>
   </g>
   <g id="text_29">
    <!-- 0 -->
    <g transform="translate(344.559531 349.925156)scale(0.1 -0.1)">
     <use xlink:href="#ArialMT-48"/>
    </g>
   </g>
   <g id="text_30">
    <!-- 1 -->
    <g transform="translate(11.919531 349.925156)scale(0.1 -0.1)">
     <use xlink:href="#ArialMT-49"/>
    </g>
   </g>
   <g id="text_31">
    <!-- 2 -->
    <g transform="translate(11.919531 17.285156)scale(0.1 -0.1)">
     <use xlink:href="#ArialMT-50"/>
    </g>
   </g>
   <g id="text_32">
    <!-- 3 -->
    <g transform="translate(677.199531 17.285156)scale(0.1 -0.1)">
     <use xlink:href="#ArialMT-51"/>
    </g>
   </g>
   <g id="text_33">
    <!-- 4 -->
    <g transform="translate(677.199531 682.565156)scale(0.1 -0.1)">
     <use xlink:href="#ArialMT-52"/>
    </g>
   </g>
   <g id="text_34">
    <!-- 5 -->
    <g transform="translate(344.559531 682.565156)scale(0.1 -0.1)">
     <use xlink:href="#ArialMT-53"/>
    </g>
   </g>
   <g id="text_35">
    <!-- 6 -->
    <g transform="translate(344.559531 516.245156)scale(0.1 -0.1)">
     <use xlink:href="#ArialMT-54"/>
    </g>
   </g>
   <g id="text_36">
    <!-- 7 -->
    <g transform="translate(178.239531 349.925156)scale(0.1 -0.1)">
     <use xlink:href="#ArialMT-55"/>
    </g>
   </g>
   <g id="text_37">
    <!-- 8 -->
    <g transform="translate(11.919531 183.605156)scale(0.1 -0.1)">
     <use xlink:href="#ArialMT-56"/>
    </g>
   </g>
   <g id="text_38">
    <!-- 9 -->
    <g transform="translate(233.679531 17.285156)scale(0.1 -0.1)">
     <use xlink:href="#ArialMT-57"/>
    </g>
   </g>
   <g id="text_39">
    <!-- 10 -->
    <g transform="translate(452.659062 17.285156)scale(0.1 -0.1)">
     <use xlink:href="#ArialMT-49"/>
     <use x="55.615234" xlink:href="#ArialMT-48"/>
    </g>
   </g>
   <g id="text_40">
    <!-- 11 -->
    <g transform="translate(674.787812 239.045156)scale(0.1 -0.1)">
     <use xlink:href="#ArialMT-49"/>
     <use x="48.240234" xlink:href="#ArialMT-49"/>
    </g>
   </g>
   <g id="text_41">
    <!-- 12 -->
    <g transform="translate(674.419062 460.805156)scale(0.1 -0.1)">
     <use xlink:href="#ArialMT-49"/>
     <use x="55.615234" xlink:href="#ArialMT-50"/>
    </g>
   </g>
   <g id="text_42">
    <!-- 13 -->
    <g transform="translate(508.099063 682.565156)scale(0.1 -0.1)">
     <use xlink:href="#ArialMT-49"/>
     <use x="55.615234" xlink:href="#ArialMT-51"/>
    </g>
   </g>
   <g id="text_43">
    <!-- 14 -->
    <g transform="translate(264.425318 192.798552)scale(0.1 -0.1)">
     <use xlink:href="#ArialMT-49"/>
     <use x="55.615234" xlink:href="#ArialMT-52"/>
    </g>
   </g>
   <g id="text_44">
    <!-- 15 -->
    <g transform="translate(489.169456 446.815631)scale(0.1 -0.1)">
     <use xlink:href="#ArialMT-49"/>
     <use x="55.615234" xlink:href="#ArialMT-53"/>
    </g>
   </g>
   <g id="text_45">
    <!-- 16 -->
    <g transform="translate(466.018647 191.680334)scale(0.1 -0.1)">
     <use xlink:href="#ArialMT-49"/>
     <use x="55.615234" xlink:href="#ArialMT-54"/>
    </g>
   </g>
   <g id="text_46">
    <!-- 17 -->
    <g transform="translate(561.733141 566.907251)scale(0.1 -0.1)">
     <use xlink:href="#ArialMT-49"/>
     <use x="55.615234" xlink:href="#ArialMT-55"/>
    </g>
   </g>
   <g id="text_47">
    <!-- 18 -->
    <g transform="translate(126.222813 120.144213)scale(0.1 -0.1)">
     <use xlink:href="#ArialMT-49"/>
     <use x="55.615234" xlink:href="#ArialMT-56"/>
    </g>
   </g>
   <g id="text_48">
    <!-- 19 -->
    <g transform="translate(458.902486 566.271442)scale(0.1 -0.1)">
     <use xlink:href="#ArialMT-49"/>
     <use x="55.615234" xlink:href="#ArialMT-57"/>
    </g>
   </g>
   <g id="text_49">
    <!-- 20 -->
    <g transform="translate(123.264982 234.315815)scale(0.1 -0.1)">
     <use xlink:href="#ArialMT-50"/>
     <use x="55.615234" xlink:href="#ArialMT-48"/>
    </g>
   </g>
   <g id="text_50">
    <!-- 21 -->
    <g transform="translate(535.71155 318.983878)scale(0.1 -0.1)">
     <use xlink:href="#ArialMT-50"/>
     <use x="55.615234" xlink:href="#ArialMT-49"/>
    </g>
   </g>
  </g>
 </g>
</svg>
