<?xml version="1.0" encoding="utf-8"?>
<!-- Generator: Adobe Illustrator 21.0.0, SVG Export Plug-In . SVG Version: 6.00 Build 0)  -->
<svg version="1.1" id="Layer_1" xmlns="http://www.w3.org/2000/svg" xmlns:xlink="http://www.w3.org/1999/xlink" x="0px" y="0px"
	 viewBox="0 0 360 235.3" style="enable-background:new 0 0 360 235.3;" xml:space="preserve">
<style type="text/css">
	.st0{fill:#F2F2F2;}
	.st1{clip-path:url(#SVGID_2_);fill:none;stroke:#27DADE;stroke-width:0.3;stroke-linejoin:round;stroke-miterlimit:10;}
	.st2{clip-path:url(#SVGID_4_);fill:none;stroke:#53F5CB;stroke-width:0.3;stroke-linejoin:round;stroke-miterlimit:10;}
	.st3{clip-path:url(#SVGID_6_);fill:none;stroke:#7DFFB6;stroke-width:0.3;stroke-linejoin:round;stroke-miterlimit:10;}
	.st4{clip-path:url(#SVGID_8_);fill:none;stroke:#A8F79C;stroke-width:0.3;stroke-linejoin:round;stroke-miterlimit:10;}
	.st5{clip-path:url(#SVGID_10_);fill:none;stroke:#D2DE81;stroke-width:0.3;stroke-linejoin:round;stroke-miterlimit:10;}
	.st6{clip-path:url(#SVGID_12_);fill:none;stroke:#FEB562;stroke-width:0.3;stroke-linejoin:round;stroke-miterlimit:10;}
	.st7{clip-path:url(#SVGID_14_);fill:none;stroke:#FF8143;stroke-width:0.3;stroke-linejoin:round;stroke-miterlimit:10;}
	.st8{clip-path:url(#SVGID_16_);fill:none;stroke:#FF4121;stroke-width:0.3;stroke-linejoin:round;stroke-miterlimit:10;}
	.st9{clip-path:url(#SVGID_18_);fill:none;stroke:#5A3BFD;stroke-width:2;stroke-linejoin:round;stroke-miterlimit:10;}
	.st10{clip-path:url(#SVGID_20_);fill:none;stroke:#3079F7;stroke-width:2;stroke-linejoin:round;stroke-miterlimit:10;}
	.st11{clip-path:url(#SVGID_22_);fill:none;stroke:#04B0ED;stroke-width:2;stroke-linejoin:round;stroke-miterlimit:10;}
	.st12{display:none;fill:none;stroke:#000000;stroke-width:0.8;stroke-linecap:square;stroke-miterlimit:10;}
	.st13{clip-path:url(#SVGID_24_);fill:#5A3BFD;}
	.st14{clip-path:url(#SVGID_26_);fill:#3079F7;}
	.st15{clip-path:url(#SVGID_28_);fill:#04B0ED;}
</style>
<rect y="0.7" class="st0" width="360" height="233.9"/>
<g>
	<g>
		<defs>
			<rect id="SVGID_1_" y="0.7" width="360" height="233.9"/>
		</defs>
		<clipPath id="SVGID_2_">
			<use xlink:href="#SVGID_1_"  style="overflow:visible;"/>
		</clipPath>
		<polyline class="st1" points="94.3,234.6 101.5,233.6 103.5,233.4 105.3,233.2 111.6,232.8 117.6,232 123.6,231 127.4,230.7 
			130.5,230.4 135.4,229.7 139.5,229 141.6,228.8 144,228.5 149.2,228 153,227.6 156.2,226.9 157.5,226.8 159.6,226.3 162,226 
			166.5,225 168.4,223.9 170.6,222.9 171,222.5 172.5,220.6 173,219.3 173.6,218.2 174,216.6 174.1,215.2 174.5,213.6 174.9,210.9 
			175.5,206.5 176.6,201.9 177.4,197.2 178.2,190.2 178.6,185.5 178.6,184.8 179.1,179 179,178.5 179.4,173.8 179.4,173.5 
			180,168.2 181.1,177.9 181.1,178.5 181.3,180.8 181.3,181.5 181.6,185.5 181.6,186.3 181.8,187.8 181.7,188.7 182.1,191.4 
			182,193.5 182.3,196 182.2,197.2 182.4,198.3 182.3,199.5 182.5,200.6 182.5,203.2 182.7,204.2 182.9,206.5 183.3,208.9 
			183.7,211.2 185.1,215.9 185.1,216.2 185.8,218.2 186.6,219.5 187,220.6 187.7,221.2 189.1,222.9 194,225.3 198,226.1 
			200.4,226.3 202.5,226.8 207.3,227.6 211.5,228.1 216,228.5 220.5,229 225.8,229.9 236.3,231.1 240.1,231.4 244.1,232.3 
			253.9,233.3 258.5,233.6 265.6,234.6 		"/>
	</g>
	<g>
		<defs>
			<rect id="SVGID_3_" y="0.7" width="360" height="233.9"/>
		</defs>
		<clipPath id="SVGID_4_">
			<use xlink:href="#SVGID_3_"  style="overflow:visible;"/>
		</clipPath>
		<polyline class="st2" points="103.6,234.6 107.1,234.1 108,234.1 109.2,234 112.5,233.6 115,233.3 117,233.1 118.3,232.9 
			121.5,232.6 125.2,232.3 125.8,232.2 126,232.2 129.4,231.7 130.5,231.6 132.1,231.4 135,231 136.6,230.7 139.5,230.4 
			140.2,230.3 144,230 144.6,229.9 148.5,229.5 151.3,229 153,228.9 155.6,228.6 157.5,228.3 158.5,228.1 162,227.6 162,227.6 
			162,227.6 162,227.6 166.5,226.5 168,226 170.3,225.3 170.6,225.1 171,224.9 174.1,222.9 175.5,221.2 176.1,220.9 177,220.6 
			180,218.8 182.3,220.6 184.5,221.7 185.3,222.5 185.7,222.9 189,225 189.4,225.3 191.9,226.1 193.5,226.5 198,227.6 198,227.6 
			198,227.6 198,227.6 202.5,228.3 205.1,228.6 207,228.8 210.3,229.3 211.5,229.5 212.3,229.5 215.4,229.9 216,230 219.8,230.3 
			220.5,230.4 221.7,230.6 225,231 227,231.2 229.5,231.6 233.8,232.2 234,232.2 234.7,232.3 238,232.5 238.5,232.6 239.2,232.7 
			243,233.1 245,233.3 247.5,233.6 249.2,233.7 252,234.1 256.4,234.6 		"/>
	</g>
	<g>
		<defs>
			<rect id="SVGID_5_" y="0.7" width="360" height="233.9"/>
		</defs>
		<clipPath id="SVGID_6_">
			<use xlink:href="#SVGID_5_"  style="overflow:visible;"/>
		</clipPath>
		<polyline class="st3" points="112.1,234.6 112.5,234.6 112.6,234.5 117,234 119.8,233.7 121.5,233.5 124,233.3 126,233.1 
			129.5,232.8 130.5,232.7 131.1,232.6 134.1,232.3 135,232.1 138.3,231.6 139.5,231.5 141.9,231.2 144,231 146.9,230.7 
			148.5,230.6 149.5,230.5 153,230.1 153.2,230.1 154.4,229.9 157.5,229.5 160.2,229 162,228.7 165.9,227.9 166.5,227.8 
			166.8,227.7 167.2,227.6 169.6,226.9 171,226.4 172.5,226 174.1,225.3 175.5,224.4 177.3,223.8 180,223 182.6,223.9 184.5,224.4 
			185.7,225.3 187.4,226.1 189,226.5 190.2,227 192.5,227.6 193.5,227.8 196.4,228.4 198,228.7 201.3,229.3 202.5,229.5 
			203.2,229.6 205.7,229.9 206.7,230.1 207,230.1 210.5,230.5 211.5,230.6 213,230.7 216,231 218.1,231.2 220.5,231.5 224.6,232.1 
			225,232.1 225.2,232.2 225.8,232.3 228.8,232.6 229.5,232.7 232.7,232.9 234,233.1 236.5,233.3 238.5,233.5 241.6,233.9 243,234 
			247.4,234.5 247.5,234.6 247.6,234.6 247.9,234.6 		"/>
	</g>
	<g>
		<defs>
			<rect id="SVGID_7_" y="0.7" width="360" height="233.9"/>
		</defs>
		<clipPath id="SVGID_8_">
			<use xlink:href="#SVGID_7_"  style="overflow:visible;"/>
		</clipPath>
		<polyline class="st4" points="120.1,234.6 121.2,234.5 121.5,234.4 121.9,234.4 126,234 127.5,233.8 130.5,233.5 132.5,233.3 
			135,233 136.2,232.9 139.5,232.5 141.9,232.3 143.6,232.1 144,232 144.6,232 148.5,231.5 151.1,231.3 153,231.1 154.8,230.9 
			157.5,230.6 161.7,229.9 161.9,229.9 162,229.9 162.2,229.8 166.5,229 168.4,228.6 171,227.8 171.9,227.6 174.2,226.9 
			175.5,226.3 179.6,225.5 180,225.4 180.4,225.5 184.5,226.4 185.7,227 187.7,227.6 189,228 190.1,228.2 193.5,229 194.8,229.3 
			198,229.9 198.3,229.9 202.5,230.6 205.2,230.9 207,231.1 208.9,231.3 211.5,231.5 215.4,232 216,232 216.4,232 218.1,232.3 
			220.5,232.5 221.1,232.6 225,233 227.5,233.3 229.5,233.5 231.3,233.7 234,234 235.1,234 238.5,234.4 239.8,234.6 		"/>
	</g>
	<g>
		<defs>
			<rect id="SVGID_9_" y="0.7" width="360" height="233.9"/>
		</defs>
		<clipPath id="SVGID_10_">
			<use xlink:href="#SVGID_9_"  style="overflow:visible;"/>
		</clipPath>
		<polyline class="st5" points="128.1,234.6 130.5,234.4 133.8,234 135,233.9 137.6,233.6 139.5,233.4 142.4,233.1 144,232.9 
			145.1,232.8 148.5,232.5 150.9,232.3 152.6,232.1 153,232 156.4,231.7 157.5,231.6 159.4,231.3 162,231 163.6,230.8 166.5,230.1 
			167.5,229.9 170.1,229.5 171,229.2 174,228.4 175.5,228 176.2,228 178.9,227.6 180,227.4 180.9,227.6 184.5,228.1 186.3,228.5 
			189,229.3 192.3,229.9 193.1,230.1 193.5,230.2 194.1,230.3 198,231 200.6,231.3 202.5,231.6 203.6,231.7 207,232 207.3,232.1 
			209.2,232.3 211.5,232.5 214.9,232.8 216,232.9 217.6,233.1 220.5,233.4 223.2,233.7 225,233.9 226.1,234 229.5,234.4 
			229.9,234.4 231.8,234.6 		"/>
	</g>
	<g>
		<defs>
			<rect id="SVGID_11_" y="0.7" width="360" height="233.9"/>
		</defs>
		<clipPath id="SVGID_12_">
			<use xlink:href="#SVGID_11_"  style="overflow:visible;"/>
		</clipPath>
		<polyline class="st6" points="136.3,234.6 139,234.3 139.5,234.3 140.3,234.2 144,233.8 146.5,233.6 148.5,233.4 151.3,233.1 
			153,233 156.8,232.6 157.5,232.6 158,232.5 160.4,232.3 162,232.1 165.3,231.7 166.5,231.4 169.2,230.9 171,230.6 172,230.5 
			174.6,229.9 175.5,229.7 179.1,229.4 180,229.3 184.1,229.7 184.5,229.8 185.1,229.9 187.9,230.5 189,230.6 191.2,231.1 
			193.5,231.4 197.4,232 198,232.1 199.6,232.3 202,232.5 202.5,232.6 203.2,232.6 207,233 208.6,233.1 211.5,233.4 213.4,233.6 
			216,233.8 219.7,234.2 220.5,234.3 223.6,234.6 		"/>
	</g>
	<g>
		<defs>
			<rect id="SVGID_13_" y="0.7" width="360" height="233.9"/>
		</defs>
		<clipPath id="SVGID_14_">
			<use xlink:href="#SVGID_13_"  style="overflow:visible;"/>
		</clipPath>
		<polyline class="st7" points="145.3,234.6 148,234.4 148.5,234.3 149.2,234.2 153,233.9 154.6,233.8 157.5,233.5 159.6,233.4 
			162,233.1 165.7,232.7 166.5,232.6 167.1,232.6 169.4,232.3 171,232 174.3,231.7 175.5,231.4 178.1,231.3 180,231.1 181.8,231.3 
			184.5,231.5 185.6,231.7 189,232.1 189.3,232.1 190.4,232.3 193.5,232.6 194.3,232.7 198,233.1 200.3,233.4 202.5,233.5 
			205.4,233.8 207,233.9 210.8,234.2 211.5,234.3 212,234.4 214.7,234.6 		"/>
	</g>
	<g>
		<defs>
			<rect id="SVGID_15_" y="0.7" width="360" height="233.9"/>
		</defs>
		<clipPath id="SVGID_16_">
			<use xlink:href="#SVGID_15_"  style="overflow:visible;"/>
		</clipPath>
		<polyline class="st8" points="156.1,234.6 157.5,234.5 161.3,234.2 162,234.2 163.1,234 166.5,233.8 169.2,233.7 171,233.4 
			173.1,233.4 175.5,233.1 178.7,232.9 180,232.9 181.3,232.9 184.5,233.1 186.9,233.4 189,233.4 191.5,233.6 193.5,233.8 
			196.9,234 198,234.2 198.7,234.2 202.5,234.5 203.8,234.6 		"/>
	</g>
	<g>
		<defs>
			<rect id="SVGID_17_" y="0.7" width="360" height="233.9"/>
		</defs>
		<clipPath id="SVGID_18_">
			<use xlink:href="#SVGID_17_"  style="overflow:visible;"/>
		</clipPath>
		<polyline class="st9" points="49.6,234.6 52.3,233.7 57.9,232.6 59.4,232.3 64.8,230.9 70.8,229.9 74.7,229 81,228 81.6,227.9 
			85.5,227.3 88.4,226.7 90,226.5 91.8,226.2 99,225.2 105.5,224 111.9,222.9 118.5,221.4 123.2,220.6 133.9,217.7 135,217.3 
			138.5,215.9 140.6,214.1 141.2,213.6 141.7,212.4 142,211.2 141.9,210 142,208.9 141.7,207.7 141.5,206.5 141.2,205.6 
			140.3,202.3 137.2,192.5 134.9,185.5 131.4,175.6 129.8,171.1 126.3,162.1 125.3,159.4 122.4,152.3 120.6,147.6 118,141 
			116.1,136.4 114.2,131.7 110.4,122.3 108.6,117.7 100.7,96.6 97.7,87.2 95.9,80.2 94.9,75.3 94.2,70.9 93.7,66.2 93.6,58.7 
			93.7,56.4 94.2,52.3 94.6,49.8 95.6,45.7 96,44.4 96.9,41.7 97.4,40.5 99,37.1 99.8,35.3 101.5,32.4 102.4,31.1 106,26.4 
			110.4,21.8 111.1,21.1 117,16.4 120.2,14.1 121.5,13.3 122.9,12.4 127.2,10.1 132.1,7.7 139.5,4.9 144.4,3.2 144.6,3 148.5,1 
			148.8,0.7 		"/>
		<polyline class="st9" points="206.9,0.7 206.9,0.8 207,0.8 208.8,2.1 211.5,3 211.6,3 214.5,3.8 216,4.4 219.4,5.4 220,5.6 
			220.5,5.8 223.6,7 225,7.5 225.6,7.7 229.5,9.5 230.1,9.7 230.8,10.1 234,11.8 234.6,12.1 235.2,12.4 236.8,13.3 238.5,14.5 
			238.7,14.6 238.9,14.7 240.2,15.6 242.3,17.1 243,17.7 245.3,19.4 246.1,20.1 247.5,21.4 247.9,21.8 248.3,22.2 250.3,24.1 
			250.8,24.7 252,26 252.2,26.3 252.4,26.4 253.6,27.9 254.3,28.8 255.7,30.7 256,31.1 256.1,31.3 256.5,31.9 257.5,33.5 258,34.2 
			258.9,35.8 259.3,36.7 260.1,38.1 261,40.3 261.1,40.5 261.8,42.4 262,42.8 262.2,43.5 262.8,45.1 263.1,46.3 263.4,47.5 
			263.5,47.8 		"/>
		<polyline class="st9" points="259,94 255.7,103.6 254.1,108.3 233.5,162.4 230.8,169.8 229.2,174 226.7,180.8 224,187.8 
			222.3,192.5 220.4,197.2 217.4,206.5 217.4,207.3 217,208.9 217.1,209.4 217.1,211.2 218.2,213.6 221.2,215.9 228.9,218.5 
			231.2,219.1 238.5,220.8 241.5,221.4 243,221.7 244.7,222 248.2,222.9 265.5,225.8 268.2,226.2 275.9,227.6 281.9,228.4 
			289.1,229.9 292.5,230.5 294.4,230.9 298.3,231.6 301.5,232.4 304.6,233 306,233.4 310.3,234.6 		"/>
	</g>
	<g>
		<defs>
			<rect id="SVGID_19_" y="0.7" width="360" height="233.9"/>
		</defs>
		<clipPath id="SVGID_20_">
			<use xlink:href="#SVGID_19_"  style="overflow:visible;"/>
		</clipPath>
		<polyline class="st10" points="70.1,234.6 73.1,234 77.9,233 85.5,232.1 88.5,231.5 90,231.4 92.1,231 103.5,229.8 108,229.1 
			112.5,228.3 113.5,228.1 117.3,227.6 123.4,226.6 132.4,225.3 136.3,224.5 141.1,223.8 147.6,222.9 157.5,220.9 158.6,220.6 
			162.3,218.2 162.3,218.1 162.7,215.9 162.4,213.3 162,210.9 160.8,205.9 160,201.9 158.2,190.2 157.5,184.8 156,176.9 
			154.2,168.5 152.3,160.1 148.9,145.9 147.6,140.6 144.9,128.9 142.2,117.7 138.1,100.6 130.3,68.5 128.8,61.5 128,56.8 
			127.2,50.4 126.9,47.5 126.8,44.7 126.9,40 127.4,35.8 127.8,33.5 129.1,28.8 130,26.4 131.1,24.1 132.1,22.6 132.5,21.8 
			134,19.4 134.3,19.1 135.9,17.1 137.1,15.9 138,14.7 142,11.1 146.4,7.7 147.4,7.2 148.5,6.2 149.2,5.7 149.4,5.4 151.1,4.4 
			151.8,3 152.4,1 152.7,0.7 		"/>
		<polyline class="st10" points="203.1,0.7 203.4,2.5 204.3,3 207,5.2 207.3,5.4 208.9,6.7 210.8,7.7 211.5,8.3 214.2,10.1 
			214.8,10.7 216,11.5 217.3,12.4 218.3,13.5 219.9,14.7 220.5,15.4 221.5,16.5 222.1,17.1 222.9,18.2 224,19.4 224.2,19.8 
			225,20.8 225.6,21.8 226.5,23.3 227,24.1 227.4,25.2 228.1,26.4 228.3,27 229.1,28.8 229.5,29.9 229.8,30.9 229.9,31.1 230.3,33 
			230.5,33.5 230.6,34 230.9,35.8 231.1,37.3 231.2,38.1 231.3,39.1 231.4,40.5 231.5,41.8 231.5,42.8 231.5,43.9 231.5,45.1 
			231.5,46.2 231.4,47.5 231.4,47.8 		"/>
		<polyline class="st10" points="222.2,94 219.4,106 215.2,124.7 209.7,151.3 204,178.5 200.2,194.8 197.9,204.2 197.2,208.9 
			196.9,211.2 196.7,213.6 196.8,215.9 197.7,218.4 198,218.7 201.3,220.6 203.5,221.1 212.7,222.9 225.8,224.8 227.8,225.3 
			230.2,225.6 239.6,227 243.1,227.6 253.3,229.3 257.4,229.9 261.9,230.4 267.9,231 275.5,232.3 282,233 286.9,234 288.6,234.3 
			289.9,234.6 		"/>
	</g>
	<g>
		<defs>
			<rect id="SVGID_21_" y="0.7" width="360" height="233.9"/>
		</defs>
		<clipPath id="SVGID_22_">
			<use xlink:href="#SVGID_21_"  style="overflow:visible;"/>
		</clipPath>
		<polyline class="st11" points="83.6,234.6 90,233.6 92.4,233.3 95.6,232.8 103.6,232.3 108,231.7 110.5,231.2 112.5,231 
			113.9,230.7 130.5,228.5 131.7,228.2 157.5,224.8 160,224.2 162,223.9 163,223.4 165.3,222.9 166.5,222.4 168.4,220.6 
			169.4,218.2 169.3,217.4 169.5,214.3 169.3,212.7 169.3,211.2 169.2,210.3 169.2,206.5 169.2,205.6 169.2,201.9 169.2,200.9 
			169.2,197.2 169.2,194.8 169.1,191.5 169,187.8 168.3,178.5 166.4,162.1 164.7,148.1 164,141 163.5,136.4 163.3,134 162.7,126.7 
			161.7,115.2 159.9,91.9 159.6,87.2 159.3,82.6 159.1,80.2 158.7,73.2 158.5,70.9 158,61.5 157.8,59 157.4,49.8 157.2,40.3 
			157.3,33.3 157.5,28.8 158,24.1 158.8,19.4 160.7,12.4 161,11.9 162,8.5 163.3,5.4 164,4.1 164.5,2 164.7,0.7 		"/>
		<polyline class="st11" points="192.2,0.7 192.3,1.3 192.8,3 193.5,4.4 193.8,5.4 194,5.7 194.8,7.7 195.2,9.2 195.8,10.1 
			196.5,11.7 196.8,12.4 196.9,13 197.7,14.7 198,15.7 198.3,16.9 198.4,17.1 198.4,17.3 198.9,19.4 199.1,20 199.4,21.8 
			199.6,23.2 199.8,24.1 199.9,25.4 200.1,26.4 200.2,27.6 200.3,28.8 200.4,29.8 200.5,31.1 200.6,32.1 200.6,33.5 200.7,34.9 
			200.7,35.8 200.8,36.7 200.8,38.1 200.8,39.6 200.8,40.5 200.8,41.9 200.8,42.8 200.8,44.3 200.8,45.1 200.8,46 200.8,47.5 
			200.8,47.8 		"/>
		<polyline class="st11" points="198.6,94 197.8,106.1 195.2,142.5 194.8,148.1 194,157.7 192.5,176.1 190.5,193.3 189.4,202.1 
			189.1,206.6 189,208.9 189.1,211.3 189.3,213.6 190.2,218.2 190.6,219.1 191.3,220.6 193.5,222.5 194.5,222.9 196.9,223.5 
			198,223.9 203.2,224.9 207,225.4 211.5,226 216,226.6 220.5,227.1 229.5,228.5 238.5,229.7 239.9,229.9 243,230.3 246.1,230.6 
			247.5,231 249.4,231.2 252,231.7 256.5,232.3 261,232.6 261.8,232.7 268.1,233.2 276.4,234.6 		"/>
	</g>
	<line class="st12" x1="0" y1="234.6" x2="0" y2="0.7"/>
	<line class="st12" x1="360" y1="234.6" x2="360" y2="0.7"/>
	<line class="st12" x1="0" y1="234.6" x2="360" y2="234.6"/>
	<line class="st12" x1="0" y1="0.7" x2="360" y2="0.7"/>
	<g>
		<defs>
			<rect id="SVGID_23_" y="0.7" width="360" height="233.9"/>
		</defs>
		<clipPath id="SVGID_24_">
			<use xlink:href="#SVGID_23_"  style="overflow:visible;"/>
		</clipPath>
		<path class="st13" d="M262.3,58.7l0-0.9l5.6-0.1c-0.2-0.2-0.4-0.5-0.6-0.8c-0.2-0.3-0.4-0.6-0.5-0.9l0.8,0
			c0.2,0.5,0.5,0.9,0.9,1.3c0.3,0.4,0.7,0.6,1,0.8l0,0.6L262.3,58.7"/>
		<path class="st13" d="M265.9,61.7c-1.2,0-2,0.2-2.3,0.5c-0.4,0.3-0.6,0.6-0.6,1c0,0.4,0.2,0.7,0.6,1c0.4,0.3,1.2,0.4,2.4,0.4
			c1.2,0,2-0.2,2.3-0.5c0.4-0.3,0.6-0.6,0.6-1c0-0.4-0.2-0.7-0.5-1C267.9,61.8,267.1,61.7,265.9,61.7 M265.9,60.8c0.8,0,1.5,0,2,0.2
			c0.5,0.2,0.9,0.4,1.2,0.7s0.4,0.8,0.5,1.3c0,0.4-0.1,0.7-0.2,1c-0.2,0.3-0.4,0.5-0.7,0.7s-0.6,0.4-1,0.5c-0.4,0.1-1,0.2-1.7,0.2
			c-0.8,0-1.5-0.1-2-0.2c-0.5-0.2-0.9-0.4-1.2-0.7s-0.4-0.8-0.4-1.3c0-0.7,0.2-1.2,0.7-1.6C263.6,61.1,264.5,60.9,265.9,60.8"/>
		<path class="st13" d="M266.1,67.3c-1.2,0-2,0.2-2.3,0.5c-0.4,0.3-0.6,0.6-0.6,1c0,0.4,0.2,0.7,0.6,1c0.4,0.3,1.2,0.4,2.4,0.4
			c1.2,0,2-0.2,2.3-0.5c0.4-0.3,0.6-0.6,0.6-1c0-0.4-0.2-0.7-0.5-1C268,67.4,267.2,67.2,266.1,67.3 M266,66.4c0.8,0,1.5,0,2,0.2
			c0.5,0.2,0.9,0.4,1.2,0.7s0.4,0.8,0.5,1.3c0,0.4-0.1,0.7-0.2,1c-0.2,0.3-0.4,0.5-0.7,0.7s-0.6,0.4-1,0.5c-0.4,0.1-1,0.2-1.7,0.2
			c-0.8,0-1.5-0.1-2-0.2c-0.5-0.2-0.9-0.4-1.2-0.7s-0.4-0.8-0.4-1.3c0-0.7,0.2-1.2,0.7-1.6C263.7,66.7,264.7,66.4,266,66.4"/>
		<path class="st13" d="M267.3,76.5c0,0.3,0.1,0.5,0.3,0.7c0.2,0.2,0.5,0.3,0.8,0.3c0.2,0,0.4-0.1,0.5-0.2s0.3-0.2,0.4-0.4
			c0.1-0.2,0.1-0.3,0.1-0.5c0-0.1,0-0.3-0.1-0.4c-0.1-0.1-0.1-0.2-0.2-0.3c-0.1-0.1-0.2-0.2-0.4-0.2c-0.1-0.1-0.3-0.1-0.4-0.1
			c-0.3,0-0.5,0.1-0.7,0.3C267.4,75.9,267.3,76.2,267.3,76.5 M267,76.5c0-0.2,0-0.5,0.2-0.7c0.1-0.2,0.3-0.4,0.5-0.5
			c0.2-0.1,0.4-0.2,0.7-0.2c0.2,0,0.5,0,0.7,0.2c0.2,0.1,0.4,0.3,0.5,0.5c0.1,0.2,0.2,0.4,0.2,0.7c0,0.2-0.1,0.5-0.2,0.7
			s-0.3,0.4-0.5,0.5c-0.2,0.1-0.4,0.2-0.7,0.2s-0.5-0.1-0.7-0.2c-0.2-0.1-0.4-0.3-0.5-0.5S267,76.7,267,76.5"/>
		<path class="st13" d="M265.5,84.8l-0.2,1c-0.8-0.2-1.4-0.5-1.8-1s-0.6-1.1-0.6-1.9c0-0.8,0.1-1.4,0.4-1.9c0.3-0.5,0.7-0.9,1.3-1.1
			c0.6-0.3,1.2-0.4,1.9-0.4c0.7,0,1.4,0.1,2,0.4c0.6,0.3,1,0.7,1.3,1.2c0.3,0.5,0.5,1.1,0.5,1.7c0,0.7-0.2,1.3-0.5,1.8
			s-0.8,0.9-1.5,1.1l-0.2-0.9c0.5-0.2,0.9-0.4,1.1-0.7c0.2-0.3,0.3-0.7,0.3-1.2c0-0.6-0.2-1-0.4-1.4c-0.3-0.4-0.6-0.6-1.1-0.8
			c-0.4-0.1-0.9-0.2-1.4-0.2c-0.6,0-1.1,0.1-1.6,0.3c-0.5,0.2-0.8,0.5-1,0.9c-0.2,0.4-0.3,0.8-0.3,1.2c0,0.5,0.2,1,0.5,1.3
			C264.4,84.4,264.9,84.7,265.5,84.8"/>
	</g>
	<g>
		<defs>
			<rect id="SVGID_25_" y="0.7" width="360" height="233.9"/>
		</defs>
		<clipPath id="SVGID_26_">
			<use xlink:href="#SVGID_25_"  style="overflow:visible;"/>
		</clipPath>
		<path class="st14" d="M226.1,60l-0.8,0l-0.2-4.7c0.2,0,0.4,0,0.6,0.1c0.3,0.1,0.6,0.3,1,0.5c0.3,0.2,0.7,0.6,1.1,1.1
			c0.7,0.7,1.2,1.2,1.6,1.5c0.4,0.3,0.7,0.4,1.1,0.4s0.6-0.2,0.9-0.4c0.2-0.3,0.3-0.6,0.3-1c0-0.4-0.2-0.8-0.4-1
			c-0.3-0.2-0.6-0.4-1.1-0.3l0.1-0.9c0.7,0,1.2,0.2,1.6,0.6c0.4,0.4,0.6,0.9,0.6,1.6c0,0.7-0.1,1.2-0.5,1.7
			c-0.4,0.4-0.8,0.6-1.4,0.7c-0.3,0-0.6,0-0.9-0.1c-0.3-0.1-0.6-0.3-0.9-0.5c-0.3-0.3-0.8-0.7-1.3-1.3c-0.5-0.5-0.8-0.8-0.9-1
			s-0.3-0.3-0.5-0.3L226.1,60"/>
		<path class="st14" d="M228.9,61.7c-1.2,0.1-2,0.2-2.3,0.5c-0.4,0.3-0.5,0.6-0.5,1c0,0.4,0.2,0.7,0.6,1c0.4,0.3,1.2,0.4,2.4,0.3
			c1.2-0.1,2-0.2,2.3-0.5c0.4-0.3,0.5-0.6,0.5-1c0-0.4-0.2-0.7-0.6-0.9C230.9,61.7,230.1,61.6,228.9,61.7 M228.9,60.8
			c0.8,0,1.5,0,2.1,0.2c0.5,0.1,0.9,0.4,1.2,0.7s0.5,0.8,0.5,1.3c0,0.4,0,0.7-0.2,1c-0.1,0.3-0.4,0.5-0.6,0.7
			c-0.3,0.2-0.6,0.4-1,0.5c-0.4,0.1-1,0.2-1.7,0.2c-0.8,0-1.5,0-2.1-0.2c-0.5-0.1-0.9-0.4-1.2-0.7c-0.3-0.3-0.4-0.8-0.5-1.3
			c0-0.7,0.2-1.3,0.6-1.7C226.6,61.1,227.5,60.9,228.9,60.8"/>
		<path class="st14" d="M229.2,67.2c-1.2,0.1-2,0.2-2.3,0.5c-0.4,0.3-0.5,0.6-0.5,1c0,0.4,0.2,0.7,0.6,1c0.4,0.3,1.2,0.4,2.4,0.3
			c1.2-0.1,2-0.2,2.3-0.5c0.4-0.3,0.5-0.6,0.5-1c0-0.4-0.2-0.7-0.6-0.9C231.2,67.3,230.3,67.2,229.2,67.2 M229.1,66.3
			c0.8,0,1.5,0,2.1,0.2c0.5,0.1,0.9,0.4,1.2,0.7s0.5,0.8,0.5,1.3c0,0.4,0,0.7-0.2,1c-0.1,0.3-0.4,0.5-0.6,0.7
			c-0.3,0.2-0.6,0.4-1,0.5c-0.4,0.1-1,0.2-1.7,0.2c-0.8,0-1.5,0-2.1-0.2c-0.5-0.1-0.9-0.4-1.2-0.7c-0.3-0.3-0.4-0.8-0.5-1.3
			c0-0.7,0.2-1.3,0.6-1.7C226.8,66.7,227.8,66.4,229.1,66.3"/>
		<path class="st14" d="M230.6,76.4c0,0.3,0.1,0.5,0.4,0.7c0.2,0.2,0.5,0.3,0.8,0.3c0.2,0,0.4-0.1,0.5-0.2c0.2-0.1,0.3-0.2,0.4-0.4
			c0.1-0.2,0.1-0.3,0.1-0.5c0-0.1,0-0.3-0.1-0.4c-0.1-0.1-0.2-0.2-0.3-0.3c-0.1-0.1-0.2-0.2-0.4-0.2s-0.3-0.1-0.4-0.1
			c-0.3,0-0.5,0.1-0.7,0.4C230.7,75.8,230.6,76.1,230.6,76.4 M230.3,76.4c0-0.2,0-0.5,0.1-0.7c0.1-0.2,0.3-0.4,0.5-0.5
			c0.2-0.1,0.4-0.2,0.7-0.2c0.2,0,0.5,0,0.7,0.1c0.2,0.1,0.4,0.3,0.5,0.5c0.1,0.2,0.2,0.4,0.2,0.7c0,0.2,0,0.5-0.2,0.7
			c-0.1,0.2-0.3,0.4-0.5,0.5c-0.2,0.1-0.4,0.2-0.7,0.2c-0.2,0-0.5,0-0.7-0.1c-0.2-0.1-0.4-0.3-0.5-0.5S230.3,76.7,230.3,76.4"/>
		<path class="st14" d="M229,84.8l-0.2,1c-0.8-0.2-1.4-0.5-1.8-1c-0.4-0.5-0.7-1.1-0.7-1.9c0-0.8,0.1-1.4,0.4-1.9
			c0.3-0.5,0.7-0.9,1.3-1.2c0.6-0.3,1.2-0.4,1.9-0.5c0.7,0,1.4,0.1,2,0.3c0.6,0.3,1,0.6,1.3,1.2c0.3,0.5,0.5,1.1,0.5,1.7
			c0,0.7-0.1,1.3-0.5,1.8c-0.3,0.5-0.8,0.9-1.5,1.1l-0.3-0.9c0.5-0.2,0.9-0.5,1.1-0.8c0.2-0.3,0.3-0.7,0.3-1.2c0-0.6-0.2-1-0.5-1.4
			c-0.3-0.4-0.7-0.6-1.1-0.7s-0.9-0.2-1.4-0.2c-0.6,0-1.1,0.1-1.6,0.3c-0.5,0.2-0.8,0.5-1,0.9c-0.2,0.4-0.3,0.8-0.3,1.2
			c0,0.5,0.2,1,0.5,1.3C227.9,84.4,228.4,84.6,229,84.8"/>
	</g>
	<g>
		<defs>
			<rect id="SVGID_27_" y="0.7" width="360" height="233.9"/>
		</defs>
		<clipPath id="SVGID_28_">
			<use xlink:href="#SVGID_27_"  style="overflow:visible;"/>
		</clipPath>
		<path class="st15" d="M199.7,55.3l0.1,0.9c-0.5,0.1-0.9,0.3-1.1,0.5c-0.2,0.2-0.3,0.5-0.3,0.9c0,0.4,0.1,0.8,0.4,1
			c0.3,0.3,0.6,0.4,1.1,0.4c0.4,0,0.7-0.1,1-0.4c0.3-0.3,0.4-0.6,0.4-1c0-0.2,0-0.4-0.1-0.6l0.8,0.1c0,0.1,0,0.1,0,0.1
			c0,0.4,0.1,0.7,0.3,1s0.5,0.4,0.9,0.4c0.3,0,0.6-0.1,0.8-0.3c0.2-0.2,0.3-0.5,0.3-0.8c0-0.3-0.1-0.6-0.3-0.9
			c-0.2-0.2-0.5-0.4-1-0.4l0.1-0.9c0.6,0.1,1.1,0.3,1.4,0.7c0.3,0.4,0.5,0.8,0.5,1.4c0,0.4-0.1,0.8-0.2,1.1
			c-0.2,0.3-0.4,0.6-0.7,0.8c-0.3,0.2-0.6,0.3-0.9,0.3c-0.3,0-0.6-0.1-0.9-0.2c-0.3-0.2-0.5-0.4-0.6-0.7c-0.1,0.4-0.3,0.7-0.6,1
			c-0.3,0.2-0.7,0.4-1.2,0.4c-0.6,0-1.2-0.2-1.6-0.7c-0.4-0.5-0.7-1-0.7-1.7c0-0.6,0.2-1.2,0.5-1.6
			C198.6,55.6,199.1,55.4,199.7,55.3"/>
		<path class="st15" d="M201.4,61.7c-1.2,0-2,0.2-2.3,0.4c-0.4,0.3-0.6,0.6-0.6,1c0,0.4,0.2,0.7,0.6,1c0.4,0.3,1.2,0.4,2.4,0.4
			s2-0.2,2.3-0.4c0.4-0.3,0.6-0.6,0.6-1c0-0.4-0.2-0.7-0.5-1C203.4,61.9,202.6,61.7,201.4,61.7 M201.4,60.8c0.8,0,1.5,0.1,2,0.2
			c0.5,0.2,0.9,0.4,1.2,0.8c0.3,0.3,0.4,0.8,0.4,1.3c0,0.4-0.1,0.7-0.2,1c-0.2,0.3-0.4,0.5-0.7,0.7s-0.6,0.3-1.1,0.5
			c-0.4,0.1-1,0.2-1.7,0.2c-0.8,0-1.5-0.1-2-0.2c-0.5-0.2-0.9-0.4-1.2-0.8c-0.3-0.3-0.4-0.8-0.4-1.3c0-0.7,0.2-1.2,0.7-1.6
			C199.1,61.1,200.1,60.9,201.4,60.8"/>
		<path class="st15" d="M201.5,67.3c-1.2,0-2,0.2-2.3,0.4c-0.4,0.3-0.6,0.6-0.6,1c0,0.4,0.2,0.7,0.6,1c0.4,0.3,1.2,0.4,2.4,0.4
			s2-0.2,2.3-0.4c0.4-0.3,0.6-0.6,0.6-1c0-0.4-0.2-0.7-0.5-1C203.5,67.4,202.7,67.3,201.5,67.3 M201.5,66.4c0.8,0,1.5,0.1,2,0.2
			c0.5,0.2,0.9,0.4,1.2,0.8c0.3,0.3,0.4,0.8,0.4,1.3c0,0.4-0.1,0.7-0.2,1c-0.2,0.3-0.4,0.5-0.7,0.7s-0.6,0.3-1.1,0.5
			c-0.4,0.1-1,0.2-1.7,0.2c-0.8,0-1.5-0.1-2-0.2c-0.5-0.2-0.9-0.4-1.2-0.8c-0.3-0.3-0.4-0.8-0.4-1.3c0-0.7,0.2-1.2,0.7-1.6
			C199.2,66.7,200.1,66.4,201.5,66.4"/>
		<path class="st15" d="M202.6,76.5c0,0.3,0.1,0.5,0.3,0.8c0.2,0.2,0.5,0.3,0.8,0.3c0.2,0,0.4-0.1,0.5-0.2s0.3-0.2,0.4-0.4
			c0.1-0.2,0.1-0.3,0.1-0.5c0-0.1,0-0.3-0.1-0.4c-0.1-0.1-0.1-0.2-0.2-0.3c-0.1-0.1-0.2-0.2-0.4-0.2c-0.1-0.1-0.3-0.1-0.4-0.1
			c-0.3,0-0.5,0.1-0.8,0.3C202.7,76,202.6,76.2,202.6,76.5 M202.3,76.5c0-0.2,0.1-0.5,0.2-0.7c0.1-0.2,0.3-0.4,0.5-0.5
			c0.2-0.1,0.4-0.2,0.7-0.2c0.2,0,0.5,0.1,0.7,0.2c0.2,0.1,0.4,0.3,0.5,0.5c0.1,0.2,0.2,0.4,0.2,0.7c0,0.2-0.1,0.5-0.2,0.7
			c-0.1,0.2-0.3,0.4-0.5,0.5c-0.2,0.1-0.4,0.2-0.7,0.2s-0.5-0.1-0.7-0.2c-0.2-0.1-0.4-0.3-0.5-0.5C202.3,77,202.3,76.7,202.3,76.5"
			/>
		<path class="st15" d="M200.7,84.8l-0.2,1c-0.8-0.2-1.4-0.5-1.8-1.1c-0.4-0.5-0.6-1.1-0.6-1.9c0-0.8,0.1-1.4,0.4-1.9
			c0.3-0.5,0.8-0.9,1.3-1.1s1.2-0.4,1.9-0.4c0.7,0,1.4,0.1,2,0.4c0.6,0.3,1,0.7,1.3,1.2c0.3,0.5,0.4,1.1,0.5,1.7
			c0,0.7-0.2,1.3-0.5,1.8c-0.4,0.5-0.9,0.8-1.5,1l-0.2-0.9c0.5-0.2,0.9-0.4,1.1-0.7c0.2-0.3,0.4-0.7,0.3-1.2c0-0.6-0.2-1-0.4-1.4
			c-0.3-0.4-0.6-0.6-1.1-0.8c-0.4-0.1-0.9-0.2-1.4-0.2c-0.6,0-1.1,0.1-1.6,0.3c-0.5,0.2-0.8,0.5-1,0.8c-0.2,0.4-0.3,0.8-0.3,1.2
			c0,0.5,0.2,1,0.5,1.3C199.6,84.4,200.1,84.7,200.7,84.8"/>
	</g>
</g>
</svg>
