<?xml version="1.0" encoding="utf-8" standalone="no"?>
<!DOCTYPE svg PUBLIC "-//W3C//DTD SVG 1.1//EN"
  "http://www.w3.org/Graphics/SVG/1.1/DTD/svg11.dtd">
<!-- Created with matplotlib (https://matplotlib.org/) -->
<svg height="288pt" version="1.1" viewBox="0 0 432 288" width="432pt" xmlns="http://www.w3.org/2000/svg" xmlns:xlink="http://www.w3.org/1999/xlink">
 <metadata>
  <rdf:RDF xmlns:cc="http://creativecommons.org/ns#" xmlns:dc="http://purl.org/dc/elements/1.1/" xmlns:rdf="http://www.w3.org/1999/02/22-rdf-syntax-ns#">
   <cc:Work>
    <dc:type rdf:resource="http://purl.org/dc/dcmitype/StillImage"/>
    <dc:date>2020-12-02T13:36:49.036682</dc:date>
    <dc:format>image/svg+xml</dc:format>
    <dc:creator>
     <cc:Agent>
      <dc:title>Matplotlib v3.3.2, https://matplotlib.org/</dc:title>
     </cc:Agent>
    </dc:creator>
   </cc:Work>
  </rdf:RDF>
 </metadata>
 <defs>
  <style type="text/css">*{stroke-linecap:butt;stroke-linejoin:round;}</style>
 </defs>
 <g id="figure_1">
  <g id="patch_1">
   <path d="M 0 288 
L 432 288 
L 432 0 
L 0 0 
z
" style="fill:none;"/>
  </g>
  <g id="axes_1">
   <g id="patch_2">
    <path d="M 52.925 248.2 
L 412.8875 248.2 
L 412.8875 14.3 
L 52.925 14.3 
z
" style="fill:#ffffff;"/>
   </g>
   <g id="matplotlib.axis_1">
    <g id="xtick_1">
     <g id="line2d_1">
      <defs>
       <path d="M 0 0 
L 0 3.5 
" id="m747791f767" style="stroke:#000000;stroke-width:0.8;"/>
      </defs>
      <g>
       <use style="stroke:#000000;stroke-width:0.8;" x="52.925" xlink:href="#m747791f767" y="248.2"/>
      </g>
     </g>
     <g id="text_1">
      <!-- −400 -->
      <g transform="translate(41.663281 262.357813)scale(0.1 -0.1)">
       <defs>
        <path d="M 52.828125 31.203125 
L 5.5625 31.203125 
L 5.5625 39.40625 
L 52.828125 39.40625 
z
" id="ArialMT-8722"/>
        <path d="M 32.328125 0 
L 32.328125 17.140625 
L 1.265625 17.140625 
L 1.265625 25.203125 
L 33.9375 71.578125 
L 41.109375 71.578125 
L 41.109375 25.203125 
L 50.78125 25.203125 
L 50.78125 17.140625 
L 41.109375 17.140625 
L 41.109375 0 
z
M 32.328125 25.203125 
L 32.328125 57.46875 
L 9.90625 25.203125 
z
" id="ArialMT-52"/>
        <path d="M 4.15625 35.296875 
Q 4.15625 48 6.765625 55.734375 
Q 9.375 63.484375 14.515625 67.671875 
Q 19.671875 71.875 27.484375 71.875 
Q 33.25 71.875 37.59375 69.546875 
Q 41.9375 67.234375 44.765625 62.859375 
Q 47.609375 58.5 49.21875 52.21875 
Q 50.828125 45.953125 50.828125 35.296875 
Q 50.828125 22.703125 48.234375 14.96875 
Q 45.65625 7.234375 40.5 3 
Q 35.359375 -1.21875 27.484375 -1.21875 
Q 17.140625 -1.21875 11.234375 6.203125 
Q 4.15625 15.140625 4.15625 35.296875 
z
M 13.1875 35.296875 
Q 13.1875 17.671875 17.3125 11.828125 
Q 21.4375 6 27.484375 6 
Q 33.546875 6 37.671875 11.859375 
Q 41.796875 17.71875 41.796875 35.296875 
Q 41.796875 52.984375 37.671875 58.78125 
Q 33.546875 64.59375 27.390625 64.59375 
Q 21.34375 64.59375 17.71875 59.46875 
Q 13.1875 52.9375 13.1875 35.296875 
z
" id="ArialMT-48"/>
       </defs>
       <use xlink:href="#ArialMT-8722"/>
       <use x="58.398438" xlink:href="#ArialMT-52"/>
       <use x="114.013672" xlink:href="#ArialMT-48"/>
       <use x="169.628906" xlink:href="#ArialMT-48"/>
      </g>
     </g>
    </g>
    <g id="xtick_2">
     <g id="line2d_2">
      <g>
       <use style="stroke:#000000;stroke-width:0.8;" x="97.920313" xlink:href="#m747791f767" y="248.2"/>
      </g>
     </g>
     <g id="text_2">
      <!-- −300 -->
      <g transform="translate(86.658594 262.357813)scale(0.1 -0.1)">
       <defs>
        <path d="M 4.203125 18.890625 
L 12.984375 20.0625 
Q 14.5 12.59375 18.140625 9.296875 
Q 21.78125 6 27 6 
Q 33.203125 6 37.46875 10.296875 
Q 41.75 14.59375 41.75 20.953125 
Q 41.75 27 37.796875 30.921875 
Q 33.84375 34.859375 27.734375 34.859375 
Q 25.25 34.859375 21.53125 33.890625 
L 22.515625 41.609375 
Q 23.390625 41.5 23.921875 41.5 
Q 29.546875 41.5 34.03125 44.421875 
Q 38.53125 47.359375 38.53125 53.46875 
Q 38.53125 58.296875 35.25 61.46875 
Q 31.984375 64.65625 26.8125 64.65625 
Q 21.6875 64.65625 18.265625 61.421875 
Q 14.84375 58.203125 13.875 51.765625 
L 5.078125 53.328125 
Q 6.6875 62.15625 12.390625 67.015625 
Q 18.109375 71.875 26.609375 71.875 
Q 32.46875 71.875 37.390625 69.359375 
Q 42.328125 66.84375 44.9375 62.5 
Q 47.5625 58.15625 47.5625 53.265625 
Q 47.5625 48.640625 45.0625 44.828125 
Q 42.578125 41.015625 37.703125 38.765625 
Q 44.046875 37.3125 47.5625 32.6875 
Q 51.078125 28.078125 51.078125 21.140625 
Q 51.078125 11.765625 44.234375 5.25 
Q 37.40625 -1.265625 26.953125 -1.265625 
Q 17.53125 -1.265625 11.296875 4.34375 
Q 5.078125 9.96875 4.203125 18.890625 
z
" id="ArialMT-51"/>
       </defs>
       <use xlink:href="#ArialMT-8722"/>
       <use x="58.398438" xlink:href="#ArialMT-51"/>
       <use x="114.013672" xlink:href="#ArialMT-48"/>
       <use x="169.628906" xlink:href="#ArialMT-48"/>
      </g>
     </g>
    </g>
    <g id="xtick_3">
     <g id="line2d_3">
      <g>
       <use style="stroke:#000000;stroke-width:0.8;" x="142.915625" xlink:href="#m747791f767" y="248.2"/>
      </g>
     </g>
     <g id="text_3">
      <!-- −200 -->
      <g transform="translate(131.653906 262.357813)scale(0.1 -0.1)">
       <defs>
        <path d="M 50.34375 8.453125 
L 50.34375 0 
L 3.03125 0 
Q 2.9375 3.171875 4.046875 6.109375 
Q 5.859375 10.9375 9.828125 15.625 
Q 13.8125 20.3125 21.34375 26.46875 
Q 33.015625 36.03125 37.109375 41.625 
Q 41.21875 47.21875 41.21875 52.203125 
Q 41.21875 57.421875 37.46875 61 
Q 33.734375 64.59375 27.734375 64.59375 
Q 21.390625 64.59375 17.578125 60.78125 
Q 13.765625 56.984375 13.71875 50.25 
L 4.6875 51.171875 
Q 5.609375 61.28125 11.65625 66.578125 
Q 17.71875 71.875 27.9375 71.875 
Q 38.234375 71.875 44.234375 66.15625 
Q 50.25 60.453125 50.25 52 
Q 50.25 47.703125 48.484375 43.546875 
Q 46.734375 39.40625 42.65625 34.8125 
Q 38.578125 30.21875 29.109375 22.21875 
Q 21.1875 15.578125 18.9375 13.203125 
Q 16.703125 10.84375 15.234375 8.453125 
z
" id="ArialMT-50"/>
       </defs>
       <use xlink:href="#ArialMT-8722"/>
       <use x="58.398438" xlink:href="#ArialMT-50"/>
       <use x="114.013672" xlink:href="#ArialMT-48"/>
       <use x="169.628906" xlink:href="#ArialMT-48"/>
      </g>
     </g>
    </g>
    <g id="xtick_4">
     <g id="line2d_4">
      <g>
       <use style="stroke:#000000;stroke-width:0.8;" x="187.910937" xlink:href="#m747791f767" y="248.2"/>
      </g>
     </g>
     <g id="text_4">
      <!-- −100 -->
      <g transform="translate(176.649219 262.357813)scale(0.1 -0.1)">
       <defs>
        <path d="M 37.25 0 
L 28.46875 0 
L 28.46875 56 
Q 25.296875 52.984375 20.140625 49.953125 
Q 14.984375 46.921875 10.890625 45.40625 
L 10.890625 53.90625 
Q 18.265625 57.375 23.78125 62.296875 
Q 29.296875 67.234375 31.59375 71.875 
L 37.25 71.875 
z
" id="ArialMT-49"/>
       </defs>
       <use xlink:href="#ArialMT-8722"/>
       <use x="58.398438" xlink:href="#ArialMT-49"/>
       <use x="114.013672" xlink:href="#ArialMT-48"/>
       <use x="169.628906" xlink:href="#ArialMT-48"/>
      </g>
     </g>
    </g>
    <g id="xtick_5">
     <g id="line2d_5">
      <g>
       <use style="stroke:#000000;stroke-width:0.8;" x="232.90625" xlink:href="#m747791f767" y="248.2"/>
      </g>
     </g>
     <g id="text_5">
      <!-- 0 -->
      <g transform="translate(230.125781 262.357813)scale(0.1 -0.1)">
       <use xlink:href="#ArialMT-48"/>
      </g>
     </g>
    </g>
    <g id="xtick_6">
     <g id="line2d_6">
      <g>
       <use style="stroke:#000000;stroke-width:0.8;" x="277.901563" xlink:href="#m747791f767" y="248.2"/>
      </g>
     </g>
     <g id="text_6">
      <!-- 100 -->
      <g transform="translate(269.560156 262.357813)scale(0.1 -0.1)">
       <use xlink:href="#ArialMT-49"/>
       <use x="55.615234" xlink:href="#ArialMT-48"/>
       <use x="111.230469" xlink:href="#ArialMT-48"/>
      </g>
     </g>
    </g>
    <g id="xtick_7">
     <g id="line2d_7">
      <g>
       <use style="stroke:#000000;stroke-width:0.8;" x="322.896875" xlink:href="#m747791f767" y="248.2"/>
      </g>
     </g>
     <g id="text_7">
      <!-- 200 -->
      <g transform="translate(314.555469 262.357813)scale(0.1 -0.1)">
       <use xlink:href="#ArialMT-50"/>
       <use x="55.615234" xlink:href="#ArialMT-48"/>
       <use x="111.230469" xlink:href="#ArialMT-48"/>
      </g>
     </g>
    </g>
    <g id="xtick_8">
     <g id="line2d_8">
      <g>
       <use style="stroke:#000000;stroke-width:0.8;" x="367.892187" xlink:href="#m747791f767" y="248.2"/>
      </g>
     </g>
     <g id="text_8">
      <!-- 300 -->
      <g transform="translate(359.550781 262.357813)scale(0.1 -0.1)">
       <use xlink:href="#ArialMT-51"/>
       <use x="55.615234" xlink:href="#ArialMT-48"/>
       <use x="111.230469" xlink:href="#ArialMT-48"/>
      </g>
     </g>
    </g>
    <g id="xtick_9">
     <g id="line2d_9">
      <g>
       <use style="stroke:#000000;stroke-width:0.8;" x="412.8875" xlink:href="#m747791f767" y="248.2"/>
      </g>
     </g>
     <g id="text_9">
      <!-- 400 -->
      <g transform="translate(404.546094 262.357813)scale(0.1 -0.1)">
       <use xlink:href="#ArialMT-52"/>
       <use x="55.615234" xlink:href="#ArialMT-48"/>
       <use x="111.230469" xlink:href="#ArialMT-48"/>
      </g>
     </g>
    </g>
    <g id="text_10">
     <!-- x (m) -->
     <g transform="translate(221.522656 275.625)scale(0.1 -0.1)">
      <defs>
       <path d="M 0.734375 0 
L 19.671875 26.953125 
L 2.15625 51.859375 
L 13.140625 51.859375 
L 21.09375 39.703125 
Q 23.34375 36.234375 24.703125 33.890625 
Q 26.859375 37.109375 28.65625 39.59375 
L 37.40625 51.859375 
L 47.90625 51.859375 
L 29.984375 27.4375 
L 49.265625 0 
L 38.484375 0 
L 27.828125 16.109375 
L 25 20.453125 
L 11.375 0 
z
" id="ArialMT-120"/>
       <path id="ArialMT-32"/>
       <path d="M 23.390625 -21.046875 
Q 16.109375 -11.859375 11.078125 0.4375 
Q 6.0625 12.75 6.0625 25.921875 
Q 6.0625 37.546875 9.8125 48.1875 
Q 14.203125 60.546875 23.390625 72.796875 
L 29.6875 72.796875 
Q 23.78125 62.640625 21.875 58.296875 
Q 18.890625 51.5625 17.1875 44.234375 
Q 15.09375 35.109375 15.09375 25.875 
Q 15.09375 2.390625 29.6875 -21.046875 
z
" id="ArialMT-40"/>
       <path d="M 6.59375 0 
L 6.59375 51.859375 
L 14.453125 51.859375 
L 14.453125 44.578125 
Q 16.890625 48.390625 20.9375 50.703125 
Q 25 53.03125 30.171875 53.03125 
Q 35.9375 53.03125 39.625 50.640625 
Q 43.3125 48.25 44.828125 43.953125 
Q 50.984375 53.03125 60.84375 53.03125 
Q 68.5625 53.03125 72.703125 48.75 
Q 76.859375 44.484375 76.859375 35.59375 
L 76.859375 0 
L 68.109375 0 
L 68.109375 32.671875 
Q 68.109375 37.9375 67.25 40.25 
Q 66.40625 42.578125 64.15625 43.984375 
Q 61.921875 45.40625 58.890625 45.40625 
Q 53.421875 45.40625 49.796875 41.765625 
Q 46.1875 38.140625 46.1875 30.125 
L 46.1875 0 
L 37.40625 0 
L 37.40625 33.6875 
Q 37.40625 39.546875 35.25 42.46875 
Q 33.109375 45.40625 28.21875 45.40625 
Q 24.515625 45.40625 21.359375 43.453125 
Q 18.21875 41.5 16.796875 37.734375 
Q 15.375 33.984375 15.375 26.90625 
L 15.375 0 
z
" id="ArialMT-109"/>
       <path d="M 12.359375 -21.046875 
L 6.0625 -21.046875 
Q 20.65625 2.390625 20.65625 25.875 
Q 20.65625 35.0625 18.5625 44.09375 
Q 16.890625 51.421875 13.921875 58.15625 
Q 12.015625 62.546875 6.0625 72.796875 
L 12.359375 72.796875 
Q 21.53125 60.546875 25.921875 48.1875 
Q 29.6875 37.546875 29.6875 25.921875 
Q 29.6875 12.75 24.625 0.4375 
Q 19.578125 -11.859375 12.359375 -21.046875 
z
" id="ArialMT-41"/>
      </defs>
      <use xlink:href="#ArialMT-120"/>
      <use x="50" xlink:href="#ArialMT-32"/>
      <use x="77.783203" xlink:href="#ArialMT-40"/>
      <use x="111.083984" xlink:href="#ArialMT-109"/>
      <use x="194.384766" xlink:href="#ArialMT-41"/>
     </g>
    </g>
   </g>
   <g id="matplotlib.axis_2">
    <g id="ytick_1">
     <g id="line2d_10">
      <defs>
       <path d="M 0 0 
L -3.5 0 
" id="mf6111ad0e0" style="stroke:#000000;stroke-width:0.8;"/>
      </defs>
      <g>
       <use style="stroke:#000000;stroke-width:0.8;" x="52.925" xlink:href="#mf6111ad0e0" y="14.3"/>
      </g>
     </g>
     <g id="text_11">
      <!-- 0 -->
      <g transform="translate(40.364063 17.878906)scale(0.1 -0.1)">
       <use xlink:href="#ArialMT-48"/>
      </g>
     </g>
    </g>
    <g id="ytick_2">
     <g id="line2d_11">
      <g>
       <use style="stroke:#000000;stroke-width:0.8;" x="52.925" xlink:href="#mf6111ad0e0" y="61.08"/>
      </g>
     </g>
     <g id="text_12">
      <!-- 200 -->
      <g transform="translate(29.242188 64.658906)scale(0.1 -0.1)">
       <use xlink:href="#ArialMT-50"/>
       <use x="55.615234" xlink:href="#ArialMT-48"/>
       <use x="111.230469" xlink:href="#ArialMT-48"/>
      </g>
     </g>
    </g>
    <g id="ytick_3">
     <g id="line2d_12">
      <g>
       <use style="stroke:#000000;stroke-width:0.8;" x="52.925" xlink:href="#mf6111ad0e0" y="107.86"/>
      </g>
     </g>
     <g id="text_13">
      <!-- 400 -->
      <g transform="translate(29.242188 111.438906)scale(0.1 -0.1)">
       <use xlink:href="#ArialMT-52"/>
       <use x="55.615234" xlink:href="#ArialMT-48"/>
       <use x="111.230469" xlink:href="#ArialMT-48"/>
      </g>
     </g>
    </g>
    <g id="ytick_4">
     <g id="line2d_13">
      <g>
       <use style="stroke:#000000;stroke-width:0.8;" x="52.925" xlink:href="#mf6111ad0e0" y="154.64"/>
      </g>
     </g>
     <g id="text_14">
      <!-- 600 -->
      <g transform="translate(29.242188 158.218906)scale(0.1 -0.1)">
       <defs>
        <path d="M 49.75 54.046875 
L 41.015625 53.375 
Q 39.84375 58.546875 37.703125 60.890625 
Q 34.125 64.65625 28.90625 64.65625 
Q 24.703125 64.65625 21.53125 62.3125 
Q 17.390625 59.28125 14.984375 53.46875 
Q 12.59375 47.65625 12.5 36.921875 
Q 15.671875 41.75 20.265625 44.09375 
Q 24.859375 46.4375 29.890625 46.4375 
Q 38.671875 46.4375 44.84375 39.96875 
Q 51.03125 33.5 51.03125 23.25 
Q 51.03125 16.5 48.125 10.71875 
Q 45.21875 4.9375 40.140625 1.859375 
Q 35.0625 -1.21875 28.609375 -1.21875 
Q 17.625 -1.21875 10.6875 6.859375 
Q 3.765625 14.9375 3.765625 33.5 
Q 3.765625 54.25 11.421875 63.671875 
Q 18.109375 71.875 29.4375 71.875 
Q 37.890625 71.875 43.28125 67.140625 
Q 48.6875 62.40625 49.75 54.046875 
z
M 13.875 23.1875 
Q 13.875 18.65625 15.796875 14.5 
Q 17.71875 10.359375 21.1875 8.171875 
Q 24.65625 6 28.46875 6 
Q 34.03125 6 38.03125 10.484375 
Q 42.046875 14.984375 42.046875 22.703125 
Q 42.046875 30.125 38.078125 34.390625 
Q 34.125 38.671875 28.125 38.671875 
Q 22.171875 38.671875 18.015625 34.390625 
Q 13.875 30.125 13.875 23.1875 
z
" id="ArialMT-54"/>
       </defs>
       <use xlink:href="#ArialMT-54"/>
       <use x="55.615234" xlink:href="#ArialMT-48"/>
       <use x="111.230469" xlink:href="#ArialMT-48"/>
      </g>
     </g>
    </g>
    <g id="ytick_5">
     <g id="line2d_14">
      <g>
       <use style="stroke:#000000;stroke-width:0.8;" x="52.925" xlink:href="#mf6111ad0e0" y="201.42"/>
      </g>
     </g>
     <g id="text_15">
      <!-- 800 -->
      <g transform="translate(29.242188 204.998906)scale(0.1 -0.1)">
       <defs>
        <path d="M 17.671875 38.8125 
Q 12.203125 40.828125 9.5625 44.53125 
Q 6.9375 48.25 6.9375 53.421875 
Q 6.9375 61.234375 12.546875 66.546875 
Q 18.171875 71.875 27.484375 71.875 
Q 36.859375 71.875 42.578125 66.421875 
Q 48.296875 60.984375 48.296875 53.171875 
Q 48.296875 48.1875 45.671875 44.5 
Q 43.0625 40.828125 37.75 38.8125 
Q 44.34375 36.671875 47.78125 31.875 
Q 51.21875 27.09375 51.21875 20.453125 
Q 51.21875 11.28125 44.71875 5.03125 
Q 38.234375 -1.21875 27.640625 -1.21875 
Q 17.046875 -1.21875 10.546875 5.046875 
Q 4.046875 11.328125 4.046875 20.703125 
Q 4.046875 27.6875 7.59375 32.390625 
Q 11.140625 37.109375 17.671875 38.8125 
z
M 15.921875 53.71875 
Q 15.921875 48.640625 19.1875 45.40625 
Q 22.46875 42.1875 27.6875 42.1875 
Q 32.765625 42.1875 36.015625 45.375 
Q 39.265625 48.578125 39.265625 53.21875 
Q 39.265625 58.0625 35.90625 61.359375 
Q 32.5625 64.65625 27.59375 64.65625 
Q 22.5625 64.65625 19.234375 61.421875 
Q 15.921875 58.203125 15.921875 53.71875 
z
M 13.09375 20.65625 
Q 13.09375 16.890625 14.875 13.375 
Q 16.65625 9.859375 20.171875 7.921875 
Q 23.6875 6 27.734375 6 
Q 34.03125 6 38.125 10.046875 
Q 42.234375 14.109375 42.234375 20.359375 
Q 42.234375 26.703125 38.015625 30.859375 
Q 33.796875 35.015625 27.4375 35.015625 
Q 21.234375 35.015625 17.15625 30.90625 
Q 13.09375 26.8125 13.09375 20.65625 
z
" id="ArialMT-56"/>
       </defs>
       <use xlink:href="#ArialMT-56"/>
       <use x="55.615234" xlink:href="#ArialMT-48"/>
       <use x="111.230469" xlink:href="#ArialMT-48"/>
      </g>
     </g>
    </g>
    <g id="ytick_6">
     <g id="line2d_15">
      <g>
       <use style="stroke:#000000;stroke-width:0.8;" x="52.925" xlink:href="#mf6111ad0e0" y="248.2"/>
      </g>
     </g>
     <g id="text_16">
      <!-- 1000 -->
      <g transform="translate(23.68125 251.778906)scale(0.1 -0.1)">
       <use xlink:href="#ArialMT-49"/>
       <use x="55.615234" xlink:href="#ArialMT-48"/>
       <use x="111.230469" xlink:href="#ArialMT-48"/>
       <use x="166.845703" xlink:href="#ArialMT-48"/>
      </g>
     </g>
    </g>
    <g id="text_17">
     <!-- Depth below seafloor (m) -->
     <g transform="translate(17.576563 187.103125)rotate(-90)scale(0.1 -0.1)">
      <defs>
       <path d="M 7.71875 0 
L 7.71875 71.578125 
L 32.375 71.578125 
Q 40.71875 71.578125 45.125 70.5625 
Q 51.265625 69.140625 55.609375 65.4375 
Q 61.28125 60.640625 64.078125 53.1875 
Q 66.890625 45.75 66.890625 36.1875 
Q 66.890625 28.03125 64.984375 21.734375 
Q 63.09375 15.4375 60.109375 11.296875 
Q 57.125 7.171875 53.578125 4.796875 
Q 50.046875 2.4375 45.046875 1.21875 
Q 40.046875 0 33.546875 0 
z
M 17.1875 8.453125 
L 32.46875 8.453125 
Q 39.546875 8.453125 43.578125 9.765625 
Q 47.609375 11.078125 50 13.484375 
Q 53.375 16.84375 55.25 22.53125 
Q 57.125 28.21875 57.125 36.328125 
Q 57.125 47.5625 53.4375 53.59375 
Q 49.75 59.625 44.484375 61.671875 
Q 40.671875 63.140625 32.234375 63.140625 
L 17.1875 63.140625 
z
" id="ArialMT-68"/>
       <path d="M 42.09375 16.703125 
L 51.171875 15.578125 
Q 49.03125 7.625 43.21875 3.21875 
Q 37.40625 -1.171875 28.375 -1.171875 
Q 17 -1.171875 10.328125 5.828125 
Q 3.65625 12.84375 3.65625 25.484375 
Q 3.65625 38.578125 10.390625 45.796875 
Q 17.140625 53.03125 27.875 53.03125 
Q 38.28125 53.03125 44.875 45.953125 
Q 51.46875 38.875 51.46875 26.03125 
Q 51.46875 25.25 51.421875 23.6875 
L 12.75 23.6875 
Q 13.234375 15.140625 17.578125 10.59375 
Q 21.921875 6.0625 28.421875 6.0625 
Q 33.25 6.0625 36.671875 8.59375 
Q 40.09375 11.140625 42.09375 16.703125 
z
M 13.234375 30.90625 
L 42.1875 30.90625 
Q 41.609375 37.453125 38.875 40.71875 
Q 34.671875 45.796875 27.984375 45.796875 
Q 21.921875 45.796875 17.796875 41.75 
Q 13.671875 37.703125 13.234375 30.90625 
z
" id="ArialMT-101"/>
       <path d="M 6.59375 -19.875 
L 6.59375 51.859375 
L 14.59375 51.859375 
L 14.59375 45.125 
Q 17.4375 49.078125 21 51.046875 
Q 24.5625 53.03125 29.640625 53.03125 
Q 36.28125 53.03125 41.359375 49.609375 
Q 46.4375 46.1875 49.015625 39.953125 
Q 51.609375 33.734375 51.609375 26.3125 
Q 51.609375 18.359375 48.75 11.984375 
Q 45.90625 5.609375 40.453125 2.21875 
Q 35.015625 -1.171875 29 -1.171875 
Q 24.609375 -1.171875 21.109375 0.6875 
Q 17.625 2.546875 15.375 5.375 
L 15.375 -19.875 
z
M 14.546875 25.640625 
Q 14.546875 15.625 18.59375 10.84375 
Q 22.65625 6.0625 28.421875 6.0625 
Q 34.28125 6.0625 38.453125 11.015625 
Q 42.625 15.96875 42.625 26.375 
Q 42.625 36.28125 38.546875 41.203125 
Q 34.46875 46.140625 28.8125 46.140625 
Q 23.1875 46.140625 18.859375 40.890625 
Q 14.546875 35.640625 14.546875 25.640625 
z
" id="ArialMT-112"/>
       <path d="M 25.78125 7.859375 
L 27.046875 0.09375 
Q 23.34375 -0.6875 20.40625 -0.6875 
Q 15.625 -0.6875 12.984375 0.828125 
Q 10.359375 2.34375 9.28125 4.8125 
Q 8.203125 7.28125 8.203125 15.1875 
L 8.203125 45.015625 
L 1.765625 45.015625 
L 1.765625 51.859375 
L 8.203125 51.859375 
L 8.203125 64.703125 
L 16.9375 69.96875 
L 16.9375 51.859375 
L 25.78125 51.859375 
L 25.78125 45.015625 
L 16.9375 45.015625 
L 16.9375 14.703125 
Q 16.9375 10.9375 17.40625 9.859375 
Q 17.875 8.796875 18.921875 8.15625 
Q 19.96875 7.515625 21.921875 7.515625 
Q 23.390625 7.515625 25.78125 7.859375 
z
" id="ArialMT-116"/>
       <path d="M 6.59375 0 
L 6.59375 71.578125 
L 15.375 71.578125 
L 15.375 45.90625 
Q 21.53125 53.03125 30.90625 53.03125 
Q 36.671875 53.03125 40.921875 50.75 
Q 45.171875 48.484375 47 44.484375 
Q 48.828125 40.484375 48.828125 32.859375 
L 48.828125 0 
L 40.046875 0 
L 40.046875 32.859375 
Q 40.046875 39.453125 37.1875 42.453125 
Q 34.328125 45.453125 29.109375 45.453125 
Q 25.203125 45.453125 21.75 43.421875 
Q 18.3125 41.40625 16.84375 37.9375 
Q 15.375 34.46875 15.375 28.375 
L 15.375 0 
z
" id="ArialMT-104"/>
       <path d="M 14.703125 0 
L 6.546875 0 
L 6.546875 71.578125 
L 15.328125 71.578125 
L 15.328125 46.046875 
Q 20.90625 53.03125 29.546875 53.03125 
Q 34.328125 53.03125 38.59375 51.09375 
Q 42.875 49.171875 45.625 45.671875 
Q 48.390625 42.1875 49.953125 37.25 
Q 51.515625 32.328125 51.515625 26.703125 
Q 51.515625 13.375 44.921875 6.09375 
Q 38.328125 -1.171875 29.109375 -1.171875 
Q 19.921875 -1.171875 14.703125 6.5 
z
M 14.59375 26.3125 
Q 14.59375 17 17.140625 12.84375 
Q 21.296875 6.0625 28.375 6.0625 
Q 34.125 6.0625 38.328125 11.0625 
Q 42.53125 16.0625 42.53125 25.984375 
Q 42.53125 36.140625 38.5 40.96875 
Q 34.46875 45.796875 28.765625 45.796875 
Q 23 45.796875 18.796875 40.796875 
Q 14.59375 35.796875 14.59375 26.3125 
z
" id="ArialMT-98"/>
       <path d="M 6.390625 0 
L 6.390625 71.578125 
L 15.1875 71.578125 
L 15.1875 0 
z
" id="ArialMT-108"/>
       <path d="M 3.328125 25.921875 
Q 3.328125 40.328125 11.328125 47.265625 
Q 18.015625 53.03125 27.640625 53.03125 
Q 38.328125 53.03125 45.109375 46.015625 
Q 51.90625 39.015625 51.90625 26.65625 
Q 51.90625 16.65625 48.90625 10.90625 
Q 45.90625 5.171875 40.15625 2 
Q 34.421875 -1.171875 27.640625 -1.171875 
Q 16.75 -1.171875 10.03125 5.8125 
Q 3.328125 12.796875 3.328125 25.921875 
z
M 12.359375 25.921875 
Q 12.359375 15.96875 16.703125 11.015625 
Q 21.046875 6.0625 27.640625 6.0625 
Q 34.1875 6.0625 38.53125 11.03125 
Q 42.875 16.015625 42.875 26.21875 
Q 42.875 35.84375 38.5 40.796875 
Q 34.125 45.75 27.640625 45.75 
Q 21.046875 45.75 16.703125 40.8125 
Q 12.359375 35.890625 12.359375 25.921875 
z
" id="ArialMT-111"/>
       <path d="M 16.15625 0 
L 0.296875 51.859375 
L 9.375 51.859375 
L 17.625 21.921875 
L 20.703125 10.796875 
Q 20.90625 11.625 23.390625 21.484375 
L 31.640625 51.859375 
L 40.671875 51.859375 
L 48.4375 21.78125 
L 51.03125 11.859375 
L 54 21.875 
L 62.890625 51.859375 
L 71.4375 51.859375 
L 55.21875 0 
L 46.09375 0 
L 37.84375 31.0625 
L 35.84375 39.890625 
L 25.34375 0 
z
" id="ArialMT-119"/>
       <path d="M 3.078125 15.484375 
L 11.765625 16.84375 
Q 12.5 11.625 15.84375 8.84375 
Q 19.1875 6.0625 25.203125 6.0625 
Q 31.25 6.0625 34.171875 8.515625 
Q 37.109375 10.984375 37.109375 14.3125 
Q 37.109375 17.28125 34.515625 19 
Q 32.71875 20.171875 25.53125 21.96875 
Q 15.875 24.421875 12.140625 26.203125 
Q 8.40625 27.984375 6.46875 31.125 
Q 4.546875 34.28125 4.546875 38.09375 
Q 4.546875 41.546875 6.125 44.5 
Q 7.71875 47.46875 10.453125 49.421875 
Q 12.5 50.921875 16.03125 51.96875 
Q 19.578125 53.03125 23.640625 53.03125 
Q 29.734375 53.03125 34.34375 51.265625 
Q 38.96875 49.515625 41.15625 46.5 
Q 43.359375 43.5 44.1875 38.484375 
L 35.59375 37.3125 
Q 35.015625 41.3125 32.203125 43.546875 
Q 29.390625 45.796875 24.265625 45.796875 
Q 18.21875 45.796875 15.625 43.796875 
Q 13.03125 41.796875 13.03125 39.109375 
Q 13.03125 37.40625 14.109375 36.03125 
Q 15.1875 34.625 17.484375 33.6875 
Q 18.796875 33.203125 25.25 31.453125 
Q 34.578125 28.953125 38.25 27.359375 
Q 41.9375 25.78125 44.03125 22.75 
Q 46.140625 19.734375 46.140625 15.234375 
Q 46.140625 10.84375 43.578125 6.953125 
Q 41.015625 3.078125 36.171875 0.953125 
Q 31.34375 -1.171875 25.25 -1.171875 
Q 15.140625 -1.171875 9.84375 3.03125 
Q 4.546875 7.234375 3.078125 15.484375 
z
" id="ArialMT-115"/>
       <path d="M 40.4375 6.390625 
Q 35.546875 2.25 31.03125 0.53125 
Q 26.515625 -1.171875 21.34375 -1.171875 
Q 12.796875 -1.171875 8.203125 3 
Q 3.609375 7.171875 3.609375 13.671875 
Q 3.609375 17.484375 5.34375 20.625 
Q 7.078125 23.78125 9.890625 25.6875 
Q 12.703125 27.59375 16.21875 28.5625 
Q 18.796875 29.25 24.03125 29.890625 
Q 34.671875 31.15625 39.703125 32.90625 
Q 39.75 34.71875 39.75 35.203125 
Q 39.75 40.578125 37.25 42.78125 
Q 33.890625 45.75 27.25 45.75 
Q 21.046875 45.75 18.09375 43.578125 
Q 15.140625 41.40625 13.71875 35.890625 
L 5.125 37.0625 
Q 6.296875 42.578125 8.984375 45.96875 
Q 11.671875 49.359375 16.75 51.1875 
Q 21.828125 53.03125 28.515625 53.03125 
Q 35.15625 53.03125 39.296875 51.46875 
Q 43.453125 49.90625 45.40625 47.53125 
Q 47.359375 45.171875 48.140625 41.546875 
Q 48.578125 39.3125 48.578125 33.453125 
L 48.578125 21.734375 
Q 48.578125 9.46875 49.140625 6.21875 
Q 49.703125 2.984375 51.375 0 
L 42.1875 0 
Q 40.828125 2.734375 40.4375 6.390625 
z
M 39.703125 26.03125 
Q 34.90625 24.078125 25.34375 22.703125 
Q 19.921875 21.921875 17.671875 20.9375 
Q 15.4375 19.96875 14.203125 18.09375 
Q 12.984375 16.21875 12.984375 13.921875 
Q 12.984375 10.40625 15.640625 8.0625 
Q 18.3125 5.71875 23.4375 5.71875 
Q 28.515625 5.71875 32.46875 7.9375 
Q 36.421875 10.15625 38.28125 14.015625 
Q 39.703125 17 39.703125 22.796875 
z
" id="ArialMT-97"/>
       <path d="M 8.6875 0 
L 8.6875 45.015625 
L 0.921875 45.015625 
L 0.921875 51.859375 
L 8.6875 51.859375 
L 8.6875 57.375 
Q 8.6875 62.59375 9.625 65.140625 
Q 10.890625 68.5625 14.078125 70.671875 
Q 17.28125 72.796875 23.046875 72.796875 
Q 26.765625 72.796875 31.25 71.921875 
L 29.9375 64.265625 
Q 27.203125 64.75 24.75 64.75 
Q 20.75 64.75 19.09375 63.03125 
Q 17.4375 61.328125 17.4375 56.640625 
L 17.4375 51.859375 
L 27.546875 51.859375 
L 27.546875 45.015625 
L 17.4375 45.015625 
L 17.4375 0 
z
" id="ArialMT-102"/>
       <path d="M 6.5 0 
L 6.5 51.859375 
L 14.40625 51.859375 
L 14.40625 44 
Q 17.4375 49.515625 20 51.265625 
Q 22.5625 53.03125 25.640625 53.03125 
Q 30.078125 53.03125 34.671875 50.203125 
L 31.640625 42.046875 
Q 28.421875 43.953125 25.203125 43.953125 
Q 22.3125 43.953125 20.015625 42.21875 
Q 17.71875 40.484375 16.75 37.40625 
Q 15.28125 32.71875 15.28125 27.15625 
L 15.28125 0 
z
" id="ArialMT-114"/>
      </defs>
      <use xlink:href="#ArialMT-68"/>
      <use x="72.216797" xlink:href="#ArialMT-101"/>
      <use x="127.832031" xlink:href="#ArialMT-112"/>
      <use x="183.447266" xlink:href="#ArialMT-116"/>
      <use x="211.230469" xlink:href="#ArialMT-104"/>
      <use x="266.845703" xlink:href="#ArialMT-32"/>
      <use x="294.628906" xlink:href="#ArialMT-98"/>
      <use x="350.244141" xlink:href="#ArialMT-101"/>
      <use x="405.859375" xlink:href="#ArialMT-108"/>
      <use x="428.076172" xlink:href="#ArialMT-111"/>
      <use x="483.691406" xlink:href="#ArialMT-119"/>
      <use x="555.908203" xlink:href="#ArialMT-32"/>
      <use x="583.691406" xlink:href="#ArialMT-115"/>
      <use x="633.691406" xlink:href="#ArialMT-101"/>
      <use x="689.306641" xlink:href="#ArialMT-97"/>
      <use x="744.921875" xlink:href="#ArialMT-102"/>
      <use x="772.705078" xlink:href="#ArialMT-108"/>
      <use x="794.921875" xlink:href="#ArialMT-111"/>
      <use x="850.537109" xlink:href="#ArialMT-111"/>
      <use x="906.152344" xlink:href="#ArialMT-114"/>
      <use x="939.453125" xlink:href="#ArialMT-32"/>
      <use x="967.236328" xlink:href="#ArialMT-40"/>
      <use x="1000.537109" xlink:href="#ArialMT-109"/>
      <use x="1083.837891" xlink:href="#ArialMT-41"/>
     </g>
    </g>
   </g>
   <g id="LineCollection_1">
    <path clip-path="url(#p5be55e2d39)" d="M 147.286173 248.2 
L 151.914688 247.73082 
L 168.78793 245.84658 
L 172.162578 245.411404 
L 179.338771 244.469586 
L 193.535352 242.499298 
L 202.923673 241.183 
L 209.283711 240.276259 
L 217.157891 239.187096 
L 222.978026 238.360992 
L 227.448321 237.6745 
L 234.031133 236.282876 
L 236.280898 235.606336 
L 238.583749 234.75075 
L 240.946584 233.58125 
L 244.457739 231.24225 
L 247.178108 228.90325 
L 250.084805 225.9795 
L 254.463309 220.812547 
L 255.403906 219.514055 
L 256.068668 218.616936 
L 257.927681 215.896311 
L 259.468463 213.473636 
L 261.02832 210.65652 
L 261.624064 209.6065 
L 265.121287 202.00475 
L 268.814476 191.47925 
L 269.032906 190.826711 
L 269.622274 189.14025 
L 270.147208 187.386 
L 270.630725 186.2165 
L 271.160197 184.46225 
L 271.807553 183.633389 
L 272.277148 182.554836 
L 272.712433 183.066475 
L 273.252723 185.124615 
L 273.292903 187.386 
L 272.891603 192.329337 
L 272.427138 195.650469 
L 272.124664 197.406016 
L 270.0944 205.51325 
L 269.300115 207.85225 
L 268.671828 209.6065 
L 268.050524 211.218884 
L 264.869113 218.035317 
L 263.965859 219.774473 
L 259.663126 227.024079 
L 256.528789 232.612706 
L 256.004103 234.166 
L 255.76159 235.521435 
L 255.778957 236.505 
L 256.040387 237.420613 
L 256.528789 238.30576 
L 257.653672 239.368846 
L 258.778555 240.032175 
L 260.206271 240.59825 
L 265.663477 241.838253 
L 277.975666 243.560521 
L 290.275273 245.101031 
L 296.380242 245.861 
L 318.526327 248.2 
L 318.526327 248.2 
" style="fill:none;stroke:#27dade;stroke-width:0.3;"/>
   </g>
   <g id="LineCollection_2">
    <path clip-path="url(#p5be55e2d39)" d="M 156.547042 248.2 
L 169.912813 246.785912 
L 182.303206 245.267578 
L 224.369729 239.669194 
L 229.705232 238.753741 
L 234.031133 237.780351 
L 236.448012 237.08975 
L 239.747004 235.92025 
L 241.905313 234.97433 
L 244.63247 233.58125 
L 249.779492 230.674635 
L 252.114455 230.028462 
L 252.172212 230.07275 
L 252.707526 230.304915 
L 253.132927 231.253277 
L 253.146423 232.41175 
L 253.005444 234.75075 
L 253.090897 235.953126 
L 253.421238 237.228596 
L 253.971264 238.25925 
L 254.78165 239.167469 
L 255.403906 239.708475 
L 256.796496 240.59825 
L 258.069525 241.183 
L 260.125545 241.883209 
L 263.278086 242.644323 
L 267.968833 243.4226 
L 275.651797 244.435237 
L 297.02457 246.961931 
L 306.679175 247.956022 
L 309.265458 248.2 
L 309.265458 248.2 
" style="fill:none;stroke:#52f5cb;stroke-width:0.3;"/>
   </g>
   <g id="LineCollection_3">
    <path clip-path="url(#p5be55e2d39)" d="M 165.007055 248.2 
L 179.258603 246.62599 
L 197.493993 244.387922 
L 226.371457 240.709756 
L 231.369744 239.799525 
L 235.41508 238.844 
L 238.530664 237.936871 
L 243.598585 236.215717 
L 245.279961 235.639339 
L 246.6529 235.3355 
L 247.712354 235.240564 
L 248.654609 235.400062 
L 249.634655 235.995541 
L 250.094606 236.505 
L 251.672767 238.444566 
L 253.27893 239.948631 
L 254.746072 240.940213 
L 257.099583 242.055783 
L 259.903437 242.965624 
L 263.880361 243.835082 
L 268.148226 244.498846 
L 276.32066 245.513304 
L 295.899687 247.704683 
L 300.805445 248.2 
L 300.805445 248.2 
" style="fill:none;stroke:#7dffb6;stroke-width:0.3;"/>
   </g>
   <g id="LineCollection_4">
    <path clip-path="url(#p5be55e2d39)" d="M 173.062253 248.2 
L 191.285586 246.152027 
L 228.083797 241.76775 
L 232.90625 240.895262 
L 236.828856 240.0135 
L 244.155078 238.312918 
L 246.003159 238.25925 
L 246.481278 238.298983 
L 247.86106 238.671762 
L 249.545508 239.550383 
L 250.904375 240.391934 
L 252.200488 241.183 
L 254.997985 242.563511 
L 257.729125 243.522 
L 259.918211 244.10675 
L 263.997855 244.902091 
L 269.328141 245.639738 
L 281.643723 247.0305 
L 292.750247 248.2 
L 292.750247 248.2 
" style="fill:none;stroke:#a8f79c;stroke-width:0.3;"/>
   </g>
   <g id="LineCollection_5">
    <path clip-path="url(#p5be55e2d39)" d="M 181.023134 248.2 
L 229.531602 242.893112 
L 235.156016 241.952779 
L 243.030195 240.669035 
L 245.279961 240.693555 
L 246.404844 240.863786 
L 248.654609 241.536291 
L 254.279023 243.746218 
L 256.528789 244.437317 
L 260.143481 245.27625 
L 263.626909 245.861 
L 269.69317 246.619484 
L 284.789366 248.2 
L 284.789366 248.2 
" style="fill:none;stroke:#d2de81;stroke-width:0.3;"/>
   </g>
   <g id="LineCollection_6">
    <path clip-path="url(#p5be55e2d39)" d="M 189.219062 248.2 
L 211.198781 246.034985 
L 227.926582 244.441909 
L 242.188213 242.790189 
L 244.155078 242.81974 
L 246.404844 243.09953 
L 249.779492 243.936249 
L 254.594182 245.27625 
L 257.888403 245.983021 
L 262.153203 246.663998 
L 270.657349 247.61525 
L 276.593438 248.2 
L 276.593438 248.2 
" style="fill:none;stroke:#feb562;stroke-width:0.3;"/>
   </g>
   <g id="LineCollection_7">
    <path clip-path="url(#p5be55e2d39)" d="M 198.138377 248.2 
L 213.783242 246.842786 
L 242.041523 244.762307 
L 244.837027 244.921751 
L 247.500438 245.291475 
L 249.779492 245.721818 
L 252.974142 246.352181 
L 255.755223 246.847874 
L 261.671805 247.61525 
L 267.674123 248.2 
L 267.674123 248.2 
" style="fill:none;stroke:#ff8143;stroke-width:0.3;"/>
   </g>
   <g id="LineCollection_8">
    <path clip-path="url(#p5be55e2d39)" d="M 208.900647 248.2 
L 209.234938 248.174647 
L 209.283711 248.170737 
L 210.220042 248.101985 
L 210.408594 248.087267 
L 211.207599 248.030598 
L 211.533477 248.005851 
L 211.968053 247.974093 
L 212.658359 247.926483 
L 213.189889 247.891556 
L 213.783242 247.849121 
L 214.560732 247.795836 
L 214.908125 247.773721 
L 215.181355 247.757284 
L 216.033008 247.700272 
L 217.128774 247.630386 
L 217.157891 247.628697 
L 217.181312 247.627425 
L 217.377045 247.61525 
L 218.282773 247.557902 
L 219.192445 247.503376 
L 219.407656 247.488683 
L 219.686153 247.470479 
L 220.532539 247.421194 
L 221.212559 247.383996 
L 221.657422 247.355288 
L 222.224658 247.320382 
L 222.782305 247.290818 
L 223.487237 247.248804 
L 223.907187 247.227687 
L 224.745675 247.179378 
L 225.03207 247.165788 
L 225.272246 247.155351 
L 226.156953 247.105045 
L 226.290032 247.099679 
L 227.281836 247.045423 
L 227.574566 247.0305 
L 228.331611 246.991457 
L 228.406719 246.986432 
L 228.503276 246.980306 
L 229.531602 246.928589 
L 230.385211 246.889483 
L 230.656484 246.872341 
L 231.415367 246.840242 
L 231.781367 246.8181 
L 232.238474 246.792881 
L 232.90625 246.766563 
L 233.469001 246.737964 
L 234.031133 246.718633 
L 234.688289 246.688889 
L 235.156016 246.675625 
L 235.581571 246.666967 
L 236.280898 246.639299 
L 236.644839 246.634938 
L 237.405781 246.611817 
L 238.241054 246.596299 
L 238.530664 246.595646 
L 238.824219 246.598349 
L 239.655547 246.593607 
L 239.952706 246.600223 
L 240.78043 246.608495 
L 241.117378 246.620907 
L 241.905313 246.642777 
L 242.32707 246.664993 
L 243.030195 246.698226 
L 243.595778 246.736492 
L 244.155078 246.775441 
L 244.573772 246.81285 
L 245.279961 246.873545 
L 246.306009 246.979122 
L 246.404844 246.989904 
L 246.46723 246.99807 
L 246.748329 247.0305 
L 247.38687 247.104761 
L 247.529727 247.119135 
L 248.293814 247.218053 
L 248.654609 247.257093 
L 249.219709 247.324257 
L 249.779492 247.39964 
L 250.102244 247.447473 
L 250.904375 247.542405 
L 251.477908 247.61525 
L 251.922575 247.670707 
L 252.029258 247.680652 
L 252.184384 247.695889 
L 253.154141 247.811947 
L 253.620269 247.857558 
L 254.279023 247.936325 
L 255.038621 248.010113 
L 255.403906 248.053415 
L 255.631982 248.081439 
L 256.528789 248.163522 
L 256.911853 248.2 
" style="fill:none;stroke:#ff4121;stroke-width:0.3;"/>
   </g>
   <g id="LineCollection_9">
    <path clip-path="url(#p5be55e2d39)" d="M 102.646569 248.2 
L 105.794492 247.378706 
L 115.918438 245.044065 
L 128.640545 242.533608 
L 159.789978 237.08975 
L 195.785117 230.004354 
L 203.659297 228.213855 
L 209.782709 226.56425 
L 213.515575 225.255608 
L 215.909104 224.160841 
L 217.722765 223.05575 
L 219.223516 221.790528 
L 220.24683 220.568229 
L 220.980501 219.314385 
L 221.555869 217.845791 
L 221.850712 216.6235 
L 222.091419 214.510106 
L 222.111851 212.53025 
L 221.902033 209.6065 
L 221.395333 205.961758 
L 220.435939 200.83525 
L 218.479234 192.064 
L 215.373559 179.1995 
L 208.751161 151.408337 
L 205.195899 135.129225 
L 202.679072 122.403552 
L 200.877853 111.95325 
L 199.869201 104.93625 
L 199.09514 97.885656 
L 198.680119 92.07175 
L 198.524139 86.478581 
L 198.594677 82.131 
L 198.855441 77.879553 
L 199.28451 73.9445 
L 199.977634 69.691654 
L 200.854481 65.758 
L 202.03911 61.66475 
L 203.298798 58.15625 
L 204.819019 54.62964 
L 206.442707 51.416656 
L 208.158828 48.475972 
L 209.863906 45.8765 
L 212.373678 42.515986 
L 214.611313 39.874707 
L 217.606367 36.753632 
L 220.532539 34.072507 
L 223.237726 31.8425 
L 226.404089 29.5035 
L 230.275338 26.966368 
L 235.156016 24.203327 
L 239.655547 22.003285 
L 242.193899 20.882266 
L 247.298839 18.857977 
L 250.904375 17.541981 
L 254.554095 16.05425 
L 255.58564 15.4695 
L 256.233538 14.88475 
L 256.368094 14.801216 
L 256.457062 14.3 
L 256.457062 14.3 
" style="fill:none;stroke:#5a3bfd;stroke-width:1.5;"/>
    <path clip-path="url(#p5be55e2d39)" d="M 320.716046 14.3 
L 320.804352 14.80301 
L 320.934078 14.88475 
L 321.144097 15.21115 
L 323.320549 16.418761 
L 327.847076 18.158978 
L 335.270586 21.056535 
L 338.645234 22.552561 
L 343.196659 24.8255 
L 346.519414 26.706626 
L 350.017801 28.91875 
L 353.74596 31.594411 
L 356.90411 34.1815 
L 359.640999 36.716481 
L 362.267773 39.485892 
L 364.198428 41.78325 
L 366.34726 44.707 
L 368.183317 47.63075 
L 369.734806 50.5545 
L 371.061084 53.585206 
L 372.105776 56.550642 
L 372.939709 59.625637 
L 373.303692 61.354717 
L 373.303692 61.354717 
" style="fill:none;stroke:#5a3bfd;stroke-width:1.5;"/>
    <path clip-path="url(#p5be55e2d39)" d="M 363.106949 107.497044 
L 360.184244 113.209165 
L 354.813016 123.0635 
L 329.509932 168.160072 
L 314.799401 195.456425 
L 309.334249 204.961786 
L 306.099559 210.230719 
L 299.744395 219.791602 
L 297.093871 223.676525 
L 295.686298 225.9795 
L 294.774805 227.920504 
L 294.48673 228.90325 
L 294.391329 230.07275 
L 294.66726 231.24225 
L 294.996127 231.827 
L 295.899687 232.789875 
L 296.902821 233.517961 
L 297.02457 233.597285 
L 299.330702 234.721449 
L 300.968276 235.3355 
L 304.89875 236.513951 
L 312.491425 238.25925 
L 323.409514 240.279986 
L 340.319248 243.236544 
L 355.963506 246.44575 
L 361.395577 247.746604 
L 363.165931 248.2 
L 363.165931 248.2 
" style="fill:none;stroke:#5a3bfd;stroke-width:1.5;"/>
   </g>
   <g id="LineCollection_10">
    <path clip-path="url(#p5be55e2d39)" d="M 315.5433 14.3 
L 315.738967 15.257091 
L 315.80047 15.4695 
L 316.670375 16.951983 
L 318.397344 18.76647 
L 320.795995 20.809645 
L 326.993598 25.995 
L 329.646172 28.603395 
L 331.485993 30.673 
L 333.43691 33.228297 
L 334.909687 35.538607 
L 336.076678 37.69 
L 337.554801 41.1985 
L 338.431556 44.12225 
L 338.990235 46.866658 
L 339.275053 49.0576 
L 339.447557 51.724 
L 339.382363 55.615683 
L 339.047461 59.11666 
L 338.556133 62.295818 
L 337.689064 66.430452 
L 336.485721 71.02075 
L 334.766838 76.606386 
L 332.456439 83.3005 
L 328.754715 93.24125 
L 319.662837 117.289094 
L 315.918127 127.7415 
L 311.394413 141.058903 
L 305.626202 159.111403 
L 299.446779 178.61475 
L 295.899687 188.819155 
L 293.926141 193.961838 
L 291.054957 200.655804 
L 288.508344 205.847007 
L 286.727329 209.111835 
L 284.650859 212.584833 
L 282.783436 215.454 
L 279.377734 220.132 
L 277.511092 222.471 
L 271.152266 230.192074 
L 270.144855 231.888066 
L 269.758624 232.9965 
L 269.710524 233.745963 
L 269.772832 234.166 
L 270.027383 234.770237 
L 270.749863 235.544682 
L 271.753017 236.19271 
L 272.357536 236.505 
L 274.526914 237.283476 
L 277.901563 238.171125 
L 281.40048 238.908599 
L 291.400156 240.651302 
L 302.648984 242.368554 
L 333.02082 246.604229 
L 342.711474 248.2 
L 342.711474 248.2 
" style="fill:none;stroke:#3079f7;stroke-width:1.5;"/>
    <path clip-path="url(#p5be55e2d39)" d="M 123.101026 248.2 
L 127.554836 247.413779 
L 135.041445 246.195958 
L 174.412344 240.322759 
L 200.475502 236.019462 
L 219.474104 232.961958 
L 226.528775 231.633715 
L 229.776968 230.785049 
L 231.862288 230.07275 
L 234.331604 228.90325 
L 236.280898 227.613256 
L 237.593742 226.466542 
L 239.066888 224.81 
L 240.290912 223.05575 
L 241.905313 220.021707 
L 243.205138 216.6235 
L 244.30835 212.53025 
L 245.026067 208.437 
L 245.403184 204.9285 
L 245.619067 200.2505 
L 245.611115 196.569856 
L 245.352887 190.856591 
L 244.806612 184.46225 
L 243.716438 175.10625 
L 240.832093 154.028394 
L 238.530664 136.102053 
L 237.069712 123.0635 
L 235.560371 107.59385 
L 235.560371 107.59385 
" style="fill:none;stroke:#3079f7;stroke-width:1.5;"/>
    <path clip-path="url(#p5be55e2d39)" d="M 233.859387 61.343494 
L 234.323432 57.138696 
L 234.841984 53.899756 
L 235.552734 50.5545 
L 236.576743 46.892211 
L 237.782043 43.5375 
L 239.362185 40.029 
L 240.971002 37.10525 
L 243.030195 33.98501 
L 245.279961 31.111189 
L 247.529727 28.631017 
L 249.779492 26.429479 
L 252.603629 23.954576 
L 255.087306 21.90175 
L 256.528789 20.731819 
L 259.213033 18.39325 
L 260.194807 17.375213 
L 261.353786 15.638687 
L 261.617224 14.88475 
L 261.685445 14.3 
L 261.685445 14.3 
" style="fill:none;stroke:#3079f7;stroke-width:1.5;"/>
   </g>
   <g id="LineCollection_11">
    <path clip-path="url(#p5be55e2d39)" d="M 136.583324 248.2 
L 141.790742 247.490873 
L 147.415156 246.796734 
L 157.051102 245.607322 
L 167.663047 244.211115 
L 205.200216 238.627731 
L 219.407656 236.542681 
L 227.312017 235.319811 
L 231.781367 234.407396 
L 234.71778 233.58125 
L 237.405781 232.530935 
L 238.795293 231.827 
L 240.78043 230.584207 
L 243.030195 228.744427 
L 245.139835 226.56425 
L 246.584486 224.81 
L 249.783442 220.132 
L 252.386273 215.268412 
L 254.061666 211.36075 
L 255.107409 208.437 
L 256.097362 205.15277 
L 257.247018 200.2505 
L 258.282301 193.81825 
L 258.72231 189.725 
L 259.09822 184.296078 
L 259.339037 176.8605 
L 259.347195 163.996 
L 259.20823 147.399641 
L 259.255826 137.434149 
L 259.442683 128.32625 
L 259.742987 120.056343 
L 260.411497 107.86 
L 261.089711 98.472087 
L 262.224487 85.676556 
L 264.402969 66.277195 
L 265.85891 55.989345 
L 267.297681 47.63075 
L 268.554262 41.602225 
L 269.809598 36.5205 
L 271.164075 31.836361 
L 273.189871 25.884712 
L 275.076161 20.73225 
L 276.017984 17.998856 
L 276.863402 14.88475 
L 276.920273 14.3 
L 276.920273 14.3 
" style="fill:none;stroke:#04b0ed;stroke-width:1.5;"/>
    <path clip-path="url(#p5be55e2d39)" d="M 300.207701 14.3 
L 300.399219 15.559621 
L 301.06246 18.153274 
L 302.310453 22.4865 
L 303.307282 26.237546 
L 304.00978 29.380865 
L 304.510984 32.225677 
L 304.98661 35.981422 
L 305.295241 40.407641 
L 305.384918 44.959726 
L 305.281609 49.770728 
L 304.87906 56.402 
L 304.425813 61.353384 
L 304.425813 61.353384 
" style="fill:none;stroke:#04b0ed;stroke-width:1.5;"/>
    <path clip-path="url(#p5be55e2d39)" d="M 297.868482 107.582321 
L 294.418187 129.895119 
L 292.604773 141.816948 
L 289.539457 161.274499 
L 287.934899 170.475351 
L 286.214579 179.1995 
L 284.746385 185.63175 
L 283.036382 192.064 
L 281.538251 196.878217 
L 279.764348 201.803585 
L 278.168493 205.652009 
L 276.009823 210.19125 
L 273.684256 214.43121 
L 270.657518 219.219686 
L 268.372418 222.471 
L 261.46866 231.827 
L 260.396429 233.909727 
L 260.140323 234.75075 
L 260.064928 235.92025 
L 260.343127 236.733565 
L 260.681918 237.269821 
L 261.174824 237.750657 
L 262.153203 238.36263 
L 263.288286 238.849302 
L 266.228893 239.649076 
L 269.49903 240.288155 
L 274.992604 241.183 
L 303.333614 245.047393 
L 329.229176 248.2 
L 329.229176 248.2 
" style="fill:none;stroke:#04b0ed;stroke-width:1.5;"/>
   </g>
   <g id="patch_3">
    <path d="M 52.925 248.2 
L 52.925 14.3 
" style="fill:none;stroke:#000000;stroke-linecap:square;stroke-linejoin:miter;stroke-width:0.8;"/>
   </g>
   <g id="patch_4">
    <path d="M 412.8875 248.2 
L 412.8875 14.3 
" style="fill:none;stroke:#000000;stroke-linecap:square;stroke-linejoin:miter;stroke-width:0.8;"/>
   </g>
   <g id="patch_5">
    <path d="M 52.925 248.2 
L 412.8875 248.2 
" style="fill:none;stroke:#000000;stroke-linecap:square;stroke-linejoin:miter;stroke-width:0.8;"/>
   </g>
   <g id="patch_6">
    <path d="M 52.925 14.3 
L 412.8875 14.3 
" style="fill:none;stroke:#000000;stroke-linecap:square;stroke-linejoin:miter;stroke-width:0.8;"/>
   </g>
   <g id="text_18">
    <!-- 778 years -->
    <g transform="translate(350.972 27.603)scale(0.12 -0.12)">
     <defs>
      <path d="M 4.25 57.859375 
L 4.25 70.609375 
L 51.171875 70.609375 
L 51.171875 60.640625 
Q 45.359375 54.9375 39.34375 44.234375 
Q 33.34375 33.546875 30.1875 21.5 
Q 27.046875 9.46875 27.09375 0 
L 13.875 0 
Q 14.203125 14.84375 19.984375 30.265625 
Q 25.78125 45.703125 35.453125 57.859375 
z
" id="Arial-BoldMT-55"/>
      <path d="M 16.015625 38.625 
Q 10.6875 40.875 8.265625 44.796875 
Q 5.859375 48.734375 5.859375 53.421875 
Q 5.859375 61.421875 11.453125 66.640625 
Q 17.046875 71.875 27.34375 71.875 
Q 37.546875 71.875 43.1875 66.640625 
Q 48.828125 61.421875 48.828125 53.421875 
Q 48.828125 48.4375 46.234375 44.546875 
Q 43.65625 40.671875 38.96875 38.625 
Q 44.921875 36.234375 48.015625 31.640625 
Q 51.125 27.046875 51.125 21.046875 
Q 51.125 11.140625 44.796875 4.9375 
Q 38.484375 -1.265625 27.984375 -1.265625 
Q 18.21875 -1.265625 11.71875 3.859375 
Q 4.046875 9.90625 4.046875 20.453125 
Q 4.046875 26.265625 6.921875 31.125 
Q 9.8125 35.984375 16.015625 38.625 
z
M 18.84375 52.4375 
Q 18.84375 48.34375 21.15625 46.046875 
Q 23.484375 43.75 27.34375 43.75 
Q 31.25 43.75 33.59375 46.0625 
Q 35.9375 48.390625 35.9375 52.484375 
Q 35.9375 56.34375 33.609375 58.65625 
Q 31.296875 60.984375 27.484375 60.984375 
Q 23.53125 60.984375 21.1875 58.640625 
Q 18.84375 56.296875 18.84375 52.4375 
z
M 17.578125 21.78125 
Q 17.578125 16.109375 20.484375 12.9375 
Q 23.390625 9.765625 27.734375 9.765625 
Q 31.984375 9.765625 34.765625 12.8125 
Q 37.546875 15.875 37.546875 21.625 
Q 37.546875 26.65625 34.71875 29.703125 
Q 31.890625 32.765625 27.546875 32.765625 
Q 22.515625 32.765625 20.046875 29.296875 
Q 17.578125 25.828125 17.578125 21.78125 
z
" id="Arial-BoldMT-56"/>
      <path id="Arial-BoldMT-32"/>
      <path d="M 0.6875 51.859375 
L 15.28125 51.859375 
L 27.6875 15.046875 
L 39.796875 51.859375 
L 54 51.859375 
L 35.6875 1.953125 
L 32.421875 -7.078125 
Q 30.609375 -11.625 28.96875 -14.015625 
Q 27.34375 -16.40625 25.21875 -17.890625 
Q 23.09375 -19.390625 19.984375 -20.21875 
Q 16.890625 -21.046875 12.984375 -21.046875 
Q 9.03125 -21.046875 5.21875 -20.21875 
L 4 -9.46875 
Q 7.234375 -10.109375 9.8125 -10.109375 
Q 14.59375 -10.109375 16.890625 -7.296875 
Q 19.1875 -4.5 20.40625 -0.140625 
z
" id="Arial-BoldMT-121"/>
      <path d="M 37.203125 16.5 
L 50.875 14.203125 
Q 48.25 6.6875 42.546875 2.75 
Q 36.859375 -1.171875 28.328125 -1.171875 
Q 14.796875 -1.171875 8.296875 7.671875 
Q 3.171875 14.75 3.171875 25.53125 
Q 3.171875 38.421875 9.90625 45.71875 
Q 16.65625 53.03125 26.953125 53.03125 
Q 38.53125 53.03125 45.21875 45.390625 
Q 51.90625 37.75 51.609375 21.96875 
L 17.234375 21.96875 
Q 17.390625 15.875 20.5625 12.46875 
Q 23.734375 9.078125 28.46875 9.078125 
Q 31.6875 9.078125 33.875 10.828125 
Q 36.078125 12.59375 37.203125 16.5 
z
M 37.984375 30.375 
Q 37.84375 36.328125 34.90625 39.421875 
Q 31.984375 42.53125 27.78125 42.53125 
Q 23.296875 42.53125 20.359375 39.265625 
Q 17.4375 35.984375 17.484375 30.375 
z
" id="Arial-BoldMT-101"/>
      <path d="M 17.4375 36.03125 
L 4.984375 38.28125 
Q 7.078125 45.796875 12.203125 49.40625 
Q 17.328125 53.03125 27.4375 53.03125 
Q 36.625 53.03125 41.109375 50.859375 
Q 45.609375 48.6875 47.4375 45.34375 
Q 49.265625 42 49.265625 33.0625 
L 49.125 17.046875 
Q 49.125 10.203125 49.78125 6.953125 
Q 50.4375 3.71875 52.25 0 
L 38.671875 0 
Q 38.140625 1.375 37.359375 4.046875 
Q 37.015625 5.28125 36.859375 5.671875 
Q 33.34375 2.25 29.34375 0.53125 
Q 25.34375 -1.171875 20.796875 -1.171875 
Q 12.796875 -1.171875 8.171875 3.171875 
Q 3.5625 7.515625 3.5625 14.15625 
Q 3.5625 18.5625 5.65625 22 
Q 7.765625 25.4375 11.546875 27.265625 
Q 15.328125 29.109375 22.46875 30.46875 
Q 32.078125 32.28125 35.796875 33.84375 
L 35.796875 35.203125 
Q 35.796875 39.15625 33.84375 40.84375 
Q 31.890625 42.53125 26.46875 42.53125 
Q 22.796875 42.53125 20.75 41.09375 
Q 18.703125 39.65625 17.4375 36.03125 
z
M 35.796875 24.90625 
Q 33.15625 24.03125 27.4375 22.796875 
Q 21.734375 21.578125 19.96875 20.40625 
Q 17.28125 18.5 17.28125 15.578125 
Q 17.28125 12.703125 19.421875 10.59375 
Q 21.578125 8.5 24.90625 8.5 
Q 28.609375 8.5 31.984375 10.9375 
Q 34.46875 12.796875 35.25 15.484375 
Q 35.796875 17.234375 35.796875 22.171875 
z
" id="Arial-BoldMT-97"/>
      <path d="M 20.3125 0 
L 6.59375 0 
L 6.59375 51.859375 
L 19.34375 51.859375 
L 19.34375 44.484375 
Q 22.609375 49.703125 25.21875 51.359375 
Q 27.828125 53.03125 31.15625 53.03125 
Q 35.84375 53.03125 40.1875 50.4375 
L 35.9375 38.484375 
Q 32.46875 40.71875 29.5 40.71875 
Q 26.609375 40.71875 24.609375 39.125 
Q 22.609375 37.546875 21.453125 33.390625 
Q 20.3125 29.25 20.3125 16.015625 
z
" id="Arial-BoldMT-114"/>
      <path d="M 2.34375 14.796875 
L 16.109375 16.890625 
Q 17 12.890625 19.671875 10.8125 
Q 22.359375 8.734375 27.203125 8.734375 
Q 32.515625 8.734375 35.203125 10.6875 
Q 37.015625 12.0625 37.015625 14.359375 
Q 37.015625 15.921875 36.03125 16.9375 
Q 35.015625 17.921875 31.453125 18.75 
Q 14.84375 22.40625 10.40625 25.4375 
Q 4.25 29.640625 4.25 37.109375 
Q 4.25 43.84375 9.5625 48.4375 
Q 14.890625 53.03125 26.078125 53.03125 
Q 36.71875 53.03125 41.890625 49.5625 
Q 47.078125 46.09375 49.03125 39.3125 
L 36.078125 36.921875 
Q 35.25 39.9375 32.921875 41.546875 
Q 30.609375 43.171875 26.3125 43.171875 
Q 20.90625 43.171875 18.5625 41.65625 
Q 17 40.578125 17 38.875 
Q 17 37.40625 18.359375 36.375 
Q 20.21875 35.015625 31.171875 32.515625 
Q 42.140625 30.03125 46.484375 26.421875 
Q 50.78125 22.75 50.78125 16.21875 
Q 50.78125 9.078125 44.828125 3.953125 
Q 38.875 -1.171875 27.203125 -1.171875 
Q 16.609375 -1.171875 10.421875 3.125 
Q 4.25 7.421875 2.34375 14.796875 
z
" id="Arial-BoldMT-115"/>
     </defs>
     <use xlink:href="#Arial-BoldMT-55"/>
     <use x="55.615234" xlink:href="#Arial-BoldMT-55"/>
     <use x="111.230469" xlink:href="#Arial-BoldMT-56"/>
     <use x="166.845703" xlink:href="#Arial-BoldMT-32"/>
     <use x="194.628906" xlink:href="#Arial-BoldMT-121"/>
     <use x="250.244141" xlink:href="#Arial-BoldMT-101"/>
     <use x="305.859375" xlink:href="#Arial-BoldMT-97"/>
     <use x="361.474609" xlink:href="#Arial-BoldMT-114"/>
     <use x="400.390625" xlink:href="#Arial-BoldMT-115"/>
    </g>
    <!-- FWHM = 300 m -->
    <g transform="translate(320.670125 40.435875)scale(0.12 -0.12)">
     <defs>
      <path d="M 7.375 0 
L 7.375 71.578125 
L 56.453125 71.578125 
L 56.453125 59.46875 
L 21.828125 59.46875 
L 21.828125 42.53125 
L 51.703125 42.53125 
L 51.703125 30.421875 
L 21.828125 30.421875 
L 21.828125 0 
z
" id="Arial-BoldMT-70"/>
      <path d="M 17.4375 0 
L 0.34375 71.578125 
L 15.140625 71.578125 
L 25.921875 22.40625 
L 39.015625 71.578125 
L 56.203125 71.578125 
L 68.75 21.578125 
L 79.734375 71.578125 
L 94.28125 71.578125 
L 76.90625 0 
L 61.578125 0 
L 47.3125 53.515625 
L 33.109375 0 
z
" id="Arial-BoldMT-87"/>
      <path d="M 7.328125 0 
L 7.328125 71.578125 
L 21.78125 71.578125 
L 21.78125 43.40625 
L 50.09375 43.40625 
L 50.09375 71.578125 
L 64.546875 71.578125 
L 64.546875 0 
L 50.09375 0 
L 50.09375 31.296875 
L 21.78125 31.296875 
L 21.78125 0 
z
" id="Arial-BoldMT-72"/>
      <path d="M 7.078125 0 
L 7.078125 71.578125 
L 28.71875 71.578125 
L 41.703125 22.75 
L 54.546875 71.578125 
L 76.21875 71.578125 
L 76.21875 0 
L 62.796875 0 
L 62.796875 56.34375 
L 48.578125 0 
L 34.671875 0 
L 20.515625 56.34375 
L 20.515625 0 
z
" id="Arial-BoldMT-77"/>
      <path d="M 4.15625 39.84375 
L 4.15625 52.4375 
L 54.203125 52.4375 
L 54.203125 39.84375 
z
M 4.15625 18.171875 
L 4.15625 30.8125 
L 54.203125 30.8125 
L 54.203125 18.171875 
z
" id="Arial-BoldMT-61"/>
      <path d="M 3.765625 19 
L 17.046875 20.609375 
Q 17.671875 15.53125 20.453125 12.84375 
Q 23.25 10.15625 27.203125 10.15625 
Q 31.453125 10.15625 34.34375 13.375 
Q 37.25 16.609375 37.25 22.078125 
Q 37.25 27.25 34.46875 30.265625 
Q 31.6875 33.296875 27.6875 33.296875 
Q 25.046875 33.296875 21.390625 32.28125 
L 22.90625 43.453125 
Q 28.46875 43.3125 31.390625 45.875 
Q 34.328125 48.4375 34.328125 52.6875 
Q 34.328125 56.296875 32.171875 58.4375 
Q 30.03125 60.59375 26.46875 60.59375 
Q 22.953125 60.59375 20.453125 58.15625 
Q 17.96875 55.71875 17.4375 51.03125 
L 4.78125 53.171875 
Q 6.109375 59.671875 8.765625 63.546875 
Q 11.421875 67.4375 16.1875 69.65625 
Q 20.953125 71.875 26.859375 71.875 
Q 36.96875 71.875 43.0625 65.4375 
Q 48.09375 60.15625 48.09375 53.515625 
Q 48.09375 44.09375 37.796875 38.484375 
Q 43.953125 37.15625 47.625 32.5625 
Q 51.3125 27.984375 51.3125 21.484375 
Q 51.3125 12.0625 44.421875 5.421875 
Q 37.546875 -1.21875 27.296875 -1.21875 
Q 17.578125 -1.21875 11.171875 4.375 
Q 4.78125 9.96875 3.765625 19 
z
" id="Arial-BoldMT-51"/>
      <path d="M 27.4375 71.875 
Q 37.84375 71.875 43.703125 64.453125 
Q 50.6875 55.671875 50.6875 35.296875 
Q 50.6875 14.984375 43.65625 6.109375 
Q 37.84375 -1.21875 27.4375 -1.21875 
Q 17 -1.21875 10.59375 6.8125 
Q 4.203125 14.84375 4.203125 35.453125 
Q 4.203125 55.671875 11.234375 64.546875 
Q 17.046875 71.875 27.4375 71.875 
z
M 27.4375 60.5 
Q 24.953125 60.5 23 58.90625 
Q 21.046875 57.328125 19.96875 53.21875 
Q 18.5625 47.90625 18.5625 35.296875 
Q 18.5625 22.703125 19.828125 17.984375 
Q 21.09375 13.28125 23.015625 11.71875 
Q 24.953125 10.15625 27.4375 10.15625 
Q 29.9375 10.15625 31.890625 11.734375 
Q 33.84375 13.328125 34.90625 17.4375 
Q 36.328125 22.703125 36.328125 35.296875 
Q 36.328125 47.90625 35.0625 52.609375 
Q 33.796875 57.328125 31.859375 58.90625 
Q 29.9375 60.5 27.4375 60.5 
z
" id="Arial-BoldMT-48"/>
      <path d="M 6.15625 51.859375 
L 18.796875 51.859375 
L 18.796875 44.78125 
Q 25.59375 53.03125 34.96875 53.03125 
Q 39.9375 53.03125 43.59375 50.96875 
Q 47.265625 48.921875 49.609375 44.78125 
Q 53.03125 48.921875 56.984375 50.96875 
Q 60.9375 53.03125 65.4375 53.03125 
Q 71.140625 53.03125 75.09375 50.703125 
Q 79.046875 48.390625 81 43.890625 
Q 82.421875 40.578125 82.421875 33.15625 
L 82.421875 0 
L 68.703125 0 
L 68.703125 29.640625 
Q 68.703125 37.359375 67.28125 39.59375 
Q 65.375 42.53125 61.421875 42.53125 
Q 58.546875 42.53125 56 40.765625 
Q 53.46875 39.015625 52.34375 35.625 
Q 51.21875 32.234375 51.21875 24.90625 
L 51.21875 0 
L 37.5 0 
L 37.5 28.421875 
Q 37.5 35.984375 36.765625 38.171875 
Q 36.03125 40.375 34.484375 41.453125 
Q 32.953125 42.53125 30.328125 42.53125 
Q 27.15625 42.53125 24.609375 40.8125 
Q 22.078125 39.109375 20.96875 35.890625 
Q 19.875 32.671875 19.875 25.203125 
L 19.875 0 
L 6.15625 0 
z
" id="Arial-BoldMT-109"/>
     </defs>
     <use xlink:href="#Arial-BoldMT-70"/>
     <use x="61.083984" xlink:href="#Arial-BoldMT-87"/>
     <use x="155.46875" xlink:href="#Arial-BoldMT-72"/>
     <use x="227.685547" xlink:href="#Arial-BoldMT-77"/>
     <use x="310.986328" xlink:href="#Arial-BoldMT-32"/>
     <use x="338.769531" xlink:href="#Arial-BoldMT-61"/>
     <use x="397.167969" xlink:href="#Arial-BoldMT-32"/>
     <use x="424.951172" xlink:href="#Arial-BoldMT-51"/>
     <use x="480.566406" xlink:href="#Arial-BoldMT-48"/>
     <use x="536.181641" xlink:href="#Arial-BoldMT-48"/>
     <use x="591.796875" xlink:href="#Arial-BoldMT-32"/>
     <use x="619.580078" xlink:href="#Arial-BoldMT-109"/>
    </g>
    <!-- Cell size = 2.5 m -->
    <g transform="translate(313.307 53.11125)scale(0.12 -0.12)">
     <defs>
      <path d="M 53.078125 26.3125 
L 67.09375 21.875 
Q 63.875 10.15625 56.375 4.46875 
Q 48.875 -1.21875 37.359375 -1.21875 
Q 23.09375 -1.21875 13.90625 8.515625 
Q 4.734375 18.265625 4.734375 35.15625 
Q 4.734375 53.03125 13.953125 62.90625 
Q 23.1875 72.796875 38.234375 72.796875 
Q 51.375 72.796875 59.578125 65.046875 
Q 64.453125 60.453125 66.890625 51.859375 
L 52.59375 48.4375 
Q 51.3125 54 47.28125 57.21875 
Q 43.265625 60.453125 37.5 60.453125 
Q 29.546875 60.453125 24.578125 54.734375 
Q 19.625 49.03125 19.625 36.234375 
Q 19.625 22.65625 24.5 16.890625 
Q 29.390625 11.140625 37.203125 11.140625 
Q 42.96875 11.140625 47.109375 14.796875 
Q 51.265625 18.453125 53.078125 26.3125 
z
" id="Arial-BoldMT-67"/>
      <path d="M 7.171875 0 
L 7.171875 71.578125 
L 20.90625 71.578125 
L 20.90625 0 
z
" id="Arial-BoldMT-108"/>
      <path d="M 7.171875 58.890625 
L 7.171875 71.578125 
L 20.90625 71.578125 
L 20.90625 58.890625 
z
M 7.171875 0 
L 7.171875 51.859375 
L 20.90625 51.859375 
L 20.90625 0 
z
" id="Arial-BoldMT-105"/>
      <path d="M 1.65625 0 
L 1.65625 10.6875 
L 21.09375 33.015625 
Q 25.875 38.484375 28.171875 40.765625 
Q 25.78125 40.625 21.875 40.578125 
L 3.5625 40.484375 
L 3.5625 51.859375 
L 46.4375 51.859375 
L 46.4375 42.140625 
L 26.609375 19.28125 
L 19.625 11.71875 
Q 25.34375 12.0625 26.703125 12.0625 
L 47.953125 12.0625 
L 47.953125 0 
z
" id="Arial-BoldMT-122"/>
      <path d="M 50.59375 12.75 
L 50.59375 0 
L 2.484375 0 
Q 3.265625 7.234375 7.171875 13.703125 
Q 11.078125 20.171875 22.609375 30.859375 
Q 31.890625 39.5 33.984375 42.578125 
Q 36.8125 46.828125 36.8125 50.984375 
Q 36.8125 55.5625 34.34375 58.03125 
Q 31.890625 60.5 27.546875 60.5 
Q 23.25 60.5 20.703125 57.90625 
Q 18.171875 55.328125 17.78125 49.3125 
L 4.109375 50.6875 
Q 5.328125 62.015625 11.765625 66.9375 
Q 18.21875 71.875 27.875 71.875 
Q 38.484375 71.875 44.53125 66.15625 
Q 50.59375 60.453125 50.59375 51.953125 
Q 50.59375 47.125 48.859375 42.75 
Q 47.125 38.375 43.359375 33.59375 
Q 40.875 30.421875 34.375 24.453125 
Q 27.875 18.5 26.140625 16.546875 
Q 24.421875 14.59375 23.34375 12.75 
z
" id="Arial-BoldMT-50"/>
      <path d="M 7.171875 0 
L 7.171875 13.71875 
L 20.90625 13.71875 
L 20.90625 0 
z
" id="Arial-BoldMT-46"/>
      <path d="M 4.4375 18.40625 
L 18.109375 19.828125 
Q 18.703125 15.1875 21.578125 12.46875 
Q 24.46875 9.765625 28.21875 9.765625 
Q 32.515625 9.765625 35.5 13.25 
Q 38.484375 16.75 38.484375 23.78125 
Q 38.484375 30.375 35.515625 33.671875 
Q 32.5625 36.96875 27.828125 36.96875 
Q 21.921875 36.96875 17.234375 31.734375 
L 6.109375 33.34375 
L 13.140625 70.609375 
L 49.421875 70.609375 
L 49.421875 57.765625 
L 23.53125 57.765625 
L 21.390625 45.609375 
Q 25.984375 47.90625 30.765625 47.90625 
Q 39.890625 47.90625 46.234375 41.265625 
Q 52.59375 34.625 52.59375 24.03125 
Q 52.59375 15.1875 47.46875 8.25 
Q 40.484375 -1.21875 28.078125 -1.21875 
Q 18.171875 -1.21875 11.921875 4.09375 
Q 5.671875 9.421875 4.4375 18.40625 
z
" id="Arial-BoldMT-53"/>
     </defs>
     <use xlink:href="#Arial-BoldMT-67"/>
     <use x="72.216797" xlink:href="#Arial-BoldMT-101"/>
     <use x="127.832031" xlink:href="#Arial-BoldMT-108"/>
     <use x="155.615234" xlink:href="#Arial-BoldMT-108"/>
     <use x="183.398438" xlink:href="#Arial-BoldMT-32"/>
     <use x="211.181641" xlink:href="#Arial-BoldMT-115"/>
     <use x="266.796875" xlink:href="#Arial-BoldMT-105"/>
     <use x="294.580078" xlink:href="#Arial-BoldMT-122"/>
     <use x="344.580078" xlink:href="#Arial-BoldMT-101"/>
     <use x="400.195312" xlink:href="#Arial-BoldMT-32"/>
     <use x="427.978516" xlink:href="#Arial-BoldMT-61"/>
     <use x="486.376953" xlink:href="#Arial-BoldMT-32"/>
     <use x="514.160156" xlink:href="#Arial-BoldMT-50"/>
     <use x="569.775391" xlink:href="#Arial-BoldMT-46"/>
     <use x="597.558594" xlink:href="#Arial-BoldMT-53"/>
     <use x="653.173828" xlink:href="#Arial-BoldMT-32"/>
     <use x="680.957031" xlink:href="#Arial-BoldMT-109"/>
    </g>
   </g>
   <g id="text_19">
    <g clip-path="url(#p5be55e2d39)">
     <!-- 100 $^{\circ}$C -->
     <g style="fill:#5a3bfd;" transform="translate(368.668926 68.986829)rotate(-273.168783)scale(0.1 -0.1)">
      <defs>
       <path d="M 25 5.609375 
Q 19.828125 5.609375 15.359375 8.21875 
Q 10.890625 10.84375 8.25 15.375 
Q 5.609375 19.921875 5.609375 25 
Q 5.609375 30.078125 8.25 34.609375 
Q 10.890625 39.15625 15.359375 41.765625 
Q 19.828125 44.390625 25 44.390625 
Q 30.171875 44.390625 34.609375 41.75 
Q 39.0625 39.109375 41.671875 34.59375 
Q 44.28125 30.078125 44.28125 25 
Q 44.28125 19.921875 41.671875 15.40625 
Q 39.0625 10.890625 34.609375 8.25 
Q 30.171875 5.609375 25 5.609375 
z
M 25 9.625 
Q 31.25 9.625 35.765625 14.1875 
Q 40.28125 18.75 40.28125 25 
Q 40.28125 29 38.203125 32.59375 
Q 36.140625 36.1875 32.625 38.28125 
Q 29.109375 40.375 25 40.375 
Q 21.921875 40.375 19.140625 39.171875 
Q 16.359375 37.984375 14.15625 35.78125 
Q 11.96875 33.59375 10.796875 30.828125 
Q 9.625 28.078125 9.625 25 
Q 9.625 18.75 14.140625 14.1875 
Q 18.65625 9.625 25 9.625 
z
" id="Cmsy10-177"/>
       <path d="M 58.796875 25.09375 
L 68.265625 22.703125 
Q 65.28125 11.03125 57.546875 4.90625 
Q 49.8125 -1.21875 38.625 -1.21875 
Q 27.046875 -1.21875 19.796875 3.484375 
Q 12.546875 8.203125 8.765625 17.140625 
Q 4.984375 26.078125 4.984375 36.328125 
Q 4.984375 47.515625 9.25 55.828125 
Q 13.53125 64.15625 21.40625 68.46875 
Q 29.296875 72.796875 38.765625 72.796875 
Q 49.515625 72.796875 56.828125 67.328125 
Q 64.15625 61.859375 67.046875 51.953125 
L 57.71875 49.75 
Q 55.21875 57.5625 50.484375 61.125 
Q 45.75 64.703125 38.578125 64.703125 
Q 30.328125 64.703125 24.78125 60.734375 
Q 19.234375 56.78125 16.984375 50.109375 
Q 14.75 43.453125 14.75 36.375 
Q 14.75 27.25 17.40625 20.4375 
Q 20.0625 13.625 25.671875 10.25 
Q 31.296875 6.890625 37.84375 6.890625 
Q 45.796875 6.890625 51.3125 11.46875 
Q 56.84375 16.0625 58.796875 25.09375 
z
" id="ArialMT-67"/>
      </defs>
      <use transform="translate(0 0.203125)" xlink:href="#ArialMT-49"/>
      <use transform="translate(55.615234 0.203125)" xlink:href="#ArialMT-48"/>
      <use transform="translate(111.230469 0.203125)" xlink:href="#ArialMT-48"/>
      <use transform="translate(166.845703 0.203125)" xlink:href="#ArialMT-32"/>
      <use transform="translate(199.093047 38.467188)scale(0.7)" xlink:href="#Cmsy10-177"/>
      <use transform="translate(240.470391 0.203125)" xlink:href="#ArialMT-67"/>
     </g>
    </g>
   </g>
   <g id="text_20">
    <g clip-path="url(#p5be55e2d39)">
     <!-- 200 $^{\circ}$C -->
     <g style="fill:#3079f7;" transform="translate(236.247998 100.145825)rotate(-89.409174)scale(0.1 -0.1)">
      <use transform="translate(0 0.203125)" xlink:href="#ArialMT-50"/>
      <use transform="translate(55.615234 0.203125)" xlink:href="#ArialMT-48"/>
      <use transform="translate(111.230469 0.203125)" xlink:href="#ArialMT-48"/>
      <use transform="translate(166.845703 0.203125)" xlink:href="#ArialMT-32"/>
      <use transform="translate(199.093047 38.467188)scale(0.7)" xlink:href="#Cmsy10-177"/>
      <use transform="translate(240.470391 0.203125)" xlink:href="#ArialMT-67"/>
     </g>
    </g>
   </g>
   <g id="text_21">
    <g clip-path="url(#p5be55e2d39)">
     <!-- 300 $^{\circ}$C -->
     <g style="fill:#04b0ed;" transform="translate(298.31151 68.917047)rotate(-271.95033)scale(0.1 -0.1)">
      <use transform="translate(0 0.203125)" xlink:href="#ArialMT-51"/>
      <use transform="translate(55.615234 0.203125)" xlink:href="#ArialMT-48"/>
      <use transform="translate(111.230469 0.203125)" xlink:href="#ArialMT-48"/>
      <use transform="translate(166.845703 0.203125)" xlink:href="#ArialMT-32"/>
      <use transform="translate(199.093047 38.467188)scale(0.7)" xlink:href="#Cmsy10-177"/>
      <use transform="translate(240.470391 0.203125)" xlink:href="#ArialMT-67"/>
     </g>
    </g>
   </g>
  </g>
 </g>
 <defs>
  <clipPath id="p5be55e2d39">
   <rect height="233.9" width="359.9625" x="52.925" y="14.3"/>
  </clipPath>
 </defs>
</svg>
