<?xml version="1.0" encoding="utf-8" standalone="no"?>
<!DOCTYPE svg PUBLIC "-//W3C//DTD SVG 1.1//EN"
  "http://www.w3.org/Graphics/SVG/1.1/DTD/svg11.dtd">
<!-- Created with matplotlib (https://matplotlib.org/) -->
<svg height="288pt" version="1.1" viewBox="0 0 432 288" width="432pt" xmlns="http://www.w3.org/2000/svg" xmlns:xlink="http://www.w3.org/1999/xlink">
 <metadata>
  <rdf:RDF xmlns:cc="http://creativecommons.org/ns#" xmlns:dc="http://purl.org/dc/elements/1.1/" xmlns:rdf="http://www.w3.org/1999/02/22-rdf-syntax-ns#">
   <cc:Work>
    <dc:type rdf:resource="http://purl.org/dc/dcmitype/StillImage"/>
    <dc:date>2020-12-02T15:53:22.692507</dc:date>
    <dc:format>image/svg+xml</dc:format>
    <dc:creator>
     <cc:Agent>
      <dc:title>Matplotlib v3.3.2, https://matplotlib.org/</dc:title>
     </cc:Agent>
    </dc:creator>
   </cc:Work>
  </rdf:RDF>
 </metadata>
 <defs>
  <style type="text/css">*{stroke-linecap:butt;stroke-linejoin:round;}</style>
 </defs>
 <g id="figure_1">
  <g id="patch_1">
   <path d="M 0 288 
L 432 288 
L 432 0 
L 0 0 
z
" style="fill:none;"/>
  </g>
  <g id="axes_1">
   <g id="patch_2">
    <path d="M 51.425 235.204219 
L 421.2 235.204219 
L 421.2 10.8 
L 51.425 10.8 
z
" style="fill:#ffffff;"/>
   </g>
   <g id="matplotlib.axis_1">
    <g id="xtick_1">
     <g id="line2d_1">
      <path clip-path="url(#p56d02353ab)" d="M 68.232955 235.204219 
L 68.232955 10.8 
" style="fill:none;stroke:#808080;stroke-linecap:square;stroke-width:0.05;"/>
     </g>
     <g id="line2d_2">
      <defs>
       <path d="M 0 0 
L 0 3.5 
" id="mce53c002b6" style="stroke:#000000;stroke-width:0.8;"/>
      </defs>
      <g>
       <use style="stroke:#000000;stroke-width:0.8;" x="68.232955" xlink:href="#mce53c002b6" y="235.204219"/>
      </g>
     </g>
     <g id="text_1">
      <!-- $\mathdefault{10^{-16}}$ -->
      <g transform="translate(57.232955 252.516719)scale(0.1 -0.1)">
       <defs>
        <path d="M 37.25 0 
L 28.46875 0 
L 28.46875 56 
Q 25.296875 52.984375 20.140625 49.953125 
Q 14.984375 46.921875 10.890625 45.40625 
L 10.890625 53.90625 
Q 18.265625 57.375 23.78125 62.296875 
Q 29.296875 67.234375 31.59375 71.875 
L 37.25 71.875 
z
" id="ArialMT-49"/>
        <path d="M 4.15625 35.296875 
Q 4.15625 48 6.765625 55.734375 
Q 9.375 63.484375 14.515625 67.671875 
Q 19.671875 71.875 27.484375 71.875 
Q 33.25 71.875 37.59375 69.546875 
Q 41.9375 67.234375 44.765625 62.859375 
Q 47.609375 58.5 49.21875 52.21875 
Q 50.828125 45.953125 50.828125 35.296875 
Q 50.828125 22.703125 48.234375 14.96875 
Q 45.65625 7.234375 40.5 3 
Q 35.359375 -1.21875 27.484375 -1.21875 
Q 17.140625 -1.21875 11.234375 6.203125 
Q 4.15625 15.140625 4.15625 35.296875 
z
M 13.1875 35.296875 
Q 13.1875 17.671875 17.3125 11.828125 
Q 21.4375 6 27.484375 6 
Q 33.546875 6 37.671875 11.859375 
Q 41.796875 17.71875 41.796875 35.296875 
Q 41.796875 52.984375 37.671875 58.78125 
Q 33.546875 64.59375 27.390625 64.59375 
Q 21.34375 64.59375 17.71875 59.46875 
Q 13.1875 52.9375 13.1875 35.296875 
z
" id="ArialMT-48"/>
        <path d="M 3.171875 21.484375 
L 3.171875 30.328125 
L 30.171875 30.328125 
L 30.171875 21.484375 
z
" id="ArialMT-45"/>
        <path d="M 49.75 54.046875 
L 41.015625 53.375 
Q 39.84375 58.546875 37.703125 60.890625 
Q 34.125 64.65625 28.90625 64.65625 
Q 24.703125 64.65625 21.53125 62.3125 
Q 17.390625 59.28125 14.984375 53.46875 
Q 12.59375 47.65625 12.5 36.921875 
Q 15.671875 41.75 20.265625 44.09375 
Q 24.859375 46.4375 29.890625 46.4375 
Q 38.671875 46.4375 44.84375 39.96875 
Q 51.03125 33.5 51.03125 23.25 
Q 51.03125 16.5 48.125 10.71875 
Q 45.21875 4.9375 40.140625 1.859375 
Q 35.0625 -1.21875 28.609375 -1.21875 
Q 17.625 -1.21875 10.6875 6.859375 
Q 3.765625 14.9375 3.765625 33.5 
Q 3.765625 54.25 11.421875 63.671875 
Q 18.109375 71.875 29.4375 71.875 
Q 37.890625 71.875 43.28125 67.140625 
Q 48.6875 62.40625 49.75 54.046875 
z
M 13.875 23.1875 
Q 13.875 18.65625 15.796875 14.5 
Q 17.71875 10.359375 21.1875 8.171875 
Q 24.65625 6 28.46875 6 
Q 34.03125 6 38.03125 10.484375 
Q 42.046875 14.984375 42.046875 22.703125 
Q 42.046875 30.125 38.078125 34.390625 
Q 34.125 38.671875 28.125 38.671875 
Q 22.171875 38.671875 18.015625 34.390625 
Q 13.875 30.125 13.875 23.1875 
z
" id="ArialMT-54"/>
       </defs>
       <use transform="translate(0 0.99375)" xlink:href="#ArialMT-49"/>
       <use transform="translate(55.615234 0.99375)" xlink:href="#ArialMT-48"/>
       <use transform="translate(112.972813 70.6875)scale(0.7)" xlink:href="#ArialMT-45"/>
       <use transform="translate(136.283359 70.6875)scale(0.7)" xlink:href="#ArialMT-49"/>
       <use transform="translate(175.214023 70.6875)scale(0.7)" xlink:href="#ArialMT-54"/>
      </g>
     </g>
    </g>
    <g id="xtick_2">
     <g id="line2d_3">
      <path clip-path="url(#p56d02353ab)" d="M 152.272727 235.204219 
L 152.272727 10.8 
" style="fill:none;stroke:#808080;stroke-linecap:square;stroke-width:0.05;"/>
     </g>
     <g id="line2d_4">
      <g>
       <use style="stroke:#000000;stroke-width:0.8;" x="152.272727" xlink:href="#mce53c002b6" y="235.204219"/>
      </g>
     </g>
     <g id="text_2">
      <!-- $\mathdefault{10^{-15}}$ -->
      <g transform="translate(141.272727 252.516719)scale(0.1 -0.1)">
       <defs>
        <path d="M 4.15625 18.75 
L 13.375 19.53125 
Q 14.40625 12.796875 18.140625 9.390625 
Q 21.875 6 27.15625 6 
Q 33.5 6 37.890625 10.78125 
Q 42.28125 15.578125 42.28125 23.484375 
Q 42.28125 31 38.0625 35.34375 
Q 33.84375 39.703125 27 39.703125 
Q 22.75 39.703125 19.328125 37.765625 
Q 15.921875 35.84375 13.96875 32.765625 
L 5.71875 33.84375 
L 12.640625 70.609375 
L 48.25 70.609375 
L 48.25 62.203125 
L 19.671875 62.203125 
L 15.828125 42.96875 
Q 22.265625 47.46875 29.34375 47.46875 
Q 38.71875 47.46875 45.15625 40.96875 
Q 51.609375 34.46875 51.609375 24.265625 
Q 51.609375 14.546875 45.953125 7.46875 
Q 39.0625 -1.21875 27.15625 -1.21875 
Q 17.390625 -1.21875 11.203125 4.25 
Q 5.03125 9.71875 4.15625 18.75 
z
" id="ArialMT-53"/>
       </defs>
       <use transform="translate(0 0.99375)" xlink:href="#ArialMT-49"/>
       <use transform="translate(55.615234 0.99375)" xlink:href="#ArialMT-48"/>
       <use transform="translate(112.972813 70.6875)scale(0.7)" xlink:href="#ArialMT-45"/>
       <use transform="translate(136.283359 70.6875)scale(0.7)" xlink:href="#ArialMT-49"/>
       <use transform="translate(175.214023 70.6875)scale(0.7)" xlink:href="#ArialMT-53"/>
      </g>
     </g>
    </g>
    <g id="xtick_3">
     <g id="line2d_5">
      <path clip-path="url(#p56d02353ab)" d="M 236.3125 235.204219 
L 236.3125 10.8 
" style="fill:none;stroke:#808080;stroke-linecap:square;stroke-width:0.05;"/>
     </g>
     <g id="line2d_6">
      <g>
       <use style="stroke:#000000;stroke-width:0.8;" x="236.3125" xlink:href="#mce53c002b6" y="235.204219"/>
      </g>
     </g>
     <g id="text_3">
      <!-- $\mathdefault{10^{-14}}$ -->
      <g transform="translate(225.3125 252.516719)scale(0.1 -0.1)">
       <defs>
        <path d="M 32.328125 0 
L 32.328125 17.140625 
L 1.265625 17.140625 
L 1.265625 25.203125 
L 33.9375 71.578125 
L 41.109375 71.578125 
L 41.109375 25.203125 
L 50.78125 25.203125 
L 50.78125 17.140625 
L 41.109375 17.140625 
L 41.109375 0 
z
M 32.328125 25.203125 
L 32.328125 57.46875 
L 9.90625 25.203125 
z
" id="ArialMT-52"/>
       </defs>
       <use transform="translate(0 0.99375)" xlink:href="#ArialMT-49"/>
       <use transform="translate(55.615234 0.99375)" xlink:href="#ArialMT-48"/>
       <use transform="translate(112.972813 70.6875)scale(0.7)" xlink:href="#ArialMT-45"/>
       <use transform="translate(136.283359 70.6875)scale(0.7)" xlink:href="#ArialMT-49"/>
       <use transform="translate(175.214023 70.6875)scale(0.7)" xlink:href="#ArialMT-52"/>
      </g>
     </g>
    </g>
    <g id="xtick_4">
     <g id="line2d_7">
      <path clip-path="url(#p56d02353ab)" d="M 320.352273 235.204219 
L 320.352273 10.8 
" style="fill:none;stroke:#808080;stroke-linecap:square;stroke-width:0.05;"/>
     </g>
     <g id="line2d_8">
      <g>
       <use style="stroke:#000000;stroke-width:0.8;" x="320.352273" xlink:href="#mce53c002b6" y="235.204219"/>
      </g>
     </g>
     <g id="text_4">
      <!-- $\mathdefault{10^{-13}}$ -->
      <g transform="translate(309.352273 252.516719)scale(0.1 -0.1)">
       <defs>
        <path d="M 4.203125 18.890625 
L 12.984375 20.0625 
Q 14.5 12.59375 18.140625 9.296875 
Q 21.78125 6 27 6 
Q 33.203125 6 37.46875 10.296875 
Q 41.75 14.59375 41.75 20.953125 
Q 41.75 27 37.796875 30.921875 
Q 33.84375 34.859375 27.734375 34.859375 
Q 25.25 34.859375 21.53125 33.890625 
L 22.515625 41.609375 
Q 23.390625 41.5 23.921875 41.5 
Q 29.546875 41.5 34.03125 44.421875 
Q 38.53125 47.359375 38.53125 53.46875 
Q 38.53125 58.296875 35.25 61.46875 
Q 31.984375 64.65625 26.8125 64.65625 
Q 21.6875 64.65625 18.265625 61.421875 
Q 14.84375 58.203125 13.875 51.765625 
L 5.078125 53.328125 
Q 6.6875 62.15625 12.390625 67.015625 
Q 18.109375 71.875 26.609375 71.875 
Q 32.46875 71.875 37.390625 69.359375 
Q 42.328125 66.84375 44.9375 62.5 
Q 47.5625 58.15625 47.5625 53.265625 
Q 47.5625 48.640625 45.0625 44.828125 
Q 42.578125 41.015625 37.703125 38.765625 
Q 44.046875 37.3125 47.5625 32.6875 
Q 51.078125 28.078125 51.078125 21.140625 
Q 51.078125 11.765625 44.234375 5.25 
Q 37.40625 -1.265625 26.953125 -1.265625 
Q 17.53125 -1.265625 11.296875 4.34375 
Q 5.078125 9.96875 4.203125 18.890625 
z
" id="ArialMT-51"/>
       </defs>
       <use transform="translate(0 0.99375)" xlink:href="#ArialMT-49"/>
       <use transform="translate(55.615234 0.99375)" xlink:href="#ArialMT-48"/>
       <use transform="translate(112.972813 70.6875)scale(0.7)" xlink:href="#ArialMT-45"/>
       <use transform="translate(136.283359 70.6875)scale(0.7)" xlink:href="#ArialMT-49"/>
       <use transform="translate(175.214023 70.6875)scale(0.7)" xlink:href="#ArialMT-51"/>
      </g>
     </g>
    </g>
    <g id="xtick_5">
     <g id="line2d_9">
      <path clip-path="url(#p56d02353ab)" d="M 404.392045 235.204219 
L 404.392045 10.8 
" style="fill:none;stroke:#808080;stroke-linecap:square;stroke-width:0.05;"/>
     </g>
     <g id="line2d_10">
      <g>
       <use style="stroke:#000000;stroke-width:0.8;" x="404.392045" xlink:href="#mce53c002b6" y="235.204219"/>
      </g>
     </g>
     <g id="text_5">
      <!-- $\mathdefault{10^{-12}}$ -->
      <g transform="translate(393.392045 252.516719)scale(0.1 -0.1)">
       <defs>
        <path d="M 50.34375 8.453125 
L 50.34375 0 
L 3.03125 0 
Q 2.9375 3.171875 4.046875 6.109375 
Q 5.859375 10.9375 9.828125 15.625 
Q 13.8125 20.3125 21.34375 26.46875 
Q 33.015625 36.03125 37.109375 41.625 
Q 41.21875 47.21875 41.21875 52.203125 
Q 41.21875 57.421875 37.46875 61 
Q 33.734375 64.59375 27.734375 64.59375 
Q 21.390625 64.59375 17.578125 60.78125 
Q 13.765625 56.984375 13.71875 50.25 
L 4.6875 51.171875 
Q 5.609375 61.28125 11.65625 66.578125 
Q 17.71875 71.875 27.9375 71.875 
Q 38.234375 71.875 44.234375 66.15625 
Q 50.25 60.453125 50.25 52 
Q 50.25 47.703125 48.484375 43.546875 
Q 46.734375 39.40625 42.65625 34.8125 
Q 38.578125 30.21875 29.109375 22.21875 
Q 21.1875 15.578125 18.9375 13.203125 
Q 16.703125 10.84375 15.234375 8.453125 
z
" id="ArialMT-50"/>
       </defs>
       <use transform="translate(0 0.99375)" xlink:href="#ArialMT-49"/>
       <use transform="translate(55.615234 0.99375)" xlink:href="#ArialMT-48"/>
       <use transform="translate(112.972813 70.6875)scale(0.7)" xlink:href="#ArialMT-45"/>
       <use transform="translate(136.283359 70.6875)scale(0.7)" xlink:href="#ArialMT-49"/>
       <use transform="translate(175.214023 70.6875)scale(0.7)" xlink:href="#ArialMT-50"/>
      </g>
     </g>
    </g>
    <g id="xtick_6">
     <g id="line2d_11">
      <path clip-path="url(#p56d02353ab)" d="M 55.215029 235.204219 
L 55.215029 10.8 
" style="fill:none;stroke:#d3d3d3;stroke-linecap:square;stroke-width:0.05;"/>
     </g>
     <g id="line2d_12">
      <defs>
       <path d="M 0 0 
L 0 2 
" id="m72a25466b6" style="stroke:#000000;stroke-width:0.6;"/>
      </defs>
      <g>
       <use style="stroke:#000000;stroke-width:0.6;" x="55.215029" xlink:href="#m72a25466b6" y="235.204219"/>
      </g>
     </g>
    </g>
    <g id="xtick_7">
     <g id="line2d_13">
      <path clip-path="url(#p56d02353ab)" d="M 60.088659 235.204219 
L 60.088659 10.8 
" style="fill:none;stroke:#d3d3d3;stroke-linecap:square;stroke-width:0.05;"/>
     </g>
     <g id="line2d_14">
      <g>
       <use style="stroke:#000000;stroke-width:0.6;" x="60.088659" xlink:href="#m72a25466b6" y="235.204219"/>
      </g>
     </g>
    </g>
    <g id="xtick_8">
     <g id="line2d_15">
      <path clip-path="url(#p56d02353ab)" d="M 64.387505 235.204219 
L 64.387505 10.8 
" style="fill:none;stroke:#d3d3d3;stroke-linecap:square;stroke-width:0.05;"/>
     </g>
     <g id="line2d_16">
      <g>
       <use style="stroke:#000000;stroke-width:0.6;" x="64.387505" xlink:href="#m72a25466b6" y="235.204219"/>
      </g>
     </g>
    </g>
    <g id="xtick_9">
     <g id="line2d_17">
      <path clip-path="url(#p56d02353ab)" d="M 93.531447 235.204219 
L 93.531447 10.8 
" style="fill:none;stroke:#d3d3d3;stroke-linecap:square;stroke-width:0.05;"/>
     </g>
     <g id="line2d_18">
      <g>
       <use style="stroke:#000000;stroke-width:0.6;" x="93.531447" xlink:href="#m72a25466b6" y="235.204219"/>
      </g>
     </g>
    </g>
    <g id="xtick_10">
     <g id="line2d_19">
      <path clip-path="url(#p56d02353ab)" d="M 108.330116 235.204219 
L 108.330116 10.8 
" style="fill:none;stroke:#d3d3d3;stroke-linecap:square;stroke-width:0.05;"/>
     </g>
     <g id="line2d_20">
      <g>
       <use style="stroke:#000000;stroke-width:0.6;" x="108.330116" xlink:href="#m72a25466b6" y="235.204219"/>
      </g>
     </g>
    </g>
    <g id="xtick_11">
     <g id="line2d_21">
      <path clip-path="url(#p56d02353ab)" d="M 118.829939 235.204219 
L 118.829939 10.8 
" style="fill:none;stroke:#d3d3d3;stroke-linecap:square;stroke-width:0.05;"/>
     </g>
     <g id="line2d_22">
      <g>
       <use style="stroke:#000000;stroke-width:0.6;" x="118.829939" xlink:href="#m72a25466b6" y="235.204219"/>
      </g>
     </g>
    </g>
    <g id="xtick_12">
     <g id="line2d_23">
      <path clip-path="url(#p56d02353ab)" d="M 126.974235 235.204219 
L 126.974235 10.8 
" style="fill:none;stroke:#d3d3d3;stroke-linecap:square;stroke-width:0.05;"/>
     </g>
     <g id="line2d_24">
      <g>
       <use style="stroke:#000000;stroke-width:0.6;" x="126.974235" xlink:href="#m72a25466b6" y="235.204219"/>
      </g>
     </g>
    </g>
    <g id="xtick_13">
     <g id="line2d_25">
      <path clip-path="url(#p56d02353ab)" d="M 133.628609 235.204219 
L 133.628609 10.8 
" style="fill:none;stroke:#d3d3d3;stroke-linecap:square;stroke-width:0.05;"/>
     </g>
     <g id="line2d_26">
      <g>
       <use style="stroke:#000000;stroke-width:0.6;" x="133.628609" xlink:href="#m72a25466b6" y="235.204219"/>
      </g>
     </g>
    </g>
    <g id="xtick_14">
     <g id="line2d_27">
      <path clip-path="url(#p56d02353ab)" d="M 139.254802 235.204219 
L 139.254802 10.8 
" style="fill:none;stroke:#d3d3d3;stroke-linecap:square;stroke-width:0.05;"/>
     </g>
     <g id="line2d_28">
      <g>
       <use style="stroke:#000000;stroke-width:0.6;" x="139.254802" xlink:href="#m72a25466b6" y="235.204219"/>
      </g>
     </g>
    </g>
    <g id="xtick_15">
     <g id="line2d_29">
      <path clip-path="url(#p56d02353ab)" d="M 144.128432 235.204219 
L 144.128432 10.8 
" style="fill:none;stroke:#d3d3d3;stroke-linecap:square;stroke-width:0.05;"/>
     </g>
     <g id="line2d_30">
      <g>
       <use style="stroke:#000000;stroke-width:0.6;" x="144.128432" xlink:href="#m72a25466b6" y="235.204219"/>
      </g>
     </g>
    </g>
    <g id="xtick_16">
     <g id="line2d_31">
      <path clip-path="url(#p56d02353ab)" d="M 148.427278 235.204219 
L 148.427278 10.8 
" style="fill:none;stroke:#d3d3d3;stroke-linecap:square;stroke-width:0.05;"/>
     </g>
     <g id="line2d_32">
      <g>
       <use style="stroke:#000000;stroke-width:0.6;" x="148.427278" xlink:href="#m72a25466b6" y="235.204219"/>
      </g>
     </g>
    </g>
    <g id="xtick_17">
     <g id="line2d_33">
      <path clip-path="url(#p56d02353ab)" d="M 177.57122 235.204219 
L 177.57122 10.8 
" style="fill:none;stroke:#d3d3d3;stroke-linecap:square;stroke-width:0.05;"/>
     </g>
     <g id="line2d_34">
      <g>
       <use style="stroke:#000000;stroke-width:0.6;" x="177.57122" xlink:href="#m72a25466b6" y="235.204219"/>
      </g>
     </g>
    </g>
    <g id="xtick_18">
     <g id="line2d_35">
      <path clip-path="url(#p56d02353ab)" d="M 192.369889 235.204219 
L 192.369889 10.8 
" style="fill:none;stroke:#d3d3d3;stroke-linecap:square;stroke-width:0.05;"/>
     </g>
     <g id="line2d_36">
      <g>
       <use style="stroke:#000000;stroke-width:0.6;" x="192.369889" xlink:href="#m72a25466b6" y="235.204219"/>
      </g>
     </g>
    </g>
    <g id="xtick_19">
     <g id="line2d_37">
      <path clip-path="url(#p56d02353ab)" d="M 202.869712 235.204219 
L 202.869712 10.8 
" style="fill:none;stroke:#d3d3d3;stroke-linecap:square;stroke-width:0.05;"/>
     </g>
     <g id="line2d_38">
      <g>
       <use style="stroke:#000000;stroke-width:0.6;" x="202.869712" xlink:href="#m72a25466b6" y="235.204219"/>
      </g>
     </g>
    </g>
    <g id="xtick_20">
     <g id="line2d_39">
      <path clip-path="url(#p56d02353ab)" d="M 211.014008 235.204219 
L 211.014008 10.8 
" style="fill:none;stroke:#d3d3d3;stroke-linecap:square;stroke-width:0.05;"/>
     </g>
     <g id="line2d_40">
      <g>
       <use style="stroke:#000000;stroke-width:0.6;" x="211.014008" xlink:href="#m72a25466b6" y="235.204219"/>
      </g>
     </g>
    </g>
    <g id="xtick_21">
     <g id="line2d_41">
      <path clip-path="url(#p56d02353ab)" d="M 217.668382 235.204219 
L 217.668382 10.8 
" style="fill:none;stroke:#d3d3d3;stroke-linecap:square;stroke-width:0.05;"/>
     </g>
     <g id="line2d_42">
      <g>
       <use style="stroke:#000000;stroke-width:0.6;" x="217.668382" xlink:href="#m72a25466b6" y="235.204219"/>
      </g>
     </g>
    </g>
    <g id="xtick_22">
     <g id="line2d_43">
      <path clip-path="url(#p56d02353ab)" d="M 223.294574 235.204219 
L 223.294574 10.8 
" style="fill:none;stroke:#d3d3d3;stroke-linecap:square;stroke-width:0.05;"/>
     </g>
     <g id="line2d_44">
      <g>
       <use style="stroke:#000000;stroke-width:0.6;" x="223.294574" xlink:href="#m72a25466b6" y="235.204219"/>
      </g>
     </g>
    </g>
    <g id="xtick_23">
     <g id="line2d_45">
      <path clip-path="url(#p56d02353ab)" d="M 228.168205 235.204219 
L 228.168205 10.8 
" style="fill:none;stroke:#d3d3d3;stroke-linecap:square;stroke-width:0.05;"/>
     </g>
     <g id="line2d_46">
      <g>
       <use style="stroke:#000000;stroke-width:0.6;" x="228.168205" xlink:href="#m72a25466b6" y="235.204219"/>
      </g>
     </g>
    </g>
    <g id="xtick_24">
     <g id="line2d_47">
      <path clip-path="url(#p56d02353ab)" d="M 232.467051 235.204219 
L 232.467051 10.8 
" style="fill:none;stroke:#d3d3d3;stroke-linecap:square;stroke-width:0.05;"/>
     </g>
     <g id="line2d_48">
      <g>
       <use style="stroke:#000000;stroke-width:0.6;" x="232.467051" xlink:href="#m72a25466b6" y="235.204219"/>
      </g>
     </g>
    </g>
    <g id="xtick_25">
     <g id="line2d_49">
      <path clip-path="url(#p56d02353ab)" d="M 261.610992 235.204219 
L 261.610992 10.8 
" style="fill:none;stroke:#d3d3d3;stroke-linecap:square;stroke-width:0.05;"/>
     </g>
     <g id="line2d_50">
      <g>
       <use style="stroke:#000000;stroke-width:0.6;" x="261.610992" xlink:href="#m72a25466b6" y="235.204219"/>
      </g>
     </g>
    </g>
    <g id="xtick_26">
     <g id="line2d_51">
      <path clip-path="url(#p56d02353ab)" d="M 276.409662 235.204219 
L 276.409662 10.8 
" style="fill:none;stroke:#d3d3d3;stroke-linecap:square;stroke-width:0.05;"/>
     </g>
     <g id="line2d_52">
      <g>
       <use style="stroke:#000000;stroke-width:0.6;" x="276.409662" xlink:href="#m72a25466b6" y="235.204219"/>
      </g>
     </g>
    </g>
    <g id="xtick_27">
     <g id="line2d_53">
      <path clip-path="url(#p56d02353ab)" d="M 286.909485 235.204219 
L 286.909485 10.8 
" style="fill:none;stroke:#d3d3d3;stroke-linecap:square;stroke-width:0.05;"/>
     </g>
     <g id="line2d_54">
      <g>
       <use style="stroke:#000000;stroke-width:0.6;" x="286.909485" xlink:href="#m72a25466b6" y="235.204219"/>
      </g>
     </g>
    </g>
    <g id="xtick_28">
     <g id="line2d_55">
      <path clip-path="url(#p56d02353ab)" d="M 295.05378 235.204219 
L 295.05378 10.8 
" style="fill:none;stroke:#d3d3d3;stroke-linecap:square;stroke-width:0.05;"/>
     </g>
     <g id="line2d_56">
      <g>
       <use style="stroke:#000000;stroke-width:0.6;" x="295.05378" xlink:href="#m72a25466b6" y="235.204219"/>
      </g>
     </g>
    </g>
    <g id="xtick_29">
     <g id="line2d_57">
      <path clip-path="url(#p56d02353ab)" d="M 301.708154 235.204219 
L 301.708154 10.8 
" style="fill:none;stroke:#d3d3d3;stroke-linecap:square;stroke-width:0.05;"/>
     </g>
     <g id="line2d_58">
      <g>
       <use style="stroke:#000000;stroke-width:0.6;" x="301.708154" xlink:href="#m72a25466b6" y="235.204219"/>
      </g>
     </g>
    </g>
    <g id="xtick_30">
     <g id="line2d_59">
      <path clip-path="url(#p56d02353ab)" d="M 307.334347 235.204219 
L 307.334347 10.8 
" style="fill:none;stroke:#d3d3d3;stroke-linecap:square;stroke-width:0.05;"/>
     </g>
     <g id="line2d_60">
      <g>
       <use style="stroke:#000000;stroke-width:0.6;" x="307.334347" xlink:href="#m72a25466b6" y="235.204219"/>
      </g>
     </g>
    </g>
    <g id="xtick_31">
     <g id="line2d_61">
      <path clip-path="url(#p56d02353ab)" d="M 312.207977 235.204219 
L 312.207977 10.8 
" style="fill:none;stroke:#d3d3d3;stroke-linecap:square;stroke-width:0.05;"/>
     </g>
     <g id="line2d_62">
      <g>
       <use style="stroke:#000000;stroke-width:0.6;" x="312.207977" xlink:href="#m72a25466b6" y="235.204219"/>
      </g>
     </g>
    </g>
    <g id="xtick_32">
     <g id="line2d_63">
      <path clip-path="url(#p56d02353ab)" d="M 316.506824 235.204219 
L 316.506824 10.8 
" style="fill:none;stroke:#d3d3d3;stroke-linecap:square;stroke-width:0.05;"/>
     </g>
     <g id="line2d_64">
      <g>
       <use style="stroke:#000000;stroke-width:0.6;" x="316.506824" xlink:href="#m72a25466b6" y="235.204219"/>
      </g>
     </g>
    </g>
    <g id="xtick_33">
     <g id="line2d_65">
      <path clip-path="url(#p56d02353ab)" d="M 345.650765 235.204219 
L 345.650765 10.8 
" style="fill:none;stroke:#d3d3d3;stroke-linecap:square;stroke-width:0.05;"/>
     </g>
     <g id="line2d_66">
      <g>
       <use style="stroke:#000000;stroke-width:0.6;" x="345.650765" xlink:href="#m72a25466b6" y="235.204219"/>
      </g>
     </g>
    </g>
    <g id="xtick_34">
     <g id="line2d_67">
      <path clip-path="url(#p56d02353ab)" d="M 360.449435 235.204219 
L 360.449435 10.8 
" style="fill:none;stroke:#d3d3d3;stroke-linecap:square;stroke-width:0.05;"/>
     </g>
     <g id="line2d_68">
      <g>
       <use style="stroke:#000000;stroke-width:0.6;" x="360.449435" xlink:href="#m72a25466b6" y="235.204219"/>
      </g>
     </g>
    </g>
    <g id="xtick_35">
     <g id="line2d_69">
      <path clip-path="url(#p56d02353ab)" d="M 370.949258 235.204219 
L 370.949258 10.8 
" style="fill:none;stroke:#d3d3d3;stroke-linecap:square;stroke-width:0.05;"/>
     </g>
     <g id="line2d_70">
      <g>
       <use style="stroke:#000000;stroke-width:0.6;" x="370.949258" xlink:href="#m72a25466b6" y="235.204219"/>
      </g>
     </g>
    </g>
    <g id="xtick_36">
     <g id="line2d_71">
      <path clip-path="url(#p56d02353ab)" d="M 379.093553 235.204219 
L 379.093553 10.8 
" style="fill:none;stroke:#d3d3d3;stroke-linecap:square;stroke-width:0.05;"/>
     </g>
     <g id="line2d_72">
      <g>
       <use style="stroke:#000000;stroke-width:0.6;" x="379.093553" xlink:href="#m72a25466b6" y="235.204219"/>
      </g>
     </g>
    </g>
    <g id="xtick_37">
     <g id="line2d_73">
      <path clip-path="url(#p56d02353ab)" d="M 385.747927 235.204219 
L 385.747927 10.8 
" style="fill:none;stroke:#d3d3d3;stroke-linecap:square;stroke-width:0.05;"/>
     </g>
     <g id="line2d_74">
      <g>
       <use style="stroke:#000000;stroke-width:0.6;" x="385.747927" xlink:href="#m72a25466b6" y="235.204219"/>
      </g>
     </g>
    </g>
    <g id="xtick_38">
     <g id="line2d_75">
      <path clip-path="url(#p56d02353ab)" d="M 391.37412 235.204219 
L 391.37412 10.8 
" style="fill:none;stroke:#d3d3d3;stroke-linecap:square;stroke-width:0.05;"/>
     </g>
     <g id="line2d_76">
      <g>
       <use style="stroke:#000000;stroke-width:0.6;" x="391.37412" xlink:href="#m72a25466b6" y="235.204219"/>
      </g>
     </g>
    </g>
    <g id="xtick_39">
     <g id="line2d_77">
      <path clip-path="url(#p56d02353ab)" d="M 396.24775 235.204219 
L 396.24775 10.8 
" style="fill:none;stroke:#d3d3d3;stroke-linecap:square;stroke-width:0.05;"/>
     </g>
     <g id="line2d_78">
      <g>
       <use style="stroke:#000000;stroke-width:0.6;" x="396.24775" xlink:href="#m72a25466b6" y="235.204219"/>
      </g>
     </g>
    </g>
    <g id="xtick_40">
     <g id="line2d_79">
      <path clip-path="url(#p56d02353ab)" d="M 400.546596 235.204219 
L 400.546596 10.8 
" style="fill:none;stroke:#d3d3d3;stroke-linecap:square;stroke-width:0.05;"/>
     </g>
     <g id="line2d_80">
      <g>
       <use style="stroke:#000000;stroke-width:0.6;" x="400.546596" xlink:href="#m72a25466b6" y="235.204219"/>
      </g>
     </g>
    </g>
    <g id="text_6">
     <!-- Permeability (m$^{\mathregular{2}}$) -->
     <g transform="translate(197.4125 267.404219)scale(0.1 -0.1)">
      <defs>
       <path d="M 7.71875 0 
L 7.71875 71.578125 
L 34.71875 71.578125 
Q 41.84375 71.578125 45.609375 70.90625 
Q 50.875 70.015625 54.4375 67.546875 
Q 58.015625 65.09375 60.1875 60.640625 
Q 62.359375 56.203125 62.359375 50.875 
Q 62.359375 41.75 56.546875 35.421875 
Q 50.734375 29.109375 35.546875 29.109375 
L 17.1875 29.109375 
L 17.1875 0 
z
M 17.1875 37.546875 
L 35.6875 37.546875 
Q 44.875 37.546875 48.734375 40.96875 
Q 52.59375 44.390625 52.59375 50.59375 
Q 52.59375 55.078125 50.3125 58.265625 
Q 48.046875 61.46875 44.34375 62.5 
Q 41.9375 63.140625 35.5 63.140625 
L 17.1875 63.140625 
z
" id="ArialMT-80"/>
       <path d="M 42.09375 16.703125 
L 51.171875 15.578125 
Q 49.03125 7.625 43.21875 3.21875 
Q 37.40625 -1.171875 28.375 -1.171875 
Q 17 -1.171875 10.328125 5.828125 
Q 3.65625 12.84375 3.65625 25.484375 
Q 3.65625 38.578125 10.390625 45.796875 
Q 17.140625 53.03125 27.875 53.03125 
Q 38.28125 53.03125 44.875 45.953125 
Q 51.46875 38.875 51.46875 26.03125 
Q 51.46875 25.25 51.421875 23.6875 
L 12.75 23.6875 
Q 13.234375 15.140625 17.578125 10.59375 
Q 21.921875 6.0625 28.421875 6.0625 
Q 33.25 6.0625 36.671875 8.59375 
Q 40.09375 11.140625 42.09375 16.703125 
z
M 13.234375 30.90625 
L 42.1875 30.90625 
Q 41.609375 37.453125 38.875 40.71875 
Q 34.671875 45.796875 27.984375 45.796875 
Q 21.921875 45.796875 17.796875 41.75 
Q 13.671875 37.703125 13.234375 30.90625 
z
" id="ArialMT-101"/>
       <path d="M 6.5 0 
L 6.5 51.859375 
L 14.40625 51.859375 
L 14.40625 44 
Q 17.4375 49.515625 20 51.265625 
Q 22.5625 53.03125 25.640625 53.03125 
Q 30.078125 53.03125 34.671875 50.203125 
L 31.640625 42.046875 
Q 28.421875 43.953125 25.203125 43.953125 
Q 22.3125 43.953125 20.015625 42.21875 
Q 17.71875 40.484375 16.75 37.40625 
Q 15.28125 32.71875 15.28125 27.15625 
L 15.28125 0 
z
" id="ArialMT-114"/>
       <path d="M 6.59375 0 
L 6.59375 51.859375 
L 14.453125 51.859375 
L 14.453125 44.578125 
Q 16.890625 48.390625 20.9375 50.703125 
Q 25 53.03125 30.171875 53.03125 
Q 35.9375 53.03125 39.625 50.640625 
Q 43.3125 48.25 44.828125 43.953125 
Q 50.984375 53.03125 60.84375 53.03125 
Q 68.5625 53.03125 72.703125 48.75 
Q 76.859375 44.484375 76.859375 35.59375 
L 76.859375 0 
L 68.109375 0 
L 68.109375 32.671875 
Q 68.109375 37.9375 67.25 40.25 
Q 66.40625 42.578125 64.15625 43.984375 
Q 61.921875 45.40625 58.890625 45.40625 
Q 53.421875 45.40625 49.796875 41.765625 
Q 46.1875 38.140625 46.1875 30.125 
L 46.1875 0 
L 37.40625 0 
L 37.40625 33.6875 
Q 37.40625 39.546875 35.25 42.46875 
Q 33.109375 45.40625 28.21875 45.40625 
Q 24.515625 45.40625 21.359375 43.453125 
Q 18.21875 41.5 16.796875 37.734375 
Q 15.375 33.984375 15.375 26.90625 
L 15.375 0 
z
" id="ArialMT-109"/>
       <path d="M 40.4375 6.390625 
Q 35.546875 2.25 31.03125 0.53125 
Q 26.515625 -1.171875 21.34375 -1.171875 
Q 12.796875 -1.171875 8.203125 3 
Q 3.609375 7.171875 3.609375 13.671875 
Q 3.609375 17.484375 5.34375 20.625 
Q 7.078125 23.78125 9.890625 25.6875 
Q 12.703125 27.59375 16.21875 28.5625 
Q 18.796875 29.25 24.03125 29.890625 
Q 34.671875 31.15625 39.703125 32.90625 
Q 39.75 34.71875 39.75 35.203125 
Q 39.75 40.578125 37.25 42.78125 
Q 33.890625 45.75 27.25 45.75 
Q 21.046875 45.75 18.09375 43.578125 
Q 15.140625 41.40625 13.71875 35.890625 
L 5.125 37.0625 
Q 6.296875 42.578125 8.984375 45.96875 
Q 11.671875 49.359375 16.75 51.1875 
Q 21.828125 53.03125 28.515625 53.03125 
Q 35.15625 53.03125 39.296875 51.46875 
Q 43.453125 49.90625 45.40625 47.53125 
Q 47.359375 45.171875 48.140625 41.546875 
Q 48.578125 39.3125 48.578125 33.453125 
L 48.578125 21.734375 
Q 48.578125 9.46875 49.140625 6.21875 
Q 49.703125 2.984375 51.375 0 
L 42.1875 0 
Q 40.828125 2.734375 40.4375 6.390625 
z
M 39.703125 26.03125 
Q 34.90625 24.078125 25.34375 22.703125 
Q 19.921875 21.921875 17.671875 20.9375 
Q 15.4375 19.96875 14.203125 18.09375 
Q 12.984375 16.21875 12.984375 13.921875 
Q 12.984375 10.40625 15.640625 8.0625 
Q 18.3125 5.71875 23.4375 5.71875 
Q 28.515625 5.71875 32.46875 7.9375 
Q 36.421875 10.15625 38.28125 14.015625 
Q 39.703125 17 39.703125 22.796875 
z
" id="ArialMT-97"/>
       <path d="M 14.703125 0 
L 6.546875 0 
L 6.546875 71.578125 
L 15.328125 71.578125 
L 15.328125 46.046875 
Q 20.90625 53.03125 29.546875 53.03125 
Q 34.328125 53.03125 38.59375 51.09375 
Q 42.875 49.171875 45.625 45.671875 
Q 48.390625 42.1875 49.953125 37.25 
Q 51.515625 32.328125 51.515625 26.703125 
Q 51.515625 13.375 44.921875 6.09375 
Q 38.328125 -1.171875 29.109375 -1.171875 
Q 19.921875 -1.171875 14.703125 6.5 
z
M 14.59375 26.3125 
Q 14.59375 17 17.140625 12.84375 
Q 21.296875 6.0625 28.375 6.0625 
Q 34.125 6.0625 38.328125 11.0625 
Q 42.53125 16.0625 42.53125 25.984375 
Q 42.53125 36.140625 38.5 40.96875 
Q 34.46875 45.796875 28.765625 45.796875 
Q 23 45.796875 18.796875 40.796875 
Q 14.59375 35.796875 14.59375 26.3125 
z
" id="ArialMT-98"/>
       <path d="M 6.640625 61.46875 
L 6.640625 71.578125 
L 15.4375 71.578125 
L 15.4375 61.46875 
z
M 6.640625 0 
L 6.640625 51.859375 
L 15.4375 51.859375 
L 15.4375 0 
z
" id="ArialMT-105"/>
       <path d="M 6.390625 0 
L 6.390625 71.578125 
L 15.1875 71.578125 
L 15.1875 0 
z
" id="ArialMT-108"/>
       <path d="M 25.78125 7.859375 
L 27.046875 0.09375 
Q 23.34375 -0.6875 20.40625 -0.6875 
Q 15.625 -0.6875 12.984375 0.828125 
Q 10.359375 2.34375 9.28125 4.8125 
Q 8.203125 7.28125 8.203125 15.1875 
L 8.203125 45.015625 
L 1.765625 45.015625 
L 1.765625 51.859375 
L 8.203125 51.859375 
L 8.203125 64.703125 
L 16.9375 69.96875 
L 16.9375 51.859375 
L 25.78125 51.859375 
L 25.78125 45.015625 
L 16.9375 45.015625 
L 16.9375 14.703125 
Q 16.9375 10.9375 17.40625 9.859375 
Q 17.875 8.796875 18.921875 8.15625 
Q 19.96875 7.515625 21.921875 7.515625 
Q 23.390625 7.515625 25.78125 7.859375 
z
" id="ArialMT-116"/>
       <path d="M 6.203125 -19.96875 
L 5.21875 -11.71875 
Q 8.109375 -12.5 10.25 -12.5 
Q 13.1875 -12.5 14.9375 -11.515625 
Q 16.703125 -10.546875 17.828125 -8.796875 
Q 18.65625 -7.46875 20.515625 -2.25 
Q 20.75 -1.515625 21.296875 -0.09375 
L 1.609375 51.859375 
L 11.078125 51.859375 
L 21.875 21.828125 
Q 23.96875 16.109375 25.640625 9.8125 
Q 27.15625 15.875 29.25 21.625 
L 40.328125 51.859375 
L 49.125 51.859375 
L 29.390625 -0.875 
Q 26.21875 -9.421875 24.46875 -12.640625 
Q 22.125 -17 19.09375 -19.015625 
Q 16.0625 -21.046875 11.859375 -21.046875 
Q 9.328125 -21.046875 6.203125 -19.96875 
z
" id="ArialMT-121"/>
       <path id="ArialMT-32"/>
       <path d="M 23.390625 -21.046875 
Q 16.109375 -11.859375 11.078125 0.4375 
Q 6.0625 12.75 6.0625 25.921875 
Q 6.0625 37.546875 9.8125 48.1875 
Q 14.203125 60.546875 23.390625 72.796875 
L 29.6875 72.796875 
Q 23.78125 62.640625 21.875 58.296875 
Q 18.890625 51.5625 17.1875 44.234375 
Q 15.09375 35.109375 15.09375 25.875 
Q 15.09375 2.390625 29.6875 -21.046875 
z
" id="ArialMT-40"/>
       <path d="M 12.359375 -21.046875 
L 6.0625 -21.046875 
Q 20.65625 2.390625 20.65625 25.875 
Q 20.65625 35.0625 18.5625 44.09375 
Q 16.890625 51.421875 13.921875 58.15625 
Q 12.015625 62.546875 6.0625 72.796875 
L 12.359375 72.796875 
Q 21.53125 60.546875 25.921875 48.1875 
Q 29.6875 37.546875 29.6875 25.921875 
Q 29.6875 12.75 24.625 0.4375 
Q 19.578125 -11.859375 12.359375 -21.046875 
z
" id="ArialMT-41"/>
      </defs>
      <use transform="translate(0 0.423438)" xlink:href="#ArialMT-80"/>
      <use transform="translate(66.699219 0.423438)" xlink:href="#ArialMT-101"/>
      <use transform="translate(122.314453 0.423438)" xlink:href="#ArialMT-114"/>
      <use transform="translate(155.615234 0.423438)" xlink:href="#ArialMT-109"/>
      <use transform="translate(238.916016 0.423438)" xlink:href="#ArialMT-101"/>
      <use transform="translate(294.53125 0.423438)" xlink:href="#ArialMT-97"/>
      <use transform="translate(350.146484 0.423438)" xlink:href="#ArialMT-98"/>
      <use transform="translate(405.761719 0.423438)" xlink:href="#ArialMT-105"/>
      <use transform="translate(427.978516 0.423438)" xlink:href="#ArialMT-108"/>
      <use transform="translate(450.195312 0.423438)" xlink:href="#ArialMT-105"/>
      <use transform="translate(472.412109 0.423438)" xlink:href="#ArialMT-116"/>
      <use transform="translate(500.195312 0.423438)" xlink:href="#ArialMT-121"/>
      <use transform="translate(550.195312 0.423438)" xlink:href="#ArialMT-32"/>
      <use transform="translate(577.978516 0.423438)" xlink:href="#ArialMT-40"/>
      <use transform="translate(611.279297 0.423438)" xlink:href="#ArialMT-109"/>
      <use transform="translate(699.044219 38.6875)scale(0.7)" xlink:href="#ArialMT-50"/>
      <use transform="translate(744.352227 0.423438)" xlink:href="#ArialMT-41"/>
     </g>
    </g>
   </g>
   <g id="matplotlib.axis_2">
    <g id="ytick_1">
     <g id="line2d_81">
      <path clip-path="url(#p56d02353ab)" d="M 51.425 235.204219 
L 421.2 235.204219 
" style="fill:none;stroke:#808080;stroke-linecap:square;stroke-width:0.05;"/>
     </g>
     <g id="line2d_82">
      <defs>
       <path d="M 0 0 
L -3.5 0 
" id="m0a4daa980c" style="stroke:#000000;stroke-width:0.8;"/>
      </defs>
      <g>
       <use style="stroke:#000000;stroke-width:0.8;" x="51.425" xlink:href="#m0a4daa980c" y="235.204219"/>
      </g>
     </g>
     <g id="text_7">
      <!-- 0 -->
      <g transform="translate(38.864063 238.783125)scale(0.1 -0.1)">
       <use xlink:href="#ArialMT-48"/>
      </g>
     </g>
    </g>
    <g id="ytick_2">
     <g id="line2d_83">
      <path clip-path="url(#p56d02353ab)" d="M 51.425 181.774643 
L 421.2 181.774643 
" style="fill:none;stroke:#808080;stroke-linecap:square;stroke-width:0.05;"/>
     </g>
     <g id="line2d_84">
      <g>
       <use style="stroke:#000000;stroke-width:0.8;" x="51.425" xlink:href="#m0a4daa980c" y="181.774643"/>
      </g>
     </g>
     <g id="text_8">
      <!-- 100 -->
      <g transform="translate(27.742188 185.353549)scale(0.1 -0.1)">
       <use xlink:href="#ArialMT-49"/>
       <use x="55.615234" xlink:href="#ArialMT-48"/>
       <use x="111.230469" xlink:href="#ArialMT-48"/>
      </g>
     </g>
    </g>
    <g id="ytick_3">
     <g id="line2d_85">
      <path clip-path="url(#p56d02353ab)" d="M 51.425 128.345067 
L 421.2 128.345067 
" style="fill:none;stroke:#808080;stroke-linecap:square;stroke-width:0.05;"/>
     </g>
     <g id="line2d_86">
      <g>
       <use style="stroke:#000000;stroke-width:0.8;" x="51.425" xlink:href="#m0a4daa980c" y="128.345067"/>
      </g>
     </g>
     <g id="text_9">
      <!-- 200 -->
      <g transform="translate(27.742188 131.923973)scale(0.1 -0.1)">
       <use xlink:href="#ArialMT-50"/>
       <use x="55.615234" xlink:href="#ArialMT-48"/>
       <use x="111.230469" xlink:href="#ArialMT-48"/>
      </g>
     </g>
    </g>
    <g id="ytick_4">
     <g id="line2d_87">
      <path clip-path="url(#p56d02353ab)" d="M 51.425 74.915491 
L 421.2 74.915491 
" style="fill:none;stroke:#808080;stroke-linecap:square;stroke-width:0.05;"/>
     </g>
     <g id="line2d_88">
      <g>
       <use style="stroke:#000000;stroke-width:0.8;" x="51.425" xlink:href="#m0a4daa980c" y="74.915491"/>
      </g>
     </g>
     <g id="text_10">
      <!-- 300 -->
      <g transform="translate(27.742188 78.494397)scale(0.1 -0.1)">
       <use xlink:href="#ArialMT-51"/>
       <use x="55.615234" xlink:href="#ArialMT-48"/>
       <use x="111.230469" xlink:href="#ArialMT-48"/>
      </g>
     </g>
    </g>
    <g id="ytick_5">
     <g id="line2d_89">
      <path clip-path="url(#p56d02353ab)" d="M 51.425 21.485915 
L 421.2 21.485915 
" style="fill:none;stroke:#808080;stroke-linecap:square;stroke-width:0.05;"/>
     </g>
     <g id="line2d_90">
      <g>
       <use style="stroke:#000000;stroke-width:0.8;" x="51.425" xlink:href="#m0a4daa980c" y="21.485915"/>
      </g>
     </g>
     <g id="text_11">
      <!-- 400 -->
      <g transform="translate(27.742188 25.064821)scale(0.1 -0.1)">
       <use xlink:href="#ArialMT-52"/>
       <use x="55.615234" xlink:href="#ArialMT-48"/>
       <use x="111.230469" xlink:href="#ArialMT-48"/>
      </g>
     </g>
    </g>
    <g id="ytick_6">
     <g id="line2d_91">
      <path clip-path="url(#p56d02353ab)" d="M 51.425 229.861261 
L 421.2 229.861261 
" style="fill:none;stroke:#d3d3d3;stroke-linecap:square;stroke-width:0.05;"/>
     </g>
     <g id="line2d_92">
      <defs>
       <path d="M 0 0 
L -2 0 
" id="mf8b1669bb6" style="stroke:#000000;stroke-width:0.6;"/>
      </defs>
      <g>
       <use style="stroke:#000000;stroke-width:0.6;" x="51.425" xlink:href="#mf8b1669bb6" y="229.861261"/>
      </g>
     </g>
    </g>
    <g id="ytick_7">
     <g id="line2d_93">
      <path clip-path="url(#p56d02353ab)" d="M 51.425 224.518304 
L 421.2 224.518304 
" style="fill:none;stroke:#d3d3d3;stroke-linecap:square;stroke-width:0.05;"/>
     </g>
     <g id="line2d_94">
      <g>
       <use style="stroke:#000000;stroke-width:0.6;" x="51.425" xlink:href="#mf8b1669bb6" y="224.518304"/>
      </g>
     </g>
    </g>
    <g id="ytick_8">
     <g id="line2d_95">
      <path clip-path="url(#p56d02353ab)" d="M 51.425 219.175346 
L 421.2 219.175346 
" style="fill:none;stroke:#d3d3d3;stroke-linecap:square;stroke-width:0.05;"/>
     </g>
     <g id="line2d_96">
      <g>
       <use style="stroke:#000000;stroke-width:0.6;" x="51.425" xlink:href="#mf8b1669bb6" y="219.175346"/>
      </g>
     </g>
    </g>
    <g id="ytick_9">
     <g id="line2d_97">
      <path clip-path="url(#p56d02353ab)" d="M 51.425 213.832388 
L 421.2 213.832388 
" style="fill:none;stroke:#d3d3d3;stroke-linecap:square;stroke-width:0.05;"/>
     </g>
     <g id="line2d_98">
      <g>
       <use style="stroke:#000000;stroke-width:0.6;" x="51.425" xlink:href="#mf8b1669bb6" y="213.832388"/>
      </g>
     </g>
    </g>
    <g id="ytick_10">
     <g id="line2d_99">
      <path clip-path="url(#p56d02353ab)" d="M 51.425 208.489431 
L 421.2 208.489431 
" style="fill:none;stroke:#d3d3d3;stroke-linecap:square;stroke-width:0.05;"/>
     </g>
     <g id="line2d_100">
      <g>
       <use style="stroke:#000000;stroke-width:0.6;" x="51.425" xlink:href="#mf8b1669bb6" y="208.489431"/>
      </g>
     </g>
    </g>
    <g id="ytick_11">
     <g id="line2d_101">
      <path clip-path="url(#p56d02353ab)" d="M 51.425 203.146473 
L 421.2 203.146473 
" style="fill:none;stroke:#d3d3d3;stroke-linecap:square;stroke-width:0.05;"/>
     </g>
     <g id="line2d_102">
      <g>
       <use style="stroke:#000000;stroke-width:0.6;" x="51.425" xlink:href="#mf8b1669bb6" y="203.146473"/>
      </g>
     </g>
    </g>
    <g id="ytick_12">
     <g id="line2d_103">
      <path clip-path="url(#p56d02353ab)" d="M 51.425 197.803516 
L 421.2 197.803516 
" style="fill:none;stroke:#d3d3d3;stroke-linecap:square;stroke-width:0.05;"/>
     </g>
     <g id="line2d_104">
      <g>
       <use style="stroke:#000000;stroke-width:0.6;" x="51.425" xlink:href="#mf8b1669bb6" y="197.803516"/>
      </g>
     </g>
    </g>
    <g id="ytick_13">
     <g id="line2d_105">
      <path clip-path="url(#p56d02353ab)" d="M 51.425 192.460558 
L 421.2 192.460558 
" style="fill:none;stroke:#d3d3d3;stroke-linecap:square;stroke-width:0.05;"/>
     </g>
     <g id="line2d_106">
      <g>
       <use style="stroke:#000000;stroke-width:0.6;" x="51.425" xlink:href="#mf8b1669bb6" y="192.460558"/>
      </g>
     </g>
    </g>
    <g id="ytick_14">
     <g id="line2d_107">
      <path clip-path="url(#p56d02353ab)" d="M 51.425 187.1176 
L 421.2 187.1176 
" style="fill:none;stroke:#d3d3d3;stroke-linecap:square;stroke-width:0.05;"/>
     </g>
     <g id="line2d_108">
      <g>
       <use style="stroke:#000000;stroke-width:0.6;" x="51.425" xlink:href="#mf8b1669bb6" y="187.1176"/>
      </g>
     </g>
    </g>
    <g id="ytick_15">
     <g id="line2d_109">
      <path clip-path="url(#p56d02353ab)" d="M 51.425 176.431685 
L 421.2 176.431685 
" style="fill:none;stroke:#d3d3d3;stroke-linecap:square;stroke-width:0.05;"/>
     </g>
     <g id="line2d_110">
      <g>
       <use style="stroke:#000000;stroke-width:0.6;" x="51.425" xlink:href="#mf8b1669bb6" y="176.431685"/>
      </g>
     </g>
    </g>
    <g id="ytick_16">
     <g id="line2d_111">
      <path clip-path="url(#p56d02353ab)" d="M 51.425 171.088728 
L 421.2 171.088728 
" style="fill:none;stroke:#d3d3d3;stroke-linecap:square;stroke-width:0.05;"/>
     </g>
     <g id="line2d_112">
      <g>
       <use style="stroke:#000000;stroke-width:0.6;" x="51.425" xlink:href="#mf8b1669bb6" y="171.088728"/>
      </g>
     </g>
    </g>
    <g id="ytick_17">
     <g id="line2d_113">
      <path clip-path="url(#p56d02353ab)" d="M 51.425 165.74577 
L 421.2 165.74577 
" style="fill:none;stroke:#d3d3d3;stroke-linecap:square;stroke-width:0.05;"/>
     </g>
     <g id="line2d_114">
      <g>
       <use style="stroke:#000000;stroke-width:0.6;" x="51.425" xlink:href="#mf8b1669bb6" y="165.74577"/>
      </g>
     </g>
    </g>
    <g id="ytick_18">
     <g id="line2d_115">
      <path clip-path="url(#p56d02353ab)" d="M 51.425 160.402812 
L 421.2 160.402812 
" style="fill:none;stroke:#d3d3d3;stroke-linecap:square;stroke-width:0.05;"/>
     </g>
     <g id="line2d_116">
      <g>
       <use style="stroke:#000000;stroke-width:0.6;" x="51.425" xlink:href="#mf8b1669bb6" y="160.402812"/>
      </g>
     </g>
    </g>
    <g id="ytick_19">
     <g id="line2d_117">
      <path clip-path="url(#p56d02353ab)" d="M 51.425 155.059855 
L 421.2 155.059855 
" style="fill:none;stroke:#d3d3d3;stroke-linecap:square;stroke-width:0.05;"/>
     </g>
     <g id="line2d_118">
      <g>
       <use style="stroke:#000000;stroke-width:0.6;" x="51.425" xlink:href="#mf8b1669bb6" y="155.059855"/>
      </g>
     </g>
    </g>
    <g id="ytick_20">
     <g id="line2d_119">
      <path clip-path="url(#p56d02353ab)" d="M 51.425 149.716897 
L 421.2 149.716897 
" style="fill:none;stroke:#d3d3d3;stroke-linecap:square;stroke-width:0.05;"/>
     </g>
     <g id="line2d_120">
      <g>
       <use style="stroke:#000000;stroke-width:0.6;" x="51.425" xlink:href="#mf8b1669bb6" y="149.716897"/>
      </g>
     </g>
    </g>
    <g id="ytick_21">
     <g id="line2d_121">
      <path clip-path="url(#p56d02353ab)" d="M 51.425 144.37394 
L 421.2 144.37394 
" style="fill:none;stroke:#d3d3d3;stroke-linecap:square;stroke-width:0.05;"/>
     </g>
     <g id="line2d_122">
      <g>
       <use style="stroke:#000000;stroke-width:0.6;" x="51.425" xlink:href="#mf8b1669bb6" y="144.37394"/>
      </g>
     </g>
    </g>
    <g id="ytick_22">
     <g id="line2d_123">
      <path clip-path="url(#p56d02353ab)" d="M 51.425 139.030982 
L 421.2 139.030982 
" style="fill:none;stroke:#d3d3d3;stroke-linecap:square;stroke-width:0.05;"/>
     </g>
     <g id="line2d_124">
      <g>
       <use style="stroke:#000000;stroke-width:0.6;" x="51.425" xlink:href="#mf8b1669bb6" y="139.030982"/>
      </g>
     </g>
    </g>
    <g id="ytick_23">
     <g id="line2d_125">
      <path clip-path="url(#p56d02353ab)" d="M 51.425 133.688025 
L 421.2 133.688025 
" style="fill:none;stroke:#d3d3d3;stroke-linecap:square;stroke-width:0.05;"/>
     </g>
     <g id="line2d_126">
      <g>
       <use style="stroke:#000000;stroke-width:0.6;" x="51.425" xlink:href="#mf8b1669bb6" y="133.688025"/>
      </g>
     </g>
    </g>
    <g id="ytick_24">
     <g id="line2d_127">
      <path clip-path="url(#p56d02353ab)" d="M 51.425 123.002109 
L 421.2 123.002109 
" style="fill:none;stroke:#d3d3d3;stroke-linecap:square;stroke-width:0.05;"/>
     </g>
     <g id="line2d_128">
      <g>
       <use style="stroke:#000000;stroke-width:0.6;" x="51.425" xlink:href="#mf8b1669bb6" y="123.002109"/>
      </g>
     </g>
    </g>
    <g id="ytick_25">
     <g id="line2d_129">
      <path clip-path="url(#p56d02353ab)" d="M 51.425 117.659152 
L 421.2 117.659152 
" style="fill:none;stroke:#d3d3d3;stroke-linecap:square;stroke-width:0.05;"/>
     </g>
     <g id="line2d_130">
      <g>
       <use style="stroke:#000000;stroke-width:0.6;" x="51.425" xlink:href="#mf8b1669bb6" y="117.659152"/>
      </g>
     </g>
    </g>
    <g id="ytick_26">
     <g id="line2d_131">
      <path clip-path="url(#p56d02353ab)" d="M 51.425 112.316194 
L 421.2 112.316194 
" style="fill:none;stroke:#d3d3d3;stroke-linecap:square;stroke-width:0.05;"/>
     </g>
     <g id="line2d_132">
      <g>
       <use style="stroke:#000000;stroke-width:0.6;" x="51.425" xlink:href="#mf8b1669bb6" y="112.316194"/>
      </g>
     </g>
    </g>
    <g id="ytick_27">
     <g id="line2d_133">
      <path clip-path="url(#p56d02353ab)" d="M 51.425 106.973237 
L 421.2 106.973237 
" style="fill:none;stroke:#d3d3d3;stroke-linecap:square;stroke-width:0.05;"/>
     </g>
     <g id="line2d_134">
      <g>
       <use style="stroke:#000000;stroke-width:0.6;" x="51.425" xlink:href="#mf8b1669bb6" y="106.973237"/>
      </g>
     </g>
    </g>
    <g id="ytick_28">
     <g id="line2d_135">
      <path clip-path="url(#p56d02353ab)" d="M 51.425 101.630279 
L 421.2 101.630279 
" style="fill:none;stroke:#d3d3d3;stroke-linecap:square;stroke-width:0.05;"/>
     </g>
     <g id="line2d_136">
      <g>
       <use style="stroke:#000000;stroke-width:0.6;" x="51.425" xlink:href="#mf8b1669bb6" y="101.630279"/>
      </g>
     </g>
    </g>
    <g id="ytick_29">
     <g id="line2d_137">
      <path clip-path="url(#p56d02353ab)" d="M 51.425 96.287321 
L 421.2 96.287321 
" style="fill:none;stroke:#d3d3d3;stroke-linecap:square;stroke-width:0.05;"/>
     </g>
     <g id="line2d_138">
      <g>
       <use style="stroke:#000000;stroke-width:0.6;" x="51.425" xlink:href="#mf8b1669bb6" y="96.287321"/>
      </g>
     </g>
    </g>
    <g id="ytick_30">
     <g id="line2d_139">
      <path clip-path="url(#p56d02353ab)" d="M 51.425 90.944364 
L 421.2 90.944364 
" style="fill:none;stroke:#d3d3d3;stroke-linecap:square;stroke-width:0.05;"/>
     </g>
     <g id="line2d_140">
      <g>
       <use style="stroke:#000000;stroke-width:0.6;" x="51.425" xlink:href="#mf8b1669bb6" y="90.944364"/>
      </g>
     </g>
    </g>
    <g id="ytick_31">
     <g id="line2d_141">
      <path clip-path="url(#p56d02353ab)" d="M 51.425 85.601406 
L 421.2 85.601406 
" style="fill:none;stroke:#d3d3d3;stroke-linecap:square;stroke-width:0.05;"/>
     </g>
     <g id="line2d_142">
      <g>
       <use style="stroke:#000000;stroke-width:0.6;" x="51.425" xlink:href="#mf8b1669bb6" y="85.601406"/>
      </g>
     </g>
    </g>
    <g id="ytick_32">
     <g id="line2d_143">
      <path clip-path="url(#p56d02353ab)" d="M 51.425 80.258449 
L 421.2 80.258449 
" style="fill:none;stroke:#d3d3d3;stroke-linecap:square;stroke-width:0.05;"/>
     </g>
     <g id="line2d_144">
      <g>
       <use style="stroke:#000000;stroke-width:0.6;" x="51.425" xlink:href="#mf8b1669bb6" y="80.258449"/>
      </g>
     </g>
    </g>
    <g id="ytick_33">
     <g id="line2d_145">
      <path clip-path="url(#p56d02353ab)" d="M 51.425 69.572533 
L 421.2 69.572533 
" style="fill:none;stroke:#d3d3d3;stroke-linecap:square;stroke-width:0.05;"/>
     </g>
     <g id="line2d_146">
      <g>
       <use style="stroke:#000000;stroke-width:0.6;" x="51.425" xlink:href="#mf8b1669bb6" y="69.572533"/>
      </g>
     </g>
    </g>
    <g id="ytick_34">
     <g id="line2d_147">
      <path clip-path="url(#p56d02353ab)" d="M 51.425 64.229576 
L 421.2 64.229576 
" style="fill:none;stroke:#d3d3d3;stroke-linecap:square;stroke-width:0.05;"/>
     </g>
     <g id="line2d_148">
      <g>
       <use style="stroke:#000000;stroke-width:0.6;" x="51.425" xlink:href="#mf8b1669bb6" y="64.229576"/>
      </g>
     </g>
    </g>
    <g id="ytick_35">
     <g id="line2d_149">
      <path clip-path="url(#p56d02353ab)" d="M 51.425 58.886618 
L 421.2 58.886618 
" style="fill:none;stroke:#d3d3d3;stroke-linecap:square;stroke-width:0.05;"/>
     </g>
     <g id="line2d_150">
      <g>
       <use style="stroke:#000000;stroke-width:0.6;" x="51.425" xlink:href="#mf8b1669bb6" y="58.886618"/>
      </g>
     </g>
    </g>
    <g id="ytick_36">
     <g id="line2d_151">
      <path clip-path="url(#p56d02353ab)" d="M 51.425 53.543661 
L 421.2 53.543661 
" style="fill:none;stroke:#d3d3d3;stroke-linecap:square;stroke-width:0.05;"/>
     </g>
     <g id="line2d_152">
      <g>
       <use style="stroke:#000000;stroke-width:0.6;" x="51.425" xlink:href="#mf8b1669bb6" y="53.543661"/>
      </g>
     </g>
    </g>
    <g id="ytick_37">
     <g id="line2d_153">
      <path clip-path="url(#p56d02353ab)" d="M 51.425 48.200703 
L 421.2 48.200703 
" style="fill:none;stroke:#d3d3d3;stroke-linecap:square;stroke-width:0.05;"/>
     </g>
     <g id="line2d_154">
      <g>
       <use style="stroke:#000000;stroke-width:0.6;" x="51.425" xlink:href="#mf8b1669bb6" y="48.200703"/>
      </g>
     </g>
    </g>
    <g id="ytick_38">
     <g id="line2d_155">
      <path clip-path="url(#p56d02353ab)" d="M 51.425 42.857746 
L 421.2 42.857746 
" style="fill:none;stroke:#d3d3d3;stroke-linecap:square;stroke-width:0.05;"/>
     </g>
     <g id="line2d_156">
      <g>
       <use style="stroke:#000000;stroke-width:0.6;" x="51.425" xlink:href="#mf8b1669bb6" y="42.857746"/>
      </g>
     </g>
    </g>
    <g id="ytick_39">
     <g id="line2d_157">
      <path clip-path="url(#p56d02353ab)" d="M 51.425 37.514788 
L 421.2 37.514788 
" style="fill:none;stroke:#d3d3d3;stroke-linecap:square;stroke-width:0.05;"/>
     </g>
     <g id="line2d_158">
      <g>
       <use style="stroke:#000000;stroke-width:0.6;" x="51.425" xlink:href="#mf8b1669bb6" y="37.514788"/>
      </g>
     </g>
    </g>
    <g id="ytick_40">
     <g id="line2d_159">
      <path clip-path="url(#p56d02353ab)" d="M 51.425 32.17183 
L 421.2 32.17183 
" style="fill:none;stroke:#d3d3d3;stroke-linecap:square;stroke-width:0.05;"/>
     </g>
     <g id="line2d_160">
      <g>
       <use style="stroke:#000000;stroke-width:0.6;" x="51.425" xlink:href="#mf8b1669bb6" y="32.17183"/>
      </g>
     </g>
    </g>
    <g id="ytick_41">
     <g id="line2d_161">
      <path clip-path="url(#p56d02353ab)" d="M 51.425 26.828873 
L 421.2 26.828873 
" style="fill:none;stroke:#d3d3d3;stroke-linecap:square;stroke-width:0.05;"/>
     </g>
     <g id="line2d_162">
      <g>
       <use style="stroke:#000000;stroke-width:0.6;" x="51.425" xlink:href="#mf8b1669bb6" y="26.828873"/>
      </g>
     </g>
    </g>
    <g id="ytick_42">
     <g id="line2d_163">
      <path clip-path="url(#p56d02353ab)" d="M 51.425 16.142958 
L 421.2 16.142958 
" style="fill:none;stroke:#d3d3d3;stroke-linecap:square;stroke-width:0.05;"/>
     </g>
     <g id="line2d_164">
      <g>
       <use style="stroke:#000000;stroke-width:0.6;" x="51.425" xlink:href="#mf8b1669bb6" y="16.142958"/>
      </g>
     </g>
    </g>
    <g id="ytick_43">
     <g id="line2d_165">
      <path clip-path="url(#p56d02353ab)" d="M 51.425 10.8 
L 421.2 10.8 
" style="fill:none;stroke:#d3d3d3;stroke-linecap:square;stroke-width:0.05;"/>
     </g>
     <g id="line2d_166">
      <g>
       <use style="stroke:#000000;stroke-width:0.6;" x="51.425" xlink:href="#mf8b1669bb6" y="10.8"/>
      </g>
     </g>
    </g>
    <g id="text_12">
     <!-- Maximum vent temperature ($^{\circ}$C) -->
     <g transform="translate(21.542188 194.502109)rotate(-90)scale(0.1 -0.1)">
      <defs>
       <path d="M 7.421875 0 
L 7.421875 71.578125 
L 21.6875 71.578125 
L 38.625 20.90625 
Q 40.96875 13.8125 42.046875 10.296875 
Q 43.265625 14.203125 45.84375 21.78125 
L 62.984375 71.578125 
L 75.734375 71.578125 
L 75.734375 0 
L 66.609375 0 
L 66.609375 59.90625 
L 45.796875 0 
L 37.25 0 
L 16.546875 60.9375 
L 16.546875 0 
z
" id="ArialMT-77"/>
       <path d="M 0.734375 0 
L 19.671875 26.953125 
L 2.15625 51.859375 
L 13.140625 51.859375 
L 21.09375 39.703125 
Q 23.34375 36.234375 24.703125 33.890625 
Q 26.859375 37.109375 28.65625 39.59375 
L 37.40625 51.859375 
L 47.90625 51.859375 
L 29.984375 27.4375 
L 49.265625 0 
L 38.484375 0 
L 27.828125 16.109375 
L 25 20.453125 
L 11.375 0 
z
" id="ArialMT-120"/>
       <path d="M 40.578125 0 
L 40.578125 7.625 
Q 34.515625 -1.171875 24.125 -1.171875 
Q 19.53125 -1.171875 15.546875 0.578125 
Q 11.578125 2.34375 9.640625 5 
Q 7.71875 7.671875 6.9375 11.53125 
Q 6.390625 14.109375 6.390625 19.734375 
L 6.390625 51.859375 
L 15.1875 51.859375 
L 15.1875 23.09375 
Q 15.1875 16.21875 15.71875 13.8125 
Q 16.546875 10.359375 19.234375 8.375 
Q 21.921875 6.390625 25.875 6.390625 
Q 29.828125 6.390625 33.296875 8.421875 
Q 36.765625 10.453125 38.203125 13.9375 
Q 39.65625 17.4375 39.65625 24.078125 
L 39.65625 51.859375 
L 48.4375 51.859375 
L 48.4375 0 
z
" id="ArialMT-117"/>
       <path d="M 21 0 
L 1.265625 51.859375 
L 10.546875 51.859375 
L 21.6875 20.796875 
Q 23.484375 15.765625 25 10.359375 
Q 26.171875 14.453125 28.265625 20.21875 
L 39.796875 51.859375 
L 48.828125 51.859375 
L 29.203125 0 
z
" id="ArialMT-118"/>
       <path d="M 6.59375 0 
L 6.59375 51.859375 
L 14.5 51.859375 
L 14.5 44.484375 
Q 20.21875 53.03125 31 53.03125 
Q 35.6875 53.03125 39.625 51.34375 
Q 43.5625 49.65625 45.515625 46.921875 
Q 47.46875 44.1875 48.25 40.4375 
Q 48.734375 37.984375 48.734375 31.890625 
L 48.734375 0 
L 39.9375 0 
L 39.9375 31.546875 
Q 39.9375 36.921875 38.90625 39.578125 
Q 37.890625 42.234375 35.28125 43.8125 
Q 32.671875 45.40625 29.15625 45.40625 
Q 23.53125 45.40625 19.453125 41.84375 
Q 15.375 38.28125 15.375 28.328125 
L 15.375 0 
z
" id="ArialMT-110"/>
       <path d="M 6.59375 -19.875 
L 6.59375 51.859375 
L 14.59375 51.859375 
L 14.59375 45.125 
Q 17.4375 49.078125 21 51.046875 
Q 24.5625 53.03125 29.640625 53.03125 
Q 36.28125 53.03125 41.359375 49.609375 
Q 46.4375 46.1875 49.015625 39.953125 
Q 51.609375 33.734375 51.609375 26.3125 
Q 51.609375 18.359375 48.75 11.984375 
Q 45.90625 5.609375 40.453125 2.21875 
Q 35.015625 -1.171875 29 -1.171875 
Q 24.609375 -1.171875 21.109375 0.6875 
Q 17.625 2.546875 15.375 5.375 
L 15.375 -19.875 
z
M 14.546875 25.640625 
Q 14.546875 15.625 18.59375 10.84375 
Q 22.65625 6.0625 28.421875 6.0625 
Q 34.28125 6.0625 38.453125 11.015625 
Q 42.625 15.96875 42.625 26.375 
Q 42.625 36.28125 38.546875 41.203125 
Q 34.46875 46.140625 28.8125 46.140625 
Q 23.1875 46.140625 18.859375 40.890625 
Q 14.546875 35.640625 14.546875 25.640625 
z
" id="ArialMT-112"/>
       <path d="M 25 5.609375 
Q 19.828125 5.609375 15.359375 8.21875 
Q 10.890625 10.84375 8.25 15.375 
Q 5.609375 19.921875 5.609375 25 
Q 5.609375 30.078125 8.25 34.609375 
Q 10.890625 39.15625 15.359375 41.765625 
Q 19.828125 44.390625 25 44.390625 
Q 30.171875 44.390625 34.609375 41.75 
Q 39.0625 39.109375 41.671875 34.59375 
Q 44.28125 30.078125 44.28125 25 
Q 44.28125 19.921875 41.671875 15.40625 
Q 39.0625 10.890625 34.609375 8.25 
Q 30.171875 5.609375 25 5.609375 
z
M 25 9.625 
Q 31.25 9.625 35.765625 14.1875 
Q 40.28125 18.75 40.28125 25 
Q 40.28125 29 38.203125 32.59375 
Q 36.140625 36.1875 32.625 38.28125 
Q 29.109375 40.375 25 40.375 
Q 21.921875 40.375 19.140625 39.171875 
Q 16.359375 37.984375 14.15625 35.78125 
Q 11.96875 33.59375 10.796875 30.828125 
Q 9.625 28.078125 9.625 25 
Q 9.625 18.75 14.140625 14.1875 
Q 18.65625 9.625 25 9.625 
z
" id="Cmsy10-177"/>
       <path d="M 58.796875 25.09375 
L 68.265625 22.703125 
Q 65.28125 11.03125 57.546875 4.90625 
Q 49.8125 -1.21875 38.625 -1.21875 
Q 27.046875 -1.21875 19.796875 3.484375 
Q 12.546875 8.203125 8.765625 17.140625 
Q 4.984375 26.078125 4.984375 36.328125 
Q 4.984375 47.515625 9.25 55.828125 
Q 13.53125 64.15625 21.40625 68.46875 
Q 29.296875 72.796875 38.765625 72.796875 
Q 49.515625 72.796875 56.828125 67.328125 
Q 64.15625 61.859375 67.046875 51.953125 
L 57.71875 49.75 
Q 55.21875 57.5625 50.484375 61.125 
Q 45.75 64.703125 38.578125 64.703125 
Q 30.328125 64.703125 24.78125 60.734375 
Q 19.234375 56.78125 16.984375 50.109375 
Q 14.75 43.453125 14.75 36.375 
Q 14.75 27.25 17.40625 20.4375 
Q 20.0625 13.625 25.671875 10.25 
Q 31.296875 6.890625 37.84375 6.890625 
Q 45.796875 6.890625 51.3125 11.46875 
Q 56.84375 16.0625 58.796875 25.09375 
z
" id="ArialMT-67"/>
      </defs>
      <use transform="translate(0 0.203125)" xlink:href="#ArialMT-77"/>
      <use transform="translate(83.300781 0.203125)" xlink:href="#ArialMT-97"/>
      <use transform="translate(138.916016 0.203125)" xlink:href="#ArialMT-120"/>
      <use transform="translate(188.916016 0.203125)" xlink:href="#ArialMT-105"/>
      <use transform="translate(211.132812 0.203125)" xlink:href="#ArialMT-109"/>
      <use transform="translate(294.433594 0.203125)" xlink:href="#ArialMT-117"/>
      <use transform="translate(350.048828 0.203125)" xlink:href="#ArialMT-109"/>
      <use transform="translate(433.349609 0.203125)" xlink:href="#ArialMT-32"/>
      <use transform="translate(461.132812 0.203125)" xlink:href="#ArialMT-118"/>
      <use transform="translate(511.132812 0.203125)" xlink:href="#ArialMT-101"/>
      <use transform="translate(566.748047 0.203125)" xlink:href="#ArialMT-110"/>
      <use transform="translate(622.363281 0.203125)" xlink:href="#ArialMT-116"/>
      <use transform="translate(650.146484 0.203125)" xlink:href="#ArialMT-32"/>
      <use transform="translate(677.929688 0.203125)" xlink:href="#ArialMT-116"/>
      <use transform="translate(705.712891 0.203125)" xlink:href="#ArialMT-101"/>
      <use transform="translate(761.328125 0.203125)" xlink:href="#ArialMT-109"/>
      <use transform="translate(844.628906 0.203125)" xlink:href="#ArialMT-112"/>
      <use transform="translate(900.244141 0.203125)" xlink:href="#ArialMT-101"/>
      <use transform="translate(955.859375 0.203125)" xlink:href="#ArialMT-114"/>
      <use transform="translate(989.160156 0.203125)" xlink:href="#ArialMT-97"/>
      <use transform="translate(1044.775391 0.203125)" xlink:href="#ArialMT-116"/>
      <use transform="translate(1072.558594 0.203125)" xlink:href="#ArialMT-117"/>
      <use transform="translate(1128.173828 0.203125)" xlink:href="#ArialMT-114"/>
      <use transform="translate(1161.474609 0.203125)" xlink:href="#ArialMT-101"/>
      <use transform="translate(1217.089844 0.203125)" xlink:href="#ArialMT-32"/>
      <use transform="translate(1244.873047 0.203125)" xlink:href="#ArialMT-40"/>
      <use transform="translate(1282.637969 38.467188)scale(0.7)" xlink:href="#Cmsy10-177"/>
      <use transform="translate(1324.015312 0.203125)" xlink:href="#ArialMT-67"/>
      <use transform="translate(1396.232109 0.203125)" xlink:href="#ArialMT-41"/>
     </g>
    </g>
   </g>
   <g id="line2d_167">
    <defs>
     <path d="M 0 3 
C 0.795609 3 1.55874 2.683901 2.12132 2.12132 
C 2.683901 1.55874 3 0.795609 3 0 
C 3 -0.795609 2.683901 -1.55874 2.12132 -2.12132 
C 1.55874 -2.683901 0.795609 -3 0 -3 
C -0.795609 -3 -1.55874 -2.683901 -2.12132 -2.12132 
C -2.683901 -1.55874 -3 -0.795609 -3 0 
C -3 0.795609 -2.683901 1.55874 -2.12132 2.12132 
C -1.55874 2.683901 -0.795609 3 0 3 
z
" id="mb6e9df6813" style="stroke:#1f77b4;"/>
    </defs>
    <g clip-path="url(#p56d02353ab)">
     <use style="fill:#1f77b4;stroke:#1f77b4;" x="68.232955" xlink:href="#mb6e9df6813" y="209.844725"/>
     <use style="fill:#1f77b4;stroke:#1f77b4;" x="108.330116" xlink:href="#mb6e9df6813" y="106.690594"/>
     <use style="fill:#1f77b4;stroke:#1f77b4;" x="126.974235" xlink:href="#mb6e9df6813" y="42.545183"/>
     <use style="fill:#1f77b4;stroke:#1f77b4;" x="144.128432" xlink:href="#mb6e9df6813" y="33.050747"/>
     <use style="fill:#1f77b4;stroke:#1f77b4;" x="152.272727" xlink:href="#mb6e9df6813" y="31.902545"/>
     <use style="fill:#1f77b4;stroke:#1f77b4;" x="177.57122" xlink:href="#mb6e9df6813" y="36.121345"/>
     <use style="fill:#1f77b4;stroke:#1f77b4;" x="192.369889" xlink:href="#mb6e9df6813" y="41.617111"/>
     <use style="fill:#1f77b4;stroke:#1f77b4;" x="202.869712" xlink:href="#mb6e9df6813" y="44.61451"/>
     <use style="fill:#1f77b4;stroke:#1f77b4;" x="217.668382" xlink:href="#mb6e9df6813" y="50.788832"/>
     <use style="fill:#1f77b4;stroke:#1f77b4;" x="228.168205" xlink:href="#mb6e9df6813" y="57.628352"/>
     <use style="fill:#1f77b4;stroke:#1f77b4;" x="236.3125" xlink:href="#mb6e9df6813" y="63.916479"/>
     <use style="fill:#1f77b4;stroke:#1f77b4;" x="276.409662" xlink:href="#mb6e9df6813" y="52.798318"/>
     <use style="fill:#1f77b4;stroke:#1f77b4;" x="301.708154" xlink:href="#mb6e9df6813" y="90.51479"/>
     <use style="fill:#1f77b4;stroke:#1f77b4;" x="312.207977" xlink:href="#mb6e9df6813" y="81.625712"/>
     <use style="fill:#1f77b4;stroke:#1f77b4;" x="320.352273" xlink:href="#mb6e9df6813" y="62.119642"/>
     <use style="fill:#1f77b4;stroke:#1f77b4;" x="345.650765" xlink:href="#mb6e9df6813" y="87.128424"/>
     <use style="fill:#1f77b4;stroke:#1f77b4;" x="360.449435" xlink:href="#mb6e9df6813" y="138.480658"/>
     <use style="fill:#1f77b4;stroke:#1f77b4;" x="370.949258" xlink:href="#mb6e9df6813" y="109.246131"/>
     <use style="fill:#1f77b4;stroke:#1f77b4;" x="404.392045" xlink:href="#mb6e9df6813" y="139.471776"/>
    </g>
   </g>
   <g id="patch_3">
    <path d="M 51.425 235.204219 
L 51.425 10.8 
" style="fill:none;stroke:#000000;stroke-linecap:square;stroke-linejoin:miter;stroke-width:0.8;"/>
   </g>
   <g id="patch_4">
    <path d="M 421.2 235.204219 
L 421.2 10.8 
" style="fill:none;stroke:#000000;stroke-linecap:square;stroke-linejoin:miter;stroke-width:0.8;"/>
   </g>
   <g id="patch_5">
    <path d="M 51.425 235.204219 
L 421.2 235.204219 
" style="fill:none;stroke:#000000;stroke-linecap:square;stroke-linejoin:miter;stroke-width:0.8;"/>
   </g>
   <g id="patch_6">
    <path d="M 51.425 10.8 
L 421.2 10.8 
" style="fill:none;stroke:#000000;stroke-linecap:square;stroke-linejoin:miter;stroke-width:0.8;"/>
   </g>
  </g>
 </g>
 <defs>
  <clipPath id="p56d02353ab">
   <rect height="224.404219" width="369.775" x="51.425" y="10.8"/>
  </clipPath>
 </defs>
</svg>
