<?xml version="1.0" encoding="utf-8" standalone="no"?>
<!DOCTYPE svg PUBLIC "-//W3C//DTD SVG 1.1//EN"
  "http://www.w3.org/Graphics/SVG/1.1/DTD/svg11.dtd">
<!-- Created with matplotlib (https://matplotlib.org/) -->
<svg height="356.4pt" version="1.1" viewBox="0 0 612 356.4" width="612pt" xmlns="http://www.w3.org/2000/svg" xmlns:xlink="http://www.w3.org/1999/xlink">
 <metadata>
  <rdf:RDF xmlns:cc="http://creativecommons.org/ns#" xmlns:dc="http://purl.org/dc/elements/1.1/" xmlns:rdf="http://www.w3.org/1999/02/22-rdf-syntax-ns#">
   <cc:Work>
    <dc:type rdf:resource="http://purl.org/dc/dcmitype/StillImage"/>
    <dc:date>2020-12-02T15:34:54.486139</dc:date>
    <dc:format>image/svg+xml</dc:format>
    <dc:creator>
     <cc:Agent>
      <dc:title>Matplotlib v3.3.2, https://matplotlib.org/</dc:title>
     </cc:Agent>
    </dc:creator>
   </cc:Work>
  </rdf:RDF>
 </metadata>
 <defs>
  <style type="text/css">*{stroke-linecap:butt;stroke-linejoin:round;}</style>
 </defs>
 <g id="figure_1">
  <g id="patch_1">
   <path d="M 0 356.4 
L 612 356.4 
L 612 0 
L 0 0 
z
" style="fill:none;"/>
  </g>
  <g id="axes_1">
   <g id="patch_2">
    <path d="M 51.425 316.6 
L 508.733527 316.6 
L 508.733527 30.262766 
L 51.425 30.262766 
z
" style="fill:#ffffff;"/>
   </g>
   <g id="matplotlib.axis_1">
    <g id="xtick_1">
     <g id="line2d_1">
      <defs>
       <path d="M 0 0 
L 0 3.5 
" id="m99a5fef267" style="stroke:#000000;stroke-width:0.8;"/>
      </defs>
      <g>
       <use style="stroke:#000000;stroke-width:0.8;" x="51.425" xlink:href="#m99a5fef267" y="316.6"/>
      </g>
     </g>
     <g id="text_1">
      <!-- 0 -->
      <g transform="translate(48.644531 330.757813)scale(0.1 -0.1)">
       <defs>
        <path d="M 4.15625 35.296875 
Q 4.15625 48 6.765625 55.734375 
Q 9.375 63.484375 14.515625 67.671875 
Q 19.671875 71.875 27.484375 71.875 
Q 33.25 71.875 37.59375 69.546875 
Q 41.9375 67.234375 44.765625 62.859375 
Q 47.609375 58.5 49.21875 52.21875 
Q 50.828125 45.953125 50.828125 35.296875 
Q 50.828125 22.703125 48.234375 14.96875 
Q 45.65625 7.234375 40.5 3 
Q 35.359375 -1.21875 27.484375 -1.21875 
Q 17.140625 -1.21875 11.234375 6.203125 
Q 4.15625 15.140625 4.15625 35.296875 
z
M 13.1875 35.296875 
Q 13.1875 17.671875 17.3125 11.828125 
Q 21.4375 6 27.484375 6 
Q 33.546875 6 37.671875 11.859375 
Q 41.796875 17.71875 41.796875 35.296875 
Q 41.796875 52.984375 37.671875 58.78125 
Q 33.546875 64.59375 27.390625 64.59375 
Q 21.34375 64.59375 17.71875 59.46875 
Q 13.1875 52.9375 13.1875 35.296875 
z
" id="ArialMT-48"/>
       </defs>
       <use xlink:href="#ArialMT-48"/>
      </g>
     </g>
    </g>
    <g id="xtick_2">
     <g id="line2d_2">
      <g>
       <use style="stroke:#000000;stroke-width:0.8;" x="142.886705" xlink:href="#m99a5fef267" y="316.6"/>
      </g>
     </g>
     <g id="text_2">
      <!-- 1000 -->
      <g transform="translate(131.76483 330.757813)scale(0.1 -0.1)">
       <defs>
        <path d="M 37.25 0 
L 28.46875 0 
L 28.46875 56 
Q 25.296875 52.984375 20.140625 49.953125 
Q 14.984375 46.921875 10.890625 45.40625 
L 10.890625 53.90625 
Q 18.265625 57.375 23.78125 62.296875 
Q 29.296875 67.234375 31.59375 71.875 
L 37.25 71.875 
z
" id="ArialMT-49"/>
       </defs>
       <use xlink:href="#ArialMT-49"/>
       <use x="55.615234" xlink:href="#ArialMT-48"/>
       <use x="111.230469" xlink:href="#ArialMT-48"/>
       <use x="166.845703" xlink:href="#ArialMT-48"/>
      </g>
     </g>
    </g>
    <g id="xtick_3">
     <g id="line2d_3">
      <g>
       <use style="stroke:#000000;stroke-width:0.8;" x="234.348411" xlink:href="#m99a5fef267" y="316.6"/>
      </g>
     </g>
     <g id="text_3">
      <!-- 2000 -->
      <g transform="translate(223.226536 330.757813)scale(0.1 -0.1)">
       <defs>
        <path d="M 50.34375 8.453125 
L 50.34375 0 
L 3.03125 0 
Q 2.9375 3.171875 4.046875 6.109375 
Q 5.859375 10.9375 9.828125 15.625 
Q 13.8125 20.3125 21.34375 26.46875 
Q 33.015625 36.03125 37.109375 41.625 
Q 41.21875 47.21875 41.21875 52.203125 
Q 41.21875 57.421875 37.46875 61 
Q 33.734375 64.59375 27.734375 64.59375 
Q 21.390625 64.59375 17.578125 60.78125 
Q 13.765625 56.984375 13.71875 50.25 
L 4.6875 51.171875 
Q 5.609375 61.28125 11.65625 66.578125 
Q 17.71875 71.875 27.9375 71.875 
Q 38.234375 71.875 44.234375 66.15625 
Q 50.25 60.453125 50.25 52 
Q 50.25 47.703125 48.484375 43.546875 
Q 46.734375 39.40625 42.65625 34.8125 
Q 38.578125 30.21875 29.109375 22.21875 
Q 21.1875 15.578125 18.9375 13.203125 
Q 16.703125 10.84375 15.234375 8.453125 
z
" id="ArialMT-50"/>
       </defs>
       <use xlink:href="#ArialMT-50"/>
       <use x="55.615234" xlink:href="#ArialMT-48"/>
       <use x="111.230469" xlink:href="#ArialMT-48"/>
       <use x="166.845703" xlink:href="#ArialMT-48"/>
      </g>
     </g>
    </g>
    <g id="xtick_4">
     <g id="line2d_4">
      <g>
       <use style="stroke:#000000;stroke-width:0.8;" x="325.810116" xlink:href="#m99a5fef267" y="316.6"/>
      </g>
     </g>
     <g id="text_4">
      <!-- 3000 -->
      <g transform="translate(314.688241 330.757813)scale(0.1 -0.1)">
       <defs>
        <path d="M 4.203125 18.890625 
L 12.984375 20.0625 
Q 14.5 12.59375 18.140625 9.296875 
Q 21.78125 6 27 6 
Q 33.203125 6 37.46875 10.296875 
Q 41.75 14.59375 41.75 20.953125 
Q 41.75 27 37.796875 30.921875 
Q 33.84375 34.859375 27.734375 34.859375 
Q 25.25 34.859375 21.53125 33.890625 
L 22.515625 41.609375 
Q 23.390625 41.5 23.921875 41.5 
Q 29.546875 41.5 34.03125 44.421875 
Q 38.53125 47.359375 38.53125 53.46875 
Q 38.53125 58.296875 35.25 61.46875 
Q 31.984375 64.65625 26.8125 64.65625 
Q 21.6875 64.65625 18.265625 61.421875 
Q 14.84375 58.203125 13.875 51.765625 
L 5.078125 53.328125 
Q 6.6875 62.15625 12.390625 67.015625 
Q 18.109375 71.875 26.609375 71.875 
Q 32.46875 71.875 37.390625 69.359375 
Q 42.328125 66.84375 44.9375 62.5 
Q 47.5625 58.15625 47.5625 53.265625 
Q 47.5625 48.640625 45.0625 44.828125 
Q 42.578125 41.015625 37.703125 38.765625 
Q 44.046875 37.3125 47.5625 32.6875 
Q 51.078125 28.078125 51.078125 21.140625 
Q 51.078125 11.765625 44.234375 5.25 
Q 37.40625 -1.265625 26.953125 -1.265625 
Q 17.53125 -1.265625 11.296875 4.34375 
Q 5.078125 9.96875 4.203125 18.890625 
z
" id="ArialMT-51"/>
       </defs>
       <use xlink:href="#ArialMT-51"/>
       <use x="55.615234" xlink:href="#ArialMT-48"/>
       <use x="111.230469" xlink:href="#ArialMT-48"/>
       <use x="166.845703" xlink:href="#ArialMT-48"/>
      </g>
     </g>
    </g>
    <g id="xtick_5">
     <g id="line2d_5">
      <g>
       <use style="stroke:#000000;stroke-width:0.8;" x="417.271822" xlink:href="#m99a5fef267" y="316.6"/>
      </g>
     </g>
     <g id="text_5">
      <!-- 4000 -->
      <g transform="translate(406.149947 330.757813)scale(0.1 -0.1)">
       <defs>
        <path d="M 32.328125 0 
L 32.328125 17.140625 
L 1.265625 17.140625 
L 1.265625 25.203125 
L 33.9375 71.578125 
L 41.109375 71.578125 
L 41.109375 25.203125 
L 50.78125 25.203125 
L 50.78125 17.140625 
L 41.109375 17.140625 
L 41.109375 0 
z
M 32.328125 25.203125 
L 32.328125 57.46875 
L 9.90625 25.203125 
z
" id="ArialMT-52"/>
       </defs>
       <use xlink:href="#ArialMT-52"/>
       <use x="55.615234" xlink:href="#ArialMT-48"/>
       <use x="111.230469" xlink:href="#ArialMT-48"/>
       <use x="166.845703" xlink:href="#ArialMT-48"/>
      </g>
     </g>
    </g>
    <g id="xtick_6">
     <g id="line2d_6">
      <g>
       <use style="stroke:#000000;stroke-width:0.8;" x="508.733527" xlink:href="#m99a5fef267" y="316.6"/>
      </g>
     </g>
     <g id="text_6">
      <!-- 5000 -->
      <g transform="translate(497.611652 330.757813)scale(0.1 -0.1)">
       <defs>
        <path d="M 4.15625 18.75 
L 13.375 19.53125 
Q 14.40625 12.796875 18.140625 9.390625 
Q 21.875 6 27.15625 6 
Q 33.5 6 37.890625 10.78125 
Q 42.28125 15.578125 42.28125 23.484375 
Q 42.28125 31 38.0625 35.34375 
Q 33.84375 39.703125 27 39.703125 
Q 22.75 39.703125 19.328125 37.765625 
Q 15.921875 35.84375 13.96875 32.765625 
L 5.71875 33.84375 
L 12.640625 70.609375 
L 48.25 70.609375 
L 48.25 62.203125 
L 19.671875 62.203125 
L 15.828125 42.96875 
Q 22.265625 47.46875 29.34375 47.46875 
Q 38.71875 47.46875 45.15625 40.96875 
Q 51.609375 34.46875 51.609375 24.265625 
Q 51.609375 14.546875 45.953125 7.46875 
Q 39.0625 -1.21875 27.15625 -1.21875 
Q 17.390625 -1.21875 11.203125 4.25 
Q 5.03125 9.71875 4.15625 18.75 
z
" id="ArialMT-53"/>
       </defs>
       <use xlink:href="#ArialMT-53"/>
       <use x="55.615234" xlink:href="#ArialMT-48"/>
       <use x="111.230469" xlink:href="#ArialMT-48"/>
       <use x="166.845703" xlink:href="#ArialMT-48"/>
      </g>
     </g>
    </g>
    <g id="text_7">
     <!-- Time (kyrs) -->
     <g transform="translate(255.273014 344.025)scale(0.1 -0.1)">
      <defs>
       <path d="M 25.921875 0 
L 25.921875 63.140625 
L 2.34375 63.140625 
L 2.34375 71.578125 
L 59.078125 71.578125 
L 59.078125 63.140625 
L 35.40625 63.140625 
L 35.40625 0 
z
" id="ArialMT-84"/>
       <path d="M 6.640625 61.46875 
L 6.640625 71.578125 
L 15.4375 71.578125 
L 15.4375 61.46875 
z
M 6.640625 0 
L 6.640625 51.859375 
L 15.4375 51.859375 
L 15.4375 0 
z
" id="ArialMT-105"/>
       <path d="M 6.59375 0 
L 6.59375 51.859375 
L 14.453125 51.859375 
L 14.453125 44.578125 
Q 16.890625 48.390625 20.9375 50.703125 
Q 25 53.03125 30.171875 53.03125 
Q 35.9375 53.03125 39.625 50.640625 
Q 43.3125 48.25 44.828125 43.953125 
Q 50.984375 53.03125 60.84375 53.03125 
Q 68.5625 53.03125 72.703125 48.75 
Q 76.859375 44.484375 76.859375 35.59375 
L 76.859375 0 
L 68.109375 0 
L 68.109375 32.671875 
Q 68.109375 37.9375 67.25 40.25 
Q 66.40625 42.578125 64.15625 43.984375 
Q 61.921875 45.40625 58.890625 45.40625 
Q 53.421875 45.40625 49.796875 41.765625 
Q 46.1875 38.140625 46.1875 30.125 
L 46.1875 0 
L 37.40625 0 
L 37.40625 33.6875 
Q 37.40625 39.546875 35.25 42.46875 
Q 33.109375 45.40625 28.21875 45.40625 
Q 24.515625 45.40625 21.359375 43.453125 
Q 18.21875 41.5 16.796875 37.734375 
Q 15.375 33.984375 15.375 26.90625 
L 15.375 0 
z
" id="ArialMT-109"/>
       <path d="M 42.09375 16.703125 
L 51.171875 15.578125 
Q 49.03125 7.625 43.21875 3.21875 
Q 37.40625 -1.171875 28.375 -1.171875 
Q 17 -1.171875 10.328125 5.828125 
Q 3.65625 12.84375 3.65625 25.484375 
Q 3.65625 38.578125 10.390625 45.796875 
Q 17.140625 53.03125 27.875 53.03125 
Q 38.28125 53.03125 44.875 45.953125 
Q 51.46875 38.875 51.46875 26.03125 
Q 51.46875 25.25 51.421875 23.6875 
L 12.75 23.6875 
Q 13.234375 15.140625 17.578125 10.59375 
Q 21.921875 6.0625 28.421875 6.0625 
Q 33.25 6.0625 36.671875 8.59375 
Q 40.09375 11.140625 42.09375 16.703125 
z
M 13.234375 30.90625 
L 42.1875 30.90625 
Q 41.609375 37.453125 38.875 40.71875 
Q 34.671875 45.796875 27.984375 45.796875 
Q 21.921875 45.796875 17.796875 41.75 
Q 13.671875 37.703125 13.234375 30.90625 
z
" id="ArialMT-101"/>
       <path id="ArialMT-32"/>
       <path d="M 23.390625 -21.046875 
Q 16.109375 -11.859375 11.078125 0.4375 
Q 6.0625 12.75 6.0625 25.921875 
Q 6.0625 37.546875 9.8125 48.1875 
Q 14.203125 60.546875 23.390625 72.796875 
L 29.6875 72.796875 
Q 23.78125 62.640625 21.875 58.296875 
Q 18.890625 51.5625 17.1875 44.234375 
Q 15.09375 35.109375 15.09375 25.875 
Q 15.09375 2.390625 29.6875 -21.046875 
z
" id="ArialMT-40"/>
       <path d="M 6.640625 0 
L 6.640625 71.578125 
L 15.4375 71.578125 
L 15.4375 30.765625 
L 36.234375 51.859375 
L 47.609375 51.859375 
L 27.78125 32.625 
L 49.609375 0 
L 38.765625 0 
L 21.625 26.515625 
L 15.4375 20.5625 
L 15.4375 0 
z
" id="ArialMT-107"/>
       <path d="M 6.203125 -19.96875 
L 5.21875 -11.71875 
Q 8.109375 -12.5 10.25 -12.5 
Q 13.1875 -12.5 14.9375 -11.515625 
Q 16.703125 -10.546875 17.828125 -8.796875 
Q 18.65625 -7.46875 20.515625 -2.25 
Q 20.75 -1.515625 21.296875 -0.09375 
L 1.609375 51.859375 
L 11.078125 51.859375 
L 21.875 21.828125 
Q 23.96875 16.109375 25.640625 9.8125 
Q 27.15625 15.875 29.25 21.625 
L 40.328125 51.859375 
L 49.125 51.859375 
L 29.390625 -0.875 
Q 26.21875 -9.421875 24.46875 -12.640625 
Q 22.125 -17 19.09375 -19.015625 
Q 16.0625 -21.046875 11.859375 -21.046875 
Q 9.328125 -21.046875 6.203125 -19.96875 
z
" id="ArialMT-121"/>
       <path d="M 6.5 0 
L 6.5 51.859375 
L 14.40625 51.859375 
L 14.40625 44 
Q 17.4375 49.515625 20 51.265625 
Q 22.5625 53.03125 25.640625 53.03125 
Q 30.078125 53.03125 34.671875 50.203125 
L 31.640625 42.046875 
Q 28.421875 43.953125 25.203125 43.953125 
Q 22.3125 43.953125 20.015625 42.21875 
Q 17.71875 40.484375 16.75 37.40625 
Q 15.28125 32.71875 15.28125 27.15625 
L 15.28125 0 
z
" id="ArialMT-114"/>
       <path d="M 3.078125 15.484375 
L 11.765625 16.84375 
Q 12.5 11.625 15.84375 8.84375 
Q 19.1875 6.0625 25.203125 6.0625 
Q 31.25 6.0625 34.171875 8.515625 
Q 37.109375 10.984375 37.109375 14.3125 
Q 37.109375 17.28125 34.515625 19 
Q 32.71875 20.171875 25.53125 21.96875 
Q 15.875 24.421875 12.140625 26.203125 
Q 8.40625 27.984375 6.46875 31.125 
Q 4.546875 34.28125 4.546875 38.09375 
Q 4.546875 41.546875 6.125 44.5 
Q 7.71875 47.46875 10.453125 49.421875 
Q 12.5 50.921875 16.03125 51.96875 
Q 19.578125 53.03125 23.640625 53.03125 
Q 29.734375 53.03125 34.34375 51.265625 
Q 38.96875 49.515625 41.15625 46.5 
Q 43.359375 43.5 44.1875 38.484375 
L 35.59375 37.3125 
Q 35.015625 41.3125 32.203125 43.546875 
Q 29.390625 45.796875 24.265625 45.796875 
Q 18.21875 45.796875 15.625 43.796875 
Q 13.03125 41.796875 13.03125 39.109375 
Q 13.03125 37.40625 14.109375 36.03125 
Q 15.1875 34.625 17.484375 33.6875 
Q 18.796875 33.203125 25.25 31.453125 
Q 34.578125 28.953125 38.25 27.359375 
Q 41.9375 25.78125 44.03125 22.75 
Q 46.140625 19.734375 46.140625 15.234375 
Q 46.140625 10.84375 43.578125 6.953125 
Q 41.015625 3.078125 36.171875 0.953125 
Q 31.34375 -1.171875 25.25 -1.171875 
Q 15.140625 -1.171875 9.84375 3.03125 
Q 4.546875 7.234375 3.078125 15.484375 
z
" id="ArialMT-115"/>
       <path d="M 12.359375 -21.046875 
L 6.0625 -21.046875 
Q 20.65625 2.390625 20.65625 25.875 
Q 20.65625 35.0625 18.5625 44.09375 
Q 16.890625 51.421875 13.921875 58.15625 
Q 12.015625 62.546875 6.0625 72.796875 
L 12.359375 72.796875 
Q 21.53125 60.546875 25.921875 48.1875 
Q 29.6875 37.546875 29.6875 25.921875 
Q 29.6875 12.75 24.625 0.4375 
Q 19.578125 -11.859375 12.359375 -21.046875 
z
" id="ArialMT-41"/>
      </defs>
      <use xlink:href="#ArialMT-84"/>
      <use x="57.333984" xlink:href="#ArialMT-105"/>
      <use x="79.550781" xlink:href="#ArialMT-109"/>
      <use x="162.851562" xlink:href="#ArialMT-101"/>
      <use x="218.466797" xlink:href="#ArialMT-32"/>
      <use x="246.25" xlink:href="#ArialMT-40"/>
      <use x="279.550781" xlink:href="#ArialMT-107"/>
      <use x="329.550781" xlink:href="#ArialMT-121"/>
      <use x="379.550781" xlink:href="#ArialMT-114"/>
      <use x="412.851562" xlink:href="#ArialMT-115"/>
      <use x="462.851562" xlink:href="#ArialMT-41"/>
     </g>
    </g>
   </g>
   <g id="matplotlib.axis_2">
    <g id="ytick_1">
     <g id="line2d_7">
      <defs>
       <path d="M 0 0 
L -3.5 0 
" id="m775b18feb8" style="stroke:#000000;stroke-width:0.8;"/>
      </defs>
      <g>
       <use style="stroke:#000000;stroke-width:0.8;" x="51.425" xlink:href="#m775b18feb8" y="316.6"/>
      </g>
     </g>
     <g id="text_8">
      <!-- 0 -->
      <g transform="translate(38.864063 320.178906)scale(0.1 -0.1)">
       <use xlink:href="#ArialMT-48"/>
      </g>
     </g>
    </g>
    <g id="ytick_2">
     <g id="line2d_8">
      <g>
       <use style="stroke:#000000;stroke-width:0.8;" x="51.425" xlink:href="#m775b18feb8" y="280.807846"/>
      </g>
     </g>
     <g id="text_9">
      <!-- 50 -->
      <g transform="translate(33.303125 284.386752)scale(0.1 -0.1)">
       <use xlink:href="#ArialMT-53"/>
       <use x="55.615234" xlink:href="#ArialMT-48"/>
      </g>
     </g>
    </g>
    <g id="ytick_3">
     <g id="line2d_9">
      <g>
       <use style="stroke:#000000;stroke-width:0.8;" x="51.425" xlink:href="#m775b18feb8" y="245.015692"/>
      </g>
     </g>
     <g id="text_10">
      <!-- 100 -->
      <g transform="translate(27.742188 248.594598)scale(0.1 -0.1)">
       <use xlink:href="#ArialMT-49"/>
       <use x="55.615234" xlink:href="#ArialMT-48"/>
       <use x="111.230469" xlink:href="#ArialMT-48"/>
      </g>
     </g>
    </g>
    <g id="ytick_4">
     <g id="line2d_10">
      <g>
       <use style="stroke:#000000;stroke-width:0.8;" x="51.425" xlink:href="#m775b18feb8" y="209.223537"/>
      </g>
     </g>
     <g id="text_11">
      <!-- 150 -->
      <g transform="translate(27.742188 212.802444)scale(0.1 -0.1)">
       <use xlink:href="#ArialMT-49"/>
       <use x="55.615234" xlink:href="#ArialMT-53"/>
       <use x="111.230469" xlink:href="#ArialMT-48"/>
      </g>
     </g>
    </g>
    <g id="ytick_5">
     <g id="line2d_11">
      <g>
       <use style="stroke:#000000;stroke-width:0.8;" x="51.425" xlink:href="#m775b18feb8" y="173.431383"/>
      </g>
     </g>
     <g id="text_12">
      <!-- 200 -->
      <g transform="translate(27.742188 177.010289)scale(0.1 -0.1)">
       <use xlink:href="#ArialMT-50"/>
       <use x="55.615234" xlink:href="#ArialMT-48"/>
       <use x="111.230469" xlink:href="#ArialMT-48"/>
      </g>
     </g>
    </g>
    <g id="ytick_6">
     <g id="line2d_12">
      <g>
       <use style="stroke:#000000;stroke-width:0.8;" x="51.425" xlink:href="#m775b18feb8" y="137.639229"/>
      </g>
     </g>
     <g id="text_13">
      <!-- 250 -->
      <g transform="translate(27.742188 141.218135)scale(0.1 -0.1)">
       <use xlink:href="#ArialMT-50"/>
       <use x="55.615234" xlink:href="#ArialMT-53"/>
       <use x="111.230469" xlink:href="#ArialMT-48"/>
      </g>
     </g>
    </g>
    <g id="ytick_7">
     <g id="line2d_13">
      <g>
       <use style="stroke:#000000;stroke-width:0.8;" x="51.425" xlink:href="#m775b18feb8" y="101.847075"/>
      </g>
     </g>
     <g id="text_14">
      <!-- 300 -->
      <g transform="translate(27.742188 105.425981)scale(0.1 -0.1)">
       <use xlink:href="#ArialMT-51"/>
       <use x="55.615234" xlink:href="#ArialMT-48"/>
       <use x="111.230469" xlink:href="#ArialMT-48"/>
      </g>
     </g>
    </g>
    <g id="ytick_8">
     <g id="line2d_14">
      <g>
       <use style="stroke:#000000;stroke-width:0.8;" x="51.425" xlink:href="#m775b18feb8" y="66.05492"/>
      </g>
     </g>
     <g id="text_15">
      <!-- 350 -->
      <g transform="translate(27.742188 69.633827)scale(0.1 -0.1)">
       <use xlink:href="#ArialMT-51"/>
       <use x="55.615234" xlink:href="#ArialMT-53"/>
       <use x="111.230469" xlink:href="#ArialMT-48"/>
      </g>
     </g>
    </g>
    <g id="ytick_9">
     <g id="line2d_15">
      <g>
       <use style="stroke:#000000;stroke-width:0.8;" x="51.425" xlink:href="#m775b18feb8" y="30.262766"/>
      </g>
     </g>
     <g id="text_16">
      <!-- 400 -->
      <g transform="translate(27.742188 33.841673)scale(0.1 -0.1)">
       <use xlink:href="#ArialMT-52"/>
       <use x="55.615234" xlink:href="#ArialMT-48"/>
       <use x="111.230469" xlink:href="#ArialMT-48"/>
      </g>
     </g>
    </g>
    <g id="text_17">
     <!-- Maximum vent temperature ($^{\circ}$C) -->
     <g transform="translate(21.542188 244.931383)rotate(-90)scale(0.1 -0.1)">
      <defs>
       <path d="M 7.421875 0 
L 7.421875 71.578125 
L 21.6875 71.578125 
L 38.625 20.90625 
Q 40.96875 13.8125 42.046875 10.296875 
Q 43.265625 14.203125 45.84375 21.78125 
L 62.984375 71.578125 
L 75.734375 71.578125 
L 75.734375 0 
L 66.609375 0 
L 66.609375 59.90625 
L 45.796875 0 
L 37.25 0 
L 16.546875 60.9375 
L 16.546875 0 
z
" id="ArialMT-77"/>
       <path d="M 40.4375 6.390625 
Q 35.546875 2.25 31.03125 0.53125 
Q 26.515625 -1.171875 21.34375 -1.171875 
Q 12.796875 -1.171875 8.203125 3 
Q 3.609375 7.171875 3.609375 13.671875 
Q 3.609375 17.484375 5.34375 20.625 
Q 7.078125 23.78125 9.890625 25.6875 
Q 12.703125 27.59375 16.21875 28.5625 
Q 18.796875 29.25 24.03125 29.890625 
Q 34.671875 31.15625 39.703125 32.90625 
Q 39.75 34.71875 39.75 35.203125 
Q 39.75 40.578125 37.25 42.78125 
Q 33.890625 45.75 27.25 45.75 
Q 21.046875 45.75 18.09375 43.578125 
Q 15.140625 41.40625 13.71875 35.890625 
L 5.125 37.0625 
Q 6.296875 42.578125 8.984375 45.96875 
Q 11.671875 49.359375 16.75 51.1875 
Q 21.828125 53.03125 28.515625 53.03125 
Q 35.15625 53.03125 39.296875 51.46875 
Q 43.453125 49.90625 45.40625 47.53125 
Q 47.359375 45.171875 48.140625 41.546875 
Q 48.578125 39.3125 48.578125 33.453125 
L 48.578125 21.734375 
Q 48.578125 9.46875 49.140625 6.21875 
Q 49.703125 2.984375 51.375 0 
L 42.1875 0 
Q 40.828125 2.734375 40.4375 6.390625 
z
M 39.703125 26.03125 
Q 34.90625 24.078125 25.34375 22.703125 
Q 19.921875 21.921875 17.671875 20.9375 
Q 15.4375 19.96875 14.203125 18.09375 
Q 12.984375 16.21875 12.984375 13.921875 
Q 12.984375 10.40625 15.640625 8.0625 
Q 18.3125 5.71875 23.4375 5.71875 
Q 28.515625 5.71875 32.46875 7.9375 
Q 36.421875 10.15625 38.28125 14.015625 
Q 39.703125 17 39.703125 22.796875 
z
" id="ArialMT-97"/>
       <path d="M 0.734375 0 
L 19.671875 26.953125 
L 2.15625 51.859375 
L 13.140625 51.859375 
L 21.09375 39.703125 
Q 23.34375 36.234375 24.703125 33.890625 
Q 26.859375 37.109375 28.65625 39.59375 
L 37.40625 51.859375 
L 47.90625 51.859375 
L 29.984375 27.4375 
L 49.265625 0 
L 38.484375 0 
L 27.828125 16.109375 
L 25 20.453125 
L 11.375 0 
z
" id="ArialMT-120"/>
       <path d="M 40.578125 0 
L 40.578125 7.625 
Q 34.515625 -1.171875 24.125 -1.171875 
Q 19.53125 -1.171875 15.546875 0.578125 
Q 11.578125 2.34375 9.640625 5 
Q 7.71875 7.671875 6.9375 11.53125 
Q 6.390625 14.109375 6.390625 19.734375 
L 6.390625 51.859375 
L 15.1875 51.859375 
L 15.1875 23.09375 
Q 15.1875 16.21875 15.71875 13.8125 
Q 16.546875 10.359375 19.234375 8.375 
Q 21.921875 6.390625 25.875 6.390625 
Q 29.828125 6.390625 33.296875 8.421875 
Q 36.765625 10.453125 38.203125 13.9375 
Q 39.65625 17.4375 39.65625 24.078125 
L 39.65625 51.859375 
L 48.4375 51.859375 
L 48.4375 0 
z
" id="ArialMT-117"/>
       <path d="M 21 0 
L 1.265625 51.859375 
L 10.546875 51.859375 
L 21.6875 20.796875 
Q 23.484375 15.765625 25 10.359375 
Q 26.171875 14.453125 28.265625 20.21875 
L 39.796875 51.859375 
L 48.828125 51.859375 
L 29.203125 0 
z
" id="ArialMT-118"/>
       <path d="M 6.59375 0 
L 6.59375 51.859375 
L 14.5 51.859375 
L 14.5 44.484375 
Q 20.21875 53.03125 31 53.03125 
Q 35.6875 53.03125 39.625 51.34375 
Q 43.5625 49.65625 45.515625 46.921875 
Q 47.46875 44.1875 48.25 40.4375 
Q 48.734375 37.984375 48.734375 31.890625 
L 48.734375 0 
L 39.9375 0 
L 39.9375 31.546875 
Q 39.9375 36.921875 38.90625 39.578125 
Q 37.890625 42.234375 35.28125 43.8125 
Q 32.671875 45.40625 29.15625 45.40625 
Q 23.53125 45.40625 19.453125 41.84375 
Q 15.375 38.28125 15.375 28.328125 
L 15.375 0 
z
" id="ArialMT-110"/>
       <path d="M 25.78125 7.859375 
L 27.046875 0.09375 
Q 23.34375 -0.6875 20.40625 -0.6875 
Q 15.625 -0.6875 12.984375 0.828125 
Q 10.359375 2.34375 9.28125 4.8125 
Q 8.203125 7.28125 8.203125 15.1875 
L 8.203125 45.015625 
L 1.765625 45.015625 
L 1.765625 51.859375 
L 8.203125 51.859375 
L 8.203125 64.703125 
L 16.9375 69.96875 
L 16.9375 51.859375 
L 25.78125 51.859375 
L 25.78125 45.015625 
L 16.9375 45.015625 
L 16.9375 14.703125 
Q 16.9375 10.9375 17.40625 9.859375 
Q 17.875 8.796875 18.921875 8.15625 
Q 19.96875 7.515625 21.921875 7.515625 
Q 23.390625 7.515625 25.78125 7.859375 
z
" id="ArialMT-116"/>
       <path d="M 6.59375 -19.875 
L 6.59375 51.859375 
L 14.59375 51.859375 
L 14.59375 45.125 
Q 17.4375 49.078125 21 51.046875 
Q 24.5625 53.03125 29.640625 53.03125 
Q 36.28125 53.03125 41.359375 49.609375 
Q 46.4375 46.1875 49.015625 39.953125 
Q 51.609375 33.734375 51.609375 26.3125 
Q 51.609375 18.359375 48.75 11.984375 
Q 45.90625 5.609375 40.453125 2.21875 
Q 35.015625 -1.171875 29 -1.171875 
Q 24.609375 -1.171875 21.109375 0.6875 
Q 17.625 2.546875 15.375 5.375 
L 15.375 -19.875 
z
M 14.546875 25.640625 
Q 14.546875 15.625 18.59375 10.84375 
Q 22.65625 6.0625 28.421875 6.0625 
Q 34.28125 6.0625 38.453125 11.015625 
Q 42.625 15.96875 42.625 26.375 
Q 42.625 36.28125 38.546875 41.203125 
Q 34.46875 46.140625 28.8125 46.140625 
Q 23.1875 46.140625 18.859375 40.890625 
Q 14.546875 35.640625 14.546875 25.640625 
z
" id="ArialMT-112"/>
       <path d="M 25 5.609375 
Q 19.828125 5.609375 15.359375 8.21875 
Q 10.890625 10.84375 8.25 15.375 
Q 5.609375 19.921875 5.609375 25 
Q 5.609375 30.078125 8.25 34.609375 
Q 10.890625 39.15625 15.359375 41.765625 
Q 19.828125 44.390625 25 44.390625 
Q 30.171875 44.390625 34.609375 41.75 
Q 39.0625 39.109375 41.671875 34.59375 
Q 44.28125 30.078125 44.28125 25 
Q 44.28125 19.921875 41.671875 15.40625 
Q 39.0625 10.890625 34.609375 8.25 
Q 30.171875 5.609375 25 5.609375 
z
M 25 9.625 
Q 31.25 9.625 35.765625 14.1875 
Q 40.28125 18.75 40.28125 25 
Q 40.28125 29 38.203125 32.59375 
Q 36.140625 36.1875 32.625 38.28125 
Q 29.109375 40.375 25 40.375 
Q 21.921875 40.375 19.140625 39.171875 
Q 16.359375 37.984375 14.15625 35.78125 
Q 11.96875 33.59375 10.796875 30.828125 
Q 9.625 28.078125 9.625 25 
Q 9.625 18.75 14.140625 14.1875 
Q 18.65625 9.625 25 9.625 
z
" id="Cmsy10-177"/>
       <path d="M 58.796875 25.09375 
L 68.265625 22.703125 
Q 65.28125 11.03125 57.546875 4.90625 
Q 49.8125 -1.21875 38.625 -1.21875 
Q 27.046875 -1.21875 19.796875 3.484375 
Q 12.546875 8.203125 8.765625 17.140625 
Q 4.984375 26.078125 4.984375 36.328125 
Q 4.984375 47.515625 9.25 55.828125 
Q 13.53125 64.15625 21.40625 68.46875 
Q 29.296875 72.796875 38.765625 72.796875 
Q 49.515625 72.796875 56.828125 67.328125 
Q 64.15625 61.859375 67.046875 51.953125 
L 57.71875 49.75 
Q 55.21875 57.5625 50.484375 61.125 
Q 45.75 64.703125 38.578125 64.703125 
Q 30.328125 64.703125 24.78125 60.734375 
Q 19.234375 56.78125 16.984375 50.109375 
Q 14.75 43.453125 14.75 36.375 
Q 14.75 27.25 17.40625 20.4375 
Q 20.0625 13.625 25.671875 10.25 
Q 31.296875 6.890625 37.84375 6.890625 
Q 45.796875 6.890625 51.3125 11.46875 
Q 56.84375 16.0625 58.796875 25.09375 
z
" id="ArialMT-67"/>
      </defs>
      <use transform="translate(0 0.203125)" xlink:href="#ArialMT-77"/>
      <use transform="translate(83.300781 0.203125)" xlink:href="#ArialMT-97"/>
      <use transform="translate(138.916016 0.203125)" xlink:href="#ArialMT-120"/>
      <use transform="translate(188.916016 0.203125)" xlink:href="#ArialMT-105"/>
      <use transform="translate(211.132812 0.203125)" xlink:href="#ArialMT-109"/>
      <use transform="translate(294.433594 0.203125)" xlink:href="#ArialMT-117"/>
      <use transform="translate(350.048828 0.203125)" xlink:href="#ArialMT-109"/>
      <use transform="translate(433.349609 0.203125)" xlink:href="#ArialMT-32"/>
      <use transform="translate(461.132812 0.203125)" xlink:href="#ArialMT-118"/>
      <use transform="translate(511.132812 0.203125)" xlink:href="#ArialMT-101"/>
      <use transform="translate(566.748047 0.203125)" xlink:href="#ArialMT-110"/>
      <use transform="translate(622.363281 0.203125)" xlink:href="#ArialMT-116"/>
      <use transform="translate(650.146484 0.203125)" xlink:href="#ArialMT-32"/>
      <use transform="translate(677.929688 0.203125)" xlink:href="#ArialMT-116"/>
      <use transform="translate(705.712891 0.203125)" xlink:href="#ArialMT-101"/>
      <use transform="translate(761.328125 0.203125)" xlink:href="#ArialMT-109"/>
      <use transform="translate(844.628906 0.203125)" xlink:href="#ArialMT-112"/>
      <use transform="translate(900.244141 0.203125)" xlink:href="#ArialMT-101"/>
      <use transform="translate(955.859375 0.203125)" xlink:href="#ArialMT-114"/>
      <use transform="translate(989.160156 0.203125)" xlink:href="#ArialMT-97"/>
      <use transform="translate(1044.775391 0.203125)" xlink:href="#ArialMT-116"/>
      <use transform="translate(1072.558594 0.203125)" xlink:href="#ArialMT-117"/>
      <use transform="translate(1128.173828 0.203125)" xlink:href="#ArialMT-114"/>
      <use transform="translate(1161.474609 0.203125)" xlink:href="#ArialMT-101"/>
      <use transform="translate(1217.089844 0.203125)" xlink:href="#ArialMT-32"/>
      <use transform="translate(1244.873047 0.203125)" xlink:href="#ArialMT-40"/>
      <use transform="translate(1282.637969 38.467188)scale(0.7)" xlink:href="#Cmsy10-177"/>
      <use transform="translate(1324.015312 0.203125)" xlink:href="#ArialMT-67"/>
      <use transform="translate(1396.232109 0.203125)" xlink:href="#ArialMT-41"/>
     </g>
    </g>
   </g>
   <g id="line2d_16">
    <path clip-path="url(#p6ecd774428)" d="M 51.67558 313.020777 
L 192.000727 312.842132 
L 215.805465 312.513832 
L 236.102646 312.0165 
L 255.146803 311.328131 
L 273.940354 310.422296 
L 292.232695 309.328466 
L 310.525036 308.012174 
L 329.067982 306.456861 
L 348.112139 304.639049 
L 367.907196 302.528171 
L 388.454982 300.117928 
L 410.757005 297.273955 
L 434.311138 294.041923 
L 459.368901 290.3801 
L 486.932715 286.126631 
L 508.733527 282.623653 
L 508.733527 282.623653 
" style="fill:none;stroke:#1f77b4;stroke-linecap:square;stroke-width:1.5;"/>
   </g>
   <g id="line2d_17">
    <path clip-path="url(#p6ecd774428)" d="M 51.67558 313.02072 
L 196.260098 312.77442 
L 216.306675 312.415274 
L 233.095386 311.898285 
L 247.88017 311.227182 
L 261.411015 310.393476 
L 273.689749 309.419235 
L 284.965148 308.309606 
L 295.489646 307.05774 
L 305.512935 305.64123 
L 314.784408 304.10725 
L 323.554671 302.430387 
L 331.823724 300.621595 
L 339.591566 298.695619 
L 346.859113 296.671788 
L 353.875141 294.491473 
L 360.640563 292.156894 
L 367.15538 289.672274 
L 373.420507 287.044199 
L 379.434114 284.281975 
L 385.198031 281.397271 
L 391.211638 278.120499 
L 396.724035 274.860621 
L 402.237347 271.339532 
L 407.499139 267.720445 
L 412.760931 263.835493 
L 418.023637 259.671505 
L 423.285429 255.216098 
L 428.548136 250.458032 
L 433.809927 245.387572 
L 439.072634 239.996916 
L 444.334426 234.281625 
L 449.846823 227.944266 
L 455.360135 221.25328 
L 460.872531 214.21869 
L 466.887053 206.17333 
L 473.151265 197.417853 
L 480.919108 186.116838 
L 490.691791 171.437044 
L 506.227477 148.064052 
L 508.733527 144.418979 
L 508.733527 144.418979 
" style="fill:none;stroke:#ff7f0e;stroke-linecap:square;stroke-width:1.5;"/>
   </g>
   <g id="line2d_18">
    <path clip-path="url(#p6ecd774428)" d="M 51.67558 313.020692 
L 188.742861 312.808372 
L 204.779756 312.491884 
L 216.306675 312.055313 
L 225.327543 311.496275 
L 232.594175 310.824406 
L 238.608697 310.049048 
L 243.870489 309.14657 
L 248.380466 308.155629 
L 252.390147 307.062966 
L 256.149223 305.817757 
L 259.656779 304.425012 
L 262.914645 302.897117 
L 265.921906 301.2544 
L 268.928253 299.355841 
L 271.684908 297.360429 
L 274.441564 295.089774 
L 277.197305 292.510449 
L 279.703356 289.867126 
L 282.209407 286.908762 
L 284.714543 283.602927 
L 287.220594 279.915333 
L 289.726644 275.809615 
L 292.232695 271.247046 
L 294.737831 266.187538 
L 297.243882 260.591005 
L 299.749933 254.417789 
L 302.255983 247.630022 
L 304.76112 240.194488 
L 307.26717 232.084702 
L 310.023826 222.369996 
L 312.779567 211.826343 
L 315.786828 199.41935 
L 319.295299 183.881976 
L 323.554671 163.889911 
L 331.573118 125.928752 
L 334.329774 114.004954 
L 336.58522 105.149975 
L 338.590061 98.139008 
L 340.343381 92.751572 
L 342.097617 88.106467 
L 343.601247 84.743436 
L 345.104878 81.926593 
L 346.608508 79.59724 
L 348.112139 77.687371 
L 349.614854 76.136139 
L 350.86788 75.123221 
L 352.37151 74.2141 
L 353.875141 73.566262 
L 355.879981 72.977123 
L 358.385117 72.497508 
L 362.645404 71.943446 
L 375.675953 70.344252 
L 403.990668 66.654797 
L 420.529688 64.827965 
L 436.065373 63.339012 
L 454.357714 61.829299 
L 472.148845 60.567267 
L 493.448447 59.278034 
L 508.733527 58.477721 
L 508.733527 58.477721 
" style="fill:none;stroke:#2ca02c;stroke-linecap:square;stroke-width:1.5;"/>
   </g>
   <g id="line2d_19">
    <path clip-path="url(#p6ecd774428)" d="M 51.67558 313.020677 
L 173.457781 312.853965 
L 181.225623 312.598315 
L 185.986205 312.229907 
L 189.494676 311.739812 
L 192.251332 311.138418 
L 194.505863 310.440077 
L 196.510703 309.609391 
L 198.515544 308.523286 
L 200.269779 307.30986 
L 202.024015 305.792845 
L 203.526731 304.201097 
L 205.030361 302.289366 
L 206.533992 300.001102 
L 208.037622 297.270447 
L 209.541253 294.021736 
L 211.044883 290.167924 
L 212.547599 285.60829 
L 214.051229 280.228371 
L 215.55486 273.901034 
L 217.05849 266.487119 
L 218.562121 257.840593 
L 220.065751 247.820651 
L 221.568467 236.30746 
L 223.322702 220.897506 
L 225.076938 203.393711 
L 227.332384 178.288378 
L 233.095386 112.296952 
L 234.599016 98.500508 
L 235.852041 89.053527 
L 236.854462 82.948101 
L 237.856882 78.101844 
L 238.859302 74.397356 
L 239.860808 71.633486 
L 240.863228 69.596912 
L 241.865649 68.133729 
L 242.868069 67.132264 
L 243.870489 66.458656 
L 245.123514 65.898867 
L 247.128355 65.29899 
L 263.666461 61.206515 
L 271.183698 59.575109 
L 278.951541 58.111926 
L 287.972409 56.648742 
L 298.496907 55.197728 
L 308.520196 54.017303 
L 321.299225 52.738807 
L 335.332195 51.564825 
L 350.116065 50.532579 
L 369.410826 49.430897 
L 388.956192 48.536809 
L 414.765771 47.614803 
L 440.57535 46.914708 
L 476.158526 46.212466 
L 508.733527 45.75719 
L 508.733527 45.75719 
" style="fill:none;stroke:#d62728;stroke-linecap:square;stroke-width:1.5;"/>
   </g>
   <g id="line2d_20">
    <path clip-path="url(#p6ecd774428)" d="M 51.67558 313.020677 
L 167.192654 312.873299 
L 174.209596 312.628266 
L 177.967757 312.290023 
L 180.473808 311.854404 
L 182.228043 311.355576 
L 183.731674 310.71728 
L 184.983785 309.962159 
L 186.23681 308.914923 
L 187.23923 307.788759 
L 188.241651 306.319849 
L 189.244071 304.403036 
L 190.246491 301.9046 
L 191.248911 298.654816 
L 192.251332 294.43578 
L 193.252837 288.970533 
L 194.255258 281.914897 
L 195.257678 272.848888 
L 196.260098 261.280291 
L 197.262519 246.686684 
L 198.264939 228.627896 
L 199.517964 200.999216 
L 201.2722 155.35205 
L 203.025521 111.027046 
L 204.027941 91.415809 
L 204.779756 80.516382 
L 205.531571 72.742327 
L 206.283387 67.49806 
L 207.035202 64.062013 
L 207.787017 61.807823 
L 208.538832 60.321017 
L 209.290647 59.349618 
L 210.042463 58.706075 
L 211.044883 58.134117 
L 212.547599 57.557863 
L 215.05365 56.856337 
L 219.063331 55.973702 
L 223.823912 55.158357 
L 230.088125 54.339433 
L 239.860808 53.358728 
L 251.387727 52.41453 
L 265.671301 51.42094 
L 287.220594 50.177521 
L 310.775641 49.07727 
L 333.577959 48.2111 
L 361.642983 47.359247 
L 397.726455 46.54247 
L 404.491878 46.320558 
L 410.5064 45.58324 
L 415.768191 45.325536 
L 426.7939 45.056379 
L 458.11679 44.629737 
L 497.206609 44.294007 
L 508.733527 44.218843 
L 508.733527 44.218843 
" style="fill:none;stroke:#9467bd;stroke-linecap:square;stroke-width:1.5;"/>
   </g>
   <g id="line2d_21">
    <path clip-path="url(#p6ecd774428)" d="M 51.67558 313.020706 
L 124.844969 312.908913 
L 126.097812 312.682842 
L 126.849627 312.355408 
L 127.350746 311.97768 
L 127.851864 311.393759 
L 128.353075 310.500802 
L 128.854193 309.150865 
L 129.355403 307.132617 
L 129.856522 304.145476 
L 130.357732 299.76244 
L 130.858851 293.376905 
L 131.360061 284.13759 
L 131.86118 270.899647 
L 132.36239 252.295171 
L 133.114114 212.028926 
L 134.868166 99.479782 
L 135.369285 83.474246 
L 135.870495 75.078123 
L 136.371614 70.861807 
L 136.872824 68.525295 
L 137.373943 67.120811 
L 137.875061 66.243903 
L 138.87739 65.127188 
L 139.879719 64.417071 
L 142.134982 63.263132 
L 143.889126 62.485727 
L 150.153338 60.459175 
L 155.416045 59.307384 
L 158.923601 58.694622 
L 175.461706 56.679524 
L 186.73802 55.695239 
L 199.016754 54.822627 
L 216.306675 53.846933 
L 232.594175 53.11892 
L 255.146803 52.326482 
L 279.703356 51.665759 
L 311.778062 51.042975 
L 341.596407 50.642103 
L 382.441375 50.286329 
L 416.520007 50.104505 
L 508.733527 49.87114 
L 508.733527 49.87114 
" style="fill:none;stroke:#8c564b;stroke-linecap:square;stroke-width:1.5;"/>
   </g>
   <g id="line2d_22">
    <path clip-path="url(#p6ecd774428)" d="M 51.67558 313.020727 
L 108.8078 312.918476 
L 109.30901 312.729716 
L 109.559523 312.5058 
L 109.810128 312.087297 
L 110.060734 311.293291 
L 110.311339 309.763863 
L 110.561852 306.765748 
L 110.812457 300.724175 
L 111.063062 288.033136 
L 111.313667 260.165938 
L 112.065391 73.100248 
L 112.315905 58.864277 
L 112.56651 56.116871 
L 113.06772 53.600682 
L 113.318234 53.013691 
L 113.568839 52.984342 
L 114.070049 52.458913 
L 114.320562 52.317892 
L 118.079273 53.476126 
L 118.830996 53.566322 
L 119.833325 53.800403 
L 121.336864 53.986522 
L 122.088588 54.215592 
L 123.090917 54.508372 
L 130.858851 57.247187 
L 133.865837 58.237914 
L 138.87739 59.726152 
L 140.882048 60.076915 
L 143.638521 60.562972 
L 150.153338 61.10057 
L 159.424811 61.228706 
L 163.434492 61.109876 
L 166.190233 60.678939 
L 168.696284 60.542213 
L 189.244071 59.945916 
L 199.016754 59.751922 
L 225.076938 59.19428 
L 257.651939 58.560043 
L 295.740251 58.01815 
L 337.838245 57.648059 
L 411.50882 57.338099 
L 486.68211 57.234302 
L 508.733527 57.234302 
L 508.733527 57.234302 
" style="fill:none;stroke:#e377c2;stroke-linecap:square;stroke-width:1.5;"/>
   </g>
   <g id="line2d_23">
    <path clip-path="url(#p6ecd774428)" d="M 51.67558 313.020742 
L 109.058405 312.952393 
L 109.559523 312.776696 
L 109.810128 312.409841 
L 110.060734 311.167918 
L 110.311339 305.975743 
L 110.561852 273.208814 
L 110.812457 85.143592 
L 111.063062 45.047789 
L 111.564181 43.069915 
L 111.814786 43.474366 
L 112.315905 43.23599 
L 112.56651 43.426405 
L 112.817115 43.132193 
L 113.819444 43.582459 
L 114.070049 43.904588 
L 114.571168 43.979036 
L 114.821773 43.879533 
L 115.072286 44.145111 
L 116.32522 44.515202 
L 116.575825 44.705616 
L 116.826339 44.730671 
L 117.076944 44.901041 
L 117.578154 45.019156 
L 121.086259 46.484486 
L 131.109456 50.581256 
L 131.86118 50.730868 
L 133.114114 51.165384 
L 134.868166 51.718015 
L 136.121009 52.154679 
L 145.643361 55.258575 
L 149.652128 56.306569 
L 154.914834 57.478404 
L 166.691444 59.353913 
L 173.207175 60.05186 
L 186.73802 61.023975 
L 196.510703 61.471377 
L 199.016754 61.457776 
L 201.021595 61.35899 
L 204.278546 61.432006 
L 207.285807 61.454913 
L 235.100226 61.662507 
L 257.651939 61.616693 
L 331.573118 61.305302 
L 387.452562 61.256624 
L 454.858924 61.172155 
L 456.11195 61.117751 
L 466.135238 61.218685 
L 469.642794 61.184324 
L 471.89824 61.268078 
L 474.905501 61.239444 
L 476.909427 61.261635 
L 480.167293 61.248034 
L 497.457214 61.307449 
L 501.21629 61.250182 
L 508.733527 61.250182 
L 508.733527 61.250182 
" style="fill:none;stroke:#7f7f7f;stroke-linecap:square;stroke-width:1.5;"/>
   </g>
   <g id="line2d_24">
    <path clip-path="url(#p6ecd774428)" d="M 51.67558 313.020756 
L 90.515459 312.93706 
L 90.766064 312.500481 
L 91.016669 307.32747 
L 91.517787 48.537524 
L 91.768392 46.251122 
L 92.018998 45.550311 
L 92.520116 45.823763 
L 94.023564 47.468055 
L 96.529432 49.401547 
L 97.782274 50.33429 
L 98.784603 51.189723 
L 101.540984 53.253499 
L 102.543313 54.033052 
L 103.545642 54.746747 
L 105.049089 55.766108 
L 106.552628 56.781173 
L 107.805471 57.582918 
L 108.8078 58.216439 
L 114.320562 61.260919 
L 116.074615 62.061948 
L 118.580483 63.038358 
L 120.835654 63.961795 
L 124.594364 65.203783 
L 131.86118 66.948293 
L 137.123338 67.865288 
L 147.647287 69.057882 
L 156.668155 69.619103 
L 166.440838 69.957697 
L 174.209596 70.078674 
L 177.215942 70.124488 
L 179.471388 70.110172 
L 182.979859 70.144532 
L 185.7356 70.167439 
L 188.492256 70.145964 
L 197.763729 70.120193 
L 201.77341 70.087265 
L 205.782176 70.081538 
L 215.805465 70.001363 
L 221.067257 69.975593 
L 245.37412 69.803791 
L 247.629565 69.802359 
L 251.137122 69.792337 
L 384.446216 69.522464 
L 506.979292 69.522464 
L 506.979292 69.522464 
" style="fill:none;stroke:#bcbd22;stroke-linecap:square;stroke-width:1.5;"/>
   </g>
   <g id="line2d_25">
    <path clip-path="url(#p6ecd774428)" d="M 51.67558 313.02077 
L 83.248643 312.947382 
L 83.499248 312.235268 
L 83.749853 290.614824 
L 84.000367 59.365367 
L 84.250972 49.627753 
L 84.501577 49.128095 
L 84.752182 49.224734 
L 85.253301 50.113811 
L 86.005025 51.525453 
L 86.506235 52.063767 
L 87.257958 52.46106 
L 87.759077 52.621409 
L 88.009682 52.360842 
L 88.260287 51.871921 
L 88.510801 51.890533 
L 89.262616 53.439618 
L 89.51313 53.269247 
L 89.763735 52.95714 
L 90.01434 53.083128 
L 90.766064 54.470432 
L 91.517787 54.55347 
L 92.269511 55.718862 
L 93.021326 56.07392 
L 93.77305 57.066079 
L 94.524774 57.582202 
L 95.276498 58.492754 
L 96.028221 59.136297 
L 96.779945 60.032533 
L 97.281155 60.461323 
L 98.533998 61.88943 
L 103.545642 66.85237 
L 104.297366 67.422181 
L 105.049089 68.135876 
L 105.800905 68.714278 
L 106.552628 69.35281 
L 112.817115 73.196887 
L 114.070049 73.699409 
L 116.074615 74.191193 
L 119.081602 74.656491 
L 122.088588 74.90632 
L 124.093246 74.891288 
L 125.847298 74.642174 
L 128.854193 74.195488 
L 130.608246 74.206942 
L 132.863509 74.453192 
L 136.371614 75.070964 
L 140.380929 75.987959 
L 143.889126 76.738879 
L 147.397597 77.237821 
L 151.656968 77.61507 
L 160.928441 78.2264 
L 169.949309 78.530634 
L 183.230464 78.723911 
L 209.290647 78.761851 
L 404.491878 78.685972 
L 404.491878 78.685972 
" style="fill:none;stroke:#17becf;stroke-linecap:square;stroke-width:1.5;"/>
   </g>
   <g id="line2d_26">
    <path clip-path="url(#p6ecd774428)" d="M 51.67558 313.020777 
L 74.227775 312.98898 
L 74.47838 312.791586 
L 74.728985 306.758375 
L 74.979499 93.464552 
L 75.230104 54.70666 
L 75.480709 53.957888 
L 75.731223 54.043789 
L 75.981828 54.37952 
L 77.234762 56.746097 
L 77.73588 57.383197 
L 78.23709 58.164182 
L 78.487604 58.260105 
L 78.738209 58.539284 
L 81.243985 64.038391 
L 84.000367 68.875342 
L 87.508564 74.196204 
L 89.763735 76.895648 
L 91.016669 78.072494 
L 93.021326 79.572185 
L 96.529432 81.837113 
L 97.03055 81.99603 
L 97.53176 81.953795 
L 98.032879 81.673901 
L 98.784603 80.887189 
L 99.536327 79.721797 
L 100.288142 78.408225 
L 100.538655 78.114013 
L 100.78926 77.991604 
L 101.039866 78.063904 
L 101.540984 78.612956 
L 102.543313 79.769042 
L 103.545642 80.694627 
L 105.049089 81.798457 
L 106.302023 82.540787 
L 109.058405 84.379072 
L 110.561852 85.004003 
L 112.065391 85.406307 
L 113.06772 85.487913 
L 113.568839 85.491492 
L 114.070049 85.759933 
L 115.322891 86.95038 
L 115.824101 87.150816 
L 116.575825 87.115024 
L 117.327549 86.809359 
L 118.079273 86.243127 
L 119.081602 85.12498 
L 120.08393 84.001107 
L 120.835654 83.519344 
L 121.336864 83.517197 
L 121.837983 83.801386 
L 123.34143 84.961768 
L 129.606009 87.563858 
L 130.858851 87.741387 
L 132.111785 87.586049 
L 134.868166 87.096412 
L 138.626877 86.858752 
L 146.645782 86.383432 
L 152.909994 86.096379 
L 156.418465 86.132171 
L 157.921181 86.33905 
L 158.923601 86.664043 
L 160.677836 87.384181 
L 161.179047 87.329061 
L 161.680257 87.087822 
L 163.434492 85.910976 
L 164.186307 86.044123 
L 165.939628 86.472913 
L 166.942049 86.409203 
L 169.949309 86.022647 
L 170.95173 86.241695 
L 172.705965 86.946801 
L 174.460201 87.641169 
L 175.962917 87.881692 
L 179.471388 88.090002 
L 186.988625 88.303324 
L 204.027941 88.485148 
L 216.05607 88.271111 
L 220.566961 88.010544 
L 235.852041 87.244592 
L 239.108993 87.292553 
L 240.612623 87.503727 
L 246.87775 88.956172 
L 248.380466 88.942571 
L 249.633491 88.68272 
L 256.149223 86.946801 
L 257.651939 86.47864 
L 260.909805 85.371946 
L 262.413435 85.276023 
L 264.668881 85.372662 
L 267.925832 85.703381 
L 278.199726 87.110729 
L 278.199726 87.110729 
" style="fill:none;stroke:#1f77b4;stroke-dasharray:5.55,2.4;stroke-dashoffset:0;stroke-width:1.5;"/>
   </g>
   <g id="line2d_27">
    <path clip-path="url(#p6ecd774428)" d="M 51.67558 313.020792 
L 58.691825 313.001156 
L 58.942402 59.033216 
L 59.19298 63.964659 
L 59.443557 58.416159 
L 59.694144 65.979757 
L 59.944722 59.195712 
L 60.1953 66.611846 
L 60.445877 61.624568 
L 60.696473 66.78508 
L 60.947078 62.296744 
L 61.197592 66.588224 
L 61.448197 65.372006 
L 61.698802 65.759993 
L 61.949316 69.025669 
L 62.199921 64.732758 
L 62.450526 70.7666 
L 62.701131 63.711966 
L 62.951644 70.788075 
L 63.202249 62.588092 
L 63.452855 70.098718 
L 63.70346 61.434869 
L 63.953973 69.155237 
L 64.204578 60.67536 
L 64.455183 67.847392 
L 64.705697 63.12927 
L 64.956302 66.567464 
L 65.206907 71.706502 
L 65.457512 65.220963 
L 65.708026 72.536164 
L 65.958631 64.12286 
L 66.209236 71.959194 
L 66.459841 62.919528 
L 66.710355 70.297007 
L 66.96096 62.002533 
L 67.211565 68.713562 
L 67.462078 63.145734 
L 67.712683 67.170204 
L 67.963289 68.631956 
L 68.213894 65.737086 
L 68.464407 72.285619 
L 68.715012 64.259586 
L 68.965617 71.542574 
L 69.216222 62.860829 
L 69.466736 70.243318 
L 69.717341 61.925938 
L 69.967946 68.853151 
L 70.21846 63.071286 
L 70.71967 71.25051 
L 70.970275 65.958997 
L 71.220789 72.839681 
L 71.471394 64.466465 
L 71.721999 71.304198 
L 71.972604 63.527279 
L 72.223117 69.686392 
L 72.473723 67.576803 
L 72.724328 68.999183 
L 72.974841 75.127516 
L 73.225446 67.099336 
L 73.476051 74.012232 
L 73.726656 66.450066 
L 73.97717 72.151756 
L 74.227775 73.057298 
L 74.47838 68.772977 
L 74.728985 74.400219 
L 74.979499 66.369891 
L 75.230104 72.675037 
L 75.480709 64.902413 
L 75.731223 70.986363 
L 75.981828 66.281127 
L 76.232433 69.461618 
L 76.483038 76.159046 
L 76.733551 67.717108 
L 76.984157 75.187647 
L 77.234762 66.743562 
L 77.485367 73.337192 
L 77.73588 69.745807 
L 77.986485 71.50177 
L 78.23709 71.655677 
L 78.487604 69.780168 
L 78.738209 72.37152 
L 78.988814 69.040702 
L 79.239419 73.488951 
L 79.489933 70.18104 
L 79.740538 73.302832 
L 79.991143 71.455957 
L 80.241657 71.633486 
L 80.492262 71.483874 
L 80.742867 70.229001 
L 80.993472 71.130248 
L 81.243985 70.05362 
L 81.494591 72.720851 
L 81.745196 72.071582 
L 81.995801 72.72443 
L 82.496919 72.00644 
L 82.747524 71.6793 
L 82.998038 70.921222 
L 83.248643 71.66713 
L 83.499248 70.293427 
L 83.749853 72.790288 
L 84.000367 73.512574 
L 84.250972 72.947058 
L 84.501577 72.957079 
L 85.002696 71.574071 
L 85.253301 71.950604 
L 85.503906 71.236909 
L 85.754419 72.370088 
L 86.005025 72.483191 
L 86.25563 73.553377 
L 86.506235 73.141767 
L 86.756748 72.984997 
L 87.257958 71.786676 
L 87.508564 71.93414 
L 87.759077 71.501055 
L 88.260287 71.508929 
L 88.510801 73.994336 
L 88.761406 72.604885 
L 89.012011 73.215499 
L 89.51313 71.971364 
L 89.763735 71.682879 
L 90.01434 71.171767 
L 90.264945 71.92197 
L 90.515459 71.592683 
L 90.766064 73.795332 
L 91.016669 72.594863 
L 91.267182 73.202614 
L 91.768392 71.916959 
L 92.018998 71.798845 
L 92.520116 70.986363 
L 92.770721 71.549732 
L 93.021326 73.324307 
L 93.27184 72.593431 
L 93.522445 73.040833 
L 93.77305 72.696513 
L 94.274169 71.590535 
L 94.524774 71.697912 
L 94.775379 71.325673 
L 95.025893 71.818173 
L 95.276498 73.00862 
L 95.527103 72.818922 
L 95.777708 72.904107 
L 96.028221 72.759507 
L 96.278826 71.879736 
L 96.529432 71.466694 
L 96.779945 71.861124 
L 97.03055 71.263395 
L 97.281155 71.325673 
L 97.53176 73.302116 
L 97.782274 72.83467 
L 98.032879 72.917708 
L 98.283484 72.556923 
L 98.784603 71.518235 
L 99.285813 71.607715 
L 99.536327 71.840364 
L 99.786932 72.66072 
L 100.037537 72.996451 
L 100.288142 72.892654 
L 101.039866 71.626327 
L 101.290379 71.284154 
L 101.540984 72.042232 
L 101.791589 71.161029 
L 102.042194 73.535481 
L 102.292708 72.488918 
L 102.543313 72.942047 
L 103.044523 71.691469 
L 103.545642 71.003544 
L 103.796247 72.136723 
L 104.046761 71.132395 
L 104.297366 73.245564 
L 104.547971 72.758791 
L 104.798576 72.542606 
L 105.800905 70.649201 
L 106.051418 71.700775 
L 106.302023 71.753747 
L 106.552628 73.028664 
L 106.803142 72.896949 
L 107.053747 72.493213 
L 107.554957 71.380077 
L 107.805471 71.193958 
L 108.056076 70.795949 
L 108.306681 71.742294 
L 108.557286 71.744441 
L 108.8078 73.617087 
L 109.058405 72.230499 
L 109.30901 72.479612 
L 109.810128 71.061527 
L 110.060734 71.282723 
L 110.311339 70.574038 
L 110.561852 72.352192 
L 110.812457 71.99785 
L 111.063062 73.146778 
L 112.315905 70.785927 
L 112.56651 71.493896 
L 112.817115 71.35717 
L 113.06772 73.450295 
L 113.318234 72.225488 
L 113.568839 72.671458 
L 114.070049 71.407279 
L 114.320562 71.07298 
L 114.571168 70.183903 
L 114.821773 72.239089 
L 115.072286 71.161029 
L 115.322891 73.806785 
L 115.573496 72.160346 
L 115.824101 72.463148 
L 116.32522 70.986363 
L 116.575825 71.146712 
L 116.826339 70.582628 
L 117.327549 72.728726 
L 117.578154 72.531153 
L 117.828668 72.710114 
L 118.580483 71.036472 
L 118.830996 70.642043 
L 119.081602 71.227603 
L 119.58272 73.135324 
L 119.833325 72.412323 
L 120.08393 72.547617 
L 120.585049 70.977058 
L 120.835654 71.60342 
L 121.086259 70.216832 
L 121.336864 72.308526 
L 121.587378 73.305695 
L 121.837983 72.59701 
L 122.088588 72.924867 
L 122.589707 71.313504 
L 122.840312 71.231182 
L 123.090917 70.449481 
L 123.34143 70.741545 
L 123.592036 72.702239 
L 123.842641 72.585557 
L 124.093246 72.93632 
L 124.343759 72.551196 
L 124.844969 71.036472 
L 125.095483 71.2591 
L 125.346088 70.522497 
L 125.847298 72.441672 
L 126.097812 73.067319 
L 126.599022 72.089478 
L 127.350746 70.328504 
L 127.601351 72.020041 
L 127.851864 71.187515 
L 128.10247 73.206193 
L 128.60368 72.572672 
L 129.355403 70.785927 
L 129.606009 70.895451 
L 129.856522 71.554743 
L 130.357732 73.276346 
L 131.610575 70.57547 
L 131.86118 71.576218 
L 132.111785 71.919823 
L 132.612904 73.316433 
L 133.364627 71.399405 
L 133.615232 70.962741 
L 133.865837 71.779518 
L 134.116443 70.370738 
L 134.366956 73.735201 
L 134.617561 72.178242 
L 134.868166 73.200466 
L 135.369285 71.677868 
L 135.61989 71.303482 
L 135.870495 70.392214 
L 136.121009 72.520415 
L 136.371614 70.800244 
L 136.622219 73.579863 
L 136.872824 72.969249 
L 137.123338 72.83467 
L 137.624548 71.460967 
L 138.125666 71.111636 
L 138.376271 71.673573 
L 138.626877 72.929162 
L 139.127995 73.126734 
L 139.629205 71.730124 
L 139.879719 71.419449 
L 140.130324 70.898315 
L 140.882048 72.963522 
L 141.132653 73.315001 
L 141.633772 72.21475 
L 141.633772 72.21475 
" style="fill:none;stroke:#ff7f0e;stroke-dasharray:5.55,2.4;stroke-dashoffset:0;stroke-width:1.5;"/>
   </g>
   <g id="line2d_28">
    <path clip-path="url(#p6ecd774428)" d="M 51.67558 313.020792 
L 55.684856 313.015716 
L 55.935443 297.22857 
L 56.186021 104.622398 
L 56.687176 137.264127 
L 56.937763 105.643906 
L 57.18834 118.970757 
L 57.438918 149.133521 
L 57.689505 88.195231 
L 57.940083 88.873135 
L 58.441238 76.557054 
L 58.942402 74.390913 
L 59.19298 75.617868 
L 59.443557 78.038134 
L 59.694144 72.150324 
L 59.944722 81.703966 
L 60.1953 75.505481 
L 60.445877 74.443886 
L 60.696473 85.366935 
L 60.947078 75.442487 
L 61.448197 100.28081 
L 61.949316 75.63648 
L 62.199921 88.425733 
L 62.450526 90.911856 
L 62.701131 99.299389 
L 62.951644 76.861288 
L 63.202249 90.440831 
L 63.452855 82.600918 
L 64.455183 119.123232 
L 64.705697 75.256367 
L 64.956302 89.010576 
L 65.206907 78.40393 
L 65.457512 87.521623 
L 65.708026 81.86861 
L 65.958631 85.747764 
L 66.209236 99.492667 
L 66.710355 93.879741 
L 66.96096 106.847954 
L 67.211565 80.608726 
L 67.462078 77.035238 
L 67.712683 89.881042 
L 67.963289 90.674912 
L 68.213894 90.718578 
L 68.715012 116.351487 
L 68.965617 108.646868 
L 69.216222 77.420361 
L 69.717341 85.117822 
L 69.967946 89.692775 
L 70.21846 79.955877 
L 70.970275 116.859736 
L 71.220789 68.294078 
L 71.471394 83.103439 
L 72.223117 98.244952 
L 72.473723 65.662638 
L 73.225446 106.580945 
L 73.476051 91.745813 
L 73.726656 87.497284 
L 73.97717 101.55 
L 74.227775 88.824457 
L 74.47838 91.248302 
L 74.728985 82.024664 
L 74.979499 86.499399 
L 75.230104 74.687988 
L 75.480709 89.665573 
L 75.731223 96.012238 
L 75.981828 107.275313 
L 76.483038 85.575246 
L 76.733551 93.40299 
L 76.984157 84.993981 
L 77.234762 83.059773 
L 77.485367 90.558945 
L 77.986485 115.659267 
L 78.23709 83.264504 
L 78.487604 72.753064 
L 78.738209 88.020566 
L 78.988814 91.266914 
L 79.239419 84.240198 
L 79.489933 86.321154 
L 79.740538 71.453809 
L 79.991143 80.550027 
L 80.241657 96.141089 
L 80.492262 87.711321 
L 80.742867 95.184007 
L 80.993472 76.552043 
L 81.494591 105.998249 
L 81.745196 80.592978 
L 81.995801 97.212707 
L 82.246314 74.275662 
L 82.496919 69.176712 
L 82.747524 78.752545 
L 83.248643 105.23516 
L 83.499248 84.193668 
L 84.000367 111.78584 
L 84.250972 86.73348 
L 84.501577 83.754141 
L 84.752182 87.712037 
L 85.002696 102.418317 
L 85.253301 83.111314 
L 85.754419 113.652043 
L 86.005025 90.565388 
L 86.25563 89.082161 
L 86.506235 81.032505 
L 86.756748 65.548104 
L 87.007353 82.332476 
L 87.257958 76.652977 
L 87.508564 93.314941 
L 87.759077 82.560114 
L 88.009682 66.548852 
L 88.510801 98.341591 
L 88.761406 104.237275 
L 89.262616 71.493896 
L 90.01434 113.213231 
L 90.264945 78.990205 
L 90.766064 97.812583 
L 91.016669 80.85426 
L 91.267182 96.713764 
L 91.517787 77.342334 
L 91.768392 92.729381 
L 92.018998 100.879255 
L 92.269511 79.366023 
L 92.520116 91.642016 
L 93.021326 86.08421 
L 93.27184 86.732048 
L 94.023564 128.843665 
L 94.274169 81.626655 
L 94.524774 82.102691 
L 94.775379 84.671136 
L 95.025893 76.985844 
L 95.527103 102.296624 
L 95.777708 113.651327 
L 96.028221 66.112904 
L 96.278826 75.287149 
L 96.529432 91.395766 
L 96.779945 91.609087 
L 97.03055 73.68366 
L 97.281155 89.435787 
L 97.53176 84.851528 
L 97.782274 95.639283 
L 98.032879 64.648289 
L 99.035208 122.746829 
L 99.035208 122.746829 
" style="fill:none;stroke:#2ca02c;stroke-dasharray:5.55,2.4;stroke-dashoffset:0;stroke-width:1.5;"/>
   </g>
   <g id="line2d_29">
    <path clip-path="url(#p6ecd774428)" d="M 51.67558 313.020792 
L 54.933123 313.017234 
L 55.183701 60.740501 
L 55.684856 86.470765 
L 55.935443 69.249012 
L 56.687176 117.480372 
L 56.937763 72.877621 
L 57.438918 96.48541 
L 57.689505 87.263204 
L 57.940083 102.501355 
L 58.19066 81.003872 
L 58.441238 89.298345 
L 58.691825 103.199302 
L 58.942402 89.264701 
L 59.19298 103.911566 
L 59.443557 103.687507 
L 59.694144 78.333061 
L 59.944722 94.330006 
L 60.1953 86.84014 
L 60.696473 122.365285 
L 60.947078 109.877402 
L 61.197592 88.397815 
L 61.448197 104.522896 
L 61.698802 97.388804 
L 61.949316 95.124592 
L 62.199921 90.740769 
L 62.450526 109.186614 
L 62.701131 116.274176 
L 62.951644 83.217974 
L 63.202249 94.624934 
L 63.452855 112.772272 
L 63.70346 80.238635 
L 63.953973 99.14763 
L 64.204578 96.696584 
L 64.455183 107.165073 
L 64.705697 124.033199 
L 64.956302 74.99079 
L 65.457512 106.995418 
L 65.708026 80.998145 
L 65.958631 101.908637 
L 66.209236 87.917484 
L 66.459841 106.972511 
L 66.710355 107.32399 
L 66.96096 126.616677 
L 67.211565 75.615721 
L 67.462078 86.670485 
L 67.712683 105.661087 
L 67.963289 99.589306 
L 68.213894 84.63248 
L 68.464407 96.646475 
L 68.715012 100.185603 
L 68.965617 118.806829 
L 69.216222 87.380602 
L 69.466736 85.823643 
L 69.717341 104.509295 
L 69.967946 77.481924 
L 70.21846 95.771714 
L 70.469065 90.722873 
L 70.71967 108.406345 
L 70.970275 117.677229 
L 71.220789 75.473268 
L 71.471394 95.668633 
L 71.721999 96.985068 
L 71.972604 96.529076 
L 72.223117 112.012046 
L 72.473723 105.207242 
L 72.724328 82.192171 
L 72.974841 88.896042 
L 73.225446 107.573819 
L 73.476051 76.920703 
L 73.97717 104.914462 
L 74.227775 108.265324 
L 74.47838 124.728283 
L 74.728985 93.342143 
L 74.979499 80.073276 
L 75.230104 84.829337 
L 75.731223 121.992331 
L 75.981828 86.406339 
L 76.232433 92.087986 
L 76.483038 104.006773 
L 76.733551 98.638666 
L 76.984157 81.439104 
L 77.485367 102.278012 
L 77.986485 73.314285 
L 78.23709 92.760163 
L 78.487604 92.522503 
L 78.988814 130.35123 
L 79.239419 78.297269 
L 79.489933 78.142647 
L 79.991143 113.831004 
L 80.241657 75.387367 
L 80.742867 106.880167 
L 80.993472 106.505066 
L 81.243985 119.343711 
L 81.494591 78.124751 
L 81.995801 106.146428 
L 82.246314 123.452651 
L 82.496919 121.242127 
L 82.747524 74.342236 
L 83.248643 108.659753 
L 83.499248 105.960309 
L 84.000367 85.55377 
L 84.250972 98.761791 
L 84.501577 101.929397 
L 84.752182 120.18769 
L 85.002696 119.530546 
L 85.253301 86.485798 
L 85.503906 83.854359 
L 86.25563 126.384744 
L 86.506235 82.756255 
L 86.756748 95.184007 
L 87.007353 90.249701 
L 87.257958 73.690103 
L 87.508564 93.806009 
L 88.009682 107.044811 
L 88.260287 125.401176 
L 88.510801 95.356525 
L 88.761406 90.384995 
L 89.262616 123.928686 
L 89.763735 89.032052 
L 90.01434 95.86549 
L 90.264945 110.837348 
L 90.264945 110.837348 
" style="fill:none;stroke:#d62728;stroke-dasharray:5.55,2.4;stroke-dashoffset:0;stroke-width:1.5;"/>
   </g>
   <g id="line2d_30">
    <path clip-path="url(#p6ecd774428)" d="M 51.67558 313.020792 
L 54.682537 313.016869 
L 54.933123 65.040571 
L 55.183701 84.900206 
L 55.434279 70.352842 
L 55.684856 80.742589 
L 55.935443 80.583672 
L 56.186021 85.177953 
L 56.436598 87.53594 
L 56.687176 92.347837 
L 56.937763 93.256958 
L 57.18834 83.247324 
L 57.438918 87.403509 
L 57.689505 108.455738 
L 57.940083 96.379465 
L 58.19066 99.543492 
L 58.441238 91.521754 
L 58.942402 111.276876 
L 59.19298 91.699999 
L 59.443557 100.889992 
L 59.694144 124.137712 
L 59.944722 91.979894 
L 60.445877 129.257422 
L 60.696473 99.434683 
L 60.947078 97.841933 
L 61.197592 119.358744 
L 61.448197 89.185242 
L 61.698802 110.241767 
L 61.949316 112.628387 
L 62.199921 133.950489 
L 62.450526 85.870173 
L 62.701131 95.261318 
L 62.951644 118.232723 
L 63.202249 87.102855 
L 63.452855 99.640846 
L 63.70346 121.728185 
L 63.953973 90.025642 
L 64.204578 96.687278 
L 64.455183 116.510404 
L 64.705697 78.298701 
L 64.956302 99.983019 
L 65.206907 110.109336 
L 65.457512 130.127887 
L 65.708026 80.426902 
L 65.958631 94.516842 
L 66.209236 115.875452 
L 66.459841 82.481372 
L 66.96096 109.805102 
L 67.211565 93.448804 
L 67.462078 91.095112 
L 67.712683 110.106472 
L 67.963289 83.193636 
L 68.213894 90.989883 
L 68.715012 135.103713 
L 68.965617 96.81255 
L 69.216222 108.399902 
L 69.466736 83.697589 
L 69.717341 104.868648 
L 69.967946 108.689103 
L 70.21846 94.469596 
L 70.71967 115.230477 
L 70.970275 94.783851 
L 71.220789 116.706545 
L 71.471394 120.332291 
L 71.721999 92.384345 
L 71.972604 91.241859 
L 72.223117 112.15092 
L 72.473723 100.247165 
L 72.724328 103.726879 
L 72.974841 85.807895 
L 73.225446 93.430192 
L 73.726656 134.788742 
L 73.97717 98.798299 
L 74.227775 109.991937 
L 74.47838 100.559273 
L 74.728985 99.899981 
L 74.979499 108.06274 
L 75.230104 99.061729 
L 75.480709 98.506235 
L 75.731223 85.020467 
L 75.981828 109.253903 
L 76.232433 112.508126 
L 76.483038 134.124439 
L 76.733551 86.122865 
L 77.234762 124.312378 
L 77.485367 90.273324 
L 77.73588 111.628355 
L 77.986485 87.967593 
L 78.23709 96.292848 
L 78.487604 116.367952 
L 78.738209 85.234504 
L 78.988814 108.492246 
L 79.239419 112.761534 
L 79.489933 84.424886 
L 79.740538 108.375564 
L 79.991143 111.020604 
L 80.241657 127.552284 
L 80.492262 91.66707 
L 80.742867 97.857681 
L 80.993472 120.275739 
L 81.243985 87.516612 
L 81.494591 99.767551 
L 81.745196 122.940823 
L 81.995801 86.800053 
L 82.496919 121.209914 
L 82.747524 92.858233 
L 82.998038 109.373449 
L 83.248643 118.537672 
L 83.499248 138.939916 
L 83.749853 101.709633 
L 84.000367 100.230701 
L 84.250972 84.703349 
L 84.250972 84.703349 
" style="fill:none;stroke:#9467bd;stroke-dasharray:5.55,2.4;stroke-dashoffset:0;stroke-width:1.5;"/>
   </g>
   <g id="line2d_31">
    <path clip-path="url(#p6ecd774428)" d="M 51.67558 313.020785 
L 51.92616 313.020785 
L 52.17674 313.020785 
L 52.42732 313.020785 
L 52.677897 313.020785 
L 52.928484 313.020785 
L 53.179062 313.020785 
L 53.429639 313.020785 
L 53.680217 313.020785 
L 53.930804 313.020513 
L 54.181381 313.01684 
L 54.431959 170.343952 
L 54.682537 155.671316 
L 54.933123 110.414285 
L 55.183701 120.99015 
L 55.434279 119.907796 
L 55.684856 115.290608 
L 55.935443 119.443929 
L 56.186021 120.438235 
L 56.436598 120.785419 
L 56.687176 113.405077 
L 56.937763 128.51223 
L 57.18834 132.701343 
L 57.438918 137.193975 
L 57.689505 158.679289 
L 57.940083 123.323799 
L 58.19066 124.054675 
L 58.441238 106.132827 
L 58.691825 122.075369 
L 58.942402 155.566803 
L 59.19298 113.163122 
L 59.443557 131.733523 
L 59.694144 123.798403 
L 59.944722 132.239625 
L 60.1953 146.48347 
L 60.445877 128.771365 
L 60.696473 131.324777 
L 60.947078 119.48688 
L 61.197592 133.479465 
L 61.448197 143.958692 
L 61.698802 140.854796 
L 61.949316 115.081582 
L 62.199921 139.68654 
L 62.450526 129.014036 
L 62.701131 158.338548 
L 62.951644 161.456044 
L 63.202249 123.539984 
L 63.452855 136.30275 
L 63.70346 140.300733 
L 63.953973 94.236947 
L 64.204578 134.686376 
L 64.455183 164.870616 
L 64.705697 127.056921 
L 64.956302 136.569759 
L 65.206907 101.061079 
L 65.457512 137.991424 
L 65.708026 159.042937 
L 65.958631 165.271488 
L 66.209236 117.524754 
L 66.459841 137.039352 
L 66.710355 116.163221 
L 66.96096 148.943107 
L 67.211565 157.002784 
L 67.462078 125.81708 
L 67.712683 119.728835 
L 67.963289 108.573852 
L 68.213894 132.61401 
L 68.464407 109.136505 
L 68.715012 114.946287 
L 68.965617 141.179073 
L 69.216222 141.872009 
L 69.466736 111.359913 
L 69.717341 147.35322 
L 69.967946 130.672644 
L 70.21846 112.850299 
L 70.469065 137.415886 
L 70.71967 141.234193 
L 70.970275 122.340231 
L 71.220789 124.900085 
L 71.471394 139.86049 
L 71.721999 141.580661 
L 71.972604 117.552672 
L 72.223117 129.875195 
L 72.473723 139.307859 
L 72.724328 147.030374 
L 72.974841 142.864168 
L 73.225446 120.23422 
L 73.476051 147.571552 
L 73.726656 121.876364 
L 73.97717 144.798376 
L 74.227775 140.169734 
L 74.47838 168.549333 
L 74.728985 104.326755 
L 74.979499 132.910369 
L 75.230104 118.209816 
" style="fill:none;stroke:#8c564b;stroke-dasharray:5.55,2.4;stroke-dashoffset:0;stroke-width:1.5;"/>
   </g>
   <g id="line2d_32">
    <path clip-path="url(#p6ecd774428)" d="M 51.67558 313.020785 
L 51.92616 313.020785 
L 52.17674 313.020785 
L 52.42732 313.020785 
L 52.677897 313.020785 
L 52.928484 313.020785 
L 53.179062 313.020785 
L 53.429639 313.020785 
L 53.680217 313.020785 
L 53.930804 313.020756 
L 54.181381 313.015924 
L 54.431959 158.479569 
L 54.682537 131.543109 
L 54.933123 145.378208 
L 55.183701 136.660671 
L 55.434279 148.371148 
L 55.684856 138.857594 
L 55.935443 142.736032 
L 56.186021 148.202925 
L 56.436598 130.863058 
L 56.687176 145.988823 
L 56.937763 137.175363 
L 57.18834 133.61977 
L 57.438918 152.052014 
L 57.689505 140.850501 
L 57.940083 173.043396 
L 58.19066 132.960479 
L 58.441238 147.63383 
L 58.691825 158.606273 
L 58.942402 136.639196 
L 59.19298 157.120898 
L 59.443557 124.986702 
L 59.694144 157.964877 
L 59.944722 137.989276 
L 60.1953 168.284471 
L 60.445877 131.679835 
L 60.696473 165.074631 
L 60.947078 131.426427 
L 61.197592 167.943014 
L 61.448197 114.604114 
L 61.698802 142.463295 
L 61.949316 177.059276 
L 62.199921 125.909424 
L 62.450526 164.21204 
L 62.701131 113.158111 
L 62.951644 155.823791 
L 63.202249 172.291045 
L 63.452855 132.37993 
L 63.70346 141.03662 
L 63.953973 174.909599 
L 64.204578 133.251827 
L 64.455183 162.387356 
L 64.705697 118.50188 
L 64.956302 164.102516 
L 65.206907 177.460864 
L 65.457512 121.111844 
L 65.708026 150.56306 
L 65.958631 133.964806 
L 66.209236 168.917277 
L 66.459841 177.803037 
L 66.710355 114.15886 
L 66.96096 157.877545 
L 67.211565 134.633404 
L 67.462078 157.794507 
L 67.712683 186.56782 
L 67.963289 134.672059 
L 68.213894 149.470683 
L 68.464407 132.7536 
L 68.715012 159.183242 
L 68.965617 161.116019 
L 69.216222 122.929369 
L 69.466736 128.205133 
L 69.717341 170.701873 
L 69.967946 190.847845 
L 70.21846 127.808556 
L 70.469065 146.976686 
L 70.71967 168.542891 
L 70.970275 112.957675 
L 71.220789 140.881998 
L 71.471394 167.848523 
L 71.721999 170.016812 
L 71.972604 131.566732 
L 72.223117 154.527399 
L 72.473723 150.202275 
L 72.724328 133.485191 
L 72.974841 155.927588 
L 73.225446 187.010926 
" style="fill:none;stroke:#e377c2;stroke-dasharray:5.55,2.4;stroke-dashoffset:0;stroke-width:1.5;"/>
   </g>
   <g id="line2d_33">
    <path clip-path="url(#p6ecd774428)" d="M 51.67558 313.020785 
L 51.92616 313.020785 
L 52.17674 313.020785 
L 52.42732 313.020785 
L 52.677897 313.020785 
L 52.928484 313.020785 
L 53.179062 313.020785 
L 53.429639 313.020785 
L 53.680217 313.019847 
L 53.930804 135.845326 
L 54.181381 154.65983 
L 54.431959 157.847479 
L 54.682537 153.659797 
L 54.933123 163.403853 
L 55.183701 147.434826 
L 55.434279 144.417547 
L 55.684856 141.086013 
L 55.935443 167.810583 
L 56.186021 185.391689 
L 56.436598 129.961096 
L 56.687176 143.568557 
L 56.937763 162.489006 
L 57.18834 167.227887 
L 57.438918 139.045861 
L 57.689505 160.954238 
L 57.940083 129.367662 
L 58.19066 167.517088 
L 58.441238 145.934419 
L 58.691825 175.154417 
L 58.942402 193.693322 
L 59.19298 147.923031 
L 59.443557 144.746835 
L 59.694144 180.436624 
L 59.944722 201.333515 
L 60.1953 141.504066 
L 60.445877 154.745015 
L 60.696473 172.533 
L 60.947078 156.506705 
L 61.197592 195.783583 
L 61.448197 146.987424 
L 61.698802 168.681048 
L 61.949316 194.484328 
L 62.199921 112.0958 
L 62.450526 153.233155 
L 62.701131 172.763502 
L 62.951644 178.878233 
L 63.202249 156.832414 
L 63.452855 154.832348 
L 63.70346 191.451301 
L 63.953973 138.678633 
L 64.204578 157.104434 
L 64.455183 135.61053 
L 64.705697 168.153472 
L 64.956302 158.192516 
L 65.206907 157.720059 
L 65.457512 180.352154 
L 65.708026 120.233504 
L 65.958631 163.789693 
L 66.209236 178.478793 
L 66.459841 129.067008 
L 66.710355 153.823725 
L 66.96096 182.939211 
L 67.211565 117.466771 
L 67.462078 137.208291 
L 67.712683 149.818583 
L 67.963289 191.308132 
L 68.213894 142.685923 
L 68.464407 159.960648 
L 68.715012 195.442126 
L 68.965617 140.103877 
L 69.216222 172.714824 
L 69.466736 170.593065 
L 69.717341 147.795611 
L 69.967946 176.303346 
L 70.21846 203.001429 
L 70.469065 137.879752 
L 70.71967 154.061385 
L 70.970275 181.297067 
L 71.220789 114.629169 
L 71.471394 145.829905 
L 71.721999 163.813315 
L 71.972604 194.173652 
L 72.223117 139.666497 
L 72.473723 147.842856 
" style="fill:none;stroke:#7f7f7f;stroke-dasharray:5.55,2.4;stroke-dashoffset:0;stroke-width:1.5;"/>
   </g>
   <g id="line2d_34">
    <path clip-path="url(#p6ecd774428)" d="M 51.67558 313.020785 
L 51.92616 313.020785 
L 52.17674 313.020785 
L 52.42732 313.020785 
L 52.677897 313.020785 
L 52.928484 313.020785 
L 53.179062 171.464962 
L 53.429639 175.67412 
L 53.680217 183.714469 
L 53.930804 180.931271 
L 54.181381 192.62242 
L 54.431959 226.541929 
L 54.682537 188.994528 
L 54.933123 216.145024 
L 55.183701 162.848359 
L 55.434279 192.554415 
L 55.684856 220.073571 
L 55.935443 168.512825 
L 56.186021 192.630295 
L 56.436598 223.279832 
L 56.687176 230.916446 
L 56.937763 185.664426 
L 57.18834 190.075451 
L 57.438918 195.993325 
L 57.689505 191.134183 
L 57.940083 214.198647 
L 58.19066 200.397192 
L 58.441238 186.605759 
L 58.691825 184.000806 
L 58.942402 211.983112 
L 59.19298 238.916708 
L 59.443557 179.873255 
L 59.694144 186.590011 
L 59.944722 223.034298 
L 60.1953 187.721759 
L 60.445877 191.784884 
L 60.696473 191.670349 
L 60.947078 197.425727 
L 61.197592 188.96661 
L 61.448197 212.525721 
L 61.698802 219.129374 
L 61.949316 243.460165 
L 62.199921 174.245297 
L 62.450526 182.15751 
L 62.701131 205.352974 
L 62.951644 179.014959 
L 63.202249 201.284122 
L 63.452855 230.547071 
L 63.70346 213.83643 
L 63.953973 173.425656 
L 64.204578 186.875632 
L 64.455183 203.339307 
L 64.705697 201.92838 
L 64.956302 185.297198 
L 65.206907 195.648289 
L 65.457512 157.953424 
L 65.708026 191.804212 
L 65.958631 216.112095 
L 66.209236 191.77701 
L 66.459841 211.053232 
L 66.710355 222.382881 
L 66.96096 179.997812 
L 67.211565 195.361236 
L 67.462078 223.014254 
L 67.712683 182.158226 
L 67.963289 179.291275 
L 68.213894 197.046331 
L 68.464407 220.757201 
L 68.715012 175.329799 
L 68.965617 192.637453 
L 69.216222 204.65789 
L 69.466736 230.421083 
L 69.717341 172.143581 
L 69.967946 180.248357 
L 70.21846 183.495421 
L 70.469065 196.462919 
L 70.71967 188.338815 
" style="fill:none;stroke:#bcbd22;stroke-dasharray:5.55,2.4;stroke-dashoffset:0;stroke-width:1.5;"/>
   </g>
   <g id="patch_3">
    <path d="M 51.425 316.6 
L 51.425 30.262766 
" style="fill:none;stroke:#000000;stroke-linecap:square;stroke-linejoin:miter;stroke-width:0.8;"/>
   </g>
   <g id="patch_4">
    <path d="M 508.733527 316.6 
L 508.733527 30.262766 
" style="fill:none;stroke:#000000;stroke-linecap:square;stroke-linejoin:miter;stroke-width:0.8;"/>
   </g>
   <g id="patch_5">
    <path d="M 51.425 316.6 
L 508.733527 316.6 
" style="fill:none;stroke:#000000;stroke-linecap:square;stroke-linejoin:miter;stroke-width:0.8;"/>
   </g>
   <g id="patch_6">
    <path d="M 51.425 30.262766 
L 508.733527 30.262766 
" style="fill:none;stroke:#000000;stroke-linecap:square;stroke-linejoin:miter;stroke-width:0.8;"/>
   </g>
   <g id="legend_1">
    <g id="patch_7">
     <path d="M 515.733527 317.326745 
L 597.533527 317.326745 
Q 599.533527 317.326745 599.533527 315.326745 
L 599.533527 31.465807 
Q 599.533527 29.465807 597.533527 29.465807 
L 515.733527 29.465807 
Q 513.733527 29.465807 513.733527 31.465807 
L 513.733527 315.326745 
Q 513.733527 317.326745 515.733527 317.326745 
z
" style="fill:#ffffff;opacity:0.8;stroke:#cccccc;stroke-linejoin:miter;"/>
    </g>
    <g id="text_18">
     <!-- Permeability (m$^{\mathregular{2}}$) -->
     <g transform="translate(517.733527 42.365807)scale(0.1 -0.1)">
      <defs>
       <path d="M 7.71875 0 
L 7.71875 71.578125 
L 34.71875 71.578125 
Q 41.84375 71.578125 45.609375 70.90625 
Q 50.875 70.015625 54.4375 67.546875 
Q 58.015625 65.09375 60.1875 60.640625 
Q 62.359375 56.203125 62.359375 50.875 
Q 62.359375 41.75 56.546875 35.421875 
Q 50.734375 29.109375 35.546875 29.109375 
L 17.1875 29.109375 
L 17.1875 0 
z
M 17.1875 37.546875 
L 35.6875 37.546875 
Q 44.875 37.546875 48.734375 40.96875 
Q 52.59375 44.390625 52.59375 50.59375 
Q 52.59375 55.078125 50.3125 58.265625 
Q 48.046875 61.46875 44.34375 62.5 
Q 41.9375 63.140625 35.5 63.140625 
L 17.1875 63.140625 
z
" id="ArialMT-80"/>
       <path d="M 14.703125 0 
L 6.546875 0 
L 6.546875 71.578125 
L 15.328125 71.578125 
L 15.328125 46.046875 
Q 20.90625 53.03125 29.546875 53.03125 
Q 34.328125 53.03125 38.59375 51.09375 
Q 42.875 49.171875 45.625 45.671875 
Q 48.390625 42.1875 49.953125 37.25 
Q 51.515625 32.328125 51.515625 26.703125 
Q 51.515625 13.375 44.921875 6.09375 
Q 38.328125 -1.171875 29.109375 -1.171875 
Q 19.921875 -1.171875 14.703125 6.5 
z
M 14.59375 26.3125 
Q 14.59375 17 17.140625 12.84375 
Q 21.296875 6.0625 28.375 6.0625 
Q 34.125 6.0625 38.328125 11.0625 
Q 42.53125 16.0625 42.53125 25.984375 
Q 42.53125 36.140625 38.5 40.96875 
Q 34.46875 45.796875 28.765625 45.796875 
Q 23 45.796875 18.796875 40.796875 
Q 14.59375 35.796875 14.59375 26.3125 
z
" id="ArialMT-98"/>
       <path d="M 6.390625 0 
L 6.390625 71.578125 
L 15.1875 71.578125 
L 15.1875 0 
z
" id="ArialMT-108"/>
      </defs>
      <use transform="translate(0 0.423438)" xlink:href="#ArialMT-80"/>
      <use transform="translate(66.699219 0.423438)" xlink:href="#ArialMT-101"/>
      <use transform="translate(122.314453 0.423438)" xlink:href="#ArialMT-114"/>
      <use transform="translate(155.615234 0.423438)" xlink:href="#ArialMT-109"/>
      <use transform="translate(238.916016 0.423438)" xlink:href="#ArialMT-101"/>
      <use transform="translate(294.53125 0.423438)" xlink:href="#ArialMT-97"/>
      <use transform="translate(350.146484 0.423438)" xlink:href="#ArialMT-98"/>
      <use transform="translate(405.761719 0.423438)" xlink:href="#ArialMT-105"/>
      <use transform="translate(427.978516 0.423438)" xlink:href="#ArialMT-108"/>
      <use transform="translate(450.195312 0.423438)" xlink:href="#ArialMT-105"/>
      <use transform="translate(472.412109 0.423438)" xlink:href="#ArialMT-116"/>
      <use transform="translate(500.195312 0.423438)" xlink:href="#ArialMT-121"/>
      <use transform="translate(550.195312 0.423438)" xlink:href="#ArialMT-32"/>
      <use transform="translate(577.978516 0.423438)" xlink:href="#ArialMT-40"/>
      <use transform="translate(611.279297 0.423438)" xlink:href="#ArialMT-109"/>
      <use transform="translate(699.044219 38.6875)scale(0.7)" xlink:href="#ArialMT-50"/>
      <use transform="translate(744.352227 0.423438)" xlink:href="#ArialMT-41"/>
     </g>
    </g>
    <g id="line2d_35">
     <path d="M 529.292121 53.22362 
L 549.292121 53.22362 
" style="fill:none;stroke:#1f77b4;stroke-linecap:square;stroke-width:1.5;"/>
    </g>
    <g id="line2d_36"/>
    <g id="text_19">
     <!-- 1E-16 -->
     <g transform="translate(557.292121 56.72362)scale(0.1 -0.1)">
      <defs>
       <path d="M 7.90625 0 
L 7.90625 71.578125 
L 59.671875 71.578125 
L 59.671875 63.140625 
L 17.390625 63.140625 
L 17.390625 41.21875 
L 56.984375 41.21875 
L 56.984375 32.8125 
L 17.390625 32.8125 
L 17.390625 8.453125 
L 61.328125 8.453125 
L 61.328125 0 
z
" id="ArialMT-69"/>
       <path d="M 3.171875 21.484375 
L 3.171875 30.328125 
L 30.171875 30.328125 
L 30.171875 21.484375 
z
" id="ArialMT-45"/>
       <path d="M 49.75 54.046875 
L 41.015625 53.375 
Q 39.84375 58.546875 37.703125 60.890625 
Q 34.125 64.65625 28.90625 64.65625 
Q 24.703125 64.65625 21.53125 62.3125 
Q 17.390625 59.28125 14.984375 53.46875 
Q 12.59375 47.65625 12.5 36.921875 
Q 15.671875 41.75 20.265625 44.09375 
Q 24.859375 46.4375 29.890625 46.4375 
Q 38.671875 46.4375 44.84375 39.96875 
Q 51.03125 33.5 51.03125 23.25 
Q 51.03125 16.5 48.125 10.71875 
Q 45.21875 4.9375 40.140625 1.859375 
Q 35.0625 -1.21875 28.609375 -1.21875 
Q 17.625 -1.21875 10.6875 6.859375 
Q 3.765625 14.9375 3.765625 33.5 
Q 3.765625 54.25 11.421875 63.671875 
Q 18.109375 71.875 29.4375 71.875 
Q 37.890625 71.875 43.28125 67.140625 
Q 48.6875 62.40625 49.75 54.046875 
z
M 13.875 23.1875 
Q 13.875 18.65625 15.796875 14.5 
Q 17.71875 10.359375 21.1875 8.171875 
Q 24.65625 6 28.46875 6 
Q 34.03125 6 38.03125 10.484375 
Q 42.046875 14.984375 42.046875 22.703125 
Q 42.046875 30.125 38.078125 34.390625 
Q 34.125 38.671875 28.125 38.671875 
Q 22.171875 38.671875 18.015625 34.390625 
Q 13.875 30.125 13.875 23.1875 
z
" id="ArialMT-54"/>
      </defs>
      <use xlink:href="#ArialMT-49"/>
      <use x="55.615234" xlink:href="#ArialMT-69"/>
      <use x="122.314453" xlink:href="#ArialMT-45"/>
      <use x="155.615234" xlink:href="#ArialMT-49"/>
      <use x="211.230469" xlink:href="#ArialMT-54"/>
     </g>
    </g>
    <g id="line2d_37">
     <path d="M 529.292121 67.368932 
L 549.292121 67.368932 
" style="fill:none;stroke:#ff7f0e;stroke-linecap:square;stroke-width:1.5;"/>
    </g>
    <g id="line2d_38"/>
    <g id="text_20">
     <!-- 3E-16 -->
     <g transform="translate(557.292121 70.868932)scale(0.1 -0.1)">
      <use xlink:href="#ArialMT-51"/>
      <use x="55.615234" xlink:href="#ArialMT-69"/>
      <use x="122.314453" xlink:href="#ArialMT-45"/>
      <use x="155.615234" xlink:href="#ArialMT-49"/>
      <use x="211.230469" xlink:href="#ArialMT-54"/>
     </g>
    </g>
    <g id="line2d_39">
     <path d="M 529.292121 81.514245 
L 549.292121 81.514245 
" style="fill:none;stroke:#2ca02c;stroke-linecap:square;stroke-width:1.5;"/>
    </g>
    <g id="line2d_40"/>
    <g id="text_21">
     <!-- 5E-16 -->
     <g transform="translate(557.292121 85.014245)scale(0.1 -0.1)">
      <use xlink:href="#ArialMT-53"/>
      <use x="55.615234" xlink:href="#ArialMT-69"/>
      <use x="122.314453" xlink:href="#ArialMT-45"/>
      <use x="155.615234" xlink:href="#ArialMT-49"/>
      <use x="211.230469" xlink:href="#ArialMT-54"/>
     </g>
    </g>
    <g id="line2d_41">
     <path d="M 529.292121 95.659557 
L 549.292121 95.659557 
" style="fill:none;stroke:#d62728;stroke-linecap:square;stroke-width:1.5;"/>
    </g>
    <g id="line2d_42"/>
    <g id="text_22">
     <!-- 8E-16 -->
     <g transform="translate(557.292121 99.159557)scale(0.1 -0.1)">
      <defs>
       <path d="M 17.671875 38.8125 
Q 12.203125 40.828125 9.5625 44.53125 
Q 6.9375 48.25 6.9375 53.421875 
Q 6.9375 61.234375 12.546875 66.546875 
Q 18.171875 71.875 27.484375 71.875 
Q 36.859375 71.875 42.578125 66.421875 
Q 48.296875 60.984375 48.296875 53.171875 
Q 48.296875 48.1875 45.671875 44.5 
Q 43.0625 40.828125 37.75 38.8125 
Q 44.34375 36.671875 47.78125 31.875 
Q 51.21875 27.09375 51.21875 20.453125 
Q 51.21875 11.28125 44.71875 5.03125 
Q 38.234375 -1.21875 27.640625 -1.21875 
Q 17.046875 -1.21875 10.546875 5.046875 
Q 4.046875 11.328125 4.046875 20.703125 
Q 4.046875 27.6875 7.59375 32.390625 
Q 11.140625 37.109375 17.671875 38.8125 
z
M 15.921875 53.71875 
Q 15.921875 48.640625 19.1875 45.40625 
Q 22.46875 42.1875 27.6875 42.1875 
Q 32.765625 42.1875 36.015625 45.375 
Q 39.265625 48.578125 39.265625 53.21875 
Q 39.265625 58.0625 35.90625 61.359375 
Q 32.5625 64.65625 27.59375 64.65625 
Q 22.5625 64.65625 19.234375 61.421875 
Q 15.921875 58.203125 15.921875 53.71875 
z
M 13.09375 20.65625 
Q 13.09375 16.890625 14.875 13.375 
Q 16.65625 9.859375 20.171875 7.921875 
Q 23.6875 6 27.734375 6 
Q 34.03125 6 38.125 10.046875 
Q 42.234375 14.109375 42.234375 20.359375 
Q 42.234375 26.703125 38.015625 30.859375 
Q 33.796875 35.015625 27.4375 35.015625 
Q 21.234375 35.015625 17.15625 30.90625 
Q 13.09375 26.8125 13.09375 20.65625 
z
" id="ArialMT-56"/>
      </defs>
      <use xlink:href="#ArialMT-56"/>
      <use x="55.615234" xlink:href="#ArialMT-69"/>
      <use x="122.314453" xlink:href="#ArialMT-45"/>
      <use x="155.615234" xlink:href="#ArialMT-49"/>
      <use x="211.230469" xlink:href="#ArialMT-54"/>
     </g>
    </g>
    <g id="line2d_43">
     <path d="M 529.292121 109.80487 
L 549.292121 109.80487 
" style="fill:none;stroke:#9467bd;stroke-linecap:square;stroke-width:1.5;"/>
    </g>
    <g id="line2d_44"/>
    <g id="text_23">
     <!-- 1E-15 -->
     <g transform="translate(557.292121 113.30487)scale(0.1 -0.1)">
      <use xlink:href="#ArialMT-49"/>
      <use x="55.615234" xlink:href="#ArialMT-69"/>
      <use x="122.314453" xlink:href="#ArialMT-45"/>
      <use x="155.615234" xlink:href="#ArialMT-49"/>
      <use x="211.230469" xlink:href="#ArialMT-53"/>
     </g>
    </g>
    <g id="line2d_45">
     <path d="M 529.292121 123.950182 
L 549.292121 123.950182 
" style="fill:none;stroke:#8c564b;stroke-linecap:square;stroke-width:1.5;"/>
    </g>
    <g id="line2d_46"/>
    <g id="text_24">
     <!-- 2E-15 -->
     <g transform="translate(557.292121 127.450182)scale(0.1 -0.1)">
      <use xlink:href="#ArialMT-50"/>
      <use x="55.615234" xlink:href="#ArialMT-69"/>
      <use x="122.314453" xlink:href="#ArialMT-45"/>
      <use x="155.615234" xlink:href="#ArialMT-49"/>
      <use x="211.230469" xlink:href="#ArialMT-53"/>
     </g>
    </g>
    <g id="line2d_47">
     <path d="M 529.292121 138.095495 
L 549.292121 138.095495 
" style="fill:none;stroke:#e377c2;stroke-linecap:square;stroke-width:1.5;"/>
    </g>
    <g id="line2d_48"/>
    <g id="text_25">
     <!-- 3E-15 -->
     <g transform="translate(557.292121 141.595495)scale(0.1 -0.1)">
      <use xlink:href="#ArialMT-51"/>
      <use x="55.615234" xlink:href="#ArialMT-69"/>
      <use x="122.314453" xlink:href="#ArialMT-45"/>
      <use x="155.615234" xlink:href="#ArialMT-49"/>
      <use x="211.230469" xlink:href="#ArialMT-53"/>
     </g>
    </g>
    <g id="line2d_49">
     <path d="M 529.292121 152.240807 
L 549.292121 152.240807 
" style="fill:none;stroke:#7f7f7f;stroke-linecap:square;stroke-width:1.5;"/>
    </g>
    <g id="line2d_50"/>
    <g id="text_26">
     <!-- 4E-15 -->
     <g transform="translate(557.292121 155.740807)scale(0.1 -0.1)">
      <use xlink:href="#ArialMT-52"/>
      <use x="55.615234" xlink:href="#ArialMT-69"/>
      <use x="122.314453" xlink:href="#ArialMT-45"/>
      <use x="155.615234" xlink:href="#ArialMT-49"/>
      <use x="211.230469" xlink:href="#ArialMT-53"/>
     </g>
    </g>
    <g id="line2d_51">
     <path d="M 529.292121 166.38612 
L 549.292121 166.38612 
" style="fill:none;stroke:#bcbd22;stroke-linecap:square;stroke-width:1.5;"/>
    </g>
    <g id="line2d_52"/>
    <g id="text_27">
     <!-- 6E-15 -->
     <g transform="translate(557.292121 169.88612)scale(0.1 -0.1)">
      <use xlink:href="#ArialMT-54"/>
      <use x="55.615234" xlink:href="#ArialMT-69"/>
      <use x="122.314453" xlink:href="#ArialMT-45"/>
      <use x="155.615234" xlink:href="#ArialMT-49"/>
      <use x="211.230469" xlink:href="#ArialMT-53"/>
     </g>
    </g>
    <g id="line2d_53">
     <path d="M 529.292121 180.531432 
L 549.292121 180.531432 
" style="fill:none;stroke:#17becf;stroke-linecap:square;stroke-width:1.5;"/>
    </g>
    <g id="line2d_54"/>
    <g id="text_28">
     <!-- 8E-15 -->
     <g transform="translate(557.292121 184.031432)scale(0.1 -0.1)">
      <use xlink:href="#ArialMT-56"/>
      <use x="55.615234" xlink:href="#ArialMT-69"/>
      <use x="122.314453" xlink:href="#ArialMT-45"/>
      <use x="155.615234" xlink:href="#ArialMT-49"/>
      <use x="211.230469" xlink:href="#ArialMT-53"/>
     </g>
    </g>
    <g id="line2d_55">
     <path d="M 529.292121 194.676745 
L 549.292121 194.676745 
" style="fill:none;stroke:#1f77b4;stroke-dasharray:5.55,2.4;stroke-dashoffset:0;stroke-width:1.5;"/>
    </g>
    <g id="line2d_56"/>
    <g id="text_29">
     <!-- 1E-14 -->
     <g transform="translate(557.292121 198.176745)scale(0.1 -0.1)">
      <use xlink:href="#ArialMT-49"/>
      <use x="55.615234" xlink:href="#ArialMT-69"/>
      <use x="122.314453" xlink:href="#ArialMT-45"/>
      <use x="155.615234" xlink:href="#ArialMT-49"/>
      <use x="211.230469" xlink:href="#ArialMT-52"/>
     </g>
    </g>
    <g id="line2d_57">
     <path d="M 529.292121 208.822057 
L 549.292121 208.822057 
" style="fill:none;stroke:#ff7f0e;stroke-dasharray:5.55,2.4;stroke-dashoffset:0;stroke-width:1.5;"/>
    </g>
    <g id="line2d_58"/>
    <g id="text_30">
     <!-- 3E-14 -->
     <g transform="translate(557.292121 212.322057)scale(0.1 -0.1)">
      <use xlink:href="#ArialMT-51"/>
      <use x="55.615234" xlink:href="#ArialMT-69"/>
      <use x="122.314453" xlink:href="#ArialMT-45"/>
      <use x="155.615234" xlink:href="#ArialMT-49"/>
      <use x="211.230469" xlink:href="#ArialMT-52"/>
     </g>
    </g>
    <g id="line2d_59">
     <path d="M 529.292121 222.96737 
L 549.292121 222.96737 
" style="fill:none;stroke:#2ca02c;stroke-dasharray:5.55,2.4;stroke-dashoffset:0;stroke-width:1.5;"/>
    </g>
    <g id="line2d_60"/>
    <g id="text_31">
     <!-- 6E-14 -->
     <g transform="translate(557.292121 226.46737)scale(0.1 -0.1)">
      <use xlink:href="#ArialMT-54"/>
      <use x="55.615234" xlink:href="#ArialMT-69"/>
      <use x="122.314453" xlink:href="#ArialMT-45"/>
      <use x="155.615234" xlink:href="#ArialMT-49"/>
      <use x="211.230469" xlink:href="#ArialMT-52"/>
     </g>
    </g>
    <g id="line2d_61">
     <path d="M 529.292121 237.112682 
L 549.292121 237.112682 
" style="fill:none;stroke:#d62728;stroke-dasharray:5.55,2.4;stroke-dashoffset:0;stroke-width:1.5;"/>
    </g>
    <g id="line2d_62"/>
    <g id="text_32">
     <!-- 8E-14 -->
     <g transform="translate(557.292121 240.612682)scale(0.1 -0.1)">
      <use xlink:href="#ArialMT-56"/>
      <use x="55.615234" xlink:href="#ArialMT-69"/>
      <use x="122.314453" xlink:href="#ArialMT-45"/>
      <use x="155.615234" xlink:href="#ArialMT-49"/>
      <use x="211.230469" xlink:href="#ArialMT-52"/>
     </g>
    </g>
    <g id="line2d_63">
     <path d="M 529.292121 251.257995 
L 549.292121 251.257995 
" style="fill:none;stroke:#9467bd;stroke-dasharray:5.55,2.4;stroke-dashoffset:0;stroke-width:1.5;"/>
    </g>
    <g id="line2d_64"/>
    <g id="text_33">
     <!-- 1E-13 -->
     <g transform="translate(557.292121 254.757995)scale(0.1 -0.1)">
      <use xlink:href="#ArialMT-49"/>
      <use x="55.615234" xlink:href="#ArialMT-69"/>
      <use x="122.314453" xlink:href="#ArialMT-45"/>
      <use x="155.615234" xlink:href="#ArialMT-49"/>
      <use x="211.230469" xlink:href="#ArialMT-51"/>
     </g>
    </g>
    <g id="line2d_65">
     <path d="M 529.292121 265.403307 
L 549.292121 265.403307 
" style="fill:none;stroke:#8c564b;stroke-dasharray:5.55,2.4;stroke-dashoffset:0;stroke-width:1.5;"/>
    </g>
    <g id="line2d_66"/>
    <g id="text_34">
     <!-- 2E-13 -->
     <g transform="translate(557.292121 268.903307)scale(0.1 -0.1)">
      <use xlink:href="#ArialMT-50"/>
      <use x="55.615234" xlink:href="#ArialMT-69"/>
      <use x="122.314453" xlink:href="#ArialMT-45"/>
      <use x="155.615234" xlink:href="#ArialMT-49"/>
      <use x="211.230469" xlink:href="#ArialMT-51"/>
     </g>
    </g>
    <g id="line2d_67">
     <path d="M 529.292121 279.54862 
L 549.292121 279.54862 
" style="fill:none;stroke:#e377c2;stroke-dasharray:5.55,2.4;stroke-dashoffset:0;stroke-width:1.5;"/>
    </g>
    <g id="line2d_68"/>
    <g id="text_35">
     <!-- 3E-13 -->
     <g transform="translate(557.292121 283.04862)scale(0.1 -0.1)">
      <use xlink:href="#ArialMT-51"/>
      <use x="55.615234" xlink:href="#ArialMT-69"/>
      <use x="122.314453" xlink:href="#ArialMT-45"/>
      <use x="155.615234" xlink:href="#ArialMT-49"/>
      <use x="211.230469" xlink:href="#ArialMT-51"/>
     </g>
    </g>
    <g id="line2d_69">
     <path d="M 529.292121 293.693932 
L 549.292121 293.693932 
" style="fill:none;stroke:#7f7f7f;stroke-dasharray:5.55,2.4;stroke-dashoffset:0;stroke-width:1.5;"/>
    </g>
    <g id="line2d_70"/>
    <g id="text_36">
     <!-- 4E-13 -->
     <g transform="translate(557.292121 297.193932)scale(0.1 -0.1)">
      <use xlink:href="#ArialMT-52"/>
      <use x="55.615234" xlink:href="#ArialMT-69"/>
      <use x="122.314453" xlink:href="#ArialMT-45"/>
      <use x="155.615234" xlink:href="#ArialMT-49"/>
      <use x="211.230469" xlink:href="#ArialMT-51"/>
     </g>
    </g>
    <g id="line2d_71">
     <path d="M 529.292121 307.839245 
L 549.292121 307.839245 
" style="fill:none;stroke:#bcbd22;stroke-dasharray:5.55,2.4;stroke-dashoffset:0;stroke-width:1.5;"/>
    </g>
    <g id="line2d_72"/>
    <g id="text_37">
     <!-- 1E-12 -->
     <g transform="translate(557.292121 311.339245)scale(0.1 -0.1)">
      <use xlink:href="#ArialMT-49"/>
      <use x="55.615234" xlink:href="#ArialMT-69"/>
      <use x="122.314453" xlink:href="#ArialMT-45"/>
      <use x="155.615234" xlink:href="#ArialMT-49"/>
      <use x="211.230469" xlink:href="#ArialMT-50"/>
     </g>
    </g>
   </g>
  </g>
 </g>
 <defs>
  <clipPath id="p6ecd774428">
   <rect height="286.337234" width="457.308527" x="51.425" y="30.262766"/>
  </clipPath>
 </defs>
</svg>
