<?xml version="1.0" encoding="utf-8" standalone="no"?>
<!DOCTYPE svg PUBLIC "-//W3C//DTD SVG 1.1//EN"
  "http://www.w3.org/Graphics/SVG/1.1/DTD/svg11.dtd">
<!-- Created with matplotlib (https://matplotlib.org/) -->
<svg height="288pt" version="1.1" viewBox="0 0 432 288" width="432pt" xmlns="http://www.w3.org/2000/svg" xmlns:xlink="http://www.w3.org/1999/xlink">
 <metadata>
  <rdf:RDF xmlns:cc="http://creativecommons.org/ns#" xmlns:dc="http://purl.org/dc/elements/1.1/" xmlns:rdf="http://www.w3.org/1999/02/22-rdf-syntax-ns#">
   <cc:Work>
    <dc:type rdf:resource="http://purl.org/dc/dcmitype/StillImage"/>
    <dc:date>2020-12-02T01:54:57.253196</dc:date>
    <dc:format>image/svg+xml</dc:format>
    <dc:creator>
     <cc:Agent>
      <dc:title>Matplotlib v3.3.2, https://matplotlib.org/</dc:title>
     </cc:Agent>
    </dc:creator>
   </cc:Work>
  </rdf:RDF>
 </metadata>
 <defs>
  <style type="text/css">*{stroke-linecap:butt;stroke-linejoin:round;}</style>
 </defs>
 <g id="figure_1">
  <g id="patch_1">
   <path d="M 0 288 
L 432 288 
L 432 0 
L 0 0 
z
" style="fill:none;"/>
  </g>
  <g id="axes_1">
   <g id="patch_2">
    <path d="M 52.925 248.2 
L 412.8875 248.2 
L 412.8875 14.3 
L 52.925 14.3 
z
" style="fill:#ffffff;"/>
   </g>
   <g id="matplotlib.axis_1">
    <g id="xtick_1">
     <g id="line2d_1">
      <defs>
       <path d="M 0 0 
L 0 3.5 
" id="m7ac040a50b" style="stroke:#000000;stroke-width:0.8;"/>
      </defs>
      <g>
       <use style="stroke:#000000;stroke-width:0.8;" x="52.925" xlink:href="#m7ac040a50b" y="248.2"/>
      </g>
     </g>
     <g id="text_1">
      <!-- −400 -->
      <g transform="translate(41.663281 262.357813)scale(0.1 -0.1)">
       <defs>
        <path d="M 52.828125 31.203125 
L 5.5625 31.203125 
L 5.5625 39.40625 
L 52.828125 39.40625 
z
" id="ArialMT-8722"/>
        <path d="M 32.328125 0 
L 32.328125 17.140625 
L 1.265625 17.140625 
L 1.265625 25.203125 
L 33.9375 71.578125 
L 41.109375 71.578125 
L 41.109375 25.203125 
L 50.78125 25.203125 
L 50.78125 17.140625 
L 41.109375 17.140625 
L 41.109375 0 
z
M 32.328125 25.203125 
L 32.328125 57.46875 
L 9.90625 25.203125 
z
" id="ArialMT-52"/>
        <path d="M 4.15625 35.296875 
Q 4.15625 48 6.765625 55.734375 
Q 9.375 63.484375 14.515625 67.671875 
Q 19.671875 71.875 27.484375 71.875 
Q 33.25 71.875 37.59375 69.546875 
Q 41.9375 67.234375 44.765625 62.859375 
Q 47.609375 58.5 49.21875 52.21875 
Q 50.828125 45.953125 50.828125 35.296875 
Q 50.828125 22.703125 48.234375 14.96875 
Q 45.65625 7.234375 40.5 3 
Q 35.359375 -1.21875 27.484375 -1.21875 
Q 17.140625 -1.21875 11.234375 6.203125 
Q 4.15625 15.140625 4.15625 35.296875 
z
M 13.1875 35.296875 
Q 13.1875 17.671875 17.3125 11.828125 
Q 21.4375 6 27.484375 6 
Q 33.546875 6 37.671875 11.859375 
Q 41.796875 17.71875 41.796875 35.296875 
Q 41.796875 52.984375 37.671875 58.78125 
Q 33.546875 64.59375 27.390625 64.59375 
Q 21.34375 64.59375 17.71875 59.46875 
Q 13.1875 52.9375 13.1875 35.296875 
z
" id="ArialMT-48"/>
       </defs>
       <use xlink:href="#ArialMT-8722"/>
       <use x="58.398438" xlink:href="#ArialMT-52"/>
       <use x="114.013672" xlink:href="#ArialMT-48"/>
       <use x="169.628906" xlink:href="#ArialMT-48"/>
      </g>
     </g>
    </g>
    <g id="xtick_2">
     <g id="line2d_2">
      <g>
       <use style="stroke:#000000;stroke-width:0.8;" x="97.920313" xlink:href="#m7ac040a50b" y="248.2"/>
      </g>
     </g>
     <g id="text_2">
      <!-- −300 -->
      <g transform="translate(86.658594 262.357813)scale(0.1 -0.1)">
       <defs>
        <path d="M 4.203125 18.890625 
L 12.984375 20.0625 
Q 14.5 12.59375 18.140625 9.296875 
Q 21.78125 6 27 6 
Q 33.203125 6 37.46875 10.296875 
Q 41.75 14.59375 41.75 20.953125 
Q 41.75 27 37.796875 30.921875 
Q 33.84375 34.859375 27.734375 34.859375 
Q 25.25 34.859375 21.53125 33.890625 
L 22.515625 41.609375 
Q 23.390625 41.5 23.921875 41.5 
Q 29.546875 41.5 34.03125 44.421875 
Q 38.53125 47.359375 38.53125 53.46875 
Q 38.53125 58.296875 35.25 61.46875 
Q 31.984375 64.65625 26.8125 64.65625 
Q 21.6875 64.65625 18.265625 61.421875 
Q 14.84375 58.203125 13.875 51.765625 
L 5.078125 53.328125 
Q 6.6875 62.15625 12.390625 67.015625 
Q 18.109375 71.875 26.609375 71.875 
Q 32.46875 71.875 37.390625 69.359375 
Q 42.328125 66.84375 44.9375 62.5 
Q 47.5625 58.15625 47.5625 53.265625 
Q 47.5625 48.640625 45.0625 44.828125 
Q 42.578125 41.015625 37.703125 38.765625 
Q 44.046875 37.3125 47.5625 32.6875 
Q 51.078125 28.078125 51.078125 21.140625 
Q 51.078125 11.765625 44.234375 5.25 
Q 37.40625 -1.265625 26.953125 -1.265625 
Q 17.53125 -1.265625 11.296875 4.34375 
Q 5.078125 9.96875 4.203125 18.890625 
z
" id="ArialMT-51"/>
       </defs>
       <use xlink:href="#ArialMT-8722"/>
       <use x="58.398438" xlink:href="#ArialMT-51"/>
       <use x="114.013672" xlink:href="#ArialMT-48"/>
       <use x="169.628906" xlink:href="#ArialMT-48"/>
      </g>
     </g>
    </g>
    <g id="xtick_3">
     <g id="line2d_3">
      <g>
       <use style="stroke:#000000;stroke-width:0.8;" x="142.915625" xlink:href="#m7ac040a50b" y="248.2"/>
      </g>
     </g>
     <g id="text_3">
      <!-- −200 -->
      <g transform="translate(131.653906 262.357813)scale(0.1 -0.1)">
       <defs>
        <path d="M 50.34375 8.453125 
L 50.34375 0 
L 3.03125 0 
Q 2.9375 3.171875 4.046875 6.109375 
Q 5.859375 10.9375 9.828125 15.625 
Q 13.8125 20.3125 21.34375 26.46875 
Q 33.015625 36.03125 37.109375 41.625 
Q 41.21875 47.21875 41.21875 52.203125 
Q 41.21875 57.421875 37.46875 61 
Q 33.734375 64.59375 27.734375 64.59375 
Q 21.390625 64.59375 17.578125 60.78125 
Q 13.765625 56.984375 13.71875 50.25 
L 4.6875 51.171875 
Q 5.609375 61.28125 11.65625 66.578125 
Q 17.71875 71.875 27.9375 71.875 
Q 38.234375 71.875 44.234375 66.15625 
Q 50.25 60.453125 50.25 52 
Q 50.25 47.703125 48.484375 43.546875 
Q 46.734375 39.40625 42.65625 34.8125 
Q 38.578125 30.21875 29.109375 22.21875 
Q 21.1875 15.578125 18.9375 13.203125 
Q 16.703125 10.84375 15.234375 8.453125 
z
" id="ArialMT-50"/>
       </defs>
       <use xlink:href="#ArialMT-8722"/>
       <use x="58.398438" xlink:href="#ArialMT-50"/>
       <use x="114.013672" xlink:href="#ArialMT-48"/>
       <use x="169.628906" xlink:href="#ArialMT-48"/>
      </g>
     </g>
    </g>
    <g id="xtick_4">
     <g id="line2d_4">
      <g>
       <use style="stroke:#000000;stroke-width:0.8;" x="187.910937" xlink:href="#m7ac040a50b" y="248.2"/>
      </g>
     </g>
     <g id="text_4">
      <!-- −100 -->
      <g transform="translate(176.649219 262.357813)scale(0.1 -0.1)">
       <defs>
        <path d="M 37.25 0 
L 28.46875 0 
L 28.46875 56 
Q 25.296875 52.984375 20.140625 49.953125 
Q 14.984375 46.921875 10.890625 45.40625 
L 10.890625 53.90625 
Q 18.265625 57.375 23.78125 62.296875 
Q 29.296875 67.234375 31.59375 71.875 
L 37.25 71.875 
z
" id="ArialMT-49"/>
       </defs>
       <use xlink:href="#ArialMT-8722"/>
       <use x="58.398438" xlink:href="#ArialMT-49"/>
       <use x="114.013672" xlink:href="#ArialMT-48"/>
       <use x="169.628906" xlink:href="#ArialMT-48"/>
      </g>
     </g>
    </g>
    <g id="xtick_5">
     <g id="line2d_5">
      <g>
       <use style="stroke:#000000;stroke-width:0.8;" x="232.90625" xlink:href="#m7ac040a50b" y="248.2"/>
      </g>
     </g>
     <g id="text_5">
      <!-- 0 -->
      <g transform="translate(230.125781 262.357813)scale(0.1 -0.1)">
       <use xlink:href="#ArialMT-48"/>
      </g>
     </g>
    </g>
    <g id="xtick_6">
     <g id="line2d_6">
      <g>
       <use style="stroke:#000000;stroke-width:0.8;" x="277.901563" xlink:href="#m7ac040a50b" y="248.2"/>
      </g>
     </g>
     <g id="text_6">
      <!-- 100 -->
      <g transform="translate(269.560156 262.357813)scale(0.1 -0.1)">
       <use xlink:href="#ArialMT-49"/>
       <use x="55.615234" xlink:href="#ArialMT-48"/>
       <use x="111.230469" xlink:href="#ArialMT-48"/>
      </g>
     </g>
    </g>
    <g id="xtick_7">
     <g id="line2d_7">
      <g>
       <use style="stroke:#000000;stroke-width:0.8;" x="322.896875" xlink:href="#m7ac040a50b" y="248.2"/>
      </g>
     </g>
     <g id="text_7">
      <!-- 200 -->
      <g transform="translate(314.555469 262.357813)scale(0.1 -0.1)">
       <use xlink:href="#ArialMT-50"/>
       <use x="55.615234" xlink:href="#ArialMT-48"/>
       <use x="111.230469" xlink:href="#ArialMT-48"/>
      </g>
     </g>
    </g>
    <g id="xtick_8">
     <g id="line2d_8">
      <g>
       <use style="stroke:#000000;stroke-width:0.8;" x="367.892187" xlink:href="#m7ac040a50b" y="248.2"/>
      </g>
     </g>
     <g id="text_8">
      <!-- 300 -->
      <g transform="translate(359.550781 262.357813)scale(0.1 -0.1)">
       <use xlink:href="#ArialMT-51"/>
       <use x="55.615234" xlink:href="#ArialMT-48"/>
       <use x="111.230469" xlink:href="#ArialMT-48"/>
      </g>
     </g>
    </g>
    <g id="xtick_9">
     <g id="line2d_9">
      <g>
       <use style="stroke:#000000;stroke-width:0.8;" x="412.8875" xlink:href="#m7ac040a50b" y="248.2"/>
      </g>
     </g>
     <g id="text_9">
      <!-- 400 -->
      <g transform="translate(404.546094 262.357813)scale(0.1 -0.1)">
       <use xlink:href="#ArialMT-52"/>
       <use x="55.615234" xlink:href="#ArialMT-48"/>
       <use x="111.230469" xlink:href="#ArialMT-48"/>
      </g>
     </g>
    </g>
    <g id="text_10">
     <!-- x (m) -->
     <g transform="translate(221.522656 275.625)scale(0.1 -0.1)">
      <defs>
       <path d="M 0.734375 0 
L 19.671875 26.953125 
L 2.15625 51.859375 
L 13.140625 51.859375 
L 21.09375 39.703125 
Q 23.34375 36.234375 24.703125 33.890625 
Q 26.859375 37.109375 28.65625 39.59375 
L 37.40625 51.859375 
L 47.90625 51.859375 
L 29.984375 27.4375 
L 49.265625 0 
L 38.484375 0 
L 27.828125 16.109375 
L 25 20.453125 
L 11.375 0 
z
" id="ArialMT-120"/>
       <path id="ArialMT-32"/>
       <path d="M 23.390625 -21.046875 
Q 16.109375 -11.859375 11.078125 0.4375 
Q 6.0625 12.75 6.0625 25.921875 
Q 6.0625 37.546875 9.8125 48.1875 
Q 14.203125 60.546875 23.390625 72.796875 
L 29.6875 72.796875 
Q 23.78125 62.640625 21.875 58.296875 
Q 18.890625 51.5625 17.1875 44.234375 
Q 15.09375 35.109375 15.09375 25.875 
Q 15.09375 2.390625 29.6875 -21.046875 
z
" id="ArialMT-40"/>
       <path d="M 6.59375 0 
L 6.59375 51.859375 
L 14.453125 51.859375 
L 14.453125 44.578125 
Q 16.890625 48.390625 20.9375 50.703125 
Q 25 53.03125 30.171875 53.03125 
Q 35.9375 53.03125 39.625 50.640625 
Q 43.3125 48.25 44.828125 43.953125 
Q 50.984375 53.03125 60.84375 53.03125 
Q 68.5625 53.03125 72.703125 48.75 
Q 76.859375 44.484375 76.859375 35.59375 
L 76.859375 0 
L 68.109375 0 
L 68.109375 32.671875 
Q 68.109375 37.9375 67.25 40.25 
Q 66.40625 42.578125 64.15625 43.984375 
Q 61.921875 45.40625 58.890625 45.40625 
Q 53.421875 45.40625 49.796875 41.765625 
Q 46.1875 38.140625 46.1875 30.125 
L 46.1875 0 
L 37.40625 0 
L 37.40625 33.6875 
Q 37.40625 39.546875 35.25 42.46875 
Q 33.109375 45.40625 28.21875 45.40625 
Q 24.515625 45.40625 21.359375 43.453125 
Q 18.21875 41.5 16.796875 37.734375 
Q 15.375 33.984375 15.375 26.90625 
L 15.375 0 
z
" id="ArialMT-109"/>
       <path d="M 12.359375 -21.046875 
L 6.0625 -21.046875 
Q 20.65625 2.390625 20.65625 25.875 
Q 20.65625 35.0625 18.5625 44.09375 
Q 16.890625 51.421875 13.921875 58.15625 
Q 12.015625 62.546875 6.0625 72.796875 
L 12.359375 72.796875 
Q 21.53125 60.546875 25.921875 48.1875 
Q 29.6875 37.546875 29.6875 25.921875 
Q 29.6875 12.75 24.625 0.4375 
Q 19.578125 -11.859375 12.359375 -21.046875 
z
" id="ArialMT-41"/>
      </defs>
      <use xlink:href="#ArialMT-120"/>
      <use x="50" xlink:href="#ArialMT-32"/>
      <use x="77.783203" xlink:href="#ArialMT-40"/>
      <use x="111.083984" xlink:href="#ArialMT-109"/>
      <use x="194.384766" xlink:href="#ArialMT-41"/>
     </g>
    </g>
   </g>
   <g id="matplotlib.axis_2">
    <g id="ytick_1">
     <g id="line2d_10">
      <defs>
       <path d="M 0 0 
L -3.5 0 
" id="m8a1dd2f029" style="stroke:#000000;stroke-width:0.8;"/>
      </defs>
      <g>
       <use style="stroke:#000000;stroke-width:0.8;" x="52.925" xlink:href="#m8a1dd2f029" y="14.3"/>
      </g>
     </g>
     <g id="text_11">
      <!-- 0 -->
      <g transform="translate(40.364063 17.878906)scale(0.1 -0.1)">
       <use xlink:href="#ArialMT-48"/>
      </g>
     </g>
    </g>
    <g id="ytick_2">
     <g id="line2d_11">
      <g>
       <use style="stroke:#000000;stroke-width:0.8;" x="52.925" xlink:href="#m8a1dd2f029" y="61.08"/>
      </g>
     </g>
     <g id="text_12">
      <!-- 200 -->
      <g transform="translate(29.242188 64.658906)scale(0.1 -0.1)">
       <use xlink:href="#ArialMT-50"/>
       <use x="55.615234" xlink:href="#ArialMT-48"/>
       <use x="111.230469" xlink:href="#ArialMT-48"/>
      </g>
     </g>
    </g>
    <g id="ytick_3">
     <g id="line2d_12">
      <g>
       <use style="stroke:#000000;stroke-width:0.8;" x="52.925" xlink:href="#m8a1dd2f029" y="107.86"/>
      </g>
     </g>
     <g id="text_13">
      <!-- 400 -->
      <g transform="translate(29.242188 111.438906)scale(0.1 -0.1)">
       <use xlink:href="#ArialMT-52"/>
       <use x="55.615234" xlink:href="#ArialMT-48"/>
       <use x="111.230469" xlink:href="#ArialMT-48"/>
      </g>
     </g>
    </g>
    <g id="ytick_4">
     <g id="line2d_13">
      <g>
       <use style="stroke:#000000;stroke-width:0.8;" x="52.925" xlink:href="#m8a1dd2f029" y="154.64"/>
      </g>
     </g>
     <g id="text_14">
      <!-- 600 -->
      <g transform="translate(29.242188 158.218906)scale(0.1 -0.1)">
       <defs>
        <path d="M 49.75 54.046875 
L 41.015625 53.375 
Q 39.84375 58.546875 37.703125 60.890625 
Q 34.125 64.65625 28.90625 64.65625 
Q 24.703125 64.65625 21.53125 62.3125 
Q 17.390625 59.28125 14.984375 53.46875 
Q 12.59375 47.65625 12.5 36.921875 
Q 15.671875 41.75 20.265625 44.09375 
Q 24.859375 46.4375 29.890625 46.4375 
Q 38.671875 46.4375 44.84375 39.96875 
Q 51.03125 33.5 51.03125 23.25 
Q 51.03125 16.5 48.125 10.71875 
Q 45.21875 4.9375 40.140625 1.859375 
Q 35.0625 -1.21875 28.609375 -1.21875 
Q 17.625 -1.21875 10.6875 6.859375 
Q 3.765625 14.9375 3.765625 33.5 
Q 3.765625 54.25 11.421875 63.671875 
Q 18.109375 71.875 29.4375 71.875 
Q 37.890625 71.875 43.28125 67.140625 
Q 48.6875 62.40625 49.75 54.046875 
z
M 13.875 23.1875 
Q 13.875 18.65625 15.796875 14.5 
Q 17.71875 10.359375 21.1875 8.171875 
Q 24.65625 6 28.46875 6 
Q 34.03125 6 38.03125 10.484375 
Q 42.046875 14.984375 42.046875 22.703125 
Q 42.046875 30.125 38.078125 34.390625 
Q 34.125 38.671875 28.125 38.671875 
Q 22.171875 38.671875 18.015625 34.390625 
Q 13.875 30.125 13.875 23.1875 
z
" id="ArialMT-54"/>
       </defs>
       <use xlink:href="#ArialMT-54"/>
       <use x="55.615234" xlink:href="#ArialMT-48"/>
       <use x="111.230469" xlink:href="#ArialMT-48"/>
      </g>
     </g>
    </g>
    <g id="ytick_5">
     <g id="line2d_14">
      <g>
       <use style="stroke:#000000;stroke-width:0.8;" x="52.925" xlink:href="#m8a1dd2f029" y="201.42"/>
      </g>
     </g>
     <g id="text_15">
      <!-- 800 -->
      <g transform="translate(29.242188 204.998906)scale(0.1 -0.1)">
       <defs>
        <path d="M 17.671875 38.8125 
Q 12.203125 40.828125 9.5625 44.53125 
Q 6.9375 48.25 6.9375 53.421875 
Q 6.9375 61.234375 12.546875 66.546875 
Q 18.171875 71.875 27.484375 71.875 
Q 36.859375 71.875 42.578125 66.421875 
Q 48.296875 60.984375 48.296875 53.171875 
Q 48.296875 48.1875 45.671875 44.5 
Q 43.0625 40.828125 37.75 38.8125 
Q 44.34375 36.671875 47.78125 31.875 
Q 51.21875 27.09375 51.21875 20.453125 
Q 51.21875 11.28125 44.71875 5.03125 
Q 38.234375 -1.21875 27.640625 -1.21875 
Q 17.046875 -1.21875 10.546875 5.046875 
Q 4.046875 11.328125 4.046875 20.703125 
Q 4.046875 27.6875 7.59375 32.390625 
Q 11.140625 37.109375 17.671875 38.8125 
z
M 15.921875 53.71875 
Q 15.921875 48.640625 19.1875 45.40625 
Q 22.46875 42.1875 27.6875 42.1875 
Q 32.765625 42.1875 36.015625 45.375 
Q 39.265625 48.578125 39.265625 53.21875 
Q 39.265625 58.0625 35.90625 61.359375 
Q 32.5625 64.65625 27.59375 64.65625 
Q 22.5625 64.65625 19.234375 61.421875 
Q 15.921875 58.203125 15.921875 53.71875 
z
M 13.09375 20.65625 
Q 13.09375 16.890625 14.875 13.375 
Q 16.65625 9.859375 20.171875 7.921875 
Q 23.6875 6 27.734375 6 
Q 34.03125 6 38.125 10.046875 
Q 42.234375 14.109375 42.234375 20.359375 
Q 42.234375 26.703125 38.015625 30.859375 
Q 33.796875 35.015625 27.4375 35.015625 
Q 21.234375 35.015625 17.15625 30.90625 
Q 13.09375 26.8125 13.09375 20.65625 
z
" id="ArialMT-56"/>
       </defs>
       <use xlink:href="#ArialMT-56"/>
       <use x="55.615234" xlink:href="#ArialMT-48"/>
       <use x="111.230469" xlink:href="#ArialMT-48"/>
      </g>
     </g>
    </g>
    <g id="ytick_6">
     <g id="line2d_15">
      <g>
       <use style="stroke:#000000;stroke-width:0.8;" x="52.925" xlink:href="#m8a1dd2f029" y="248.2"/>
      </g>
     </g>
     <g id="text_16">
      <!-- 1000 -->
      <g transform="translate(23.68125 251.778906)scale(0.1 -0.1)">
       <use xlink:href="#ArialMT-49"/>
       <use x="55.615234" xlink:href="#ArialMT-48"/>
       <use x="111.230469" xlink:href="#ArialMT-48"/>
       <use x="166.845703" xlink:href="#ArialMT-48"/>
      </g>
     </g>
    </g>
    <g id="text_17">
     <!-- Depth below seafloor (m) -->
     <g transform="translate(17.576563 187.103125)rotate(-90)scale(0.1 -0.1)">
      <defs>
       <path d="M 7.71875 0 
L 7.71875 71.578125 
L 32.375 71.578125 
Q 40.71875 71.578125 45.125 70.5625 
Q 51.265625 69.140625 55.609375 65.4375 
Q 61.28125 60.640625 64.078125 53.1875 
Q 66.890625 45.75 66.890625 36.1875 
Q 66.890625 28.03125 64.984375 21.734375 
Q 63.09375 15.4375 60.109375 11.296875 
Q 57.125 7.171875 53.578125 4.796875 
Q 50.046875 2.4375 45.046875 1.21875 
Q 40.046875 0 33.546875 0 
z
M 17.1875 8.453125 
L 32.46875 8.453125 
Q 39.546875 8.453125 43.578125 9.765625 
Q 47.609375 11.078125 50 13.484375 
Q 53.375 16.84375 55.25 22.53125 
Q 57.125 28.21875 57.125 36.328125 
Q 57.125 47.5625 53.4375 53.59375 
Q 49.75 59.625 44.484375 61.671875 
Q 40.671875 63.140625 32.234375 63.140625 
L 17.1875 63.140625 
z
" id="ArialMT-68"/>
       <path d="M 42.09375 16.703125 
L 51.171875 15.578125 
Q 49.03125 7.625 43.21875 3.21875 
Q 37.40625 -1.171875 28.375 -1.171875 
Q 17 -1.171875 10.328125 5.828125 
Q 3.65625 12.84375 3.65625 25.484375 
Q 3.65625 38.578125 10.390625 45.796875 
Q 17.140625 53.03125 27.875 53.03125 
Q 38.28125 53.03125 44.875 45.953125 
Q 51.46875 38.875 51.46875 26.03125 
Q 51.46875 25.25 51.421875 23.6875 
L 12.75 23.6875 
Q 13.234375 15.140625 17.578125 10.59375 
Q 21.921875 6.0625 28.421875 6.0625 
Q 33.25 6.0625 36.671875 8.59375 
Q 40.09375 11.140625 42.09375 16.703125 
z
M 13.234375 30.90625 
L 42.1875 30.90625 
Q 41.609375 37.453125 38.875 40.71875 
Q 34.671875 45.796875 27.984375 45.796875 
Q 21.921875 45.796875 17.796875 41.75 
Q 13.671875 37.703125 13.234375 30.90625 
z
" id="ArialMT-101"/>
       <path d="M 6.59375 -19.875 
L 6.59375 51.859375 
L 14.59375 51.859375 
L 14.59375 45.125 
Q 17.4375 49.078125 21 51.046875 
Q 24.5625 53.03125 29.640625 53.03125 
Q 36.28125 53.03125 41.359375 49.609375 
Q 46.4375 46.1875 49.015625 39.953125 
Q 51.609375 33.734375 51.609375 26.3125 
Q 51.609375 18.359375 48.75 11.984375 
Q 45.90625 5.609375 40.453125 2.21875 
Q 35.015625 -1.171875 29 -1.171875 
Q 24.609375 -1.171875 21.109375 0.6875 
Q 17.625 2.546875 15.375 5.375 
L 15.375 -19.875 
z
M 14.546875 25.640625 
Q 14.546875 15.625 18.59375 10.84375 
Q 22.65625 6.0625 28.421875 6.0625 
Q 34.28125 6.0625 38.453125 11.015625 
Q 42.625 15.96875 42.625 26.375 
Q 42.625 36.28125 38.546875 41.203125 
Q 34.46875 46.140625 28.8125 46.140625 
Q 23.1875 46.140625 18.859375 40.890625 
Q 14.546875 35.640625 14.546875 25.640625 
z
" id="ArialMT-112"/>
       <path d="M 25.78125 7.859375 
L 27.046875 0.09375 
Q 23.34375 -0.6875 20.40625 -0.6875 
Q 15.625 -0.6875 12.984375 0.828125 
Q 10.359375 2.34375 9.28125 4.8125 
Q 8.203125 7.28125 8.203125 15.1875 
L 8.203125 45.015625 
L 1.765625 45.015625 
L 1.765625 51.859375 
L 8.203125 51.859375 
L 8.203125 64.703125 
L 16.9375 69.96875 
L 16.9375 51.859375 
L 25.78125 51.859375 
L 25.78125 45.015625 
L 16.9375 45.015625 
L 16.9375 14.703125 
Q 16.9375 10.9375 17.40625 9.859375 
Q 17.875 8.796875 18.921875 8.15625 
Q 19.96875 7.515625 21.921875 7.515625 
Q 23.390625 7.515625 25.78125 7.859375 
z
" id="ArialMT-116"/>
       <path d="M 6.59375 0 
L 6.59375 71.578125 
L 15.375 71.578125 
L 15.375 45.90625 
Q 21.53125 53.03125 30.90625 53.03125 
Q 36.671875 53.03125 40.921875 50.75 
Q 45.171875 48.484375 47 44.484375 
Q 48.828125 40.484375 48.828125 32.859375 
L 48.828125 0 
L 40.046875 0 
L 40.046875 32.859375 
Q 40.046875 39.453125 37.1875 42.453125 
Q 34.328125 45.453125 29.109375 45.453125 
Q 25.203125 45.453125 21.75 43.421875 
Q 18.3125 41.40625 16.84375 37.9375 
Q 15.375 34.46875 15.375 28.375 
L 15.375 0 
z
" id="ArialMT-104"/>
       <path d="M 14.703125 0 
L 6.546875 0 
L 6.546875 71.578125 
L 15.328125 71.578125 
L 15.328125 46.046875 
Q 20.90625 53.03125 29.546875 53.03125 
Q 34.328125 53.03125 38.59375 51.09375 
Q 42.875 49.171875 45.625 45.671875 
Q 48.390625 42.1875 49.953125 37.25 
Q 51.515625 32.328125 51.515625 26.703125 
Q 51.515625 13.375 44.921875 6.09375 
Q 38.328125 -1.171875 29.109375 -1.171875 
Q 19.921875 -1.171875 14.703125 6.5 
z
M 14.59375 26.3125 
Q 14.59375 17 17.140625 12.84375 
Q 21.296875 6.0625 28.375 6.0625 
Q 34.125 6.0625 38.328125 11.0625 
Q 42.53125 16.0625 42.53125 25.984375 
Q 42.53125 36.140625 38.5 40.96875 
Q 34.46875 45.796875 28.765625 45.796875 
Q 23 45.796875 18.796875 40.796875 
Q 14.59375 35.796875 14.59375 26.3125 
z
" id="ArialMT-98"/>
       <path d="M 6.390625 0 
L 6.390625 71.578125 
L 15.1875 71.578125 
L 15.1875 0 
z
" id="ArialMT-108"/>
       <path d="M 3.328125 25.921875 
Q 3.328125 40.328125 11.328125 47.265625 
Q 18.015625 53.03125 27.640625 53.03125 
Q 38.328125 53.03125 45.109375 46.015625 
Q 51.90625 39.015625 51.90625 26.65625 
Q 51.90625 16.65625 48.90625 10.90625 
Q 45.90625 5.171875 40.15625 2 
Q 34.421875 -1.171875 27.640625 -1.171875 
Q 16.75 -1.171875 10.03125 5.8125 
Q 3.328125 12.796875 3.328125 25.921875 
z
M 12.359375 25.921875 
Q 12.359375 15.96875 16.703125 11.015625 
Q 21.046875 6.0625 27.640625 6.0625 
Q 34.1875 6.0625 38.53125 11.03125 
Q 42.875 16.015625 42.875 26.21875 
Q 42.875 35.84375 38.5 40.796875 
Q 34.125 45.75 27.640625 45.75 
Q 21.046875 45.75 16.703125 40.8125 
Q 12.359375 35.890625 12.359375 25.921875 
z
" id="ArialMT-111"/>
       <path d="M 16.15625 0 
L 0.296875 51.859375 
L 9.375 51.859375 
L 17.625 21.921875 
L 20.703125 10.796875 
Q 20.90625 11.625 23.390625 21.484375 
L 31.640625 51.859375 
L 40.671875 51.859375 
L 48.4375 21.78125 
L 51.03125 11.859375 
L 54 21.875 
L 62.890625 51.859375 
L 71.4375 51.859375 
L 55.21875 0 
L 46.09375 0 
L 37.84375 31.0625 
L 35.84375 39.890625 
L 25.34375 0 
z
" id="ArialMT-119"/>
       <path d="M 3.078125 15.484375 
L 11.765625 16.84375 
Q 12.5 11.625 15.84375 8.84375 
Q 19.1875 6.0625 25.203125 6.0625 
Q 31.25 6.0625 34.171875 8.515625 
Q 37.109375 10.984375 37.109375 14.3125 
Q 37.109375 17.28125 34.515625 19 
Q 32.71875 20.171875 25.53125 21.96875 
Q 15.875 24.421875 12.140625 26.203125 
Q 8.40625 27.984375 6.46875 31.125 
Q 4.546875 34.28125 4.546875 38.09375 
Q 4.546875 41.546875 6.125 44.5 
Q 7.71875 47.46875 10.453125 49.421875 
Q 12.5 50.921875 16.03125 51.96875 
Q 19.578125 53.03125 23.640625 53.03125 
Q 29.734375 53.03125 34.34375 51.265625 
Q 38.96875 49.515625 41.15625 46.5 
Q 43.359375 43.5 44.1875 38.484375 
L 35.59375 37.3125 
Q 35.015625 41.3125 32.203125 43.546875 
Q 29.390625 45.796875 24.265625 45.796875 
Q 18.21875 45.796875 15.625 43.796875 
Q 13.03125 41.796875 13.03125 39.109375 
Q 13.03125 37.40625 14.109375 36.03125 
Q 15.1875 34.625 17.484375 33.6875 
Q 18.796875 33.203125 25.25 31.453125 
Q 34.578125 28.953125 38.25 27.359375 
Q 41.9375 25.78125 44.03125 22.75 
Q 46.140625 19.734375 46.140625 15.234375 
Q 46.140625 10.84375 43.578125 6.953125 
Q 41.015625 3.078125 36.171875 0.953125 
Q 31.34375 -1.171875 25.25 -1.171875 
Q 15.140625 -1.171875 9.84375 3.03125 
Q 4.546875 7.234375 3.078125 15.484375 
z
" id="ArialMT-115"/>
       <path d="M 40.4375 6.390625 
Q 35.546875 2.25 31.03125 0.53125 
Q 26.515625 -1.171875 21.34375 -1.171875 
Q 12.796875 -1.171875 8.203125 3 
Q 3.609375 7.171875 3.609375 13.671875 
Q 3.609375 17.484375 5.34375 20.625 
Q 7.078125 23.78125 9.890625 25.6875 
Q 12.703125 27.59375 16.21875 28.5625 
Q 18.796875 29.25 24.03125 29.890625 
Q 34.671875 31.15625 39.703125 32.90625 
Q 39.75 34.71875 39.75 35.203125 
Q 39.75 40.578125 37.25 42.78125 
Q 33.890625 45.75 27.25 45.75 
Q 21.046875 45.75 18.09375 43.578125 
Q 15.140625 41.40625 13.71875 35.890625 
L 5.125 37.0625 
Q 6.296875 42.578125 8.984375 45.96875 
Q 11.671875 49.359375 16.75 51.1875 
Q 21.828125 53.03125 28.515625 53.03125 
Q 35.15625 53.03125 39.296875 51.46875 
Q 43.453125 49.90625 45.40625 47.53125 
Q 47.359375 45.171875 48.140625 41.546875 
Q 48.578125 39.3125 48.578125 33.453125 
L 48.578125 21.734375 
Q 48.578125 9.46875 49.140625 6.21875 
Q 49.703125 2.984375 51.375 0 
L 42.1875 0 
Q 40.828125 2.734375 40.4375 6.390625 
z
M 39.703125 26.03125 
Q 34.90625 24.078125 25.34375 22.703125 
Q 19.921875 21.921875 17.671875 20.9375 
Q 15.4375 19.96875 14.203125 18.09375 
Q 12.984375 16.21875 12.984375 13.921875 
Q 12.984375 10.40625 15.640625 8.0625 
Q 18.3125 5.71875 23.4375 5.71875 
Q 28.515625 5.71875 32.46875 7.9375 
Q 36.421875 10.15625 38.28125 14.015625 
Q 39.703125 17 39.703125 22.796875 
z
" id="ArialMT-97"/>
       <path d="M 8.6875 0 
L 8.6875 45.015625 
L 0.921875 45.015625 
L 0.921875 51.859375 
L 8.6875 51.859375 
L 8.6875 57.375 
Q 8.6875 62.59375 9.625 65.140625 
Q 10.890625 68.5625 14.078125 70.671875 
Q 17.28125 72.796875 23.046875 72.796875 
Q 26.765625 72.796875 31.25 71.921875 
L 29.9375 64.265625 
Q 27.203125 64.75 24.75 64.75 
Q 20.75 64.75 19.09375 63.03125 
Q 17.4375 61.328125 17.4375 56.640625 
L 17.4375 51.859375 
L 27.546875 51.859375 
L 27.546875 45.015625 
L 17.4375 45.015625 
L 17.4375 0 
z
" id="ArialMT-102"/>
       <path d="M 6.5 0 
L 6.5 51.859375 
L 14.40625 51.859375 
L 14.40625 44 
Q 17.4375 49.515625 20 51.265625 
Q 22.5625 53.03125 25.640625 53.03125 
Q 30.078125 53.03125 34.671875 50.203125 
L 31.640625 42.046875 
Q 28.421875 43.953125 25.203125 43.953125 
Q 22.3125 43.953125 20.015625 42.21875 
Q 17.71875 40.484375 16.75 37.40625 
Q 15.28125 32.71875 15.28125 27.15625 
L 15.28125 0 
z
" id="ArialMT-114"/>
      </defs>
      <use xlink:href="#ArialMT-68"/>
      <use x="72.216797" xlink:href="#ArialMT-101"/>
      <use x="127.832031" xlink:href="#ArialMT-112"/>
      <use x="183.447266" xlink:href="#ArialMT-116"/>
      <use x="211.230469" xlink:href="#ArialMT-104"/>
      <use x="266.845703" xlink:href="#ArialMT-32"/>
      <use x="294.628906" xlink:href="#ArialMT-98"/>
      <use x="350.244141" xlink:href="#ArialMT-101"/>
      <use x="405.859375" xlink:href="#ArialMT-108"/>
      <use x="428.076172" xlink:href="#ArialMT-111"/>
      <use x="483.691406" xlink:href="#ArialMT-119"/>
      <use x="555.908203" xlink:href="#ArialMT-32"/>
      <use x="583.691406" xlink:href="#ArialMT-115"/>
      <use x="633.691406" xlink:href="#ArialMT-101"/>
      <use x="689.306641" xlink:href="#ArialMT-97"/>
      <use x="744.921875" xlink:href="#ArialMT-102"/>
      <use x="772.705078" xlink:href="#ArialMT-108"/>
      <use x="794.921875" xlink:href="#ArialMT-111"/>
      <use x="850.537109" xlink:href="#ArialMT-111"/>
      <use x="906.152344" xlink:href="#ArialMT-114"/>
      <use x="939.453125" xlink:href="#ArialMT-32"/>
      <use x="967.236328" xlink:href="#ArialMT-40"/>
      <use x="1000.537109" xlink:href="#ArialMT-109"/>
      <use x="1083.837891" xlink:href="#ArialMT-41"/>
     </g>
    </g>
   </g>
   <g id="LineCollection_1">
    <path clip-path="url(#p0ca8dfd789)" d="M 147.286173 248.2 
L 151.914688 247.729418 
L 168.78793 245.839821 
L 172.162578 245.405586 
L 179.359595 244.458761 
L 197.255657 241.947433 
L 202.81926 241.183 
L 209.283711 240.259167 
L 217.157891 239.16819 
L 222.963861 238.353629 
L 227.519522 237.6745 
L 235.156016 236.129973 
L 240.864743 234.166 
L 245.279961 231.634837 
L 247.529727 229.943357 
L 249.440165 228.3185 
L 252.728979 225.173737 
L 258.17512 218.9625 
L 262.693929 212.53025 
L 263.755063 210.776 
L 267.608255 203.17425 
L 271.017239 194.332809 
L 271.413625 193.2335 
L 271.885398 191.860356 
L 272.321297 190.2868 
L 273.031498 188.362885 
L 273.473319 186.764192 
L 274.105104 185.41248 
L 274.526914 183.992416 
L 274.712768 183.8775 
L 275.147342 183.615268 
L 275.651797 182.904962 
L 275.928606 183.8775 
L 276.117681 185.047 
L 276.208179 186.2165 
L 276.233844 187.386 
L 276.187564 189.14025 
L 276.106932 190.657906 
L 275.824069 193.323052 
L 275.490557 195.5725 
L 274.856418 198.667537 
L 274.526914 200.310519 
L 273.721445 203.17425 
L 273.153414 205.057739 
L 270.62279 211.635988 
L 267.41813 217.979873 
L 263.699698 224.006082 
L 259.287581 230.6575 
L 258.287933 232.41175 
L 257.505 234.166 
L 257.197592 235.572585 
L 257.150701 236.505 
L 257.295604 237.275885 
L 257.653672 238.190999 
L 258.167328 238.844 
L 258.778615 239.42875 
L 261.178305 240.676217 
L 263.64688 241.374711 
L 267.777617 242.136996 
L 271.921389 242.752315 
L 307.148516 247.072336 
L 318.526327 248.2 
L 318.526327 248.2 
" style="fill:none;stroke:#27dade;stroke-width:0.3;"/>
   </g>
   <g id="LineCollection_2">
    <path clip-path="url(#p0ca8dfd789)" d="M 156.547042 248.2 
L 169.912813 246.782841 
L 182.318263 245.259751 
L 225.03207 239.583551 
L 230.656484 238.637335 
L 235.276634 237.611798 
L 238.530664 236.674993 
L 242.018175 235.394169 
L 246.137321 233.442183 
L 248.654609 232.050662 
L 252.029258 230.358071 
L 253.294018 230.000037 
L 254.279023 230.157511 
L 254.58938 230.6575 
L 254.746162 230.999416 
L 254.676285 232.033509 
L 254.644027 232.9965 
L 254.577148 233.58125 
L 254.465198 236.01703 
L 254.661023 237.08975 
L 255.18206 238.25925 
L 256.137944 239.42875 
L 256.84457 240.0135 
L 257.739901 240.59825 
L 259.903437 241.579222 
L 262.463239 242.3525 
L 265.527852 243.003944 
L 270.513695 243.774801 
L 280.920605 245.091395 
L 302.648984 247.561096 
L 309.265458 248.2 
L 309.265458 248.2 
" style="fill:none;stroke:#52f5cb;stroke-width:0.3;"/>
   </g>
   <g id="LineCollection_3">
    <path clip-path="url(#p0ca8dfd789)" d="M 165.007055 248.2 
L 179.253877 246.623533 
L 196.91 244.453302 
L 227.329752 240.59825 
L 232.90625 239.585338 
L 236.446618 238.757853 
L 240.239623 237.6745 
L 247.770638 235.3355 
L 248.654609 235.215122 
L 249.823917 235.3355 
L 250.904375 235.928574 
L 252.4234 237.879388 
L 253.28418 238.911599 
L 254.438462 240.0135 
L 256.334558 241.283968 
L 258.778555 242.381123 
L 261.02832 243.100466 
L 263.65307 243.716929 
L 267.059973 244.318446 
L 272.65808 245.07823 
L 285.775742 246.607162 
L 300.805445 248.2 
L 300.805445 248.2 
" style="fill:none;stroke:#7dffb6;stroke-width:0.3;"/>
   </g>
   <g id="LineCollection_4">
    <path clip-path="url(#p0ca8dfd789)" d="M 173.062253 248.2 
L 191.285586 246.148386 
L 229.531602 241.598635 
L 235.156016 240.559565 
L 239.779893 239.493389 
L 244.155078 238.4758 
L 246.404844 238.214 
L 247.529727 238.270138 
L 249.001249 238.663805 
L 250.449551 239.42875 
L 252.160298 240.530131 
L 253.702253 241.482824 
L 256.528789 242.828494 
L 257.653672 243.253296 
L 260.513604 244.10675 
L 263.278086 244.712313 
L 267.777617 245.426998 
L 276.77668 246.500062 
L 292.750247 248.2 
L 292.750247 248.2 
" style="fill:none;stroke:#a8f79c;stroke-width:0.3;"/>
   </g>
   <g id="LineCollection_5">
    <path clip-path="url(#p0ca8dfd789)" d="M 181.023134 248.2 
L 231.327209 242.701164 
L 238.530664 241.471818 
L 243.030195 240.757606 
L 245.279961 240.64031 
L 246.721637 240.762929 
L 247.901546 240.989716 
L 249.779492 241.5907 
L 253.698744 243.238898 
L 257.045991 244.375608 
L 259.903437 245.118274 
L 263.425681 245.784275 
L 268.9025 246.522438 
L 280.415785 247.752723 
L 284.789366 248.2 
L 284.789366 248.2 
" style="fill:none;stroke:#d2de81;stroke-width:0.3;"/>
   </g>
   <g id="LineCollection_6">
    <path clip-path="url(#p0ca8dfd789)" d="M 189.219062 248.2 
L 211.203658 246.03245 
L 229.848981 244.271734 
L 243.030195 242.804532 
L 245.418952 242.864998 
L 247.529727 243.156307 
L 250.995947 244.059148 
L 256.110244 245.493823 
L 261.051308 246.4577 
L 266.396542 247.163677 
L 276.593438 248.2 
L 276.593438 248.2 
" style="fill:none;stroke:#feb562;stroke-width:0.3;"/>
   </g>
   <g id="LineCollection_7">
    <path clip-path="url(#p0ca8dfd789)" d="M 198.138377 248.2 
L 213.783242 246.842344 
L 242.082441 244.783577 
L 244.914103 244.881685 
L 247.300186 245.156927 
L 250.137338 245.67498 
L 258.45802 247.197124 
L 267.674123 248.2 
L 267.674123 248.2 
" style="fill:none;stroke:#ff8143;stroke-width:0.3;"/>
   </g>
   <g id="LineCollection_8">
    <path clip-path="url(#p0ca8dfd789)" d="M 208.900647 248.2 
L 209.234885 248.174619 
L 209.283711 248.170703 
L 210.219854 248.101887 
L 210.408594 248.087156 
L 211.207316 248.030452 
L 211.533477 248.005698 
L 211.968326 247.973952 
L 212.658359 247.926334 
L 213.189603 247.891407 
L 213.783242 247.849016 
L 214.560656 247.795876 
L 214.908125 247.773757 
L 215.181421 247.757318 
L 216.033008 247.700552 
L 217.127482 247.631057 
L 217.157891 247.629295 
L 217.182356 247.627968 
L 217.388141 247.61525 
L 218.282773 247.558964 
L 219.194974 247.504691 
L 219.407656 247.490349 
L 219.681914 247.472682 
L 220.532539 247.423631 
L 221.217517 247.386573 
L 221.657422 247.358696 
L 222.215728 247.325025 
L 222.782305 247.295432 
L 223.475115 247.255105 
L 223.907187 247.233763 
L 224.729822 247.187618 
L 225.03207 247.173563 
L 225.286474 247.162747 
L 226.156953 247.114815 
L 226.307749 247.108888 
L 227.281836 247.057443 
L 227.83 247.0305 
L 228.356356 247.00432 
L 228.406719 247.001091 
L 228.470779 246.997199 
L 229.531602 246.945961 
L 230.418685 246.906884 
L 230.656484 246.892519 
L 231.453543 246.860087 
L 231.781367 246.841101 
L 232.187217 246.819527 
L 232.90625 246.792193 
L 233.412764 246.767198 
L 234.031133 246.746556 
L 234.628585 246.719925 
L 235.156016 246.705169 
L 235.635865 246.695191 
L 236.280898 246.669426 
L 236.7004 246.66382 
L 237.405781 246.641131 
L 238.187744 246.624011 
L 238.530664 246.62235 
L 238.874035 246.624245 
L 239.655547 246.615644 
L 239.993612 246.621487 
L 240.78043 246.623714 
L 241.144207 246.634853 
L 241.905313 246.64915 
L 242.334118 246.668657 
L 243.030195 246.6943 
L 243.614081 246.726978 
L 244.155078 246.760656 
L 244.607169 246.795489 
L 245.279961 246.848401 
L 246.228872 246.939024 
L 246.404844 246.956299 
L 246.520761 246.970242 
L 247.0674 247.0305 
L 247.448803 247.072567 
L 247.529727 247.080629 
L 248.358694 247.184326 
L 248.654609 247.216441 
L 249.119454 247.272141 
L 249.779492 247.360147 
L 250.161263 247.416793 
L 250.904375 247.506903 
L 251.731679 247.61525 
L 251.970238 247.645931 
L 252.029258 247.651739 
L 252.116942 247.660831 
L 253.154141 247.790041 
L 253.57385 247.833428 
L 254.279023 247.921671 
L 255.01333 247.996966 
L 255.403906 248.045606 
L 255.641571 248.076454 
L 256.528789 248.161705 
L 256.911853 248.2 
" style="fill:none;stroke:#ff4121;stroke-width:0.3;"/>
   </g>
   <g id="LineCollection_9">
    <path clip-path="url(#p0ca8dfd789)" d="M 102.646569 248.2 
L 105.794492 247.369564 
L 115.918438 245.011863 
L 128.572283 242.498123 
L 159.788867 237.027545 
L 196.090911 229.913788 
L 207.033945 227.442056 
L 211.533477 226.234053 
L 214.908125 225.135365 
L 217.181855 224.22525 
L 219.526819 222.993805 
L 221.091544 221.88625 
L 222.456943 220.547616 
L 223.212323 219.54725 
L 223.907187 218.292307 
L 224.504168 216.6235 
L 224.870402 214.78521 
L 225.012554 213.115 
L 224.984408 210.751223 
L 224.670964 207.664535 
L 224.090496 204.24846 
L 223.192396 200.2505 
L 221.779774 194.98775 
L 219.994324 189.14025 
L 217.030938 180.303006 
L 212.399587 167.5045 
L 201.9947 139.4365 
L 198.372463 128.911 
L 195.652915 120.208473 
L 193.695081 113.12275 
L 192.167612 106.6905 
L 191.136598 101.42775 
L 190.408084 96.74975 
L 189.829147 91.487 
L 189.536465 86.22425 
L 189.52952 82.131 
L 189.735148 78.03775 
L 190.160703 74.053147 
L 190.689404 70.745915 
L 191.524667 66.9275 
L 192.517414 63.419 
L 193.742439 59.9105 
L 195.220752 56.402 
L 196.98004 52.8935 
L 198.792642 49.778908 
L 201.013405 46.46125 
L 203.369192 43.386694 
L 206.303542 40.029 
L 208.603009 37.69 
L 211.816403 34.76625 
L 215.462114 31.8425 
L 218.750259 29.5035 
L 222.782305 26.961152 
L 226.156953 25.062583 
L 229.531602 23.348836 
L 233.401929 21.57467 
L 239.122944 19.285886 
L 247.032334 16.380439 
L 248.654609 15.566703 
L 249.247982 15.193204 
L 249.449481 14.88475 
L 249.687202 14.3 
L 249.687202 14.3 
" style="fill:none;stroke:#5a3bfd;stroke-width:1.5;"/>
    <path clip-path="url(#p0ca8dfd789)" d="M 315.081903 14.3 
L 315.293892 14.88475 
L 316.147578 15.636799 
L 318.397344 16.727548 
L 324.428023 18.978 
L 329.953792 21.157089 
L 334.776882 23.327893 
L 339.897318 25.995 
L 344.025157 28.461095 
L 348.39791 31.450748 
L 352.143828 34.391332 
L 354.814597 36.739351 
L 357.575623 39.44425 
L 360.500714 42.701824 
L 362.719079 45.526353 
L 364.585087 48.2155 
L 366.364509 51.13925 
L 367.89642 54.0652 
L 369.204095 56.98675 
L 370.331774 60.009175 
L 370.764511 61.356102 
L 370.764511 61.356102 
" style="fill:none;stroke:#5a3bfd;stroke-width:1.5;"/>
    <path clip-path="url(#p0ca8dfd789)" d="M 366.170794 107.544796 
L 363.712979 113.289264 
L 360.600463 119.857779 
L 356.537905 127.7415 
L 352.3429 135.446734 
L 325.633712 183.29275 
L 316.926957 198.675854 
L 313.333724 204.635269 
L 307.817647 213.115 
L 305.375964 216.6235 
L 299.107344 225.481558 
L 297.848585 227.73375 
L 297.251754 229.488 
L 297.188551 230.6575 
L 297.532762 231.827 
L 298.149453 232.68643 
L 298.763933 233.261824 
L 299.274336 233.655991 
L 300.399219 234.325414 
L 302.672017 235.347473 
L 306.190163 236.505 
L 311.648047 237.875435 
L 317.272461 239.049298 
L 337.520352 242.682174 
L 344.488415 243.993028 
L 360.018008 247.388501 
L 363.165931 248.2 
L 363.165931 248.2 
" style="fill:none;stroke:#5a3bfd;stroke-width:1.5;"/>
   </g>
   <g id="LineCollection_10">
    <path clip-path="url(#p0ca8dfd789)" d="M 123.101026 248.2 
L 127.571868 247.404925 
L 134.139335 246.329946 
L 142.523124 245.072216 
L 154.886419 243.312551 
L 165.156545 241.76775 
L 223.907187 232.178981 
L 228.613428 231.24225 
L 231.781367 230.38741 
L 234.265069 229.488 
L 236.603389 228.3185 
L 238.530664 227.013687 
L 240.322676 225.39475 
L 242.276203 223.05575 
L 244.155078 220.048962 
L 245.73711 216.6235 
L 247.16748 212.341942 
L 247.713539 210.19125 
L 248.449829 206.098 
L 248.82625 202.5895 
L 248.983331 199.66575 
L 248.992996 194.98775 
L 248.710921 189.695727 
L 248.181698 184.46225 
L 247.201509 177.44525 
L 245.887132 169.8435 
L 243.80798 159.318 
L 240.233569 142.644526 
L 233.078477 109.524721 
L 230.172102 94.9955 
L 228.60788 86.11968 
L 227.570594 79.057144 
L 226.920259 73.171791 
L 226.573224 68.097 
L 226.48039 63.835617 
L 226.605647 59.677255 
L 226.949851 55.81725 
L 227.487377 52.30875 
L 228.126008 49.385 
L 229.048386 46.210059 
L 229.854015 43.954649 
L 231.176661 40.928096 
L 232.584016 38.27475 
L 234.038548 35.931895 
L 236.08739 33.112592 
L 238.151565 30.673 
L 241.905313 26.923434 
L 245.746519 23.656 
L 249.604234 20.641145 
L 252.58908 18.099513 
L 253.8498 16.639 
L 254.528496 15.4695 
L 254.771218 14.555858 
L 254.79839 14.3 
L 254.79839 14.3 
" style="fill:none;stroke:#3079f7;stroke-width:1.5;"/>
    <path clip-path="url(#p0ca8dfd789)" d="M 309.836991 14.3 
L 310.090401 15.4695 
L 310.983153 16.984633 
L 312.85742 18.934079 
L 315.022695 20.762927 
L 317.649375 22.875318 
L 319.522227 24.393845 
L 323.273602 27.74925 
L 326.790454 31.527507 
L 328.829076 34.1815 
L 330.359275 36.5205 
L 332.231147 40.029 
L 333.546214 43.264384 
L 334.212579 45.326514 
L 334.947688 48.383352 
L 335.397383 51.13925 
L 335.693283 54.64775 
L 335.731185 57.810934 
L 335.543311 61.374164 
L 335.543311 61.374164 
" style="fill:none;stroke:#3079f7;stroke-width:1.5;"/>
    <path clip-path="url(#p0ca8dfd789)" d="M 323.27667 107.533101 
L 318.554696 122.560547 
L 315.270644 133.589 
L 311.648047 146.334318 
L 305.104227 169.8435 
L 301.74293 180.95375 
L 298.948088 189.14025 
L 297.02457 194.139786 
L 295.186559 198.49625 
L 292.683615 203.759 
L 289.816552 209.02175 
L 288.018568 211.949108 
L 285.775742 215.293888 
L 283.957118 217.793 
L 280.670902 221.88625 
L 272.665831 231.24225 
L 271.780498 232.9965 
L 271.648743 234.166 
L 271.804421 234.75075 
L 272.277148 235.454165 
L 272.788381 235.92025 
L 273.73583 236.505 
L 275.651797 237.286182 
L 277.901563 237.958377 
L 281.646231 238.844 
L 290.275273 240.42831 
L 297.412694 241.565991 
L 304.89875 242.685868 
L 336.24896 247.10666 
L 342.711474 248.2 
L 342.711474 248.2 
" style="fill:none;stroke:#3079f7;stroke-width:1.5;"/>
   </g>
   <g id="LineCollection_11">
    <path clip-path="url(#p0ca8dfd789)" d="M 136.583324 248.2 
L 141.790742 247.487076 
L 147.415156 246.790336 
L 157.03682 245.599898 
L 167.663047 244.200179 
L 203.659297 238.837971 
L 213.783242 237.321048 
L 227.322705 235.314255 
L 232.90625 234.237369 
L 236.280898 233.298955 
L 238.636884 232.41175 
L 241.390408 230.974586 
L 242.802355 230.07275 
L 244.607744 228.66794 
L 246.404844 227.010818 
L 248.654609 224.563663 
L 251.703053 220.547178 
L 252.763784 218.9625 
L 254.279023 216.44797 
L 256.285809 212.53025 
L 257.653672 209.329231 
L 259.033025 205.380968 
L 260.151282 201.291163 
L 261.083957 196.713078 
L 261.735981 192.064 
L 262.119211 187.95308 
L 262.367775 183.181208 
L 262.448803 176.8605 
L 262.263819 168.674 
L 261.747412 158.1485 
L 260.643517 139.4365 
L 260.135405 129.49575 
L 259.678955 117.80075 
L 259.347447 102.59725 
L 259.356471 84.754331 
L 259.525222 76.2835 
L 259.991506 64.5885 
L 260.565329 56.161322 
L 261.307627 48.80025 
L 262.227551 42.329352 
L 263.278086 36.849614 
L 264.51519 31.8425 
L 265.551096 28.334 
L 269.881845 14.960405 
L 269.947844 14.3 
L 269.947844 14.3 
" style="fill:none;stroke:#04b0ed;stroke-width:1.5;"/>
    <path clip-path="url(#p0ca8dfd789)" d="M 294.319496 14.3 
L 294.510482 15.606903 
L 295.580436 19.56275 
L 297.352345 25.580638 
L 298.594122 30.673 
L 299.436588 35.351 
L 300.019417 40.226433 
L 300.345181 44.707 
L 300.514667 49.96975 
L 300.493308 56.450911 
L 300.354386 61.345016 
L 300.354386 61.345016 
" style="fill:none;stroke:#04b0ed;stroke-width:1.5;"/>
    <path clip-path="url(#p0ca8dfd789)" d="M 297.036849 107.593235 
L 294.151303 140.606 
L 291.922579 161.385428 
L 290.400786 172.117255 
L 288.902741 180.497736 
L 287.569867 186.564393 
L 286.378126 191.166112 
L 284.902728 196.026321 
L 283.376142 200.328389 
L 281.73386 204.34375 
L 279.672667 208.685823 
L 277.901563 211.954041 
L 275.849216 215.351375 
L 273.827283 218.37775 
L 270.243657 223.168176 
L 264.622615 230.07275 
L 263.278086 231.8778 
L 261.973937 234.166 
L 261.593634 235.626382 
L 261.64745 236.505 
L 261.871226 237.08975 
L 262.30902 237.6745 
L 263.278086 238.385703 
L 264.99998 239.118404 
L 266.652734 239.606526 
L 270.421083 240.393592 
L 275.113676 241.183 
L 298.888625 244.490995 
L 329.229176 248.2 
L 329.229176 248.2 
" style="fill:none;stroke:#04b0ed;stroke-width:1.5;"/>
   </g>
   <g id="patch_3">
    <path d="M 52.925 248.2 
L 52.925 14.3 
" style="fill:none;stroke:#000000;stroke-linecap:square;stroke-linejoin:miter;stroke-width:0.8;"/>
   </g>
   <g id="patch_4">
    <path d="M 412.8875 248.2 
L 412.8875 14.3 
" style="fill:none;stroke:#000000;stroke-linecap:square;stroke-linejoin:miter;stroke-width:0.8;"/>
   </g>
   <g id="patch_5">
    <path d="M 52.925 248.2 
L 412.8875 248.2 
" style="fill:none;stroke:#000000;stroke-linecap:square;stroke-linejoin:miter;stroke-width:0.8;"/>
   </g>
   <g id="patch_6">
    <path d="M 52.925 14.3 
L 412.8875 14.3 
" style="fill:none;stroke:#000000;stroke-linecap:square;stroke-linejoin:miter;stroke-width:0.8;"/>
   </g>
   <g id="text_18">
    <!-- 1890 years -->
    <g transform="translate(344.298875 27.603)scale(0.12 -0.12)">
     <defs>
      <path d="M 39.359375 0 
L 25.640625 0 
L 25.640625 51.703125 
Q 18.109375 44.671875 7.90625 41.3125 
L 7.90625 53.765625 
Q 13.28125 55.515625 19.578125 60.421875 
Q 25.875 65.328125 28.21875 71.875 
L 39.359375 71.875 
z
" id="Arial-BoldMT-49"/>
      <path d="M 16.015625 38.625 
Q 10.6875 40.875 8.265625 44.796875 
Q 5.859375 48.734375 5.859375 53.421875 
Q 5.859375 61.421875 11.453125 66.640625 
Q 17.046875 71.875 27.34375 71.875 
Q 37.546875 71.875 43.1875 66.640625 
Q 48.828125 61.421875 48.828125 53.421875 
Q 48.828125 48.4375 46.234375 44.546875 
Q 43.65625 40.671875 38.96875 38.625 
Q 44.921875 36.234375 48.015625 31.640625 
Q 51.125 27.046875 51.125 21.046875 
Q 51.125 11.140625 44.796875 4.9375 
Q 38.484375 -1.265625 27.984375 -1.265625 
Q 18.21875 -1.265625 11.71875 3.859375 
Q 4.046875 9.90625 4.046875 20.453125 
Q 4.046875 26.265625 6.921875 31.125 
Q 9.8125 35.984375 16.015625 38.625 
z
M 18.84375 52.4375 
Q 18.84375 48.34375 21.15625 46.046875 
Q 23.484375 43.75 27.34375 43.75 
Q 31.25 43.75 33.59375 46.0625 
Q 35.9375 48.390625 35.9375 52.484375 
Q 35.9375 56.34375 33.609375 58.65625 
Q 31.296875 60.984375 27.484375 60.984375 
Q 23.53125 60.984375 21.1875 58.640625 
Q 18.84375 56.296875 18.84375 52.4375 
z
M 17.578125 21.78125 
Q 17.578125 16.109375 20.484375 12.9375 
Q 23.390625 9.765625 27.734375 9.765625 
Q 31.984375 9.765625 34.765625 12.8125 
Q 37.546875 15.875 37.546875 21.625 
Q 37.546875 26.65625 34.71875 29.703125 
Q 31.890625 32.765625 27.546875 32.765625 
Q 22.515625 32.765625 20.046875 29.296875 
Q 17.578125 25.828125 17.578125 21.78125 
z
" id="Arial-BoldMT-56"/>
      <path d="M 4.546875 16.546875 
L 17.828125 18.015625 
Q 18.3125 13.96875 20.359375 12.015625 
Q 22.40625 10.0625 25.78125 10.0625 
Q 30.03125 10.0625 33 13.96875 
Q 35.984375 17.875 36.8125 30.171875 
Q 31.640625 24.171875 23.875 24.171875 
Q 15.4375 24.171875 9.296875 30.6875 
Q 3.171875 37.203125 3.171875 47.65625 
Q 3.171875 58.546875 9.640625 65.203125 
Q 16.109375 71.875 26.125 71.875 
Q 37.015625 71.875 44 63.453125 
Q 50.984375 55.03125 50.984375 35.75 
Q 50.984375 16.109375 43.703125 7.421875 
Q 36.421875 -1.265625 24.75 -1.265625 
Q 16.359375 -1.265625 11.171875 3.203125 
Q 6 7.671875 4.546875 16.546875 
z
M 35.59375 46.53125 
Q 35.59375 53.171875 32.546875 56.828125 
Q 29.5 60.5 25.484375 60.5 
Q 21.6875 60.5 19.171875 57.5 
Q 16.65625 54.5 16.65625 47.65625 
Q 16.65625 40.71875 19.390625 37.46875 
Q 22.125 34.234375 26.21875 34.234375 
Q 30.171875 34.234375 32.875 37.359375 
Q 35.59375 40.484375 35.59375 46.53125 
z
" id="Arial-BoldMT-57"/>
      <path d="M 27.4375 71.875 
Q 37.84375 71.875 43.703125 64.453125 
Q 50.6875 55.671875 50.6875 35.296875 
Q 50.6875 14.984375 43.65625 6.109375 
Q 37.84375 -1.21875 27.4375 -1.21875 
Q 17 -1.21875 10.59375 6.8125 
Q 4.203125 14.84375 4.203125 35.453125 
Q 4.203125 55.671875 11.234375 64.546875 
Q 17.046875 71.875 27.4375 71.875 
z
M 27.4375 60.5 
Q 24.953125 60.5 23 58.90625 
Q 21.046875 57.328125 19.96875 53.21875 
Q 18.5625 47.90625 18.5625 35.296875 
Q 18.5625 22.703125 19.828125 17.984375 
Q 21.09375 13.28125 23.015625 11.71875 
Q 24.953125 10.15625 27.4375 10.15625 
Q 29.9375 10.15625 31.890625 11.734375 
Q 33.84375 13.328125 34.90625 17.4375 
Q 36.328125 22.703125 36.328125 35.296875 
Q 36.328125 47.90625 35.0625 52.609375 
Q 33.796875 57.328125 31.859375 58.90625 
Q 29.9375 60.5 27.4375 60.5 
z
" id="Arial-BoldMT-48"/>
      <path id="Arial-BoldMT-32"/>
      <path d="M 0.6875 51.859375 
L 15.28125 51.859375 
L 27.6875 15.046875 
L 39.796875 51.859375 
L 54 51.859375 
L 35.6875 1.953125 
L 32.421875 -7.078125 
Q 30.609375 -11.625 28.96875 -14.015625 
Q 27.34375 -16.40625 25.21875 -17.890625 
Q 23.09375 -19.390625 19.984375 -20.21875 
Q 16.890625 -21.046875 12.984375 -21.046875 
Q 9.03125 -21.046875 5.21875 -20.21875 
L 4 -9.46875 
Q 7.234375 -10.109375 9.8125 -10.109375 
Q 14.59375 -10.109375 16.890625 -7.296875 
Q 19.1875 -4.5 20.40625 -0.140625 
z
" id="Arial-BoldMT-121"/>
      <path d="M 37.203125 16.5 
L 50.875 14.203125 
Q 48.25 6.6875 42.546875 2.75 
Q 36.859375 -1.171875 28.328125 -1.171875 
Q 14.796875 -1.171875 8.296875 7.671875 
Q 3.171875 14.75 3.171875 25.53125 
Q 3.171875 38.421875 9.90625 45.71875 
Q 16.65625 53.03125 26.953125 53.03125 
Q 38.53125 53.03125 45.21875 45.390625 
Q 51.90625 37.75 51.609375 21.96875 
L 17.234375 21.96875 
Q 17.390625 15.875 20.5625 12.46875 
Q 23.734375 9.078125 28.46875 9.078125 
Q 31.6875 9.078125 33.875 10.828125 
Q 36.078125 12.59375 37.203125 16.5 
z
M 37.984375 30.375 
Q 37.84375 36.328125 34.90625 39.421875 
Q 31.984375 42.53125 27.78125 42.53125 
Q 23.296875 42.53125 20.359375 39.265625 
Q 17.4375 35.984375 17.484375 30.375 
z
" id="Arial-BoldMT-101"/>
      <path d="M 17.4375 36.03125 
L 4.984375 38.28125 
Q 7.078125 45.796875 12.203125 49.40625 
Q 17.328125 53.03125 27.4375 53.03125 
Q 36.625 53.03125 41.109375 50.859375 
Q 45.609375 48.6875 47.4375 45.34375 
Q 49.265625 42 49.265625 33.0625 
L 49.125 17.046875 
Q 49.125 10.203125 49.78125 6.953125 
Q 50.4375 3.71875 52.25 0 
L 38.671875 0 
Q 38.140625 1.375 37.359375 4.046875 
Q 37.015625 5.28125 36.859375 5.671875 
Q 33.34375 2.25 29.34375 0.53125 
Q 25.34375 -1.171875 20.796875 -1.171875 
Q 12.796875 -1.171875 8.171875 3.171875 
Q 3.5625 7.515625 3.5625 14.15625 
Q 3.5625 18.5625 5.65625 22 
Q 7.765625 25.4375 11.546875 27.265625 
Q 15.328125 29.109375 22.46875 30.46875 
Q 32.078125 32.28125 35.796875 33.84375 
L 35.796875 35.203125 
Q 35.796875 39.15625 33.84375 40.84375 
Q 31.890625 42.53125 26.46875 42.53125 
Q 22.796875 42.53125 20.75 41.09375 
Q 18.703125 39.65625 17.4375 36.03125 
z
M 35.796875 24.90625 
Q 33.15625 24.03125 27.4375 22.796875 
Q 21.734375 21.578125 19.96875 20.40625 
Q 17.28125 18.5 17.28125 15.578125 
Q 17.28125 12.703125 19.421875 10.59375 
Q 21.578125 8.5 24.90625 8.5 
Q 28.609375 8.5 31.984375 10.9375 
Q 34.46875 12.796875 35.25 15.484375 
Q 35.796875 17.234375 35.796875 22.171875 
z
" id="Arial-BoldMT-97"/>
      <path d="M 20.3125 0 
L 6.59375 0 
L 6.59375 51.859375 
L 19.34375 51.859375 
L 19.34375 44.484375 
Q 22.609375 49.703125 25.21875 51.359375 
Q 27.828125 53.03125 31.15625 53.03125 
Q 35.84375 53.03125 40.1875 50.4375 
L 35.9375 38.484375 
Q 32.46875 40.71875 29.5 40.71875 
Q 26.609375 40.71875 24.609375 39.125 
Q 22.609375 37.546875 21.453125 33.390625 
Q 20.3125 29.25 20.3125 16.015625 
z
" id="Arial-BoldMT-114"/>
      <path d="M 2.34375 14.796875 
L 16.109375 16.890625 
Q 17 12.890625 19.671875 10.8125 
Q 22.359375 8.734375 27.203125 8.734375 
Q 32.515625 8.734375 35.203125 10.6875 
Q 37.015625 12.0625 37.015625 14.359375 
Q 37.015625 15.921875 36.03125 16.9375 
Q 35.015625 17.921875 31.453125 18.75 
Q 14.84375 22.40625 10.40625 25.4375 
Q 4.25 29.640625 4.25 37.109375 
Q 4.25 43.84375 9.5625 48.4375 
Q 14.890625 53.03125 26.078125 53.03125 
Q 36.71875 53.03125 41.890625 49.5625 
Q 47.078125 46.09375 49.03125 39.3125 
L 36.078125 36.921875 
Q 35.25 39.9375 32.921875 41.546875 
Q 30.609375 43.171875 26.3125 43.171875 
Q 20.90625 43.171875 18.5625 41.65625 
Q 17 40.578125 17 38.875 
Q 17 37.40625 18.359375 36.375 
Q 20.21875 35.015625 31.171875 32.515625 
Q 42.140625 30.03125 46.484375 26.421875 
Q 50.78125 22.75 50.78125 16.21875 
Q 50.78125 9.078125 44.828125 3.953125 
Q 38.875 -1.171875 27.203125 -1.171875 
Q 16.609375 -1.171875 10.421875 3.125 
Q 4.25 7.421875 2.34375 14.796875 
z
" id="Arial-BoldMT-115"/>
     </defs>
     <use xlink:href="#Arial-BoldMT-49"/>
     <use x="55.615234" xlink:href="#Arial-BoldMT-56"/>
     <use x="111.230469" xlink:href="#Arial-BoldMT-57"/>
     <use x="166.845703" xlink:href="#Arial-BoldMT-48"/>
     <use x="222.460938" xlink:href="#Arial-BoldMT-32"/>
     <use x="250.244141" xlink:href="#Arial-BoldMT-121"/>
     <use x="305.859375" xlink:href="#Arial-BoldMT-101"/>
     <use x="361.474609" xlink:href="#Arial-BoldMT-97"/>
     <use x="417.089844" xlink:href="#Arial-BoldMT-114"/>
     <use x="456.005859" xlink:href="#Arial-BoldMT-115"/>
    </g>
    <!-- FWHM = 300 m -->
    <g transform="translate(320.670125 40.435875)scale(0.12 -0.12)">
     <defs>
      <path d="M 7.375 0 
L 7.375 71.578125 
L 56.453125 71.578125 
L 56.453125 59.46875 
L 21.828125 59.46875 
L 21.828125 42.53125 
L 51.703125 42.53125 
L 51.703125 30.421875 
L 21.828125 30.421875 
L 21.828125 0 
z
" id="Arial-BoldMT-70"/>
      <path d="M 17.4375 0 
L 0.34375 71.578125 
L 15.140625 71.578125 
L 25.921875 22.40625 
L 39.015625 71.578125 
L 56.203125 71.578125 
L 68.75 21.578125 
L 79.734375 71.578125 
L 94.28125 71.578125 
L 76.90625 0 
L 61.578125 0 
L 47.3125 53.515625 
L 33.109375 0 
z
" id="Arial-BoldMT-87"/>
      <path d="M 7.328125 0 
L 7.328125 71.578125 
L 21.78125 71.578125 
L 21.78125 43.40625 
L 50.09375 43.40625 
L 50.09375 71.578125 
L 64.546875 71.578125 
L 64.546875 0 
L 50.09375 0 
L 50.09375 31.296875 
L 21.78125 31.296875 
L 21.78125 0 
z
" id="Arial-BoldMT-72"/>
      <path d="M 7.078125 0 
L 7.078125 71.578125 
L 28.71875 71.578125 
L 41.703125 22.75 
L 54.546875 71.578125 
L 76.21875 71.578125 
L 76.21875 0 
L 62.796875 0 
L 62.796875 56.34375 
L 48.578125 0 
L 34.671875 0 
L 20.515625 56.34375 
L 20.515625 0 
z
" id="Arial-BoldMT-77"/>
      <path d="M 4.15625 39.84375 
L 4.15625 52.4375 
L 54.203125 52.4375 
L 54.203125 39.84375 
z
M 4.15625 18.171875 
L 4.15625 30.8125 
L 54.203125 30.8125 
L 54.203125 18.171875 
z
" id="Arial-BoldMT-61"/>
      <path d="M 3.765625 19 
L 17.046875 20.609375 
Q 17.671875 15.53125 20.453125 12.84375 
Q 23.25 10.15625 27.203125 10.15625 
Q 31.453125 10.15625 34.34375 13.375 
Q 37.25 16.609375 37.25 22.078125 
Q 37.25 27.25 34.46875 30.265625 
Q 31.6875 33.296875 27.6875 33.296875 
Q 25.046875 33.296875 21.390625 32.28125 
L 22.90625 43.453125 
Q 28.46875 43.3125 31.390625 45.875 
Q 34.328125 48.4375 34.328125 52.6875 
Q 34.328125 56.296875 32.171875 58.4375 
Q 30.03125 60.59375 26.46875 60.59375 
Q 22.953125 60.59375 20.453125 58.15625 
Q 17.96875 55.71875 17.4375 51.03125 
L 4.78125 53.171875 
Q 6.109375 59.671875 8.765625 63.546875 
Q 11.421875 67.4375 16.1875 69.65625 
Q 20.953125 71.875 26.859375 71.875 
Q 36.96875 71.875 43.0625 65.4375 
Q 48.09375 60.15625 48.09375 53.515625 
Q 48.09375 44.09375 37.796875 38.484375 
Q 43.953125 37.15625 47.625 32.5625 
Q 51.3125 27.984375 51.3125 21.484375 
Q 51.3125 12.0625 44.421875 5.421875 
Q 37.546875 -1.21875 27.296875 -1.21875 
Q 17.578125 -1.21875 11.171875 4.375 
Q 4.78125 9.96875 3.765625 19 
z
" id="Arial-BoldMT-51"/>
      <path d="M 6.15625 51.859375 
L 18.796875 51.859375 
L 18.796875 44.78125 
Q 25.59375 53.03125 34.96875 53.03125 
Q 39.9375 53.03125 43.59375 50.96875 
Q 47.265625 48.921875 49.609375 44.78125 
Q 53.03125 48.921875 56.984375 50.96875 
Q 60.9375 53.03125 65.4375 53.03125 
Q 71.140625 53.03125 75.09375 50.703125 
Q 79.046875 48.390625 81 43.890625 
Q 82.421875 40.578125 82.421875 33.15625 
L 82.421875 0 
L 68.703125 0 
L 68.703125 29.640625 
Q 68.703125 37.359375 67.28125 39.59375 
Q 65.375 42.53125 61.421875 42.53125 
Q 58.546875 42.53125 56 40.765625 
Q 53.46875 39.015625 52.34375 35.625 
Q 51.21875 32.234375 51.21875 24.90625 
L 51.21875 0 
L 37.5 0 
L 37.5 28.421875 
Q 37.5 35.984375 36.765625 38.171875 
Q 36.03125 40.375 34.484375 41.453125 
Q 32.953125 42.53125 30.328125 42.53125 
Q 27.15625 42.53125 24.609375 40.8125 
Q 22.078125 39.109375 20.96875 35.890625 
Q 19.875 32.671875 19.875 25.203125 
L 19.875 0 
L 6.15625 0 
z
" id="Arial-BoldMT-109"/>
     </defs>
     <use xlink:href="#Arial-BoldMT-70"/>
     <use x="61.083984" xlink:href="#Arial-BoldMT-87"/>
     <use x="155.46875" xlink:href="#Arial-BoldMT-72"/>
     <use x="227.685547" xlink:href="#Arial-BoldMT-77"/>
     <use x="310.986328" xlink:href="#Arial-BoldMT-32"/>
     <use x="338.769531" xlink:href="#Arial-BoldMT-61"/>
     <use x="397.167969" xlink:href="#Arial-BoldMT-32"/>
     <use x="424.951172" xlink:href="#Arial-BoldMT-51"/>
     <use x="480.566406" xlink:href="#Arial-BoldMT-48"/>
     <use x="536.181641" xlink:href="#Arial-BoldMT-48"/>
     <use x="591.796875" xlink:href="#Arial-BoldMT-32"/>
     <use x="619.580078" xlink:href="#Arial-BoldMT-109"/>
    </g>
    <!-- Cell size = 2.5 m -->
    <g transform="translate(313.307 53.11125)scale(0.12 -0.12)">
     <defs>
      <path d="M 53.078125 26.3125 
L 67.09375 21.875 
Q 63.875 10.15625 56.375 4.46875 
Q 48.875 -1.21875 37.359375 -1.21875 
Q 23.09375 -1.21875 13.90625 8.515625 
Q 4.734375 18.265625 4.734375 35.15625 
Q 4.734375 53.03125 13.953125 62.90625 
Q 23.1875 72.796875 38.234375 72.796875 
Q 51.375 72.796875 59.578125 65.046875 
Q 64.453125 60.453125 66.890625 51.859375 
L 52.59375 48.4375 
Q 51.3125 54 47.28125 57.21875 
Q 43.265625 60.453125 37.5 60.453125 
Q 29.546875 60.453125 24.578125 54.734375 
Q 19.625 49.03125 19.625 36.234375 
Q 19.625 22.65625 24.5 16.890625 
Q 29.390625 11.140625 37.203125 11.140625 
Q 42.96875 11.140625 47.109375 14.796875 
Q 51.265625 18.453125 53.078125 26.3125 
z
" id="Arial-BoldMT-67"/>
      <path d="M 7.171875 0 
L 7.171875 71.578125 
L 20.90625 71.578125 
L 20.90625 0 
z
" id="Arial-BoldMT-108"/>
      <path d="M 7.171875 58.890625 
L 7.171875 71.578125 
L 20.90625 71.578125 
L 20.90625 58.890625 
z
M 7.171875 0 
L 7.171875 51.859375 
L 20.90625 51.859375 
L 20.90625 0 
z
" id="Arial-BoldMT-105"/>
      <path d="M 1.65625 0 
L 1.65625 10.6875 
L 21.09375 33.015625 
Q 25.875 38.484375 28.171875 40.765625 
Q 25.78125 40.625 21.875 40.578125 
L 3.5625 40.484375 
L 3.5625 51.859375 
L 46.4375 51.859375 
L 46.4375 42.140625 
L 26.609375 19.28125 
L 19.625 11.71875 
Q 25.34375 12.0625 26.703125 12.0625 
L 47.953125 12.0625 
L 47.953125 0 
z
" id="Arial-BoldMT-122"/>
      <path d="M 50.59375 12.75 
L 50.59375 0 
L 2.484375 0 
Q 3.265625 7.234375 7.171875 13.703125 
Q 11.078125 20.171875 22.609375 30.859375 
Q 31.890625 39.5 33.984375 42.578125 
Q 36.8125 46.828125 36.8125 50.984375 
Q 36.8125 55.5625 34.34375 58.03125 
Q 31.890625 60.5 27.546875 60.5 
Q 23.25 60.5 20.703125 57.90625 
Q 18.171875 55.328125 17.78125 49.3125 
L 4.109375 50.6875 
Q 5.328125 62.015625 11.765625 66.9375 
Q 18.21875 71.875 27.875 71.875 
Q 38.484375 71.875 44.53125 66.15625 
Q 50.59375 60.453125 50.59375 51.953125 
Q 50.59375 47.125 48.859375 42.75 
Q 47.125 38.375 43.359375 33.59375 
Q 40.875 30.421875 34.375 24.453125 
Q 27.875 18.5 26.140625 16.546875 
Q 24.421875 14.59375 23.34375 12.75 
z
" id="Arial-BoldMT-50"/>
      <path d="M 7.171875 0 
L 7.171875 13.71875 
L 20.90625 13.71875 
L 20.90625 0 
z
" id="Arial-BoldMT-46"/>
      <path d="M 4.4375 18.40625 
L 18.109375 19.828125 
Q 18.703125 15.1875 21.578125 12.46875 
Q 24.46875 9.765625 28.21875 9.765625 
Q 32.515625 9.765625 35.5 13.25 
Q 38.484375 16.75 38.484375 23.78125 
Q 38.484375 30.375 35.515625 33.671875 
Q 32.5625 36.96875 27.828125 36.96875 
Q 21.921875 36.96875 17.234375 31.734375 
L 6.109375 33.34375 
L 13.140625 70.609375 
L 49.421875 70.609375 
L 49.421875 57.765625 
L 23.53125 57.765625 
L 21.390625 45.609375 
Q 25.984375 47.90625 30.765625 47.90625 
Q 39.890625 47.90625 46.234375 41.265625 
Q 52.59375 34.625 52.59375 24.03125 
Q 52.59375 15.1875 47.46875 8.25 
Q 40.484375 -1.21875 28.078125 -1.21875 
Q 18.171875 -1.21875 11.921875 4.09375 
Q 5.671875 9.421875 4.4375 18.40625 
z
" id="Arial-BoldMT-53"/>
     </defs>
     <use xlink:href="#Arial-BoldMT-67"/>
     <use x="72.216797" xlink:href="#Arial-BoldMT-101"/>
     <use x="127.832031" xlink:href="#Arial-BoldMT-108"/>
     <use x="155.615234" xlink:href="#Arial-BoldMT-108"/>
     <use x="183.398438" xlink:href="#Arial-BoldMT-32"/>
     <use x="211.181641" xlink:href="#Arial-BoldMT-115"/>
     <use x="266.796875" xlink:href="#Arial-BoldMT-105"/>
     <use x="294.580078" xlink:href="#Arial-BoldMT-122"/>
     <use x="344.580078" xlink:href="#Arial-BoldMT-101"/>
     <use x="400.195312" xlink:href="#Arial-BoldMT-32"/>
     <use x="427.978516" xlink:href="#Arial-BoldMT-61"/>
     <use x="486.376953" xlink:href="#Arial-BoldMT-32"/>
     <use x="514.160156" xlink:href="#Arial-BoldMT-50"/>
     <use x="569.775391" xlink:href="#Arial-BoldMT-46"/>
     <use x="597.558594" xlink:href="#Arial-BoldMT-53"/>
     <use x="653.173828" xlink:href="#Arial-BoldMT-32"/>
     <use x="680.957031" xlink:href="#Arial-BoldMT-109"/>
    </g>
   </g>
   <g id="text_19">
    <g clip-path="url(#p0ca8dfd789)">
     <!-- 100 $^{\circ}$C -->
     <g style="fill:#5a3bfd;" transform="translate(369.545047 68.892046)rotate(-271.481066)scale(0.1 -0.1)">
      <defs>
       <path d="M 25 5.609375 
Q 19.828125 5.609375 15.359375 8.21875 
Q 10.890625 10.84375 8.25 15.375 
Q 5.609375 19.921875 5.609375 25 
Q 5.609375 30.078125 8.25 34.609375 
Q 10.890625 39.15625 15.359375 41.765625 
Q 19.828125 44.390625 25 44.390625 
Q 30.171875 44.390625 34.609375 41.75 
Q 39.0625 39.109375 41.671875 34.59375 
Q 44.28125 30.078125 44.28125 25 
Q 44.28125 19.921875 41.671875 15.40625 
Q 39.0625 10.890625 34.609375 8.25 
Q 30.171875 5.609375 25 5.609375 
z
M 25 9.625 
Q 31.25 9.625 35.765625 14.1875 
Q 40.28125 18.75 40.28125 25 
Q 40.28125 29 38.203125 32.59375 
Q 36.140625 36.1875 32.625 38.28125 
Q 29.109375 40.375 25 40.375 
Q 21.921875 40.375 19.140625 39.171875 
Q 16.359375 37.984375 14.15625 35.78125 
Q 11.96875 33.59375 10.796875 30.828125 
Q 9.625 28.078125 9.625 25 
Q 9.625 18.75 14.140625 14.1875 
Q 18.65625 9.625 25 9.625 
z
" id="Cmsy10-177"/>
       <path d="M 58.796875 25.09375 
L 68.265625 22.703125 
Q 65.28125 11.03125 57.546875 4.90625 
Q 49.8125 -1.21875 38.625 -1.21875 
Q 27.046875 -1.21875 19.796875 3.484375 
Q 12.546875 8.203125 8.765625 17.140625 
Q 4.984375 26.078125 4.984375 36.328125 
Q 4.984375 47.515625 9.25 55.828125 
Q 13.53125 64.15625 21.40625 68.46875 
Q 29.296875 72.796875 38.765625 72.796875 
Q 49.515625 72.796875 56.828125 67.328125 
Q 64.15625 61.859375 67.046875 51.953125 
L 57.71875 49.75 
Q 55.21875 57.5625 50.484375 61.125 
Q 45.75 64.703125 38.578125 64.703125 
Q 30.328125 64.703125 24.78125 60.734375 
Q 19.234375 56.78125 16.984375 50.109375 
Q 14.75 43.453125 14.75 36.375 
Q 14.75 27.25 17.40625 20.4375 
Q 20.0625 13.625 25.671875 10.25 
Q 31.296875 6.890625 37.84375 6.890625 
Q 45.796875 6.890625 51.3125 11.46875 
Q 56.84375 16.0625 58.796875 25.09375 
z
" id="ArialMT-67"/>
      </defs>
      <use transform="translate(0 0.203125)" xlink:href="#ArialMT-49"/>
      <use transform="translate(55.615234 0.203125)" xlink:href="#ArialMT-48"/>
      <use transform="translate(111.230469 0.203125)" xlink:href="#ArialMT-48"/>
      <use transform="translate(166.845703 0.203125)" xlink:href="#ArialMT-32"/>
      <use transform="translate(199.093047 38.467188)scale(0.7)" xlink:href="#Cmsy10-177"/>
      <use transform="translate(240.470391 0.203125)" xlink:href="#ArialMT-67"/>
     </g>
    </g>
   </g>
   <g id="text_20">
    <g clip-path="url(#p0ca8dfd789)">
     <!-- 200 $^{\circ}$C -->
     <g style="fill:#3079f7;" transform="translate(326.998265 69.022841)rotate(-273.754071)scale(0.1 -0.1)">
      <use transform="translate(0 0.203125)" xlink:href="#ArialMT-50"/>
      <use transform="translate(55.615234 0.203125)" xlink:href="#ArialMT-48"/>
      <use transform="translate(111.230469 0.203125)" xlink:href="#ArialMT-48"/>
      <use transform="translate(166.845703 0.203125)" xlink:href="#ArialMT-32"/>
      <use transform="translate(199.093047 38.467188)scale(0.7)" xlink:href="#Cmsy10-177"/>
      <use transform="translate(240.470391 0.203125)" xlink:href="#ArialMT-67"/>
     </g>
    </g>
   </g>
   <g id="text_21">
    <g clip-path="url(#p0ca8dfd789)">
     <!-- 300 $^{\circ}$C -->
     <g style="fill:#04b0ed;" transform="translate(296.067918 68.867335)rotate(-270.996674)scale(0.1 -0.1)">
      <use transform="translate(0 0.203125)" xlink:href="#ArialMT-51"/>
      <use transform="translate(55.615234 0.203125)" xlink:href="#ArialMT-48"/>
      <use transform="translate(111.230469 0.203125)" xlink:href="#ArialMT-48"/>
      <use transform="translate(166.845703 0.203125)" xlink:href="#ArialMT-32"/>
      <use transform="translate(199.093047 38.467188)scale(0.7)" xlink:href="#Cmsy10-177"/>
      <use transform="translate(240.470391 0.203125)" xlink:href="#ArialMT-67"/>
     </g>
    </g>
   </g>
  </g>
 </g>
 <defs>
  <clipPath id="p0ca8dfd789">
   <rect height="233.9" width="359.9625" x="52.925" y="14.3"/>
  </clipPath>
 </defs>
</svg>
