<?xml version="1.0" encoding="utf-8" standalone="no"?>
<!DOCTYPE svg PUBLIC "-//W3C//DTD SVG 1.1//EN"
  "http://www.w3.org/Graphics/SVG/1.1/DTD/svg11.dtd">
<!-- Created with matplotlib (https://matplotlib.org/) -->
<svg height="288pt" version="1.1" viewBox="0 0 432 288" width="432pt" xmlns="http://www.w3.org/2000/svg" xmlns:xlink="http://www.w3.org/1999/xlink">
 <metadata>
  <rdf:RDF xmlns:cc="http://creativecommons.org/ns#" xmlns:dc="http://purl.org/dc/elements/1.1/" xmlns:rdf="http://www.w3.org/1999/02/22-rdf-syntax-ns#">
   <cc:Work>
    <dc:type rdf:resource="http://purl.org/dc/dcmitype/StillImage"/>
    <dc:date>2020-12-01T18:49:00.726024</dc:date>
    <dc:format>image/svg+xml</dc:format>
    <dc:creator>
     <cc:Agent>
      <dc:title>Matplotlib v3.3.2, https://matplotlib.org/</dc:title>
     </cc:Agent>
    </dc:creator>
   </cc:Work>
  </rdf:RDF>
 </metadata>
 <defs>
  <style type="text/css">*{stroke-linecap:butt;stroke-linejoin:round;}</style>
 </defs>
 <g id="figure_1">
  <g id="patch_1">
   <path d="M 0 288 
L 432 288 
L 432 0 
L 0 0 
z
" style="fill:none;"/>
  </g>
  <g id="axes_1">
   <g id="patch_2">
    <path d="M 52.925 248.2 
L 412.8875 248.2 
L 412.8875 14.3 
L 52.925 14.3 
z
" style="fill:#ffffff;"/>
   </g>
   <g id="matplotlib.axis_1">
    <g id="xtick_1">
     <g id="line2d_1">
      <defs>
       <path d="M 0 0 
L 0 3.5 
" id="m6a8f1315bd" style="stroke:#000000;stroke-width:0.8;"/>
      </defs>
      <g>
       <use style="stroke:#000000;stroke-width:0.8;" x="52.925" xlink:href="#m6a8f1315bd" y="248.2"/>
      </g>
     </g>
     <g id="text_1">
      <!-- −400 -->
      <g transform="translate(41.663281 262.357813)scale(0.1 -0.1)">
       <defs>
        <path d="M 52.828125 31.203125 
L 5.5625 31.203125 
L 5.5625 39.40625 
L 52.828125 39.40625 
z
" id="ArialMT-8722"/>
        <path d="M 32.328125 0 
L 32.328125 17.140625 
L 1.265625 17.140625 
L 1.265625 25.203125 
L 33.9375 71.578125 
L 41.109375 71.578125 
L 41.109375 25.203125 
L 50.78125 25.203125 
L 50.78125 17.140625 
L 41.109375 17.140625 
L 41.109375 0 
z
M 32.328125 25.203125 
L 32.328125 57.46875 
L 9.90625 25.203125 
z
" id="ArialMT-52"/>
        <path d="M 4.15625 35.296875 
Q 4.15625 48 6.765625 55.734375 
Q 9.375 63.484375 14.515625 67.671875 
Q 19.671875 71.875 27.484375 71.875 
Q 33.25 71.875 37.59375 69.546875 
Q 41.9375 67.234375 44.765625 62.859375 
Q 47.609375 58.5 49.21875 52.21875 
Q 50.828125 45.953125 50.828125 35.296875 
Q 50.828125 22.703125 48.234375 14.96875 
Q 45.65625 7.234375 40.5 3 
Q 35.359375 -1.21875 27.484375 -1.21875 
Q 17.140625 -1.21875 11.234375 6.203125 
Q 4.15625 15.140625 4.15625 35.296875 
z
M 13.1875 35.296875 
Q 13.1875 17.671875 17.3125 11.828125 
Q 21.4375 6 27.484375 6 
Q 33.546875 6 37.671875 11.859375 
Q 41.796875 17.71875 41.796875 35.296875 
Q 41.796875 52.984375 37.671875 58.78125 
Q 33.546875 64.59375 27.390625 64.59375 
Q 21.34375 64.59375 17.71875 59.46875 
Q 13.1875 52.9375 13.1875 35.296875 
z
" id="ArialMT-48"/>
       </defs>
       <use xlink:href="#ArialMT-8722"/>
       <use x="58.398438" xlink:href="#ArialMT-52"/>
       <use x="114.013672" xlink:href="#ArialMT-48"/>
       <use x="169.628906" xlink:href="#ArialMT-48"/>
      </g>
     </g>
    </g>
    <g id="xtick_2">
     <g id="line2d_2">
      <g>
       <use style="stroke:#000000;stroke-width:0.8;" x="97.920313" xlink:href="#m6a8f1315bd" y="248.2"/>
      </g>
     </g>
     <g id="text_2">
      <!-- −300 -->
      <g transform="translate(86.658594 262.357813)scale(0.1 -0.1)">
       <defs>
        <path d="M 4.203125 18.890625 
L 12.984375 20.0625 
Q 14.5 12.59375 18.140625 9.296875 
Q 21.78125 6 27 6 
Q 33.203125 6 37.46875 10.296875 
Q 41.75 14.59375 41.75 20.953125 
Q 41.75 27 37.796875 30.921875 
Q 33.84375 34.859375 27.734375 34.859375 
Q 25.25 34.859375 21.53125 33.890625 
L 22.515625 41.609375 
Q 23.390625 41.5 23.921875 41.5 
Q 29.546875 41.5 34.03125 44.421875 
Q 38.53125 47.359375 38.53125 53.46875 
Q 38.53125 58.296875 35.25 61.46875 
Q 31.984375 64.65625 26.8125 64.65625 
Q 21.6875 64.65625 18.265625 61.421875 
Q 14.84375 58.203125 13.875 51.765625 
L 5.078125 53.328125 
Q 6.6875 62.15625 12.390625 67.015625 
Q 18.109375 71.875 26.609375 71.875 
Q 32.46875 71.875 37.390625 69.359375 
Q 42.328125 66.84375 44.9375 62.5 
Q 47.5625 58.15625 47.5625 53.265625 
Q 47.5625 48.640625 45.0625 44.828125 
Q 42.578125 41.015625 37.703125 38.765625 
Q 44.046875 37.3125 47.5625 32.6875 
Q 51.078125 28.078125 51.078125 21.140625 
Q 51.078125 11.765625 44.234375 5.25 
Q 37.40625 -1.265625 26.953125 -1.265625 
Q 17.53125 -1.265625 11.296875 4.34375 
Q 5.078125 9.96875 4.203125 18.890625 
z
" id="ArialMT-51"/>
       </defs>
       <use xlink:href="#ArialMT-8722"/>
       <use x="58.398438" xlink:href="#ArialMT-51"/>
       <use x="114.013672" xlink:href="#ArialMT-48"/>
       <use x="169.628906" xlink:href="#ArialMT-48"/>
      </g>
     </g>
    </g>
    <g id="xtick_3">
     <g id="line2d_3">
      <g>
       <use style="stroke:#000000;stroke-width:0.8;" x="142.915625" xlink:href="#m6a8f1315bd" y="248.2"/>
      </g>
     </g>
     <g id="text_3">
      <!-- −200 -->
      <g transform="translate(131.653906 262.357813)scale(0.1 -0.1)">
       <defs>
        <path d="M 50.34375 8.453125 
L 50.34375 0 
L 3.03125 0 
Q 2.9375 3.171875 4.046875 6.109375 
Q 5.859375 10.9375 9.828125 15.625 
Q 13.8125 20.3125 21.34375 26.46875 
Q 33.015625 36.03125 37.109375 41.625 
Q 41.21875 47.21875 41.21875 52.203125 
Q 41.21875 57.421875 37.46875 61 
Q 33.734375 64.59375 27.734375 64.59375 
Q 21.390625 64.59375 17.578125 60.78125 
Q 13.765625 56.984375 13.71875 50.25 
L 4.6875 51.171875 
Q 5.609375 61.28125 11.65625 66.578125 
Q 17.71875 71.875 27.9375 71.875 
Q 38.234375 71.875 44.234375 66.15625 
Q 50.25 60.453125 50.25 52 
Q 50.25 47.703125 48.484375 43.546875 
Q 46.734375 39.40625 42.65625 34.8125 
Q 38.578125 30.21875 29.109375 22.21875 
Q 21.1875 15.578125 18.9375 13.203125 
Q 16.703125 10.84375 15.234375 8.453125 
z
" id="ArialMT-50"/>
       </defs>
       <use xlink:href="#ArialMT-8722"/>
       <use x="58.398438" xlink:href="#ArialMT-50"/>
       <use x="114.013672" xlink:href="#ArialMT-48"/>
       <use x="169.628906" xlink:href="#ArialMT-48"/>
      </g>
     </g>
    </g>
    <g id="xtick_4">
     <g id="line2d_4">
      <g>
       <use style="stroke:#000000;stroke-width:0.8;" x="187.910937" xlink:href="#m6a8f1315bd" y="248.2"/>
      </g>
     </g>
     <g id="text_4">
      <!-- −100 -->
      <g transform="translate(176.649219 262.357813)scale(0.1 -0.1)">
       <defs>
        <path d="M 37.25 0 
L 28.46875 0 
L 28.46875 56 
Q 25.296875 52.984375 20.140625 49.953125 
Q 14.984375 46.921875 10.890625 45.40625 
L 10.890625 53.90625 
Q 18.265625 57.375 23.78125 62.296875 
Q 29.296875 67.234375 31.59375 71.875 
L 37.25 71.875 
z
" id="ArialMT-49"/>
       </defs>
       <use xlink:href="#ArialMT-8722"/>
       <use x="58.398438" xlink:href="#ArialMT-49"/>
       <use x="114.013672" xlink:href="#ArialMT-48"/>
       <use x="169.628906" xlink:href="#ArialMT-48"/>
      </g>
     </g>
    </g>
    <g id="xtick_5">
     <g id="line2d_5">
      <g>
       <use style="stroke:#000000;stroke-width:0.8;" x="232.90625" xlink:href="#m6a8f1315bd" y="248.2"/>
      </g>
     </g>
     <g id="text_5">
      <!-- 0 -->
      <g transform="translate(230.125781 262.357813)scale(0.1 -0.1)">
       <use xlink:href="#ArialMT-48"/>
      </g>
     </g>
    </g>
    <g id="xtick_6">
     <g id="line2d_6">
      <g>
       <use style="stroke:#000000;stroke-width:0.8;" x="277.901563" xlink:href="#m6a8f1315bd" y="248.2"/>
      </g>
     </g>
     <g id="text_6">
      <!-- 100 -->
      <g transform="translate(269.560156 262.357813)scale(0.1 -0.1)">
       <use xlink:href="#ArialMT-49"/>
       <use x="55.615234" xlink:href="#ArialMT-48"/>
       <use x="111.230469" xlink:href="#ArialMT-48"/>
      </g>
     </g>
    </g>
    <g id="xtick_7">
     <g id="line2d_7">
      <g>
       <use style="stroke:#000000;stroke-width:0.8;" x="322.896875" xlink:href="#m6a8f1315bd" y="248.2"/>
      </g>
     </g>
     <g id="text_7">
      <!-- 200 -->
      <g transform="translate(314.555469 262.357813)scale(0.1 -0.1)">
       <use xlink:href="#ArialMT-50"/>
       <use x="55.615234" xlink:href="#ArialMT-48"/>
       <use x="111.230469" xlink:href="#ArialMT-48"/>
      </g>
     </g>
    </g>
    <g id="xtick_8">
     <g id="line2d_8">
      <g>
       <use style="stroke:#000000;stroke-width:0.8;" x="367.892187" xlink:href="#m6a8f1315bd" y="248.2"/>
      </g>
     </g>
     <g id="text_8">
      <!-- 300 -->
      <g transform="translate(359.550781 262.357813)scale(0.1 -0.1)">
       <use xlink:href="#ArialMT-51"/>
       <use x="55.615234" xlink:href="#ArialMT-48"/>
       <use x="111.230469" xlink:href="#ArialMT-48"/>
      </g>
     </g>
    </g>
    <g id="xtick_9">
     <g id="line2d_9">
      <g>
       <use style="stroke:#000000;stroke-width:0.8;" x="412.8875" xlink:href="#m6a8f1315bd" y="248.2"/>
      </g>
     </g>
     <g id="text_9">
      <!-- 400 -->
      <g transform="translate(404.546094 262.357813)scale(0.1 -0.1)">
       <use xlink:href="#ArialMT-52"/>
       <use x="55.615234" xlink:href="#ArialMT-48"/>
       <use x="111.230469" xlink:href="#ArialMT-48"/>
      </g>
     </g>
    </g>
    <g id="text_10">
     <!-- x (m) -->
     <g transform="translate(221.522656 275.625)scale(0.1 -0.1)">
      <defs>
       <path d="M 0.734375 0 
L 19.671875 26.953125 
L 2.15625 51.859375 
L 13.140625 51.859375 
L 21.09375 39.703125 
Q 23.34375 36.234375 24.703125 33.890625 
Q 26.859375 37.109375 28.65625 39.59375 
L 37.40625 51.859375 
L 47.90625 51.859375 
L 29.984375 27.4375 
L 49.265625 0 
L 38.484375 0 
L 27.828125 16.109375 
L 25 20.453125 
L 11.375 0 
z
" id="ArialMT-120"/>
       <path id="ArialMT-32"/>
       <path d="M 23.390625 -21.046875 
Q 16.109375 -11.859375 11.078125 0.4375 
Q 6.0625 12.75 6.0625 25.921875 
Q 6.0625 37.546875 9.8125 48.1875 
Q 14.203125 60.546875 23.390625 72.796875 
L 29.6875 72.796875 
Q 23.78125 62.640625 21.875 58.296875 
Q 18.890625 51.5625 17.1875 44.234375 
Q 15.09375 35.109375 15.09375 25.875 
Q 15.09375 2.390625 29.6875 -21.046875 
z
" id="ArialMT-40"/>
       <path d="M 6.59375 0 
L 6.59375 51.859375 
L 14.453125 51.859375 
L 14.453125 44.578125 
Q 16.890625 48.390625 20.9375 50.703125 
Q 25 53.03125 30.171875 53.03125 
Q 35.9375 53.03125 39.625 50.640625 
Q 43.3125 48.25 44.828125 43.953125 
Q 50.984375 53.03125 60.84375 53.03125 
Q 68.5625 53.03125 72.703125 48.75 
Q 76.859375 44.484375 76.859375 35.59375 
L 76.859375 0 
L 68.109375 0 
L 68.109375 32.671875 
Q 68.109375 37.9375 67.25 40.25 
Q 66.40625 42.578125 64.15625 43.984375 
Q 61.921875 45.40625 58.890625 45.40625 
Q 53.421875 45.40625 49.796875 41.765625 
Q 46.1875 38.140625 46.1875 30.125 
L 46.1875 0 
L 37.40625 0 
L 37.40625 33.6875 
Q 37.40625 39.546875 35.25 42.46875 
Q 33.109375 45.40625 28.21875 45.40625 
Q 24.515625 45.40625 21.359375 43.453125 
Q 18.21875 41.5 16.796875 37.734375 
Q 15.375 33.984375 15.375 26.90625 
L 15.375 0 
z
" id="ArialMT-109"/>
       <path d="M 12.359375 -21.046875 
L 6.0625 -21.046875 
Q 20.65625 2.390625 20.65625 25.875 
Q 20.65625 35.0625 18.5625 44.09375 
Q 16.890625 51.421875 13.921875 58.15625 
Q 12.015625 62.546875 6.0625 72.796875 
L 12.359375 72.796875 
Q 21.53125 60.546875 25.921875 48.1875 
Q 29.6875 37.546875 29.6875 25.921875 
Q 29.6875 12.75 24.625 0.4375 
Q 19.578125 -11.859375 12.359375 -21.046875 
z
" id="ArialMT-41"/>
      </defs>
      <use xlink:href="#ArialMT-120"/>
      <use x="50" xlink:href="#ArialMT-32"/>
      <use x="77.783203" xlink:href="#ArialMT-40"/>
      <use x="111.083984" xlink:href="#ArialMT-109"/>
      <use x="194.384766" xlink:href="#ArialMT-41"/>
     </g>
    </g>
   </g>
   <g id="matplotlib.axis_2">
    <g id="ytick_1">
     <g id="line2d_10">
      <defs>
       <path d="M 0 0 
L -3.5 0 
" id="m89e54b9028" style="stroke:#000000;stroke-width:0.8;"/>
      </defs>
      <g>
       <use style="stroke:#000000;stroke-width:0.8;" x="52.925" xlink:href="#m89e54b9028" y="14.3"/>
      </g>
     </g>
     <g id="text_11">
      <!-- 0 -->
      <g transform="translate(40.364063 17.878906)scale(0.1 -0.1)">
       <use xlink:href="#ArialMT-48"/>
      </g>
     </g>
    </g>
    <g id="ytick_2">
     <g id="line2d_11">
      <g>
       <use style="stroke:#000000;stroke-width:0.8;" x="52.925" xlink:href="#m89e54b9028" y="61.08"/>
      </g>
     </g>
     <g id="text_12">
      <!-- 200 -->
      <g transform="translate(29.242188 64.658906)scale(0.1 -0.1)">
       <use xlink:href="#ArialMT-50"/>
       <use x="55.615234" xlink:href="#ArialMT-48"/>
       <use x="111.230469" xlink:href="#ArialMT-48"/>
      </g>
     </g>
    </g>
    <g id="ytick_3">
     <g id="line2d_12">
      <g>
       <use style="stroke:#000000;stroke-width:0.8;" x="52.925" xlink:href="#m89e54b9028" y="107.86"/>
      </g>
     </g>
     <g id="text_13">
      <!-- 400 -->
      <g transform="translate(29.242188 111.438906)scale(0.1 -0.1)">
       <use xlink:href="#ArialMT-52"/>
       <use x="55.615234" xlink:href="#ArialMT-48"/>
       <use x="111.230469" xlink:href="#ArialMT-48"/>
      </g>
     </g>
    </g>
    <g id="ytick_4">
     <g id="line2d_13">
      <g>
       <use style="stroke:#000000;stroke-width:0.8;" x="52.925" xlink:href="#m89e54b9028" y="154.64"/>
      </g>
     </g>
     <g id="text_14">
      <!-- 600 -->
      <g transform="translate(29.242188 158.218906)scale(0.1 -0.1)">
       <defs>
        <path d="M 49.75 54.046875 
L 41.015625 53.375 
Q 39.84375 58.546875 37.703125 60.890625 
Q 34.125 64.65625 28.90625 64.65625 
Q 24.703125 64.65625 21.53125 62.3125 
Q 17.390625 59.28125 14.984375 53.46875 
Q 12.59375 47.65625 12.5 36.921875 
Q 15.671875 41.75 20.265625 44.09375 
Q 24.859375 46.4375 29.890625 46.4375 
Q 38.671875 46.4375 44.84375 39.96875 
Q 51.03125 33.5 51.03125 23.25 
Q 51.03125 16.5 48.125 10.71875 
Q 45.21875 4.9375 40.140625 1.859375 
Q 35.0625 -1.21875 28.609375 -1.21875 
Q 17.625 -1.21875 10.6875 6.859375 
Q 3.765625 14.9375 3.765625 33.5 
Q 3.765625 54.25 11.421875 63.671875 
Q 18.109375 71.875 29.4375 71.875 
Q 37.890625 71.875 43.28125 67.140625 
Q 48.6875 62.40625 49.75 54.046875 
z
M 13.875 23.1875 
Q 13.875 18.65625 15.796875 14.5 
Q 17.71875 10.359375 21.1875 8.171875 
Q 24.65625 6 28.46875 6 
Q 34.03125 6 38.03125 10.484375 
Q 42.046875 14.984375 42.046875 22.703125 
Q 42.046875 30.125 38.078125 34.390625 
Q 34.125 38.671875 28.125 38.671875 
Q 22.171875 38.671875 18.015625 34.390625 
Q 13.875 30.125 13.875 23.1875 
z
" id="ArialMT-54"/>
       </defs>
       <use xlink:href="#ArialMT-54"/>
       <use x="55.615234" xlink:href="#ArialMT-48"/>
       <use x="111.230469" xlink:href="#ArialMT-48"/>
      </g>
     </g>
    </g>
    <g id="ytick_5">
     <g id="line2d_14">
      <g>
       <use style="stroke:#000000;stroke-width:0.8;" x="52.925" xlink:href="#m89e54b9028" y="201.42"/>
      </g>
     </g>
     <g id="text_15">
      <!-- 800 -->
      <g transform="translate(29.242188 204.998906)scale(0.1 -0.1)">
       <defs>
        <path d="M 17.671875 38.8125 
Q 12.203125 40.828125 9.5625 44.53125 
Q 6.9375 48.25 6.9375 53.421875 
Q 6.9375 61.234375 12.546875 66.546875 
Q 18.171875 71.875 27.484375 71.875 
Q 36.859375 71.875 42.578125 66.421875 
Q 48.296875 60.984375 48.296875 53.171875 
Q 48.296875 48.1875 45.671875 44.5 
Q 43.0625 40.828125 37.75 38.8125 
Q 44.34375 36.671875 47.78125 31.875 
Q 51.21875 27.09375 51.21875 20.453125 
Q 51.21875 11.28125 44.71875 5.03125 
Q 38.234375 -1.21875 27.640625 -1.21875 
Q 17.046875 -1.21875 10.546875 5.046875 
Q 4.046875 11.328125 4.046875 20.703125 
Q 4.046875 27.6875 7.59375 32.390625 
Q 11.140625 37.109375 17.671875 38.8125 
z
M 15.921875 53.71875 
Q 15.921875 48.640625 19.1875 45.40625 
Q 22.46875 42.1875 27.6875 42.1875 
Q 32.765625 42.1875 36.015625 45.375 
Q 39.265625 48.578125 39.265625 53.21875 
Q 39.265625 58.0625 35.90625 61.359375 
Q 32.5625 64.65625 27.59375 64.65625 
Q 22.5625 64.65625 19.234375 61.421875 
Q 15.921875 58.203125 15.921875 53.71875 
z
M 13.09375 20.65625 
Q 13.09375 16.890625 14.875 13.375 
Q 16.65625 9.859375 20.171875 7.921875 
Q 23.6875 6 27.734375 6 
Q 34.03125 6 38.125 10.046875 
Q 42.234375 14.109375 42.234375 20.359375 
Q 42.234375 26.703125 38.015625 30.859375 
Q 33.796875 35.015625 27.4375 35.015625 
Q 21.234375 35.015625 17.15625 30.90625 
Q 13.09375 26.8125 13.09375 20.65625 
z
" id="ArialMT-56"/>
       </defs>
       <use xlink:href="#ArialMT-56"/>
       <use x="55.615234" xlink:href="#ArialMT-48"/>
       <use x="111.230469" xlink:href="#ArialMT-48"/>
      </g>
     </g>
    </g>
    <g id="ytick_6">
     <g id="line2d_15">
      <g>
       <use style="stroke:#000000;stroke-width:0.8;" x="52.925" xlink:href="#m89e54b9028" y="248.2"/>
      </g>
     </g>
     <g id="text_16">
      <!-- 1000 -->
      <g transform="translate(23.68125 251.778906)scale(0.1 -0.1)">
       <use xlink:href="#ArialMT-49"/>
       <use x="55.615234" xlink:href="#ArialMT-48"/>
       <use x="111.230469" xlink:href="#ArialMT-48"/>
       <use x="166.845703" xlink:href="#ArialMT-48"/>
      </g>
     </g>
    </g>
    <g id="text_17">
     <!-- Depth below seafloor (m) -->
     <g transform="translate(17.576563 187.103125)rotate(-90)scale(0.1 -0.1)">
      <defs>
       <path d="M 7.71875 0 
L 7.71875 71.578125 
L 32.375 71.578125 
Q 40.71875 71.578125 45.125 70.5625 
Q 51.265625 69.140625 55.609375 65.4375 
Q 61.28125 60.640625 64.078125 53.1875 
Q 66.890625 45.75 66.890625 36.1875 
Q 66.890625 28.03125 64.984375 21.734375 
Q 63.09375 15.4375 60.109375 11.296875 
Q 57.125 7.171875 53.578125 4.796875 
Q 50.046875 2.4375 45.046875 1.21875 
Q 40.046875 0 33.546875 0 
z
M 17.1875 8.453125 
L 32.46875 8.453125 
Q 39.546875 8.453125 43.578125 9.765625 
Q 47.609375 11.078125 50 13.484375 
Q 53.375 16.84375 55.25 22.53125 
Q 57.125 28.21875 57.125 36.328125 
Q 57.125 47.5625 53.4375 53.59375 
Q 49.75 59.625 44.484375 61.671875 
Q 40.671875 63.140625 32.234375 63.140625 
L 17.1875 63.140625 
z
" id="ArialMT-68"/>
       <path d="M 42.09375 16.703125 
L 51.171875 15.578125 
Q 49.03125 7.625 43.21875 3.21875 
Q 37.40625 -1.171875 28.375 -1.171875 
Q 17 -1.171875 10.328125 5.828125 
Q 3.65625 12.84375 3.65625 25.484375 
Q 3.65625 38.578125 10.390625 45.796875 
Q 17.140625 53.03125 27.875 53.03125 
Q 38.28125 53.03125 44.875 45.953125 
Q 51.46875 38.875 51.46875 26.03125 
Q 51.46875 25.25 51.421875 23.6875 
L 12.75 23.6875 
Q 13.234375 15.140625 17.578125 10.59375 
Q 21.921875 6.0625 28.421875 6.0625 
Q 33.25 6.0625 36.671875 8.59375 
Q 40.09375 11.140625 42.09375 16.703125 
z
M 13.234375 30.90625 
L 42.1875 30.90625 
Q 41.609375 37.453125 38.875 40.71875 
Q 34.671875 45.796875 27.984375 45.796875 
Q 21.921875 45.796875 17.796875 41.75 
Q 13.671875 37.703125 13.234375 30.90625 
z
" id="ArialMT-101"/>
       <path d="M 6.59375 -19.875 
L 6.59375 51.859375 
L 14.59375 51.859375 
L 14.59375 45.125 
Q 17.4375 49.078125 21 51.046875 
Q 24.5625 53.03125 29.640625 53.03125 
Q 36.28125 53.03125 41.359375 49.609375 
Q 46.4375 46.1875 49.015625 39.953125 
Q 51.609375 33.734375 51.609375 26.3125 
Q 51.609375 18.359375 48.75 11.984375 
Q 45.90625 5.609375 40.453125 2.21875 
Q 35.015625 -1.171875 29 -1.171875 
Q 24.609375 -1.171875 21.109375 0.6875 
Q 17.625 2.546875 15.375 5.375 
L 15.375 -19.875 
z
M 14.546875 25.640625 
Q 14.546875 15.625 18.59375 10.84375 
Q 22.65625 6.0625 28.421875 6.0625 
Q 34.28125 6.0625 38.453125 11.015625 
Q 42.625 15.96875 42.625 26.375 
Q 42.625 36.28125 38.546875 41.203125 
Q 34.46875 46.140625 28.8125 46.140625 
Q 23.1875 46.140625 18.859375 40.890625 
Q 14.546875 35.640625 14.546875 25.640625 
z
" id="ArialMT-112"/>
       <path d="M 25.78125 7.859375 
L 27.046875 0.09375 
Q 23.34375 -0.6875 20.40625 -0.6875 
Q 15.625 -0.6875 12.984375 0.828125 
Q 10.359375 2.34375 9.28125 4.8125 
Q 8.203125 7.28125 8.203125 15.1875 
L 8.203125 45.015625 
L 1.765625 45.015625 
L 1.765625 51.859375 
L 8.203125 51.859375 
L 8.203125 64.703125 
L 16.9375 69.96875 
L 16.9375 51.859375 
L 25.78125 51.859375 
L 25.78125 45.015625 
L 16.9375 45.015625 
L 16.9375 14.703125 
Q 16.9375 10.9375 17.40625 9.859375 
Q 17.875 8.796875 18.921875 8.15625 
Q 19.96875 7.515625 21.921875 7.515625 
Q 23.390625 7.515625 25.78125 7.859375 
z
" id="ArialMT-116"/>
       <path d="M 6.59375 0 
L 6.59375 71.578125 
L 15.375 71.578125 
L 15.375 45.90625 
Q 21.53125 53.03125 30.90625 53.03125 
Q 36.671875 53.03125 40.921875 50.75 
Q 45.171875 48.484375 47 44.484375 
Q 48.828125 40.484375 48.828125 32.859375 
L 48.828125 0 
L 40.046875 0 
L 40.046875 32.859375 
Q 40.046875 39.453125 37.1875 42.453125 
Q 34.328125 45.453125 29.109375 45.453125 
Q 25.203125 45.453125 21.75 43.421875 
Q 18.3125 41.40625 16.84375 37.9375 
Q 15.375 34.46875 15.375 28.375 
L 15.375 0 
z
" id="ArialMT-104"/>
       <path d="M 14.703125 0 
L 6.546875 0 
L 6.546875 71.578125 
L 15.328125 71.578125 
L 15.328125 46.046875 
Q 20.90625 53.03125 29.546875 53.03125 
Q 34.328125 53.03125 38.59375 51.09375 
Q 42.875 49.171875 45.625 45.671875 
Q 48.390625 42.1875 49.953125 37.25 
Q 51.515625 32.328125 51.515625 26.703125 
Q 51.515625 13.375 44.921875 6.09375 
Q 38.328125 -1.171875 29.109375 -1.171875 
Q 19.921875 -1.171875 14.703125 6.5 
z
M 14.59375 26.3125 
Q 14.59375 17 17.140625 12.84375 
Q 21.296875 6.0625 28.375 6.0625 
Q 34.125 6.0625 38.328125 11.0625 
Q 42.53125 16.0625 42.53125 25.984375 
Q 42.53125 36.140625 38.5 40.96875 
Q 34.46875 45.796875 28.765625 45.796875 
Q 23 45.796875 18.796875 40.796875 
Q 14.59375 35.796875 14.59375 26.3125 
z
" id="ArialMT-98"/>
       <path d="M 6.390625 0 
L 6.390625 71.578125 
L 15.1875 71.578125 
L 15.1875 0 
z
" id="ArialMT-108"/>
       <path d="M 3.328125 25.921875 
Q 3.328125 40.328125 11.328125 47.265625 
Q 18.015625 53.03125 27.640625 53.03125 
Q 38.328125 53.03125 45.109375 46.015625 
Q 51.90625 39.015625 51.90625 26.65625 
Q 51.90625 16.65625 48.90625 10.90625 
Q 45.90625 5.171875 40.15625 2 
Q 34.421875 -1.171875 27.640625 -1.171875 
Q 16.75 -1.171875 10.03125 5.8125 
Q 3.328125 12.796875 3.328125 25.921875 
z
M 12.359375 25.921875 
Q 12.359375 15.96875 16.703125 11.015625 
Q 21.046875 6.0625 27.640625 6.0625 
Q 34.1875 6.0625 38.53125 11.03125 
Q 42.875 16.015625 42.875 26.21875 
Q 42.875 35.84375 38.5 40.796875 
Q 34.125 45.75 27.640625 45.75 
Q 21.046875 45.75 16.703125 40.8125 
Q 12.359375 35.890625 12.359375 25.921875 
z
" id="ArialMT-111"/>
       <path d="M 16.15625 0 
L 0.296875 51.859375 
L 9.375 51.859375 
L 17.625 21.921875 
L 20.703125 10.796875 
Q 20.90625 11.625 23.390625 21.484375 
L 31.640625 51.859375 
L 40.671875 51.859375 
L 48.4375 21.78125 
L 51.03125 11.859375 
L 54 21.875 
L 62.890625 51.859375 
L 71.4375 51.859375 
L 55.21875 0 
L 46.09375 0 
L 37.84375 31.0625 
L 35.84375 39.890625 
L 25.34375 0 
z
" id="ArialMT-119"/>
       <path d="M 3.078125 15.484375 
L 11.765625 16.84375 
Q 12.5 11.625 15.84375 8.84375 
Q 19.1875 6.0625 25.203125 6.0625 
Q 31.25 6.0625 34.171875 8.515625 
Q 37.109375 10.984375 37.109375 14.3125 
Q 37.109375 17.28125 34.515625 19 
Q 32.71875 20.171875 25.53125 21.96875 
Q 15.875 24.421875 12.140625 26.203125 
Q 8.40625 27.984375 6.46875 31.125 
Q 4.546875 34.28125 4.546875 38.09375 
Q 4.546875 41.546875 6.125 44.5 
Q 7.71875 47.46875 10.453125 49.421875 
Q 12.5 50.921875 16.03125 51.96875 
Q 19.578125 53.03125 23.640625 53.03125 
Q 29.734375 53.03125 34.34375 51.265625 
Q 38.96875 49.515625 41.15625 46.5 
Q 43.359375 43.5 44.1875 38.484375 
L 35.59375 37.3125 
Q 35.015625 41.3125 32.203125 43.546875 
Q 29.390625 45.796875 24.265625 45.796875 
Q 18.21875 45.796875 15.625 43.796875 
Q 13.03125 41.796875 13.03125 39.109375 
Q 13.03125 37.40625 14.109375 36.03125 
Q 15.1875 34.625 17.484375 33.6875 
Q 18.796875 33.203125 25.25 31.453125 
Q 34.578125 28.953125 38.25 27.359375 
Q 41.9375 25.78125 44.03125 22.75 
Q 46.140625 19.734375 46.140625 15.234375 
Q 46.140625 10.84375 43.578125 6.953125 
Q 41.015625 3.078125 36.171875 0.953125 
Q 31.34375 -1.171875 25.25 -1.171875 
Q 15.140625 -1.171875 9.84375 3.03125 
Q 4.546875 7.234375 3.078125 15.484375 
z
" id="ArialMT-115"/>
       <path d="M 40.4375 6.390625 
Q 35.546875 2.25 31.03125 0.53125 
Q 26.515625 -1.171875 21.34375 -1.171875 
Q 12.796875 -1.171875 8.203125 3 
Q 3.609375 7.171875 3.609375 13.671875 
Q 3.609375 17.484375 5.34375 20.625 
Q 7.078125 23.78125 9.890625 25.6875 
Q 12.703125 27.59375 16.21875 28.5625 
Q 18.796875 29.25 24.03125 29.890625 
Q 34.671875 31.15625 39.703125 32.90625 
Q 39.75 34.71875 39.75 35.203125 
Q 39.75 40.578125 37.25 42.78125 
Q 33.890625 45.75 27.25 45.75 
Q 21.046875 45.75 18.09375 43.578125 
Q 15.140625 41.40625 13.71875 35.890625 
L 5.125 37.0625 
Q 6.296875 42.578125 8.984375 45.96875 
Q 11.671875 49.359375 16.75 51.1875 
Q 21.828125 53.03125 28.515625 53.03125 
Q 35.15625 53.03125 39.296875 51.46875 
Q 43.453125 49.90625 45.40625 47.53125 
Q 47.359375 45.171875 48.140625 41.546875 
Q 48.578125 39.3125 48.578125 33.453125 
L 48.578125 21.734375 
Q 48.578125 9.46875 49.140625 6.21875 
Q 49.703125 2.984375 51.375 0 
L 42.1875 0 
Q 40.828125 2.734375 40.4375 6.390625 
z
M 39.703125 26.03125 
Q 34.90625 24.078125 25.34375 22.703125 
Q 19.921875 21.921875 17.671875 20.9375 
Q 15.4375 19.96875 14.203125 18.09375 
Q 12.984375 16.21875 12.984375 13.921875 
Q 12.984375 10.40625 15.640625 8.0625 
Q 18.3125 5.71875 23.4375 5.71875 
Q 28.515625 5.71875 32.46875 7.9375 
Q 36.421875 10.15625 38.28125 14.015625 
Q 39.703125 17 39.703125 22.796875 
z
" id="ArialMT-97"/>
       <path d="M 8.6875 0 
L 8.6875 45.015625 
L 0.921875 45.015625 
L 0.921875 51.859375 
L 8.6875 51.859375 
L 8.6875 57.375 
Q 8.6875 62.59375 9.625 65.140625 
Q 10.890625 68.5625 14.078125 70.671875 
Q 17.28125 72.796875 23.046875 72.796875 
Q 26.765625 72.796875 31.25 71.921875 
L 29.9375 64.265625 
Q 27.203125 64.75 24.75 64.75 
Q 20.75 64.75 19.09375 63.03125 
Q 17.4375 61.328125 17.4375 56.640625 
L 17.4375 51.859375 
L 27.546875 51.859375 
L 27.546875 45.015625 
L 17.4375 45.015625 
L 17.4375 0 
z
" id="ArialMT-102"/>
       <path d="M 6.5 0 
L 6.5 51.859375 
L 14.40625 51.859375 
L 14.40625 44 
Q 17.4375 49.515625 20 51.265625 
Q 22.5625 53.03125 25.640625 53.03125 
Q 30.078125 53.03125 34.671875 50.203125 
L 31.640625 42.046875 
Q 28.421875 43.953125 25.203125 43.953125 
Q 22.3125 43.953125 20.015625 42.21875 
Q 17.71875 40.484375 16.75 37.40625 
Q 15.28125 32.71875 15.28125 27.15625 
L 15.28125 0 
z
" id="ArialMT-114"/>
      </defs>
      <use xlink:href="#ArialMT-68"/>
      <use x="72.216797" xlink:href="#ArialMT-101"/>
      <use x="127.832031" xlink:href="#ArialMT-112"/>
      <use x="183.447266" xlink:href="#ArialMT-116"/>
      <use x="211.230469" xlink:href="#ArialMT-104"/>
      <use x="266.845703" xlink:href="#ArialMT-32"/>
      <use x="294.628906" xlink:href="#ArialMT-98"/>
      <use x="350.244141" xlink:href="#ArialMT-101"/>
      <use x="405.859375" xlink:href="#ArialMT-108"/>
      <use x="428.076172" xlink:href="#ArialMT-111"/>
      <use x="483.691406" xlink:href="#ArialMT-119"/>
      <use x="555.908203" xlink:href="#ArialMT-32"/>
      <use x="583.691406" xlink:href="#ArialMT-115"/>
      <use x="633.691406" xlink:href="#ArialMT-101"/>
      <use x="689.306641" xlink:href="#ArialMT-97"/>
      <use x="744.921875" xlink:href="#ArialMT-102"/>
      <use x="772.705078" xlink:href="#ArialMT-108"/>
      <use x="794.921875" xlink:href="#ArialMT-111"/>
      <use x="850.537109" xlink:href="#ArialMT-111"/>
      <use x="906.152344" xlink:href="#ArialMT-114"/>
      <use x="939.453125" xlink:href="#ArialMT-32"/>
      <use x="967.236328" xlink:href="#ArialMT-40"/>
      <use x="1000.537109" xlink:href="#ArialMT-109"/>
      <use x="1083.837891" xlink:href="#ArialMT-41"/>
     </g>
    </g>
   </g>
   <g id="LineCollection_1">
    <path clip-path="url(#p9dadea9caf)" d="M 147.24764 248.2 
L 154.417398 247.161989 
L 156.414219 247.042282 
L 158.215235 246.797226 
L 164.485111 246.343493 
L 170.484096 245.564029 
L 176.492414 244.603287 
L 180.331777 244.26011 
L 183.411406 243.999466 
L 188.297305 243.321154 
L 192.410469 242.581208 
L 194.525976 242.422292 
L 196.91 242.125351 
L 202.16691 241.576709 
L 205.909063 241.150968 
L 209.161536 240.53474 
L 210.408594 240.430143 
L 212.482995 239.92234 
L 214.908125 239.636236 
L 219.407656 238.565275 
L 221.350799 237.515107 
L 223.503089 236.505 
L 223.907187 236.119464 
L 225.441542 234.166 
L 225.881091 232.853098 
L 226.483487 231.827 
L 226.955441 230.242421 
L 227.019548 228.766905 
L 227.408128 227.149 
L 227.778866 224.483622 
L 228.424045 220.122993 
L 229.556681 215.454 
L 230.352643 210.776 
L 231.142794 203.759 
L 231.505708 199.081 
L 231.506395 198.353311 
L 231.981241 192.544849 
L 231.965696 192.064 
L 232.329464 187.386 
L 232.323097 187.082859 
L 232.90625 181.780994 
L 233.982455 191.504554 
L 233.999549 192.064 
L 234.204682 194.403 
L 234.211655 195.081591 
L 234.557251 199.081 
L 234.541598 199.931106 
L 234.702073 201.42 
L 234.672087 202.337938 
L 234.982289 205.018809 
L 234.88796 207.128156 
L 235.191358 209.588128 
L 235.141318 210.776 
L 235.292715 211.874439 
L 235.257227 213.115 
L 235.409326 214.152821 
L 235.44339 216.772886 
L 235.597031 217.793 
L 235.842687 220.132 
L 236.181509 222.471 
L 236.670677 224.81 
L 237.98548 229.488 
L 238.05612 229.826067 
L 238.77059 231.827 
L 239.544683 233.054131 
L 239.953874 234.166 
L 240.628192 234.829888 
L 242.065898 236.505 
L 246.924005 238.844 
L 250.904375 239.645513 
L 253.337952 239.917949 
L 255.403906 240.408503 
L 260.230735 241.183 
L 264.402969 241.678708 
L 268.9025 242.114025 
L 273.402031 242.570983 
L 278.713473 243.522 
L 289.19585 244.715131 
L 293.014586 245.021768 
L 297.057691 245.861 
L 306.860025 246.880533 
L 311.396516 247.161254 
L 318.56486 248.2 
L 318.56486 248.2 
" style="fill:none;stroke:#27dade;stroke-width:0.3;"/>
   </g>
   <g id="LineCollection_2">
    <path clip-path="url(#p9dadea9caf)" d="M 156.521355 248.2 
L 160.002551 247.726329 
L 160.91375 247.675772 
L 162.11968 247.573119 
L 165.413281 247.193826 
L 167.879466 246.917998 
L 169.912813 246.680652 
L 171.196978 246.52855 
L 174.412344 246.173894 
L 178.166735 245.861 
L 178.760991 245.782566 
L 178.911875 245.772846 
L 182.365416 245.317261 
L 183.411406 245.228733 
L 185.02355 245.022956 
L 187.910937 244.58127 
L 189.479013 244.337136 
L 192.410469 243.994166 
L 193.141678 243.902106 
L 196.91 243.580207 
L 197.563627 243.522 
L 201.409531 243.060782 
L 204.200945 242.634066 
L 205.909063 242.44574 
L 208.545738 242.151372 
L 210.408594 241.893829 
L 211.418237 241.707845 
L 214.895305 241.183 
L 214.904021 241.180866 
L 214.908125 241.180382 
L 214.916761 241.178511 
L 219.407656 240.045157 
L 220.878727 239.60871 
L 223.247748 238.844 
L 223.571056 238.669268 
L 223.907187 238.511516 
L 227.045526 236.505 
L 228.406719 234.821876 
L 229.017472 234.483489 
L 229.879469 234.166 
L 232.90625 232.369389 
L 235.194866 234.166 
L 237.405781 235.275193 
L 238.223274 236.080041 
L 238.576558 236.505 
L 241.905313 238.627426 
L 242.335792 238.844 
L 244.827036 239.664195 
L 246.404844 240.113513 
L 250.888403 241.183 
L 250.899905 241.185323 
L 250.904375 241.186185 
L 250.913557 241.187773 
L 255.403906 241.880148 
L 258.034919 242.154316 
L 259.903437 242.431175 
L 263.223299 242.90877 
L 264.402969 243.048928 
L 265.190374 243.112682 
L 268.325263 243.522 
L 268.9025 243.573659 
L 272.679567 243.89756 
L 273.402031 243.98884 
L 274.654188 244.172911 
L 277.901563 244.576093 
L 279.910482 244.816699 
L 282.401094 245.224922 
L 286.688415 245.750686 
L 286.900625 245.770119 
L 287.6674 245.861 
L 290.911297 246.115125 
L 291.400156 246.172502 
L 292.173462 246.262989 
L 295.899687 246.679433 
L 297.930482 246.916672 
L 300.399219 247.193047 
L 302.079841 247.326359 
L 304.89875 247.675357 
L 309.291145 248.2 
" style="fill:none;stroke:#52f5cb;stroke-width:0.3;"/>
   </g>
   <g id="LineCollection_3">
    <path clip-path="url(#p9dadea9caf)" d="M 164.988201 248.2 
L 165.413281 248.151048 
L 165.533266 248.137628 
L 169.912813 247.626417 
L 172.678726 247.29881 
L 174.412344 247.107592 
L 176.915048 246.899014 
L 178.911875 246.679166 
L 182.427451 246.372491 
L 183.411406 246.269511 
L 184.068101 246.202371 
L 187.062066 245.861 
L 187.910937 245.731148 
L 191.181218 245.221996 
L 192.410469 245.078178 
L 194.82041 244.774765 
L 196.91 244.596267 
L 199.84592 244.334815 
L 201.409531 244.167538 
L 202.438763 244.057027 
L 205.909063 243.678457 
L 206.162676 243.653836 
L 207.297617 243.522 
L 210.408594 243.091903 
L 213.119948 242.592449 
L 214.908125 242.322533 
L 218.797434 241.500213 
L 219.407656 241.375971 
L 219.681662 241.325437 
L 220.164785 241.183 
L 222.547364 240.47612 
L 223.907187 240.037175 
L 225.385069 239.61225 
L 227.032423 238.844 
L 228.406719 237.950514 
L 230.183606 237.428683 
L 232.90625 236.546672 
L 235.532107 237.478996 
L 237.405781 238.030234 
L 238.669879 238.844 
L 240.32833 239.663766 
L 241.905313 240.139374 
L 243.134463 240.544048 
L 245.378181 241.183 
L 246.404844 241.430587 
L 249.30221 242.015856 
L 250.904375 242.324524 
L 254.195705 242.893939 
L 255.403906 243.080233 
L 256.111823 243.154003 
L 258.595437 243.522 
L 259.664018 243.646458 
L 259.903437 243.669677 
L 263.384763 244.051296 
L 264.402969 244.160376 
L 265.949859 244.326123 
L 268.9025 244.590366 
L 271.000688 244.770295 
L 273.402031 245.073696 
L 277.563981 245.685514 
L 277.901563 245.727427 
L 278.1104 245.75244 
L 278.772739 245.861 
L 281.747245 246.200891 
L 282.401094 246.267799 
L 285.601602 246.536274 
L 286.900625 246.67804 
L 289.444979 246.877363 
L 291.400156 247.106841 
L 294.492967 247.468742 
L 295.899687 247.625957 
L 300.27911 248.137563 
L 300.399219 248.15101 
L 300.480985 248.157496 
L 300.824299 248.2 
" style="fill:none;stroke:#7dffb6;stroke-width:0.3;"/>
   </g>
   <g id="LineCollection_4">
    <path clip-path="url(#p9dadea9caf)" d="M 173.055069 248.2 
L 174.160475 248.069071 
L 174.412344 248.04129 
L 174.775949 248.010986 
L 178.911875 247.555626 
L 180.401416 247.425689 
L 183.411406 247.110664 
L 185.420285 246.905279 
L 187.910937 246.621295 
L 189.137094 246.498395 
L 192.410469 246.106611 
L 194.802754 245.861 
L 196.499143 245.647423 
L 196.91 245.612327 
L 197.487263 245.56092 
L 201.409531 245.14131 
L 203.991324 244.864098 
L 205.909063 244.654894 
L 207.745463 244.47662 
L 210.408594 244.167267 
L 214.577658 243.522 
L 214.82166 243.477053 
L 214.908125 243.464001 
L 215.096187 243.424239 
L 219.407656 242.546422 
L 221.343619 242.189375 
L 223.907187 241.43357 
L 224.81221 241.183 
L 227.126606 240.517556 
L 228.406719 239.920571 
L 232.489953 239.060405 
L 232.90625 238.995279 
L 233.358604 239.079148 
L 237.405781 239.9934 
L 238.578808 240.573223 
L 240.600659 241.183 
L 241.905313 241.543675 
L 243.038396 241.772013 
L 246.404844 242.583855 
L 247.704516 242.846389 
L 250.904375 243.462864 
L 251.246194 243.522 
L 255.403906 244.160076 
L 258.077044 244.471417 
L 259.903437 244.648544 
L 261.829651 244.859693 
L 264.402969 245.135372 
L 268.312436 245.554266 
L 268.9025 245.607073 
L 269.321808 245.64303 
L 271.046985 245.861 
L 273.402031 246.103782 
L 273.985201 246.16415 
L 277.901563 246.619507 
L 280.394061 246.90432 
L 282.401094 247.109698 
L 284.207076 247.261193 
L 286.900625 247.555149 
L 287.978662 247.639602 
L 291.400156 248.041181 
L 292.757431 248.2 
" style="fill:none;stroke:#a8f79c;stroke-width:0.3;"/>
   </g>
   <g id="LineCollection_5">
    <path clip-path="url(#p9dadea9caf)" d="M 181.04008 248.2 
L 183.411406 247.951818 
L 186.772468 247.608187 
L 187.910937 247.478379 
L 190.519344 247.216933 
L 192.410469 246.990588 
L 195.309598 246.69294 
L 196.91 246.534996 
L 198.012556 246.434144 
L 201.409531 246.096832 
L 203.775905 245.861 
L 205.543885 245.671169 
L 205.909063 245.631332 
L 209.328251 245.299403 
L 210.408594 245.173909 
L 212.290741 244.8826 
L 214.908125 244.567792 
L 216.522933 244.361429 
L 219.407656 243.731128 
L 220.464282 243.522 
L 223.005576 243.053313 
L 223.907187 242.787496 
L 226.930271 241.950505 
L 228.406719 241.632416 
L 229.15601 241.572506 
L 231.82557 241.183 
L 232.90625 241.013937 
L 233.818099 241.183 
L 237.405781 241.729257 
L 239.189299 242.11013 
L 241.905313 242.860978 
L 245.185503 243.522 
L 246.044926 243.709096 
L 246.404844 243.755303 
L 247.023323 243.843505 
L 250.904375 244.568689 
L 253.517451 244.88036 
L 255.403906 245.169871 
L 256.490071 245.296377 
L 259.903437 245.62741 
L 260.274538 245.66809 
L 262.075252 245.861 
L 264.402969 246.092628 
L 267.805477 246.431267 
L 268.9025 246.531806 
L 270.496043 246.689374 
L 273.402031 246.988954 
L 276.111406 247.269419 
L 277.901563 247.477561 
L 279.040876 247.607749 
L 282.401094 247.951598 
L 282.812549 247.986112 
L 284.77242 248.2 
" style="fill:none;stroke:#d2de81;stroke-width:0.3;"/>
   </g>
   <g id="LineCollection_6">
    <path clip-path="url(#p9dadea9caf)" d="M 189.262426 248.2 
L 191.901594 247.935471 
L 192.410469 247.874564 
L 193.190583 247.794472 
L 196.91 247.427401 
L 199.472396 247.193015 
L 201.409531 247.000663 
L 204.263926 246.716194 
L 205.909063 246.57396 
L 209.715792 246.22114 
L 210.408594 246.166801 
L 210.930431 246.132268 
L 213.316502 245.861 
L 214.908125 245.669567 
L 218.224183 245.245793 
L 219.407656 244.987209 
L 222.122045 244.449974 
L 223.907187 244.181919 
L 224.956859 244.067653 
L 227.509173 243.522 
L 228.406719 243.328631 
L 231.984032 243.042602 
L 232.90625 242.908044 
L 237.038555 243.331104 
L 237.405781 243.387018 
L 238.037866 243.522 
L 240.777485 244.108281 
L 241.905313 244.230976 
L 244.115419 244.712116 
L 246.404844 245.006033 
L 250.338974 245.567086 
L 250.904375 245.672733 
L 252.482821 245.861 
L 254.884785 246.130856 
L 255.403906 246.165236 
L 256.093256 246.219346 
L 259.903437 246.571738 
L 261.543895 246.713762 
L 264.402969 246.998265 
L 266.343259 247.191375 
L 268.9025 247.42592 
L 272.620071 247.793512 
L 273.402031 247.874125 
L 276.550074 248.2 
" style="fill:none;stroke:#feb562;stroke-width:0.3;"/>
   </g>
   <g id="LineCollection_7">
    <path clip-path="url(#p9dadea9caf)" d="M 198.219767 248.2 
L 200.932237 247.951887 
L 201.409531 247.904493 
L 202.112831 247.834402 
L 205.909063 247.506189 
L 207.533346 247.355645 
L 210.408594 247.130129 
L 212.57431 246.986809 
L 214.908125 246.721482 
L 218.613344 246.273909 
L 219.407656 246.222276 
L 220.044677 246.192144 
L 222.331295 245.861 
L 223.907187 245.624366 
L 227.251222 245.260336 
L 228.406719 245.013305 
L 231.045793 244.893875 
L 232.90625 244.735903 
L 234.727434 244.91429 
L 237.405781 245.047985 
L 238.513684 245.285077 
L 241.905313 245.65405 
L 242.185911 245.715136 
L 243.322099 245.861 
L 246.404844 246.234322 
L 247.224927 246.287306 
L 250.904375 246.723602 
L 253.239783 246.98598 
L 255.403906 247.129305 
L 258.277681 247.35488 
L 259.903437 247.505241 
L 263.698517 247.833803 
L 264.402969 247.903902 
L 264.88104 247.951483 
L 267.592733 248.2 
" style="fill:none;stroke:#ff8143;stroke-width:0.3;"/>
   </g>
   <g id="LineCollection_8">
    <path clip-path="url(#p9dadea9caf)" d="M 209.050207 248.2 
L 210.408594 248.093457 
L 214.218189 247.841349 
L 214.908125 247.762912 
L 216.003483 247.630598 
L 219.407656 247.409314 
L 222.137726 247.280177 
L 223.907187 247.023927 
L 226.008226 246.953187 
L 228.406719 246.661333 
L 231.635944 246.521346 
L 232.90625 246.503704 
L 234.176556 246.521346 
L 237.405781 246.676274 
L 239.779578 246.966025 
L 241.905313 247.036813 
L 244.433918 247.17545 
L 246.404844 247.41413 
L 249.816636 247.634558 
L 250.904375 247.763539 
L 251.594782 247.841105 
L 255.403906 248.093375 
L 256.762293 248.2 
" style="fill:none;stroke:#ff4121;stroke-width:0.3;"/>
   </g>
   <g id="LineCollection_9">
    <path clip-path="url(#p9dadea9caf)" d="M 102.56379 248.2 
L 105.175586 247.293523 
L 110.792237 246.186763 
L 112.284915 245.861 
L 117.750251 244.474235 
L 123.774149 243.522 
L 127.672715 242.615249 
L 133.916562 241.630254 
L 134.530032 241.501901 
L 138.416094 240.927325 
L 141.293406 240.339719 
L 142.915625 240.128253 
L 144.717716 239.780785 
L 151.914688 238.836296 
L 158.425049 237.550294 
L 164.861891 236.505 
L 171.473137 234.977107 
L 176.112982 234.166 
L 186.819469 231.25962 
L 187.910937 230.87542 
L 191.407497 229.488 
L 193.528274 227.730071 
L 194.099871 227.149 
L 194.608835 225.952781 
L 194.934981 224.81 
L 194.843562 223.5452 
L 194.892511 222.471 
L 194.598629 221.333524 
L 194.431004 220.132 
L 194.135759 219.235139 
L 193.268828 215.900202 
L 190.075223 206.098 
L 187.853515 199.081 
L 184.342059 189.241217 
L 182.685433 184.669616 
L 179.257312 175.691 
L 178.190193 172.976847 
L 175.348832 165.848183 
L 173.520839 161.193567 
L 170.885122 154.64 
L 169.010397 149.962 
L 167.111091 145.284 
L 163.354155 135.928 
L 161.516888 131.25 
L 153.601782 110.199 
L 150.648056 100.843 
L 148.818796 93.826 
L 147.818202 88.938484 
L 147.116884 84.47 
L 146.620811 79.792 
L 146.491953 72.295089 
L 146.620987 70.023166 
L 147.077909 65.933312 
L 147.538009 63.355137 
L 148.512677 59.311526 
L 148.889842 57.974411 
L 149.824916 55.31567 
L 150.293505 54.063 
L 151.914688 50.651383 
L 152.766979 48.941952 
L 154.464684 46.03257 
L 155.333849 44.707 
L 158.875987 40.029 
L 163.30709 35.351 
L 164.057334 34.646135 
L 169.912813 29.957543 
L 173.098942 27.651252 
L 174.412344 26.932626 
L 175.826939 25.995 
L 180.082844 23.656 
L 185.004069 21.317 
L 192.410469 18.517592 
L 197.275028 16.828753 
L 197.526948 16.639 
L 201.409531 14.585467 
L 201.68549 14.3 
L 201.68549 14.3 
" style="fill:none;stroke:#5a3bfd;stroke-width:1.5;"/>
    <path clip-path="url(#p9dadea9caf)" d="M 259.812473 14.3 
L 259.820314 14.34321 
L 259.903437 14.38975 
L 261.707693 15.701091 
L 264.402969 16.61896 
L 264.519525 16.639 
L 267.382456 17.429167 
L 268.9025 17.998648 
L 272.328995 18.978 
L 272.954153 19.210821 
L 273.402031 19.4131 
L 276.484692 20.580465 
L 277.901563 21.083763 
L 278.556684 21.317 
L 282.401094 23.06976 
L 283.068933 23.308836 
L 283.742627 23.656 
L 286.900625 25.379274 
L 287.541634 25.661783 
L 288.103472 25.995 
L 289.678704 26.889866 
L 291.400156 28.069431 
L 291.655411 28.20131 
L 291.854106 28.334 
L 293.101344 29.218332 
L 295.205568 30.673 
L 295.899687 31.253474 
L 298.208096 33.012 
L 299.034429 33.721461 
L 300.399219 35.018967 
L 300.798858 35.351 
L 301.23603 35.786001 
L 303.212718 37.69 
L 303.75416 38.284994 
L 304.89875 39.621743 
L 305.167108 39.889499 
L 305.292335 40.029 
L 306.555308 41.506868 
L 307.240758 42.368 
L 308.607357 44.295852 
L 308.903535 44.707 
L 309.023559 44.901793 
L 309.398281 45.511044 
L 310.443414 47.046 
L 310.894067 47.823557 
L 311.807616 49.385 
L 312.236674 50.248513 
L 312.978139 51.724 
L 313.897812 53.863878 
L 313.99239 54.063 
L 314.749571 55.959229 
L 314.930412 56.402 
L 315.156111 57.056104 
L 315.717027 58.741 
L 316.0371 59.85307 
L 316.369002 61.08 
L 316.432568 61.35085 
" style="fill:none;stroke:#5a3bfd;stroke-width:1.5;"/>
    <path clip-path="url(#p9dadea9caf)" d="M 311.971911 107.560015 
L 308.665646 117.216 
L 306.98205 121.894 
L 286.400261 175.951105 
L 283.697457 183.381891 
L 282.09669 187.544239 
L 279.606808 194.403 
L 276.955917 201.42 
L 275.21526 206.098 
L 273.371893 210.776 
L 270.349614 220.132 
L 270.275208 220.845578 
L 269.933089 222.471 
L 269.998391 223.040679 
L 270.029112 224.81 
L 271.120219 227.149 
L 274.137522 229.488 
L 281.838754 232.119322 
L 284.147691 232.734937 
L 291.400156 234.441629 
L 294.392082 234.949701 
L 295.899687 235.31967 
L 297.609147 235.616368 
L 301.132121 236.505 
L 318.397344 239.42647 
L 321.117534 239.768958 
L 328.794017 241.183 
L 334.80973 242.007318 
L 342.072197 243.522 
L 345.394531 244.068844 
L 347.283643 244.50402 
L 351.203933 245.180087 
L 354.393594 246.02043 
L 357.568145 246.549767 
L 358.893125 246.976413 
L 363.24871 248.2 
L 363.24871 248.2 
" style="fill:none;stroke:#5a3bfd;stroke-width:1.5;"/>
   </g>
   <g id="LineCollection_10">
    <path clip-path="url(#p9dadea9caf)" d="M 122.986923 248.2 
L 126.019735 247.627023 
L 130.872107 246.617395 
L 138.416094 245.686542 
L 141.464383 245.106598 
L 142.915625 244.952799 
L 144.976512 244.593315 
L 156.414219 243.404403 
L 160.91375 242.70349 
L 165.413281 241.915143 
L 166.391035 241.691268 
L 170.266854 241.183 
L 176.28183 240.211182 
L 185.284665 238.844 
L 189.274362 238.135248 
L 194.028238 237.345968 
L 200.559685 236.505 
L 210.408594 234.49785 
L 211.573207 234.166 
L 215.207946 231.827 
L 215.19327 231.678773 
L 215.610049 229.488 
L 215.337266 226.925919 
L 214.908125 224.446751 
L 213.679651 219.4934 
L 212.881073 215.454 
L 211.159399 203.759 
L 210.408594 198.370829 
L 208.916101 190.500846 
L 207.115951 182.080621 
L 205.183646 173.729095 
L 201.808259 159.525272 
L 200.524695 154.180034 
L 197.784217 142.490554 
L 195.119981 131.25 
L 191.010767 114.14939 
L 183.227972 82.131 
L 181.74384 75.114 
L 180.914669 70.436 
L 180.08929 64.031058 
L 179.837702 61.08 
L 179.716633 58.322661 
L 179.806828 53.597775 
L 180.275087 49.385 
L 180.709593 47.046 
L 182.023609 42.368 
L 182.930501 40.029 
L 184.049844 37.69 
L 185.003702 36.178726 
L 185.391686 35.351 
L 186.954414 33.012 
L 187.268216 32.677893 
L 188.802942 30.673 
L 190.065722 29.454126 
L 190.941718 28.334 
L 194.925244 24.687739 
L 199.278562 21.317 
L 200.319186 20.750204 
L 201.409531 19.790202 
L 202.098639 19.33622 
L 202.327869 18.978 
L 203.991855 17.981374 
L 204.737635 16.639 
L 205.35157 14.589802 
L 205.631721 14.3 
L 205.631721 14.3 
" style="fill:none;stroke:#3079f7;stroke-width:1.5;"/>
    <path clip-path="url(#p9dadea9caf)" d="M 256.028572 14.3 
L 256.362588 16.140647 
L 257.252687 16.639 
L 259.903437 18.810417 
L 260.205245 18.978 
L 261.780066 20.341469 
L 263.709575 21.317 
L 264.402969 21.850301 
L 267.144956 23.656 
L 267.74448 24.257976 
L 268.9025 25.06601 
L 270.178284 25.995 
L 271.2497 27.11385 
L 272.785306 28.334 
L 273.402031 29.002901 
L 274.426052 30.140681 
L 275.019291 30.673 
L 275.790249 31.770528 
L 276.930252 33.012 
L 277.145866 33.404835 
L 277.901563 34.419893 
L 278.564397 35.351 
L 279.39265 36.914885 
L 279.923467 37.69 
L 280.362966 38.749484 
L 281.071532 40.029 
L 281.260846 40.621737 
L 282.02769 42.368 
L 282.401094 43.517567 
L 282.721988 44.540189 
L 282.791479 44.707 
L 283.241219 46.609276 
L 283.383795 47.046 
L 283.522921 47.629161 
L 283.832267 49.385 
L 284.00179 50.891907 
L 284.150243 51.724 
L 284.261562 52.691131 
L 284.35013 54.063 
L 284.375496 55.375643 
L 284.443054 56.402 
L 284.464069 57.4744 
L 284.439913 58.741 
L 284.419802 59.790389 
L 284.352075 61.08 
L 284.329512 61.36047 
" style="fill:none;stroke:#3079f7;stroke-width:1.5;"/>
    <path clip-path="url(#p9dadea9caf)" d="M 275.167155 107.561942 
L 272.344455 119.555 
L 268.149085 138.267 
L 262.581669 164.94277 
L 256.95919 192.064 
L 253.119947 208.437 
L 250.865105 217.793 
L 250.093849 222.471 
L 249.801517 224.81 
L 249.637779 227.149 
L 249.728448 229.488 
L 250.600087 231.985178 
L 250.904375 232.256557 
L 254.268831 234.166 
L 256.390841 234.67904 
L 265.57554 236.505 
L 278.753063 238.401363 
L 280.728403 238.844 
L 283.152009 239.23435 
L 292.562274 240.578894 
L 295.995173 241.232637 
L 306.20375 242.84362 
L 310.289426 243.522 
L 314.783665 243.982495 
L 320.843461 244.58943 
L 328.389012 245.861 
L 334.942388 246.616358 
L 339.791077 247.626146 
L 341.535069 247.867272 
L 342.825577 248.2 
L 342.825577 248.2 
" style="fill:none;stroke:#3079f7;stroke-width:1.5;"/>
   </g>
   <g id="LineCollection_11">
    <path clip-path="url(#p9dadea9caf)" d="M 136.494322 248.2 
L 142.915625 247.164353 
L 145.361447 246.928584 
L 148.5152 246.432838 
L 156.556273 245.861 
L 160.91375 245.320207 
L 163.445596 244.838135 
L 165.413281 244.588757 
L 166.808681 244.247373 
L 183.411406 242.09625 
L 184.610058 241.806097 
L 210.408594 238.399607 
L 212.911463 237.806071 
L 214.908125 237.454636 
L 215.940057 237.041431 
L 218.180497 236.505 
L 219.407656 235.973895 
L 221.343915 234.166 
L 222.297259 231.827 
L 222.259755 230.970612 
L 222.405672 227.929536 
L 222.206692 226.265028 
L 222.248107 224.81 
L 222.150478 223.896807 
L 222.165607 220.132 
L 222.095124 219.190032 
L 222.144747 215.454 
L 222.095512 214.512233 
L 222.136932 210.776 
L 222.11741 208.437 
L 222.02833 205.12131 
L 221.915837 201.42 
L 221.202418 192.064 
L 219.333096 175.691 
L 217.659492 161.657 
L 216.928773 154.64 
L 216.471038 149.962 
L 216.249603 147.623 
L 215.592932 140.250015 
L 214.587572 128.744367 
L 212.839037 105.521 
L 212.514244 100.843 
L 212.196819 96.165 
L 212.04075 93.826 
L 211.58428 86.809 
L 211.436654 84.47 
L 210.879048 75.114 
L 210.748917 72.598089 
L 210.315668 63.370694 
L 210.105487 53.905435 
L 210.198378 46.936723 
L 210.432963 42.355332 
L 210.919205 37.69 
L 211.713475 33.012 
L 213.606264 25.995 
L 213.891703 25.466631 
L 214.908125 22.105022 
L 216.233657 18.978 
L 216.93029 17.690186 
L 217.449318 15.620993 
L 217.61727 14.3 
L 217.61727 14.3 
" style="fill:none;stroke:#04b0ed;stroke-width:1.5;"/>
    <path clip-path="url(#p9dadea9caf)" d="M 245.165958 14.3 
L 245.245566 14.90263 
L 245.730938 16.639 
L 246.404844 17.994536 
L 246.767934 18.978 
L 246.947456 19.260067 
L 247.686378 21.317 
L 248.112674 22.768215 
L 248.70264 23.656 
L 249.464414 25.246462 
L 249.695256 25.995 
L 249.834342 26.551238 
L 250.588959 28.334 
L 250.904375 29.323558 
L 251.217636 30.510157 
L 251.287622 30.673 
L 251.361138 30.91044 
L 251.845424 33.012 
L 251.979448 33.570857 
L 252.313495 35.351 
L 252.537591 36.841002 
L 252.697664 37.69 
L 252.861273 39.011742 
L 253.006644 40.029 
L 253.126739 41.212744 
L 253.250119 42.368 
L 253.338714 43.441553 
L 253.436852 44.707 
L 253.502445 45.69544 
L 253.57479 47.046 
L 253.623018 48.459238 
L 253.671231 49.385 
L 253.707129 50.267039 
L 253.733519 51.724 
L 253.739022 53.19754 
L 253.764882 54.063 
L 253.751641 55.5431 
L 253.770048 56.402 
L 253.741664 57.876913 
L 253.753454 58.741 
L 253.759078 59.596034 
L 253.717358 61.08 
L 253.717532 61.343792 
" style="fill:none;stroke:#04b0ed;stroke-width:1.5;"/>
    <path clip-path="url(#p9dadea9caf)" d="M 251.481355 107.595242 
L 250.723064 119.649251 
L 248.170168 156.061328 
L 247.716358 161.657 
L 246.932668 171.28738 
L 245.39563 189.725 
L 243.443825 206.897768 
L 242.336699 215.678248 
L 242.007991 220.185375 
L 241.96714 222.471 
L 242.050557 224.885503 
L 242.271318 227.149 
L 243.148408 231.827 
L 243.495875 232.653825 
L 244.254528 234.166 
L 246.404844 236.083946 
L 247.398617 236.505 
L 249.836128 237.060309 
L 250.904375 237.461909 
L 256.144295 238.459122 
L 259.903437 238.945852 
L 264.402969 239.589861 
L 268.9025 240.197519 
L 273.402031 240.720081 
L 282.401094 242.081358 
L 291.400156 243.296214 
L 292.803611 243.522 
L 295.899687 243.859246 
L 299.012005 244.243118 
L 300.399219 244.58303 
L 302.374719 244.834072 
L 304.89875 245.315383 
L 309.398281 245.868078 
L 313.897812 246.181288 
L 314.746185 246.302011 
L 321.030106 246.831406 
L 329.318178 248.2 
L 329.318178 248.2 
" style="fill:none;stroke:#04b0ed;stroke-width:1.5;"/>
   </g>
   <g id="patch_3">
    <path d="M 52.925 248.2 
L 52.925 14.3 
" style="fill:none;stroke:#000000;stroke-linecap:square;stroke-linejoin:miter;stroke-width:0.8;"/>
   </g>
   <g id="patch_4">
    <path d="M 412.8875 248.2 
L 412.8875 14.3 
" style="fill:none;stroke:#000000;stroke-linecap:square;stroke-linejoin:miter;stroke-width:0.8;"/>
   </g>
   <g id="patch_5">
    <path d="M 52.925 248.2 
L 412.8875 248.2 
" style="fill:none;stroke:#000000;stroke-linecap:square;stroke-linejoin:miter;stroke-width:0.8;"/>
   </g>
   <g id="patch_6">
    <path d="M 52.925 14.3 
L 412.8875 14.3 
" style="fill:none;stroke:#000000;stroke-linecap:square;stroke-linejoin:miter;stroke-width:0.8;"/>
   </g>
   <g id="text_18">
    <!-- 778 years -->
    <g transform="translate(350.972 27.603)scale(0.12 -0.12)">
     <defs>
      <path d="M 4.25 57.859375 
L 4.25 70.609375 
L 51.171875 70.609375 
L 51.171875 60.640625 
Q 45.359375 54.9375 39.34375 44.234375 
Q 33.34375 33.546875 30.1875 21.5 
Q 27.046875 9.46875 27.09375 0 
L 13.875 0 
Q 14.203125 14.84375 19.984375 30.265625 
Q 25.78125 45.703125 35.453125 57.859375 
z
" id="Arial-BoldMT-55"/>
      <path d="M 16.015625 38.625 
Q 10.6875 40.875 8.265625 44.796875 
Q 5.859375 48.734375 5.859375 53.421875 
Q 5.859375 61.421875 11.453125 66.640625 
Q 17.046875 71.875 27.34375 71.875 
Q 37.546875 71.875 43.1875 66.640625 
Q 48.828125 61.421875 48.828125 53.421875 
Q 48.828125 48.4375 46.234375 44.546875 
Q 43.65625 40.671875 38.96875 38.625 
Q 44.921875 36.234375 48.015625 31.640625 
Q 51.125 27.046875 51.125 21.046875 
Q 51.125 11.140625 44.796875 4.9375 
Q 38.484375 -1.265625 27.984375 -1.265625 
Q 18.21875 -1.265625 11.71875 3.859375 
Q 4.046875 9.90625 4.046875 20.453125 
Q 4.046875 26.265625 6.921875 31.125 
Q 9.8125 35.984375 16.015625 38.625 
z
M 18.84375 52.4375 
Q 18.84375 48.34375 21.15625 46.046875 
Q 23.484375 43.75 27.34375 43.75 
Q 31.25 43.75 33.59375 46.0625 
Q 35.9375 48.390625 35.9375 52.484375 
Q 35.9375 56.34375 33.609375 58.65625 
Q 31.296875 60.984375 27.484375 60.984375 
Q 23.53125 60.984375 21.1875 58.640625 
Q 18.84375 56.296875 18.84375 52.4375 
z
M 17.578125 21.78125 
Q 17.578125 16.109375 20.484375 12.9375 
Q 23.390625 9.765625 27.734375 9.765625 
Q 31.984375 9.765625 34.765625 12.8125 
Q 37.546875 15.875 37.546875 21.625 
Q 37.546875 26.65625 34.71875 29.703125 
Q 31.890625 32.765625 27.546875 32.765625 
Q 22.515625 32.765625 20.046875 29.296875 
Q 17.578125 25.828125 17.578125 21.78125 
z
" id="Arial-BoldMT-56"/>
      <path id="Arial-BoldMT-32"/>
      <path d="M 0.6875 51.859375 
L 15.28125 51.859375 
L 27.6875 15.046875 
L 39.796875 51.859375 
L 54 51.859375 
L 35.6875 1.953125 
L 32.421875 -7.078125 
Q 30.609375 -11.625 28.96875 -14.015625 
Q 27.34375 -16.40625 25.21875 -17.890625 
Q 23.09375 -19.390625 19.984375 -20.21875 
Q 16.890625 -21.046875 12.984375 -21.046875 
Q 9.03125 -21.046875 5.21875 -20.21875 
L 4 -9.46875 
Q 7.234375 -10.109375 9.8125 -10.109375 
Q 14.59375 -10.109375 16.890625 -7.296875 
Q 19.1875 -4.5 20.40625 -0.140625 
z
" id="Arial-BoldMT-121"/>
      <path d="M 37.203125 16.5 
L 50.875 14.203125 
Q 48.25 6.6875 42.546875 2.75 
Q 36.859375 -1.171875 28.328125 -1.171875 
Q 14.796875 -1.171875 8.296875 7.671875 
Q 3.171875 14.75 3.171875 25.53125 
Q 3.171875 38.421875 9.90625 45.71875 
Q 16.65625 53.03125 26.953125 53.03125 
Q 38.53125 53.03125 45.21875 45.390625 
Q 51.90625 37.75 51.609375 21.96875 
L 17.234375 21.96875 
Q 17.390625 15.875 20.5625 12.46875 
Q 23.734375 9.078125 28.46875 9.078125 
Q 31.6875 9.078125 33.875 10.828125 
Q 36.078125 12.59375 37.203125 16.5 
z
M 37.984375 30.375 
Q 37.84375 36.328125 34.90625 39.421875 
Q 31.984375 42.53125 27.78125 42.53125 
Q 23.296875 42.53125 20.359375 39.265625 
Q 17.4375 35.984375 17.484375 30.375 
z
" id="Arial-BoldMT-101"/>
      <path d="M 17.4375 36.03125 
L 4.984375 38.28125 
Q 7.078125 45.796875 12.203125 49.40625 
Q 17.328125 53.03125 27.4375 53.03125 
Q 36.625 53.03125 41.109375 50.859375 
Q 45.609375 48.6875 47.4375 45.34375 
Q 49.265625 42 49.265625 33.0625 
L 49.125 17.046875 
Q 49.125 10.203125 49.78125 6.953125 
Q 50.4375 3.71875 52.25 0 
L 38.671875 0 
Q 38.140625 1.375 37.359375 4.046875 
Q 37.015625 5.28125 36.859375 5.671875 
Q 33.34375 2.25 29.34375 0.53125 
Q 25.34375 -1.171875 20.796875 -1.171875 
Q 12.796875 -1.171875 8.171875 3.171875 
Q 3.5625 7.515625 3.5625 14.15625 
Q 3.5625 18.5625 5.65625 22 
Q 7.765625 25.4375 11.546875 27.265625 
Q 15.328125 29.109375 22.46875 30.46875 
Q 32.078125 32.28125 35.796875 33.84375 
L 35.796875 35.203125 
Q 35.796875 39.15625 33.84375 40.84375 
Q 31.890625 42.53125 26.46875 42.53125 
Q 22.796875 42.53125 20.75 41.09375 
Q 18.703125 39.65625 17.4375 36.03125 
z
M 35.796875 24.90625 
Q 33.15625 24.03125 27.4375 22.796875 
Q 21.734375 21.578125 19.96875 20.40625 
Q 17.28125 18.5 17.28125 15.578125 
Q 17.28125 12.703125 19.421875 10.59375 
Q 21.578125 8.5 24.90625 8.5 
Q 28.609375 8.5 31.984375 10.9375 
Q 34.46875 12.796875 35.25 15.484375 
Q 35.796875 17.234375 35.796875 22.171875 
z
" id="Arial-BoldMT-97"/>
      <path d="M 20.3125 0 
L 6.59375 0 
L 6.59375 51.859375 
L 19.34375 51.859375 
L 19.34375 44.484375 
Q 22.609375 49.703125 25.21875 51.359375 
Q 27.828125 53.03125 31.15625 53.03125 
Q 35.84375 53.03125 40.1875 50.4375 
L 35.9375 38.484375 
Q 32.46875 40.71875 29.5 40.71875 
Q 26.609375 40.71875 24.609375 39.125 
Q 22.609375 37.546875 21.453125 33.390625 
Q 20.3125 29.25 20.3125 16.015625 
z
" id="Arial-BoldMT-114"/>
      <path d="M 2.34375 14.796875 
L 16.109375 16.890625 
Q 17 12.890625 19.671875 10.8125 
Q 22.359375 8.734375 27.203125 8.734375 
Q 32.515625 8.734375 35.203125 10.6875 
Q 37.015625 12.0625 37.015625 14.359375 
Q 37.015625 15.921875 36.03125 16.9375 
Q 35.015625 17.921875 31.453125 18.75 
Q 14.84375 22.40625 10.40625 25.4375 
Q 4.25 29.640625 4.25 37.109375 
Q 4.25 43.84375 9.5625 48.4375 
Q 14.890625 53.03125 26.078125 53.03125 
Q 36.71875 53.03125 41.890625 49.5625 
Q 47.078125 46.09375 49.03125 39.3125 
L 36.078125 36.921875 
Q 35.25 39.9375 32.921875 41.546875 
Q 30.609375 43.171875 26.3125 43.171875 
Q 20.90625 43.171875 18.5625 41.65625 
Q 17 40.578125 17 38.875 
Q 17 37.40625 18.359375 36.375 
Q 20.21875 35.015625 31.171875 32.515625 
Q 42.140625 30.03125 46.484375 26.421875 
Q 50.78125 22.75 50.78125 16.21875 
Q 50.78125 9.078125 44.828125 3.953125 
Q 38.875 -1.171875 27.203125 -1.171875 
Q 16.609375 -1.171875 10.421875 3.125 
Q 4.25 7.421875 2.34375 14.796875 
z
" id="Arial-BoldMT-115"/>
     </defs>
     <use xlink:href="#Arial-BoldMT-55"/>
     <use x="55.615234" xlink:href="#Arial-BoldMT-55"/>
     <use x="111.230469" xlink:href="#Arial-BoldMT-56"/>
     <use x="166.845703" xlink:href="#Arial-BoldMT-32"/>
     <use x="194.628906" xlink:href="#Arial-BoldMT-121"/>
     <use x="250.244141" xlink:href="#Arial-BoldMT-101"/>
     <use x="305.859375" xlink:href="#Arial-BoldMT-97"/>
     <use x="361.474609" xlink:href="#Arial-BoldMT-114"/>
     <use x="400.390625" xlink:href="#Arial-BoldMT-115"/>
    </g>
   </g>
   <g id="text_19">
    <g clip-path="url(#p9dadea9caf)">
     <!-- 100 $^{\circ}$C -->
     <g style="fill:#5a3bfd;" transform="translate(314.425753 68.891471)rotate(-271.470042)scale(0.1 -0.1)">
      <defs>
       <path d="M 25 5.609375 
Q 19.828125 5.609375 15.359375 8.21875 
Q 10.890625 10.84375 8.25 15.375 
Q 5.609375 19.921875 5.609375 25 
Q 5.609375 30.078125 8.25 34.609375 
Q 10.890625 39.15625 15.359375 41.765625 
Q 19.828125 44.390625 25 44.390625 
Q 30.171875 44.390625 34.609375 41.75 
Q 39.0625 39.109375 41.671875 34.59375 
Q 44.28125 30.078125 44.28125 25 
Q 44.28125 19.921875 41.671875 15.40625 
Q 39.0625 10.890625 34.609375 8.25 
Q 30.171875 5.609375 25 5.609375 
z
M 25 9.625 
Q 31.25 9.625 35.765625 14.1875 
Q 40.28125 18.75 40.28125 25 
Q 40.28125 29 38.203125 32.59375 
Q 36.140625 36.1875 32.625 38.28125 
Q 29.109375 40.375 25 40.375 
Q 21.921875 40.375 19.140625 39.171875 
Q 16.359375 37.984375 14.15625 35.78125 
Q 11.96875 33.59375 10.796875 30.828125 
Q 9.625 28.078125 9.625 25 
Q 9.625 18.75 14.140625 14.1875 
Q 18.65625 9.625 25 9.625 
z
" id="Cmsy10-177"/>
       <path d="M 58.796875 25.09375 
L 68.265625 22.703125 
Q 65.28125 11.03125 57.546875 4.90625 
Q 49.8125 -1.21875 38.625 -1.21875 
Q 27.046875 -1.21875 19.796875 3.484375 
Q 12.546875 8.203125 8.765625 17.140625 
Q 4.984375 26.078125 4.984375 36.328125 
Q 4.984375 47.515625 9.25 55.828125 
Q 13.53125 64.15625 21.40625 68.46875 
Q 29.296875 72.796875 38.765625 72.796875 
Q 49.515625 72.796875 56.828125 67.328125 
Q 64.15625 61.859375 67.046875 51.953125 
L 57.71875 49.75 
Q 55.21875 57.5625 50.484375 61.125 
Q 45.75 64.703125 38.578125 64.703125 
Q 30.328125 64.703125 24.78125 60.734375 
Q 19.234375 56.78125 16.984375 50.109375 
Q 14.75 43.453125 14.75 36.375 
Q 14.75 27.25 17.40625 20.4375 
Q 20.0625 13.625 25.671875 10.25 
Q 31.296875 6.890625 37.84375 6.890625 
Q 45.796875 6.890625 51.3125 11.46875 
Q 56.84375 16.0625 58.796875 25.09375 
z
" id="ArialMT-67"/>
      </defs>
      <use transform="translate(0 0.203125)" xlink:href="#ArialMT-49"/>
      <use transform="translate(55.615234 0.203125)" xlink:href="#ArialMT-48"/>
      <use transform="translate(111.230469 0.203125)" xlink:href="#ArialMT-48"/>
      <use transform="translate(166.845703 0.203125)" xlink:href="#ArialMT-32"/>
      <use transform="translate(199.093047 38.467188)scale(0.7)" xlink:href="#Cmsy10-177"/>
      <use transform="translate(240.470391 0.203125)" xlink:href="#ArialMT-67"/>
     </g>
    </g>
   </g>
   <g id="text_20">
    <g clip-path="url(#p9dadea9caf)">
     <!-- 200 $^{\circ}$C -->
     <g style="fill:#3079f7;" transform="translate(277.262322 68.965928)rotate(-272.816415)scale(0.1 -0.1)">
      <use transform="translate(0 0.203125)" xlink:href="#ArialMT-50"/>
      <use transform="translate(55.615234 0.203125)" xlink:href="#ArialMT-48"/>
      <use transform="translate(111.230469 0.203125)" xlink:href="#ArialMT-48"/>
      <use transform="translate(166.845703 0.203125)" xlink:href="#ArialMT-32"/>
      <use transform="translate(199.093047 38.467188)scale(0.7)" xlink:href="#Cmsy10-177"/>
      <use transform="translate(240.470391 0.203125)" xlink:href="#ArialMT-67"/>
     </g>
    </g>
   </g>
   <g id="text_21">
    <g clip-path="url(#p9dadea9caf)">
     <!-- 300 $^{\circ}$C -->
     <g style="fill:#04b0ed;" transform="translate(250.029341 68.850834)rotate(-270.660371)scale(0.1 -0.1)">
      <use transform="translate(0 0.203125)" xlink:href="#ArialMT-51"/>
      <use transform="translate(55.615234 0.203125)" xlink:href="#ArialMT-48"/>
      <use transform="translate(111.230469 0.203125)" xlink:href="#ArialMT-48"/>
      <use transform="translate(166.845703 0.203125)" xlink:href="#ArialMT-32"/>
      <use transform="translate(199.093047 38.467188)scale(0.7)" xlink:href="#Cmsy10-177"/>
      <use transform="translate(240.470391 0.203125)" xlink:href="#ArialMT-67"/>
     </g>
    </g>
   </g>
  </g>
 </g>
 <defs>
  <clipPath id="p9dadea9caf">
   <rect height="233.9" width="359.9625" x="52.925" y="14.3"/>
  </clipPath>
 </defs>
</svg>
